<svg xmlns="http://www.w3.org/2000/svg" xmlns:xlink="http://www.w3.org/1999/xlink" contentStyleType="text/css" data-diagram-type="ACTIVITY" height="364px" preserveAspectRatio="none" style="width:301px;height:364px;background:#FFFFFF;" version="1.1" viewBox="0 0 301 364" width="301px" zoomAndPan="magnify"><?plantuml 1.2026.3beta5?><defs/><g><rect fill="#F1F1F1" height="33.9688" rx="12.5" ry="12.5" style="stroke:#181818;stroke-width:0.5;" width="46.543" x="104.3225" y="16"/><text fill="#000000" font-family="sans-serif" font-size="12" lengthAdjust="spacing" textLength="26.543" x="114.3225" y="37.1387">foo1</text><polygon fill="#F1F1F1" points="115.594,91.3677,139.594,91.3677,151.594,103.3677,139.594,115.3677,115.594,115.3677,103.594,103.3677,115.594,91.3677" style="stroke:#181818;stroke-width:0.5;"/><text fill="#000000" font-family="sans-serif" font-size="11" lengthAdjust="spacing" textLength="21.1245" x="117.0317" y="107.1758">test</text><rect fill="#F1F1F1" height="33.9688" rx="12.5" ry="12.5" style="stroke:#181818;stroke-width:0.5;" width="46.543" x="16" y="125.3677"/><text fill="#000000" font-family="sans-serif" font-size="12" lengthAdjust="spacing" textLength="26.543" x="26" y="146.5063">foo2</text><rect fill="#F1F1F1" height="33.9688" rx="12.5" ry="12.5" style="stroke:#181818;stroke-width:0.5;" width="46.543" x="16" y="226.3447"/><text fill="#000000" font-family="sans-serif" font-size="12" lengthAdjust="spacing" textLength="26.543" x="26" y="247.4834">foo3</text><rect fill="#F1F1F1" height="33.9688" rx="12.5" ry="12.5" style="stroke:#181818;stroke-width:0.5;" width="46.543" x="192.645" y="125.3677"/><text fill="#000000" font-family="sans-serif" font-size="12" lengthAdjust="spacing" textLength="26.543" x="202.645" y="146.5063">foo4</text><polygon fill="#F1F1F1" points="127.594,266.3135,139.594,278.3135,127.594,290.3135,115.594,278.3135,127.594,266.3135" style="stroke:#181818;stroke-width:0.5;"/><rect fill="#F1F1F1" height="33.9688" rx="12.5" ry="12.5" style="stroke:#181818;stroke-width:0.5;" width="46.543" x="104.3225" y="310.3135"/><text fill="#000000" font-family="sans-serif" font-size="12" lengthAdjust="spacing" textLength="26.543" x="114.3225" y="331.4521">foo5</text><line style="stroke:#008000;stroke-width:1.5;stroke-dasharray:7,7;" x1="39.2715" x2="39.2715" y1="159.3364" y2="226.3447"/><polygon fill="#008000" points="35.2715,216.3447,39.2715,226.3447,43.2715,216.3447,39.2715,220.3447" style="stroke:#008000;stroke-width:1;"/><text fill="#000000" font-family="sans-serif" font-size="11" lengthAdjust="spacing" textLength="69.1152" x="43.2715" y="180.6411">The text can</text><text fill="#000000" font-family="sans-serif" font-size="11" lengthAdjust="spacing" textLength="129.3735" x="43.2715" y="193.4458">also be on several lines</text><text fill="#000000" font-family="sans-serif" font-size="11" lengthAdjust="spacing" textLength="20.6948" x="43.2715" y="206.2505">and</text><text fill="#000000" font-family="sans-serif" font-size="11" font-weight="700" lengthAdjust="spacing" textLength="27.2261" x="67.4629" y="206.2505">very</text><text fill="#000000" font-family="sans-serif" font-size="11" lengthAdjust="spacing" textLength="34.23" x="98.1855" y="206.2505">long...</text><line style="stroke:#0000FF;stroke-width:1;" x1="103.594" x2="39.2715" y1="103.3677" y2="103.3677"/><line style="stroke:#0000FF;stroke-width:1;" x1="39.2715" x2="39.2715" y1="103.3677" y2="125.3677"/><polygon fill="#0000FF" points="35.2715,115.3677,39.2715,125.3677,43.2715,115.3677,39.2715,119.3677" style="stroke:#0000FF;stroke-width:1;"/><line style="stroke:#000000;stroke-width:1.5;stroke-dasharray:1,3;" x1="151.594" x2="215.9165" y1="103.3677" y2="103.3677"/><line style="stroke:#000000;stroke-width:1.5;stroke-dasharray:1,3;" x1="215.9165" x2="215.9165" y1="103.3677" y2="125.3677"/><polygon fill="#000000" points="211.9165,115.3677,215.9165,125.3677,219.9165,115.3677,215.9165,119.3677" style="stroke:#000000;stroke-width:1;"/><line style="stroke:#181818;stroke-width:1;" x1="39.2715" x2="39.2715" y1="260.3135" y2="278.3135"/><line style="stroke:#181818;stroke-width:1;" x1="39.2715" x2="115.594" y1="278.3135" y2="278.3135"/><polygon fill="#181818" points="105.594,274.3135,115.594,278.3135,105.594,282.3135,109.594,278.3135" style="stroke:#181818;stroke-width:1;"/><line style="stroke:#181818;stroke-width:1;" x1="215.9165" x2="215.9165" y1="159.3364" y2="278.3135"/><line style="stroke:#181818;stroke-width:1;" x1="215.9165" x2="139.594" y1="278.3135" y2="278.3135"/><polygon fill="#181818" points="149.594,274.3135,139.594,278.3135,149.594,282.3135,145.594,278.3135" style="stroke:#181818;stroke-width:1;"/><line style="stroke:#181818;stroke-width:1;" x1="127.594" x2="127.594" y1="49.9688" y2="91.3677"/><polygon fill="#181818" points="123.594,81.3677,127.594,91.3677,131.594,81.3677,127.594,85.3677" style="stroke:#181818;stroke-width:1;"/><text fill="#000000" font-family="sans-serif" font-size="11" lengthAdjust="spacing" textLength="148.7793" x="131.594" y="71.2734">You can put text on arrows</text><line style="stroke:#808080;stroke-width:2;" x1="127.594" x2="127.594" y1="290.3135" y2="310.3135"/><polygon fill="#808080" points="123.594,300.3135,127.594,310.3135,131.594,300.3135,127.594,304.3135" style="stroke:#808080;stroke-width:1;"/><?plantuml-src DOv93i8m34NtEOKbDX2rbPWsHEefs2348ctSGKGsIboWjoSTMFg_h_TzQPZtHkKbt7Y0sXAy1W71hm0Js13u4utg6zWAHjc1T4WA8BzlAZ_W8o_JSKcEWrdIDY1Ivcpiq2KArmuNMrAdXlMHeSB97V6DmNhmFM6S43dGEcMZrk2Psg8ep6e_6eK-ud_Ori_CiSWyiLPEgKAkRzJyX1spYlsC9tWsFm00?></g></svg>