<svg xmlns="http://www.w3.org/2000/svg" xmlns:xlink="http://www.w3.org/1999/xlink" contentStyleType="text/css" data-diagram-type="ACTIVITY" height="577px" preserveAspectRatio="none" style="width:309px;height:577px;background:#FFFFFF;" version="1.1" viewBox="0 0 309 577" width="309px" zoomAndPan="magnify"><?plantuml 1.2026.3beta5?><defs/><g><ellipse cx="143.5222" cy="25" fill="#222222" rx="10" ry="10" style="stroke:#222222;stroke-width:1;"/><rect fill="#F1F1F1" height="33.9688" rx="12.5" ry="12.5" style="stroke:#181818;stroke-width:0.5;" width="113.0176" x="87.0134" y="99"/><text fill="#000000" font-family="sans-serif" font-size="12" lengthAdjust="spacing" textLength="93.0176" x="97.0134" y="120.1387">Test something</text><rect fill="#98FB98" height="33.9688" rx="12.5" ry="12.5" style="stroke:#181818;stroke-width:0.5;" width="37.3145" x="124.865" y="201.3711"/><text fill="#000000" font-family="sans-serif" font-size="12" lengthAdjust="spacing" textLength="17.3145" x="134.865" y="222.5098">OK</text><polygon fill="#F1F1F1" points="76.7354,152.9688,210.3091,152.9688,222.3091,164.9688,210.3091,176.9688,76.7354,176.9688,64.7354,164.9688,76.7354,152.9688" style="stroke:#181818;stroke-width:0.5;"/><text fill="#000000" font-family="sans-serif" font-size="11" lengthAdjust="spacing" textLength="13.7017" x="147.5222" y="187.1792">no</text><text fill="#000000" font-family="sans-serif" font-size="11" lengthAdjust="spacing" textLength="133.5737" x="76.7354" y="168.7769">Something went wrong?</text><rect fill="#F1F1F1" height="33.9688" rx="12.5" ry="12.5" style="stroke:#181818;stroke-width:0.5;" width="179.8379" x="53.6033" y="306.6567"/><text fill="#000000" font-family="sans-serif" font-size="12" lengthAdjust="spacing" textLength="159.8379" x="63.6033" y="327.7954">Alert "Error with long text"</text><polygon fill="#F1F1F1" points="143.5222,55,155.5222,67,143.5222,79,131.5222,67,143.5222,55" style="stroke:#181818;stroke-width:0.5;"/><polygon fill="#F1F1F1" points="37,360.6255,250.0444,360.6255,262.0444,372.6255,250.0444,384.6255,37,384.6255,25,372.6255,37,360.6255" style="stroke:#181818;stroke-width:0.5;"/><text fill="#000000" font-family="sans-serif" font-size="11" lengthAdjust="spacing" textLength="13.7017" x="147.5222" y="394.8359">no</text><text fill="#000000" font-family="sans-serif" font-size="11" lengthAdjust="spacing" textLength="213.0444" x="37" y="376.4336">Something went wrong with long text?</text><text fill="#000000" font-family="sans-serif" font-size="11" lengthAdjust="spacing" textLength="19.0083" x="262.0444" y="370.0313">yes</text><polygon fill="#F1F1F1" points="143.5222,416.3359,155.5222,428.3359,143.5222,440.3359,131.5222,428.3359,143.5222,416.3359" style="stroke:#181818;stroke-width:0.5;"/><rect fill="#F1F1F1" height="33.9688" rx="12.5" ry="12.5" style="stroke:#181818;stroke-width:0.5;" width="111.7227" x="87.6609" y="481.7349"/><text fill="#000000" font-family="sans-serif" font-size="12" lengthAdjust="spacing" textLength="91.7227" x="97.6609" y="502.8735">Alert "Success"</text><ellipse cx="143.5222" cy="546.7036" fill="none" rx="11" ry="11" style="stroke:#222222;stroke-width:1;"/><ellipse cx="143.5222" cy="546.7036" fill="#222222" rx="6" ry="6" style="stroke:#222222;stroke-width:1;"/><line style="stroke:#181818;stroke-width:1;" x1="143.5222" x2="143.5222" y1="235.3398" y2="248.2578"/><line style="stroke:#181818;stroke-width:1;" x1="143.5222" x2="15" y1="248.2578" y2="248.2578"/><line style="stroke:#181818;stroke-width:1;" x1="15" x2="15" y1="248.2578" y2="428.3359"/><line style="stroke:#181818;stroke-width:1;" x1="15" x2="131.5222" y1="428.3359" y2="428.3359"/><polygon fill="#181818" points="121.5222,424.3359,131.5222,428.3359,121.5222,432.3359,125.5222,428.3359" style="stroke:#181818;stroke-width:1;"/><line style="stroke:#181818;stroke-width:1;" x1="143.5222" x2="143.5222" y1="176.9688" y2="201.3711"/><polygon fill="#181818" points="139.5222,191.3711,143.5222,201.3711,147.5222,191.3711,143.5222,195.3711" style="stroke:#181818;stroke-width:1;"/><line style="stroke:#181818;stroke-width:1;" x1="222.3091" x2="234.3091" y1="164.9688" y2="164.9688"/><polygon fill="#181818" points="230.3091,222.8555,234.3091,232.8555,238.3091,222.8555,234.3091,226.8555" style="stroke:#181818;stroke-width:1;"/><line style="stroke:#181818;stroke-width:1;" x1="234.3091" x2="234.3091" y1="164.9688" y2="265.2578"/><line style="stroke:#181818;stroke-width:1;" x1="234.3091" x2="143.5222" y1="265.2578" y2="265.2578"/><line style="stroke:#181818;stroke-width:1;" x1="143.5222" x2="143.5222" y1="132.9688" y2="152.9688"/><polygon fill="#181818" points="139.5222,142.9688,143.5222,152.9688,147.5222,142.9688,143.5222,146.9688" style="stroke:#181818;stroke-width:1;"/><line style="stroke:#181818;stroke-width:1;" x1="143.5222" x2="143.5222" y1="265.2578" y2="306.6567"/><polygon fill="#181818" points="139.5222,296.6567,143.5222,306.6567,147.5222,296.6567,143.5222,300.6567" style="stroke:#181818;stroke-width:1;"/><text fill="#000000" font-family="sans-serif" font-size="11" lengthAdjust="spacing" textLength="24.1001" x="147.5222" y="286.5625">NOK</text><line style="stroke:#181818;stroke-width:1;" x1="143.5222" x2="143.5222" y1="79" y2="99"/><polygon fill="#181818" points="139.5222,89,143.5222,99,147.5222,89,143.5222,93" style="stroke:#181818;stroke-width:1;"/><line style="stroke:#181818;stroke-width:1;" x1="262.0444" x2="274.0444" y1="372.6255" y2="372.6255"/><polygon fill="#181818" points="270.0444,243.2578,274.0444,233.2578,278.0444,243.2578,274.0444,239.2578" style="stroke:#181818;stroke-width:1;"/><line style="stroke:#181818;stroke-width:1;" x1="274.0444" x2="274.0444" y1="67" y2="372.6255"/><line style="stroke:#181818;stroke-width:1;" x1="274.0444" x2="155.5222" y1="67" y2="67"/><polygon fill="#181818" points="165.5222,63,155.5222,67,165.5222,71,161.5222,67" style="stroke:#181818;stroke-width:1;"/><line style="stroke:#181818;stroke-width:1;" x1="143.5222" x2="143.5222" y1="340.6255" y2="360.6255"/><polygon fill="#181818" points="139.5222,350.6255,143.5222,360.6255,147.5222,350.6255,143.5222,354.6255" style="stroke:#181818;stroke-width:1;"/><line style="stroke:#181818;stroke-width:1;" x1="143.5222" x2="143.5222" y1="384.6255" y2="416.3359"/><polygon fill="#181818" points="139.5222,406.3359,143.5222,416.3359,147.5222,406.3359,143.5222,410.3359" style="stroke:#181818;stroke-width:1;"/><line style="stroke:#181818;stroke-width:1;" x1="143.5222" x2="143.5222" y1="35" y2="55"/><polygon fill="#181818" points="139.5222,45,143.5222,55,147.5222,45,143.5222,49" style="stroke:#181818;stroke-width:1;"/><line style="stroke:#181818;stroke-width:1;" x1="143.5222" x2="143.5222" y1="440.3359" y2="481.7349"/><polygon fill="#181818" points="139.5222,471.7349,143.5222,481.7349,147.5222,471.7349,143.5222,475.7349" style="stroke:#181818;stroke-width:1;"/><text fill="#000000" font-family="sans-serif" font-size="11" font-style="italic" lengthAdjust="spacing" textLength="70.0283" x="147.5222" y="461.6406">merged step</text><line style="stroke:#181818;stroke-width:1;" x1="143.5222" x2="143.5222" y1="515.7036" y2="535.7036"/><polygon fill="#181818" points="139.5222,525.7036,143.5222,535.7036,147.5222,525.7036,143.5222,529.7036" style="stroke:#181818;stroke-width:1;"/><?plantuml-src ROwz3e9048HxdcAY3HI67Wp6mif42tq1n14kuXtPNOE-lHVKnjXDvYVpgTLYYN1WRGbG7Aa63JTQvtnRHWjm5wI7huMHtZ1AyEqgWtNqI7t8fcBSxxSbbilvKFTiXVHLzKbEmlewQVgpkqngKUrYVvB5kgSOPXkH81YTTUZZ1OmFcvKVG8oTw_aVvcSJsPmYVL8p-61lnaMLvpTAopFKEEHvcNn_3_UceMgyKWl32m00?></g></svg>