<svg xmlns="http://www.w3.org/2000/svg" xmlns:xlink="http://www.w3.org/1999/xlink" contentStyleType="text/css" data-diagram-type="ACTIVITY" height="230px" preserveAspectRatio="none" style="width:305px;height:230px;background:#FFFFFF;" version="1.1" viewBox="0 0 305 230" width="305px" zoomAndPan="magnify"><?plantuml 1.2026.3beta5?><defs/><g><ellipse cx="150.6729" cy="25" fill="#222222" rx="10" ry="10" style="stroke:#222222;stroke-width:1;"/><rect fill="#F1F1F1" height="33.9688" rx="12.5" ry="12.5" style="stroke:#181818;stroke-width:0.5;" width="122.6504" x="89.3477" y="55"/><text fill="#000000" font-family="sans-serif" font-size="12" lengthAdjust="spacing" textLength="102.6504" x="99.3477" y="76.1387">starting progress</text><rect fill="#FF69B4" height="47.9375" rx="12.5" ry="12.5" style="stroke:#181818;stroke-width:0.5;" width="269.3457" x="16" y="108.9688"/><text fill="#000000" font-family="sans-serif" font-size="12" lengthAdjust="spacing" textLength="157.5996" x="26" y="130.1074">reading configuration files</text><text fill="#000000" font-family="sans-serif" font-size="12" lengthAdjust="spacing" textLength="249.3457" x="26" y="144.0762">These files should be edited at this point!</text><rect fill="#AAAAAA" height="33.9688" rx="12.5" ry="12.5" style="stroke:#181818;stroke-width:0.5;" width="150.2422" x="75.5518" y="176.9063"/><text fill="#000000" font-family="sans-serif" font-size="12" lengthAdjust="spacing" textLength="130.2422" x="85.5518" y="198.0449">ending of the process</text><line style="stroke:#181818;stroke-width:1;" x1="150.6729" x2="150.6729" y1="35" y2="55"/><polygon fill="#181818" points="146.6729,45,150.6729,55,154.6729,45,150.6729,49" style="stroke:#181818;stroke-width:1;"/><line style="stroke:#181818;stroke-width:1;" x1="150.6729" x2="150.6729" y1="88.9688" y2="108.9688"/><polygon fill="#181818" points="146.6729,98.9688,150.6729,108.9688,154.6729,98.9688,150.6729,102.9688" style="stroke:#181818;stroke-width:1;"/><line style="stroke:#181818;stroke-width:1;" x1="150.6729" x2="150.6729" y1="156.9063" y2="176.9063"/><polygon fill="#181818" points="146.6729,166.9063,150.6729,176.9063,154.6729,166.9063,150.6729,170.9063" style="stroke:#181818;stroke-width:1;"/><?plantuml-src 9Oqn3iCm30Dtlq95Vk441hfbxD0FkB5i2msaG5B-tpZbGe8uaEPPFKGRHjpWK6cAPdE8YhcCQXEkr4xDJi9GQKSBxuw6_mpMvTmBV12ma6E1xE2T30uXziSCopAjuY_YRqeX8j-hKYy8nzysxWRql9NI3m00?></g></svg>