<svg xmlns="http://www.w3.org/2000/svg" xmlns:xlink="http://www.w3.org/1999/xlink" contentStyleType="text/css" data-diagram-type="ACTIVITY" height="326px" preserveAspectRatio="none" style="width:181px;height:326px;background:#FFFFFF;" version="1.1" viewBox="0 0 181 326" width="181px" zoomAndPan="magnify"><?plantuml 1.2026.3beta5?><defs/><g><ellipse cx="88.7744" cy="25" fill="#222222" rx="10" ry="10" style="stroke:#222222;stroke-width:1;"/><rect fill="#F1F1F1" height="47.9375" rx="12.5" ry="12.5" style="stroke:#181818;stroke-width:0.5;" width="145.5488" x="16" y="55"/><text fill="#000000" font-family="sans-serif" font-size="12" lengthAdjust="spacing" textLength="125.5488" x="26" y="76.1387">The connector below</text><text fill="#000000" font-family="sans-serif" font-size="12" lengthAdjust="spacing" textLength="116.4316" x="26" y="90.1074">wishes he was blue</text><ellipse cx="88.7744" cy="132.9375" fill="#0000FF" rx="10" ry="10" style="stroke:#181818;stroke-width:0.5;"/><path d="M87.6338,133.2656 L87.6338,136.4688 L89.54,136.4688 Q90.4932,136.4688 90.9463,136.0781 Q91.415,135.6719 91.415,134.8594 Q91.415,134.0313 90.9463,133.6563 Q90.4932,133.2656 89.54,133.2656 L87.6338,133.2656 Z M87.6338,129.6563 L87.6338,132.2969 L89.3838,132.2969 Q90.2588,132.2969 90.6807,131.9688 Q91.1025,131.6406 91.1025,130.9844 Q91.1025,130.3125 90.6807,129.9844 Q90.2588,129.6563 89.3838,129.6563 L87.6338,129.6563 Z M86.4463,128.6875 L89.4775,128.6875 Q90.8369,128.6875 91.5557,129.25 Q92.29,129.8125 92.29,130.8438 Q92.29,131.6563 91.915,132.1406 Q91.54,132.6094 90.8213,132.7188 Q91.6963,132.9063 92.1807,133.5 Q92.665,134.0938 92.665,134.9844 Q92.665,136.1563 91.8682,136.7969 Q91.0713,137.4375 89.5869,137.4375 L86.4463,137.4375 L86.4463,128.6875 Z " fill="#000000"/><rect fill="#F1F1F1" height="61.9063" rx="12.5" ry="12.5" style="stroke:#181818;stroke-width:0.5;" width="141.3418" x="18.1035" y="162.9375"/><text fill="#000000" font-family="sans-serif" font-size="12" lengthAdjust="spacing" textLength="119.0566" x="28.1035" y="184.0762">This next connector</text><text fill="#000000" font-family="sans-serif" font-size="12" lengthAdjust="spacing" textLength="121.3418" x="28.1035" y="198.0449">feels that she would</text><text fill="#000000" font-family="sans-serif" font-size="12" lengthAdjust="spacing" textLength="113.8828" x="28.1035" y="212.0137">be better off green</text><ellipse cx="88.7744" cy="254.8438" fill="#008000" rx="10" ry="10" style="stroke:#181818;stroke-width:0.5;"/><path d="M90.915,258.0938 L90.915,255.75 L88.9775,255.75 L88.9775,254.7656 L92.0869,254.7656 L92.0869,258.5313 Q91.3994,259.0156 90.5713,259.2656 Q89.7588,259.5156 88.8213,259.5156 Q86.7588,259.5156 85.6025,258.3125 Q84.4463,257.1094 84.4463,254.9844 Q84.4463,252.8281 85.6025,251.6406 Q86.7588,250.4375 88.8213,250.4375 Q89.665,250.4375 90.4307,250.6563 Q91.2119,250.8594 91.8682,251.2656 L91.8682,252.5313 Q91.2119,251.9688 90.4619,251.6875 Q89.7275,251.4063 88.915,251.4063 Q87.3057,251.4063 86.4932,252.3125 Q85.6963,253.2031 85.6963,254.9844 Q85.6963,256.75 86.4932,257.6563 Q87.3057,258.5469 88.915,258.5469 Q89.54,258.5469 90.0244,258.4375 Q90.5244,258.3281 90.915,258.0938 Z " fill="#000000"/><ellipse cx="88.7744" cy="295.8438" fill="none" rx="11" ry="11" style="stroke:#222222;stroke-width:1;"/><ellipse cx="88.7744" cy="295.8438" fill="#222222" rx="6" ry="6" style="stroke:#222222;stroke-width:1;"/><line style="stroke:#181818;stroke-width:1;" x1="88.7744" x2="88.7744" y1="35" y2="55"/><polygon fill="#181818" points="84.7744,45,88.7744,55,92.7744,45,88.7744,49" style="stroke:#181818;stroke-width:1;"/><line style="stroke:#181818;stroke-width:1;" x1="88.7744" x2="88.7744" y1="102.9375" y2="122.9375"/><polygon fill="#181818" points="84.7744,112.9375,88.7744,122.9375,92.7744,112.9375,88.7744,116.9375" style="stroke:#181818;stroke-width:1;"/><line style="stroke:#181818;stroke-width:1;" x1="88.7744" x2="88.7744" y1="142.9375" y2="162.9375"/><polygon fill="#181818" points="84.7744,152.9375,88.7744,162.9375,92.7744,152.9375,88.7744,156.9375" style="stroke:#181818;stroke-width:1;"/><line style="stroke:#181818;stroke-width:1;" x1="88.7744" x2="88.7744" y1="224.8438" y2="244.8438"/><polygon fill="#181818" points="84.7744,234.8438,88.7744,244.8438,92.7744,234.8438,88.7744,238.8438" style="stroke:#181818;stroke-width:1;"/><line style="stroke:#181818;stroke-width:1;" x1="88.7744" x2="88.7744" y1="264.8438" y2="284.8438"/><polygon fill="#181818" points="84.7744,274.8438,88.7744,284.8438,92.7744,274.8438,88.7744,278.8438" style="stroke:#181818;stroke-width:1;"/><?plantuml-src HOmn3iCW40JxUyL9Rkmla2vDFk0FWBCOIuYpkBF8ymDkN4qncb7prSYj2Rn9ATXCAWTaQTGEJL3kfddba2-yQ1fmytiPoQ5SyBCdf0XaPKlUM4SdL_vIG1-QeRB4o7i5IX_TTFDd8JKv_m00?></g></svg>