<svg xmlns="http://www.w3.org/2000/svg" xmlns:xlink="http://www.w3.org/1999/xlink" contentStyleType="text/css" data-diagram-type="ACTIVITY" height="148px" preserveAspectRatio="none" style="width:64px;height:148px;background:#FFFFFF;" version="1.1" viewBox="0 0 64 148" width="64px" zoomAndPan="magnify"><?plantuml 1.2026.3beta5?><defs/><g><ellipse cx="29.6768" cy="25" fill="#98FB98" rx="10" ry="10" style="stroke:#008000;stroke-width:2;"/><path d="M27.6611,28.5 L29.5986,28.5 L29.5986,21.8281 L27.4893,22.25 L27.4893,21.1719 L29.583,20.75 L30.7705,20.75 L30.7705,28.5 L32.708,28.5 L32.708,29.5 L27.6611,29.5 L27.6611,28.5 Z " fill="#000000"/><rect fill="#F1F1F1" height="33.9688" rx="12.5" ry="12.5" style="stroke:#181818;stroke-width:0.5;" width="27.3535" x="16" y="55"/><text fill="#000000" font-family="sans-serif" font-size="12" lengthAdjust="spacing" textLength="7.3535" x="26" y="76.1387">a</text><ellipse cx="29.6768" cy="118.9688" fill="#98FB98" rx="10" ry="10" style="stroke:#008000;stroke-width:2;"/><path d="M29.7861,115.1406 L28.1768,119.4844 L31.3955,119.4844 L29.7861,115.1406 Z M29.1143,113.9688 L30.458,113.9688 L33.7861,122.7188 L32.5518,122.7188 L31.7549,120.4688 L27.8174,120.4688 L27.0205,122.7188 L25.7705,122.7188 L29.1143,113.9688 Z " fill="#000000"/><line style="stroke:#181818;stroke-width:1;" x1="29.6768" x2="29.6768" y1="35" y2="55"/><polygon fill="#181818" points="25.6768,45,29.6768,55,33.6768,45,29.6768,49" style="stroke:#181818;stroke-width:1;"/><line style="stroke:#181818;stroke-width:1;" x1="29.6768" x2="29.6768" y1="88.9688" y2="108.9688"/><polygon fill="#181818" points="25.6768,98.9688,29.6768,108.9688,33.6768,98.9688,29.6768,102.9688" style="stroke:#181818;stroke-width:1;"/><?plantuml-src ioakgSn9jUDApYnApabLgEPIK71AJCvEByelpKj9pi_9Br8eICn9JIzAJSq3olbavgKwWqMHHK8oCfEpyrABYnMCk6gvRFIXPd9f66foMILQSsauQW80?></g></svg>