<svg xmlns="http://www.w3.org/2000/svg" xmlns:xlink="http://www.w3.org/1999/xlink" contentStyleType="text/css" data-diagram-type="ACTIVITY" height="920px" preserveAspectRatio="none" style="width:476px;height:920px;background:#FFFFFF;" version="1.1" viewBox="0 0 476 920" width="476px" zoomAndPan="magnify"><?plantuml 1.2026.3beta5?><defs/><g><ellipse cx="187.6584" cy="25" fill="#222222" rx="10" ry="10" style="stroke:#222222;stroke-width:1;"/><rect fill="#F1F1F1" height="33.9688" rx="12.5" ry="12.5" style="stroke:#181818;stroke-width:0.5;" width="194.4102" x="90.4534" y="55"/><text fill="#000000" font-family="sans-serif" font-size="12" lengthAdjust="spacing" textLength="174.4102" x="100.4534" y="76.1387">ClickServlet.handleRequest()</text><rect fill="#F1F1F1" height="33.9688" rx="12.5" ry="12.5" style="stroke:#181818;stroke-width:0.5;" width="78.5879" x="148.3645" y="108.9688"/><text fill="#000000" font-family="sans-serif" font-size="12" lengthAdjust="spacing" textLength="58.5879" x="158.3645" y="130.1074">new page</text><rect fill="#F1F1F1" height="33.9688" rx="12.5" ry="12.5" style="stroke:#181818;stroke-width:0.5;" width="96.8984" x="139.2092" y="211.3398"/><text fill="#000000" font-family="sans-serif" font-size="12" lengthAdjust="spacing" textLength="76.8984" x="149.2092" y="232.4785">Page.onInit()</text><rect fill="#F1F1F1" height="33.9688" rx="12.5" ry="12.5" style="stroke:#181818;stroke-width:0.5;" width="117.9219" x="128.6975" y="313.7109"/><text fill="#000000" font-family="sans-serif" font-size="12" lengthAdjust="spacing" textLength="97.9219" x="138.6975" y="334.8496">Process controls</text><polygon fill="#F1F1F1" points="129.3149,367.6797,246.002,367.6797,258.002,379.6797,246.002,391.6797,129.3149,391.6797,117.3149,379.6797,129.3149,367.6797" style="stroke:#181818;stroke-width:0.5;"/><text fill="#000000" font-family="sans-serif" font-size="11" lengthAdjust="spacing" textLength="116.687" x="129.3149" y="383.4878">continue processing?</text><text fill="#000000" font-family="sans-serif" font-size="11" lengthAdjust="spacing" textLength="13.7017" x="258.002" y="377.0854">no</text><ellipse cx="293.7036" cy="379.6797" fill="none" rx="11" ry="11" style="stroke:#222222;stroke-width:1;"/><ellipse cx="293.7036" cy="379.6797" fill="#222222" rx="6" ry="6" style="stroke:#222222;stroke-width:1;"/><polygon fill="#F1F1F1" points="168.6421,436.1953,206.6748,436.1953,218.6748,448.1953,206.6748,460.1953,168.6421,460.1953,156.6421,448.1953,168.6421,436.1953" style="stroke:#181818;stroke-width:0.5;"/><text fill="#000000" font-family="sans-serif" font-size="11" lengthAdjust="spacing" textLength="38.0327" x="168.6421" y="452.0034">isPost?</text><text fill="#000000" font-family="sans-serif" font-size="11" lengthAdjust="spacing" textLength="19.0083" x="137.6338" y="445.6011">yes</text><text fill="#000000" font-family="sans-serif" font-size="11" lengthAdjust="spacing" textLength="13.7017" x="218.6748" y="445.6011">no</text><rect fill="#F1F1F1" height="33.9688" rx="12.5" ry="12.5" style="stroke:#181818;stroke-width:0.5;" width="103.25" x="75.4456" y="470.1953"/><text fill="#000000" font-family="sans-serif" font-size="12" lengthAdjust="spacing" textLength="83.25" x="85.4456" y="491.334">Page.onPost()</text><rect fill="#F1F1F1" height="33.9688" rx="12.5" ry="12.5" style="stroke:#181818;stroke-width:0.5;" width="99.1016" x="198.6956" y="470.1953"/><text fill="#000000" font-family="sans-serif" font-size="12" lengthAdjust="spacing" textLength="79.1016" x="208.6956" y="491.334">Page.onGet()</text><polygon fill="#F1F1F1" points="187.6584,510.1641,199.6584,522.1641,187.6584,534.1641,175.6584,522.1641,187.6584,510.1641" style="stroke:#181818;stroke-width:0.5;"/><rect fill="#F1F1F1" height="33.9688" rx="12.5" ry="12.5" style="stroke:#181818;stroke-width:0.5;" width="120.9746" x="127.1711" y="554.1641"/><text fill="#000000" font-family="sans-serif" font-size="12" lengthAdjust="spacing" textLength="100.9746" x="137.1711" y="575.3027">Page.onRender()</text><polygon fill="#F1F1F1" points="157.9348,265.3086,217.3821,265.3086,229.3821,277.3086,217.3821,289.3086,157.9348,289.3086,145.9348,277.3086,157.9348,265.3086" style="stroke:#181818;stroke-width:0.5;"/><text fill="#000000" font-family="sans-serif" font-size="11" lengthAdjust="spacing" textLength="13.7017" x="191.6584" y="299.519">no</text><text fill="#000000" font-family="sans-serif" font-size="11" lengthAdjust="spacing" textLength="59.4473" x="157.9348" y="281.1167">isForward?</text><polygon fill="#F1F1F1" points="187.6584,608.1328,199.6584,620.1328,187.6584,632.1328,175.6584,620.1328,187.6584,608.1328" style="stroke:#181818;stroke-width:0.5;"/><polygon fill="#F1F1F1" points="125.9929,162.9375,249.324,162.9375,261.324,174.9375,249.324,186.9375,125.9929,186.9375,113.9929,174.9375,125.9929,162.9375" style="stroke:#181818;stroke-width:0.5;"/><text fill="#000000" font-family="sans-serif" font-size="11" lengthAdjust="spacing" textLength="22.5747" x="191.6584" y="197.1479">true</text><text fill="#000000" font-family="sans-serif" font-size="11" lengthAdjust="spacing" textLength="123.3311" x="125.9929" y="178.7456">Page.onSecurityCheck</text><text fill="#000000" font-family="sans-serif" font-size="11" lengthAdjust="spacing" textLength="26.168" x="261.324" y="172.3433">false</text><polygon fill="#F1F1F1" points="187.6584,652.1328,199.6584,664.1328,187.6584,676.1328,175.6584,664.1328,187.6584,652.1328" style="stroke:#181818;stroke-width:0.5;"/><polygon fill="#F1F1F1" points="154.645,696.1328,220.6719,696.1328,232.6719,708.1328,220.6719,720.1328,154.645,720.1328,142.645,708.1328,154.645,696.1328" style="stroke:#181818;stroke-width:0.5;"/><text fill="#000000" font-family="sans-serif" font-size="11" lengthAdjust="spacing" textLength="66.0269" x="154.645" y="711.9409">do redirect?</text><text fill="#000000" font-family="sans-serif" font-size="11" lengthAdjust="spacing" textLength="19.0083" x="123.6367" y="705.5386">yes</text><rect fill="#F1F1F1" height="33.9688" rx="12.5" ry="12.5" style="stroke:#181818;stroke-width:0.5;" width="117.0781" x="16" y="730.1328"/><text fill="#000000" font-family="sans-serif" font-size="12" lengthAdjust="spacing" textLength="97.0781" x="26" y="751.2715">redirect process</text><polygon fill="#F1F1F1" points="268.0706,730.1328,333.4851,730.1328,345.4851,742.1328,333.4851,754.1328,268.0706,754.1328,256.0706,742.1328,268.0706,730.1328" style="stroke:#181818;stroke-width:0.5;"/><text fill="#000000" font-family="sans-serif" font-size="11" lengthAdjust="spacing" textLength="65.4146" x="268.0706" y="745.9409">do forward?</text><text fill="#000000" font-family="sans-serif" font-size="11" lengthAdjust="spacing" textLength="19.0083" x="237.0623" y="739.5386">yes</text><text fill="#000000" font-family="sans-serif" font-size="11" lengthAdjust="spacing" textLength="13.7017" x="345.4851" y="739.5386">no</text><rect fill="#F1F1F1" height="33.9688" rx="12.5" ry="12.5" style="stroke:#181818;stroke-width:0.5;" width="118.5898" x="163.0781" y="764.1328"/><text fill="#000000" font-family="sans-serif" font-size="12" lengthAdjust="spacing" textLength="98.5898" x="173.0781" y="785.2715">Forward request</text><rect fill="#F1F1F1" height="33.9688" rx="12.5" ry="12.5" style="stroke:#181818;stroke-width:0.5;" width="155.0293" x="301.668" y="764.1328"/><text fill="#000000" font-family="sans-serif" font-size="12" lengthAdjust="spacing" textLength="135.0293" x="311.668" y="785.2715">Render page template</text><polygon fill="#F1F1F1" points="300.7778,804.1016,312.7778,816.1016,300.7778,828.1016,288.7778,816.1016,300.7778,804.1016" style="stroke:#181818;stroke-width:0.5;"/><polygon fill="#F1F1F1" points="187.6584,834.1016,199.6584,846.1016,187.6584,858.1016,175.6584,846.1016,187.6584,834.1016" style="stroke:#181818;stroke-width:0.5;"/><ellipse cx="187.6584" cy="889.1016" fill="none" rx="11" ry="11" style="stroke:#222222;stroke-width:1;"/><ellipse cx="187.6584" cy="889.1016" fill="#222222" rx="6" ry="6" style="stroke:#222222;stroke-width:1;"/><line style="stroke:#181818;stroke-width:1;" x1="187.6584" x2="187.6584" y1="35" y2="55"/><polygon fill="#181818" points="183.6584,45,187.6584,55,191.6584,45,187.6584,49" style="stroke:#181818;stroke-width:1;"/><line style="stroke:#181818;stroke-width:1;" x1="187.6584" x2="187.6584" y1="88.9688" y2="108.9688"/><polygon fill="#181818" points="183.6584,98.9688,187.6584,108.9688,191.6584,98.9688,187.6584,102.9688" style="stroke:#181818;stroke-width:1;"/><line style="stroke:#181818;stroke-width:1;" x1="187.6584" x2="187.6584" y1="391.6797" y2="436.1953"/><polygon fill="#181818" points="183.6584,426.1953,187.6584,436.1953,191.6584,426.1953,187.6584,430.1953" style="stroke:#181818;stroke-width:1;"/><line style="stroke:#181818;stroke-width:1;" x1="258.002" x2="282.7036" y1="379.6797" y2="379.6797"/><polygon fill="#181818" points="272.7036,375.6797,282.7036,379.6797,272.7036,383.6797,276.7036,379.6797" style="stroke:#181818;stroke-width:1;"/><line style="stroke:#181818;stroke-width:1;" x1="187.6584" x2="187.6584" y1="347.6797" y2="367.6797"/><polygon fill="#181818" points="183.6584,357.6797,187.6584,367.6797,191.6584,357.6797,187.6584,361.6797" style="stroke:#181818;stroke-width:1;"/><line style="stroke:#181818;stroke-width:1;" x1="156.6421" x2="127.0706" y1="448.1953" y2="448.1953"/><line style="stroke:#181818;stroke-width:1;" x1="127.0706" x2="127.0706" y1="448.1953" y2="470.1953"/><polygon fill="#181818" points="123.0706,460.1953,127.0706,470.1953,131.0706,460.1953,127.0706,464.1953" style="stroke:#181818;stroke-width:1;"/><line style="stroke:#181818;stroke-width:1;" x1="218.6748" x2="248.2463" y1="448.1953" y2="448.1953"/><line style="stroke:#181818;stroke-width:1;" x1="248.2463" x2="248.2463" y1="448.1953" y2="470.1953"/><polygon fill="#181818" points="244.2463,460.1953,248.2463,470.1953,252.2463,460.1953,248.2463,464.1953" style="stroke:#181818;stroke-width:1;"/><line style="stroke:#181818;stroke-width:1;" x1="127.0706" x2="127.0706" y1="504.1641" y2="522.1641"/><line style="stroke:#181818;stroke-width:1;" x1="127.0706" x2="175.6584" y1="522.1641" y2="522.1641"/><polygon fill="#181818" points="165.6584,518.1641,175.6584,522.1641,165.6584,526.1641,169.6584,522.1641" style="stroke:#181818;stroke-width:1;"/><line style="stroke:#181818;stroke-width:1;" x1="248.2463" x2="248.2463" y1="504.1641" y2="522.1641"/><line style="stroke:#181818;stroke-width:1;" x1="248.2463" x2="199.6584" y1="522.1641" y2="522.1641"/><polygon fill="#181818" points="209.6584,518.1641,199.6584,522.1641,209.6584,526.1641,205.6584,522.1641" style="stroke:#181818;stroke-width:1;"/><line style="stroke:#181818;stroke-width:1;" x1="187.6584" x2="187.6584" y1="534.1641" y2="554.1641"/><polygon fill="#181818" points="183.6584,544.1641,187.6584,554.1641,191.6584,544.1641,187.6584,548.1641" style="stroke:#181818;stroke-width:1;"/><line style="stroke:#181818;stroke-width:1;" x1="187.6584" x2="187.6584" y1="289.3086" y2="313.7109"/><polygon fill="#181818" points="183.6584,303.7109,187.6584,313.7109,191.6584,303.7109,187.6584,307.7109" style="stroke:#181818;stroke-width:1;"/><line style="stroke:#181818;stroke-width:1;" x1="229.3821" x2="326.7036" y1="277.3086" y2="277.3086"/><polygon fill="#181818" points="322.7036,421.6797,326.7036,431.6797,330.7036,421.6797,326.7036,425.6797" style="stroke:#181818;stroke-width:1;"/><line style="stroke:#181818;stroke-width:1;" x1="326.7036" x2="326.7036" y1="277.3086" y2="620.1328"/><line style="stroke:#181818;stroke-width:1;" x1="326.7036" x2="199.6584" y1="620.1328" y2="620.1328"/><polygon fill="#181818" points="209.6584,616.1328,199.6584,620.1328,209.6584,624.1328,205.6584,620.1328" style="stroke:#181818;stroke-width:1;"/><line style="stroke:#181818;stroke-width:1;" x1="187.6584" x2="187.6584" y1="588.1328" y2="608.1328"/><polygon fill="#181818" points="183.6584,598.1328,187.6584,608.1328,191.6584,598.1328,187.6584,602.1328" style="stroke:#181818;stroke-width:1;"/><line style="stroke:#181818;stroke-width:1;" x1="187.6584" x2="187.6584" y1="245.3086" y2="265.3086"/><polygon fill="#181818" points="183.6584,255.3086,187.6584,265.3086,191.6584,255.3086,187.6584,259.3086" style="stroke:#181818;stroke-width:1;"/><line style="stroke:#181818;stroke-width:1;" x1="187.6584" x2="187.6584" y1="186.9375" y2="211.3398"/><polygon fill="#181818" points="183.6584,201.3398,187.6584,211.3398,191.6584,201.3398,187.6584,205.3398" style="stroke:#181818;stroke-width:1;"/><line style="stroke:#181818;stroke-width:1;" x1="261.324" x2="348.7036" y1="174.9375" y2="174.9375"/><polygon fill="#181818" points="344.7036,401.6797,348.7036,411.6797,352.7036,401.6797,348.7036,405.6797" style="stroke:#181818;stroke-width:1;"/><line style="stroke:#181818;stroke-width:1;" x1="348.7036" x2="348.7036" y1="174.9375" y2="664.1328"/><line style="stroke:#181818;stroke-width:1;" x1="348.7036" x2="199.6584" y1="664.1328" y2="664.1328"/><polygon fill="#181818" points="209.6584,660.1328,199.6584,664.1328,209.6584,668.1328,205.6584,664.1328" style="stroke:#181818;stroke-width:1;"/><line style="stroke:#181818;stroke-width:1;" x1="187.6584" x2="187.6584" y1="632.1328" y2="652.1328"/><polygon fill="#181818" points="183.6584,642.1328,187.6584,652.1328,191.6584,642.1328,187.6584,646.1328" style="stroke:#181818;stroke-width:1;"/><line style="stroke:#181818;stroke-width:1;" x1="187.6584" x2="187.6584" y1="142.9375" y2="162.9375"/><polygon fill="#181818" points="183.6584,152.9375,187.6584,162.9375,191.6584,152.9375,187.6584,156.9375" style="stroke:#181818;stroke-width:1;"/><line style="stroke:#181818;stroke-width:1;" x1="256.0706" x2="222.373" y1="742.1328" y2="742.1328"/><line style="stroke:#181818;stroke-width:1;" x1="222.373" x2="222.373" y1="742.1328" y2="764.1328"/><polygon fill="#181818" points="218.373,754.1328,222.373,764.1328,226.373,754.1328,222.373,758.1328" style="stroke:#181818;stroke-width:1;"/><line style="stroke:#181818;stroke-width:1;" x1="345.4851" x2="379.1826" y1="742.1328" y2="742.1328"/><line style="stroke:#181818;stroke-width:1;" x1="379.1826" x2="379.1826" y1="742.1328" y2="764.1328"/><polygon fill="#181818" points="375.1826,754.1328,379.1826,764.1328,383.1826,754.1328,379.1826,758.1328" style="stroke:#181818;stroke-width:1;"/><line style="stroke:#181818;stroke-width:1;" x1="222.373" x2="222.373" y1="798.1016" y2="816.1016"/><line style="stroke:#181818;stroke-width:1;" x1="222.373" x2="288.7778" y1="816.1016" y2="816.1016"/><polygon fill="#181818" points="278.7778,812.1016,288.7778,816.1016,278.7778,820.1016,282.7778,816.1016" style="stroke:#181818;stroke-width:1;"/><line style="stroke:#181818;stroke-width:1;" x1="379.1826" x2="379.1826" y1="798.1016" y2="816.1016"/><line style="stroke:#181818;stroke-width:1;" x1="379.1826" x2="312.7778" y1="816.1016" y2="816.1016"/><polygon fill="#181818" points="322.7778,812.1016,312.7778,816.1016,322.7778,820.1016,318.7778,816.1016" style="stroke:#181818;stroke-width:1;"/><line style="stroke:#181818;stroke-width:1;" x1="142.645" x2="74.5391" y1="708.1328" y2="708.1328"/><line style="stroke:#181818;stroke-width:1;" x1="74.5391" x2="74.5391" y1="708.1328" y2="730.1328"/><polygon fill="#181818" points="70.5391,720.1328,74.5391,730.1328,78.5391,720.1328,74.5391,724.1328" style="stroke:#181818;stroke-width:1;"/><line style="stroke:#181818;stroke-width:1;" x1="232.6719" x2="300.7778" y1="708.1328" y2="708.1328"/><line style="stroke:#181818;stroke-width:1;" x1="300.7778" x2="300.7778" y1="708.1328" y2="730.1328"/><polygon fill="#181818" points="296.7778,720.1328,300.7778,730.1328,304.7778,720.1328,300.7778,724.1328" style="stroke:#181818;stroke-width:1;"/><line style="stroke:#181818;stroke-width:1;" x1="74.5391" x2="74.5391" y1="764.1016" y2="846.1016"/><line style="stroke:#181818;stroke-width:1;" x1="74.5391" x2="175.6584" y1="846.1016" y2="846.1016"/><polygon fill="#181818" points="165.6584,842.1016,175.6584,846.1016,165.6584,850.1016,169.6584,846.1016" style="stroke:#181818;stroke-width:1;"/><line style="stroke:#181818;stroke-width:1;" x1="300.7778" x2="300.7778" y1="828.1016" y2="846.1016"/><line style="stroke:#181818;stroke-width:1;" x1="300.7778" x2="199.6584" y1="846.1016" y2="846.1016"/><polygon fill="#181818" points="209.6584,842.1016,199.6584,846.1016,209.6584,850.1016,205.6584,846.1016" style="stroke:#181818;stroke-width:1;"/><line style="stroke:#181818;stroke-width:1;" x1="187.6584" x2="187.6584" y1="676.1328" y2="696.1328"/><polygon fill="#181818" points="183.6584,686.1328,187.6584,696.1328,191.6584,686.1328,187.6584,690.1328" style="stroke:#181818;stroke-width:1;"/><line style="stroke:#181818;stroke-width:1;" x1="187.6584" x2="187.6584" y1="858.1016" y2="878.1016"/><polygon fill="#181818" points="183.6584,868.1016,187.6584,878.1016,191.6584,868.1016,187.6584,872.1016" style="stroke:#181818;stroke-width:1;"/><?plantuml-src PL4xRiCm3Drr2exsaWF8GuS0BRe5oGa4YOw5g98hqWbo--fZkMupIU3xuF6HM4KMykYilbqmtXtoOLBUE3pZzuB4NJy8wV41ixhY8Em8tIdz3i5VK2_HylCueRxrm1Dww3Wks0i0kP8-lIqM05bfwJt4XuhchV5zoEpCZq4Z4UZWEGP7GnbdKPvOlo3CbMBzzKKEG1pcyaLlx2WsjQLJ8Du4JwIcQ14pNYCciIFSkpRE1_vIYlyUFASHnefNjDgCAZszM0FbC2P0H6CZwfT4iW5jpQ6uhCKbuVYlkMqJkNQQhCl5Iem_UyYQi9mG6BzcfnXtQMl0tE0F?></g></svg>