<svg xmlns="http://www.w3.org/2000/svg" xmlns:xlink="http://www.w3.org/1999/xlink" contentStyleType="text/css" data-diagram-type="ACTIVITY" height="188px" preserveAspectRatio="none" style="width:152px;height:188px;background:#FFFFFF;" version="1.1" viewBox="0 0 152 188" width="152px" zoomAndPan="magnify"><?plantuml 1.2026.3beta5?><defs/><g><rect fill="#FFC0CB" height="33.9688" rx="12.5" ry="12.5" style="stroke:#181818;stroke-width:0.5;" width="49.5254" x="40.5859" y="59"/><text fill="#000000" font-family="sans-serif" font-size="12" lengthAdjust="spacing" textLength="29.5254" x="50.5859" y="80.1387">error</text><polygon fill="#F1F1F1" points="37,15,93.6973,15,105.6973,27,93.6973,39,37,39,25,27,37,15" style="stroke:#181818;stroke-width:0.5;"/><text fill="#000000" font-family="sans-serif" font-size="11" lengthAdjust="spacing" textLength="56.6973" x="37" y="30.8081">condition?</text><rect fill="#98FB98" height="33.9688" rx="12.5" ry="12.5" style="stroke:#181818;stroke-width:0.5;" width="56.9375" x="36.8799" y="134.9688"/><text fill="#000000" font-family="sans-serif" font-size="12" lengthAdjust="spacing" textLength="36.9375" x="46.8799" y="156.1074">action</text><line style="stroke:#181818;stroke-width:1;" x1="65.3486" x2="65.3486" y1="39" y2="59"/><polygon fill="#181818" points="61.3486,49,65.3486,59,69.3486,49,65.3486,53" style="stroke:#181818;stroke-width:1;"/><line style="stroke:#181818;stroke-width:1;" x1="105.6973" x2="117.6973" y1="27" y2="27"/><polygon fill="#181818" points="113.6973,62.9844,117.6973,72.9844,121.6973,62.9844,117.6973,66.9844" style="stroke:#181818;stroke-width:1;"/><line style="stroke:#181818;stroke-width:1;" x1="117.6973" x2="117.6973" y1="27" y2="114.9688"/><line style="stroke:#181818;stroke-width:1;" x1="117.6973" x2="65.3486" y1="114.9688" y2="114.9688"/><line style="stroke:#181818;stroke-width:1;" x1="65.3486" x2="65.3486" y1="114.9688" y2="134.9688"/><polygon fill="#181818" points="61.3486,124.9688,65.3486,134.9688,69.3486,124.9688,65.3486,128.9688" style="stroke:#181818;stroke-width:1;"/><?plantuml-src oqnJq4ZEpql9BCdCpxFNL2Z9ICtZKb2mIYqgoY-oLh2nKIx8pCksimEAfQIM92PdSAK25QTnMIKcWtH0L2JcfAONfQRcsTa10000?></g></svg>