<svg xmlns="http://www.w3.org/2000/svg" xmlns:xlink="http://www.w3.org/1999/xlink" contentStyleType="text/css" data-diagram-type="ACTIVITY" height="135px" preserveAspectRatio="none" style="width:223px;height:135px;background:#FFFFFF;" version="1.1" viewBox="0 0 223 135" width="223px" zoomAndPan="magnify"><?plantuml 1.2026.3beta5?><defs/><g><polygon fill="#F1F1F1" points="87.3477,16.8989,120.2725,16.8989,132.2725,28.8989,120.2725,40.8989,87.3477,40.8989,75.3477,28.8989,87.3477,16.8989" style="stroke:#181818;stroke-width:0.5;"/><text fill="#000000" font-family="sans-serif" font-size="11" lengthAdjust="spacing" textLength="32.9248" x="87.3477" y="32.707">color?</text><text fill="#FF0000" font-family="sans-serif" font-size="11" lengthAdjust="spacing" textLength="18.2725" x="57.0752" y="26.3047">red</text><rect fill="#F1F1F1" height="33.9688" rx="12.5" ry="12.5" style="stroke:#181818;stroke-width:0.5;" width="71.9434" x="16" y="50.8989"/><text fill="#000000" font-family="sans-serif" font-size="12" lengthAdjust="spacing" textLength="51.9434" x="26" y="72.0376">print red</text><rect fill="#F1F1F1" height="33.9688" rx="12.5" ry="12.5" style="stroke:#181818;stroke-width:0.5;" width="95.4102" x="107.9434" y="50.8989"/><text fill="#000000" font-family="sans-serif" font-size="12" lengthAdjust="spacing" textLength="75.4102" x="117.9434" y="72.0376">print not red</text><polygon fill="#F1F1F1" points="103.8101,90.8677,115.8101,102.8677,103.8101,114.8677,91.8101,102.8677,103.8101,90.8677" style="stroke:#181818;stroke-width:0.5;"/><line style="stroke:#181818;stroke-width:1;" x1="75.3477" x2="51.9717" y1="28.8989" y2="28.8989"/><line style="stroke:#181818;stroke-width:1;" x1="51.9717" x2="51.9717" y1="28.8989" y2="50.8989"/><polygon fill="#181818" points="47.9717,40.8989,51.9717,50.8989,55.9717,40.8989,51.9717,44.8989" style="stroke:#181818;stroke-width:1;"/><line style="stroke:#181818;stroke-width:1;" x1="132.2725" x2="155.6484" y1="28.8989" y2="28.8989"/><line style="stroke:#181818;stroke-width:1;" x1="155.6484" x2="155.6484" y1="28.8989" y2="50.8989"/><polygon fill="#181818" points="151.6484,40.8989,155.6484,50.8989,159.6484,40.8989,155.6484,44.8989" style="stroke:#181818;stroke-width:1;"/><line style="stroke:#181818;stroke-width:1;" x1="51.9717" x2="51.9717" y1="84.8677" y2="102.8677"/><line style="stroke:#181818;stroke-width:1;" x1="51.9717" x2="91.8101" y1="102.8677" y2="102.8677"/><polygon fill="#181818" points="81.8101,98.8677,91.8101,102.8677,81.8101,106.8677,85.8101,102.8677" style="stroke:#181818;stroke-width:1;"/><line style="stroke:#181818;stroke-width:1;" x1="155.6484" x2="155.6484" y1="84.8677" y2="102.8677"/><line style="stroke:#181818;stroke-width:1;" x1="155.6484" x2="115.8101" y1="102.8677" y2="102.8677"/><polygon fill="#181818" points="125.8101,98.8677,115.8101,102.8677,125.8101,106.8677,121.8101,102.8677" style="stroke:#181818;stroke-width:1;"/><?plantuml-src oqnJq4ZEpyalijTKo2nMqB01SwoAKbFiW5XJeIGZDO_Bgg0eCwz40IXWpPMQKvog01F9ouU9vgLafW40?></g></svg>