<svg xmlns="http://www.w3.org/2000/svg" xmlns:xlink="http://www.w3.org/1999/xlink" contentStyleType="text/css" data-diagram-type="ACTIVITY" height="239px" preserveAspectRatio="none" style="width:152px;height:239px;background:#FFFFFF;" version="1.1" viewBox="0 0 152 239" width="152px" zoomAndPan="magnify"><?plantuml 1.2026.3beta5?><defs/><g><rect fill="#F1F1F1" height="33.9688" rx="12.5" ry="12.5" style="stroke:#181818;stroke-width:0.5;" width="49.5254" x="40.5859" y="59"/><text fill="#000000" font-family="sans-serif" font-size="12" lengthAdjust="spacing" textLength="29.5254" x="50.5859" y="80.1387">error</text><ellipse cx="65.3486" cy="132.4844" fill="none" rx="11" ry="11" style="stroke:#222222;stroke-width:1;"/><ellipse cx="65.3486" cy="132.4844" fill="#222222" rx="6" ry="6" style="stroke:#222222;stroke-width:1;"/><polygon fill="#F1F1F1" points="37,15,93.6973,15,105.6973,27,93.6973,39,37,39,25,27,37,15" style="stroke:#181818;stroke-width:0.5;"/><text fill="#000000" font-family="sans-serif" font-size="11" lengthAdjust="spacing" textLength="56.6973" x="37" y="30.8081">condition?</text><rect fill="#98FB98" height="33.9688" rx="12.5" ry="12.5" style="stroke:#181818;stroke-width:0.5;" width="56.9375" x="36.8799" y="185.4844"/><text fill="#000000" font-family="sans-serif" font-size="12" lengthAdjust="spacing" textLength="36.9375" x="46.8799" y="206.623">action</text><line style="stroke:#181818;stroke-width:1;" x1="65.3486" x2="65.3486" y1="92.9688" y2="121.4844"/><polygon fill="#181818" points="61.3486,111.4844,65.3486,121.4844,69.3486,111.4844,65.3486,115.4844" style="stroke:#181818;stroke-width:1;"/><line style="stroke:#181818;stroke-width:1;" x1="65.3486" x2="65.3486" y1="39" y2="59"/><polygon fill="#181818" points="61.3486,49,65.3486,59,69.3486,49,65.3486,53" style="stroke:#181818;stroke-width:1;"/><line style="stroke:#181818;stroke-width:1;" x1="105.6973" x2="117.6973" y1="27" y2="27"/><polygon fill="#181818" points="113.6973,91.4844,117.6973,101.4844,121.6973,91.4844,117.6973,95.4844" style="stroke:#181818;stroke-width:1;"/><line style="stroke:#181818;stroke-width:1;" x1="117.6973" x2="117.6973" y1="27" y2="165.4844"/><line style="stroke:#181818;stroke-width:1;" x1="117.6973" x2="65.3486" y1="165.4844" y2="165.4844"/><line style="stroke:#181818;stroke-width:1;" x1="65.3486" x2="65.3486" y1="165.4844" y2="185.4844"/><polygon fill="#181818" points="61.3486,175.4844,65.3486,185.4844,69.3486,175.4844,65.3486,179.4844" style="stroke:#181818;stroke-width:1;"/><?plantuml-src oqnJq4ZEpql9BCdCpxFNL2Z9ICtZKb2mIYqgoY-o1hAAI_8Bk5A12jAuh1AJGQgi5Mnib0iISrBJYr9Jy-pi0000?></g></svg>