<svg xmlns="http://www.w3.org/2000/svg" xmlns:xlink="http://www.w3.org/1999/xlink" contentStyleType="text/css" data-diagram-type="ACTIVITY" height="135px" preserveAspectRatio="none" style="width:199px;height:135px;background:#FFFFFF;" version="1.1" viewBox="0 0 199 135" width="199px" zoomAndPan="magnify"><?plantuml 1.2026.3beta5?><defs/><g><polygon fill="#F1F1F1" points="67.8223,16.8989,115.9849,16.8989,127.9849,28.8989,115.9849,40.8989,67.8223,40.8989,55.8223,28.8989,67.8223,16.8989" style="stroke:#181818;stroke-width:0.5;"/><text fill="#000000" font-family="sans-serif" font-size="11" lengthAdjust="spacing" textLength="48.1626" x="67.8223" y="32.707">counter?</text><text fill="#000000" font-family="sans-serif" font-size="11" lengthAdjust="spacing" textLength="6.9985" x="48.8237" y="26.3047">5</text><rect fill="#F1F1F1" height="33.9688" rx="12.5" ry="12.5" style="stroke:#181818;stroke-width:0.5;" width="59.6445" x="16" y="50.8989"/><text fill="#000000" font-family="sans-serif" font-size="12" lengthAdjust="spacing" textLength="39.6445" x="26" y="72.0376">print 5</text><rect fill="#F1F1F1" height="33.9688" rx="12.5" ry="12.5" style="stroke:#181818;stroke-width:0.5;" width="83.1113" x="96.4292" y="50.8989"/><text fill="#000000" font-family="sans-serif" font-size="12" lengthAdjust="spacing" textLength="63.1113" x="106.4292" y="72.0376">print not 5</text><polygon fill="#F1F1F1" points="91.9036,90.8677,103.9036,102.8677,91.9036,114.8677,79.9036,102.8677,91.9036,90.8677" style="stroke:#181818;stroke-width:0.5;"/><line style="stroke:#181818;stroke-width:1;" x1="55.8223" x2="45.8223" y1="28.8989" y2="28.8989"/><line style="stroke:#181818;stroke-width:1;" x1="45.8223" x2="45.8223" y1="28.8989" y2="50.8989"/><polygon fill="#181818" points="41.8223,40.8989,45.8223,50.8989,49.8223,40.8989,45.8223,44.8989" style="stroke:#181818;stroke-width:1;"/><line style="stroke:#181818;stroke-width:1;" x1="127.9849" x2="137.9849" y1="28.8989" y2="28.8989"/><line style="stroke:#181818;stroke-width:1;" x1="137.9849" x2="137.9849" y1="28.8989" y2="50.8989"/><polygon fill="#181818" points="133.9849,40.8989,137.9849,50.8989,141.9849,40.8989,137.9849,44.8989" style="stroke:#181818;stroke-width:1;"/><line style="stroke:#181818;stroke-width:1;" x1="45.8223" x2="45.8223" y1="84.8677" y2="102.8677"/><line style="stroke:#181818;stroke-width:1;" x1="45.8223" x2="79.9036" y1="102.8677" y2="102.8677"/><polygon fill="#181818" points="69.9036,98.8677,79.9036,102.8677,69.9036,106.8677,73.9036,102.8677" style="stroke:#181818;stroke-width:1;"/><line style="stroke:#181818;stroke-width:1;" x1="137.9849" x2="137.9849" y1="84.8677" y2="102.8677"/><line style="stroke:#181818;stroke-width:1;" x1="137.9849" x2="103.9036" y1="102.8677" y2="102.8677"/><polygon fill="#181818" points="113.9036,98.8677,103.9036,102.8677,113.9036,106.8677,109.9036,102.8677" style="stroke:#181818;stroke-width:1;"/><?plantuml-src oqnJq4ZEByqhIIsorrH8BInDp2bMq33LL2Z9ICtZiYeeoimhKJ2rvahDAKvLWF7pyY5YUIcPQG00?></g></svg>