<svg xmlns="http://www.w3.org/2000/svg" xmlns:xlink="http://www.w3.org/1999/xlink" contentStyleType="text/css" data-diagram-type="ACTIVITY" height="228px" preserveAspectRatio="none" style="width:352px;height:228px;background:#FFFFFF;" version="1.1" viewBox="0 0 352 228" width="352px" zoomAndPan="magnify"><?plantuml 1.2026.3beta5?><defs/><g><ellipse cx="142.2168" cy="25" fill="#222222" rx="10" ry="10" style="stroke:#222222;stroke-width:1;"/><polygon fill="#F1F1F1" points="89.6714,55,194.7622,55,206.7622,67,194.7622,79,89.6714,79,77.6714,67,89.6714,55" style="stroke:#181818;stroke-width:0.5;"/><text fill="#000000" font-family="sans-serif" font-size="11" lengthAdjust="spacing" textLength="105.0908" x="89.6714" y="70.8081">Graphviz installed?</text><text fill="#000000" font-family="sans-serif" font-size="11" lengthAdjust="spacing" textLength="19.0083" x="58.6631" y="64.4058">yes</text><text fill="#000000" font-family="sans-serif" font-size="11" lengthAdjust="spacing" textLength="13.7017" x="206.7622" y="64.4058">no</text><rect fill="#F1F1F1" height="47.9375" rx="12.5" ry="12.5" style="stroke:#181818;stroke-width:0.5;" width="84.2129" x="16" y="89"/><text fill="#000000" font-family="sans-serif" font-size="12" lengthAdjust="spacing" textLength="64.2129" x="26" y="110.1387">process all</text><text fill="#000000" font-family="sans-serif" font-size="12" lengthAdjust="spacing" textLength="56.1504" x="26" y="124.1074">diagrams</text><rect fill="#F1F1F1" height="47.9375" rx="12.5" ry="12.5" style="stroke:#181818;stroke-width:0.5;" width="212.2285" x="120.2129" y="89"/><text fill="#000000" font-family="sans-serif" font-size="12" lengthAdjust="spacing" textLength="75.5742" x="130.2129" y="110.1387">process only</text><text fill="#000000" font-family="sans-serif" font-size="12" lengthAdjust="spacing" text-decoration="underline" textLength="57.8262" x="130.2129" y="124.1074">sequence</text><text fill="#000000" font-family="sans-serif" font-size="12" lengthAdjust="spacing" textLength="22.5762" x="191.8535" y="124.1074">and</text><text fill="#000000" font-family="sans-serif" font-size="12" lengthAdjust="spacing" text-decoration="underline" textLength="44.2324" x="218.2441" y="124.1074">activity</text><text fill="#000000" font-family="sans-serif" font-size="12" lengthAdjust="spacing" textLength="56.1504" x="266.291" y="124.1074">diagrams</text><polygon fill="#F1F1F1" points="142.2168,142.9375,154.2168,154.9375,142.2168,166.9375,130.2168,154.9375,142.2168,142.9375" style="stroke:#181818;stroke-width:0.5;"/><ellipse cx="142.2168" cy="197.9375" fill="none" rx="11" ry="11" style="stroke:#222222;stroke-width:1;"/><ellipse cx="142.2168" cy="197.9375" fill="#222222" rx="6" ry="6" style="stroke:#222222;stroke-width:1;"/><line style="stroke:#181818;stroke-width:1;" x1="77.6714" x2="58.1064" y1="67" y2="67"/><line style="stroke:#181818;stroke-width:1;" x1="58.1064" x2="58.1064" y1="67" y2="89"/><polygon fill="#181818" points="54.1064,79,58.1064,89,62.1064,79,58.1064,83" style="stroke:#181818;stroke-width:1;"/><line style="stroke:#181818;stroke-width:1;" x1="206.7622" x2="226.3271" y1="67" y2="67"/><line style="stroke:#181818;stroke-width:1;" x1="226.3271" x2="226.3271" y1="67" y2="89"/><polygon fill="#181818" points="222.3271,79,226.3271,89,230.3271,79,226.3271,83" style="stroke:#181818;stroke-width:1;"/><line style="stroke:#181818;stroke-width:1;" x1="58.1064" x2="58.1064" y1="136.9375" y2="154.9375"/><line style="stroke:#181818;stroke-width:1;" x1="58.1064" x2="130.2168" y1="154.9375" y2="154.9375"/><polygon fill="#181818" points="120.2168,150.9375,130.2168,154.9375,120.2168,158.9375,124.2168,154.9375" style="stroke:#181818;stroke-width:1;"/><line style="stroke:#181818;stroke-width:1;" x1="226.3271" x2="226.3271" y1="136.9375" y2="154.9375"/><line style="stroke:#181818;stroke-width:1;" x1="226.3271" x2="154.2168" y1="154.9375" y2="154.9375"/><polygon fill="#181818" points="164.2168,150.9375,154.2168,154.9375,164.2168,158.9375,160.2168,154.9375" style="stroke:#181818;stroke-width:1;"/><line style="stroke:#181818;stroke-width:1;" x1="142.2168" x2="142.2168" y1="35" y2="55"/><polygon fill="#181818" points="138.2168,45,142.2168,55,146.2168,45,142.2168,49" style="stroke:#181818;stroke-width:1;"/><line style="stroke:#181818;stroke-width:1;" x1="142.2168" x2="142.2168" y1="166.9375" y2="186.9375"/><polygon fill="#181818" points="138.2168,176.9375,142.2168,186.9375,146.2168,176.9375,142.2168,180.9375" style="stroke:#181818;stroke-width:1;"/><?plantuml-src LOmn3iCW34Ltdy8ZkK8wTEmbAY4BdCGIDHIxaUZfmzYE__sdPqxT0MJ3yEZKZbE-A6fEfN2-B-W7AuR1jW3YsdfDR8RpVMeMsZkzx0PSZ35e_NEgbZ5tZCRl3slY694qJq39vHGV4_mqPcy3CA_j0W00?></g></svg>