<svg xmlns="http://www.w3.org/2000/svg" xmlns:xlink="http://www.w3.org/1999/xlink" contentStyleType="text/css" data-diagram-type="ACTIVITY" height="232px" preserveAspectRatio="none" style="width:138px;height:232px;background:#FFFFFF;" version="1.1" viewBox="0 0 138 232" width="138px" zoomAndPan="magnify"><?plantuml 1.2026.3beta5?><defs/><g><ellipse cx="67.0596" cy="25" fill="#222222" rx="10" ry="10" style="stroke:#222222;stroke-width:1;"/><rect fill="#F1F1F1" height="33.9688" rx="12.5" ry="12.5" style="stroke:#181818;stroke-width:0.5;" width="102.0781" x="16.0205" y="55"/><text fill="#000000" font-family="sans-serif" font-size="12" lengthAdjust="spacing" textLength="82.0781" x="26.0205" y="76.1387">Some activity</text><ellipse cx="67.0596" cy="118.9688" fill="#F1F1F1" rx="10" ry="10" style="stroke:#181818;stroke-width:0.5;"/><path d="M67.1689,115.1406 L65.5596,119.4844 L68.7783,119.4844 L67.1689,115.1406 Z M66.4971,113.9688 L67.8408,113.9688 L71.1689,122.7188 L69.9346,122.7188 L69.1377,120.4688 L65.2002,120.4688 L64.4033,122.7188 L63.1533,122.7188 L66.4971,113.9688 Z " fill="#000000"/><ellipse cx="67.0596" cy="148.9688" fill="#F1F1F1" rx="10" ry="10" style="stroke:#181818;stroke-width:0.5;"/><path d="M67.1689,145.1406 L65.5596,149.4844 L68.7783,149.4844 L67.1689,145.1406 Z M66.4971,143.9688 L67.8408,143.9688 L71.1689,152.7188 L69.9346,152.7188 L69.1377,150.4688 L65.2002,150.4688 L64.4033,152.7188 L63.1533,152.7188 L66.4971,143.9688 Z " fill="#000000"/><rect fill="#F1F1F1" height="33.9688" rx="12.5" ry="12.5" style="stroke:#181818;stroke-width:0.5;" width="102.1191" x="16" y="178.9688"/><text fill="#000000" font-family="sans-serif" font-size="12" lengthAdjust="spacing" textLength="82.1191" x="26" y="200.1074">Other activity</text><line style="stroke:#181818;stroke-width:1;" x1="67.0596" x2="67.0596" y1="35" y2="55"/><polygon fill="#181818" points="63.0596,45,67.0596,55,71.0596,45,67.0596,49" style="stroke:#181818;stroke-width:1;"/><line style="stroke:#181818;stroke-width:1;" x1="67.0596" x2="67.0596" y1="88.9688" y2="108.9688"/><polygon fill="#181818" points="63.0596,98.9688,67.0596,108.9688,71.0596,98.9688,67.0596,102.9688" style="stroke:#181818;stroke-width:1;"/><line style="stroke:#181818;stroke-width:1;" x1="67.0596" x2="67.0596" y1="158.9688" y2="178.9688"/><polygon fill="#181818" points="63.0596,168.9688,67.0596,178.9688,71.0596,168.9688,67.0596,172.9688" style="stroke:#181818;stroke-width:1;"/><?plantuml-src Aov9B2hXiWhEpqrLI4mkoIpBBAcqvj9mrEHAIIr9JCu0CwtyIp9IYn3o0000?></g></svg>