<svg xmlns="http://www.w3.org/2000/svg" xmlns:xlink="http://www.w3.org/1999/xlink" contentStyleType="text/css" data-diagram-type="ACTIVITY" height="504px" preserveAspectRatio="none" style="width:181px;height:504px;background:#FFFFFF;" version="1.1" viewBox="0 0 181 504" width="181px" zoomAndPan="magnify"><?plantuml 1.2026.3beta5?><defs/><g><rect fill="#F1F1F1" height="33.9688" rx="12.5" ry="12.5" style="stroke:#181818;stroke-width:0.5;" width="47.9492" x="64.5684" y="16"/><text fill="#000000" font-family="sans-serif" font-size="12" lengthAdjust="spacing" textLength="27.9492" x="74.5684" y="37.1387">start</text><rect fill="#555555" height="6" rx="2.5" ry="2.5" style="stroke:#555555;stroke-width:1;" width="145.0859" x="16" y="69.9688"/><rect fill="#F1F1F1" height="33.9688" rx="12.5" ry="12.5" style="stroke:#181818;stroke-width:0.5;" width="46.543" x="28" y="95.9688"/><text fill="#000000" font-family="sans-serif" font-size="12" lengthAdjust="spacing" textLength="26.543" x="38" y="117.1074">foo1</text><rect fill="#F1F1F1" height="33.9688" rx="12.5" ry="12.5" style="stroke:#181818;stroke-width:0.5;" width="46.543" x="28" y="164.9375"/><text fill="#000000" font-family="sans-serif" font-size="12" lengthAdjust="spacing" textLength="26.543" x="38" y="186.0762">foo2</text><rect fill="#F1F1F1" height="33.9688" rx="12.5" ry="12.5" style="stroke:#181818;stroke-width:0.5;" width="46.543" x="102.543" y="130.4531"/><text fill="#000000" font-family="sans-serif" font-size="12" lengthAdjust="spacing" textLength="26.543" x="112.543" y="151.5918">foo3</text><rect fill="#555555" height="6" rx="2.5" ry="2.5" style="stroke:#555555;stroke-width:1;" width="145.0859" x="16" y="218.9063"/><rect fill="#F1F1F1" height="33.9688" rx="12.5" ry="12.5" style="stroke:#181818;stroke-width:0.5;" width="46.543" x="65.2715" y="288.9063"/><text fill="#000000" font-family="sans-serif" font-size="12" lengthAdjust="spacing" textLength="26.543" x="75.2715" y="310.0449">foo5</text><polygon fill="#F1F1F1" points="76.3774,244.9063,100.7085,244.9063,112.7085,256.9063,100.7085,268.9063,76.3774,268.9063,64.3774,256.9063,76.3774,244.9063" style="stroke:#181818;stroke-width:0.5;"/><text fill="#000000" font-family="sans-serif" font-size="11" lengthAdjust="spacing" textLength="24.3311" x="76.3774" y="260.7144">foo4</text><rect fill="#F1F1F1" height="33.9688" rx="12.5" ry="12.5" style="stroke:#181818;stroke-width:0.5;" width="46.543" x="65.2715" y="364.875"/><text fill="#000000" font-family="sans-serif" font-size="12" lengthAdjust="spacing" textLength="26.543" x="75.2715" y="386.0137">foo6</text><rect fill="#F1F1F1" height="33.9688" rx="12.5" ry="12.5" style="stroke:#181818;stroke-width:0.5;" width="46.543" x="65.2715" y="408.8438"/><text fill="#000000" font-family="sans-serif" font-size="12" lengthAdjust="spacing" textLength="26.543" x="75.2715" y="429.9824">foo7</text><ellipse cx="88.543" cy="473.8125" fill="none" rx="11" ry="11" style="stroke:#222222;stroke-width:1;"/><ellipse cx="88.543" cy="473.8125" fill="#222222" rx="6" ry="6" style="stroke:#222222;stroke-width:1;"/><line style="stroke:#181818;stroke-width:1;" x1="51.2715" x2="51.2715" y1="129.9375" y2="164.9375"/><polygon fill="#181818" points="47.2715,154.9375,51.2715,164.9375,55.2715,154.9375,51.2715,158.9375" style="stroke:#181818;stroke-width:1;"/><line style="stroke:#181818;stroke-width:1;" x1="51.2715" x2="51.2715" y1="75.9688" y2="95.9688"/><polygon fill="#181818" points="47.2715,85.9688,51.2715,95.9688,55.2715,85.9688,51.2715,89.9688" style="stroke:#181818;stroke-width:1;"/><line style="stroke:#181818;stroke-width:1;" x1="125.8145" x2="125.8145" y1="75.9688" y2="130.4531"/><polygon fill="#181818" points="121.8145,120.4531,125.8145,130.4531,129.8145,120.4531,125.8145,124.4531" style="stroke:#181818;stroke-width:1;"/><line style="stroke:#181818;stroke-width:1;" x1="51.2715" x2="51.2715" y1="198.9063" y2="218.9063"/><polygon fill="#181818" points="47.2715,208.9063,51.2715,218.9063,55.2715,208.9063,51.2715,212.9063" style="stroke:#181818;stroke-width:1;"/><line style="stroke:#181818;stroke-width:1;" x1="88.543" x2="88.543" y1="49.9688" y2="69.9688"/><polygon fill="#181818" points="84.543,59.9688,88.543,69.9688,92.543,59.9688,88.543,63.9688" style="stroke:#181818;stroke-width:1;"/><line style="stroke:#181818;stroke-width:1;" x1="88.543" x2="88.543" y1="268.9063" y2="288.9063"/><polygon fill="#181818" points="84.543,278.9063,88.543,288.9063,92.543,278.9063,88.543,282.9063" style="stroke:#181818;stroke-width:1;"/><line style="stroke:#181818;stroke-width:1;" x1="112.7085" x2="124.7085" y1="256.9063" y2="256.9063"/><polygon fill="#181818" points="120.7085,292.8906,124.7085,302.8906,128.7085,292.8906,124.7085,296.8906" style="stroke:#181818;stroke-width:1;"/><line style="stroke:#181818;stroke-width:1;" x1="124.7085" x2="124.7085" y1="256.9063" y2="344.875"/><line style="stroke:#181818;stroke-width:1;" x1="124.7085" x2="88.543" y1="344.875" y2="344.875"/><line style="stroke:#181818;stroke-width:1;" x1="88.543" x2="88.543" y1="344.875" y2="364.875"/><polygon fill="#181818" points="84.543,354.875,88.543,364.875,92.543,354.875,88.543,358.875" style="stroke:#181818;stroke-width:1;"/><line style="stroke:#181818;stroke-width:1;" x1="88.543" x2="88.543" y1="224.9063" y2="244.9063"/><polygon fill="#181818" points="84.543,234.9063,88.543,244.9063,92.543,234.9063,88.543,238.9063" style="stroke:#181818;stroke-width:1;"/><line style="stroke:#181818;stroke-width:1;" x1="88.543" x2="88.543" y1="442.8125" y2="462.8125"/><polygon fill="#181818" points="84.543,452.8125,88.543,462.8125,92.543,452.8125,88.543,456.8125" style="stroke:#181818;stroke-width:1;"/><?plantuml-src ioekIImgiUPIICilokPIK52mIilFDxI6iOoWCWg9wOcPUJ1HOx1yIcf9Od86bq9gNWf4SsQQWWPGraHJeIGZ5QxO55rnPXeNMC8CA04J1l7DWVpYalm20000?></g></svg>