<svg xmlns="http://www.w3.org/2000/svg" xmlns:xlink="http://www.w3.org/1999/xlink" contentStyleType="text/css" data-diagram-type="ACTIVITY" height="312px" preserveAspectRatio="none" style="width:110px;height:312px;background:#FFFFFF;" version="1.1" viewBox="0 0 110 312" width="110px" zoomAndPan="magnify"><?plantuml 1.2026.3beta5?><defs/><g><ellipse cx="39.1455" cy="25" fill="#222222" rx="10" ry="10" style="stroke:#222222;stroke-width:1;"/><rect fill="#F1F1F1" height="33.9688" rx="12.5" ry="12.5" style="stroke:#181818;stroke-width:0.5;" width="46.291" x="16" y="99"/><text fill="#000000" font-family="sans-serif" font-size="12" lengthAdjust="spacing" textLength="26.291" x="26" y="120.1387">act1</text><rect fill="#F1F1F1" height="33.9688" rx="12.5" ry="12.5" style="stroke:#181818;stroke-width:0.5;" width="46.291" x="16" y="160.4688"/><text fill="#000000" font-family="sans-serif" font-size="12" lengthAdjust="spacing" textLength="26.291" x="26" y="181.6074">act2</text><polygon fill="#F1F1F1" points="39.1455,55,51.1455,67,39.1455,79,27.1455,67,39.1455,55" style="stroke:#181818;stroke-width:0.5;"/><polygon fill="#F1F1F1" points="39.1455,214.4375,51.1455,226.4375,39.1455,238.4375,27.1455,226.4375,39.1455,214.4375" style="stroke:#181818;stroke-width:0.5;"/><text fill="#000000" font-family="sans-serif" font-size="11" font-weight="700" lengthAdjust="spacing" textLength="23.1655" x="51.1455" y="223.8433">end</text><rect fill="#F1F1F1" height="33.9688" rx="12.5" ry="12.5" style="stroke:#181818;stroke-width:0.5;" width="46.291" x="16" y="258.4375"/><text fill="#000000" font-family="sans-serif" font-size="12" lengthAdjust="spacing" textLength="26.291" x="26" y="279.5762">act3</text><line style="stroke:#181818;stroke-width:1;" x1="39.1455" x2="39.1455" y1="132.9688" y2="160.4688"/><polygon fill="#181818" points="35.1455,150.4688,39.1455,160.4688,43.1455,150.4688,39.1455,154.4688" style="stroke:#181818;stroke-width:1;"/><line style="stroke:#181818;stroke-width:1;" x1="39.1455" x2="39.1455" y1="79" y2="99"/><polygon fill="#181818" points="35.1455,89,39.1455,99,43.1455,89,39.1455,93" style="stroke:#181818;stroke-width:1;"/><line style="stroke:#181818;stroke-width:1;" x1="51.1455" x2="75.1655" y1="226.4375" y2="226.4375"/><polygon fill="#181818" points="71.1655,152.9688,75.1655,142.9688,79.1655,152.9688,75.1655,148.9688" style="stroke:#181818;stroke-width:1;"/><line style="stroke:#181818;stroke-width:1;" x1="75.1655" x2="75.1655" y1="67" y2="226.4375"/><line style="stroke:#181818;stroke-width:1;" x1="75.1655" x2="51.1455" y1="67" y2="67"/><polygon fill="#181818" points="61.1455,63,51.1455,67,61.1455,71,57.1455,67" style="stroke:#181818;stroke-width:1;"/><line style="stroke:#181818;stroke-width:1;" x1="39.1455" x2="39.1455" y1="194.4375" y2="214.4375"/><polygon fill="#181818" points="35.1455,204.4375,39.1455,214.4375,43.1455,204.4375,39.1455,208.4375" style="stroke:#181818;stroke-width:1;"/><line style="stroke:#181818;stroke-width:1;" x1="39.1455" x2="39.1455" y1="35" y2="55"/><polygon fill="#181818" points="35.1455,45,39.1455,55,43.1455,45,39.1455,49" style="stroke:#181818;stroke-width:1;"/><line style="stroke:#181818;stroke-width:1;" x1="39.1455" x2="39.1455" y1="238.4375" y2="258.4375"/><polygon fill="#181818" points="35.1455,248.4375,39.1455,258.4375,43.1455,248.4375,39.1455,252.4375" style="stroke:#181818;stroke-width:1;"/><?plantuml-src AyxEp2j8B4hCLKZEpql9BCdCpmikgSn9LKZ9JCm5Yd0LboGMbN0LfHQa9fPmAIXO9IQN65f36KRMK8doZ4oW5WsR9BlKl1HDBf2SiJK0?></g></svg>