<svg xmlns="http://www.w3.org/2000/svg" xmlns:xlink="http://www.w3.org/1999/xlink" contentStyleType="text/css" data-diagram-type="ACTIVITY" height="193px" preserveAspectRatio="none" style="width:138px;height:193px;background:#FFFFFF;" version="1.1" viewBox="0 0 138 193" width="138px" zoomAndPan="magnify"><?plantuml 1.2026.3beta5?><defs/><g><path d="M56,87.5 C56,86.672 56.672,86 57.5,86 C58.328,86 59,86.672 59,87.5 L59,88 C59,91 59,91 62,91 C65,91 65,88 65,88 L65,62.5 C65,61.671 65.671,61 66.5,61 C67.329,61 68,61.671 68,62.5 L68,88 C68,94 68,94 62,94 C56,94 56,88 56,88 L56,87.5" fill="#66757F"/><path d="M66.5,63 C75.612,63 83,68.82 83,76 C83,76 83,78 82,78 C81,78 79,76 79,76 L54,76 C52,78 52,78 51,78 C50,78 50,76 50,76 C50,68.82 57.387,63 66.5,63" fill="#744EAA"/><path d="M66.5,63 C73.403,63 79,68.82 79,76 C79,76 79,78 77,78 C75,78 72,76 72,76 L61,76 C58,78 58,78 56,78 C54,78 54,76 54,76 C54,68.82 59.596,63 66.5,63" fill="#9266CC"/><path d="M66.5,63 C70.09,63 72,68.82 72,76 C72,76 69,78 67,78 L66,78 C64,78 61,76 61,76 C61,68.82 62.91,63 66.5,63" fill="#744EAA"/><path d="M77.383,63.472 C76.52,64.885 76.98,66.719 78.411,67.571 C79.842,68.423 81.702,67.969 82.565,66.557 C83.172,65.565 83.122,64.365 82.544,63.443 L80.061,59.09 L77.383,63.472 M69.382,66.472 C68.519,67.885 68.979,69.719 70.41,70.571 C71.841,71.423 73.701,70.969 74.564,69.557 C75.171,68.565 75.121,67.365 74.543,66.443 L72.061,62.09 L69.382,66.472 M57.435,63.472 C56.572,64.885 57.033,66.719 58.463,67.571 C59.894,68.423 61.754,67.969 62.617,66.557 C63.224,65.565 63.175,64.365 62.595,63.443 L60.114,59.09 L57.435,63.472 M47.435,69.382 C46.572,70.795 47.033,72.629 48.463,73.481 C49.894,74.332 51.754,73.879 52.617,72.467 C53.224,71.475 53.175,70.275 52.595,69.353 L50.114,65 L47.435,69.382" fill="#5DADEC"/><text fill="#000000" font-family="sans-serif" font-size="12" lengthAdjust="spacing" textLength="3.8145" x="88" y="81.1543">&#160;</text><polygon fill="#F1F1F1" points="53,15,77,15,89,27,77,39,53,39,41,27,53,15" style="stroke:#181818;stroke-width:0.5;"/><path d="M69.5833,20.5833 C69.2052,20.5833 68.8408,20.6406 68.4975,20.747 C68.091,19.5851 66.9883,18.75 65.6875,18.75 C64.2923,18.75 63.1245,19.7107 62.8005,21.0055 C62.4549,20.7442 62.0295,20.5833 61.5625,20.5833 C60.4235,20.5833 59.5,21.5069 59.5,22.6458 C59.5,22.9227 59.5564,23.1858 59.6554,23.4268 C59.4588,23.3723 59.2557,23.3333 59.0417,23.3333 C57.7758,23.3333 56.75,24.3591 56.75,25.625 C56.75,26.8909 57.7758,27.9167 59.0417,27.9167 L69.5833,27.9167 C71.6083,27.9167 73.25,26.2754 73.25,24.25 C73.25,22.2251 71.6083,20.5833 69.5833,20.5833" fill="#E1E8ED"/><path d="M62.2495,30.1905 L62.1978,28.6225 L60.8823,29.4053 C60.5899,29.5635 60.3956,29.8747 60.4075,30.2299 C60.4245,30.7354 60.8503,31.1355 61.359,31.125 C61.8673,31.1145 62.2665,30.6955 62.2495,30.1905 M61.3425,33.6096 L61.2907,32.0417 L59.9753,32.8245 C59.6829,32.9826 59.4885,33.2938 59.5005,33.649 C59.5174,34.1546 59.9432,34.5547 60.452,34.5442 C60.9607,34.5336 61.3595,34.1147 61.3425,33.6096 M59.0508,31.5655 L58.999,29.9975 L57.6836,30.7803 C57.3912,30.9385 57.1969,31.2497 57.2088,31.6049 C57.2258,32.11 57.6515,32.5101 58.1603,32.5 C58.669,32.4895 59.0678,32.0705 59.0508,31.5655 M67.3008,30.1905 L67.249,28.6225 L65.9341,29.4053 C65.6412,29.5635 65.4473,29.8747 65.4593,30.2299 C65.4762,30.7354 65.902,31.1355 66.4108,31.125 C66.919,31.1145 67.3178,30.6955 67.3008,30.1905 M64.5412,32.0238 L64.4894,30.4558 L63.1745,31.2387 C62.8816,31.3968 62.6877,31.708 62.6996,32.0632 C62.7166,32.5688 63.1424,32.9689 63.6511,32.9583 C64.1594,32.9478 64.5582,32.5289 64.5412,32.0238 M66.8425,34.068 L66.7903,32.5 L65.4753,33.2828 C65.1824,33.441 64.9885,33.7522 65.0005,34.1074 C65.0174,34.6129 65.4432,35.013 65.952,35.0025 C66.4607,34.992 66.8595,34.573 66.8425,34.068 M70.0412,31.5655 L69.9894,29.9975 L68.6745,30.7803 C68.3816,30.9385 68.1877,31.2497 68.1996,31.6049 C68.2166,32.1104 68.6424,32.5105 69.1511,32.5 C69.6594,32.4895 70.0582,32.0705 70.0412,31.5655" fill="#5DADEC"/><path d="M82,171 C83,170 82,169 82,169 L56,143 C54.521,141.479 54.521,141.479 56,140 C57.479,138.521 59,140 59,140 C59,140 60,141 61,140 C62,139 61,138 61,138 C61,138 57.479,134.521 54,138 C50.5,141.5 54,145 54,145 L80,171 C81,172 81,172 82,171" fill="#66757F"/><path d="M54.367,154.102 L56,153.559 L56,152 C56,151.082 56.625,150.282 57.515,150.06 L60.351,149.351 L61.06,146.515 C61.282,145.625 62.082,145 63,145 L64.559,145 L65.103,143.368 C65.359,142.6 66.052,142.063 66.859,142.005 C66.906,142.001 66.953,142 67,142 C67.753,142 68.448,142.425 68.789,143.105 L81,168 L79,170 L54.106,157.789 C53.382,157.427 52.948,156.665 53.005,155.858 C53.062,155.052 53.601,154.358 54.367,154.102" fill="#9266CC"/><path d="M80,169 L60.351,149.351 L61.06,146.515 C61.282,145.625 62.082,145 63,145 L64.559,145 L64.61,144.846 L80.596,168.404 L80,169 M79,170 L54.106,157.789 C53.382,157.427 52.948,156.665 53.005,155.858 C53.063,155.051 53.601,154.358 54.367,154.102 L56,153.559 L56,153.385 L79.409,169.591 L79,170" fill="#744EAA"/><text fill="#000000" font-family="sans-serif" font-size="12" lengthAdjust="spacing" textLength="3.8145" x="88" y="158.1543">&#160;</text><line style="stroke:#181818;stroke-width:1;" x1="65" x2="65" y1="39" y2="59"/><polygon fill="#181818" points="61,49,65,59,69,49,65,53" style="stroke:#181818;stroke-width:1;"/><line style="stroke:#181818;stroke-width:1;" x1="65" x2="65" y1="95" y2="104"/><line style="stroke:#181818;stroke-width:1;" x1="65" x2="103.8145" y1="104" y2="104"/><polygon fill="#181818" points="99.8145,75,103.8145,65,107.8145,75,103.8145,71" style="stroke:#181818;stroke-width:1;"/><line style="stroke:#181818;stroke-width:1;" x1="103.8145" x2="103.8145" y1="27" y2="104"/><line style="stroke:#181818;stroke-width:1;" x1="103.8145" x2="89" y1="27" y2="27"/><polygon fill="#181818" points="99,23,89,27,99,31,95,27" style="stroke:#181818;stroke-width:1;"/><line style="stroke:#181818;stroke-width:1;" x1="41" x2="29" y1="27" y2="27"/><polygon fill="#181818" points="25,61,29,71,33,61,29,65" style="stroke:#181818;stroke-width:1;"/><line style="stroke:#181818;stroke-width:1;" x1="29" x2="29" y1="27" y2="116"/><line style="stroke:#181818;stroke-width:1;" x1="29" x2="65" y1="116" y2="116"/><line style="stroke:#181818;stroke-width:1;" x1="65" x2="65" y1="116" y2="136"/><polygon fill="#181818" points="61,126,65,136,69,126,65,130" style="stroke:#181818;stroke-width:1;"/><?plantuml-src Ay_8p4bLqB2nIix9Bqs9ByyioOWlIipCixBJv59GiBAnAirDAahDoKcqihDMiB79JCxFixFZIirBAGTfvDA52O4DA4vDYKUe1m00?></g></svg>