<svg xmlns="http://www.w3.org/2000/svg" xmlns:xlink="http://www.w3.org/1999/xlink" contentStyleType="text/css" data-diagram-type="ACTIVITY" height="210px" preserveAspectRatio="none" style="width:381px;height:210px;background:#FFFFFF;" version="1.1" viewBox="0 0 381 210" width="381px" zoomAndPan="magnify"><?plantuml 1.2026.3beta5?><defs/><g><ellipse cx="188.7734" cy="25" fill="#222222" rx="10" ry="10" style="stroke:#222222;stroke-width:1;"/><rect fill="#555555" height="6" rx="2.5" ry="2.5" style="stroke:#555555;stroke-width:1;" width="345.5469" x="16" y="55"/><rect fill="#F1F1F1" height="33.9688" rx="12.5" ry="12.5" style="stroke:#181818;stroke-width:0.5;" width="68.3867" x="28" y="81"/><text fill="#000000" font-family="sans-serif" font-size="12" lengthAdjust="spacing" textLength="48.3867" x="38" y="102.1387">action 1</text><rect fill="#F1F1F1" height="33.9688" rx="12.5" ry="12.5" style="stroke:#181818;stroke-width:0.5;" width="68.3867" x="106.3867" y="81"/><text fill="#000000" font-family="sans-serif" font-size="12" lengthAdjust="spacing" textLength="48.3867" x="116.3867" y="102.1387">action 2</text><rect fill="#F1F1F1" height="33.9688" rx="12.5" ry="12.5" style="stroke:#181818;stroke-width:0.5;" width="68.3867" x="202.7734" y="81"/><text fill="#000000" font-family="sans-serif" font-size="12" lengthAdjust="spacing" textLength="48.3867" x="212.7734" y="102.1387">action 3</text><rect fill="#F1F1F1" height="33.9688" rx="12.5" ry="12.5" style="stroke:#181818;stroke-width:0.5;" width="68.3867" x="281.1602" y="81"/><text fill="#000000" font-family="sans-serif" font-size="12" lengthAdjust="spacing" textLength="48.3867" x="291.1602" y="102.1387">action 4</text><polygon fill="#F1F1F1" points="188.7734,124.9688,200.7734,136.9688,188.7734,148.9688,176.7734,136.9688,188.7734,124.9688" style="stroke:#181818;stroke-width:0.5;"/><ellipse cx="188.7734" cy="179.9688" fill="none" rx="11" ry="11" style="stroke:#222222;stroke-width:1;"/><ellipse cx="188.7734" cy="179.9688" fill="#222222" rx="6" ry="6" style="stroke:#222222;stroke-width:1;"/><line style="stroke:#181818;stroke-width:1;" x1="62.1934" x2="62.1934" y1="61" y2="81"/><polygon fill="#181818" points="58.1934,71,62.1934,81,66.1934,71,62.1934,75" style="stroke:#181818;stroke-width:1;"/><line style="stroke:#181818;stroke-width:1;" x1="140.5801" x2="140.5801" y1="61" y2="81"/><polygon fill="#181818" points="136.5801,71,140.5801,81,144.5801,71,140.5801,75" style="stroke:#181818;stroke-width:1;"/><line style="stroke:#181818;stroke-width:1;" x1="236.9668" x2="236.9668" y1="61" y2="81"/><polygon fill="#181818" points="232.9668,71,236.9668,81,240.9668,71,236.9668,75" style="stroke:#181818;stroke-width:1;"/><line style="stroke:#181818;stroke-width:1;" x1="315.3535" x2="315.3535" y1="61" y2="81"/><polygon fill="#181818" points="311.3535,71,315.3535,81,319.3535,71,315.3535,75" style="stroke:#181818;stroke-width:1;"/><line style="stroke:#181818;stroke-width:1;" x1="62.1934" x2="62.1934" y1="114.9688" y2="136.9688"/><line style="stroke:#181818;stroke-width:1;" x1="62.1934" x2="176.7734" y1="136.9688" y2="136.9688"/><polygon fill="#181818" points="166.7734,132.9688,176.7734,136.9688,166.7734,140.9688,170.7734,136.9688" style="stroke:#181818;stroke-width:1;"/><line style="stroke:#181818;stroke-width:1;" x1="140.5801" x2="140.5801" y1="114.9688" y2="136.9688"/><line style="stroke:#181818;stroke-width:1;" x1="140.5801" x2="176.7734" y1="136.9688" y2="136.9688"/><polygon fill="#181818" points="166.7734,132.9688,176.7734,136.9688,166.7734,140.9688,170.7734,136.9688" style="stroke:#181818;stroke-width:1;"/><line style="stroke:#181818;stroke-width:1;" x1="236.9668" x2="236.9668" y1="114.9688" y2="136.9688"/><line style="stroke:#181818;stroke-width:1;" x1="236.9668" x2="200.7734" y1="136.9688" y2="136.9688"/><polygon fill="#181818" points="210.7734,132.9688,200.7734,136.9688,210.7734,140.9688,206.7734,136.9688" style="stroke:#181818;stroke-width:1;"/><line style="stroke:#181818;stroke-width:1;" x1="315.3535" x2="315.3535" y1="114.9688" y2="136.9688"/><line style="stroke:#181818;stroke-width:1;" x1="315.3535" x2="200.7734" y1="136.9688" y2="136.9688"/><polygon fill="#181818" points="210.7734,132.9688,200.7734,136.9688,210.7734,140.9688,206.7734,136.9688" style="stroke:#181818;stroke-width:1;"/><line style="stroke:#181818;stroke-width:1;" x1="188.7734" x2="188.7734" y1="35" y2="55"/><polygon fill="#181818" points="184.7734,45,188.7734,55,192.7734,45,188.7734,49" style="stroke:#181818;stroke-width:1;"/><line style="stroke:#181818;stroke-width:1;" x1="188.7734" x2="188.7734" y1="148.9688" y2="168.9688"/><polygon fill="#181818" points="184.7734,158.9688,188.7734,168.9688,192.7734,158.9688,188.7734,162.9688" style="stroke:#181818;stroke-width:1;"/><?plantuml-src Aov9B2hXIiilokPIKB1AJ2x9pCzJCBG6YoWafYTcvY696-4GDyOXRcBDbPgNef2RMfIUobLSaby00000?></g></svg>