<svg xmlns="http://www.w3.org/2000/svg" xmlns:xlink="http://www.w3.org/1999/xlink" contentStyleType="text/css" data-diagram-type="ACTIVITY" height="265px" preserveAspectRatio="none" style="width:224px;height:265px;background:#FFFFFF;" version="1.1" viewBox="0 0 224 265" width="224px" zoomAndPan="magnify"><?plantuml 1.2026.3beta5?><defs/><g><ellipse cx="110.3867" cy="25" fill="#222222" rx="10" ry="10" style="stroke:#222222;stroke-width:1;"/><rect fill="#555555" height="6" rx="2.5" ry="2.5" style="stroke:#555555;stroke-width:1;" width="188.7734" x="16" y="55"/><rect fill="#F1F1F1" height="33.9688" rx="12.5" ry="12.5" style="stroke:#181818;stroke-width:0.5;" width="68.3867" x="28" y="108.5"/><text fill="#000000" font-family="sans-serif" font-size="12" lengthAdjust="spacing" textLength="48.3867" x="38" y="129.6387">action 1</text><rect fill="#F1F1F1" height="33.9688" rx="12.5" ry="12.5" style="stroke:#181818;stroke-width:0.5;" width="68.3867" x="124.3867" y="81"/><text fill="#000000" font-family="sans-serif" font-size="12" lengthAdjust="spacing" textLength="48.3867" x="134.3867" y="102.1387">action 2</text><ellipse cx="158.5801" cy="159.9688" fill="none" rx="10" ry="10" style="stroke:#222222;stroke-width:1.5;"/><line style="stroke:#222222;stroke-width:2.5;" x1="152.3929" x2="164.7673" y1="153.7816" y2="166.1559"/><line style="stroke:#222222;stroke-width:2.5;" x1="164.7673" x2="152.3929" y1="153.7816" y2="166.1559"/><polygon fill="#F1F1F1" points="110.3867,179.9688,122.3867,191.9688,110.3867,203.9688,98.3867,191.9688,110.3867,179.9688" style="stroke:#181818;stroke-width:0.5;"/><ellipse cx="110.3867" cy="234.9688" fill="none" rx="11" ry="11" style="stroke:#222222;stroke-width:1;"/><ellipse cx="110.3867" cy="234.9688" fill="#222222" rx="6" ry="6" style="stroke:#222222;stroke-width:1;"/><line style="stroke:#181818;stroke-width:1;" x1="158.5801" x2="158.5801" y1="114.9688" y2="149.9688"/><polygon fill="#181818" points="154.5801,139.9688,158.5801,149.9688,162.5801,139.9688,158.5801,143.9688" style="stroke:#181818;stroke-width:1;"/><line style="stroke:#181818;stroke-width:1;" x1="62.1934" x2="62.1934" y1="61" y2="108.5"/><polygon fill="#181818" points="58.1934,98.5,62.1934,108.5,66.1934,98.5,62.1934,102.5" style="stroke:#181818;stroke-width:1;"/><line style="stroke:#181818;stroke-width:1;" x1="158.5801" x2="158.5801" y1="61" y2="81"/><polygon fill="#181818" points="154.5801,71,158.5801,81,162.5801,71,158.5801,75" style="stroke:#181818;stroke-width:1;"/><line style="stroke:#181818;stroke-width:1;" x1="62.1934" x2="62.1934" y1="142.4688" y2="191.9688"/><line style="stroke:#181818;stroke-width:1;" x1="62.1934" x2="98.3867" y1="191.9688" y2="191.9688"/><polygon fill="#181818" points="88.3867,187.9688,98.3867,191.9688,88.3867,195.9688,92.3867,191.9688" style="stroke:#181818;stroke-width:1;"/><line style="stroke:#181818;stroke-width:1;" x1="110.3867" x2="110.3867" y1="35" y2="55"/><polygon fill="#181818" points="106.3867,45,110.3867,55,114.3867,45,110.3867,49" style="stroke:#181818;stroke-width:1;"/><line style="stroke:#181818;stroke-width:1;" x1="110.3867" x2="110.3867" y1="203.9688" y2="223.9688"/><polygon fill="#181818" points="106.3867,213.9688,110.3867,223.9688,114.3867,213.9688,110.3867,217.9688" style="stroke:#181818;stroke-width:1;"/><?plantuml-src Aov9B2hXIiilokPIKB1AJ2x9pCzJCBG6YoWafYTcvY696ra3EQbvALn0h92RMfIUobLSaby00000?></g></svg>