<svg xmlns="http://www.w3.org/2000/svg" width="640.0" height="640.0">
  <g stroke="#333333" fill="none" stroke-width="1.5">
    <path d="M 400.0 120.0 C 400.0 160.0, 400.0 160.0, 400.0 200.0" stroke="#333333" fill="none"/>
    <polygon points="396.0,194.0 404.0,194.0 400.0,200.0" fill="#333333" stroke="none"/>
    <path d="M 400.0 240.0 C 400.0 280.0, 260.0 280.0, 260.0 320.0" stroke="#333333" fill="none"/>
    <polygon points="256.0,314.0 264.0,314.0 260.0,320.0" fill="#333333" stroke="none"/>
    <path d="M 400.0 240.0 C 400.0 280.0, 540.0 280.0, 540.0 320.0" stroke="#333333" fill="none"/>
    <polygon points="536.0,314.0 544.0,314.0 540.0,320.0" fill="#333333" stroke="none"/>
    <path d="M 540.0 360.0 C 540.0 400.0, 540.0 400.0, 540.0 440.0" stroke="#333333" fill="none"/>
    <polygon points="536.0,434.0 544.0,434.0 540.0,440.0" fill="#333333" stroke="none"/>
    <path d="M 260.0 360.0 C 260.0 400.0, 260.0 400.0, 260.0 440.0" stroke="#333333" fill="none"/>
    <polygon points="256.0,434.0 264.0,434.0 260.0,440.0" fill="#333333" stroke="none"/>
    <path d="M 260.0 480.0 C 260.0 520.0, 400.0 520.0, 400.0 560.0" stroke="#333333" fill="none"/>
    <polygon points="396.0,554.0 404.0,554.0 400.0,560.0" fill="#333333" stroke="none"/>
  </g>
  <g font-family="sans-serif" font-size="14" text-anchor="middle">
    <circle cx="400.0" cy="100.0" r="15" fill="#333333" stroke="#333333" stroke-width="2"/>
    <rect x="340.0" y="217.0" width="120.0" height="6" fill="#333333" />
    <rect x="200.0" y="320.0" width="120.0" height="40.0" rx="10" ry="10" fill="#f0f0f0" stroke="#333333" stroke-width="1.5"/>
    <text x="260.0" y="340.0" dy="5" fill="#000000">action1</text>
    <rect x="480.0" y="320.0" width="120.0" height="40.0" rx="10" ry="10" fill="#f0f0f0" stroke="#333333" stroke-width="1.5"/>
    <text x="540.0" y="340.0" dy="5" fill="#000000">action2</text>
    <circle cx="540.0" cy="460.0" r="15" fill="none" stroke="#333333" stroke-width="2"/>
    <circle cx="540.0" cy="460.0" r="10" fill="#333333" stroke="#333333" stroke-width="2"/>
    <rect x="200.0" y="457.0" width="120.0" height="6" fill="#333333" />
    <circle cx="400.0" cy="580.0" r="15" fill="none" stroke="#333333" stroke-width="2"/>
    <circle cx="400.0" cy="580.0" r="10" fill="#333333" stroke="#333333" stroke-width="2"/>
  </g>
</svg>
