<svg xmlns="http://www.w3.org/2000/svg" xmlns:xlink="http://www.w3.org/1999/xlink" contentStyleType="text/css" data-diagram-type="ACTIVITY" height="580px" preserveAspectRatio="none" style="width:293px;height:580px;background:#FFFFFF;" version="1.1" viewBox="0 0 293 580" width="293px" zoomAndPan="magnify"><?plantuml 1.2026.3beta5?><defs/><g><ellipse cx="220.1177" cy="25" fill="#222222" rx="10" ry="10" style="stroke:#222222;stroke-width:1;"/><rect fill="none" height="82.2656" style="stroke:#000000;stroke-width:1.5;" width="221.1821" x="41.4795" y="45"/><path d="M94.4092,45 L94.4092,54.2969 L84.4092,64.2969 L41.4795,64.2969" fill="none" style="stroke:#000000;stroke-width:1.5;"/><text fill="#000000" font-family="sans-serif" font-size="14" lengthAdjust="spacing" textLength="42.9297" x="44.4795" y="58.9951">Group</text><path d="M51.4795,85.7148 L51.4795,110.8477 L167.5737,110.8477 L167.5737,95.7148 L157.5737,85.7148 L51.4795,85.7148" fill="#FEFFDD" style="stroke:#181818;stroke-width:0.5;"/><path d="M157.5737,85.7148 L157.5737,95.7148 L167.5737,95.7148 L157.5737,85.7148" fill="#FEFFDD" style="stroke:#181818;stroke-width:0.5;"/><text fill="#000000" font-family="sans-serif" font-size="13" lengthAdjust="spacing" textLength="95.0942" x="57.4795" y="102.7817">Note on Group</text><rect fill="#F1F1F1" height="33.9688" rx="12.5" ry="12.5" style="stroke:#181818;stroke-width:0.5;" width="65.0879" x="187.5737" y="81.2969"/><text fill="#000000" font-family="sans-serif" font-size="12" lengthAdjust="spacing" textLength="45.0879" x="197.5737" y="102.4355">Activity</text><rect fill="none" height="82.2656" style="stroke:#000000;stroke-width:1.5;" width="236.0801" x="26.5815" y="137.2656"/><path d="M95.5552,137.2656 L95.5552,146.5625 L85.5552,156.5625 L26.5815,156.5625" fill="none" style="stroke:#000000;stroke-width:1.5;"/><text fill="#000000" font-family="sans-serif" font-size="14" lengthAdjust="spacing" textLength="58.9736" x="29.5815" y="151.2607">Partition</text><path d="M36.5815,177.9805 L36.5815,203.1133 L167.5737,203.1133 L167.5737,187.9805 L157.5737,177.9805 L36.5815,177.9805" fill="#FEFFDD" style="stroke:#181818;stroke-width:0.5;"/><path d="M157.5737,177.9805 L157.5737,187.9805 L167.5737,187.9805 L157.5737,177.9805" fill="#FEFFDD" style="stroke:#181818;stroke-width:0.5;"/><text fill="#000000" font-family="sans-serif" font-size="13" lengthAdjust="spacing" textLength="109.9922" x="42.5815" y="195.0474">Note on Partition</text><rect fill="#F1F1F1" height="33.9688" rx="12.5" ry="12.5" style="stroke:#181818;stroke-width:0.5;" width="65.0879" x="187.5737" y="173.5625"/><text fill="#000000" font-family="sans-serif" font-size="12" lengthAdjust="spacing" textLength="45.0879" x="197.5737" y="194.7012">Activity</text><polygon fill="none" points="26.645,229.5313,91.5503,229.5313,98.5503,251.8281,262.6616,251.8281,262.6616,319.7969,26.645,319.7969,26.645,229.5313" style="stroke:#000000;stroke-width:1.5;"/><line style="stroke:#000000;stroke-width:1.5;" x1="26.645" x2="98.5503" y1="251.8281" y2="251.8281"/><text fill="#000000" font-family="sans-serif" font-size="14" lengthAdjust="spacing" textLength="58.9053" x="30.645" y="244.5264">Package</text><path d="M36.645,270.2461 L36.645,295.3789 L167.5737,295.3789 L167.5737,280.2461 L157.5737,270.2461 L36.645,270.2461" fill="#FEFFDD" style="stroke:#181818;stroke-width:0.5;"/><path d="M157.5737,270.2461 L157.5737,280.2461 L167.5737,280.2461 L157.5737,270.2461" fill="#FEFFDD" style="stroke:#181818;stroke-width:0.5;"/><text fill="#000000" font-family="sans-serif" font-size="13" lengthAdjust="spacing" textLength="109.9287" x="42.645" y="287.313">Note on Package</text><rect fill="#F1F1F1" height="33.9688" rx="12.5" ry="12.5" style="stroke:#181818;stroke-width:0.5;" width="65.0879" x="187.5737" y="265.8281"/><text fill="#000000" font-family="sans-serif" font-size="12" lengthAdjust="spacing" textLength="45.0879" x="197.5737" y="286.9668">Activity</text><rect fill="none" height="90.2656" style="stroke:#000000;stroke-width:1.5;" width="246.6616" x="16" y="329.7969"/><text fill="#000000" font-family="sans-serif" font-size="14" lengthAdjust="spacing" textLength="70.3691" x="104.1462" y="344.792">Rectangle</text><path d="M26,370.5117 L26,395.6445 L167.5737,395.6445 L167.5737,380.5117 L157.5737,370.5117 L26,370.5117" fill="#FEFFDD" style="stroke:#181818;stroke-width:0.5;"/><path d="M157.5737,370.5117 L157.5737,380.5117 L167.5737,380.5117 L157.5737,370.5117" fill="#FEFFDD" style="stroke:#181818;stroke-width:0.5;"/><text fill="#000000" font-family="sans-serif" font-size="13" lengthAdjust="spacing" textLength="120.5737" x="32" y="387.5786">Note on Rectangle</text><rect fill="#F1F1F1" height="33.9688" rx="12.5" ry="12.5" style="stroke:#181818;stroke-width:0.5;" width="65.0879" x="187.5737" y="366.0938"/><text fill="#000000" font-family="sans-serif" font-size="12" lengthAdjust="spacing" textLength="45.0879" x="197.5737" y="387.2324">Activity</text><rect fill="none" height="90.2656" style="stroke:#000000;stroke-width:1.5;" width="211.959" x="50.7026" y="430.0625"/><line style="stroke:#000000;stroke-width:1.5;" x1="50.7026" x2="262.6616" y1="450.3594" y2="450.3594"/><text fill="#000000" font-family="sans-serif" font-size="14" lengthAdjust="spacing" textLength="32.9971" x="140.1836" y="445.0576">Card</text><path d="M60.7026,470.7773 L60.7026,495.9102 L167.5737,495.9102 L167.5737,480.7773 L157.5737,470.7773 L60.7026,470.7773" fill="#FEFFDD" style="stroke:#181818;stroke-width:0.5;"/><path d="M157.5737,470.7773 L157.5737,480.7773 L167.5737,480.7773 L157.5737,470.7773" fill="#FEFFDD" style="stroke:#181818;stroke-width:0.5;"/><text fill="#000000" font-family="sans-serif" font-size="13" lengthAdjust="spacing" textLength="85.8711" x="66.7026" y="487.8442">Note on Card</text><rect fill="#F1F1F1" height="33.9688" rx="12.5" ry="12.5" style="stroke:#181818;stroke-width:0.5;" width="65.0879" x="187.5737" y="466.3594"/><text fill="#000000" font-family="sans-serif" font-size="12" lengthAdjust="spacing" textLength="45.0879" x="197.5737" y="487.498">Activity</text><ellipse cx="220.1177" cy="550.3281" fill="none" rx="10" ry="10" style="stroke:#222222;stroke-width:1.5;"/><line style="stroke:#222222;stroke-width:2.5;" x1="213.9305" x2="226.3049" y1="544.1409" y2="556.5153"/><line style="stroke:#222222;stroke-width:2.5;" x1="226.3049" x2="213.9305" y1="544.1409" y2="556.5153"/><line style="stroke:#181818;stroke-width:1;" x1="220.1177" x2="220.1177" y1="35" y2="81.2969"/><polygon fill="#181818" points="216.1177,71.2969,220.1177,81.2969,224.1177,71.2969,220.1177,75.2969" style="stroke:#181818;stroke-width:1;"/><line style="stroke:#181818;stroke-width:1;" x1="220.1177" x2="220.1177" y1="115.2656" y2="173.5625"/><polygon fill="#181818" points="216.1177,163.5625,220.1177,173.5625,224.1177,163.5625,220.1177,167.5625" style="stroke:#181818;stroke-width:1;"/><line style="stroke:#181818;stroke-width:1;" x1="220.1177" x2="220.1177" y1="207.5313" y2="265.8281"/><polygon fill="#181818" points="216.1177,255.8281,220.1177,265.8281,224.1177,255.8281,220.1177,259.8281" style="stroke:#181818;stroke-width:1;"/><line style="stroke:#181818;stroke-width:1;" x1="220.1177" x2="220.1177" y1="299.7969" y2="366.0938"/><polygon fill="#181818" points="216.1177,356.0938,220.1177,366.0938,224.1177,356.0938,220.1177,360.0938" style="stroke:#181818;stroke-width:1;"/><line style="stroke:#181818;stroke-width:1;" x1="220.1177" x2="220.1177" y1="400.0625" y2="466.3594"/><polygon fill="#181818" points="216.1177,456.3594,220.1177,466.3594,224.1177,456.3594,220.1177,460.3594" style="stroke:#181818;stroke-width:1;"/><line style="stroke:#181818;stroke-width:1;" x1="220.1177" x2="220.1177" y1="500.3281" y2="540.3281"/><polygon fill="#181818" points="216.1177,530.3281,220.1177,540.3281,224.1177,530.3281,220.1177,534.3281" style="stroke:#181818;stroke-width:1;"/><?plantuml-src ZOn12W8n34Nt_nGvnynANBWJcHk4JYp18Hrg54Iykws5kktc9tp-UtVdx8WvFNOw_V8DekaGN9_ghnaVNBV4hXR9aij4vvAKhAs1lV3gMefB_qOLdQYQSECefMftND7sG9RWR74JMletQlaJGE2yqh76A5t745k_?></g></svg>