<svg xmlns="http://www.w3.org/2000/svg" xmlns:xlink="http://www.w3.org/1999/xlink" contentStyleType="text/css" data-diagram-type="ACTIVITY" height="389px" preserveAspectRatio="none" style="width:220px;height:389px;background:#FFFFFF;" version="1.1" viewBox="0 0 220 389" width="220px" zoomAndPan="magnify"><?plantuml 1.2026.3beta5?><defs/><g><ellipse cx="108.1113" cy="25" fill="#222222" rx="10" ry="10" style="stroke:#222222;stroke-width:1;"/><rect fill="none" height="136.2344" style="stroke:#000000;stroke-width:1.5;" width="161.2715" x="27.4756" y="45"/><path d="M122.8496,45 L122.8496,54.2969 L112.8496,64.2969 L27.4756,64.2969" fill="none" style="stroke:#000000;stroke-width:1.5;"/><text fill="#000000" font-family="sans-serif" font-size="14" lengthAdjust="spacing" textLength="85.374" x="30.4756" y="58.9951">Initialization</text><rect fill="#F1F1F1" height="33.9688" rx="12.5" ry="12.5" style="stroke:#181818;stroke-width:0.5;" width="109.9121" x="53.1553" y="81.2969"/><text fill="#000000" font-family="sans-serif" font-size="12" lengthAdjust="spacing" textLength="89.9121" x="63.1553" y="102.4355">read config file</text><rect fill="#F1F1F1" height="33.9688" rx="12.5" ry="12.5" style="stroke:#181818;stroke-width:0.5;" width="141.2715" x="37.4756" y="135.2656"/><text fill="#000000" font-family="sans-serif" font-size="12" lengthAdjust="spacing" textLength="121.2715" x="47.4756" y="156.4043">init internal variable</text><rect fill="none" height="136.2344" style="stroke:#000000;stroke-width:1.5;" width="184.2227" x="16" y="191.2344"/><path d="M129.4141,191.2344 L129.4141,200.5313 L119.4141,210.5313 L16,210.5313" fill="none" style="stroke:#000000;stroke-width:1.5;"/><text fill="#000000" font-family="sans-serif" font-size="14" lengthAdjust="spacing" textLength="103.4141" x="19" y="205.2295">Running group</text><rect fill="#F1F1F1" height="33.9688" rx="12.5" ry="12.5" style="stroke:#181818;stroke-width:0.5;" width="164.2227" x="26" y="227.5313"/><text fill="#000000" font-family="sans-serif" font-size="12" lengthAdjust="spacing" textLength="144.2227" x="36" y="248.6699">wait for user interaction</text><rect fill="#F1F1F1" height="33.9688" rx="12.5" ry="12.5" style="stroke:#181818;stroke-width:0.5;" width="121.4785" x="47.3721" y="281.5"/><text fill="#000000" font-family="sans-serif" font-size="12" lengthAdjust="spacing" textLength="101.4785" x="57.3721" y="302.6387">print information</text><ellipse cx="108.1113" cy="358.4688" fill="none" rx="11" ry="11" style="stroke:#222222;stroke-width:1;"/><ellipse cx="108.1113" cy="358.4688" fill="#222222" rx="6" ry="6" style="stroke:#222222;stroke-width:1;"/><line style="stroke:#181818;stroke-width:1;" x1="108.1113" x2="108.1113" y1="115.2656" y2="135.2656"/><polygon fill="#181818" points="104.1113,125.2656,108.1113,135.2656,112.1113,125.2656,108.1113,129.2656" style="stroke:#181818;stroke-width:1;"/><line style="stroke:#181818;stroke-width:1;" x1="108.1113" x2="108.1113" y1="35" y2="81.2969"/><polygon fill="#181818" points="104.1113,71.2969,108.1113,81.2969,112.1113,71.2969,108.1113,75.2969" style="stroke:#181818;stroke-width:1;"/><line style="stroke:#181818;stroke-width:1;" x1="108.1113" x2="108.1113" y1="261.5" y2="281.5"/><polygon fill="#181818" points="104.1113,271.5,108.1113,281.5,112.1113,271.5,108.1113,275.5" style="stroke:#181818;stroke-width:1;"/><line style="stroke:#181818;stroke-width:1;" x1="108.1113" x2="108.1113" y1="169.2344" y2="227.5313"/><polygon fill="#181818" points="104.1113,217.5313,108.1113,227.5313,112.1113,217.5313,108.1113,221.5313" style="stroke:#181818;stroke-width:1;"/><line style="stroke:#181818;stroke-width:1;" x1="108.1113" x2="108.1113" y1="315.4688" y2="347.4688"/><polygon fill="#181818" points="104.1113,337.4688,108.1113,347.4688,112.1113,337.4688,108.1113,341.4688" style="stroke:#181818;stroke-width:1;"/><?plantuml-src BOt13GCX30J_LE4waWhkcmwS2w2LY476NAH4rtjy0lyytXrtOxMGjOv6cy301LysLA5V89-RHdxHNYKXKqA9zudXOO9OLE521oluUHtF9NiC4KYckItNXxsKgjBeKMURz-lPaZPrvjmZRvxy3A5RRNy0?></g></svg>