<svg xmlns="http://www.w3.org/2000/svg" xmlns:xlink="http://www.w3.org/1999/xlink" contentStyleType="text/css" data-diagram-type="ACTIVITY" height="248px" preserveAspectRatio="none" style="width:141px;height:248px;background:#FFFFFF;" version="1.1" viewBox="0 0 141 248" width="141px" zoomAndPan="magnify"><?plantuml 1.2026.3beta5?><defs/><g><rect fill="#F1F1F1" height="33.9688" rx="12.5" ry="12.5" style="stroke:#181818;stroke-width:0.5;" width="28.209" x="45.5669" y="16"/><text fill="#000000" font-family="sans-serif" font-size="12" lengthAdjust="spacing" textLength="8.209" x="55.5669" y="37.1387">A</text><rect fill="#F1F1F1" height="33.9688" rx="12.5" ry="12.5" style="stroke:#181818;stroke-width:0.5;" width="35.8672" x="41.7378" y="118.3711"/><text fill="#000000" font-family="sans-serif" font-size="12" lengthAdjust="spacing" textLength="15.8672" x="51.7378" y="139.5098">B1</text><polygon fill="#F1F1F1" points="37,69.9688,82.3428,69.9688,94.3428,81.9688,82.3428,93.9688,37,93.9688,25,81.9688,37,69.9688" style="stroke:#181818;stroke-width:0.5;"/><text fill="#000000" font-family="sans-serif" font-size="11" lengthAdjust="spacing" textLength="19.0083" x="63.6714" y="104.1792">yes</text><text fill="#000000" font-family="sans-serif" font-size="11" lengthAdjust="spacing" textLength="45.3428" x="37" y="85.7769">decision</text><text fill="#000000" font-family="sans-serif" font-size="11" lengthAdjust="spacing" textLength="13.7017" x="94.3428" y="79.3745">no</text><rect fill="#F1F1F1" height="33.9688" rx="12.5" ry="12.5" style="stroke:#181818;stroke-width:0.5;" width="28.3789" x="45.4819" y="194.3398"/><text fill="#000000" font-family="sans-serif" font-size="12" lengthAdjust="spacing" textLength="8.3789" x="55.4819" y="215.4785">C</text><line style="stroke:#181818;stroke-width:1;" x1="59.6714" x2="59.6714" y1="93.9688" y2="118.3711"/><polygon fill="#181818" points="55.6714,108.3711,59.6714,118.3711,63.6714,108.3711,59.6714,112.3711" style="stroke:#181818;stroke-width:1;"/><line style="stroke:#181818;stroke-width:1;" x1="94.3428" x2="106.3428" y1="81.9688" y2="81.9688"/><line style="stroke:#181818;stroke-width:1;" x1="106.3428" x2="106.3428" y1="81.9688" y2="174.3398"/><polygon fill="#181818" points="102.3428,164.3398,106.3428,174.3398,110.3428,164.3398,106.3428,168.3398" style="stroke:#181818;stroke-width:1;"/><line style="stroke:#181818;stroke-width:1;" x1="106.3428" x2="59.6714" y1="174.3398" y2="174.3398"/><line style="stroke:#181818;stroke-width:1;" x1="59.6714" x2="59.6714" y1="174.3398" y2="179.3398"/><line style="stroke:#181818;stroke-width:1;" x1="59.6714" x2="59.6714" y1="152.3398" y2="174.3398"/><polygon fill="#181818" points="55.6714,164.3398,59.6714,174.3398,63.6714,164.3398,59.6714,168.3398" style="stroke:#181818;stroke-width:1;"/><line style="stroke:#181818;stroke-width:1;" x1="59.6714" x2="59.6714" y1="49.9688" y2="69.9688"/><polygon fill="#181818" points="55.6714,59.9688,59.6714,69.9688,63.6714,59.9688,59.6714,63.9688" style="stroke:#181818;stroke-width:1;"/><line style="stroke:#181818;stroke-width:1;" x1="59.6714" x2="59.6714" y1="179.3398" y2="194.3398"/><polygon fill="#181818" points="55.6714,184.3398,59.6714,194.3398,63.6714,184.3398,59.6714,188.3398" style="stroke:#181818;stroke-width:1;"/><?plantuml-src 3Smn3e0W40NHVa-n9PIsK2dn19w0o2TinCK8ZRUNQLyo_H9zuXjl3asJ36cwQph6Ly6bYeBSwaaocuHJ-cJBeq3PVEYMUEQsnHDg1njjbZ0tcLpmFm00?></g></svg>