<svg xmlns="http://www.w3.org/2000/svg" xmlns:xlink="http://www.w3.org/1999/xlink" contentStyleType="text/css" data-diagram-type="ACTIVITY" height="229px" preserveAspectRatio="none" style="width:161px;height:229px;background:#FFFFFF;" version="1.1" viewBox="0 0 161 229" width="161px" zoomAndPan="magnify"><?plantuml 1.2026.3beta5?><defs/><g><rect fill="#F1F1F1" height="33.9688" rx="12.5" ry="12.5" style="stroke:#181818;stroke-width:0.5;" width="28.209" x="64.5005" y="16"/><text fill="#000000" font-family="sans-serif" font-size="12" lengthAdjust="spacing" textLength="8.209" x="74.5005" y="37.1387">A</text><polygon fill="#F1F1F1" points="55.9336,69.9688,101.2764,69.9688,113.2764,81.9688,101.2764,93.9688,55.9336,93.9688,43.9336,81.9688,55.9336,69.9688" style="stroke:#181818;stroke-width:0.5;"/><text fill="#000000" font-family="sans-serif" font-size="11" lengthAdjust="spacing" textLength="45.3428" x="55.9336" y="85.7769">decision</text><text fill="#000000" font-family="sans-serif" font-size="11" lengthAdjust="spacing" textLength="19.0083" x="24.9253" y="79.3745">yes</text><text fill="#000000" font-family="sans-serif" font-size="11" lengthAdjust="spacing" textLength="13.7017" x="113.2764" y="79.3745">no</text><rect fill="#F1F1F1" height="33.9688" rx="12.5" ry="12.5" style="stroke:#181818;stroke-width:0.5;" width="35.8672" x="16" y="103.9688"/><text fill="#000000" font-family="sans-serif" font-size="12" lengthAdjust="spacing" textLength="15.8672" x="26" y="125.1074">B1</text><rect fill="#F1F1F1" height="33.9688" rx="12.5" ry="12.5" style="stroke:#181818;stroke-width:0.5;" width="35.8672" x="105.3428" y="103.9688"/><text fill="#000000" font-family="sans-serif" font-size="12" lengthAdjust="spacing" textLength="15.8672" x="115.3428" y="125.1074">B2</text><rect fill="#F1F1F1" height="33.9688" rx="12.5" ry="12.5" style="stroke:#181818;stroke-width:0.5;" width="28.3789" x="64.4155" y="175.9375"/><text fill="#000000" font-family="sans-serif" font-size="12" lengthAdjust="spacing" textLength="8.3789" x="74.4155" y="197.0762">C</text><line style="stroke:#181818;stroke-width:1;" x1="43.9336" x2="33.9336" y1="81.9688" y2="81.9688"/><line style="stroke:#181818;stroke-width:1;" x1="33.9336" x2="33.9336" y1="81.9688" y2="103.9688"/><polygon fill="#181818" points="29.9336,93.9688,33.9336,103.9688,37.9336,93.9688,33.9336,97.9688" style="stroke:#181818;stroke-width:1;"/><line style="stroke:#181818;stroke-width:1;" x1="113.2764" x2="123.2764" y1="81.9688" y2="81.9688"/><line style="stroke:#181818;stroke-width:1;" x1="123.2764" x2="123.2764" y1="81.9688" y2="103.9688"/><polygon fill="#181818" points="119.2764,93.9688,123.2764,103.9688,127.2764,93.9688,123.2764,97.9688" style="stroke:#181818;stroke-width:1;"/><line style="stroke:#181818;stroke-width:1;" x1="33.9336" x2="33.9336" y1="137.9375" y2="155.9375"/><polygon fill="#181818" points="29.9336,145.9375,33.9336,155.9375,37.9336,145.9375,33.9336,149.9375" style="stroke:#181818;stroke-width:1;"/><line style="stroke:#181818;stroke-width:1;" x1="123.2764" x2="123.2764" y1="137.9375" y2="155.9375"/><polygon fill="#181818" points="119.2764,145.9375,123.2764,155.9375,127.2764,145.9375,123.2764,149.9375" style="stroke:#181818;stroke-width:1;"/><line style="stroke:#181818;stroke-width:1;" x1="33.9336" x2="123.2764" y1="155.9375" y2="155.9375"/><line style="stroke:#181818;stroke-width:1;" x1="78.605" x2="78.605" y1="49.9688" y2="69.9688"/><polygon fill="#181818" points="74.605,59.9688,78.605,69.9688,82.605,59.9688,78.605,63.9688" style="stroke:#181818;stroke-width:1;"/><line style="stroke:#181818;stroke-width:1;" x1="78.605" x2="78.605" y1="155.9375" y2="175.9375"/><polygon fill="#181818" points="74.605,165.9375,78.605,175.9375,82.605,165.9375,78.605,169.9375" style="stroke:#181818;stroke-width:1;"/><?plantuml-src DOmn3e0W303tlg8ZZ3h2fCGN-08Y9JHYCSBYx-tYZNV9zPFbZa-yC3H9FBZ99caVRoKibON0BHuueqbqSDTiSHGID2zr2wYuTV90jHCQQR-QLUalWml-0m00?></g></svg>