<svg xmlns="http://www.w3.org/2000/svg" width="780.0" height="640.0">
  <g stroke="#333333" fill="none" stroke-width="1.5">
    <path d="M 400.0 120.0 C 400.0 160.0, 400.0 160.0, 400.0 200.0" stroke="#333333" fill="none"/>
    <polygon points="396.0,194.0 404.0,194.0 400.0,200.0" fill="#333333" stroke="none"/>
    <path d="M 400.0 240.0 C 400.0 280.0, 260.0 280.0, 260.0 320.0" stroke="#333333" fill="none"/>
    <polygon points="256.0,314.0 264.0,314.0 260.0,320.0" fill="#333333" stroke="none"/>
    <text x="340.0" y="280.0" dy="4" font-family="sans-serif" font-size="12" fill="#000000">yes</text>
    <path d="M 260.0 360.0 C 260.0 400.0, 260.0 400.0, 260.0 440.0" stroke="#333333" fill="none"/>
    <polygon points="256.0,434.0 264.0,434.0 260.0,440.0" fill="#333333" stroke="none"/>
    <path d="M 260.0 480.0 C 260.0 520.0, 120.0 520.0, 120.0 560.0" stroke="#333333" fill="none"/>
    <polygon points="116.0,554.0 124.0,554.0 120.0,560.0" fill="#333333" stroke="none"/>
    <text x="200.0" y="520.0" dy="4" font-family="sans-serif" font-size="12" fill="#000000">yes</text>
    <path d="M 120.0 600.0 C 120.0 520.0, 260.0 520.0, 260.0 440.0" stroke="#333333" fill="none"/>
    <polygon points="256.0,434.0 264.0,434.0 260.0,440.0" fill="#333333" stroke="none"/>
    <path d="M 260.0 480.0 C 260.0 520.0, 400.0 520.0, 400.0 560.0" stroke="#333333" fill="none"/>
    <polygon points="396.0,554.0 404.0,554.0 400.0,560.0" fill="#333333" stroke="none"/>
    <path d="M 400.0 240.0 C 400.0 280.0, 540.0 280.0, 540.0 320.0" stroke="#333333" fill="none"/>
    <polygon points="536.0,314.0 544.0,314.0 540.0,320.0" fill="#333333" stroke="none"/>
    <text x="480.0" y="280.0" dy="4" font-family="sans-serif" font-size="12" fill="#000000">no</text>
    <path d="M 540.0 360.0 C 540.0 400.0, 540.0 400.0, 540.0 440.0" stroke="#333333" fill="none"/>
    <polygon points="536.0,434.0 544.0,434.0 540.0,440.0" fill="#333333" stroke="none"/>
    <path d="M 540.0 480.0 C 540.0 520.0, 680.0 520.0, 680.0 560.0" stroke="#333333" fill="none"/>
    <polygon points="676.0,554.0 684.0,554.0 680.0,560.0" fill="#333333" stroke="none"/>
  </g>
  <g font-family="sans-serif" font-size="14" text-anchor="middle">
    <rect x="340.0" y="80.0" width="120.0" height="40.0" rx="10" ry="10" fill="#f0f0f0" stroke="#333333" stroke-width="1.5"/>
    <text x="400.0" y="100.0" dy="5" fill="#000000">Step1</text>
    <polygon points="400.0,200.0 420.0,220.0 400.0,240.0 380.0,220.0" fill="#f9f9db" stroke="#333333" stroke-width="1.5"/>
    <polygon points="260.0,440.0 280.0,460.0 260.0,480.0 240.0,460.0" fill="#f9f9db" stroke="#333333" stroke-width="1.5"/>
    <rect x="60.0" y="560.0" width="120.0" height="40.0" rx="10" ry="10" fill="#f0f0f0" stroke="#333333" stroke-width="1.5"/>
    <text x="120.0" y="580.0" dy="5" fill="#000000">Step2</text>
    <rect x="340.0" y="560.0" width="120.0" height="40.0" rx="0" ry="0" fill="#f0f0f0" stroke="#333333" stroke-width="1.5"/>
    <text x="400.0" y="580.0" dy="5" fill="#000000">legacy</text>
    <rect x="480.0" y="440.0" width="120.0" height="40.0" rx="10" ry="10" fill="#f0f0f0" stroke="#333333" stroke-width="1.5"/>
    <text x="540.0" y="460.0" dy="5" fill="#000000">endnormally</text>
    <circle cx="680.0" cy="580.0" r="15" fill="none" stroke="#333333" stroke-width="2"/>
    <circle cx="680.0" cy="580.0" r="10" fill="#333333" stroke="#333333" stroke-width="2"/>
  </g>
</svg>
