<svg xmlns="http://www.w3.org/2000/svg" xmlns:xlink="http://www.w3.org/1999/xlink" contentStyleType="text/css" data-diagram-type="ACTIVITY" height="230px" preserveAspectRatio="none" style="width:266px;height:230px;background:#FFFFFF;" version="1.1" viewBox="0 0 266 230" width="266px" zoomAndPan="magnify"><?plantuml 1.2026.3beta5?><defs/><g><rect fill="#F1F1F1" height="33.9688" rx="12.5" ry="12.5" style="stroke:#181818;stroke-width:0.5;" width="58.7715" x="104.4082" y="16"/><text fill="#000000" font-family="sans-serif" font-size="12" lengthAdjust="spacing" textLength="38.7715" x="114.4082" y="37.1387">Step 1</text><polygon fill="#F1F1F1" points="104.8652,69.9688,162.7227,69.9688,174.7227,81.9688,162.7227,93.9688,104.8652,93.9688,92.8652,81.9688,104.8652,69.9688" style="stroke:#181818;stroke-width:0.5;"/><text fill="#000000" font-family="sans-serif" font-size="11" lengthAdjust="spacing" textLength="57.8574" x="104.8652" y="85.7769">condition1</text><rect fill="#F1F1F1" height="33.9688" rx="12.5" ry="12.5" style="stroke:#181818;stroke-width:0.5;" width="58.7715" x="40.958" y="151.9688"/><text fill="#000000" font-family="sans-serif" font-size="12" lengthAdjust="spacing" textLength="38.7715" x="50.958" y="173.1074">Step 2</text><polygon fill="#F1F1F1" points="37,103.9688,103.6875,103.9688,115.6875,115.9688,103.6875,127.9688,37,127.9688,25,115.9688,37,103.9688" style="stroke:#181818;stroke-width:0.5;"/><text fill="#000000" font-family="sans-serif" font-size="11" lengthAdjust="spacing" textLength="66.6875" x="37" y="119.7769">loop forever</text><rect fill="#F1F1F1" height="33.9688" rx="12.5" ry="12.5" style="stroke:#181818;stroke-width:0.5;" width="99.1133" x="147.6875" y="103.9688"/><text fill="#000000" font-family="sans-serif" font-size="12" lengthAdjust="spacing" textLength="79.1133" x="157.6875" y="125.1074">end normally</text><ellipse cx="197.2441" cy="183.9375" fill="none" rx="11" ry="11" style="stroke:#222222;stroke-width:1;"/><ellipse cx="197.2441" cy="183.9375" fill="#222222" rx="6" ry="6" style="stroke:#222222;stroke-width:1;"/><line style="stroke:#181818;stroke-width:1;" x1="70.3438" x2="70.3438" y1="127.9688" y2="151.9688"/><polygon fill="#181818" points="66.3438,141.9688,70.3438,151.9688,74.3438,141.9688,70.3438,145.9688" style="stroke:#181818;stroke-width:1;"/><line style="stroke:#181818;stroke-width:1;" x1="70.3438" x2="70.3438" y1="185.9375" y2="197.9375"/><line style="stroke:#181818;stroke-width:1;" x1="70.3438" x2="127.6875" y1="197.9375" y2="197.9375"/><polygon fill="#181818" points="123.6875,166.9531,127.6875,156.9531,131.6875,166.9531,127.6875,162.9531" style="stroke:#181818;stroke-width:1;"/><line style="stroke:#181818;stroke-width:1;" x1="127.6875" x2="127.6875" y1="115.9688" y2="197.9375"/><line style="stroke:#181818;stroke-width:1;" x1="127.6875" x2="115.6875" y1="115.9688" y2="115.9688"/><polygon fill="#181818" points="125.6875,111.9688,115.6875,115.9688,125.6875,119.9688,121.6875,115.9688" style="stroke:#181818;stroke-width:1;"/><line style="stroke:#181818;stroke-width:1;" x1="197.2441" x2="197.2441" y1="137.9375" y2="172.9375"/><polygon fill="#181818" points="193.2441,162.9375,197.2441,172.9375,201.2441,162.9375,197.2441,166.9375" style="stroke:#181818;stroke-width:1;"/><line style="stroke:#181818;stroke-width:1;" x1="92.8652" x2="70.3438" y1="81.9688" y2="81.9688"/><line style="stroke:#181818;stroke-width:1;" x1="70.3438" x2="70.3438" y1="81.9688" y2="103.9688"/><polygon fill="#181818" points="66.3438,93.9688,70.3438,103.9688,74.3438,93.9688,70.3438,97.9688" style="stroke:#181818;stroke-width:1;"/><line style="stroke:#181818;stroke-width:1;" x1="174.7227" x2="197.2441" y1="81.9688" y2="81.9688"/><line style="stroke:#181818;stroke-width:1;" x1="197.2441" x2="197.2441" y1="81.9688" y2="103.9688"/><polygon fill="#181818" points="193.2441,93.9688,197.2441,103.9688,201.2441,93.9688,197.2441,97.9688" style="stroke:#181818;stroke-width:1;"/><line style="stroke:#181818;stroke-width:1;" x1="133.7939" x2="133.7939" y1="49.9688" y2="69.9688"/><polygon fill="#181818" points="129.7939,59.9688,133.7939,69.9688,137.7939,59.9688,133.7939,63.9688" style="stroke:#181818;stroke-width:1;"/><?plantuml-src 7Okn3eCm34JtV8L761Ze6AJ-16FL0M57iMJiA5Yj-lSrR7VltkNLgS6y92umxAR8pgRp25v94y2tiX0COjQWMASFzJ4mvFltM2AJucr5d5wL4KdVqpCQaczxJIJdjUNmGAqVcyZl-frkBGNayWS0?></g></svg>