<svg xmlns="http://www.w3.org/2000/svg" xmlns:xlink="http://www.w3.org/1999/xlink" contentStyleType="text/css" data-diagram-type="ACTIVITY" height="164px" preserveAspectRatio="none" style="width:142px;height:164px;background:#FFFFFF;" version="1.1" viewBox="0 0 142 164" width="142px" zoomAndPan="magnify"><?plantuml 1.2026.3beta5?><defs/><g><line style="stroke:none;stroke-width:1.5;" x1="30.1045" x2="107.6387" y1="15" y2="15"/><rect fill="#F1F1F1" height="33.9688" rx="12.5" ry="12.5" style="stroke:#181818;stroke-width:0.5;" width="28.209" x="16" y="36.5"/><text fill="#000000" font-family="sans-serif" font-size="12" lengthAdjust="spacing" textLength="8.209" x="26" y="57.6387">A</text><rect fill="#F1F1F1" height="33.9688" rx="12.5" ry="12.5" style="stroke:#181818;stroke-width:0.5;" width="28.2324" x="54.6279" y="36.5"/><text fill="#000000" font-family="sans-serif" font-size="12" lengthAdjust="spacing" textLength="8.2324" x="64.6279" y="57.6387">B</text><rect fill="#F1F1F1" height="33.9688" rx="12.5" ry="12.5" style="stroke:#181818;stroke-width:0.5;" width="28.3789" x="93.4492" y="36.5"/><text fill="#000000" font-family="sans-serif" font-size="12" lengthAdjust="spacing" textLength="8.3789" x="103.4492" y="57.6387">C</text><line style="stroke:#181818;stroke-width:1.5;" x1="30.1045" x2="107.6387" y1="90.4688" y2="90.4688"/><rect fill="#F1F1F1" height="33.9688" rx="12.5" ry="12.5" style="stroke:#181818;stroke-width:0.5;" width="29.2402" x="54.209" y="110.4688"/><text fill="#000000" font-family="sans-serif" font-size="12" lengthAdjust="spacing" textLength="9.2402" x="64.209" y="131.6074">D</text><line style="stroke:#181818;stroke-width:1;" x1="30.1045" x2="30.1045" y1="70.4688" y2="90.4688"/><polygon fill="#181818" points="26.1045,80.4688,30.1045,90.4688,34.1045,80.4688,30.1045,84.4688" style="stroke:#181818;stroke-width:1;"/><line style="stroke:#181818;stroke-width:1;" x1="68.7441" x2="68.7441" y1="70.4688" y2="90.4688"/><polygon fill="#181818" points="64.7441,80.4688,68.7441,90.4688,72.7441,80.4688,68.7441,84.4688" style="stroke:#181818;stroke-width:1;"/><line style="stroke:#181818;stroke-width:1;" x1="107.6387" x2="107.6387" y1="70.4688" y2="90.4688"/><polygon fill="#181818" points="103.6387,80.4688,107.6387,90.4688,111.6387,80.4688,107.6387,84.4688" style="stroke:#181818;stroke-width:1;"/><line style="stroke:#181818;stroke-width:1;" x1="68.8291" x2="68.8291" y1="91.9688" y2="110.4688"/><polygon fill="#181818" points="64.8291,100.4688,68.8291,110.4688,72.8291,100.4688,68.8291,104.4688" style="stroke:#181818;stroke-width:1;"/><?plantuml-src Aox8oIpXKb1Gq8tEo4n9ISsBrRK3SQqShRcAGN8AYUc9cNdOL3WHLE5ipPMQbw80LiLbvM8D0000?></g></svg>