<svg xmlns="http://www.w3.org/2000/svg" xmlns:xlink="http://www.w3.org/1999/xlink" contentStyleType="text/css" data-diagram-type="ACTIVITY" height="233px" preserveAspectRatio="none" style="width:141px;height:233px;background:#FFFFFF;" version="1.1" viewBox="0 0 141 233" width="141px" zoomAndPan="magnify"><?plantuml 1.2026.3beta5?><defs/><g><line style="stroke:none;stroke-width:1.5;" x1="30.1045" x2="106.7422" y1="15" y2="15"/><rect fill="#F1F1F1" height="33.9688" rx="12.5" ry="12.5" style="stroke:#181818;stroke-width:0.5;" width="28.209" x="16" y="70.9844"/><text fill="#000000" font-family="sans-serif" font-size="12" lengthAdjust="spacing" textLength="8.209" x="26" y="92.123">A</text><rect fill="#F1F1F1" height="33.9688" rx="12.5" ry="12.5" style="stroke:#181818;stroke-width:0.5;" width="27.3535" x="59.2568" y="36.5"/><text fill="#000000" font-family="sans-serif" font-size="12" lengthAdjust="spacing" textLength="7.3535" x="69.2568" y="57.6387">a</text><rect fill="#F1F1F1" height="33.9688" rx="12.5" ry="12.5" style="stroke:#181818;stroke-width:0.5;" width="27.6172" x="59.125" y="105.4688"/><text fill="#000000" font-family="sans-serif" font-size="12" lengthAdjust="spacing" textLength="7.6172" x="69.125" y="126.6074">b</text><ellipse cx="106.7422" cy="87.9688" fill="#F1F1F1" rx="10" ry="10" style="stroke:#181818;stroke-width:0.5;"/><path d="M102.9141,83.7188 L109.7891,83.7188 L109.7891,84.625 L104.2578,91.4688 L109.9297,91.4688 L109.9297,92.4688 L102.7891,92.4688 L102.7891,91.5625 L108.3203,84.7188 L102.9141,84.7188 L102.9141,83.7188 Z " fill="#000000"/><line style="stroke:#181818;stroke-width:1.5;" x1="30.1045" x2="106.7422" y1="159.4375" y2="159.4375"/><rect fill="#F1F1F1" height="33.9688" rx="12.5" ry="12.5" style="stroke:#181818;stroke-width:0.5;" width="29.2402" x="54.209" y="179.4375"/><text fill="#000000" font-family="sans-serif" font-size="12" lengthAdjust="spacing" textLength="9.2402" x="64.209" y="200.5762">D</text><line style="stroke:#181818;stroke-width:1;" x1="72.9336" x2="72.9336" y1="70.4688" y2="105.4688"/><polygon fill="#181818" points="68.9336,95.4688,72.9336,105.4688,76.9336,95.4688,72.9336,99.4688" style="stroke:#181818;stroke-width:1;"/><line style="stroke:#181818;stroke-width:1;" x1="30.1045" x2="30.1045" y1="104.9531" y2="159.4375"/><polygon fill="#181818" points="26.1045,149.4375,30.1045,159.4375,34.1045,149.4375,30.1045,153.4375" style="stroke:#181818;stroke-width:1;"/><line style="stroke:#181818;stroke-width:1;" x1="72.9336" x2="72.9336" y1="139.4375" y2="159.4375"/><polygon fill="#181818" points="68.9336,149.4375,72.9336,159.4375,76.9336,149.4375,72.9336,153.4375" style="stroke:#181818;stroke-width:1;"/><line style="stroke:#181818;stroke-width:1;" x1="106.7422" x2="106.7422" y1="97.9688" y2="159.4375"/><polygon fill="#181818" points="102.7422,149.4375,106.7422,159.4375,110.7422,149.4375,106.7422,153.4375" style="stroke:#181818;stroke-width:1;"/><line style="stroke:#181818;stroke-width:1;" x1="68.8291" x2="68.8291" y1="160.9375" y2="179.4375"/><polygon fill="#181818" points="64.8291,169.4375,68.8291,179.4375,72.8291,169.4375,68.8291,173.4375" style="stroke:#181818;stroke-width:1;"/><?plantuml-src Aox8oIpXKb1Gq8tEo4n9ISsBrRK3SQqShRcAGN8AYUc9cNdOL2HQWwaaGWereZIvKlDI5C2gkAnSh040?></g></svg>