<svg xmlns="http://www.w3.org/2000/svg" xmlns:xlink="http://www.w3.org/1999/xlink" contentStyleType="text/css" data-diagram-type="ACTIVITY" height="322px" preserveAspectRatio="none" style="width:119px;height:322px;background:#FFFFFF;" version="1.1" viewBox="0 0 119 322" width="119px" zoomAndPan="magnify"><?plantuml 1.2026.3beta5?><defs/><g><ellipse cx="48.5828" cy="25" fill="#222222" rx="10" ry="10" style="stroke:#222222;stroke-width:1;"/><rect fill="#F1F1F1" height="33.9688" rx="12.5" ry="12.5" style="stroke:#181818;stroke-width:0.5;" width="46.291" x="25.4373" y="99"/><text fill="#000000" font-family="sans-serif" font-size="12" lengthAdjust="spacing" textLength="26.291" x="35.4373" y="120.1387">act1</text><rect fill="#F1F1F1" height="33.9688" rx="12.5" ry="12.5" style="stroke:#181818;stroke-width:0.5;" width="46.291" x="25.4373" y="157.2676"/><text fill="#000000" font-family="sans-serif" font-size="12" lengthAdjust="spacing" textLength="26.291" x="35.4373" y="178.4063">act2</text><polygon fill="#F1F1F1" points="48.5828,55,60.5828,67,48.5828,79,36.5828,67,48.5828,55" style="stroke:#181818;stroke-width:0.5;"/><polygon fill="#F1F1F1" points="48.5828,211.2363,72.1655,229.6387,48.5828,248.041,25,229.6387" style="stroke:#181818;stroke-width:0.5;"/><text fill="#000000" font-family="sans-serif" font-size="11" font-weight="700" lengthAdjust="spacing" textLength="23.1655" x="37" y="233.4468">end</text><rect fill="#F1F1F1" height="33.9688" rx="12.5" ry="12.5" style="stroke:#181818;stroke-width:0.5;" width="46.291" x="25.4373" y="268.041"/><text fill="#000000" font-family="sans-serif" font-size="12" lengthAdjust="spacing" textLength="26.291" x="35.4373" y="289.1797">act3</text><line style="stroke:#181818;stroke-width:1;" x1="48.5828" x2="48.5828" y1="132.9688" y2="157.2676"/><polygon fill="#181818" points="44.5828,147.2676,48.5828,157.2676,52.5828,147.2676,48.5828,151.2676" style="stroke:#181818;stroke-width:1;"/><line style="stroke:#181818;stroke-width:1;" x1="48.5828" x2="48.5828" y1="79" y2="99"/><polygon fill="#181818" points="44.5828,89,48.5828,99,52.5828,89,48.5828,93" style="stroke:#181818;stroke-width:1;"/><line style="stroke:#181818;stroke-width:1;" x1="72.1655" x2="84.1655" y1="229.6387" y2="229.6387"/><polygon fill="#181818" points="80.1655,152.9688,84.1655,142.9688,88.1655,152.9688,84.1655,148.9688" style="stroke:#181818;stroke-width:1;"/><line style="stroke:#181818;stroke-width:1;" x1="84.1655" x2="84.1655" y1="67" y2="229.6387"/><line style="stroke:#181818;stroke-width:1;" x1="84.1655" x2="60.5828" y1="67" y2="67"/><polygon fill="#181818" points="70.5828,63,60.5828,67,70.5828,71,66.5828,67" style="stroke:#181818;stroke-width:1;"/><line style="stroke:#181818;stroke-width:1;" x1="48.5828" x2="48.5828" y1="191.2363" y2="211.2363"/><polygon fill="#181818" points="44.5828,201.2363,48.5828,211.2363,52.5828,201.2363,48.5828,205.2363" style="stroke:#181818;stroke-width:1;"/><line style="stroke:#181818;stroke-width:1;" x1="48.5828" x2="48.5828" y1="35" y2="55"/><polygon fill="#181818" points="44.5828,45,48.5828,55,52.5828,45,48.5828,49" style="stroke:#181818;stroke-width:1;"/><line style="stroke:#181818;stroke-width:1;" x1="48.5828" x2="48.5828" y1="248.041" y2="268.041"/><polygon fill="#181818" points="44.5828,258.041,48.5828,268.041,52.5828,258.041,48.5828,262.041" style="stroke:#181818;stroke-width:1;"/><?plantuml-src AyxEp2j8B4hCLKZEpql9BCdCpmikgSn9LKZBppVaAYv9B2hXAaejI4qiuL9Gi4fCBZ6qXZAChA4IvHcPGFKQDabsgNafcbmWEMDh0000?></g></svg>