<svg xmlns="http://www.w3.org/2000/svg" xmlns:xlink="http://www.w3.org/1999/xlink" contentStyleType="text/css" data-diagram-type="ACTIVITY" height="312px" preserveAspectRatio="none" style="width:120px;height:312px;background:#FFFFFF;" version="1.1" viewBox="0 0 120 312" width="120px" zoomAndPan="magnify"><?plantuml 1.2026.3beta5?><defs/><g><ellipse cx="49" cy="25" fill="#222222" rx="10" ry="10" style="stroke:#222222;stroke-width:1;"/><rect fill="#F1F1F1" height="33.9688" rx="12.5" ry="12.5" style="stroke:#181818;stroke-width:0.5;" width="46.291" x="25.8545" y="99"/><text fill="#000000" font-family="sans-serif" font-size="12" lengthAdjust="spacing" textLength="26.291" x="35.8545" y="120.1387">act1</text><rect fill="#F1F1F1" height="33.9688" rx="12.5" ry="12.5" style="stroke:#181818;stroke-width:0.5;" width="46.291" x="25.8545" y="160.4688"/><text fill="#000000" font-family="sans-serif" font-size="12" lengthAdjust="spacing" textLength="26.291" x="35.8545" y="181.6074">act2</text><polygon fill="#F1F1F1" points="49,55,61,67,49,79,37,67,49,55" style="stroke:#181818;stroke-width:0.5;"/><polygon fill="#F1F1F1" points="37,214.4375,61,214.4375,73,226.4375,61,238.4375,37,238.4375,25,226.4375,37,214.4375" style="stroke:#181818;stroke-width:0.5;"/><text fill="#000000" font-family="sans-serif" font-size="11" font-weight="700" lengthAdjust="spacing" textLength="23.1655" x="37.4172" y="230.2456">end</text><rect fill="#F1F1F1" height="33.9688" rx="12.5" ry="12.5" style="stroke:#181818;stroke-width:0.5;" width="46.291" x="25.8545" y="258.4375"/><text fill="#000000" font-family="sans-serif" font-size="12" lengthAdjust="spacing" textLength="26.291" x="35.8545" y="279.5762">act3</text><line style="stroke:#181818;stroke-width:1;" x1="49" x2="49" y1="132.9688" y2="160.4688"/><polygon fill="#181818" points="45,150.4688,49,160.4688,53,150.4688,49,154.4688" style="stroke:#181818;stroke-width:1;"/><line style="stroke:#181818;stroke-width:1;" x1="49" x2="49" y1="79" y2="99"/><polygon fill="#181818" points="45,89,49,99,53,89,49,93" style="stroke:#181818;stroke-width:1;"/><line style="stroke:#181818;stroke-width:1;" x1="73" x2="85" y1="226.4375" y2="226.4375"/><polygon fill="#181818" points="81,152.9688,85,142.9688,89,152.9688,85,148.9688" style="stroke:#181818;stroke-width:1;"/><line style="stroke:#181818;stroke-width:1;" x1="85" x2="85" y1="67" y2="226.4375"/><line style="stroke:#181818;stroke-width:1;" x1="85" x2="61" y1="67" y2="67"/><polygon fill="#181818" points="71,63,61,67,71,71,67,67" style="stroke:#181818;stroke-width:1;"/><line style="stroke:#181818;stroke-width:1;" x1="49" x2="49" y1="194.4375" y2="214.4375"/><polygon fill="#181818" points="45,204.4375,49,214.4375,53,204.4375,49,208.4375" style="stroke:#181818;stroke-width:1;"/><line style="stroke:#181818;stroke-width:1;" x1="49" x2="49" y1="35" y2="55"/><polygon fill="#181818" points="45,45,49,55,53,45,49,49" style="stroke:#181818;stroke-width:1;"/><line style="stroke:#181818;stroke-width:1;" x1="49" x2="49" y1="238.4375" y2="258.4375"/><polygon fill="#181818" points="45,248.4375,49,258.4375,53,248.4375,49,252.4375" style="stroke:#181818;stroke-width:1;"/><?plantuml-src Aov9B2hXAaejI4qiuL9Gi4fCBZ6qXZAChA4IvHcPEQaA6ZP9TgbvAPfS83bZQm00?></g></svg>