<svg xmlns="http://www.w3.org/2000/svg" xmlns:xlink="http://www.w3.org/1999/xlink" contentStyleType="text/css" data-diagram-type="ACTIVITY" height="202px" preserveAspectRatio="none" style="width:266px;height:202px;background:#FFFFFF;" version="1.1" viewBox="0 0 266 202" width="266px" zoomAndPan="magnify"><?plantuml 1.2026.3beta5?><defs/><g><ellipse cx="110.9727" cy="25" fill="#222222" rx="10" ry="10" style="stroke:#222222;stroke-width:1;"/><rect fill="#555555" height="6" rx="2.5" ry="2.5" style="stroke:#555555;stroke-width:1;" width="189.9453" x="16" y="55"/><rect fill="#F1F1F1" height="33.9688" rx="12.5" ry="12.5" style="stroke:#181818;stroke-width:0.5;" width="68.9609" x="28" y="81"/><text fill="#000000" font-family="sans-serif" font-size="12" lengthAdjust="spacing" textLength="48.9609" x="38" y="102.1387">action A</text><rect fill="#F1F1F1" height="33.9688" rx="12.5" ry="12.5" style="stroke:#181818;stroke-width:0.5;" width="68.9844" x="124.9609" y="81"/><text fill="#000000" font-family="sans-serif" font-size="12" lengthAdjust="spacing" textLength="48.9844" x="134.9609" y="102.1387">action B</text><rect fill="#555555" height="6" rx="2.5" ry="2.5" style="stroke:#555555;stroke-width:1;" width="189.9453" x="16" y="134.9688"/><text fill="#000000" font-family="sans-serif" font-size="11" lengthAdjust="spacing" textLength="34.6919" x="210.9453" y="138.7769">{and}</text><ellipse cx="110.9727" cy="171.9688" fill="none" rx="11" ry="11" style="stroke:#222222;stroke-width:1;"/><ellipse cx="110.9727" cy="171.9688" fill="#222222" rx="6" ry="6" style="stroke:#222222;stroke-width:1;"/><line style="stroke:#181818;stroke-width:1;" x1="62.4805" x2="62.4805" y1="61" y2="81"/><polygon fill="#181818" points="58.4805,71,62.4805,81,66.4805,71,62.4805,75" style="stroke:#181818;stroke-width:1;"/><line style="stroke:#181818;stroke-width:1;" x1="159.4531" x2="159.4531" y1="61" y2="81"/><polygon fill="#181818" points="155.4531,71,159.4531,81,163.4531,71,159.4531,75" style="stroke:#181818;stroke-width:1;"/><line style="stroke:#181818;stroke-width:1;" x1="62.4805" x2="62.4805" y1="114.9688" y2="134.9688"/><polygon fill="#181818" points="58.4805,124.9688,62.4805,134.9688,66.4805,124.9688,62.4805,128.9688" style="stroke:#181818;stroke-width:1;"/><line style="stroke:#181818;stroke-width:1;" x1="159.4531" x2="159.4531" y1="114.9688" y2="134.9688"/><polygon fill="#181818" points="155.4531,124.9688,159.4531,134.9688,163.4531,124.9688,159.4531,128.9688" style="stroke:#181818;stroke-width:1;"/><line style="stroke:#181818;stroke-width:1;" x1="110.9727" x2="110.9727" y1="35" y2="55"/><polygon fill="#181818" points="106.9727,45,110.9727,55,114.9727,45,110.9727,49" style="stroke:#181818;stroke-width:1;"/><line style="stroke:#181818;stroke-width:1;" x1="110.9727" x2="110.9727" y1="140.9688" y2="160.9688"/><polygon fill="#181818" points="106.9727,150.9688,110.9727,160.9688,114.9727,150.9688,110.9727,154.9688" style="stroke:#181818;stroke-width:1;"/><?plantuml-src Aov9B2hXIiilokPIKB1AJ2x9pCzJSBG6YoWafYTcvY69ErbpfUQbA83bgXFpKcgvYalo2m00?></g></svg>