<svg xmlns="http://www.w3.org/2000/svg" xmlns:xlink="http://www.w3.org/1999/xlink" contentStyleType="text/css" data-diagram-type="ACTIVITY" height="218px" preserveAspectRatio="none" style="width:180px;height:218px;background:#FFFFFF;" version="1.1" viewBox="0 0 180 218" width="180px" zoomAndPan="magnify"><?plantuml 1.2026.3beta5?><defs/><g><ellipse cx="88.2119" cy="25" fill="#222222" rx="10" ry="10" style="stroke:#222222;stroke-width:1;"/><rect fill="#F1F1F1" height="33.9688" rx="12.5" ry="12.5" style="stroke:#181818;stroke-width:0.5;" width="87.2715" x="44.5762" y="55"/><text fill="#000000" font-family="sans-serif" font-size="12" lengthAdjust="spacing" textLength="67.2715" x="54.5762" y="76.1387">Hello world</text><rect fill="#F1F1F1" height="47.9375" rx="12.5" ry="12.5" style="stroke:#181818;stroke-width:0.5;" width="144.4238" x="16" y="108.9688"/><text fill="#000000" font-family="sans-serif" font-size="12" lengthAdjust="spacing" textLength="124.4238" x="26" y="130.1074">This is on defined on</text><text fill="#000000" font-family="sans-serif" font-size="12" lengthAdjust="spacing" textLength="43.7402" x="26" y="144.0762">several</text><text fill="#000000" font-family="sans-serif" font-size="12" font-weight="700" lengthAdjust="spacing" textLength="32.0508" x="73.5547" y="144.0762">lines</text><ellipse cx="88.2119" cy="187.9063" fill="none" rx="11" ry="11" style="stroke:#222222;stroke-width:1;"/><ellipse cx="88.2119" cy="187.9063" fill="#222222" rx="6" ry="6" style="stroke:#222222;stroke-width:1;"/><line style="stroke:#181818;stroke-width:1;" x1="88.2119" x2="88.2119" y1="35" y2="55"/><polygon fill="none" points="84.2119,45,88.2119,55,92.2119,45,88.2119,49" style="stroke:none;stroke-width:1;"/><line style="stroke:#181818;stroke-width:1;" x1="88.2119" x2="88.2119" y1="88.9688" y2="108.9688"/><polygon fill="none" points="84.2119,98.9688,88.2119,108.9688,92.2119,98.9688,88.2119,102.9688" style="stroke:none;stroke-width:1;"/><line style="stroke:#181818;stroke-width:1;" x1="88.2119" x2="88.2119" y1="156.9063" y2="176.9063"/><polygon fill="none" points="84.2119,166.9063,88.2119,176.9063,92.2119,166.9063,88.2119,170.9063" style="stroke:none;stroke-width:1;"/><?plantuml-src 3Oin2e0m303tlY9pdz1Euj87-8508XPZKfAYtxTmmt5mSNSTwFZ0vcvVOwJTn1pKb5DCz9bAOn63proefd9SFM1X2iHdLwQbAVXbHu6SPQN8kQxRnWy0?></g></svg>