<svg xmlns="http://www.w3.org/2000/svg" xmlns:xlink="http://www.w3.org/1999/xlink" contentStyleType="text/css" data-diagram-type="ACTIVITY" height="558px" preserveAspectRatio="none" style="width:397px;height:558px;background:#FFFFFF;" version="1.1" viewBox="0 0 397 558" width="397px" zoomAndPan="magnify"><?plantuml 1.2026.3beta5?><defs/><g><ellipse cx="194.0679" cy="25" fill="#222222" rx="10" ry="10" style="stroke:#222222;stroke-width:1;"/><polygon fill="#F1F1F1" points="37,55,61,55,73,67,61,79,37,79,25,67,37,55" style="stroke:#181818;stroke-width:0.5;"/><text fill="#000000" font-family="sans-serif" font-size="11" lengthAdjust="spacing" textLength="19.0083" x="53" y="89.2104">yes</text><text fill="#000000" font-family="sans-serif" font-size="11" lengthAdjust="spacing" textLength="12.5791" x="42.7104" y="70.8081">a?</text><rect fill="#F1F1F1" height="33.9688" rx="12.5" ry="12.5" style="stroke:#181818;stroke-width:0.5;" width="64.2324" x="16.8838" y="110.7104"/><text fill="#000000" font-family="sans-serif" font-size="12" lengthAdjust="spacing" textLength="44.2324" x="26.8838" y="131.8491">activity</text><rect fill="#F1F1F1" height="33.9688" rx="12.5" ry="12.5" style="stroke:#181818;stroke-width:0.5;" width="46.127" x="25.9365" y="276.4839"/><text fill="#000000" font-family="sans-serif" font-size="12" lengthAdjust="spacing" textLength="26.127" x="35.9365" y="297.6226">do a</text><rect fill="#F1F1F1" height="33.9688" rx="12.5" ry="12.5" style="stroke:#181818;stroke-width:0.5;" width="46.3906" x="25.8047" y="345.4526"/><text fill="#000000" font-family="sans-serif" font-size="12" lengthAdjust="spacing" textLength="26.3906" x="35.8047" y="366.5913">do b</text><polygon fill="#F1F1F1" points="37,228.0815,61,228.0815,73,240.0815,61,252.0815,37,252.0815,25,240.0815,37,228.0815" style="stroke:#181818;stroke-width:0.5;"/><text fill="#000000" font-family="sans-serif" font-size="11" lengthAdjust="spacing" textLength="13.7017" x="53" y="262.292">no</text><text fill="#000000" font-family="sans-serif" font-size="11" lengthAdjust="spacing" textLength="12.8208" x="42.5896" y="243.8896">b?</text><text fill="#000000" font-family="sans-serif" font-size="11" lengthAdjust="spacing" textLength="19.0083" x="73" y="237.4873">yes</text><polygon fill="#F1F1F1" points="49,403.8237,61,415.8237,49,427.8237,37,415.8237,49,403.8237" style="stroke:#181818;stroke-width:0.5;"/><polygon fill="#F1F1F1" points="37,179.6792,61,179.6792,73,191.6792,61,203.6792,37,203.6792,25,191.6792,37,179.6792" style="stroke:#181818;stroke-width:0.5;"/><text fill="#000000" font-family="sans-serif" font-size="11" lengthAdjust="spacing" textLength="13.7017" x="53" y="213.8896">no</text><text fill="#000000" font-family="sans-serif" font-size="11" lengthAdjust="spacing" textLength="11.8862" x="43.0569" y="195.4873">c?</text><text fill="#000000" font-family="sans-serif" font-size="11" lengthAdjust="spacing" textLength="19.0083" x="73" y="189.085">yes</text><polygon fill="#F1F1F1" points="49,452.2261,61,464.2261,49,476.2261,37,464.2261,49,452.2261" style="stroke:#181818;stroke-width:0.5;"/><polygon fill="#F1F1F1" points="168.9453,55,192.9453,55,204.9453,67,192.9453,79,168.9453,79,156.9453,67,168.9453,55" style="stroke:#181818;stroke-width:0.5;"/><text fill="#000000" font-family="sans-serif" font-size="11" lengthAdjust="spacing" textLength="19.0083" x="184.9453" y="89.2104">yes</text><text fill="#000000" font-family="sans-serif" font-size="11" lengthAdjust="spacing" textLength="12.606" x="174.6423" y="70.8081">e?</text><path d="M134.792,207.5151 L129.792,224.4995 L134.792,241.4839 M227.0986,207.5151 L232.0986,224.4995 L227.0986,241.4839" fill="#F1F1F1" style="stroke:#181818;stroke-width:0.5;"/><text fill="#000000" font-family="sans-serif" font-size="12" lengthAdjust="spacing" textLength="82.3066" x="139.792" y="228.6538">do something</text><polygon fill="#F1F1F1" points="168.9453,159.1128,192.9453,159.1128,204.9453,171.1128,192.9453,183.1128,168.9453,183.1128,156.9453,171.1128,168.9453,159.1128" style="stroke:#181818;stroke-width:0.5;"/><text fill="#000000" font-family="sans-serif" font-size="11" lengthAdjust="spacing" textLength="13.7017" x="184.9453" y="193.3232">no</text><text fill="#000000" font-family="sans-serif" font-size="11" lengthAdjust="spacing" textLength="12.8208" x="174.5349" y="174.9209">d?</text><text fill="#000000" font-family="sans-serif" font-size="11" lengthAdjust="spacing" textLength="19.0083" x="204.9453" y="168.5186">yes</text><polygon fill="#F1F1F1" points="180.9453,265.8862,192.9453,277.8862,180.9453,289.8862,168.9453,277.8862,180.9453,265.8862" style="stroke:#181818;stroke-width:0.5;"/><rect fill="none" height="90.2656" style="stroke:#000000;stroke-width:1.5;" width="125.5" x="118.1953" y="324.8862"/><path d="M181.5156,324.8862 L181.5156,334.1831 L171.5156,344.1831 L118.1953,344.1831" fill="none" style="stroke:#000000;stroke-width:1.5;"/><text fill="#000000" font-family="sans-serif" font-size="14" lengthAdjust="spacing" textLength="53.3203" x="121.1953" y="338.8813">dummy</text><rect fill="#F1F1F1" height="33.9688" rx="12.5" ry="12.5" style="stroke:#181818;stroke-width:0.5;" width="105.5" x="128.1953" y="361.1831"/><text fill="#000000" font-family="sans-serif" font-size="12" lengthAdjust="spacing" textLength="85.5" x="138.1953" y="382.3218">some function</text><polygon fill="#F1F1F1" points="168.9453,110.7104,192.9453,110.7104,204.9453,122.7104,192.9453,134.7104,168.9453,134.7104,156.9453,122.7104,168.9453,110.7104" style="stroke:#181818;stroke-width:0.5;"/><text fill="#000000" font-family="sans-serif" font-size="11" lengthAdjust="spacing" textLength="13.7017" x="184.9453" y="144.9209">no</text><text fill="#000000" font-family="sans-serif" font-size="11" lengthAdjust="spacing" textLength="11.8862" x="175.0022" y="126.5186">c?</text><text fill="#000000" font-family="sans-serif" font-size="11" lengthAdjust="spacing" textLength="19.0083" x="204.9453" y="120.1162">yes</text><polygon fill="#F1F1F1" points="180.9453,439.5542,192.9453,451.5542,180.9453,463.5542,168.9453,451.5542,180.9453,439.5542" style="stroke:#181818;stroke-width:0.5;"/><polygon fill="#F1F1F1" points="296.0986,55,320.0986,55,332.0986,67,320.0986,79,296.0986,79,284.0986,67,296.0986,55" style="stroke:#181818;stroke-width:0.5;"/><text fill="#000000" font-family="sans-serif" font-size="11" lengthAdjust="spacing" textLength="19.0083" x="312.0986" y="89.2104">yes</text><text fill="#000000" font-family="sans-serif" font-size="11" lengthAdjust="spacing" textLength="9.7109" x="303.2432" y="70.8081">f?</text><text fill="#000000" font-family="sans-serif" font-size="11" lengthAdjust="spacing" textLength="13.7017" x="332.0986" y="64.4058">no</text><path d="M280.9824,110.7104 L275.9824,127.6948 L280.9824,144.6792 M335.2148,110.7104 L340.2148,127.6948 L335.2148,144.6792" fill="#F1F1F1" style="stroke:#181818;stroke-width:0.5;"/><text fill="#000000" font-family="sans-serif" font-size="12" lengthAdjust="spacing" textLength="44.2324" x="285.9824" y="131.8491">activity</text><ellipse cx="194.0679" cy="527.2261" fill="none" rx="11" ry="11" style="stroke:#222222;stroke-width:1;"/><ellipse cx="194.0679" cy="527.2261" fill="#222222" rx="6" ry="6" style="stroke:#222222;stroke-width:1;"/><line style="stroke:#FF0000;stroke-width:1;" x1="49" x2="49" y1="310.4526" y2="345.4526"/><polygon fill="#FF0000" points="45,335.4526,49,345.4526,53,335.4526,49,339.4526" style="stroke:#FF0000;stroke-width:1;"/><line style="stroke:#0000FF;stroke-width:1.5;stroke-dasharray:7,7;" x1="47.5" x2="47.5" y1="252.0815" y2="276.4839"/><polygon fill="#0000FF" points="43.5,266.4839,47.5,276.4839,51.5,266.4839,47.5,270.4839" style="stroke:#0000FF;stroke-width:1;"/><line style="stroke:#181818;stroke-width:1.5;stroke-dasharray:1,3;" x1="50.5" x2="50.5" y1="252.0815" y2="276.4839"/><polygon fill="#181818" points="46.5,266.4839,50.5,276.4839,54.5,266.4839,50.5,270.4839" style="stroke:#181818;stroke-width:1;"/><line style="stroke:#800000;stroke-width:1.5;stroke-dasharray:7,7;" x1="73" x2="85" y1="240.0815" y2="240.0815"/><polygon fill="#800000" points="81,317.9526,85,327.9526,89,317.9526,85,321.9526" style="stroke:#800000;stroke-width:1.5;stroke-dasharray:7,7;"/><line style="stroke:#800000;stroke-width:1.5;stroke-dasharray:7,7;" x1="85" x2="85" y1="240.0815" y2="415.8237"/><line style="stroke:#800000;stroke-width:1.5;stroke-dasharray:7,7;" x1="85" x2="61" y1="415.8237" y2="415.8237"/><polygon fill="#800000" points="71,411.8237,61,415.8237,71,419.8237,67,415.8237" style="stroke:#800000;stroke-width:1;"/><line style="stroke:#FF0000;stroke-width:1;" x1="49" x2="49" y1="379.4214" y2="403.8237"/><polygon fill="#FF0000" points="45,393.8237,49,403.8237,53,393.8237,49,397.8237" style="stroke:#FF0000;stroke-width:1;"/><line style="stroke:#FF0000;stroke-width:1;" x1="49" x2="49" y1="203.6792" y2="228.0815"/><polygon fill="#FF0000" points="45,218.0815,49,228.0815,53,218.0815,49,222.0815" style="stroke:#FF0000;stroke-width:1;"/><line style="stroke:#800000;stroke-width:1.5;stroke-dasharray:7,7;" x1="73" x2="104.1953" y1="191.6792" y2="191.6792"/><polygon fill="#800000" points="100.1953,317.9526,104.1953,327.9526,108.1953,317.9526,104.1953,321.9526" style="stroke:#800000;stroke-width:1.5;stroke-dasharray:7,7;"/><line style="stroke:#800000;stroke-width:1.5;stroke-dasharray:7,7;" x1="104.1953" x2="104.1953" y1="191.6792" y2="464.2261"/><line style="stroke:#800000;stroke-width:1.5;stroke-dasharray:7,7;" x1="104.1953" x2="61" y1="464.2261" y2="464.2261"/><polygon fill="#800000" points="71,460.2261,61,464.2261,71,468.2261,67,464.2261" style="stroke:#800000;stroke-width:1;"/><line style="stroke:#FF0000;stroke-width:1;" x1="47.5" x2="47.5" y1="427.8237" y2="452.2261"/><polygon fill="#FF0000" points="43.5,442.2261,47.5,452.2261,51.5,442.2261,47.5,446.2261" style="stroke:#FF0000;stroke-width:1;"/><line style="stroke:#800000;stroke-width:1.5;stroke-dasharray:7,7;" x1="50.5" x2="50.5" y1="427.8237" y2="452.2261"/><polygon fill="#800000" points="46.5,442.2261,50.5,452.2261,54.5,442.2261,50.5,446.2261" style="stroke:#800000;stroke-width:1;"/><line style="stroke:#FF0000;stroke-width:1;" x1="49" x2="49" y1="144.6792" y2="179.6792"/><polygon fill="#FF0000" points="45,169.6792,49,179.6792,53,169.6792,49,173.6792" style="stroke:#FF0000;stroke-width:1;"/><line style="stroke:#008000;stroke-width:1;" x1="180.9453" x2="180.9453" y1="183.1128" y2="207.5151"/><polygon fill="#008000" points="176.9453,197.5151,180.9453,207.5151,184.9453,197.5151,180.9453,201.5151" style="stroke:#008000;stroke-width:1;"/><line style="stroke:#800000;stroke-width:1.5;stroke-dasharray:7,7;" x1="204.9453" x2="242.0986" y1="171.1128" y2="171.1128"/><polygon fill="#800000" points="238.0986,214.4995,242.0986,224.4995,246.0986,214.4995,242.0986,218.4995" style="stroke:#800000;stroke-width:1.5;stroke-dasharray:7,7;"/><line style="stroke:#800000;stroke-width:1.5;stroke-dasharray:7,7;" x1="242.0986" x2="242.0986" y1="171.1128" y2="277.8862"/><line style="stroke:#800000;stroke-width:1.5;stroke-dasharray:7,7;" x1="242.0986" x2="192.9453" y1="277.8862" y2="277.8862"/><polygon fill="#800000" points="202.9453,273.8862,192.9453,277.8862,202.9453,281.8862,198.9453,277.8862" style="stroke:#800000;stroke-width:1;"/><line style="stroke:#008000;stroke-width:1;" x1="180.9453" x2="180.9453" y1="241.4839" y2="265.8862"/><polygon fill="#008000" points="176.9453,255.8862,180.9453,265.8862,184.9453,255.8862,180.9453,259.8862" style="stroke:#008000;stroke-width:1;"/><line style="stroke:#008000;stroke-width:1;" x1="179.4453" x2="179.4453" y1="289.8862" y2="361.1831"/><polygon fill="#008000" points="175.4453,351.1831,179.4453,361.1831,183.4453,351.1831,179.4453,355.1831" style="stroke:#008000;stroke-width:1;"/><line style="stroke:#800000;stroke-width:1.5;stroke-dasharray:7,7;" x1="182.4453" x2="182.4453" y1="289.8862" y2="361.1831"/><polygon fill="#800000" points="178.4453,351.1831,182.4453,361.1831,186.4453,351.1831,182.4453,355.1831" style="stroke:#800000;stroke-width:1;"/><line style="stroke:#008000;stroke-width:1;" x1="180.9453" x2="180.9453" y1="134.7104" y2="159.1128"/><polygon fill="#008000" points="176.9453,149.1128,180.9453,159.1128,184.9453,149.1128,180.9453,153.1128" style="stroke:#008000;stroke-width:1;"/><line style="stroke:#800000;stroke-width:1.5;stroke-dasharray:7,7;" x1="204.9453" x2="260.0986" y1="122.7104" y2="122.7104"/><polygon fill="#800000" points="256.0986,277.1323,260.0986,287.1323,264.0986,277.1323,260.0986,281.1323" style="stroke:#800000;stroke-width:1.5;stroke-dasharray:7,7;"/><line style="stroke:#800000;stroke-width:1.5;stroke-dasharray:7,7;" x1="260.0986" x2="260.0986" y1="122.7104" y2="451.5542"/><line style="stroke:#800000;stroke-width:1.5;stroke-dasharray:7,7;" x1="260.0986" x2="192.9453" y1="451.5542" y2="451.5542"/><polygon fill="#800000" points="202.9453,447.5542,192.9453,451.5542,202.9453,455.5542,198.9453,451.5542" style="stroke:#800000;stroke-width:1;"/><line style="stroke:#008000;stroke-width:1;" x1="179.4453" x2="179.4453" y1="395.1519" y2="439.5542"/><polygon fill="#008000" points="175.4453,429.5542,179.4453,439.5542,183.4453,429.5542,179.4453,433.5542" style="stroke:#008000;stroke-width:1;"/><line style="stroke:#800000;stroke-width:1.5;stroke-dasharray:7,7;" x1="182.4453" x2="182.4453" y1="395.1519" y2="439.5542"/><polygon fill="#800000" points="178.4453,429.5542,182.4453,439.5542,186.4453,429.5542,182.4453,433.5542" style="stroke:#800000;stroke-width:1;"/><line style="stroke:#FF0000;stroke-width:1;" x1="49" x2="49" y1="79" y2="110.7104"/><polygon fill="#FF0000" points="45,100.7104,49,110.7104,53,100.7104,49,104.7104" style="stroke:#FF0000;stroke-width:1;"/><line style="stroke:#FF0000;stroke-width:1;" x1="47.5" x2="47.5" y1="476.2261" y2="496.2261"/><polygon fill="#FF0000" points="43.5,486.2261,47.5,496.2261,51.5,486.2261,47.5,490.2261" style="stroke:#FF0000;stroke-width:1;"/><line style="stroke:#800000;stroke-width:1.5;stroke-dasharray:7,7;" x1="50.5" x2="50.5" y1="476.2261" y2="496.2261"/><polygon fill="#800000" points="46.5,486.2261,50.5,496.2261,54.5,486.2261,50.5,490.2261" style="stroke:#800000;stroke-width:1;"/><line style="stroke:#008000;stroke-width:1;" x1="180.9453" x2="180.9453" y1="79" y2="110.7104"/><polygon fill="#008000" points="176.9453,100.7104,180.9453,110.7104,184.9453,100.7104,180.9453,104.7104" style="stroke:#008000;stroke-width:1;"/><line style="stroke:#008000;stroke-width:1;" x1="179.4453" x2="179.4453" y1="463.5542" y2="496.2261"/><polygon fill="#008000" points="175.4453,486.2261,179.4453,496.2261,183.4453,486.2261,179.4453,490.2261" style="stroke:#008000;stroke-width:1;"/><line style="stroke:#800000;stroke-width:1.5;stroke-dasharray:7,7;" x1="182.4453" x2="182.4453" y1="463.5542" y2="496.2261"/><polygon fill="#800000" points="178.4453,486.2261,182.4453,496.2261,186.4453,486.2261,182.4453,490.2261" style="stroke:#800000;stroke-width:1;"/><line style="stroke:#FFA500;stroke-width:1;" x1="308.0986" x2="308.0986" y1="79" y2="110.7104"/><polygon fill="#FFA500" points="304.0986,100.7104,308.0986,110.7104,312.0986,100.7104,308.0986,104.7104" style="stroke:#FFA500;stroke-width:1;"/><line style="stroke:#FFA500;stroke-width:1;" x1="308.0986" x2="308.0986" y1="144.6792" y2="496.2261"/><polygon fill="#FFA500" points="304.0986,486.2261,308.0986,496.2261,312.0986,486.2261,308.0986,490.2261" style="stroke:#FFA500;stroke-width:1;"/><line style="stroke:#181818;stroke-width:1;" x1="73" x2="156.9453" y1="67" y2="67"/><polygon fill="#181818" points="146.9453,63,156.9453,67,146.9453,71,150.9453,67" style="stroke:#181818;stroke-width:1;"/><line style="stroke:#181818;stroke-width:1;" x1="204.9453" x2="284.0986" y1="67" y2="67"/><polygon fill="#181818" points="274.0986,63,284.0986,67,274.0986,71,278.0986,67" style="stroke:#181818;stroke-width:1;"/><line style="stroke:#FF0000;stroke-width:1;" x1="189.5679" x2="189.5679" y1="35" y2="40"/><line style="stroke:#FF0000;stroke-width:1;" x1="189.5679" x2="44.5" y1="40" y2="40"/><line style="stroke:#FF0000;stroke-width:1;" x1="44.5" x2="44.5" y1="40" y2="55"/><polygon fill="#FF0000" points="40.5,45,44.5,55,48.5,45,44.5,49" style="stroke:#FF0000;stroke-width:1;"/><line style="stroke:#008000;stroke-width:1;" x1="192.5679" x2="192.5679" y1="35" y2="40"/><line style="stroke:#008000;stroke-width:1;" x1="192.5679" x2="47.5" y1="40" y2="40"/><line style="stroke:#008000;stroke-width:1;" x1="47.5" x2="47.5" y1="40" y2="55"/><polygon fill="#008000" points="43.5,45,47.5,55,51.5,45,47.5,49" style="stroke:#008000;stroke-width:1;"/><line style="stroke:#FFA500;stroke-width:1;" x1="195.5679" x2="195.5679" y1="35" y2="40"/><line style="stroke:#FFA500;stroke-width:1;" x1="195.5679" x2="50.5" y1="40" y2="40"/><line style="stroke:#FFA500;stroke-width:1;" x1="50.5" x2="50.5" y1="40" y2="55"/><polygon fill="#FFA500" points="46.5,45,50.5,55,54.5,45,50.5,49" style="stroke:#FFA500;stroke-width:1;"/><line style="stroke:#0000FF;stroke-width:1;" x1="198.5679" x2="198.5679" y1="35" y2="40"/><line style="stroke:#0000FF;stroke-width:1;" x1="198.5679" x2="53.5" y1="40" y2="40"/><line style="stroke:#0000FF;stroke-width:1;" x1="53.5" x2="53.5" y1="40" y2="55"/><polygon fill="#0000FF" points="49.5,45,53.5,55,57.5,45,53.5,49" style="stroke:#0000FF;stroke-width:1;"/><line style="stroke:#0000FF;stroke-width:1.5;stroke-dasharray:7,7;" x1="332.0986" x2="359.8003" y1="68.5" y2="68.5"/><line style="stroke:#0000FF;stroke-width:1.5;stroke-dasharray:7,7;" x1="359.8003" x2="359.8003" y1="68.5" y2="496.2261"/><polygon fill="#0000FF" points="355.8003,486.2261,359.8003,496.2261,363.8003,486.2261,359.8003,490.2261" style="stroke:#0000FF;stroke-width:1;"/><line style="stroke:#181818;stroke-width:1.5;stroke-dasharray:1,3;" x1="332.0986" x2="362.8003" y1="65.5" y2="65.5"/><line style="stroke:#181818;stroke-width:1.5;stroke-dasharray:1,3;" x1="362.8003" x2="362.8003" y1="65.5" y2="496.2261"/><polygon fill="#181818" points="358.8003,486.2261,362.8003,496.2261,366.8003,486.2261,362.8003,490.2261" style="stroke:#181818;stroke-width:1;"/><line style="stroke:#181818;stroke-width:1;" x1="49" x2="361.3003" y1="496.2261" y2="496.2261"/><line style="stroke:#181818;stroke-width:1;" x1="194.0679" x2="194.0679" y1="496.2261" y2="516.2261"/><polygon fill="#181818" points="190.0679,506.2261,194.0679,516.2261,198.0679,506.2261,194.0679,510.2261" style="stroke:#181818;stroke-width:1;"/><?plantuml-src dLB1JeGm4Btp5KsuGE8Ul6ut6BzXZyP3QGTeX1dIJZN4-EzImHLO8t6lRzwRlZTz_iLYhvpgXAQMtADpz7Q6YB0bFFTAWxXFF2l7oU4fTM1aMZi0b2avXJN8j6m3F1-An5QPUiYv0Sm6yFbCZvEZqcnVBGzo0OvqlQ5toX7XdL6-cJZGUiYGyhMi_8yikfj7qX3pxCYGK4it4IYN0A2nrINozHCxuz71w1GsJhykTqlufT3S98m1FNN0ZSLQYjD94xB5GC4NnOfvYJR_yzN-iHriOps42LqtYFVa63UBAg2Ei4m-_fBlxl--NhK9EXLkNQXVWlpGzdimUV5C_IS0?></g></svg>