<svg xmlns="http://www.w3.org/2000/svg" width="640.0" height="640.0">
  <rect x="180.0" y="160.0" width="440.0" height="460.0" fill="#f9f9f9" stroke="#999999" stroke-width="1.5" stroke-dasharray="8,8" rx="8" />
<text x="190.0" y="180.0" font-family="sans-serif" font-size="14" fill="#333333" font-weight="bold">"**process** HelloWorld"</text>
  <g stroke="#333333" fill="none" stroke-width="1.5">
    <path d="M 400.0 120.0 C 400.0 160.0, 260.0 160.0, 260.0 200.0" stroke="#333333" fill="none"/>
    <polygon points="256.0,194.0 264.0,194.0 260.0,200.0" fill="#333333" stroke="none"/>
    <text x="340.0" y="160.0" dy="4" font-family="sans-serif" font-size="12" fill="#000000">note</text>
    <path d="M 400.0 120.0 C 400.0 160.0, 540.0 160.0, 540.0 200.0" stroke="#333333" fill="none"/>
    <polygon points="536.0,194.0 544.0,194.0 540.0,200.0" fill="#333333" stroke="none"/>
    <path d="M 540.0 240.0 C 540.0 280.0, 400.0 280.0, 400.0 320.0" stroke="#333333" fill="none"/>
    <polygon points="396.0,314.0 404.0,314.0 400.0,320.0" fill="#333333" stroke="none"/>
    <path d="M 400.0 360.0 C 400.0 400.0, 400.0 400.0, 400.0 440.0" stroke="#333333" fill="none"/>
    <polygon points="396.0,434.0 404.0,434.0 400.0,440.0" fill="#333333" stroke="none"/>
    <path d="M 400.0 480.0 C 400.0 520.0, 400.0 520.0, 400.0 560.0" stroke="#333333" fill="none"/>
    <polygon points="396.0,554.0 404.0,554.0 400.0,560.0" fill="#333333" stroke="none"/>
  </g>
  <g font-family="sans-serif" font-size="14" text-anchor="middle">
    <circle cx="400.0" cy="100.0" r="15" fill="#333333" stroke="#333333" stroke-width="2"/>
    <rect x="200.0" y="200.0" width="120.0" height="40.0" rx="0" ry="0" fill="#f0f0f0" stroke="#333333" stroke-width="1.5"/>
    <text x="260.0" y="220.0" dy="5" fill="#000000">Thisismynote</text>
    <rect x="480.0" y="200.0" width="120.0" height="40.0" rx="10" ry="10" fill="#f0f0f0" stroke="#333333" stroke-width="1.5"/>
    <text x="540.0" y="220.0" dy="5" fill="#000000">Ready</text>
    <rect x="340.0" y="320.0" width="120.0" height="40.0" rx="10" ry="10" fill="#f0f0f0" stroke="#333333" stroke-width="1.5"/>
    <text x="400.0" y="340.0" dy="5" fill="#000000">HelloWorld</text>
    <circle cx="400.0" cy="460.0" r="15" fill="#f0f0f0" stroke="#333333" stroke-width="2"/>
    <text x="400.0" y="460.0" dy="5" fill="#000000">i</text>
    <rect x="340.0" y="560.0" width="120.0" height="40.0" rx="10" ry="10" fill="#f0f0f0" stroke="#333333" stroke-width="1.5"/>
    <text x="400.0" y="574.0" dy="5" fill="#000000">&lt;&lt;output&gt;&gt;</text>
    <text x="400.0" y="588.0" dy="5" fill="#000000">Hello-Sent</text>
  </g>
</svg>
