<svg xmlns="http://www.w3.org/2000/svg" xmlns:xlink="http://www.w3.org/1999/xlink" contentStyleType="text/css" data-diagram-type="ACTIVITY" height="265px" preserveAspectRatio="none" style="width:282px;height:265px;background:#FFFFFF;" version="1.1" viewBox="0 0 282 265" width="282px" zoomAndPan="magnify"><?plantuml 1.2026.3beta5?><defs/><g><ellipse cx="57.5264" cy="25" fill="#222222" rx="10" ry="10" style="stroke:#222222;stroke-width:1;"/><rect fill="#F1F1F1" height="33.9688" rx="12.5" ry="12.5" style="stroke:#181818;stroke-width:0.5;" width="62.5684" x="26.2422" y="108.9688"/><text fill="#000000" font-family="sans-serif" font-size="12" lengthAdjust="spacing" textLength="42.5684" x="36.2422" y="130.1074">Submit</text><rect fill="#F1F1F1" height="33.9688" rx="12.5" ry="12.5" style="stroke:#181818;stroke-width:0.5;" width="83.0527" x="16" y="55"/><text fill="#000000" font-family="sans-serif" font-size="12" lengthAdjust="spacing" textLength="63.0527" x="26" y="76.1387">Enter data</text><polygon fill="#F1F1F1" points="40.927,167.9531,74.1257,167.9531,86.1257,179.9531,74.1257,191.9531,40.927,191.9531,28.927,179.9531,40.927,167.9531" style="stroke:#181818;stroke-width:0.5;"/><text fill="#000000" font-family="sans-serif" font-size="11" lengthAdjust="spacing" textLength="19.2178" x="61.5264" y="202.1636">Yes</text><text fill="#000000" font-family="sans-serif" font-size="11" lengthAdjust="spacing" textLength="33.1987" x="40.927" y="183.7612">Valid?</text><text fill="#000000" font-family="sans-serif" font-size="11" lengthAdjust="spacing" textLength="14.9585" x="86.1257" y="177.3589">No</text><path d="M209.3672,108.4023 L209.3672,116.9688 L189.3672,120.9688 L209.3672,124.9688 L209.3672,133.5352 A0,0 0 0 0 209.3672,133.5352 L261.1406,133.5352 A0,0 0 0 0 261.1406,133.5352 L261.1406,118.4023 L251.1406,108.4023 L209.3672,108.4023 A0,0 0 0 0 209.3672,108.4023" fill="#FEFFDD" style="stroke:#181818;stroke-width:0.5;"/><path d="M251.1406,108.4023 L251.1406,118.4023 L261.1406,118.4023 L251.1406,108.4023" fill="#FEFFDD" style="stroke:#181818;stroke-width:0.5;"/><text fill="#000000" font-family="sans-serif" font-size="13" lengthAdjust="spacing" textLength="30.7734" x="215.3672" y="125.4692">Note</text><rect fill="#F1F1F1" height="33.9688" rx="12.5" ry="12.5" style="stroke:#181818;stroke-width:0.5;" width="70.3145" x="119.0527" y="103.9844"/><text fill="#000000" font-family="sans-serif" font-size="12" lengthAdjust="spacing" textLength="50.3145" x="129.0527" y="125.123">Warning</text><ellipse cx="57.5264" cy="234.6636" fill="none" rx="11" ry="11" style="stroke:#222222;stroke-width:1;"/><ellipse cx="57.5264" cy="234.6636" fill="#222222" rx="6" ry="6" style="stroke:#222222;stroke-width:1;"/><line style="stroke:#181818;stroke-width:1;" x1="57.5264" x2="57.5264" y1="88.9688" y2="108.9688"/><polygon fill="#181818" points="53.5264,98.9688,57.5264,108.9688,61.5264,98.9688,57.5264,102.9688" style="stroke:#181818;stroke-width:1;"/><line style="stroke:#181818;stroke-width:1;" x1="86.1257" x2="154.21" y1="179.9531" y2="179.9531"/><line style="stroke:#181818;stroke-width:1;" x1="154.21" x2="154.21" y1="137.9531" y2="179.9531"/><polygon fill="#181818" points="150.21,147.9531,154.21,137.9531,158.21,147.9531,154.21,143.9531" style="stroke:#181818;stroke-width:1;"/><line style="stroke:#181818;stroke-width:1;" x1="154.21" x2="154.21" y1="71.9844" y2="103.9844"/><line style="stroke:#181818;stroke-width:1;" x1="154.21" x2="99.0527" y1="71.9844" y2="71.9844"/><polygon fill="#181818" points="109.0527,67.9844,99.0527,71.9844,109.0527,75.9844,105.0527,71.9844" style="stroke:#181818;stroke-width:1;"/><line style="stroke:#181818;stroke-width:1;" x1="57.5264" x2="57.5264" y1="142.9375" y2="167.9531"/><polygon fill="#181818" points="53.5264,157.9531,57.5264,167.9531,61.5264,157.9531,57.5264,161.9531" style="stroke:#181818;stroke-width:1;"/><line style="stroke:#181818;stroke-width:1;" x1="57.5264" x2="57.5264" y1="35" y2="55"/><polygon fill="#181818" points="53.5264,45,57.5264,55,61.5264,45,57.5264,49" style="stroke:#181818;stroke-width:1;"/><line style="stroke:#181818;stroke-width:1;" x1="57.5264" x2="57.5264" y1="191.9531" y2="223.6636"/><polygon fill="#181818" points="53.5264,213.6636,57.5264,223.6636,61.5264,213.6636,57.5264,217.6636" style="stroke:#181818;stroke-width:1;"/><?plantuml-src DSmn3eCm34RXtQVun-GAoS3KbQLIguwciS0g9CWnulgmT7l3fzUTpSba5tQaHtKn57REb9x7jAbdclZxEzaAqfkjQfqprUO2qtdnXF7k_-1ST1M45wzQXWZj26EBk3d2Htgaxcs_0000?></g></svg>