<svg xmlns="http://www.w3.org/2000/svg" xmlns:xlink="http://www.w3.org/1999/xlink" contentStyleType="text/css" data-diagram-type="ACTIVITY" height="278px" preserveAspectRatio="none" style="width:305px;height:278px;background:#FFFFFF;" version="1.1" viewBox="0 0 305 278" width="305px" zoomAndPan="magnify"><?plantuml 1.2026.3beta5?><defs/><g><ellipse cx="215.0942" cy="25" fill="#222222" rx="10" ry="10" style="stroke:#222222;stroke-width:1;"/><rect fill="none" height="213.3516" style="stroke:#000000;stroke-width:1.5;" width="268.1968" x="16" y="45"/><path d="M167.8799,45 L167.8799,54.2969 L157.8799,64.2969 L16,64.2969" fill="none" style="stroke:#000000;stroke-width:1.5;"/><text fill="#000000" font-family="sans-serif" font-size="14" font-weight="700" lengthAdjust="spacing" textLength="61.0039" x="19" y="58.9951">process</text><text fill="#000000" font-family="sans-serif" font-size="14" lengthAdjust="spacing" textLength="76.4258" x="84.4541" y="58.9951">HelloWorld</text><path d="M36,135.2656 L36,185.5313 L155.9917,185.5313 L155.9917,145.2656 L145.9917,135.2656 L36,135.2656" fill="#FEFFDD" style="stroke:#181818;stroke-width:0.5;"/><path d="M145.9917,135.2656 L145.9917,145.2656 L155.9917,145.2656 L145.9917,135.2656" fill="#FEFFDD" style="stroke:#181818;stroke-width:0.5;"/><text fill="#000000" font-family="sans-serif" font-size="13" lengthAdjust="spacing" textLength="98.9917" x="42" y="152.3325">This is my note</text><line style="stroke:#181818;stroke-width:1;" x1="36" x2="155.9917" y1="160.3984" y2="160.3984"/><text fill="#000000" font-family="sans-serif" font-size="13" font-style="italic" lengthAdjust="spacing" textLength="71.0811" x="42" y="177.4653">Creole test</text><rect fill="#F1F1F1" height="33.9688" rx="12.5" ry="12.5" style="stroke:#181818;stroke-width:0.5;" width="57.793" x="186.1978" y="81.2969"/><text fill="#000000" font-family="sans-serif" font-size="12" lengthAdjust="spacing" textLength="37.793" x="196.1978" y="102.4355">Ready</text><polygon fill="#F1F1F1" points="165.9917,143.4141,264.1968,143.4141,274.1968,160.3984,264.1968,177.3828,165.9917,177.3828" style="stroke:#181818;stroke-width:0.5;"/><text fill="#000000" font-family="sans-serif" font-size="12" lengthAdjust="spacing" textLength="78.2051" x="175.9917" y="164.5527">HelloWorld(i)</text><rect fill="#F1F1F1" height="33.9688" rx="12.5" ry="12.5" style="stroke:#181818;stroke-width:0.5;" width="82.0566" x="174.0659" y="212.3828"/><text fill="#000000" font-family="sans-serif" font-size="12" lengthAdjust="spacing" textLength="62.0566" x="184.0659" y="233.5215">Hello-Sent</text><line style="stroke:#181818;stroke-width:1;" x1="215.0942" x2="215.0942" y1="115.2656" y2="143.4141"/><polygon fill="#181818" points="211.0942,133.4141,215.0942,143.4141,219.0942,133.4141,215.0942,137.4141" style="stroke:#181818;stroke-width:1;"/><line style="stroke:#181818;stroke-width:1;" x1="215.0942" x2="215.0942" y1="177.3828" y2="212.3828"/><polygon fill="#181818" points="211.0942,202.3828,215.0942,212.3828,219.0942,202.3828,215.0942,206.3828" style="stroke:#181818;stroke-width:1;"/><line style="stroke:#181818;stroke-width:1;" x1="215.0942" x2="215.0942" y1="35" y2="81.2969"/><polygon fill="#181818" points="211.0942,71.2969,215.0942,81.2969,219.0942,71.2969,215.0942,75.2969" style="stroke:#181818;stroke-width:1;"/><?plantuml-src Aov9B2hXAW0IcIMP-NaAIbfQ1KNvoQd5nLfQ2XwfEJdvuVb5EIbA2jLS2a2Gbr-I2cQ0G4X6Ph424ELMeehh0W6Sew_lN9IQdvEgK99QNAAl3nPFpKj1wB0AIarCgRI6i14sQcHgMYlOsEINbXIKbjZP8Kdh1gVcbLXprG80?></g></svg>