<svg xmlns="http://www.w3.org/2000/svg" xmlns:xlink="http://www.w3.org/1999/xlink" contentStyleType="text/css" data-diagram-type="ACTIVITY" height="242px" preserveAspectRatio="none" style="width:393px;height:242px;background:#FFFFFF;" version="1.1" viewBox="0 0 393 242" width="393px" zoomAndPan="magnify"><?plantuml 1.2026.3beta5?><defs/><g><ellipse cx="231.4399" cy="25" fill="#222222" rx="10" ry="10" style="stroke:#222222;stroke-width:1;"/><polygon fill="#F1F1F1" points="187.5823,55,275.2976,55,287.2976,67,275.2976,79,187.5823,79,175.5823,67,187.5823,55" style="stroke:#181818;stroke-width:0.5;"/><text fill="#000000" font-family="sans-serif" font-size="11" lengthAdjust="spacing" textLength="87.7153" x="187.5823" y="70.8081">multiprocessor?</text><text fill="#000000" font-family="sans-serif" font-size="11" lengthAdjust="spacing" textLength="19.0083" x="156.574" y="64.4058">yes</text><text fill="#000000" font-family="sans-serif" font-size="11" lengthAdjust="spacing" textLength="55.4297" x="287.2976" y="64.4058">monoproc</text><rect fill="#555555" height="6" rx="2.5" ry="2.5" style="stroke:#555555;stroke-width:1;" width="243.0742" x="16" y="89"/><rect fill="#F1F1F1" height="33.9688" rx="12.5" ry="12.5" style="stroke:#181818;stroke-width:0.5;" width="94.5371" x="28" y="115"/><text fill="#000000" font-family="sans-serif" font-size="12" lengthAdjust="spacing" textLength="74.5371" x="38" y="136.1387">Treatment 1</text><rect fill="#F1F1F1" height="33.9688" rx="12.5" ry="12.5" style="stroke:#181818;stroke-width:0.5;" width="94.5371" x="150.5371" y="115"/><text fill="#000000" font-family="sans-serif" font-size="12" lengthAdjust="spacing" textLength="74.5371" x="160.5371" y="136.1387">Treatment 2</text><rect fill="#555555" height="6" rx="2.5" ry="2.5" style="stroke:#555555;stroke-width:1;" width="243.0742" x="16" y="168.9688"/><rect fill="#F1F1F1" height="33.9688" rx="12.5" ry="12.5" style="stroke:#181818;stroke-width:0.5;" width="94.5371" x="279.0742" y="89"/><text fill="#000000" font-family="sans-serif" font-size="12" lengthAdjust="spacing" textLength="74.5371" x="289.0742" y="110.1387">Treatment 1</text><rect fill="#F1F1F1" height="33.9688" rx="12.5" ry="12.5" style="stroke:#181818;stroke-width:0.5;" width="94.5371" x="279.0742" y="157.9688"/><text fill="#000000" font-family="sans-serif" font-size="12" lengthAdjust="spacing" textLength="74.5371" x="289.0742" y="179.1074">Treatment 2</text><polygon fill="#F1F1F1" points="231.4399,197.9375,243.4399,209.9375,231.4399,221.9375,219.4399,209.9375,231.4399,197.9375" style="stroke:#181818;stroke-width:0.5;"/><line style="stroke:#181818;stroke-width:1;" x1="75.2686" x2="75.2686" y1="95" y2="115"/><polygon fill="#181818" points="71.2686,105,75.2686,115,79.2686,105,75.2686,109" style="stroke:#181818;stroke-width:1;"/><line style="stroke:#181818;stroke-width:1;" x1="197.8057" x2="197.8057" y1="95" y2="115"/><polygon fill="#181818" points="193.8057,105,197.8057,115,201.8057,105,197.8057,109" style="stroke:#181818;stroke-width:1;"/><line style="stroke:#181818;stroke-width:1;" x1="75.2686" x2="75.2686" y1="148.9688" y2="168.9688"/><polygon fill="#181818" points="71.2686,158.9688,75.2686,168.9688,79.2686,158.9688,75.2686,162.9688" style="stroke:#181818;stroke-width:1;"/><line style="stroke:#181818;stroke-width:1;" x1="197.8057" x2="197.8057" y1="148.9688" y2="168.9688"/><polygon fill="#181818" points="193.8057,158.9688,197.8057,168.9688,201.8057,158.9688,197.8057,162.9688" style="stroke:#181818;stroke-width:1;"/><line style="stroke:#181818;stroke-width:1;" x1="326.3428" x2="326.3428" y1="122.9688" y2="157.9688"/><polygon fill="#181818" points="322.3428,147.9688,326.3428,157.9688,330.3428,147.9688,326.3428,151.9688" style="stroke:#181818;stroke-width:1;"/><line style="stroke:#181818;stroke-width:1;" x1="175.5823" x2="136.5371" y1="67" y2="67"/><line style="stroke:#181818;stroke-width:1;" x1="136.5371" x2="136.5371" y1="67" y2="89"/><polygon fill="#181818" points="132.5371,79,136.5371,89,140.5371,79,136.5371,83" style="stroke:#181818;stroke-width:1;"/><line style="stroke:#181818;stroke-width:1;" x1="287.2976" x2="326.3428" y1="67" y2="67"/><line style="stroke:#181818;stroke-width:1;" x1="326.3428" x2="326.3428" y1="67" y2="89"/><polygon fill="#181818" points="322.3428,79,326.3428,89,330.3428,79,326.3428,83" style="stroke:#181818;stroke-width:1;"/><line style="stroke:#181818;stroke-width:1;" x1="136.5371" x2="136.5371" y1="174.9688" y2="209.9375"/><line style="stroke:#181818;stroke-width:1;" x1="136.5371" x2="219.4399" y1="209.9375" y2="209.9375"/><polygon fill="#181818" points="209.4399,205.9375,219.4399,209.9375,209.4399,213.9375,213.4399,209.9375" style="stroke:#181818;stroke-width:1;"/><line style="stroke:#181818;stroke-width:1;" x1="326.3428" x2="326.3428" y1="191.9375" y2="209.9375"/><line style="stroke:#181818;stroke-width:1;" x1="326.3428" x2="243.4399" y1="209.9375" y2="209.9375"/><polygon fill="#181818" points="253.4399,205.9375,243.4399,209.9375,253.4399,213.9375,249.4399,209.9375" style="stroke:#181818;stroke-width:1;"/><line style="stroke:#181818;stroke-width:1;" x1="231.4399" x2="231.4399" y1="35" y2="55"/><polygon fill="#181818" points="227.4399,45,231.4399,55,235.4399,45,231.4399,49" style="stroke:#181818;stroke-width:1;"/><?plantuml-src NOqn4eCm30Hxl-9AAA4C1P_W0nwG4myWCP8eyllO0qsehjZPFVEe7a9EQFPpytoep6GcEhRm3p6QBraRW2IwbW5UarBqdTZH3JT0VCVCJznNJBnSBcr6vKHOwaTDFal_QX5p-W40?></g></svg>