<svg xmlns="http://www.w3.org/2000/svg" width="1320.0" height="520.0">
  <g stroke="#333333" fill="none" stroke-width="1.5">
    <path d="M 260.0 120.0 C 260.0 160.0, 400.0 160.0, 400.0 200.0" stroke="#333333" fill="none"/>
    <polygon points="396.0,194.0 404.0,194.0 400.0,200.0" fill="#333333" stroke="none"/>
    <path d="M 400.0 240.0 C 400.0 280.0, 100.0 280.0, 100.0 320.0" stroke="#333333" fill="none"/>
    <polygon points="96.0,314.0 104.0,314.0 100.0,320.0" fill="#333333" stroke="none"/>
    <path d="M 400.0 240.0 C 400.0 280.0, 380.0 280.0, 380.0 320.0" stroke="#333333" fill="none"/>
    <polygon points="376.0,314.0 384.0,314.0 380.0,320.0" fill="#333333" stroke="none"/>
    <path d="M 380.0 360.0 C 380.0 400.0, 400.0 400.0, 400.0 440.0" stroke="#333333" fill="none"/>
    <polygon points="396.0,434.0 404.0,434.0 400.0,440.0" fill="#333333" stroke="none"/>
    <path d="M 400.0 240.0 C 400.0 280.0, 660.0 280.0, 660.0 320.0" stroke="#333333" fill="none"/>
    <polygon points="656.0,314.0 664.0,314.0 660.0,320.0" fill="#333333" stroke="none"/>
    <path d="M 400.0 240.0 C 400.0 280.0, 940.0 280.0, 940.0 320.0" stroke="#333333" fill="none"/>
    <polygon points="936.0,314.0 944.0,314.0 940.0,320.0" fill="#333333" stroke="none"/>
    <path d="M 400.0 240.0 C 400.0 280.0, 1220.0 280.0, 1220.0 320.0" stroke="#333333" fill="none"/>
    <polygon points="1216.0,314.0 1224.0,314.0 1220.0,320.0" fill="#333333" stroke="none"/>
  </g>
  <g font-family="sans-serif" font-size="14" text-anchor="middle">
    <circle cx="260.0" cy="100.0" r="15" fill="#333333" stroke="#333333" stroke-width="2"/>
    <rect x="340.0" y="217.0" width="120.0" height="6" fill="#333333" />
    <rect x="40.0" y="320.0" width="120.0" height="40.0" rx="10" ry="10" fill="#f0f0f0" stroke="#333333" stroke-width="1.5"/>
    <text x="100.0" y="340.0" dy="5" fill="#000000">A</text>
    <rect x="320.0" y="320.0" width="120.0" height="40.0" rx="10" ry="10" fill="#f0f0f0" stroke="#333333" stroke-width="1.5"/>
    <text x="380.0" y="340.0" dy="5" fill="#000000">b</text>
    <rect x="340.0" y="440.0" width="120.0" height="40.0" rx="10" ry="10" fill="#f0f0f0" stroke="#333333" stroke-width="1.5"/>
    <text x="400.0" y="460.0" dy="5" fill="#000000">c</text>
    <circle cx="660.0" cy="340.0" r="15" fill="#f0f0f0" stroke="#333333" stroke-width="2"/>
    <text x="660.0" y="340.0" dy="5" fill="#000000">Z</text>
    <circle cx="940.0" cy="340.0" r="15" fill="none" stroke="#333333" stroke-width="2"/>
    <circle cx="940.0" cy="340.0" r="10" fill="#333333" stroke="#333333" stroke-width="2"/>
    <circle cx="1220.0" cy="340.0" r="15" fill="none" stroke="#333333" stroke-width="2"/>
    <circle cx="1220.0" cy="340.0" r="10" fill="#333333" stroke="#333333" stroke-width="2"/>
    <rect x="480.0" y="97.0" width="120.0" height="6" fill="#333333" />
  </g>
</svg>
