<svg xmlns="http://www.w3.org/2000/svg" xmlns:xlink="http://www.w3.org/1999/xlink" contentStyleType="text/css" data-diagram-type="ACTIVITY" height="197px" preserveAspectRatio="none" style="width:204px;height:197px;background:#FFFFFF;" version="1.1" viewBox="0 0 204 197" width="204px" zoomAndPan="magnify"><?plantuml 1.2026.3beta5?><defs/><g><ellipse cx="101.8262" cy="25" fill="#222222" rx="10" ry="10" style="stroke:#222222;stroke-width:1;"/><line style="stroke:#181818;stroke-width:1.5;" x1="30.1045" x2="169.7393" y1="55" y2="55"/><rect fill="#F1F1F1" height="33.9688" rx="12.5" ry="12.5" style="stroke:#181818;stroke-width:0.5;" width="28.209" x="16" y="109.4844"/><text fill="#000000" font-family="sans-serif" font-size="12" lengthAdjust="spacing" textLength="8.209" x="26" y="130.623">A</text><rect fill="#F1F1F1" height="33.9688" rx="12.5" ry="12.5" style="stroke:#181818;stroke-width:0.5;" width="27.6172" x="54.209" y="75"/><text fill="#000000" font-family="sans-serif" font-size="12" lengthAdjust="spacing" textLength="7.6172" x="64.209" y="96.1387">b</text><rect fill="#F1F1F1" height="33.9688" rx="12.5" ry="12.5" style="stroke:#181818;stroke-width:0.5;" width="26.5977" x="54.7188" y="143.9688"/><text fill="#000000" font-family="sans-serif" font-size="12" lengthAdjust="spacing" textLength="6.5977" x="64.7188" y="165.1074">c</text><ellipse cx="108.7393" cy="126.4688" fill="#F1F1F1" rx="10" ry="10" style="stroke:#181818;stroke-width:0.5;"/><path d="M104.9111,122.2188 L111.7861,122.2188 L111.7861,123.125 L106.2549,129.9688 L111.9268,129.9688 L111.9268,130.9688 L104.7861,130.9688 L104.7861,130.0625 L110.3174,123.2188 L104.9111,123.2188 L104.9111,122.2188 Z " fill="#000000"/><ellipse cx="138.7393" cy="126.4688" fill="none" rx="10" ry="10" style="stroke:#222222;stroke-width:1.5;"/><line style="stroke:#222222;stroke-width:2.5;" x1="132.5521" x2="144.9264" y1="120.2816" y2="132.6559"/><line style="stroke:#222222;stroke-width:2.5;" x1="144.9264" x2="132.5521" y1="120.2816" y2="132.6559"/><ellipse cx="169.7393" cy="126.4688" fill="none" rx="11" ry="11" style="stroke:#222222;stroke-width:1;"/><ellipse cx="169.7393" cy="126.4688" fill="#222222" rx="6" ry="6" style="stroke:#222222;stroke-width:1;"/><line style="stroke:#181818;stroke-width:1;" x1="68.0176" x2="68.0176" y1="108.9688" y2="143.9688"/><polygon fill="#181818" points="64.0176,133.9688,68.0176,143.9688,72.0176,133.9688,68.0176,137.9688" style="stroke:#181818;stroke-width:1;"/><line style="stroke:#181818;stroke-width:1;" x1="30.1045" x2="30.1045" y1="56.5" y2="109.4844"/><polygon fill="#181818" points="26.1045,99.4844,30.1045,109.4844,34.1045,99.4844,30.1045,103.4844" style="stroke:#181818;stroke-width:1;"/><line style="stroke:#181818;stroke-width:1;" x1="68.0176" x2="68.0176" y1="56.5" y2="75"/><polygon fill="#181818" points="64.0176,65,68.0176,75,72.0176,65,68.0176,69" style="stroke:#181818;stroke-width:1;"/><line style="stroke:#181818;stroke-width:1;" x1="108.7393" x2="108.7393" y1="56.5" y2="116.4688"/><polygon fill="#181818" points="104.7393,106.4688,108.7393,116.4688,112.7393,106.4688,108.7393,110.4688" style="stroke:#181818;stroke-width:1;"/><line style="stroke:#181818;stroke-width:1;" x1="138.7393" x2="138.7393" y1="56.5" y2="116.4688"/><polygon fill="#181818" points="134.7393,106.4688,138.7393,116.4688,142.7393,106.4688,138.7393,110.4688" style="stroke:#181818;stroke-width:1;"/><line style="stroke:#181818;stroke-width:1;" x1="169.7393" x2="169.7393" y1="56.5" y2="115.4688"/><polygon fill="#181818" points="165.7393,105.4688,169.7393,115.4688,173.7393,105.4688,169.7393,109.4688" style="stroke:#181818;stroke-width:1;"/><line style="stroke:#181818;stroke-width:1;" x1="101.8262" x2="101.8262" y1="35" y2="55"/><polygon fill="#181818" points="97.8262,45,101.8262,55,105.8262,45,101.8262,49" style="stroke:#181818;stroke-width:1;"/><?plantuml-src Aov9B2hXAYx8oIpXKb1Gi7Aq1b7PcJav4465nFJ4p3omL19OoYePJAMabYGcPw2hqOZIn2sPcfU2BbHSab_01HHN08i30000?></g></svg>