<svg xmlns="http://www.w3.org/2000/svg" xmlns:xlink="http://www.w3.org/1999/xlink" contentStyleType="text/css" data-diagram-type="ACTIVITY" height="128px" preserveAspectRatio="none" style="width:141px;height:128px;background:#FFFFFF;" version="1.1" viewBox="0 0 141 128" width="141px" zoomAndPan="magnify"><?plantuml 1.2026.3beta5?><defs/><g><ellipse cx="68.4102" cy="25" fill="#222222" rx="10" ry="10" style="stroke:#222222;stroke-width:1;"/><line style="stroke:#181818;stroke-width:1.5;" x1="30.1045" x2="106.6309" y1="55" y2="55"/><rect fill="#F1F1F1" height="33.9688" rx="12.5" ry="12.5" style="stroke:#181818;stroke-width:0.5;" width="28.209" x="16" y="75"/><text fill="#000000" font-family="sans-serif" font-size="12" lengthAdjust="spacing" textLength="8.209" x="26" y="96.1387">A</text><rect fill="#F1F1F1" height="33.9688" rx="12.5" ry="12.5" style="stroke:#181818;stroke-width:0.5;" width="28.2324" x="54.209" y="75"/><text fill="#000000" font-family="sans-serif" font-size="12" lengthAdjust="spacing" textLength="8.2324" x="64.209" y="96.1387">B</text><rect fill="#F1F1F1" height="33.9688" rx="12.5" ry="12.5" style="stroke:#181818;stroke-width:0.5;" width="28.3789" x="92.4414" y="75"/><text fill="#000000" font-family="sans-serif" font-size="12" lengthAdjust="spacing" textLength="8.3789" x="102.4414" y="96.1387">C</text><line style="stroke:#181818;stroke-width:1;" x1="30.1045" x2="30.1045" y1="56.5" y2="75"/><polygon fill="#181818" points="26.1045,65,30.1045,75,34.1045,65,30.1045,69" style="stroke:#181818;stroke-width:1;"/><line style="stroke:#181818;stroke-width:1;" x1="68.3252" x2="68.3252" y1="56.5" y2="75"/><polygon fill="#181818" points="64.3252,65,68.3252,75,72.3252,65,68.3252,69" style="stroke:#181818;stroke-width:1;"/><line style="stroke:#181818;stroke-width:1;" x1="106.6309" x2="106.6309" y1="56.5" y2="75"/><polygon fill="#181818" points="102.6309,65,106.6309,75,110.6309,65,106.6309,69" style="stroke:#181818;stroke-width:1;"/><line style="stroke:#181818;stroke-width:1;" x1="68.4102" x2="68.4102" y1="35" y2="55"/><polygon fill="#181818" points="64.4102,45,68.4102,55,72.4102,45,68.4102,49" style="stroke:#181818;stroke-width:1;"/><?plantuml-src Aov9B2hXAYx8oIpXKb1Gi7Aq1b7PcJav4465nFJ4p3omb1DOAYMr934v0qFI6Q4lDIz50ImD0000?></g></svg>