<svg xmlns="http://www.w3.org/2000/svg" xmlns:xlink="http://www.w3.org/1999/xlink" contentStyleType="text/css" data-diagram-type="ACTIVITY" height="241px" preserveAspectRatio="none" style="width:260px;height:241px;background:#FFFFFF;" version="1.1" viewBox="0 0 260 241" width="260px" zoomAndPan="magnify"><?plantuml 1.2026.3beta5?><defs/><g><ellipse cx="128.3906" cy="25" fill="#222222" rx="10" ry="10" style="stroke:#222222;stroke-width:1;"/><rect fill="none" height="136.2344" style="stroke:#000000;stroke-width:1.5;" width="224.7813" x="16" y="45"/><path d="M132.1211,45 L132.1211,54.2969 L122.1211,64.2969 L16,64.2969" fill="none" style="stroke:#000000;stroke-width:1.5;"/><a href="http://plantuml.com" target="_top" title="http://plantuml.com" xlink:actuate="onRequest" xlink:href="http://plantuml.com" xlink:show="new" xlink:title="http://plantuml.com" xlink:type="simple"><text fill="#0000FF" font-family="sans-serif" font-size="14" lengthAdjust="spacing" text-decoration="underline" textLength="106.1211" x="19" y="58.9951">partition_name</text></a><rect fill="#F1F1F1" height="33.9688" rx="12.5" ry="12.5" style="stroke:#181818;stroke-width:0.5;" width="204.7813" x="26" y="81.2969"/><text fill="#000000" font-family="sans-serif" font-size="12" lengthAdjust="spacing" textLength="75.2344" x="36" y="102.4355">read doc. on</text><a href="http://plantuml.com" target="_top" title="http://plantuml.com" xlink:actuate="onRequest" xlink:href="http://plantuml.com" xlink:show="new" xlink:title="http://plantuml.com" xlink:type="simple"><text fill="#0000FF" font-family="sans-serif" font-size="12" lengthAdjust="spacing" text-decoration="underline" textLength="105.7324" x="115.0488" y="102.4355">plantuml_website</text></a><rect fill="#F1F1F1" height="33.9688" rx="12.5" ry="12.5" style="stroke:#181818;stroke-width:0.5;" width="96.7578" x="80.0117" y="135.2656"/><text fill="#000000" font-family="sans-serif" font-size="12" lengthAdjust="spacing" textLength="76.7578" x="90.0117" y="156.4043">test diagram</text><ellipse cx="128.3906" cy="211.2344" fill="none" rx="10" ry="10" style="stroke:#222222;stroke-width:1.5;"/><line style="stroke:#222222;stroke-width:2.5;" x1="122.2034" x2="134.5778" y1="205.0472" y2="217.4216"/><line style="stroke:#222222;stroke-width:2.5;" x1="134.5778" x2="122.2034" y1="205.0472" y2="217.4216"/><line style="stroke:#181818;stroke-width:1;" x1="128.3906" x2="128.3906" y1="115.2656" y2="135.2656"/><polygon fill="#181818" points="124.3906,125.2656,128.3906,135.2656,132.3906,125.2656,128.3906,129.2656" style="stroke:#181818;stroke-width:1;"/><line style="stroke:#181818;stroke-width:1;" x1="128.3906" x2="128.3906" y1="35" y2="81.2969"/><polygon fill="#181818" points="124.3906,71.2969,128.3906,81.2969,132.3906,71.2969,128.3906,75.2969" style="stroke:#181818;stroke-width:1;"/><line style="stroke:#181818;stroke-width:1;" x1="128.3906" x2="128.3906" y1="169.2344" y2="201.2344"/><polygon fill="#181818" points="124.3906,191.2344,128.3906,201.2344,132.3906,191.2344,128.3906,195.2344" style="stroke:#181818;stroke-width:1;"/><?plantuml-src TSix2e0m40JGFgTOF83fzIX1P3MB1io7PCH2lBi1nSuf1WRc5N26IhKSN0pK6BC2gTCwRHom-wsTewVlC0RsCWmDdOfgkYnioSQvfOf_x3l6GwRYK7N_M4W1MSTBPj-hIqcmDm00?></g></svg>