<svg xmlns="http://www.w3.org/2000/svg" xmlns:xlink="http://www.w3.org/1999/xlink" contentStyleType="text/css" data-diagram-type="ACTIVITY" height="339px" preserveAspectRatio="none" style="width:315px;height:339px;background:#FFFFFF;" version="1.1" viewBox="0 0 315 339" width="315px" zoomAndPan="magnify"><?plantuml 1.2026.3beta5?><defs/><g><ellipse cx="85.7422" cy="25" fill="#222222" rx="10" ry="10" style="stroke:#222222;stroke-width:1;"/><rect fill="#F1F1F1" height="33.9688" rx="12.5" ry="12.5" style="stroke:#181818;stroke-width:0.5;" width="78.1309" x="46.6768" y="108.9688"/><text fill="#000000" font-family="sans-serif" font-size="12" lengthAdjust="spacing" textLength="58.1309" x="56.6768" y="130.1074">read data</text><rect fill="#F1F1F1" height="33.9688" rx="12.5" ry="12.5" style="stroke:#181818;stroke-width:0.5;" width="134.3281" x="18.5781" y="177.9375"/><text fill="#000000" font-family="sans-serif" font-size="12" lengthAdjust="spacing" textLength="114.3281" x="28.5781" y="199.0762">generate diagrams</text><rect fill="#F1F1F1" height="33.9688" rx="12.5" ry="12.5" style="stroke:#181818;stroke-width:0.5;" width="139.4844" x="16" y="55"/><text fill="#000000" font-family="sans-serif" font-size="12" lengthAdjust="spacing" textLength="119.4844" x="26" y="76.1387">foo as starting label</text><polygon fill="#F1F1F1" points="54.3186,231.9063,117.1658,231.9063,129.1658,243.9063,117.1658,255.9063,54.3186,255.9063,42.3186,243.9063,54.3186,231.9063" style="stroke:#181818;stroke-width:0.5;"/><text fill="#000000" font-family="sans-serif" font-size="11" lengthAdjust="spacing" textLength="62.8472" x="54.3186" y="247.7144">more data?</text><text fill="#000000" font-family="sans-serif" font-size="11" lengthAdjust="spacing" textLength="19.0083" x="129.1658" y="241.312">yes</text><rect fill="#F1F1F1" height="33.9688" rx="12.5" ry="12.5" style="stroke:#181818;stroke-width:0.5;" width="119.9727" x="175.4844" y="138.4688"/><text fill="#000000" font-family="sans-serif" font-size="12" lengthAdjust="spacing" textLength="99.9727" x="185.4844" y="159.6074">This is backward</text><ellipse cx="85.7422" cy="308.3052" fill="none" rx="11" ry="11" style="stroke:#222222;stroke-width:1;"/><ellipse cx="85.7422" cy="308.3052" fill="#222222" rx="6" ry="6" style="stroke:#222222;stroke-width:1;"/><line style="stroke:#181818;stroke-width:1;" x1="85.7422" x2="85.7422" y1="142.9375" y2="177.9375"/><polygon fill="#181818" points="81.7422,167.9375,85.7422,177.9375,89.7422,167.9375,85.7422,171.9375" style="stroke:#181818;stroke-width:1;"/><line style="stroke:#181818;stroke-width:1;" x1="85.7422" x2="85.7422" y1="88.9688" y2="108.9688"/><polygon fill="#181818" points="81.7422,98.9688,85.7422,108.9688,89.7422,98.9688,85.7422,102.9688" style="stroke:#181818;stroke-width:1;"/><line style="stroke:#181818;stroke-width:1;" x1="129.1658" x2="235.4707" y1="243.9063" y2="243.9063"/><line style="stroke:#181818;stroke-width:1;" x1="235.4707" x2="235.4707" y1="172.4375" y2="243.9063"/><polygon fill="#181818" points="231.4707,182.4375,235.4707,172.4375,239.4707,182.4375,235.4707,178.4375" style="stroke:#181818;stroke-width:1;"/><line style="stroke:#181818;stroke-width:1;" x1="235.4707" x2="235.4707" y1="71.9844" y2="138.4688"/><line style="stroke:#181818;stroke-width:1;" x1="235.4707" x2="155.4844" y1="71.9844" y2="71.9844"/><polygon fill="#181818" points="165.4844,67.9844,155.4844,71.9844,165.4844,75.9844,161.4844,71.9844" style="stroke:#181818;stroke-width:1;"/><line style="stroke:#181818;stroke-width:1;" x1="85.7422" x2="85.7422" y1="211.9063" y2="231.9063"/><polygon fill="#181818" points="81.7422,221.9063,85.7422,231.9063,89.7422,221.9063,85.7422,225.9063" style="stroke:#181818;stroke-width:1;"/><line style="stroke:#181818;stroke-width:1;" x1="85.7422" x2="85.7422" y1="35" y2="55"/><polygon fill="#181818" points="81.7422,45,85.7422,55,89.7422,45,85.7422,49" style="stroke:#181818;stroke-width:1;"/><line style="stroke:#181818;stroke-width:1;" x1="85.7422" x2="85.7422" y1="255.9063" y2="297.3052"/><polygon fill="#181818" points="81.7422,287.3052,85.7422,297.3052,89.7422,287.3052,85.7422,291.3052" style="stroke:#181818;stroke-width:1;"/><text fill="#000000" font-family="sans-serif" font-size="11" lengthAdjust="spacing" textLength="13.7017" x="89.7422" y="277.2109">no</text><?plantuml-src DOn12iCm30JlUeMEoQ4ViA7zH3wmgLN7nB6390ZzVPj0O2yx36CETIALNU0SFhqpZEsafMMkcAL6OWugI9pWk5wM9WeNJWLPiLca6U_rWAOmBSNulnl4ktuifGeFMrUvIg_nr8Qls4YFP-kHoBplFm00?></g></svg>