<svg xmlns="http://www.w3.org/2000/svg" xmlns:xlink="http://www.w3.org/1999/xlink" contentStyleType="text/css" data-diagram-type="ACTIVITY" height="526px" preserveAspectRatio="none" style="width:129px;height:526px;background:#FFFFFF;" version="1.1" viewBox="0 0 129 526" width="129px" zoomAndPan="magnify"><?plantuml 1.2026.3beta5?><defs/><g><ellipse cx="58.4668" cy="25" fill="#222222" rx="10" ry="10" style="stroke:#222222;stroke-width:1;"/><rect fill="#F1F1F1" height="33.9688" rx="12.5" ry="12.5" style="stroke:#181818;stroke-width:0.5;" width="84.9336" x="16" y="55"/><text fill="#000000" font-family="sans-serif" font-size="12" lengthAdjust="spacing" textLength="64.9336" x="26" y="76.1387">SDL Shape</text><polygon fill="#F1F1F1" points="33.0332,108.9688,93.9004,108.9688,83.9004,125.9531,93.9004,142.9375,33.0332,142.9375" style="stroke:#181818;stroke-width:0.5;"/><text fill="#000000" font-family="sans-serif" font-size="12" lengthAdjust="spacing" textLength="30.8672" x="43.0332" y="130.1074">input</text><polygon fill="#F1F1F1" points="28.6768,162.9375,88.2568,162.9375,98.2568,179.9219,88.2568,196.9063,28.6768,196.9063" style="stroke:#181818;stroke-width:0.5;"/><text fill="#000000" font-family="sans-serif" font-size="12" lengthAdjust="spacing" textLength="39.5801" x="38.6768" y="184.0762">output</text><rect fill="#F1F1F1" height="33.9688" style="stroke:#181818;stroke-width:0.5;" width="81.4121" x="17.7607" y="216.9063"/><line style="stroke:#181818;stroke-width:0.5;" x1="22.7607" x2="22.7607" y1="216.9063" y2="250.875"/><line style="stroke:#181818;stroke-width:0.5;" x1="94.1729" x2="94.1729" y1="216.9063" y2="250.875"/><text fill="#000000" font-family="sans-serif" font-size="12" lengthAdjust="spacing" textLength="61.4121" x="27.7607" y="238.0449">procedure</text><polygon fill="#F1F1F1" points="35.6436,270.875,71.29,270.875,81.29,304.8438,45.6436,304.8438" style="stroke:#181818;stroke-width:0.5;"/><text fill="#000000" font-family="sans-serif" font-size="12" lengthAdjust="spacing" textLength="25.6465" x="45.6436" y="292.0137">load</text><polygon fill="#F1F1F1" points="44.4219,324.8438,82.5117,324.8438,72.5117,358.8125,34.4219,358.8125" style="stroke:#181818;stroke-width:0.5;"/><text fill="#000000" font-family="sans-serif" font-size="12" lengthAdjust="spacing" textLength="28.0898" x="44.4219" y="345.9824">save</text><path d="M20.4697,378.8125 L15.4697,395.7969 L20.4697,412.7813 M96.4639,378.8125 L101.4639,395.7969 L96.4639,412.7813" fill="#F1F1F1" style="stroke:#181818;stroke-width:0.5;"/><text fill="#000000" font-family="sans-serif" font-size="12" lengthAdjust="spacing" textLength="65.9941" x="25.4697" y="399.9512">continuous</text><rect fill="#F1F1F1" height="33.9688" style="stroke:#181818;stroke-width:0.5;" width="45.2598" x="35.8369" y="432.7813"/><text fill="#000000" font-family="sans-serif" font-size="12" lengthAdjust="spacing" textLength="25.2598" x="45.8369" y="453.9199">task</text><ellipse cx="58.4668" cy="496.75" fill="none" rx="10" ry="10" style="stroke:#222222;stroke-width:1.5;"/><line style="stroke:#222222;stroke-width:2.5;" x1="52.2796" x2="64.654" y1="490.5628" y2="502.9372"/><line style="stroke:#222222;stroke-width:2.5;" x1="64.654" x2="52.2796" y1="490.5628" y2="502.9372"/><line style="stroke:#181818;stroke-width:1;" x1="58.4668" x2="58.4668" y1="35" y2="55"/><polygon fill="#181818" points="54.4668,45,58.4668,55,62.4668,45,58.4668,49" style="stroke:#181818;stroke-width:1;"/><line style="stroke:#181818;stroke-width:1;" x1="58.4668" x2="58.4668" y1="88.9688" y2="108.9688"/><polygon fill="#181818" points="54.4668,98.9688,58.4668,108.9688,62.4668,98.9688,58.4668,102.9688" style="stroke:#181818;stroke-width:1;"/><line style="stroke:#181818;stroke-width:1;" x1="58.4668" x2="58.4668" y1="142.9375" y2="162.9375"/><polygon fill="#181818" points="54.4668,152.9375,58.4668,162.9375,62.4668,152.9375,58.4668,156.9375" style="stroke:#181818;stroke-width:1;"/><line style="stroke:#181818;stroke-width:1;" x1="58.4668" x2="58.4668" y1="196.9063" y2="216.9063"/><polygon fill="#181818" points="54.4668,206.9063,58.4668,216.9063,62.4668,206.9063,58.4668,210.9063" style="stroke:#181818;stroke-width:1;"/><line style="stroke:#181818;stroke-width:1;" x1="58.4668" x2="58.4668" y1="250.875" y2="270.875"/><polygon fill="#181818" points="54.4668,260.875,58.4668,270.875,62.4668,260.875,58.4668,264.875" style="stroke:#181818;stroke-width:1;"/><line style="stroke:#181818;stroke-width:1;" x1="58.4668" x2="58.4668" y1="304.8438" y2="324.8438"/><polygon fill="#181818" points="54.4668,314.8438,58.4668,324.8438,62.4668,314.8438,58.4668,318.8438" style="stroke:#181818;stroke-width:1;"/><line style="stroke:#181818;stroke-width:1;" x1="58.4668" x2="58.4668" y1="358.8125" y2="378.8125"/><polygon fill="#181818" points="54.4668,368.8125,58.4668,378.8125,62.4668,368.8125,58.4668,372.8125" style="stroke:#181818;stroke-width:1;"/><line style="stroke:#181818;stroke-width:1;" x1="58.4668" x2="58.4668" y1="412.7813" y2="432.7813"/><polygon fill="#181818" points="54.4668,422.7813,58.4668,432.7813,62.4668,422.7813,58.4668,426.7813" style="stroke:#181818;stroke-width:1;"/><line style="stroke:#181818;stroke-width:1;" x1="58.4668" x2="58.4668" y1="466.75" y2="486.75"/><polygon fill="#181818" points="54.4668,476.75,58.4668,486.75,62.4668,476.75,58.4668,480.75" style="stroke:#181818;stroke-width:1;"/><?plantuml-src HOf13e0W40Fll89tWF7aqHils0Y9HCCIsFNzMZLwQcVQBjJ4k33DDgnKapSkbwhYxJ3SPHoDOvLNFGskDbvIr9QWFy2oCqL89BZJSP-Gu8MBvAAi7VOdR49zWqLUd4ey0G00?></g></svg>