<svg xmlns="http://www.w3.org/2000/svg" xmlns:xlink="http://www.w3.org/1999/xlink" contentStyleType="text/css" data-diagram-type="ACTIVITY" height="516px" preserveAspectRatio="none" style="width:491px;height:516px;background:#FFFFFF;" version="1.1" viewBox="0 0 491 516" width="491px" zoomAndPan="magnify"><?plantuml 1.2026.3beta5?><defs/><g><rect fill="#F1F1F1" height="33.9688" rx="12.5" ry="12.5" style="stroke:#181818;stroke-width:0.5;" width="57.793" x="237.0576" y="16"/><text fill="#000000" font-family="sans-serif" font-size="12" lengthAdjust="spacing" textLength="37.793" x="247.0576" y="37.1387">Ready</text><rect fill="#F1F1F1" height="33.9688" style="stroke:#181818;stroke-width:0.5;" width="63.5" x="234.2041" y="69.9688"/><line style="stroke:#181818;stroke-width:0.5;" x1="239.2041" x2="239.2041" y1="69.9688" y2="103.9375"/><line style="stroke:#181818;stroke-width:0.5;" x1="292.7041" x2="292.7041" y1="69.9688" y2="103.9375"/><text fill="#000000" font-family="sans-serif" font-size="12" lengthAdjust="spacing" textLength="43.5" x="244.2041" y="91.1074">next(o)</text><rect fill="#F1F1F1" height="33.9688" rx="12.5" ry="12.5" style="stroke:#181818;stroke-width:0.5;" width="78.6934" x="226.6074" y="123.9375"/><text fill="#000000" font-family="sans-serif" font-size="12" lengthAdjust="spacing" textLength="58.6934" x="236.6074" y="145.0762">Receiving</text><line style="stroke:#181818;stroke-width:1.5;" x1="53.8027" x2="446.582" y1="177.9063" y2="177.9063"/><polygon fill="#F1F1F1" points="26.5,258.8594,91.1055,258.8594,81.1055,275.8438,91.1055,292.8281,26.5,292.8281" style="stroke:#181818;stroke-width:0.5;"/><text fill="#000000" font-family="sans-serif" font-size="12" lengthAdjust="spacing" textLength="34.6055" x="36.5" y="279.998">nak(i)</text><polygon fill="#F1F1F1" points="25,327.8281,82.6055,327.8281,92.6055,344.8125,82.6055,361.7969,25,361.7969" style="stroke:#181818;stroke-width:0.5;"/><text fill="#000000" font-family="sans-serif" font-size="12" lengthAdjust="spacing" textLength="37.6055" x="35" y="348.9668">ack(o)</text><polygon fill="#F1F1F1" points="132.9189,197.9063,196.5166,197.9063,186.5166,214.8906,196.5166,231.875,132.9189,231.875" style="stroke:#181818;stroke-width:0.5;"/><text fill="#000000" font-family="sans-serif" font-size="12" lengthAdjust="spacing" textLength="33.5977" x="142.9189" y="219.0449">ack(i)</text><rect fill="#F1F1F1" height="47.9375" style="stroke:#181818;stroke-width:0.5;" width="114.2246" x="102.6055" y="251.875"/><line style="stroke:#181818;stroke-width:0.5;" x1="107.6055" x2="107.6055" y1="251.875" y2="299.8125"/><line style="stroke:#181818;stroke-width:0.5;" x1="211.8301" x2="211.8301" y1="251.875" y2="299.8125"/><text fill="#000000" font-family="sans-serif" font-size="12" lengthAdjust="spacing" textLength="43.5" x="112.6055" y="273.0137">next(o)</text><text fill="#000000" font-family="sans-serif" font-size="12" lengthAdjust="spacing" textLength="94.2246" x="112.6055" y="286.9824">on several lines</text><rect fill="#F1F1F1" height="33.9688" style="stroke:#181818;stroke-width:0.5;" width="73.7129" x="122.8613" y="334.8125"/><text fill="#000000" font-family="sans-serif" font-size="12" lengthAdjust="spacing" textLength="53.7129" x="132.8613" y="355.9512">i := i + 1</text><polygon fill="#F1F1F1" points="130.915,388.7813,188.5205,388.7813,198.5205,405.7656,188.5205,422.75,130.915,422.75" style="stroke:#181818;stroke-width:0.5;"/><text fill="#000000" font-family="sans-serif" font-size="12" lengthAdjust="spacing" textLength="37.6055" x="140.915" y="409.9199">ack(o)</text><polygon fill="#F1F1F1" points="249.1631,258.8594,309.1104,258.8594,299.1104,275.8438,309.1104,292.8281,249.1631,292.8281" style="stroke:#181818;stroke-width:0.5;"/><text fill="#000000" font-family="sans-serif" font-size="12" lengthAdjust="spacing" textLength="29.9473" x="259.1631" y="279.998">err(i)</text><polygon fill="#F1F1F1" points="244.8301,327.8281,303.4434,327.8281,313.4434,344.8125,303.4434,361.7969,244.8301,361.7969" style="stroke:#181818;stroke-width:0.5;"/><text fill="#000000" font-family="sans-serif" font-size="12" lengthAdjust="spacing" textLength="38.6133" x="254.8301" y="348.9668">nak(o)</text><polygon fill="#F1F1F1" points="333.4434,293.3438,362.3516,293.3438,352.3516,327.3125,323.4434,327.3125" style="stroke:#181818;stroke-width:0.5;"/><text fill="#000000" font-family="sans-serif" font-size="12" lengthAdjust="spacing" textLength="18.9082" x="333.4434" y="314.4824">foo</text><polygon fill="#F1F1F1" points="372.3516,293.3438,402.2559,293.3438,412.2559,327.3125,382.3516,327.3125" style="stroke:#181818;stroke-width:0.5;"/><text fill="#000000" font-family="sans-serif" font-size="12" lengthAdjust="spacing" textLength="19.9043" x="382.3516" y="314.4824">bar</text><path d="M427.2559,264.8438 L422.2559,281.8281 L427.2559,298.8125 M465.9082,264.8438 L470.9082,281.8281 L465.9082,298.8125" fill="#F1F1F1" style="stroke:#181818;stroke-width:0.5;"/><text fill="#000000" font-family="sans-serif" font-size="12" lengthAdjust="spacing" textLength="28.6523" x="432.2559" y="285.9824">i &gt; 5</text><ellipse cx="446.582" cy="344.8125" fill="none" rx="11" ry="11" style="stroke:#222222;stroke-width:1;"/><ellipse cx="446.582" cy="344.8125" fill="#222222" rx="6" ry="6" style="stroke:#222222;stroke-width:1;"/><line style="stroke:#181818;stroke-width:1.5;" x1="53.8027" x2="392.3037" y1="442.75" y2="442.75"/><rect fill="#F1F1F1" height="33.9688" rx="12.5" ry="12.5" style="stroke:#181818;stroke-width:0.5;" width="52.3555" x="239.7764" y="462.75"/><text fill="#000000" font-family="sans-serif" font-size="12" lengthAdjust="spacing" textLength="32.3555" x="249.7764" y="483.8887">finish</text><line style="stroke:#181818;stroke-width:1;" x1="265.9541" x2="265.9541" y1="49.9688" y2="69.9688"/><polygon fill="#181818" points="261.9541,59.9688,265.9541,69.9688,269.9541,59.9688,265.9541,63.9688" style="stroke:#181818;stroke-width:1;"/><line style="stroke:#181818;stroke-width:1;" x1="265.9541" x2="265.9541" y1="103.9375" y2="123.9375"/><polygon fill="#181818" points="261.9541,113.9375,265.9541,123.9375,269.9541,113.9375,265.9541,117.9375" style="stroke:#181818;stroke-width:1;"/><line style="stroke:#181818;stroke-width:1;" x1="53.8027" x2="53.8027" y1="292.8281" y2="327.8281"/><polygon fill="#181818" points="49.8027,317.8281,53.8027,327.8281,57.8027,317.8281,53.8027,321.8281" style="stroke:#181818;stroke-width:1;"/><line style="stroke:#181818;stroke-width:1;" x1="159.7178" x2="159.7178" y1="231.875" y2="251.875"/><polygon fill="#181818" points="155.7178,241.875,159.7178,251.875,163.7178,241.875,159.7178,245.875" style="stroke:#181818;stroke-width:1;"/><line style="stroke:#181818;stroke-width:1;" x1="159.7178" x2="159.7178" y1="299.8125" y2="334.8125"/><polygon fill="#181818" points="155.7178,324.8125,159.7178,334.8125,163.7178,324.8125,159.7178,328.8125" style="stroke:#181818;stroke-width:1;"/><line style="stroke:#181818;stroke-width:1;" x1="159.7178" x2="159.7178" y1="368.7813" y2="388.7813"/><polygon fill="#181818" points="155.7178,378.7813,159.7178,388.7813,163.7178,378.7813,159.7178,382.7813" style="stroke:#181818;stroke-width:1;"/><line style="stroke:#181818;stroke-width:1;" x1="274.1367" x2="274.1367" y1="292.8281" y2="327.8281"/><polygon fill="#181818" points="270.1367,317.8281,274.1367,327.8281,278.1367,317.8281,274.1367,321.8281" style="stroke:#181818;stroke-width:1;"/><line style="stroke:#181818;stroke-width:1;" x1="446.582" x2="446.582" y1="298.8125" y2="333.8125"/><polygon fill="#181818" points="442.582,323.8125,446.582,333.8125,450.582,323.8125,446.582,327.8125" style="stroke:#181818;stroke-width:1;"/><line style="stroke:#181818;stroke-width:1;" x1="53.8027" x2="53.8027" y1="179.4063" y2="258.8594"/><polygon fill="#181818" points="49.8027,248.8594,53.8027,258.8594,57.8027,248.8594,53.8027,252.8594" style="stroke:#181818;stroke-width:1;"/><line style="stroke:#181818;stroke-width:1;" x1="159.7178" x2="159.7178" y1="179.4063" y2="197.9063"/><polygon fill="#181818" points="155.7178,187.9063,159.7178,197.9063,163.7178,187.9063,159.7178,191.9063" style="stroke:#181818;stroke-width:1;"/><line style="stroke:#181818;stroke-width:1;" x1="274.1367" x2="274.1367" y1="179.4063" y2="258.8594"/><polygon fill="#181818" points="270.1367,248.8594,274.1367,258.8594,278.1367,248.8594,274.1367,252.8594" style="stroke:#181818;stroke-width:1;"/><line style="stroke:#181818;stroke-width:1;" x1="342.8975" x2="342.8975" y1="179.4063" y2="293.3438"/><polygon fill="#181818" points="338.8975,283.3438,342.8975,293.3438,346.8975,283.3438,342.8975,287.3438" style="stroke:#181818;stroke-width:1;"/><line style="stroke:#181818;stroke-width:1;" x1="392.3037" x2="392.3037" y1="179.4063" y2="293.3438"/><polygon fill="#181818" points="388.3037,283.3438,392.3037,293.3438,396.3037,283.3438,392.3037,287.3438" style="stroke:#181818;stroke-width:1;"/><line style="stroke:#181818;stroke-width:1;" x1="446.582" x2="446.582" y1="179.4063" y2="264.8438"/><polygon fill="#181818" points="442.582,254.8438,446.582,264.8438,450.582,254.8438,446.582,258.8438" style="stroke:#181818;stroke-width:1;"/><line style="stroke:#181818;stroke-width:1;" x1="53.8027" x2="53.8027" y1="361.7969" y2="442.75"/><polygon fill="#181818" points="49.8027,432.75,53.8027,442.75,57.8027,432.75,53.8027,436.75" style="stroke:#181818;stroke-width:1;"/><line style="stroke:#181818;stroke-width:1;" x1="159.7178" x2="159.7178" y1="422.75" y2="442.75"/><polygon fill="#181818" points="155.7178,432.75,159.7178,442.75,163.7178,432.75,159.7178,436.75" style="stroke:#181818;stroke-width:1;"/><line style="stroke:#181818;stroke-width:1;" x1="274.1367" x2="274.1367" y1="361.7969" y2="442.75"/><polygon fill="#181818" points="270.1367,432.75,274.1367,442.75,278.1367,432.75,274.1367,436.75" style="stroke:#181818;stroke-width:1;"/><line style="stroke:#181818;stroke-width:1;" x1="342.8975" x2="342.8975" y1="327.3125" y2="442.75"/><polygon fill="#181818" points="338.8975,432.75,342.8975,442.75,346.8975,432.75,342.8975,436.75" style="stroke:#181818;stroke-width:1;"/><line style="stroke:#181818;stroke-width:1;" x1="392.3037" x2="392.3037" y1="327.3125" y2="442.75"/><polygon fill="#181818" points="388.3037,432.75,392.3037,442.75,396.3037,432.75,392.3037,436.75" style="stroke:#181818;stroke-width:1;"/><line style="stroke:#181818;stroke-width:1;" x1="265.9541" x2="265.9541" y1="157.9063" y2="177.9063"/><polygon fill="#181818" points="261.9541,167.9063,265.9541,177.9063,269.9541,167.9063,265.9541,171.9063" style="stroke:#181818;stroke-width:1;"/><line style="stroke:#181818;stroke-width:1;" x1="265.9541" x2="265.9541" y1="444.25" y2="462.75"/><polygon fill="#181818" points="261.9541,452.75,265.9541,462.75,269.9541,452.75,265.9541,456.75" style="stroke:#181818;stroke-width:1;"/><?plantuml-src ZP0z4e9038NxFKLA7IiBcmKv13U8Iy0CEmcpFupUNXUeeD0st_VclObj2RjtPQpGAvtqN45TJq4TTJbGqnZRaYEUMORAnCbpCc05nnCl9ikKqzS2YsxSqfhJUbnqm05PDc4VsZeDg42acG9wy2mKzol0CjWxC5pWMbZ2EFvNIo4SQ_57g5SjDE9C1_R0K9XNx0wCeO5ReKubiMJDiJX99qFImVe_sxDmV5OV?></g></svg>