<svg xmlns="http://www.w3.org/2000/svg" width="500.0" height="1240.0">
  <g stroke="#333333" fill="none" stroke-width="1.5">
    <path d="M 400.0 120.0 C 400.0 160.0, 400.0 160.0, 400.0 200.0" stroke="#333333" fill="none"/>
    <polygon points="396.0,194.0 404.0,194.0 400.0,200.0" fill="#333333" stroke="none"/>
    <path d="M 400.0 240.0 C 400.0 280.0, 400.0 280.0, 400.0 320.0" stroke="#333333" fill="none"/>
    <polygon points="396.0,314.0 404.0,314.0 400.0,320.0" fill="#333333" stroke="none"/>
    <path d="M 400.0 360.0 C 400.0 400.0, 400.0 400.0, 400.0 440.0" stroke="#333333" fill="none"/>
    <polygon points="396.0,434.0 404.0,434.0 400.0,440.0" fill="#333333" stroke="none"/>
    <path d="M 400.0 480.0 C 400.0 520.0, 400.0 520.0, 400.0 560.0" stroke="#333333" fill="none"/>
    <polygon points="396.0,554.0 404.0,554.0 400.0,560.0" fill="#333333" stroke="none"/>
    <path d="M 400.0 600.0 C 400.0 640.0, 400.0 640.0, 400.0 680.0" stroke="#333333" fill="none"/>
    <polygon points="396.0,674.0 404.0,674.0 400.0,680.0" fill="#333333" stroke="none"/>
    <path d="M 400.0 720.0 C 400.0 760.0, 400.0 760.0, 400.0 800.0" stroke="#333333" fill="none"/>
    <polygon points="396.0,794.0 404.0,794.0 400.0,800.0" fill="#333333" stroke="none"/>
    <path d="M 400.0 840.0 C 400.0 880.0, 400.0 880.0, 400.0 920.0" stroke="#333333" fill="none"/>
    <polygon points="396.0,914.0 404.0,914.0 400.0,920.0" fill="#333333" stroke="none"/>
    <path d="M 400.0 960.0 C 400.0 1000.0, 400.0 1000.0, 400.0 1040.0" stroke="#333333" fill="none"/>
    <polygon points="396.0,1034.0 404.0,1034.0 400.0,1040.0" fill="#333333" stroke="none"/>
    <path d="M 400.0 1080.0 C 400.0 1120.0, 400.0 1120.0, 400.0 1160.0" stroke="#333333" fill="none"/>
    <polygon points="396.0,1154.0 404.0,1154.0 400.0,1160.0" fill="#333333" stroke="none"/>
  </g>
  <g font-family="sans-serif" font-size="14" text-anchor="middle">
    <circle cx="400.0" cy="100.0" r="15" fill="#333333" stroke="#333333" stroke-width="2"/>
    <rect x="340.0" y="200.0" width="120.0" height="40.0" rx="10" ry="10" fill="#f0f0f0" stroke="#333333" stroke-width="1.5"/>
    <text x="400.0" y="220.0" dy="5" fill="#000000">SDLShape</text>
    <rect x="340.0" y="320.0" width="120.0" height="40.0" rx="10" ry="10" fill="#f0f0f0" stroke="#333333" stroke-width="1.5"/>
    <text x="400.0" y="334.0" dy="5" fill="#000000">&lt;&lt;input&gt;&gt;</text>
    <text x="400.0" y="348.0" dy="5" fill="#000000">input</text>
    <rect x="340.0" y="440.0" width="120.0" height="40.0" rx="10" ry="10" fill="#f0f0f0" stroke="#333333" stroke-width="1.5"/>
    <text x="400.0" y="454.0" dy="5" fill="#000000">&lt;&lt;output&gt;&gt;</text>
    <text x="400.0" y="468.0" dy="5" fill="#000000">output</text>
    <rect x="340.0" y="560.0" width="120.0" height="40.0" rx="10" ry="10" fill="#f0f0f0" stroke="#333333" stroke-width="1.5"/>
    <text x="400.0" y="574.0" dy="5" fill="#000000">&lt;&lt;procedure&gt;&gt;</text>
    <text x="400.0" y="588.0" dy="5" fill="#000000">procedure</text>
    <rect x="340.0" y="680.0" width="120.0" height="40.0" rx="10" ry="10" fill="#f0f0f0" stroke="#333333" stroke-width="1.5"/>
    <text x="400.0" y="694.0" dy="5" fill="#000000">&lt;&lt;load&gt;&gt;</text>
    <text x="400.0" y="708.0" dy="5" fill="#000000">load</text>
    <rect x="340.0" y="800.0" width="120.0" height="40.0" rx="10" ry="10" fill="#f0f0f0" stroke="#333333" stroke-width="1.5"/>
    <text x="400.0" y="814.0" dy="5" fill="#000000">&lt;&lt;save&gt;&gt;</text>
    <text x="400.0" y="828.0" dy="5" fill="#000000">save</text>
    <rect x="340.0" y="920.0" width="120.0" height="40.0" rx="10" ry="10" fill="#f0f0f0" stroke="#333333" stroke-width="1.5"/>
    <text x="400.0" y="934.0" dy="5" fill="#000000">&lt;&lt;continuous&gt;&gt;</text>
    <text x="400.0" y="948.0" dy="5" fill="#000000">continuous</text>
    <rect x="340.0" y="1040.0" width="120.0" height="40.0" rx="10" ry="10" fill="#f0f0f0" stroke="#333333" stroke-width="1.5"/>
    <text x="400.0" y="1054.0" dy="5" fill="#000000">&lt;&lt;task&gt;&gt;</text>
    <text x="400.0" y="1068.0" dy="5" fill="#000000">task</text>
    <circle cx="400.0" cy="1180.0" r="15" fill="none" stroke="#333333" stroke-width="2"/>
    <circle cx="400.0" cy="1180.0" r="10" fill="#333333" stroke="#333333" stroke-width="2"/>
  </g>
</svg>
