<svg xmlns="http://www.w3.org/2000/svg" xmlns:xlink="http://www.w3.org/1999/xlink" contentStyleType="text/css" data-diagram-type="ACTIVITY" height="548px" preserveAspectRatio="none" style="width:210px;height:548px;background:#FFFFFF;" version="1.1" viewBox="0 0 210 548" width="210px" zoomAndPan="magnify"><?plantuml 1.2026.3beta5?><defs/><g><ellipse cx="102.3972" cy="25" fill="#222222" rx="10" ry="10" style="stroke:#222222;stroke-width:1;"/><rect fill="#F1F1F1" height="33.9688" rx="12.5" ry="12.5" style="stroke:#181818;stroke-width:0.5;" width="57.9688" x="121.8257" y="79"/><text fill="#000000" font-family="sans-serif" font-size="12" lengthAdjust="spacing" textLength="37.9688" x="131.8257" y="100.1387">Text 1</text><rect fill="#F1F1F1" height="33.9688" rx="12.5" ry="12.5" style="stroke:#181818;stroke-width:0.5;" width="57.9688" x="121.8257" y="156.9688"/><text fill="#000000" font-family="sans-serif" font-size="12" lengthAdjust="spacing" textLength="37.9688" x="131.8257" y="178.1074">Text 2</text><ellipse cx="150.8101" cy="221.9375" fill="none" rx="11" ry="11" style="stroke:#222222;stroke-width:1;"/><ellipse cx="150.8101" cy="221.9375" fill="#222222" rx="6" ry="6" style="stroke:#222222;stroke-width:1;"/><rect fill="#F1F1F1" height="33.9688" rx="12.5" ry="12.5" style="stroke:#181818;stroke-width:0.5;" width="57.9688" x="121.8257" y="276.9375"/><text fill="#000000" font-family="sans-serif" font-size="12" lengthAdjust="spacing" textLength="37.9688" x="131.8257" y="298.0762">Text 3</text><rect fill="#F1F1F1" height="33.9688" rx="12.5" ry="12.5" style="stroke:#181818;stroke-width:0.5;" width="57.9688" x="121.8257" y="354.9063"/><text fill="#000000" font-family="sans-serif" font-size="12" lengthAdjust="spacing" textLength="37.9688" x="131.8257" y="376.0449">Text 4</text><polygon fill="#F1F1F1" points="37.4727,55,99.353,55,111.353,67,99.353,79,37.4727,79,25.4727,67,37.4727,55" style="stroke:#181818;stroke-width:0.5;"/><text fill="#000000" font-family="sans-serif" font-size="11" lengthAdjust="spacing" textLength="61.8804" x="37.4727" y="70.8081">condition A</text><text fill="#000000" font-family="sans-serif" font-size="11" lengthAdjust="spacing" textLength="19.0083" x="111.353" y="64.4058">yes</text><polygon fill="#F1F1F1" points="37.4619,132.9688,99.3638,132.9688,111.3638,144.9688,99.3638,156.9688,37.4619,156.9688,25.4619,144.9688,37.4619,132.9688" style="stroke:#181818;stroke-width:0.5;"/><text fill="#000000" font-family="sans-serif" font-size="11" lengthAdjust="spacing" textLength="61.9019" x="37.4619" y="148.7769">condition B</text><text fill="#000000" font-family="sans-serif" font-size="11" lengthAdjust="spacing" textLength="19.0083" x="111.3638" y="142.3745">yes</text><polygon fill="#F1F1F1" points="37.3948,252.9375,99.4309,252.9375,111.4309,264.9375,99.4309,276.9375,37.3948,276.9375,25.3948,264.9375,37.3948,252.9375" style="stroke:#181818;stroke-width:0.5;"/><text fill="#000000" font-family="sans-serif" font-size="11" lengthAdjust="spacing" textLength="62.0361" x="37.3948" y="268.7456">condition C</text><text fill="#000000" font-family="sans-serif" font-size="11" lengthAdjust="spacing" textLength="19.0083" x="111.4309" y="262.3433">yes</text><polygon fill="#F1F1F1" points="37,330.9063,99.8257,330.9063,111.8257,342.9063,99.8257,354.9063,37,354.9063,25,342.9063,37,330.9063" style="stroke:#181818;stroke-width:0.5;"/><text fill="#000000" font-family="sans-serif" font-size="11" lengthAdjust="spacing" textLength="62.8257" x="37" y="346.7144">condition D</text><text fill="#000000" font-family="sans-serif" font-size="11" lengthAdjust="spacing" textLength="19.0083" x="111.8257" y="340.312">yes</text><rect fill="#F1F1F1" height="33.9688" rx="12.5" ry="12.5" style="stroke:#181818;stroke-width:0.5;" width="74.6855" x="65.0544" y="408.875"/><text fill="#000000" font-family="sans-serif" font-size="12" lengthAdjust="spacing" textLength="54.6855" x="75.0544" y="430.0137">Text else</text><polygon fill="#F1F1F1" points="102.3972,462.8438,114.3972,474.8438,102.3972,486.8438,90.3972,474.8438,102.3972,462.8438" style="stroke:#181818;stroke-width:0.5;"/><ellipse cx="102.3972" cy="517.8438" fill="none" rx="11" ry="11" style="stroke:#222222;stroke-width:1;"/><ellipse cx="102.3972" cy="517.8438" fill="#222222" rx="6" ry="6" style="stroke:#222222;stroke-width:1;"/><line style="stroke:#181818;stroke-width:1;" x1="150.8101" x2="150.8101" y1="190.9375" y2="210.9375"/><polygon fill="#181818" points="146.8101,200.9375,150.8101,210.9375,154.8101,200.9375,150.8101,204.9375" style="stroke:#181818;stroke-width:1;"/><line style="stroke:#181818;stroke-width:1;" x1="111.353" x2="150.8101" y1="67" y2="67"/><line style="stroke:#181818;stroke-width:1;" x1="150.8101" x2="150.8101" y1="67" y2="79"/><polygon fill="#181818" points="146.8101,69,150.8101,79,154.8101,69,150.8101,73" style="stroke:#181818;stroke-width:1;"/><line style="stroke:#181818;stroke-width:1;" x1="111.3638" x2="150.8101" y1="144.9688" y2="144.9688"/><line style="stroke:#181818;stroke-width:1;" x1="150.8101" x2="150.8101" y1="144.9688" y2="156.9688"/><polygon fill="#181818" points="146.8101,146.9688,150.8101,156.9688,154.8101,146.9688,150.8101,150.9688" style="stroke:#181818;stroke-width:1;"/><line style="stroke:#181818;stroke-width:1;" x1="111.4309" x2="150.8101" y1="264.9375" y2="264.9375"/><line style="stroke:#181818;stroke-width:1;" x1="150.8101" x2="150.8101" y1="264.9375" y2="276.9375"/><polygon fill="#181818" points="146.8101,266.9375,150.8101,276.9375,154.8101,266.9375,150.8101,270.9375" style="stroke:#181818;stroke-width:1;"/><line style="stroke:#181818;stroke-width:1;" x1="111.8257" x2="150.8101" y1="342.9063" y2="342.9063"/><line style="stroke:#181818;stroke-width:1;" x1="150.8101" x2="150.8101" y1="342.9063" y2="354.9063"/><polygon fill="#181818" points="146.8101,344.9063,150.8101,354.9063,154.8101,344.9063,150.8101,348.9063" style="stroke:#181818;stroke-width:1;"/><line style="stroke:#181818;stroke-width:1;" x1="68.4128" x2="68.4128" y1="79" y2="132.9688"/><polygon fill="#181818" points="64.4128,122.9688,68.4128,132.9688,72.4128,122.9688,68.4128,126.9688" style="stroke:#181818;stroke-width:1;"/><line style="stroke:#181818;stroke-width:1;" x1="68.4128" x2="68.4128" y1="156.9688" y2="252.9375"/><polygon fill="#181818" points="64.4128,242.9375,68.4128,252.9375,72.4128,242.9375,68.4128,246.9375" style="stroke:#181818;stroke-width:1;"/><line style="stroke:#181818;stroke-width:1;" x1="68.4128" x2="68.4128" y1="276.9375" y2="330.9063"/><polygon fill="#181818" points="64.4128,320.9063,68.4128,330.9063,72.4128,320.9063,68.4128,324.9063" style="stroke:#181818;stroke-width:1;"/><line style="stroke:#181818;stroke-width:1;" x1="150.8101" x2="150.8101" y1="112.9688" y2="127.9688"/><line style="stroke:#181818;stroke-width:1;" x1="150.8101" x2="179.7944" y1="127.9688" y2="127.9688"/><line style="stroke:#181818;stroke-width:1;" x1="179.7944" x2="179.7944" y1="127.9688" y2="474.8438"/><line style="stroke:#181818;stroke-width:1;" x1="179.7944" x2="114.3972" y1="474.8438" y2="474.8438"/><polygon fill="#181818" points="124.3972,470.8438,114.3972,474.8438,124.3972,478.8438,120.3972,474.8438" style="stroke:#181818;stroke-width:1;"/><line style="stroke:#181818;stroke-width:1;" x1="150.8101" x2="150.8101" y1="310.9063" y2="325.9063"/><line style="stroke:#181818;stroke-width:1;" x1="150.8101" x2="179.7944" y1="325.9063" y2="325.9063"/><polygon fill="#181818" points="169.7944,321.9063,179.7944,325.9063,169.7944,329.9063,173.7944,325.9063" style="stroke:#181818;stroke-width:1;"/><line style="stroke:#181818;stroke-width:1;" x1="150.8101" x2="150.8101" y1="388.875" y2="403.875"/><line style="stroke:#181818;stroke-width:1;" x1="150.8101" x2="179.7944" y1="403.875" y2="403.875"/><polygon fill="#181818" points="169.7944,399.875,179.7944,403.875,169.7944,407.875,173.7944,403.875" style="stroke:#181818;stroke-width:1;"/><line style="stroke:#181818;stroke-width:1;" x1="102.3972" x2="102.3972" y1="35" y2="40"/><line style="stroke:#181818;stroke-width:1;" x1="102.3972" x2="68.4128" y1="40" y2="40"/><line style="stroke:#181818;stroke-width:1;" x1="68.4128" x2="68.4128" y1="40" y2="55"/><polygon fill="#181818" points="64.4128,45,68.4128,55,72.4128,45,68.4128,49" style="stroke:#181818;stroke-width:1;"/><line style="stroke:#181818;stroke-width:1;" x1="68.4128" x2="68.4128" y1="354.9063" y2="393.875"/><line style="stroke:#181818;stroke-width:1;" x1="68.4128" x2="102.3972" y1="393.875" y2="393.875"/><line style="stroke:#181818;stroke-width:1;" x1="102.3972" x2="102.3972" y1="393.875" y2="408.875"/><polygon fill="#181818" points="98.3972,398.875,102.3972,408.875,106.3972,398.875,102.3972,402.875" style="stroke:#181818;stroke-width:1;"/><text fill="#000000" font-family="sans-serif" font-size="11" lengthAdjust="spacing" textLength="41.9966" x="68.4128" y="380.6987">nothing</text><line style="stroke:#181818;stroke-width:1;" x1="102.3972" x2="102.3972" y1="442.8438" y2="447.8438"/><line style="stroke:#181818;stroke-width:1;" x1="102.3972" x2="102.3972" y1="447.8438" y2="462.8438"/><polygon fill="#181818" points="98.3972,452.8438,102.3972,462.8438,106.3972,452.8438,102.3972,456.8438" style="stroke:#181818;stroke-width:1;"/><line style="stroke:#181818;stroke-width:1;" x1="102.3972" x2="102.3972" y1="486.8438" y2="506.8438"/><polygon fill="#181818" points="98.3972,496.8438,102.3972,506.8438,106.3972,496.8438,102.3972,500.8438" style="stroke:#181818;stroke-width:1;"/><?plantuml-src ROsx3i8m34LtVuNPqf77H2SU2pjYZuhJMYfsbHYf_NjICI0aRrU-v_XkfXpxLyHteGTbuowEjuGgK2nc0quOEfKd6wlWgK4RI30iL1f0FDvfDjosG6EXV_Jiehksnc8wESR5DVRUywkB7hue1b4RMFfVivvhMVK4w_e7?></g></svg>