<svg xmlns="http://www.w3.org/2000/svg" xmlns:xlink="http://www.w3.org/1999/xlink" contentStyleType="text/css" data-diagram-type="ACTIVITY" height="244px" preserveAspectRatio="none" style="width:231px;height:244px;background:#FFFFFF;" version="1.1" viewBox="0 0 231 244" width="231px" zoomAndPan="magnify"><?plantuml 1.2026.3beta5?><defs/><g><ellipse cx="117.1641" cy="25" fill="#222222" rx="10" ry="10" style="stroke:#222222;stroke-width:1;"/><rect fill="#F1F1F1" height="33.9688" rx="12.5" ry="12.5" style="stroke:#181818;stroke-width:0.5;" width="78.1309" x="78.0986" y="99"/><text fill="#000000" font-family="sans-serif" font-size="12" lengthAdjust="spacing" textLength="58.1309" x="88.0986" y="120.1387">read data</text><rect fill="#F1F1F1" height="33.9688" rx="12.5" ry="12.5" style="stroke:#181818;stroke-width:0.5;" width="134.3281" x="50" y="167.9688"/><text fill="#000000" font-family="sans-serif" font-size="12" lengthAdjust="spacing" textLength="114.3281" x="60" y="189.1074">generate diagrams</text><polygon fill="#F1F1F1" points="75.283,55,159.0452,55,171.0452,67,159.0452,79,75.283,79,63.283,67,75.283,55" style="stroke:#181818;stroke-width:0.5;"/><text fill="#000000" font-family="sans-serif" font-size="11" lengthAdjust="spacing" textLength="83.7622" x="75.283" y="70.8081">data available?</text><ellipse cx="29" cy="110" fill="none" rx="11" ry="11" style="stroke:#222222;stroke-width:1;"/><ellipse cx="29" cy="110" fill="#222222" rx="6" ry="6" style="stroke:#222222;stroke-width:1;"/><line style="stroke:#181818;stroke-width:1;" x1="117.1641" x2="117.1641" y1="132.9688" y2="167.9688"/><polygon fill="#181818" points="113.1641,157.9688,117.1641,167.9688,121.1641,157.9688,117.1641,161.9688" style="stroke:#181818;stroke-width:1;"/><line style="stroke:#181818;stroke-width:1;" x1="117.1641" x2="117.1641" y1="79" y2="99"/><polygon fill="#181818" points="113.1641,89,117.1641,99,121.1641,89,117.1641,93" style="stroke:#181818;stroke-width:1;"/><line style="stroke:#181818;stroke-width:1;" x1="117.1641" x2="117.1641" y1="201.9375" y2="211.9375"/><line style="stroke:#181818;stroke-width:1;" x1="117.1641" x2="196.3281" y1="211.9375" y2="211.9375"/><polygon fill="#181818" points="192.3281,148.4688,196.3281,138.4688,200.3281,148.4688,196.3281,144.4688" style="stroke:#181818;stroke-width:1;"/><line style="stroke:#181818;stroke-width:1;" x1="196.3281" x2="196.3281" y1="67" y2="211.9375"/><line style="stroke:#181818;stroke-width:1;" x1="196.3281" x2="171.0452" y1="67" y2="67"/><polygon fill="#181818" points="181.0452,63,171.0452,67,181.0452,71,177.0452,67" style="stroke:#181818;stroke-width:1;"/><line style="stroke:#181818;stroke-width:1;" x1="63.283" x2="29" y1="67" y2="67"/><line style="stroke:#181818;stroke-width:1;" x1="29" x2="29" y1="67" y2="99"/><polygon fill="#181818" points="25,89,29,99,33,89,29,93" style="stroke:#181818;stroke-width:1;"/><line style="stroke:#181818;stroke-width:1;" x1="117.1641" x2="117.1641" y1="35" y2="55"/><polygon fill="#181818" points="113.1641,45,117.1641,55,121.1641,45,117.1641,49" style="stroke:#181818;stroke-width:1;"/><?plantuml-src 7Sj12e0m34JHVKwHfLx1BZpBI8PQQAkaGQylTVbv_17m47dFKgcB8Q1uK2gEodqLrSq9qmbfLcQd8wXMa1rj966tVnSPSTqV?></g></svg>