<svg xmlns="http://www.w3.org/2000/svg" xmlns:xlink="http://www.w3.org/1999/xlink" contentStyleType="text/css" data-diagram-type="ACTIVITY" height="202px" preserveAspectRatio="none" style="width:204px;height:202px;background:#FFFFFF;" version="1.1" viewBox="0 0 204 202" width="204px" zoomAndPan="magnify"><?plantuml 1.2026.3beta5?><defs/><g><rect fill="#F1F1F1" height="33.9688" rx="12.5" ry="12.5" style="stroke:#181818;stroke-width:0.5;" width="69.377" x="69.1584" y="72.6094"/><text fill="#000000" font-family="sans-serif" font-size="12" lengthAdjust="spacing" textLength="49.377" x="79.1584" y="93.748">read file</text><polygon fill="#F1F1F1" points="62.2881,16.8989,145.4058,16.8989,157.4058,28.8989,145.4058,40.8989,62.2881,40.8989,50.2881,28.8989,62.2881,16.8989" style="stroke:#181818;stroke-width:0.5;"/><text fill="#000000" font-family="sans-serif" font-size="11" lengthAdjust="spacing" textLength="56.7993" x="107.8469" y="51.1094">not empty</text><text fill="#000000" font-family="sans-serif" font-size="11" lengthAdjust="spacing" textLength="83.1177" x="62.2881" y="32.707">check filesize ?</text><text fill="#000000" font-family="sans-serif" font-size="11" lengthAdjust="spacing" textLength="35.2881" x="15" y="26.3047">empty</text><rect fill="#F1F1F1" height="33.9688" rx="12.5" ry="12.5" style="stroke:#181818;stroke-width:0.5;" width="72.998" x="67.3479" y="148.5781"/><text fill="#000000" font-family="sans-serif" font-size="12" lengthAdjust="spacing" textLength="52.998" x="77.3479" y="169.7168">close file</text><line style="stroke:#181818;stroke-width:1;" x1="103.8469" x2="103.8469" y1="40.8989" y2="72.6094"/><polygon fill="#181818" points="99.8469,62.6094,103.8469,72.6094,107.8469,62.6094,103.8469,66.6094" style="stroke:#181818;stroke-width:1;"/><line style="stroke:#181818;stroke-width:1;" x1="103.8469" x2="103.8469" y1="106.5781" y2="116.5781"/><line style="stroke:#181818;stroke-width:1;" x1="103.8469" x2="169.4058" y1="116.5781" y2="116.5781"/><polygon fill="#181818" points="165.4058,81.1914,169.4058,71.1914,173.4058,81.1914,169.4058,77.1914" style="stroke:#181818;stroke-width:1;"/><line style="stroke:#181818;stroke-width:1;" x1="169.4058" x2="169.4058" y1="28.8989" y2="116.5781"/><line style="stroke:#181818;stroke-width:1;" x1="169.4058" x2="157.4058" y1="28.8989" y2="28.8989"/><polygon fill="#181818" points="167.4058,24.8989,157.4058,28.8989,167.4058,32.8989,163.4058,28.8989" style="stroke:#181818;stroke-width:1;"/><line style="stroke:#181818;stroke-width:1;" x1="50.2881" x2="38.2881" y1="28.8989" y2="28.8989"/><polygon fill="#181818" points="34.2881,67.1914,38.2881,77.1914,42.2881,67.1914,38.2881,71.1914" style="stroke:#181818;stroke-width:1;"/><line style="stroke:#181818;stroke-width:1;" x1="38.2881" x2="38.2881" y1="28.8989" y2="128.5781"/><line style="stroke:#181818;stroke-width:1;" x1="38.2881" x2="103.8469" y1="128.5781" y2="128.5781"/><line style="stroke:#181818;stroke-width:1;" x1="103.8469" x2="103.8469" y1="128.5781" y2="148.5781"/><polygon fill="#181818" points="99.8469,138.5781,103.8469,148.5781,107.8469,138.5781,103.8469,142.5781" style="stroke:#181818;stroke-width:1;"/><?plantuml-src Ay_8p4bLq4ZEI4tELaW3ieipgr8Lx3KLCeiLDFBoInHISmjAAZMv51IiYb8JKy1AhBbIyrBA8HgXqbR9EVd5gH1P0000?></g></svg>