<svg xmlns="http://www.w3.org/2000/svg" xmlns:xlink="http://www.w3.org/1999/xlink" contentStyleType="text/css" data-diagram-type="ACTIVITY" height="312px" preserveAspectRatio="none" style="width:197px;height:312px;background:#FFFFFF;" version="1.1" viewBox="0 0 197 312" width="197px" zoomAndPan="magnify"><?plantuml 1.2026.3beta5?><defs/><g><ellipse cx="83.1641" cy="25" fill="#222222" rx="10" ry="10" style="stroke:#222222;stroke-width:1;"/><rect fill="#F1F1F1" height="33.9688" rx="12.5" ry="12.5" style="stroke:#181818;stroke-width:0.5;" width="78.1309" x="44.0986" y="99"/><text fill="#000000" font-family="sans-serif" font-size="12" lengthAdjust="spacing" textLength="58.1309" x="54.0986" y="120.1387">read data</text><rect fill="#F1F1F1" height="33.9688" rx="12.5" ry="12.5" style="stroke:#181818;stroke-width:0.5;" width="134.3281" x="16" y="160.4688"/><text fill="#000000" font-family="sans-serif" font-size="12" lengthAdjust="spacing" textLength="114.3281" x="26" y="181.6074">generate diagrams</text><polygon fill="#F1F1F1" points="83.1641,55,95.1641,67,83.1641,79,71.1641,67,83.1641,55" style="stroke:#181818;stroke-width:0.5;"/><polygon fill="#F1F1F1" points="51.7405,214.4375,114.5876,214.4375,126.5876,226.4375,114.5876,238.4375,51.7405,238.4375,39.7405,226.4375,51.7405,214.4375" style="stroke:#181818;stroke-width:0.5;"/><text fill="#000000" font-family="sans-serif" font-size="11" lengthAdjust="spacing" textLength="13.7017" x="87.1641" y="248.6479">no</text><text fill="#000000" font-family="sans-serif" font-size="11" lengthAdjust="spacing" textLength="62.8472" x="51.7405" y="230.2456">more data?</text><text fill="#000000" font-family="sans-serif" font-size="11" lengthAdjust="spacing" textLength="19.0083" x="126.5876" y="223.8433">yes</text><ellipse cx="83.1641" cy="281.1479" fill="none" rx="11" ry="11" style="stroke:#222222;stroke-width:1;"/><ellipse cx="83.1641" cy="281.1479" fill="#222222" rx="6" ry="6" style="stroke:#222222;stroke-width:1;"/><line style="stroke:#181818;stroke-width:1;" x1="83.1641" x2="83.1641" y1="132.9688" y2="160.4688"/><polygon fill="#181818" points="79.1641,150.4688,83.1641,160.4688,87.1641,150.4688,83.1641,154.4688" style="stroke:#181818;stroke-width:1;"/><line style="stroke:#181818;stroke-width:1;" x1="83.1641" x2="83.1641" y1="79" y2="99"/><polygon fill="#181818" points="79.1641,89,83.1641,99,87.1641,89,83.1641,93" style="stroke:#181818;stroke-width:1;"/><line style="stroke:#181818;stroke-width:1;" x1="126.5876" x2="162.3281" y1="226.4375" y2="226.4375"/><polygon fill="#181818" points="158.3281,152.9688,162.3281,142.9688,166.3281,152.9688,162.3281,148.9688" style="stroke:#181818;stroke-width:1;"/><line style="stroke:#181818;stroke-width:1;" x1="162.3281" x2="162.3281" y1="67" y2="226.4375"/><line style="stroke:#181818;stroke-width:1;" x1="162.3281" x2="95.1641" y1="67" y2="67"/><polygon fill="#181818" points="105.1641,63,95.1641,67,105.1641,71,101.1641,67" style="stroke:#181818;stroke-width:1;"/><line style="stroke:#181818;stroke-width:1;" x1="83.1641" x2="83.1641" y1="194.4375" y2="214.4375"/><polygon fill="#181818" points="79.1641,204.4375,83.1641,214.4375,87.1641,204.4375,83.1641,208.4375" style="stroke:#181818;stroke-width:1;"/><line style="stroke:#181818;stroke-width:1;" x1="83.1641" x2="83.1641" y1="35" y2="55"/><polygon fill="#181818" points="79.1641,45,83.1641,55,87.1641,45,83.1641,49" style="stroke:#181818;stroke-width:1;"/><line style="stroke:#181818;stroke-width:1;" x1="83.1641" x2="83.1641" y1="238.4375" y2="270.1479"/><polygon fill="#181818" points="79.1641,260.1479,83.1641,270.1479,87.1641,260.1479,83.1641,264.1479" style="stroke:#181818;stroke-width:1;"/><?plantuml-src BSf12e0m30J0Urwnn_OBUl0jWIwre6r90kBlHV4uC1vg8MASr11WCMf1qT3rLMMdQH2bQJKzVVqhhhqTH3g7yUjRHdEacvxHHo3raKKyndm0?></g></svg>