<svg xmlns="http://www.w3.org/2000/svg" xmlns:xlink="http://www.w3.org/1999/xlink" contentStyleType="text/css" data-diagram-type="ACTIVITY" height="311px" preserveAspectRatio="none" style="width:197px;height:311px;background:#FFFFFF;" version="1.1" viewBox="0 0 197 311" width="197px" zoomAndPan="magnify"><?plantuml 1.2026.3beta5?><defs/><g><ellipse cx="96.2188" cy="25" fill="#222222" rx="10" ry="10" style="stroke:#222222;stroke-width:1;"/><line style="stroke:#181818;stroke-width:1.5;" x1="30.1045" x2="162.6289" y1="55" y2="55"/><rect fill="#F1F1F1" height="33.9688" rx="12.5" ry="12.5" style="stroke:#181818;stroke-width:0.5;" width="28.209" x="16" y="109.4844"/><text fill="#000000" font-family="sans-serif" font-size="12" lengthAdjust="spacing" textLength="8.209" x="26" y="130.623">A</text><rect fill="#F1F1F1" height="33.9688" rx="12.5" ry="12.5" style="stroke:#181818;stroke-width:0.5;" width="28.2324" x="54.209" y="109.4844"/><text fill="#000000" font-family="sans-serif" font-size="12" lengthAdjust="spacing" textLength="8.2324" x="64.209" y="130.623">B</text><rect fill="#F1F1F1" height="33.9688" rx="12.5" ry="12.5" style="stroke:#181818;stroke-width:0.5;" width="28.3789" x="110.4414" y="109.4844"/><text fill="#000000" font-family="sans-serif" font-size="12" lengthAdjust="spacing" textLength="8.3789" x="120.4414" y="130.623">C</text><rect fill="#F1F1F1" height="33.9688" rx="12.5" ry="12.5" style="stroke:#181818;stroke-width:0.5;" width="27.3535" x="148.9521" y="75"/><text fill="#000000" font-family="sans-serif" font-size="12" lengthAdjust="spacing" textLength="7.3535" x="158.9521" y="96.1387">a</text><rect fill="#F1F1F1" height="33.9688" rx="12.5" ry="12.5" style="stroke:#181818;stroke-width:0.5;" width="27.6172" x="148.8203" y="143.9688"/><text fill="#000000" font-family="sans-serif" font-size="12" lengthAdjust="spacing" textLength="7.6172" x="158.8203" y="165.1074">b</text><line style="stroke:#181818;stroke-width:1.5;" x1="30.1045" x2="162.6289" y1="197.9375" y2="197.9375"/><rect fill="#F1F1F1" height="33.9688" rx="12.5" ry="12.5" style="stroke:#181818;stroke-width:0.5;" width="29.2402" x="81.5986" y="217.9375"/><text fill="#000000" font-family="sans-serif" font-size="12" lengthAdjust="spacing" textLength="9.2402" x="91.5986" y="239.0762">D</text><ellipse cx="96.2188" cy="281.9063" fill="none" rx="10" ry="10" style="stroke:#222222;stroke-width:1.5;"/><line style="stroke:#222222;stroke-width:2.5;" x1="90.0316" x2="102.4059" y1="275.7191" y2="288.0934"/><line style="stroke:#222222;stroke-width:2.5;" x1="102.4059" x2="90.0316" y1="275.7191" y2="288.0934"/><line style="stroke:#181818;stroke-width:1;" x1="162.6289" x2="162.6289" y1="108.9688" y2="143.9688"/><polygon fill="#181818" points="158.6289,133.9688,162.6289,143.9688,166.6289,133.9688,162.6289,137.9688" style="stroke:#181818;stroke-width:1;"/><line style="stroke:#181818;stroke-width:1;" x1="30.1045" x2="30.1045" y1="56.5" y2="109.4844"/><polygon fill="#181818" points="26.1045,99.4844,30.1045,109.4844,34.1045,99.4844,30.1045,103.4844" style="stroke:#181818;stroke-width:1;"/><line style="stroke:#181818;stroke-width:1;" x1="68.3252" x2="68.3252" y1="56.5" y2="109.4844"/><polygon fill="#181818" points="64.3252,99.4844,68.3252,109.4844,72.3252,99.4844,68.3252,103.4844" style="stroke:#181818;stroke-width:1;"/><line style="stroke:#181818;stroke-width:1;" x1="124.6309" x2="124.6309" y1="56.5" y2="109.4844"/><polygon fill="#181818" points="120.6309,99.4844,124.6309,109.4844,128.6309,99.4844,124.6309,103.4844" style="stroke:#181818;stroke-width:1;"/><line style="stroke:#181818;stroke-width:1;" x1="162.6289" x2="162.6289" y1="56.5" y2="75"/><polygon fill="#181818" points="158.6289,65,162.6289,75,166.6289,65,162.6289,69" style="stroke:#181818;stroke-width:1;"/><line style="stroke:#181818;stroke-width:1;" x1="30.1045" x2="30.1045" y1="143.4531" y2="197.9375"/><polygon fill="#181818" points="26.1045,187.9375,30.1045,197.9375,34.1045,187.9375,30.1045,191.9375" style="stroke:#181818;stroke-width:1;"/><line style="stroke:#181818;stroke-width:1;" x1="68.3252" x2="68.3252" y1="143.4531" y2="197.9375"/><polygon fill="#181818" points="64.3252,187.9375,68.3252,197.9375,72.3252,187.9375,68.3252,191.9375" style="stroke:#181818;stroke-width:1;"/><line style="stroke:#181818;stroke-width:1;" x1="124.6309" x2="124.6309" y1="143.4531" y2="197.9375"/><polygon fill="#181818" points="120.6309,187.9375,124.6309,197.9375,128.6309,187.9375,124.6309,191.9375" style="stroke:#181818;stroke-width:1;"/><line style="stroke:#181818;stroke-width:1;" x1="162.6289" x2="162.6289" y1="177.9375" y2="197.9375"/><polygon fill="#181818" points="158.6289,187.9375,162.6289,197.9375,166.6289,187.9375,162.6289,191.9375" style="stroke:#181818;stroke-width:1;"/><line style="stroke:#181818;stroke-width:1;" x1="96.2188" x2="96.2188" y1="35" y2="55"/><polygon fill="#181818" points="92.2188,45,96.2188,55,100.2188,45,96.2188,49" style="stroke:#181818;stroke-width:1;"/><line style="stroke:#181818;stroke-width:1;" x1="96.2188" x2="96.2188" y1="199.4375" y2="217.9375"/><polygon fill="#181818" points="92.2188,207.9375,96.2188,217.9375,100.2188,207.9375,96.2188,211.9375" style="stroke:#181818;stroke-width:1;"/><line style="stroke:#181818;stroke-width:1;" x1="96.2188" x2="96.2188" y1="251.9063" y2="271.9063"/><polygon fill="#181818" points="92.2188,261.9063,96.2188,271.9063,100.2188,261.9063,96.2188,265.9063" style="stroke:#181818;stroke-width:1;"/><?plantuml-src Aov9B2hXAYx8oIpXKb1Gi7AqXd0K4jCJC_F0GawOGiwOGedMO2h9cYirBqK1Og2L2vW70000?></g></svg>