<svg xmlns="http://www.w3.org/2000/svg" width="1040.0" height="880.0">
  <g stroke="#333333" fill="none" stroke-width="1.5">
    <path d="M 400.0 120.0 C 400.0 160.0, 400.0 160.0, 400.0 200.0" stroke="#333333" fill="none"/>
    <polygon points="396.0,194.0 404.0,194.0 400.0,200.0" fill="#333333" stroke="none"/>
    <path d="M 400.0 240.0 C 400.0 280.0, 100.0 280.0, 100.0 320.0" stroke="#333333" fill="none"/>
    <polygon points="96.0,314.0 104.0,314.0 100.0,320.0" fill="#333333" stroke="none"/>
    <path d="M 400.0 240.0 C 400.0 280.0, 380.0 280.0, 380.0 320.0" stroke="#333333" fill="none"/>
    <polygon points="376.0,314.0 384.0,314.0 380.0,320.0" fill="#333333" stroke="none"/>
    <path d="M 400.0 240.0 C 400.0 280.0, 660.0 280.0, 660.0 320.0" stroke="#333333" fill="none"/>
    <polygon points="656.0,314.0 664.0,314.0 660.0,320.0" fill="#333333" stroke="none"/>
    <path d="M 400.0 240.0 C 400.0 280.0, 940.0 280.0, 940.0 320.0" stroke="#333333" fill="none"/>
    <polygon points="936.0,314.0 944.0,314.0 940.0,320.0" fill="#333333" stroke="none"/>
    <path d="M 940.0 360.0 C 940.0 400.0, 400.0 400.0, 400.0 440.0" stroke="#333333" fill="none"/>
    <polygon points="396.0,434.0 404.0,434.0 400.0,440.0" fill="#333333" stroke="none"/>
    <path d="M 100.0 360.0 C 100.0 460.0, 400.0 460.0, 400.0 560.0" stroke="#333333" fill="none"/>
    <polygon points="396.0,554.0 404.0,554.0 400.0,560.0" fill="#333333" stroke="none"/>
    <path d="M 380.0 360.0 C 380.0 460.0, 400.0 460.0, 400.0 560.0" stroke="#333333" fill="none"/>
    <polygon points="396.0,554.0 404.0,554.0 400.0,560.0" fill="#333333" stroke="none"/>
    <path d="M 660.0 360.0 C 660.0 460.0, 400.0 460.0, 400.0 560.0" stroke="#333333" fill="none"/>
    <polygon points="396.0,554.0 404.0,554.0 400.0,560.0" fill="#333333" stroke="none"/>
    <path d="M 400.0 480.0 C 400.0 520.0, 400.0 520.0, 400.0 560.0" stroke="#333333" fill="none"/>
    <polygon points="396.0,554.0 404.0,554.0 400.0,560.0" fill="#333333" stroke="none"/>
    <path d="M 400.0 600.0 C 400.0 640.0, 400.0 640.0, 400.0 680.0" stroke="#333333" fill="none"/>
    <polygon points="396.0,674.0 404.0,674.0 400.0,680.0" fill="#333333" stroke="none"/>
    <path d="M 400.0 720.0 C 400.0 760.0, 400.0 760.0, 400.0 800.0" stroke="#333333" fill="none"/>
    <polygon points="396.0,794.0 404.0,794.0 400.0,800.0" fill="#333333" stroke="none"/>
  </g>
  <g font-family="sans-serif" font-size="14" text-anchor="middle">
    <circle cx="400.0" cy="100.0" r="15" fill="#333333" stroke="#333333" stroke-width="2"/>
    <rect x="340.0" y="217.0" width="120.0" height="6" fill="#333333" />
    <rect x="40.0" y="320.0" width="120.0" height="40.0" rx="10" ry="10" fill="#f0f0f0" stroke="#333333" stroke-width="1.5"/>
    <text x="100.0" y="340.0" dy="5" fill="#000000">A</text>
    <rect x="320.0" y="320.0" width="120.0" height="40.0" rx="10" ry="10" fill="#f0f0f0" stroke="#333333" stroke-width="1.5"/>
    <text x="380.0" y="340.0" dy="5" fill="#000000">B</text>
    <rect x="600.0" y="320.0" width="120.0" height="40.0" rx="10" ry="10" fill="#f0f0f0" stroke="#333333" stroke-width="1.5"/>
    <text x="660.0" y="340.0" dy="5" fill="#000000">C</text>
    <rect x="880.0" y="320.0" width="120.0" height="40.0" rx="10" ry="10" fill="#f0f0f0" stroke="#333333" stroke-width="1.5"/>
    <text x="940.0" y="340.0" dy="5" fill="#000000">a</text>
    <rect x="340.0" y="440.0" width="120.0" height="40.0" rx="10" ry="10" fill="#f0f0f0" stroke="#333333" stroke-width="1.5"/>
    <text x="400.0" y="460.0" dy="5" fill="#000000">b</text>
    <rect x="340.0" y="577.0" width="120.0" height="6" fill="#333333" />
    <rect x="340.0" y="680.0" width="120.0" height="40.0" rx="10" ry="10" fill="#f0f0f0" stroke="#333333" stroke-width="1.5"/>
    <text x="400.0" y="700.0" dy="5" fill="#000000">D</text>
    <circle cx="400.0" cy="820.0" r="15" fill="none" stroke="#333333" stroke-width="2"/>
    <circle cx="400.0" cy="820.0" r="10" fill="#333333" stroke="#333333" stroke-width="2"/>
  </g>
</svg>
