<svg xmlns="http://www.w3.org/2000/svg" xmlns:xlink="http://www.w3.org/1999/xlink" contentStyleType="text/css" data-diagram-type="ACTIVITY" height="216px" preserveAspectRatio="none" style="width:161px;height:216px;background:#FFFFFF;" version="1.1" viewBox="0 0 161 216" width="161px" zoomAndPan="magnify"><?plantuml 1.2026.3beta5?><defs/><g><ellipse cx="78.8311" cy="25" fill="#222222" rx="10" ry="10" style="stroke:#222222;stroke-width:1;"/><rect fill="#F1F1F1" height="33.9688" rx="12.5" ry="12.5" style="stroke:#181818;stroke-width:0.5;" width="87.2715" x="35.1953" y="55"/><text fill="#000000" font-family="sans-serif" font-size="12" lengthAdjust="spacing" textLength="67.2715" x="45.1953" y="76.1387">Hello world</text><rect fill="#F1F1F1" height="47.9375" rx="12.5" ry="12.5" style="stroke:#181818;stroke-width:0.5;" width="125.6621" x="16" y="108.9688"/><text fill="#000000" font-family="sans-serif" font-size="12" lengthAdjust="spacing" textLength="105.6621" x="26" y="130.1074">This is defined on</text><text fill="#000000" font-family="sans-serif" font-size="12" lengthAdjust="spacing" textLength="43.7402" x="26" y="144.0762">several</text><text fill="#000000" font-family="sans-serif" font-size="12" font-weight="700" lengthAdjust="spacing" textLength="32.0508" x="73.5547" y="144.0762">lines</text><ellipse cx="78.8311" cy="186.9063" fill="none" rx="10" ry="10" style="stroke:#222222;stroke-width:1.5;"/><line style="stroke:#222222;stroke-width:2.5;" x1="72.6439" x2="85.0182" y1="180.7191" y2="193.0934"/><line style="stroke:#222222;stroke-width:2.5;" x1="85.0182" x2="72.6439" y1="180.7191" y2="193.0934"/><line style="stroke:#181818;stroke-width:1;" x1="78.8311" x2="78.8311" y1="35" y2="55"/><polygon fill="#181818" points="74.8311,45,78.8311,55,82.8311,45,78.8311,49" style="stroke:#181818;stroke-width:1;"/><line style="stroke:#181818;stroke-width:1;" x1="78.8311" x2="78.8311" y1="88.9688" y2="108.9688"/><polygon fill="#181818" points="74.8311,98.9688,78.8311,108.9688,82.8311,98.9688,78.8311,102.9688" style="stroke:#181818;stroke-width:1;"/><line style="stroke:#181818;stroke-width:1;" x1="78.8311" x2="78.8311" y1="156.9063" y2="176.9063"/><polygon fill="#181818" points="74.8311,166.9063,78.8311,176.9063,82.8311,166.9063,78.8311,170.9063" style="stroke:#181818;stroke-width:1;"/><?plantuml-src Aov9B2hXil98pSd9LoZFByf9iUQo2id8B5O0efJKjCoyr1I5_3okujIorAB470KjhHoWKB6MbZLNQbuA0000?></g></svg>