<svg xmlns="http://www.w3.org/2000/svg" xmlns:xlink="http://www.w3.org/1999/xlink" contentStyleType="text/css" data-diagram-type="ACTIVITY" height="474px" preserveAspectRatio="none" style="width:617px;height:474px;background:#FFFFFF;" version="1.1" viewBox="0 0 617 474" width="617px" zoomAndPan="magnify"><?plantuml 1.2026.3beta5?><defs/><g><rect fill="none" height="20.9531" style="stroke:none;stroke-width:1;" width="570.627" x="20" y="17.7451"/><rect fill="#FFC0CB" height="435.7969" style="stroke:#FFC0CB;stroke-width:1;" width="184.5933" x="20" y="17.7451"/><ellipse cx="131.3472" cy="53.6982" fill="#222222" rx="10" ry="10" style="stroke:#222222;stroke-width:1;"/><polygon fill="#F1F1F1" points="114.8848,83.6982,147.8096,83.6982,159.8096,95.6982,147.8096,107.6982,114.8848,107.6982,102.8848,95.6982,114.8848,83.6982" style="stroke:#181818;stroke-width:0.5;"/><text fill="#000000" font-family="sans-serif" font-size="11" lengthAdjust="spacing" textLength="32.9248" x="114.8848" y="99.5063">color?</text><text fill="#000000" font-family="sans-serif" font-size="11" lengthAdjust="spacing" textLength="18.2725" x="84.6123" y="93.104">red</text><text fill="#000000" font-family="sans-serif" font-size="11" lengthAdjust="spacing" textLength="39.7837" x="159.8096" y="93.104">not red</text><rect fill="#FFC0CB" height="33.9688" rx="12.5" ry="12.5" style="stroke:#181818;stroke-width:0.5;" width="88.6719" x="26" y="127.6982"/><text fill="#000000" font-family="sans-serif" font-size="12" font-weight="700" lengthAdjust="spacing" textLength="68.6719" x="36" y="148.8369">action red</text><rect fill="#F1F1F1" height="33.9688" rx="12.5" ry="12.5" style="stroke:#181818;stroke-width:0.5;" width="46.543" x="47.0645" y="181.667"/><text fill="#000000" font-family="sans-serif" font-size="12" lengthAdjust="spacing" textLength="26.543" x="57.0645" y="202.8057">foo1</text><polygon fill="#F1F1F1" points="131.3472,225.6357,143.3472,237.6357,131.3472,249.6357,119.3472,237.6357,131.3472,225.6357" style="stroke:#181818;stroke-width:0.5;"/><line style="stroke:#000000;stroke-width:1.5;" x1="20" x2="20" y1="17.7451" y2="453.542"/><rect fill="#D3D3D3" height="435.7969" style="stroke:#D3D3D3;stroke-width:1;" width="165.7686" x="204.5933" y="17.7451"/><rect fill="#D3D3D3" height="33.9688" rx="12.5" ry="12.5" style="stroke:#181818;stroke-width:0.5;" width="115.373" x="230.791" y="127.6982"/><text fill="#000000" font-family="sans-serif" font-size="12" font-weight="700" lengthAdjust="spacing" textLength="95.373" x="240.791" y="148.8369">action not red</text><rect fill="#F1F1F1" height="33.9688" rx="12.5" ry="12.5" style="stroke:#181818;stroke-width:0.5;" width="46.543" x="265.2061" y="181.667"/><text fill="#000000" font-family="sans-serif" font-size="12" lengthAdjust="spacing" textLength="26.543" x="275.2061" y="202.8057">foo2</text><line style="stroke:#000000;stroke-width:1.5;" x1="204.5933" x2="204.5933" y1="17.7451" y2="453.542"/><rect fill="#ADD8E6" height="33.9688" rx="12.5" ry="12.5" style="stroke:#181818;stroke-width:0.5;" width="46.543" x="402.5552" y="269.6357"/><text fill="#000000" font-family="sans-serif" font-size="12" lengthAdjust="spacing" textLength="26.543" x="412.5552" y="290.7744">foo3</text><rect fill="#F1F1F1" height="33.9688" rx="12.5" ry="12.5" style="stroke:#181818;stroke-width:0.5;" width="46.543" x="402.5552" y="323.6045"/><text fill="#000000" font-family="sans-serif" font-size="12" lengthAdjust="spacing" textLength="26.543" x="412.5552" y="344.7432">foo4</text><line style="stroke:#000000;stroke-width:1.5;" x1="370.3618" x2="370.3618" y1="17.7451" y2="453.542"/><rect fill="#98FB98" height="33.9688" rx="12.5" ry="12.5" style="stroke:#181818;stroke-width:0.5;" width="46.543" x="511.7573" y="377.5732"/><text fill="#000000" font-family="sans-serif" font-size="12" lengthAdjust="spacing" textLength="26.543" x="521.7573" y="398.7119">foo5</text><ellipse cx="535.0288" cy="442.542" fill="none" rx="11" ry="11" style="stroke:#222222;stroke-width:1;"/><ellipse cx="535.0288" cy="442.542" fill="#222222" rx="6" ry="6" style="stroke:#222222;stroke-width:1;"/><line style="stroke:#000000;stroke-width:1.5;" x1="479.2915" x2="479.2915" y1="17.7451" y2="453.542"/><line style="stroke:#000000;stroke-width:1.5;" x1="588.7661" x2="588.7661" y1="17.7451" y2="453.542"/><line style="stroke:#181818;stroke-width:1;" x1="70.3359" x2="70.3359" y1="161.667" y2="181.667"/><polygon fill="#181818" points="66.3359,171.667,70.3359,181.667,74.3359,171.667,70.3359,175.667" style="stroke:#181818;stroke-width:1;"/><line style="stroke:#181818;stroke-width:1;" x1="102.8848" x2="70.3359" y1="95.6982" y2="95.6982"/><line style="stroke:#181818;stroke-width:1;" x1="70.3359" x2="70.3359" y1="95.6982" y2="127.6982"/><polygon fill="#181818" points="66.3359,117.6982,70.3359,127.6982,74.3359,117.6982,70.3359,121.6982" style="stroke:#181818;stroke-width:1;"/><line style="stroke:#181818;stroke-width:1;" x1="70.3359" x2="70.3359" y1="215.6357" y2="237.6357"/><line style="stroke:#181818;stroke-width:1;" x1="70.3359" x2="119.3472" y1="237.6357" y2="237.6357"/><polygon fill="#181818" points="109.3472,233.6357,119.3472,237.6357,109.3472,241.6357,113.3472,237.6357" style="stroke:#181818;stroke-width:1;"/><line style="stroke:#181818;stroke-width:1;" x1="131.3472" x2="131.3472" y1="63.6982" y2="83.6982"/><polygon fill="#181818" points="127.3472,73.6982,131.3472,83.6982,135.3472,73.6982,131.3472,77.6982" style="stroke:#181818;stroke-width:1;"/><line style="stroke:#181818;stroke-width:1;" x1="288.4775" x2="288.4775" y1="161.667" y2="181.667"/><polygon fill="#181818" points="284.4775,171.667,288.4775,181.667,292.4775,171.667,288.4775,175.667" style="stroke:#181818;stroke-width:1;"/><line style="stroke:#181818;stroke-width:1;" x1="425.8267" x2="425.8267" y1="303.6045" y2="323.6045"/><polygon fill="#181818" points="421.8267,313.6045,425.8267,323.6045,429.8267,313.6045,425.8267,317.6045" style="stroke:#181818;stroke-width:1;"/><line style="stroke:#181818;stroke-width:1;" x1="535.0288" x2="535.0288" y1="411.542" y2="431.542"/><polygon fill="#181818" points="531.0288,421.542,535.0288,431.542,539.0288,421.542,535.0288,425.542" style="stroke:#181818;stroke-width:1;"/><line style="stroke:#181818;stroke-width:1;" x1="159.8096" x2="288.4775" y1="95.6982" y2="95.6982"/><line style="stroke:#181818;stroke-width:1;" x1="288.4775" x2="288.4775" y1="95.6982" y2="127.6982"/><polygon fill="#181818" points="284.4775,117.6982,288.4775,127.6982,292.4775,117.6982,288.4775,121.6982" style="stroke:#181818;stroke-width:1;"/><line style="stroke:#181818;stroke-width:1;" x1="288.4775" x2="288.4775" y1="215.6357" y2="237.6357"/><line style="stroke:#181818;stroke-width:1;" x1="288.4775" x2="143.3472" y1="237.6357" y2="237.6357"/><polygon fill="#181818" points="153.3472,233.6357,143.3472,237.6357,153.3472,241.6357,149.3472,237.6357" style="stroke:#181818;stroke-width:1;"/><line style="stroke:#181818;stroke-width:1;" x1="131.3472" x2="131.3472" y1="249.6357" y2="254.6357"/><line style="stroke:#181818;stroke-width:1;" x1="131.3472" x2="425.8267" y1="254.6357" y2="254.6357"/><line style="stroke:#181818;stroke-width:1;" x1="425.8267" x2="425.8267" y1="254.6357" y2="269.6357"/><polygon fill="#181818" points="421.8267,259.6357,425.8267,269.6357,429.8267,259.6357,425.8267,263.6357" style="stroke:#181818;stroke-width:1;"/><line style="stroke:#181818;stroke-width:1;" x1="425.8267" x2="425.8267" y1="357.5732" y2="362.5732"/><line style="stroke:#181818;stroke-width:1;" x1="425.8267" x2="535.0288" y1="362.5732" y2="362.5732"/><line style="stroke:#181818;stroke-width:1;" x1="535.0288" x2="535.0288" y1="362.5732" y2="377.5732"/><polygon fill="#181818" points="531.0288,367.5732,535.0288,377.5732,539.0288,367.5732,535.0288,371.5732" style="stroke:#181818;stroke-width:1;"/><text fill="#000000" font-family="sans-serif" font-size="18" lengthAdjust="spacing" textLength="124.3477" x="50.1228" y="34.4531">Actor_For_red</text><text fill="#000000" font-family="sans-serif" font-size="18" lengthAdjust="spacing" textLength="155.7686" x="209.5933" y="34.4531">Actor_For_no_red</text><text fill="#000000" font-family="sans-serif" font-size="18" lengthAdjust="spacing" textLength="98.9297" x="375.3618" y="34.4531">Next_Actor</text><text fill="#000000" font-family="sans-serif" font-size="18" lengthAdjust="spacing" textLength="99.4746" x="484.2915" y="34.4531">Final_Actor</text><?plantuml-src JOwx3eCm34NtV4Ka5iZMrmA8gWjZVm6bO21gPAFWIgsKZsyAKM7mudlkiNqo6NpwMylacZgCWywBcRLZONgPjcJ9NJDfPfc6A9Cy0efSATso8PHXfrGXotBnL9N8Uw938S3E85Ca_X6Py8armyY3qv_TBQJrtAQBXQZyTwBt6BpOcLxuExovMKH-IKuR_x0lYFov4BusgEqUlQpVQWk30y20papJ5m00?></g></svg>