<svg xmlns="http://www.w3.org/2000/svg" width="940.0" height="1040.0">
  <text x="150.0" y="25" font-family="sans-serif" font-size="16" font-weight="bold" text-anchor="middle" fill="#000000">Swimlane1</text>
  <line x1="300.0" y1="0" x2="300.0" y2="1040.0" stroke="#cccccc" stroke-width="2" />
  <text x="450.0" y="25" font-family="sans-serif" font-size="16" font-weight="bold" text-anchor="middle" fill="#000000"></text>
  <line x1="600.0" y1="0" x2="600.0" y2="1040.0" stroke="#cccccc" stroke-width="2" />
  <text x="750.0" y="25" font-family="sans-serif" font-size="16" font-weight="bold" text-anchor="middle" fill="#000000">Swimlane2</text>
  <g stroke="#333333" fill="none" stroke-width="1.5">
    <path d="M 150.0 160.0 C 150.0 200.0, 150.0 200.0, 150.0 240.0" stroke="#333333" fill="none"/>
    <polygon points="146.0,234.0 154.0,234.0 150.0,240.0" fill="#333333" stroke="none"/>
    <path d="M 150.0 280.0 C 150.0 320.0, 150.0 320.0, 150.0 360.0" stroke="#333333" fill="none"/>
    <polygon points="146.0,354.0 154.0,354.0 150.0,360.0" fill="#333333" stroke="none"/>
    <path d="M 150.0 400.0 C 150.0 440.0, 150.0 440.0, 150.0 480.0" stroke="#333333" fill="none"/>
    <polygon points="146.0,474.0 154.0,474.0 150.0,480.0" fill="#333333" stroke="none"/>
    <path d="M 150.0 520.0 C 150.0 560.0, 150.0 560.0, 150.0 600.0" stroke="#333333" fill="none"/>
    <polygon points="146.0,594.0 154.0,594.0 150.0,600.0" fill="#333333" stroke="none"/>
    <path d="M 150.0 640.0 C 150.0 680.0, 150.0 680.0, 150.0 720.0" stroke="#333333" fill="none"/>
    <polygon points="146.0,714.0 154.0,714.0 150.0,720.0" fill="#333333" stroke="none"/>
    <path d="M 150.0 760.0 C 150.0 800.0, 750.0 800.0, 750.0 840.0" stroke="#333333" fill="none"/>
    <polygon points="746.0,834.0 754.0,834.0 750.0,840.0" fill="#333333" stroke="none"/>
    <path d="M 750.0 880.0 C 750.0 920.0, 750.0 920.0, 750.0 960.0" stroke="#333333" fill="none"/>
    <polygon points="746.0,954.0 754.0,954.0 750.0,960.0" fill="#333333" stroke="none"/>
  </g>
  <g font-family="sans-serif" font-size="14" text-anchor="middle">
    <circle cx="150.0" cy="140.0" r="15" fill="#333333" stroke="#333333" stroke-width="2"/>
    <rect x="90.0" y="240.0" width="120.0" height="40.0" rx="10" ry="10" fill="#f0f0f0" stroke="#333333" stroke-width="1.5"/>
    <text x="150.0" y="260.0" dy="5" fill="#000000">foo1</text>
    <rect x="90.0" y="360.0" width="120.0" height="40.0" rx="0" ry="0" fill="#f0f0f0" stroke="#333333" stroke-width="1.5"/>
    <text x="150.0" y="380.0" dy="5" fill="#000000">legacy</text>
    <rect x="90.0" y="480.0" width="120.0" height="40.0" rx="10" ry="10" fill="#f0f0f0" stroke="#333333" stroke-width="1.5"/>
    <text x="150.0" y="500.0" dy="5" fill="#000000">foo2</text>
    <rect x="90.0" y="600.0" width="120.0" height="40.0" rx="10" ry="10" fill="#f0f0f0" stroke="#333333" stroke-width="1.5"/>
    <text x="150.0" y="620.0" dy="5" fill="#000000">foo3</text>
    <rect x="90.0" y="720.0" width="120.0" height="40.0" rx="10" ry="10" fill="#f0f0f0" stroke="#333333" stroke-width="1.5"/>
    <text x="150.0" y="740.0" dy="5" fill="#000000">foo4</text>
    <rect x="690.0" y="840.0" width="120.0" height="40.0" rx="10" ry="10" fill="#f0f0f0" stroke="#333333" stroke-width="1.5"/>
    <text x="750.0" y="860.0" dy="5" fill="#000000">foo5</text>
    <circle cx="750.0" cy="980.0" r="15" fill="none" stroke="#333333" stroke-width="2"/>
    <circle cx="750.0" cy="980.0" r="10" fill="#333333" stroke="#333333" stroke-width="2"/>
  </g>
</svg>
