<svg xmlns="http://www.w3.org/2000/svg" xmlns:xlink="http://www.w3.org/1999/xlink" contentStyleType="text/css" data-diagram-type="ACTIVITY" height="288px" preserveAspectRatio="none" style="width:301px;height:288px;background:#FFFFFF;" version="1.1" viewBox="0 0 301 288" width="301px" zoomAndPan="magnify"><?plantuml 1.2026.3beta5?><defs/><g><rect fill="none" height="20.9531" style="stroke:none;stroke-width:1;" width="254.3159" x="20" y="17.7451"/><rect fill="#98FB98" height="249.8594" style="stroke:#98FB98;stroke-width:1;" width="106.293" x="20" y="17.7451"/><ellipse cx="74.1465" cy="53.6982" fill="#222222" rx="10" ry="10" style="stroke:#222222;stroke-width:1;"/><rect fill="#F1F1F1" height="33.9688" rx="12.5" ry="12.5" style="stroke:#181818;stroke-width:0.5;" width="60.1895" x="44.0518" y="83.6982"/><text fill="#000000" font-family="sans-serif" font-size="12" lengthAdjust="spacing" textLength="40.1895" x="54.0518" y="104.8369">go fish</text><line style="stroke:#000000;stroke-width:1.5;" x1="20" x2="20" y1="17.7451" y2="267.6045"/><rect fill="#F1F1F1" height="33.9688" rx="12.5" ry="12.5" style="stroke:#181818;stroke-width:0.5;" width="61.4902" x="132.293" y="137.667"/><text fill="#000000" font-family="sans-serif" font-size="12" lengthAdjust="spacing" textLength="41.4902" x="142.293" y="158.8057">fry fish</text><line style="stroke:#000000;stroke-width:1.5;" x1="126.293" x2="126.293" y1="17.7451" y2="267.6045"/><rect fill="#FFD700" height="249.8594" style="stroke:#FFD700;stroke-width:1;" width="74.6719" x="197.7832" y="17.7451"/><rect fill="#F1F1F1" height="33.9688" rx="12.5" ry="12.5" style="stroke:#181818;stroke-width:0.5;" width="64.6719" x="203.7832" y="191.6357"/><text fill="#000000" font-family="sans-serif" font-size="12" lengthAdjust="spacing" textLength="44.6719" x="213.7832" y="212.7744">eat fish</text><ellipse cx="236.1191" cy="256.6045" fill="none" rx="11" ry="11" style="stroke:#222222;stroke-width:1;"/><ellipse cx="236.1191" cy="256.6045" fill="#222222" rx="6" ry="6" style="stroke:#222222;stroke-width:1;"/><line style="stroke:#000000;stroke-width:1.5;" x1="197.7832" x2="197.7832" y1="17.7451" y2="267.6045"/><line style="stroke:#000000;stroke-width:1.5;" x1="272.4551" x2="272.4551" y1="17.7451" y2="267.6045"/><line style="stroke:#181818;stroke-width:1;" x1="74.1465" x2="74.1465" y1="63.6982" y2="83.6982"/><polygon fill="#181818" points="70.1465,73.6982,74.1465,83.6982,78.1465,73.6982,74.1465,77.6982" style="stroke:#181818;stroke-width:1;"/><line style="stroke:#181818;stroke-width:1;" x1="236.1191" x2="236.1191" y1="225.6045" y2="245.6045"/><polygon fill="#181818" points="232.1191,235.6045,236.1191,245.6045,240.1191,235.6045,236.1191,239.6045" style="stroke:#181818;stroke-width:1;"/><line style="stroke:#181818;stroke-width:1;" x1="74.1465" x2="74.1465" y1="117.667" y2="122.667"/><line style="stroke:#181818;stroke-width:1;" x1="74.1465" x2="163.0381" y1="122.667" y2="122.667"/><line style="stroke:#181818;stroke-width:1;" x1="163.0381" x2="163.0381" y1="122.667" y2="137.667"/><polygon fill="#181818" points="159.0381,127.667,163.0381,137.667,167.0381,127.667,163.0381,131.667" style="stroke:#181818;stroke-width:1;"/><line style="stroke:#181818;stroke-width:1;" x1="163.0381" x2="163.0381" y1="171.6357" y2="176.6357"/><line style="stroke:#181818;stroke-width:1;" x1="163.0381" x2="236.1191" y1="176.6357" y2="176.6357"/><line style="stroke:#181818;stroke-width:1;" x1="236.1191" x2="236.1191" y1="176.6357" y2="191.6357"/><polygon fill="#181818" points="232.1191,181.6357,236.1191,191.6357,240.1191,181.6357,236.1191,185.6357" style="stroke:#181818;stroke-width:1;"/><text fill="#000000" font-family="sans-serif" font-size="18" lengthAdjust="spacing" textLength="90.5713" x="30.7217" y="34.4531">fisherman</text><text fill="#000000" font-family="sans-serif" font-size="18" lengthAdjust="spacing" textLength="42.3457" x="143.7261" y="34.4531">cook</text><text fill="#000000" font-family="sans-serif" font-size="18" lengthAdjust="spacing" textLength="47.6367" x="214.1616" y="34.4531">eater</text><?plantuml-src DSj12e0W44RX_Pn2y1Ps6h5VYyoHSJR173wBMZxudlaUAue0pRAvl8yDSiP6bimbveFC5wwhmHoYGcWo6Xf5AHH-X-N15B9SVsBcr5yEvNu3?></g></svg>