<svg xmlns="http://www.w3.org/2000/svg" xmlns:xlink="http://www.w3.org/1999/xlink" contentStyleType="text/css" data-diagram-type="ACTIVITY" height="396px" preserveAspectRatio="none" style="width:266px;height:396px;background:#FFFFFF;" version="1.1" viewBox="0 0 266 396" width="266px" zoomAndPan="magnify"><?plantuml 1.2026.3beta5?><defs/><g><rect fill="none" height="20.9531" style="stroke:none;stroke-width:1;" width="219.1577" x="20" y="17.7451"/><ellipse cx="75.3242" cy="53.6982" fill="#222222" rx="10" ry="10" style="stroke:#222222;stroke-width:1;"/><rect fill="#F1F1F1" height="33.9688" rx="12.5" ry="12.5" style="stroke:#181818;stroke-width:0.5;" width="46.543" x="52.0527" y="83.6982"/><text fill="#000000" font-family="sans-serif" font-size="12" lengthAdjust="spacing" textLength="26.543" x="62.0527" y="104.8369">foo1</text><rect fill="#F1F1F1" height="33.9688" rx="12.5" ry="12.5" style="stroke:#181818;stroke-width:0.5;" width="46.543" x="52.0527" y="245.6045"/><text fill="#000000" font-family="sans-serif" font-size="12" lengthAdjust="spacing" textLength="26.543" x="62.0527" y="266.7432">foo4</text><line style="stroke:#000000;stroke-width:1.5;" x1="20" x2="20" y1="17.7451" y2="375.542"/><rect fill="#FAEBD7" height="357.7969" style="stroke:#FAEBD7;stroke-width:1;" width="108.6484" x="128.6484" y="17.7451"/><rect fill="#F1F1F1" height="33.9688" rx="12.5" ry="12.5" style="stroke:#181818;stroke-width:0.5;" width="46.543" x="160.7012" y="137.667"/><text fill="#000000" font-family="sans-serif" font-size="12" lengthAdjust="spacing" textLength="26.543" x="170.7012" y="158.8057">foo2</text><rect fill="#F1F1F1" height="33.9688" rx="12.5" ry="12.5" style="stroke:#181818;stroke-width:0.5;" width="46.543" x="160.7012" y="191.6357"/><text fill="#000000" font-family="sans-serif" font-size="12" lengthAdjust="spacing" textLength="26.543" x="170.7012" y="212.7744">foo3</text><rect fill="#F1F1F1" height="33.9688" rx="12.5" ry="12.5" style="stroke:#181818;stroke-width:0.5;" width="46.543" x="160.7012" y="299.5732"/><text fill="#000000" font-family="sans-serif" font-size="12" lengthAdjust="spacing" textLength="26.543" x="170.7012" y="320.7119">foo5</text><ellipse cx="183.9727" cy="364.542" fill="none" rx="11" ry="11" style="stroke:#222222;stroke-width:1;"/><ellipse cx="183.9727" cy="364.542" fill="#222222" rx="6" ry="6" style="stroke:#222222;stroke-width:1;"/><line style="stroke:#000000;stroke-width:1.5;" x1="128.6484" x2="128.6484" y1="17.7451" y2="375.542"/><line style="stroke:#000000;stroke-width:1.5;" x1="237.2969" x2="237.2969" y1="17.7451" y2="375.542"/><line style="stroke:#181818;stroke-width:1;" x1="75.3242" x2="75.3242" y1="63.6982" y2="83.6982"/><polygon fill="#181818" points="71.3242,73.6982,75.3242,83.6982,79.3242,73.6982,75.3242,77.6982" style="stroke:#181818;stroke-width:1;"/><line style="stroke:#181818;stroke-width:1;" x1="183.9727" x2="183.9727" y1="171.6357" y2="191.6357"/><polygon fill="#181818" points="179.9727,181.6357,183.9727,191.6357,187.9727,181.6357,183.9727,185.6357" style="stroke:#181818;stroke-width:1;"/><line style="stroke:#181818;stroke-width:1;" x1="183.9727" x2="183.9727" y1="333.542" y2="353.542"/><polygon fill="#181818" points="179.9727,343.542,183.9727,353.542,187.9727,343.542,183.9727,347.542" style="stroke:#181818;stroke-width:1;"/><line style="stroke:#181818;stroke-width:1;" x1="75.3242" x2="75.3242" y1="117.667" y2="122.667"/><line style="stroke:#181818;stroke-width:1;" x1="75.3242" x2="183.9727" y1="122.667" y2="122.667"/><line style="stroke:#181818;stroke-width:1;" x1="183.9727" x2="183.9727" y1="122.667" y2="137.667"/><polygon fill="#181818" points="179.9727,127.667,183.9727,137.667,187.9727,127.667,183.9727,131.667" style="stroke:#181818;stroke-width:1;"/><line style="stroke:#181818;stroke-width:1;" x1="183.9727" x2="183.9727" y1="225.6045" y2="230.6045"/><line style="stroke:#181818;stroke-width:1;" x1="183.9727" x2="75.3242" y1="230.6045" y2="230.6045"/><line style="stroke:#181818;stroke-width:1;" x1="75.3242" x2="75.3242" y1="230.6045" y2="245.6045"/><polygon fill="#181818" points="71.3242,235.6045,75.3242,245.6045,79.3242,235.6045,75.3242,239.6045" style="stroke:#181818;stroke-width:1;"/><line style="stroke:#181818;stroke-width:1;" x1="75.3242" x2="75.3242" y1="279.5732" y2="284.5732"/><line style="stroke:#181818;stroke-width:1;" x1="75.3242" x2="183.9727" y1="284.5732" y2="284.5732"/><line style="stroke:#181818;stroke-width:1;" x1="183.9727" x2="183.9727" y1="284.5732" y2="299.5732"/><polygon fill="#181818" points="179.9727,289.5732,183.9727,299.5732,187.9727,289.5732,183.9727,293.5732" style="stroke:#181818;stroke-width:1;"/><text fill="#000000" font-family="sans-serif" font-size="18" lengthAdjust="spacing" textLength="98.6484" x="25" y="34.4531">Swimlane1</text><text fill="#000000" font-family="sans-serif" font-size="18" lengthAdjust="spacing" textLength="98.6484" x="133.6484" y="34.4531">Swimlane2</text><?plantuml-src gmakpypDISnBDQpXAYv9B2hXiahBppUqvgfHTimhoImiJGtFo2n9hO4fCwe1Ap2o1bF6G7L81e24J924e8fDhO56vnS00000?></g></svg>