<svg xmlns="http://www.w3.org/2000/svg" xmlns:xlink="http://www.w3.org/1999/xlink" contentStyleType="text/css" data-diagram-type="ACTIVITY" height="254px" preserveAspectRatio="none" style="width:566px;height:254px;background:#FFFFFF;" version="1.1" viewBox="0 0 566 254" width="566px" zoomAndPan="magnify"><?plantuml 1.2026.3beta5?><defs/><g><ellipse cx="280.9187" cy="25" fill="#222222" rx="10" ry="10" style="stroke:#222222;stroke-width:1;"/><polygon fill="#F1F1F1" points="267.4373,55,294.4001,55,306.4001,67,294.4001,79,267.4373,79,255.4373,67,267.4373,55" style="stroke:#181818;stroke-width:0.5;"/><text fill="#000000" font-family="sans-serif" font-size="11" lengthAdjust="spacing" textLength="26.9629" x="267.4373" y="70.8081">test?</text><rect fill="#F1F1F1" height="33.9688" rx="12.5" ry="12.5" style="stroke:#181818;stroke-width:0.5;" width="57.9688" x="16" y="114.6094"/><text fill="#000000" font-family="sans-serif" font-size="12" lengthAdjust="spacing" textLength="37.9688" x="26" y="135.748">Text 1</text><rect fill="#F1F1F1" height="33.9688" rx="12.5" ry="12.5" style="stroke:#181818;stroke-width:0.5;" width="57.9688" x="123.8579" y="114.6094"/><text fill="#000000" font-family="sans-serif" font-size="12" lengthAdjust="spacing" textLength="37.9688" x="133.8579" y="135.748">Text 2</text><rect fill="#F1F1F1" height="33.9688" rx="12.5" ry="12.5" style="stroke:#181818;stroke-width:0.5;" width="57.9688" x="231.7373" y="114.6094"/><text fill="#000000" font-family="sans-serif" font-size="12" lengthAdjust="spacing" textLength="37.9688" x="241.7373" y="135.748">Text 3</text><rect fill="#F1F1F1" height="33.9688" rx="12.5" ry="12.5" style="stroke:#181818;stroke-width:0.5;" width="57.9688" x="339.751" y="114.6094"/><text fill="#000000" font-family="sans-serif" font-size="12" lengthAdjust="spacing" textLength="37.9688" x="349.751" y="135.748">Text 4</text><rect fill="#F1F1F1" height="33.9688" rx="12.5" ry="12.5" style="stroke:#181818;stroke-width:0.5;" width="57.9688" x="448.5542" y="114.6094"/><text fill="#000000" font-family="sans-serif" font-size="12" lengthAdjust="spacing" textLength="37.9688" x="458.5542" y="135.748">Text 5</text><polygon fill="#F1F1F1" points="280.9187,168.5781,280.9187,168.5781,292.9187,180.5781,280.9187,192.5781,280.9187,192.5781,268.9187,180.5781,280.9187,168.5781" style="stroke:#181818;stroke-width:0.5;"/><ellipse cx="280.9187" cy="223.5781" fill="none" rx="11" ry="11" style="stroke:#222222;stroke-width:1;"/><ellipse cx="280.9187" cy="223.5781" fill="#222222" rx="6" ry="6" style="stroke:#222222;stroke-width:1;"/><line style="stroke:#181818;stroke-width:1;" x1="255.4373" x2="44.9844" y1="67" y2="67"/><line style="stroke:#181818;stroke-width:1;" x1="44.9844" x2="44.9844" y1="67" y2="114.6094"/><polygon fill="#181818" points="40.9844,104.6094,44.9844,114.6094,48.9844,104.6094,44.9844,108.6094" style="stroke:#181818;stroke-width:1;"/><text fill="#000000" font-family="sans-serif" font-size="11" lengthAdjust="spacing" textLength="61.8804" x="48.481" y="94.6128">condition A</text><line style="stroke:#181818;stroke-width:1;" x1="306.4001" x2="477.5386" y1="67" y2="67"/><line style="stroke:#181818;stroke-width:1;" x1="477.5386" x2="477.5386" y1="67" y2="114.6094"/><polygon fill="#181818" points="473.5386,104.6094,477.5386,114.6094,481.5386,104.6094,477.5386,108.6094" style="stroke:#181818;stroke-width:1;"/><text fill="#000000" font-family="sans-serif" font-size="11" lengthAdjust="spacing" textLength="61.3057" x="481.0352" y="94.6128">condition E</text><line style="stroke:#181818;stroke-width:1;" x1="152.8423" x2="152.8423" y1="67" y2="114.6094"/><polygon fill="#181818" points="148.8423,104.6094,152.8423,114.6094,156.8423,104.6094,152.8423,108.6094" style="stroke:#181818;stroke-width:1;"/><text fill="#000000" font-family="sans-serif" font-size="11" lengthAdjust="spacing" textLength="61.9019" x="156.3389" y="89.6128">condition B</text><line style="stroke:#181818;stroke-width:1;" x1="280.9187" x2="280.9187" y1="79" y2="90.8698"/><line style="stroke:#181818;stroke-width:1;" x1="280.9187" x2="260.7217" y1="90.8698" y2="90.8698"/><line style="stroke:#181818;stroke-width:1;" x1="260.7217" x2="260.7217" y1="90.8698" y2="114.6094"/><polygon fill="#181818" points="256.7217,104.6094,260.7217,114.6094,264.7217,104.6094,260.7217,108.6094" style="stroke:#181818;stroke-width:1;"/><text fill="#000000" font-family="sans-serif" font-size="11" lengthAdjust="spacing" textLength="62.0361" x="264.2183" y="95.6128">condition C</text><line style="stroke:#181818;stroke-width:1;" x1="368.7354" x2="368.7354" y1="67" y2="114.6094"/><polygon fill="#181818" points="364.7354,104.6094,368.7354,114.6094,372.7354,104.6094,368.7354,108.6094" style="stroke:#181818;stroke-width:1;"/><text fill="#000000" font-family="sans-serif" font-size="11" lengthAdjust="spacing" textLength="62.8257" x="372.2319" y="89.6128">condition D</text><line style="stroke:#181818;stroke-width:1;" x1="44.9844" x2="44.9844" y1="148.5781" y2="180.5781"/><line style="stroke:#181818;stroke-width:1;" x1="44.9844" x2="268.9187" y1="180.5781" y2="180.5781"/><polygon fill="#181818" points="258.9187,176.5781,268.9187,180.5781,258.9187,184.5781,262.9187,180.5781" style="stroke:#181818;stroke-width:1;"/><line style="stroke:#181818;stroke-width:1;" x1="477.5386" x2="477.5386" y1="148.5781" y2="180.5781"/><line style="stroke:#181818;stroke-width:1;" x1="477.5386" x2="292.9187" y1="180.5781" y2="180.5781"/><polygon fill="#181818" points="302.9187,176.5781,292.9187,180.5781,302.9187,184.5781,298.9187,180.5781" style="stroke:#181818;stroke-width:1;"/><line style="stroke:#181818;stroke-width:1;" x1="152.8423" x2="152.8423" y1="148.5781" y2="180.5781"/><polygon fill="#181818" points="148.8423,170.5781,152.8423,180.5781,156.8423,170.5781,152.8423,174.5781" style="stroke:#181818;stroke-width:1;"/><line style="stroke:#181818;stroke-width:1;" x1="260.7217" x2="260.7217" y1="148.5781" y2="153.5781"/><line style="stroke:#181818;stroke-width:1;" x1="260.7217" x2="280.9187" y1="153.5781" y2="153.5781"/><line style="stroke:#181818;stroke-width:1;" x1="280.9187" x2="280.9187" y1="153.5781" y2="168.5781"/><polygon fill="#181818" points="276.9187,158.5781,280.9187,168.5781,284.9187,158.5781,280.9187,162.5781" style="stroke:#181818;stroke-width:1;"/><line style="stroke:#181818;stroke-width:1;" x1="368.7354" x2="368.7354" y1="148.5781" y2="180.5781"/><polygon fill="#181818" points="364.7354,170.5781,368.7354,180.5781,372.7354,170.5781,368.7354,174.5781" style="stroke:#181818;stroke-width:1;"/><line style="stroke:#181818;stroke-width:1;" x1="280.9187" x2="280.9187" y1="35" y2="55"/><polygon fill="#181818" points="276.9187,45,280.9187,55,284.9187,45,280.9187,49" style="stroke:#181818;stroke-width:1;"/><line style="stroke:#181818;stroke-width:1;" x1="280.9187" x2="280.9187" y1="192.5781" y2="212.5781"/><polygon fill="#181818" points="276.9187,202.5781,280.9187,212.5781,284.9187,202.5781,280.9187,206.5781" style="stroke:#181818;stroke-width:1;"/><?plantuml-src Aov9B2hXAYxFB4dEKD0eIIqkiTVaIauiJbNGK4ZEpql9BCdCprDmLD3aKb2m2acjA54mjCQKTrBGL80hCCAYm1d906CiyYv8yYPOv5sHv4sjkLBpKY1EvYekoIy00000?></g></svg>