<svg xmlns="http://www.w3.org/2000/svg" xmlns:xlink="http://www.w3.org/1999/xlink" contentStyleType="text/css" data-diagram-type="ACTIVITY" height="207px" preserveAspectRatio="none" style="width:227px;height:207px;background:#FFFFFF;" version="1.1" viewBox="0 0 227 207" width="227px" zoomAndPan="magnify"><?plantuml 1.2026.3beta5?><defs/><g><rect fill="#F1F1F1" height="33.9688" rx="12.5" ry="12.5" style="stroke:#181818;stroke-width:0.5;" width="69.377" x="69.1584" y="77.7036"/><text fill="#000000" font-family="sans-serif" font-size="12" lengthAdjust="spacing" textLength="49.377" x="79.1584" y="98.8423">read file</text><polygon fill="#F1F1F1" points="62.2881,16.8989,145.4058,16.8989,157.4058,28.8989,145.4058,40.8989,62.2881,40.8989,50.2881,28.8989,62.2881,16.8989" style="stroke:#181818;stroke-width:0.5;"/><text fill="#000000" font-family="sans-serif" font-size="11" lengthAdjust="spacing" textLength="56.7993" x="107.8469" y="51.1094">not empty</text><text fill="#000000" font-family="sans-serif" font-size="11" lengthAdjust="spacing" textLength="83.1177" x="62.2881" y="32.707">check filesize ?</text><text fill="#000000" font-family="sans-serif" font-size="11" lengthAdjust="spacing" textLength="35.2881" x="15" y="26.3047">empty</text><rect fill="#F1F1F1" height="33.9688" rx="12.5" ry="12.5" style="stroke:#181818;stroke-width:0.5;" width="38.293" x="169.4058" y="59.3013"/><text fill="#000000" font-family="sans-serif" font-size="12" lengthAdjust="spacing" textLength="18.293" x="179.4058" y="80.4399">log</text><rect fill="#F1F1F1" height="33.9688" rx="12.5" ry="12.5" style="stroke:#181818;stroke-width:0.5;" width="72.998" x="67.3479" y="153.6724"/><text fill="#000000" font-family="sans-serif" font-size="12" lengthAdjust="spacing" textLength="52.998" x="77.3479" y="174.811">close file</text><line style="stroke:#181818;stroke-width:1;" x1="103.8469" x2="103.8469" y1="40.8989" y2="77.7036"/><polygon fill="#181818" points="99.8469,67.7036,103.8469,77.7036,107.8469,67.7036,103.8469,71.7036" style="stroke:#181818;stroke-width:1;"/><line style="stroke:#181818;stroke-width:1;" x1="103.8469" x2="103.8469" y1="111.6724" y2="121.6724"/><line style="stroke:#181818;stroke-width:1;" x1="103.8469" x2="188.5522" y1="121.6724" y2="121.6724"/><line style="stroke:#181818;stroke-width:1;" x1="188.5522" x2="188.5522" y1="93.27" y2="121.6724"/><polygon fill="#181818" points="184.5522,103.27,188.5522,93.27,192.5522,103.27,188.5522,99.27" style="stroke:#181818;stroke-width:1;"/><line style="stroke:#181818;stroke-width:1;" x1="188.5522" x2="188.5522" y1="28.8989" y2="59.3013"/><line style="stroke:#181818;stroke-width:1;" x1="188.5522" x2="157.4058" y1="28.8989" y2="28.8989"/><polygon fill="#181818" points="167.4058,24.8989,157.4058,28.8989,167.4058,32.8989,163.4058,28.8989" style="stroke:#181818;stroke-width:1;"/><line style="stroke:#181818;stroke-width:1;" x1="50.2881" x2="38.2881" y1="28.8989" y2="28.8989"/><polygon fill="#181818" points="34.2881,72.2856,38.2881,82.2856,42.2881,72.2856,38.2881,76.2856" style="stroke:#181818;stroke-width:1;"/><line style="stroke:#181818;stroke-width:1;" x1="38.2881" x2="38.2881" y1="28.8989" y2="133.6724"/><line style="stroke:#181818;stroke-width:1;" x1="38.2881" x2="103.8469" y1="133.6724" y2="133.6724"/><line style="stroke:#181818;stroke-width:1;" x1="103.8469" x2="103.8469" y1="133.6724" y2="153.6724"/><polygon fill="#181818" points="99.8469,143.6724,103.8469,153.6724,107.8469,143.6724,103.8469,147.6724" style="stroke:#181818;stroke-width:1;"/><?plantuml-src Ay_8p4bLq4ZEI4tELaW3ieipgr8Lx3KLCeiLDFBoInHISmjAAZMv51IiYb8JKy1Ah86yfCJaxFB4eXIhdFnqQwxKl9HoY45GvLR9EVd5gH3L0000?></g></svg>