<svg xmlns="http://www.w3.org/2000/svg" xmlns:xlink="http://www.w3.org/1999/xlink" contentStyleType="text/css" data-diagram-type="ACTIVITY" height="339px" preserveAspectRatio="none" style="width:186px;height:339px;background:#FFFFFF;" version="1.1" viewBox="0 0 186 339" width="186px" zoomAndPan="magnify"><?plantuml 1.2026.3beta5?><defs/><g><rect fill="#F1F1F1" height="33.9688" rx="12.5" ry="12.5" style="stroke:#181818;stroke-width:0.5;" width="150" x="16" y="16"/><text fill="#000000" font-family="sans-serif" font-size="12" lengthAdjust="spacing" textLength="49.2422" x="26" y="37.1387">Action 1</text><rect fill="#F1F1F1" height="33.9688" rx="12.5" ry="12.5" style="stroke:#181818;stroke-width:0.5;" width="150" x="16" y="69.9688"/><ellipse cx="31.5" cy="86.4375" fill="#000000" rx="2.5" ry="2.5"/><text fill="#000000" font-family="sans-serif" font-size="12" lengthAdjust="spacing" textLength="87.8613" x="38" y="91.1074">Sub-Action 1.1</text><rect fill="#F1F1F1" height="33.9688" rx="12.5" ry="12.5" style="stroke:#181818;stroke-width:0.5;" width="150" x="16" y="123.9375"/><ellipse cx="31.5" cy="140.4063" fill="#000000" rx="2.5" ry="2.5"/><text fill="#000000" font-family="sans-serif" font-size="12" lengthAdjust="spacing" textLength="87.8613" x="38" y="145.0762">Sub-Action 1.2</text><rect fill="#F1F1F1" height="33.9688" rx="12.5" ry="12.5" style="stroke:#181818;stroke-width:0.5;" width="150" x="16" y="177.9063"/><rect fill="#000000" height="3.5" width="3.5" x="35" y="191.875"/><text fill="#000000" font-family="sans-serif" font-size="12" lengthAdjust="spacing" textLength="99.3105" x="42" y="199.0449">Sub-Action 1.2.1</text><rect fill="#F1F1F1" height="33.9688" rx="12.5" ry="12.5" style="stroke:#181818;stroke-width:0.5;" width="150" x="16" y="231.875"/><rect fill="#000000" height="3.5" width="3.5" x="35" y="245.8438"/><text fill="#000000" font-family="sans-serif" font-size="12" lengthAdjust="spacing" textLength="99.3105" x="42" y="253.0137">Sub-Action 1.2.2</text><rect fill="#F1F1F1" height="33.9688" rx="12.5" ry="12.5" style="stroke:#181818;stroke-width:0.5;" width="150" x="16" y="285.8438"/><text fill="#000000" font-family="sans-serif" font-size="12" lengthAdjust="spacing" textLength="49.2422" x="26" y="306.9824">Action 2</text><line style="stroke:#181818;stroke-width:1;" x1="91" x2="91" y1="49.9688" y2="69.9688"/><polygon fill="#181818" points="87,59.9688,91,69.9688,95,59.9688,91,63.9688" style="stroke:#181818;stroke-width:1;"/><line style="stroke:#181818;stroke-width:1;" x1="91" x2="91" y1="103.9375" y2="123.9375"/><polygon fill="#181818" points="87,113.9375,91,123.9375,95,113.9375,91,117.9375" style="stroke:#181818;stroke-width:1;"/><line style="stroke:#181818;stroke-width:1;" x1="91" x2="91" y1="157.9063" y2="177.9063"/><polygon fill="#181818" points="87,167.9063,91,177.9063,95,167.9063,91,171.9063" style="stroke:#181818;stroke-width:1;"/><line style="stroke:#181818;stroke-width:1;" x1="91" x2="91" y1="211.875" y2="231.875"/><polygon fill="#181818" points="87,221.875,91,231.875,95,221.875,91,225.875" style="stroke:#181818;stroke-width:1;"/><line style="stroke:#181818;stroke-width:1;" x1="91" x2="91" y1="265.8438" y2="285.8438"/><polygon fill="#181818" points="87,275.8438,91,285.8438,95,275.8438,91,279.8438" style="stroke:#181818;stroke-width:1;"/><?plantuml-src ioakgSn9jUDApKdDJSqhKQZspSpBp2tD3SzCASbGC3GrgEMoqOUgqL9mJ2x9pCzJCEJIqb88BatIXV7rC4MCW2BeGc1b689628ED0000?></g></svg>