<svg xmlns="http://www.w3.org/2000/svg" xmlns:xlink="http://www.w3.org/1999/xlink" contentStyleType="text/css" data-diagram-type="ACTIVITY" height="409px" preserveAspectRatio="none" style="width:317px;height:409px;" version="1.1" viewBox="0 0 317 409" width="317px" zoomAndPan="magnify"><?plantuml 1.2026.3beta5?><defs/><g><ellipse cx="103.8101" cy="25" fill="#33668E" rx="10" ry="10" style="stroke:#222222;stroke-width:1;"/><rect fill="#33668E" height="33.9688" rx="12.5" ry="12.5" style="stroke:#181818;stroke-width:0.5;" width="38.9785" x="84.3208" y="55"/><text fill="#888888" font-family="arial" font-size="12" lengthAdjust="spacing" textLength="18.9785" x="94.3208" y="76.1387">init</text><polygon fill="#CCCCFF" points="81.3613,135.9673,126.2588,135.9673,138.2588,147.9673,126.2588,159.9673,81.3613,159.9673,69.3613,147.9673,81.3613,135.9673" style="stroke:#00FF00;stroke-width:0.5;"/><text fill="#008000" font-family="arial" font-size="15" lengthAdjust="spacing" textLength="44.8975" x="81.3613" y="153.1602">color?</text><text fill="#FF0000" font-family="arial" font-size="15" lengthAdjust="spacing" textLength="24.917" x="44.4443" y="144.4297">red</text><rect fill="#33668E" height="33.9688" rx="12.5" ry="12.5" style="stroke:#181818;stroke-width:0.5;" width="71.9434" x="16" y="169.9673"/><text fill="#888888" font-family="arial" font-size="12" lengthAdjust="spacing" textLength="51.9434" x="26" y="191.106">print red</text><path d="M223.3535,174.3853 L223.3535,182.9517 L203.3535,186.9517 L223.3535,190.9517 L223.3535,199.5181 A0,0 0 0 0 223.3535,199.5181 L296.6899,199.5181 A0,0 0 0 0 296.6899,199.5181 L296.6899,184.3853 L286.6899,174.3853 L223.3535,174.3853 A0,0 0 0 0 223.3535,174.3853" fill="#CCCCFF" style="stroke:#000080;stroke-width:0.5;"/><path d="M286.6899,174.3853 L286.6899,184.3853 L296.6899,184.3853 L286.6899,174.3853" fill="#CCCCFF" style="stroke:#000080;stroke-width:0.5;"/><text fill="#0000FF" font-family="arial" font-size="13" lengthAdjust="spacing" textLength="52.3364" x="229.3535" y="191.4521">no color</text><rect fill="#33668E" height="33.9688" rx="12.5" ry="12.5" style="stroke:#181818;stroke-width:0.5;" width="95.4102" x="107.9434" y="169.9673"/><text fill="#888888" font-family="arial" font-size="12" lengthAdjust="spacing" textLength="75.4102" x="117.9434" y="191.106">print not red</text><polygon fill="#CCCCFF" points="103.8101,209.936,115.8101,221.936,103.8101,233.936,91.8101,221.936,103.8101,209.936" style="stroke:#00FF00;stroke-width:0.5;"/><rect fill="#FFDAB9" height="82.2656" rx="5" ry="5" style="stroke:#FF0000;stroke-width:1.5;" width="62.6055" x="72.5073" y="243.936"/><path d="M109.1128,243.936 L109.1128,253.2329 L99.1128,263.2329 L72.5073,263.2329" fill="none" style="stroke:#FF0000;stroke-width:1.5;"/><text fill="#008000" font-family="arial" font-size="14" lengthAdjust="spacing" textLength="26.6055" x="75.5073" y="257.9312">End</text><rect fill="#33668E" height="33.9688" rx="12.5" ry="12.5" style="stroke:#181818;stroke-width:0.5;" width="42.6055" x="82.5073" y="280.2329"/><text fill="#888888" font-family="arial" font-size="12" lengthAdjust="spacing" textLength="22.6055" x="92.5073" y="301.3716">end</text><ellipse cx="103.8101" cy="379.125" fill="none" rx="10" ry="10" style="stroke:#222222;stroke-width:1.5;"/><line style="stroke:#222222;stroke-width:2.5;" x1="97.6229" x2="109.9972" y1="372.9378" y2="385.3122"/><line style="stroke:#222222;stroke-width:2.5;" x1="109.9972" x2="97.6229" y1="372.9378" y2="385.3122"/><line style="stroke:#181818;stroke-width:1;" x1="103.8101" x2="103.8101" y1="35" y2="55"/><polygon fill="#181818" points="99.8101,45,103.8101,55,107.8101,45,103.8101,49" style="stroke:#181818;stroke-width:1;"/><line style="stroke:#181818;stroke-width:1;" x1="69.3613" x2="51.9717" y1="147.9673" y2="147.9673"/><line style="stroke:#181818;stroke-width:1;" x1="51.9717" x2="51.9717" y1="147.9673" y2="169.9673"/><polygon fill="#181818" points="47.9717,159.9673,51.9717,169.9673,55.9717,159.9673,51.9717,163.9673" style="stroke:#181818;stroke-width:1;"/><line style="stroke:#181818;stroke-width:1;" x1="138.2588" x2="155.6484" y1="147.9673" y2="147.9673"/><line style="stroke:#181818;stroke-width:1;" x1="155.6484" x2="155.6484" y1="147.9673" y2="169.9673"/><polygon fill="#181818" points="151.6484,159.9673,155.6484,169.9673,159.6484,159.9673,155.6484,163.9673" style="stroke:#181818;stroke-width:1;"/><line style="stroke:#181818;stroke-width:1;" x1="51.9717" x2="51.9717" y1="203.936" y2="221.936"/><line style="stroke:#181818;stroke-width:1;" x1="51.9717" x2="91.8101" y1="221.936" y2="221.936"/><polygon fill="#181818" points="81.8101,217.936,91.8101,221.936,81.8101,225.936,85.8101,221.936" style="stroke:#181818;stroke-width:1;"/><line style="stroke:#181818;stroke-width:1;" x1="155.6484" x2="155.6484" y1="203.936" y2="221.936"/><line style="stroke:#181818;stroke-width:1;" x1="155.6484" x2="115.8101" y1="221.936" y2="221.936"/><polygon fill="#181818" points="125.8101,217.936,115.8101,221.936,125.8101,225.936,121.8101,221.936" style="stroke:#181818;stroke-width:1;"/><line style="stroke:#181818;stroke-width:1;" x1="103.8101" x2="103.8101" y1="88.9688" y2="135.9673"/><polygon fill="#181818" points="99.8101,125.9673,103.8101,135.9673,107.8101,125.9673,103.8101,129.9673" style="stroke:#181818;stroke-width:1;"/><text fill="#FFD700" font-family="arial" font-size="15" lengthAdjust="spacing" textLength="89.7363" x="107.8101" y="114.9297">test of color</text><line style="stroke:#181818;stroke-width:1;" x1="103.8101" x2="103.8101" y1="233.936" y2="280.2329"/><polygon fill="#181818" points="99.8101,270.2329,103.8101,280.2329,107.8101,270.2329,103.8101,274.2329" style="stroke:#181818;stroke-width:1;"/><line style="stroke:#181818;stroke-width:1;" x1="103.8101" x2="103.8101" y1="314.2017" y2="369.125"/><polygon fill="#181818" points="99.8101,359.125,103.8101,369.125,107.8101,359.125,103.8101,363.125" style="stroke:#181818;stroke-width:1;"/><text fill="#FFD700" font-family="arial" font-size="15" lengthAdjust="spacing" textLength="106.5308" x="107.8101" y="347.625">this is the end</text><?plantuml-src ZPBHQi9044NVzoi6-g8FfH6fX4GisEfJ4Mc_OCbEag79hams5blyzuwRMCNQKiY6xDd9lNE7dJP-L-5CwSpJblpkYNJ1kePF1J3NsLl1hhNcqLMEuMOydapYnU74iK6-f4jdVS_YEEx1IjS8cabNIeWXNJjhWlmLWopBmy4pMUnH52sNKHJeIRzWHFlDpYoEw9K-44Rtij_BqipklVSy4t6L-R_6HhCdJyxsEgSM6SslxRrquTWYmoYw6dgDEYlNRPxtHjPv_D7hl6hnmdQbjxk_fhXNUsLSrjPeVQTtMUXPsqPoIO7KJk_wgz1uYQeIikHJTJi3Zuq7bqDs-2bLbCCWV3uCWHeOJCCcaIdCP0t1bv8zsJ29hO1KOTKW78cawsY8oLIKFX7OYIkqXd9r6lKYN9L4S2eT7defnL8UCO50vVK5?></g></svg>