<svg xmlns="http://www.w3.org/2000/svg" xmlns:xlink="http://www.w3.org/1999/xlink" contentStyleType="text/css" data-diagram-type="JSON" height="240px" preserveAspectRatio="none" style="width:218px;height:240px;background:#FFFFFF;" version="1.1" viewBox="0 0 218 240" width="218px" zoomAndPan="magnify"><?plantuml 1.2026.3beta5?><defs/><g><rect fill="#F1F1F1" height="60.8906" rx="5" ry="5" style="stroke:#F1F1F1;stroke-width:1.5;" width="99.1191" x="10" y="89"/><text fill="#000000" font-family="sans-serif" font-size="14" font-weight="700" lengthAdjust="spacing" textLength="65.7686" x="15" y="103.9951">Numeric</text><text fill="#000000" font-family="sans-serif" font-size="14" lengthAdjust="spacing" textLength="13.3506" x="90.7686" y="103.9951">&#160;&#160;&#160;</text><line style="stroke:#000000;stroke-width:1;" x1="85.7686" x2="85.7686" y1="89" y2="109.2969"/><line style="stroke:#000000;stroke-width:1;" x1="10" x2="109.1191" y1="109.2969" y2="109.2969"/><text fill="#000000" font-family="sans-serif" font-size="14" font-weight="700" lengthAdjust="spacing" textLength="48.4668" x="15" y="124.292">String</text><text fill="#000000" font-family="sans-serif" font-size="14" lengthAdjust="spacing" textLength="13.3506" x="90.7686" y="124.292">&#160;&#160;&#160;</text><line style="stroke:#000000;stroke-width:1;" x1="85.7686" x2="85.7686" y1="109.2969" y2="129.5938"/><line style="stroke:#000000;stroke-width:1;" x1="10" x2="109.1191" y1="129.5938" y2="129.5938"/><text fill="#000000" font-family="sans-serif" font-size="14" font-weight="700" lengthAdjust="spacing" textLength="63.6152" x="15" y="144.5889">Boolean</text><text fill="#000000" font-family="sans-serif" font-size="14" lengthAdjust="spacing" textLength="13.3506" x="90.7686" y="144.5889">&#160;&#160;&#160;</text><line style="stroke:#000000;stroke-width:1;" x1="85.7686" x2="85.7686" y1="129.5938" y2="149.8906"/><rect fill="none" height="60.8906" rx="5" ry="5" style="stroke:#000000;stroke-width:1.5;" width="99.1191" x="10" y="89"/><rect fill="#F1F1F1" height="60.8906" rx="5" ry="5" style="stroke:#F1F1F1;stroke-width:1.5;" width="18.9072" x="166.5" y="10"/><text fill="#000000" font-family="sans-serif" font-size="14" lengthAdjust="spacing" textLength="8.9072" x="171.5" y="24.9951">1</text><line style="stroke:#000000;stroke-width:1;" x1="166.5" x2="185.4072" y1="30.2969" y2="30.2969"/><text fill="#000000" font-family="sans-serif" font-size="14" lengthAdjust="spacing" textLength="8.9072" x="171.5" y="45.292">2</text><line style="stroke:#000000;stroke-width:1;" x1="166.5" x2="185.4072" y1="50.5938" y2="50.5938"/><text fill="#000000" font-family="sans-serif" font-size="14" lengthAdjust="spacing" textLength="8.9072" x="171.5" y="65.5889">3</text><rect fill="none" height="60.8906" rx="5" ry="5" style="stroke:#000000;stroke-width:1.5;" width="18.9072" x="166.5" y="10"/><rect fill="#F1F1F1" height="60.8906" rx="5" ry="5" style="stroke:#F1F1F1;stroke-width:1.5;" width="36.0791" x="158" y="89"/><text fill="#000000" font-family="sans-serif" font-size="14" lengthAdjust="spacing" textLength="25.7715" x="163" y="103.9951">v1a</text><line style="stroke:#000000;stroke-width:1;" x1="158" x2="194.0791" y1="109.2969" y2="109.2969"/><text fill="#000000" font-family="sans-serif" font-size="14" lengthAdjust="spacing" textLength="26.0791" x="163" y="124.292">v2b</text><line style="stroke:#000000;stroke-width:1;" x1="158" x2="194.0791" y1="129.5938" y2="129.5938"/><text fill="#000000" font-family="sans-serif" font-size="14" lengthAdjust="spacing" textLength="24.8896" x="163" y="144.5889">v3c</text><rect fill="none" height="60.8906" rx="5" ry="5" style="stroke:#000000;stroke-width:1.5;" width="36.0791" x="158" y="89"/><rect fill="#F1F1F1" height="60.8906" rx="5" ry="5" style="stroke:#F1F1F1;stroke-width:1.5;" width="60.3057" x="146" y="168"/><text fill="#000000" font-family="sans-serif" font-size="14" lengthAdjust="spacing" textLength="45.7324" x="151" y="182.9951">&#9745; true</text><line style="stroke:#000000;stroke-width:1;" x1="146" x2="206.3057" y1="188.2969" y2="188.2969"/><text fill="#000000" font-family="sans-serif" font-size="14" lengthAdjust="spacing" textLength="50.3057" x="151" y="203.292">&#9744; false</text><line style="stroke:#000000;stroke-width:1;" x1="146" x2="206.3057" y1="208.5938" y2="208.5938"/><text fill="#000000" font-family="sans-serif" font-size="14" lengthAdjust="spacing" textLength="45.7324" x="151" y="223.5889">&#9745; true</text><rect fill="none" height="60.8906" rx="5" ry="5" style="stroke:#000000;stroke-width:1.5;" width="60.3057" x="146" y="168"/><path d="M97,99.5 L110,99.5 C122.7447,99.5 146.6293,74.5285 161.765,57.0771" fill="none" style="stroke:#000000;stroke-width:1;stroke-dasharray:3,3;"/><path d="M164.1766,59.1345 L163.3081,55.2683 L159.3534,55.0196 L166.9086,51.048 L164.1766,59.1345" fill="#000000"/><ellipse cx="97" cy="99.5" fill="#000000" rx="3" ry="3" style="stroke:#000000;stroke-width:1;"/><path d="M97,119.5 L110,119.5 C123.4326,119.5 138.4148,119.5 150.6565,119.5" fill="none" style="stroke:#000000;stroke-width:1;stroke-dasharray:3,3;"/><path d="M150.6565,122.542 L152.938,119.5 L150.6565,116.458 L158.2615,119.5 L150.6565,122.542" fill="#000000"/><ellipse cx="97" cy="119.5" fill="#000000" rx="3" ry="3" style="stroke:#000000;stroke-width:1;"/><path d="M97,139.5 L110,139.5 C118.295,139.5 131.309,150.0784 143.5585,162.2766" fill="none" style="stroke:#000000;stroke-width:1;stroke-dasharray:3,3;"/><path d="M141.2839,164.4985 L145.2249,163.9826 L145.8331,160.0548 L149.1131,167.9631 L141.2839,164.4985" fill="#000000"/><ellipse cx="97" cy="139.5" fill="#000000" rx="3" ry="3" style="stroke:#000000;stroke-width:1;"/><?plantuml-src SoWkIImgoIhEp-EgvbBoAyrDBSfCLh9IY3RKKJ3IKJ2ErU5I2YufoinBLm29AfKP9YhfA2YL6IM1AUDa9P0Af_pydDJ4F92AagBIL1s5jCISOY05uiHorN8vfEQbWEtWCjGpCZ0oqpDEIYr9D0K0?></g></svg>