<svg xmlns="http://www.w3.org/2000/svg" xmlns:xlink="http://www.w3.org/1999/xlink" contentStyleType="text/css" data-diagram-type="JSON" height="69px" preserveAspectRatio="none" style="width:121px;height:69px;background:#FFFFFF;" version="1.1" viewBox="0 0 121 69" width="121px" zoomAndPan="magnify"><?plantuml 1.2026.3beta5?><defs/><g><rect fill="#F1F1F1" height="40.5938" rx="5" ry="5" style="stroke:#F1F1F1;stroke-width:1.5;" width="33.3506" x="10" y="13"/><text fill="#000000" font-family="sans-serif" font-size="14" font-weight="700" lengthAdjust="spacing" textLength="0" x="15" y="15">empty_tab</text><text fill="#000000" font-family="sans-serif" font-size="14" lengthAdjust="spacing" textLength="13.3506" x="25" y="27.9951">&#160;&#160;&#160;</text><line style="stroke:#000000;stroke-width:1;" x1="20" x2="20" y1="13" y2="33.2969"/><line style="stroke:#000000;stroke-width:1;" x1="10" x2="43.3506" y1="33.2969" y2="33.2969"/><text fill="#000000" font-family="sans-serif" font-size="14" font-weight="700" lengthAdjust="spacing" textLength="0" x="15" y="35.2969">empty_list</text><text fill="#000000" font-family="sans-serif" font-size="14" lengthAdjust="spacing" textLength="13.3506" x="25" y="48.292">&#160;&#160;&#160;</text><line style="stroke:#000000;stroke-width:1;" x1="20" x2="20" y1="33.2969" y2="53.5938"/><rect fill="none" height="40.5938" rx="5" ry="5" style="stroke:#000000;stroke-width:1.5;" width="33.3506" x="10" y="13"/><rect fill="#F1F1F1" height="15" rx="5" ry="5" style="stroke:#F1F1F1;stroke-width:1.5;" width="30" x="80" y="10"/><rect fill="none" height="15" rx="5" ry="5" style="stroke:#000000;stroke-width:1.5;" width="30" x="80" y="10"/><rect fill="#F1F1F1" height="15" rx="5" ry="5" style="stroke:#F1F1F1;stroke-width:1.5;" width="30" x="80" y="43"/><rect fill="none" height="15" rx="5" ry="5" style="stroke:#000000;stroke-width:1.5;" width="30" x="80" y="43"/><path d="M31,23.5 L44,23.5 C53.7201,23.5 64.5482,22.0117 72.9697,20.5176" fill="none" style="stroke:#000000;stroke-width:1;stroke-dasharray:3,3;"/><path d="M73.5461,23.5132 L75.2164,20.0852 L72.3932,17.522 L80.4587,19.0764 L73.5461,23.5132" fill="#000000"/><ellipse cx="31" cy="23.5" fill="#000000" rx="3" ry="3" style="stroke:#000000;stroke-width:1;"/><path d="M31,43.5 L44,43.5 C53.7528,43.5 64.5811,45.2364 72.9944,46.9795" fill="none" style="stroke:#000000;stroke-width:1;stroke-dasharray:3,3;"/><path d="M72.3219,49.9711 L75.2381,47.4839 L73.6669,43.9879 L80.4734,48.6608 L72.3219,49.9711" fill="#000000"/><ellipse cx="31" cy="43.5" fill="#000000" rx="3" ry="3" style="stroke:#000000;stroke-width:1;"/><?plantuml-src SoWkIImgoIhEp-Egvb9GK4hDBIYfZ2z9J5AoKeYErK48vMGMbm35gckvQhaSKlDIm5gu3FMC38pCz8oJKaiIJG40?></g></svg>