<svg xmlns="http://www.w3.org/2000/svg" xmlns:xlink="http://www.w3.org/1999/xlink" contentStyleType="text/css" data-diagram-type="JSON" height="200px" preserveAspectRatio="none" style="width:368px;height:200px;background:#FFFFFF;" version="1.1" viewBox="0 0 368 200" width="368px" zoomAndPan="magnify"><?plantuml 1.2026.3beta5?><defs/><g><rect fill="#F1F1F1" height="60.8906" rx="5" ry="5" style="stroke:#F1F1F1;stroke-width:1.5;" width="271.624" x="10" y="89"/><text fill="#000000" font-family="sans-serif" font-size="14" font-weight="700" lengthAdjust="spacing" textLength="125.7402" x="15" y="103.9951">DecimalNumber</text><text fill="#000000" font-family="sans-serif" font-size="14" lengthAdjust="spacing" textLength="13.3506" x="263.2734" y="103.9951">&#160;&#160;&#160;</text><line style="stroke:#000000;stroke-width:1;" x1="258.2734" x2="258.2734" y1="89" y2="109.2969"/><line style="stroke:#000000;stroke-width:1;" x1="10" x2="281.624" y1="109.2969" y2="109.2969"/><text fill="#000000" font-family="sans-serif" font-size="14" font-weight="700" lengthAdjust="spacing" textLength="187.0723" x="15" y="124.292">DecimalNumber . Digits</text><text fill="#000000" font-family="sans-serif" font-size="14" lengthAdjust="spacing" textLength="13.3506" x="263.2734" y="124.292">&#160;&#160;&#160;</text><line style="stroke:#000000;stroke-width:1;" x1="258.2734" x2="258.2734" y1="109.2969" y2="129.5938"/><line style="stroke:#000000;stroke-width:1;" x1="10" x2="281.624" y1="129.5938" y2="129.5938"/><text fill="#000000" font-family="sans-serif" font-size="14" font-weight="700" lengthAdjust="spacing" textLength="238.2734" x="15" y="144.5889">DecimalNumber ExponentPart</text><text fill="#000000" font-family="sans-serif" font-size="14" lengthAdjust="spacing" textLength="13.3506" x="263.2734" y="144.5889">&#160;&#160;&#160;</text><line style="stroke:#000000;stroke-width:1;" x1="258.2734" x2="258.2734" y1="129.5938" y2="149.8906"/><rect fill="none" height="60.8906" rx="5" ry="5" style="stroke:#000000;stroke-width:1.5;" width="271.624" x="10" y="89"/><rect fill="#F1F1F1" height="60.8906" rx="5" ry="5" style="stroke:#F1F1F1;stroke-width:1.5;" width="23.959" x="325.5" y="10"/><text fill="#000000" font-family="sans-serif" font-size="14" lengthAdjust="spacing" textLength="13.959" x="330.5" y="24.9951">-1</text><line style="stroke:#000000;stroke-width:1;" x1="325.5" x2="349.459" y1="30.2969" y2="30.2969"/><text fill="#000000" font-family="sans-serif" font-size="14" lengthAdjust="spacing" textLength="8.9072" x="330.5" y="45.292">0</text><line style="stroke:#000000;stroke-width:1;" x1="325.5" x2="349.459" y1="50.5938" y2="50.5938"/><text fill="#000000" font-family="sans-serif" font-size="14" lengthAdjust="spacing" textLength="8.9072" x="330.5" y="65.5889">1</text><rect fill="none" height="60.8906" rx="5" ry="5" style="stroke:#000000;stroke-width:1.5;" width="23.959" x="325.5" y="10"/><rect fill="#F1F1F1" height="60.8906" rx="5" ry="5" style="stroke:#F1F1F1;stroke-width:1.5;" width="37.3164" x="319" y="89"/><text fill="#000000" font-family="sans-serif" font-size="14" lengthAdjust="spacing" textLength="27.3164" x="324" y="103.9951">-1.1</text><line style="stroke:#000000;stroke-width:1;" x1="319" x2="356.3164" y1="109.2969" y2="109.2969"/><text fill="#000000" font-family="sans-serif" font-size="14" lengthAdjust="spacing" textLength="22.2646" x="324" y="124.292">0.1</text><line style="stroke:#000000;stroke-width:1;" x1="319" x2="356.3164" y1="129.5938" y2="129.5938"/><text fill="#000000" font-family="sans-serif" font-size="14" lengthAdjust="spacing" textLength="22.2646" x="324" y="144.5889">1.1</text><rect fill="none" height="60.8906" rx="5" ry="5" style="stroke:#000000;stroke-width:1.5;" width="37.3164" x="319" y="89"/><rect fill="#F1F1F1" height="20.2969" rx="5" ry="5" style="stroke:#F1F1F1;stroke-width:1.5;" width="36.6602" x="319" y="168.3516"/><text fill="#000000" font-family="sans-serif" font-size="14" lengthAdjust="spacing" textLength="26.6602" x="324" y="183.3467">1E5</text><rect fill="none" height="20.2969" rx="5" ry="5" style="stroke:#000000;stroke-width:1.5;" width="36.6602" x="319" y="168.3516"/><path d="M270,99.5 L283,99.5 C299.9784,99.5 313.0571,86.0403 322.088,71.9784" fill="none" style="stroke:#000000;stroke-width:1;stroke-dasharray:3,3;"/><path d="M324.6708,73.524 L323.2472,70.0413 L319.5052,70.4328 L325.952,65.5213 L324.6708,73.524" fill="#000000"/><ellipse cx="270" cy="99.5" fill="#000000" rx="3" ry="3" style="stroke:#000000;stroke-width:1;"/><path d="M270,119.5 L283,119.5 C292.4263,119.5 302.7781,119.5 311.8743,119.5" fill="none" style="stroke:#000000;stroke-width:1;stroke-dasharray:3,3;"/><path d="M311.8743,122.5462 L314.159,119.5 L311.8743,116.4538 L319.49,119.5 L311.8743,122.5462" fill="#000000"/><ellipse cx="270" cy="119.5" fill="#000000" rx="3" ry="3" style="stroke:#000000;stroke-width:1;"/><path d="M270,139.5 L283,139.5 C291.4474,139.5 307.8397,152.2013 320.3578,163.1072" fill="none" style="stroke:#000000;stroke-width:1;stroke-dasharray:3,3;"/><path d="M318.2994,165.4201 L322.0925,164.651 L322.4163,160.7943 L326.1401,168.2532 L318.2994,165.4201" fill="#000000"/><ellipse cx="270" cy="139.5" fill="#000000" rx="3" ry="3" style="stroke:#000000;stroke-width:1;"/><?plantuml-src SoWkIImgoIhEp-Egvb9oIKtEp4tCyIlDJKejKh9IYDOrr54mq54mZDL1arJGKt39JCyiAOQeqWEf0n505gPQrug2_BpKl980e5KWzOQkfh5SjLmEgNafO9kv3FMC38pCz8oJKaiIJG40?></g></svg>