<svg xmlns="http://www.w3.org/2000/svg" xmlns:xlink="http://www.w3.org/1999/xlink" contentStyleType="text/css" data-diagram-type="JSON" height="566px" preserveAspectRatio="none" style="width:674px;height:566px;background:#FFFFFF;" version="1.1" viewBox="0 0 674 566" width="674px" zoomAndPan="magnify"><?plantuml 1.2026.3beta5?><defs/><g><rect fill="#F1F1F1" height="182.6719" rx="5" ry="5" style="stroke:#F1F1F1;stroke-width:1.5;" width="355.1934" x="10" y="175"/><text fill="#000000" font-family="sans-serif" font-size="14" font-weight="700" lengthAdjust="spacing" textLength="53.7988" x="15" y="189.9951">legend</text><text fill="#000000" font-family="sans-serif" font-size="14" font-weight="700" lengthAdjust="spacing" textLength="134.2988" x="68.7988" y="189.9951">: character name</text><text fill="#000000" font-family="sans-serif" font-size="14" lengthAdjust="spacing" textLength="13.3506" x="346.8428" y="189.9951">&#160;&#160;&#160;</text><line style="stroke:#000000;stroke-width:1;" x1="341.8428" x2="341.8428" y1="175" y2="195.2969"/><line style="stroke:#000000;stroke-width:1;" x1="10" x2="365.1934" y1="195.2969" y2="195.2969"/><text fill="#000000" font-family="sans-serif" font-size="14" font-weight="700" lengthAdjust="spacing" textLength="282.0098" x="15" y="210.292">quotation mark character (U+0022)</text><text fill="#000000" font-family="sans-serif" font-size="14" lengthAdjust="spacing" textLength="13.3506" x="346.8428" y="210.292">&#160;&#160;&#160;</text><line style="stroke:#000000;stroke-width:1;" x1="341.8428" x2="341.8428" y1="195.2969" y2="215.5938"/><line style="stroke:#000000;stroke-width:1;" x1="10" x2="365.1934" y1="215.5938" y2="215.5938"/><text fill="#000000" font-family="sans-serif" font-size="14" font-weight="700" lengthAdjust="spacing" textLength="281.0938" x="15" y="230.5889">reverse solidus character (U+005C)</text><text fill="#000000" font-family="sans-serif" font-size="14" lengthAdjust="spacing" textLength="13.3506" x="346.8428" y="230.5889">&#160;&#160;&#160;</text><line style="stroke:#000000;stroke-width:1;" x1="341.8428" x2="341.8428" y1="215.5938" y2="235.8906"/><line style="stroke:#000000;stroke-width:1;" x1="10" x2="365.1934" y1="235.8906" y2="235.8906"/><text fill="#000000" font-family="sans-serif" font-size="14" font-weight="700" lengthAdjust="spacing" textLength="215.7559" x="15" y="250.8857">solidus character (U+002F)</text><text fill="#000000" font-family="sans-serif" font-size="14" lengthAdjust="spacing" textLength="13.3506" x="346.8428" y="250.8857">&#160;&#160;&#160;</text><line style="stroke:#000000;stroke-width:1;" x1="341.8428" x2="341.8428" y1="235.8906" y2="256.1875"/><line style="stroke:#000000;stroke-width:1;" x1="10" x2="365.1934" y1="256.1875" y2="256.1875"/><text fill="#000000" font-family="sans-serif" font-size="14" font-weight="700" lengthAdjust="spacing" textLength="242.7373" x="15" y="271.1826">backspace character (U+0008)</text><text fill="#000000" font-family="sans-serif" font-size="14" lengthAdjust="spacing" textLength="13.3506" x="346.8428" y="271.1826">&#160;&#160;&#160;</text><line style="stroke:#000000;stroke-width:1;" x1="341.8428" x2="341.8428" y1="256.1875" y2="276.4844"/><line style="stroke:#000000;stroke-width:1;" x1="10" x2="365.1934" y1="276.4844" y2="276.4844"/><text fill="#000000" font-family="sans-serif" font-size="14" font-weight="700" lengthAdjust="spacing" textLength="237.7744" x="15" y="291.4795">form feed character (U+000C)</text><text fill="#000000" font-family="sans-serif" font-size="14" lengthAdjust="spacing" textLength="13.3506" x="346.8428" y="291.4795">&#160;&#160;&#160;</text><line style="stroke:#000000;stroke-width:1;" x1="341.8428" x2="341.8428" y1="276.4844" y2="296.7813"/><line style="stroke:#000000;stroke-width:1;" x1="10" x2="365.1934" y1="296.7813" y2="296.7813"/><text fill="#000000" font-family="sans-serif" font-size="14" font-weight="700" lengthAdjust="spacing" textLength="230.1934" x="15" y="311.7764">line feed character (U+000A)</text><text fill="#000000" font-family="sans-serif" font-size="14" lengthAdjust="spacing" textLength="13.3506" x="346.8428" y="311.7764">&#160;&#160;&#160;</text><line style="stroke:#000000;stroke-width:1;" x1="341.8428" x2="341.8428" y1="296.7813" y2="317.0781"/><line style="stroke:#000000;stroke-width:1;" x1="10" x2="365.1934" y1="317.0781" y2="317.0781"/><text fill="#000000" font-family="sans-serif" font-size="14" font-weight="700" lengthAdjust="spacing" textLength="282.0645" x="15" y="332.0732">carriage return character (U+000D)</text><text fill="#000000" font-family="sans-serif" font-size="14" lengthAdjust="spacing" textLength="13.3506" x="346.8428" y="332.0732">&#160;&#160;&#160;</text><line style="stroke:#000000;stroke-width:1;" x1="341.8428" x2="341.8428" y1="317.0781" y2="337.375"/><line style="stroke:#000000;stroke-width:1;" x1="10" x2="365.1934" y1="337.375" y2="337.375"/><text fill="#000000" font-family="sans-serif" font-size="14" font-weight="700" lengthAdjust="spacing" textLength="321.8428" x="15" y="352.3701">character tabulation character (U+0009)</text><text fill="#000000" font-family="sans-serif" font-size="14" lengthAdjust="spacing" textLength="13.3506" x="346.8428" y="352.3701">&#160;&#160;&#160;</text><line style="stroke:#000000;stroke-width:1;" x1="341.8428" x2="341.8428" y1="337.375" y2="357.6719"/><rect fill="none" height="182.6719" rx="5" ry="5" style="stroke:#000000;stroke-width:1.5;" width="355.1934" x="10" y="175"/><rect fill="#F1F1F1" height="40.5938" rx="5" ry="5" style="stroke:#F1F1F1;stroke-width:1.5;" width="260.4209" x="402" y="10"/><text fill="#000000" font-family="sans-serif" font-size="14" font-weight="700" lengthAdjust="spacing" textLength="250.4209" x="407" y="24.9951">two-character escape sequence</text><line style="stroke:#000000;stroke-width:1;" x1="402" x2="662.4209" y1="30.2969" y2="30.2969"/><text fill="#000000" font-family="sans-serif" font-size="14" lengthAdjust="spacing" textLength="208.9678" x="407" y="45.292">example (between 'a' and 'b')</text><rect fill="none" height="40.5938" rx="5" ry="5" style="stroke:#000000;stroke-width:1.5;" width="260.4209" x="402" y="10"/><rect fill="#F1F1F1" height="40.5938" rx="5" ry="5" style="stroke:#F1F1F1;stroke-width:1.5;" width="33.9053" x="515" y="69"/><text fill="#000000" font-family="sans-serif" font-size="14" lengthAdjust="spacing" textLength="11.1563" x="520" y="83.9951">\"</text><line style="stroke:#000000;stroke-width:1;" x1="515" x2="548.9053" y1="89.2969" y2="89.2969"/><text fill="#000000" font-family="sans-serif" font-size="14" lengthAdjust="spacing" textLength="23.9053" x="520" y="104.292">a"b</text><rect fill="none" height="40.5938" rx="5" ry="5" style="stroke:#000000;stroke-width:1.5;" width="33.9053" x="515" y="69"/><rect fill="#F1F1F1" height="40.5938" rx="5" ry="5" style="stroke:#F1F1F1;stroke-width:1.5;" width="32.1826" x="516" y="128"/><text fill="#000000" font-family="sans-serif" font-size="14" lengthAdjust="spacing" textLength="4.7168" x="521" y="142.9951">\</text><line style="stroke:#000000;stroke-width:1;" x1="516" x2="548.1826" y1="148.2969" y2="148.2969"/><text fill="#000000" font-family="sans-serif" font-size="14" lengthAdjust="spacing" textLength="22.1826" x="521" y="163.292">a\b</text><rect fill="none" height="40.5938" rx="5" ry="5" style="stroke:#000000;stroke-width:1.5;" width="32.1826" x="516" y="128"/><rect fill="#F1F1F1" height="40.5938" rx="5" ry="5" style="stroke:#F1F1F1;stroke-width:1.5;" width="32.1826" x="516" y="187"/><text fill="#000000" font-family="sans-serif" font-size="14" lengthAdjust="spacing" textLength="9.4336" x="521" y="201.9951">\/</text><line style="stroke:#000000;stroke-width:1;" x1="516" x2="548.1826" y1="207.2969" y2="207.2969"/><text fill="#000000" font-family="sans-serif" font-size="14" lengthAdjust="spacing" textLength="22.1826" x="521" y="222.292">a/b</text><rect fill="none" height="40.5938" rx="5" ry="5" style="stroke:#000000;stroke-width:1.5;" width="32.1826" x="516" y="187"/><rect fill="#F1F1F1" height="40.5938" rx="5" ry="5" style="stroke:#F1F1F1;stroke-width:1.5;" width="35.8672" x="514" y="246"/><text fill="#000000" font-family="sans-serif" font-size="14" lengthAdjust="spacing" textLength="13.6035" x="519" y="260.9951">\b</text><line style="stroke:#000000;stroke-width:1;" x1="514" x2="549.8672" y1="266.2969" y2="266.2969"/><text fill="#000000" font-family="sans-serif" font-size="14" lengthAdjust="spacing" textLength="25.8672" x="519" y="281.292">a&#8;b</text><rect fill="none" height="40.5938" rx="5" ry="5" style="stroke:#000000;stroke-width:1.5;" width="35.8672" x="514" y="246"/><rect fill="#F1F1F1" height="40.5938" rx="5" ry="5" style="stroke:#F1F1F1;stroke-width:1.5;" width="35.8672" x="514" y="305"/><text fill="#000000" font-family="sans-serif" font-size="14" lengthAdjust="spacing" textLength="9.6455" x="519" y="319.9951">\f</text><line style="stroke:#000000;stroke-width:1;" x1="514" x2="549.8672" y1="325.2969" y2="325.2969"/><text fill="#000000" font-family="sans-serif" font-size="14" lengthAdjust="spacing" textLength="25.8672" x="519" y="340.292">a&#12;b</text><rect fill="none" height="40.5938" rx="5" ry="5" style="stroke:#000000;stroke-width:1.5;" width="35.8672" x="514" y="305"/><rect fill="#F1F1F1" height="56.8906" rx="5" ry="5" style="stroke:#F1F1F1;stroke-width:1.5;" width="27.4658" x="518.5" y="364"/><text fill="#000000" font-family="sans-serif" font-size="14" lengthAdjust="spacing" textLength="4.4502" x="523.5" y="378.9951">&#160;</text><text fill="#000000" font-family="sans-serif" font-size="14" lengthAdjust="spacing" textLength="4.4502" x="523.5" y="395.292">&#160;</text><line style="stroke:#000000;stroke-width:1;" x1="518.5" x2="545.9658" y1="400.5938" y2="400.5938"/><text fill="#000000" font-family="sans-serif" font-size="14" lengthAdjust="spacing" textLength="17.4658" x="523.5" y="415.5889">a
b</text><rect fill="none" height="56.8906" rx="5" ry="5" style="stroke:#000000;stroke-width:1.5;" width="27.4658" x="518.5" y="364"/><rect fill="#F1F1F1" height="56.8906" rx="5" ry="5" style="stroke:#F1F1F1;stroke-width:1.5;" width="27.4658" x="518.5" y="439"/><text fill="#000000" font-family="sans-serif" font-size="14" lengthAdjust="spacing" textLength="4.4502" x="523.5" y="453.9951">&#160;</text><text fill="#000000" font-family="sans-serif" font-size="14" lengthAdjust="spacing" textLength="4.4502" x="523.5" y="470.292">&#160;</text><line style="stroke:#000000;stroke-width:1;" x1="518.5" x2="545.9658" y1="475.5938" y2="475.5938"/><text fill="#000000" font-family="sans-serif" font-size="14" lengthAdjust="spacing" textLength="17.4658" x="523.5" y="490.5889">a&#13;b</text><rect fill="none" height="56.8906" rx="5" ry="5" style="stroke:#000000;stroke-width:1.5;" width="27.4658" x="518.5" y="439"/><rect fill="#F1F1F1" height="40.5938" rx="5" ry="5" style="stroke:#F1F1F1;stroke-width:1.5;" width="54.4883" x="505" y="514"/><line style="stroke:#000000;stroke-width:1;" x1="505" x2="559.4883" y1="534.2969" y2="534.2969"/><text fill="#000000" font-family="sans-serif" font-size="14" lengthAdjust="spacing" textLength="8.5791" x="510" y="549.292">a</text><text fill="#000000" font-family="sans-serif" font-size="14" lengthAdjust="spacing" textLength="8.8867" x="545.6016" y="549.292">b</text><rect fill="none" height="40.5938" rx="5" ry="5" style="stroke:#000000;stroke-width:1.5;" width="54.4883" x="505" y="514"/><path d="M353,185.5 L366,185.5 C424.2409,185.5 359.6407,99.4712 402,59.5 C403.4296,58.151 404.9077,56.8598 406.4295,55.6238" fill="none" style="stroke:#000000;stroke-width:1;stroke-dasharray:3,3;"/><path d="M408.2285,58.0544 L408.2524,54.2746 L404.6305,53.1933 L412.5059,51.1263 L408.2285,58.0544" fill="#000000"/><ellipse cx="353" cy="185.5" fill="#000000" rx="3" ry="3" style="stroke:#000000;stroke-width:1;"/><path d="M353,205.5 L366,205.5 C407.8463,205.5 369.9775,145.4383 402,118.5 C431.847,93.3919 478.8493,88.8094 507.2659,88.5856" fill="none" style="stroke:#000000;stroke-width:1;stroke-dasharray:3,3;"/><path d="M507.2476,91.7206 L509.6171,88.5993 L507.2841,85.4506 L515.1034,88.6313 L507.2476,91.7206" fill="#000000"/><ellipse cx="353" cy="205.5" fill="#000000" rx="3" ry="3" style="stroke:#000000;stroke-width:1;"/><path d="M353,225.5 L366,225.5 C392.6667,225.5 379.6041,191.9754 402,177.5 C434.9328,156.2141 481.3162,150.4133 508.7084,148.916" fill="none" style="stroke:#000000;stroke-width:1;stroke-dasharray:3,3;"/><path d="M508.8398,151.9262 L510.9661,148.8175 L508.5771,145.9058 L516.2339,148.5876 L508.8398,151.9262" fill="#000000"/><ellipse cx="353" cy="225.5" fill="#000000" rx="3" ry="3" style="stroke:#000000;stroke-width:1;"/><path d="M353,246.5 L366,246.5 C382.4924,246.5 385.9659,241.3612 402,237.5 C439.4131,228.4905 483.031,218.4896 508.8969,212.6114" fill="none" style="stroke:#000000;stroke-width:1;stroke-dasharray:3,3;"/><path d="M509.5714,215.5838 L511.1262,212.1055 L508.2224,209.639 L516.3279,210.9251 L509.5714,215.5838" fill="#000000"/><ellipse cx="353" cy="246.5" fill="#000000" rx="3" ry="3" style="stroke:#000000;stroke-width:1;"/><path d="M353,266.5 L366,266.5 C415.7973,266.5 474.0227,266.5 506.4409,266.5" fill="none" style="stroke:#000000;stroke-width:1;stroke-dasharray:3,3;"/><path d="M506.4409,269.566 L508.7404,266.5 L506.4409,263.434 L514.106,266.5 L506.4409,269.566" fill="#000000"/><ellipse cx="353" cy="266.5" fill="#000000" rx="3" ry="3" style="stroke:#000000;stroke-width:1;"/><path d="M353,286.5 L366,286.5 C382.6058,286.5 385.8926,292.4621 402,296.5 C438.2526,305.5881 480.5597,314.803 506.6915,320.3348" fill="none" style="stroke:#000000;stroke-width:1;stroke-dasharray:3,3;"/><path d="M506.0538,323.3612 L508.9613,320.8131 L507.3293,317.3085 L514.2575,321.9292 L506.0538,323.3612" fill="#000000"/><ellipse cx="353" cy="286.5" fill="#000000" rx="3" ry="3" style="stroke:#000000;stroke-width:1;"/><path d="M353,306.5 L366,306.5 C393.0235,306.5 379.8151,340.0694 402,355.5 C435.7482,378.9735 484.2207,387.6564 511.2758,390.7928" fill="none" style="stroke:#000000;stroke-width:1;stroke-dasharray:3,3;"/><path d="M510.9536,393.8603 L513.5765,391.0344 L511.5981,387.7253 L518.9446,391.5983 L510.9536,393.8603" fill="#000000"/><ellipse cx="353" cy="306.5" fill="#000000" rx="3" ry="3" style="stroke:#000000;stroke-width:1;"/><path d="M353,327.5 L366,327.5 C414.4933,327.5 366.7311,397.2177 402,430.5 C432.3367,459.128 483.277,465.8244 511.375,467.2535" fill="none" style="stroke:#000000;stroke-width:1;stroke-dasharray:3,3;"/><path d="M511.2609,470.298 L513.6585,467.3391 L511.4891,464.2089 L518.9864,467.5388 L511.2609,470.298" fill="#000000"/><ellipse cx="353" cy="327.5" fill="#000000" rx="3" ry="3" style="stroke:#000000;stroke-width:1;"/><path d="M353,347.5 L366,347.5 C438.0219,347.5 350.9782,454.6676 402,505.5 C427.0212,530.4283 468.514,535.9003 497.7784,536.2788" fill="none" style="stroke:#000000;stroke-width:1;stroke-dasharray:3,3;"/><path d="M497.7825,539.2915 L500.038,536.2757 L497.7743,533.266 L505.3103,536.2685 L497.7825,539.2915" fill="#000000"/><ellipse cx="353" cy="347.5" fill="#000000" rx="3" ry="3" style="stroke:#000000;stroke-width:1;"/><?plantuml-src TTB1Ki8m40RWUvzY9vT2HQXrS9GJ3evlu8bwsAHRhBGfR59nnl7T3QI2b9hpVly_INPkBB9zDxKElW8GKLJIYdGMHJDGRyYeB35eh4ZCuFmitR3TrTUdCJ8ADmI6jWrfHL4aHY3e4wjDIJ2GP7T46a8C0NK6eGo7udNaIhTDRT4MjOOAUVsdT_1o5ST9CZnrBqMQfcAVYwcGdZDz41lNMvT5rfYkdovE_i1JpzEM_yEIvs7FbPsUU3vfkKIrDXjKr0s8xxi1UowzbgtEQwuW9yekzA9FvrxdhIuBJVtwiKzhhtMh5J8Nk29WiWthYuodytTZh_bN7wSjogRq_zUDU3X4xBNrsZeTV0TpjsA7dGjknacSt8rltNRWz0S0?></g></svg>