<svg xmlns="http://www.w3.org/2000/svg" xmlns:xlink="http://www.w3.org/1999/xlink" contentStyleType="text/css" data-diagram-type="STATE" height="123px" preserveAspectRatio="none" style="width:332px;height:123px;background:#FFFFFF;" version="1.1" viewBox="0 0 332 123" width="332px" zoomAndPan="magnify"><?plantuml 1.2026.3beta5?><defs/><g><g class="entity" data-qualified-name="stateA" id="ent0002"><rect fill="#F1F1F1" height="50" rx="12.5" ry="12.5" style="stroke:#181818;stroke-width:0.5;" width="50" x="7" y="32.65"/><line style="stroke:#181818;stroke-width:0.5;" x1="7" x2="57" y1="58.9469" y2="58.9469"/><text fill="#000000" font-family="sans-serif" font-size="14" lengthAdjust="spacing" textLength="9.5771" x="27.2114" y="50.6451">A</text></g><path d="M104.5,7 L165.5,7 A12.5,12.5 0 0 1 178,19.5 L178,33.2969 L92,33.2969 L92,19.5 A12.5,12.5 0 0 1 104.5,7" fill="#F1F1F1"/><rect fill="none" height="101.2969" rx="12.5" ry="12.5" style="stroke:#181818;stroke-width:0.5;" width="86" x="92" y="7"/><line style="stroke:#181818;stroke-width:0.5;" x1="92" x2="178" y1="33.2969" y2="33.2969"/><text fill="#000000" font-family="sans-serif" font-size="14" lengthAdjust="spacing" textLength="9.7754" x="130.1123" y="24.9951">C</text><g class="entity" data-qualified-name="stateC.B" id="ent0004"><rect fill="#F1F1F1" height="50" rx="12.5" ry="12.5" style="stroke:#181818;stroke-width:0.5;" width="50" x="104" y="45.2969"/><line style="stroke:#181818;stroke-width:0.5;" x1="104" x2="154" y1="71.5938" y2="71.5938"/><text fill="#000000" font-family="sans-serif" font-size="14" lengthAdjust="spacing" textLength="9.6045" x="124.1978" y="63.292">B</text></g><g class="entity" data-qualified-name="J" data-source-line="6" id="ent0005"><rect fill="#F1F1F1" height="101.4844" rx="2.5" ry="2.5" style="stroke:#181818;stroke-width:0.5;" width="97.1777" x="220.5" y="7.15"/><text fill="#000000" font-family="sans-serif" font-size="14" lengthAdjust="spacing" textLength="4.1289" x="267.0244" y="22.1451">J</text><line style="stroke:#181818;stroke-width:1;" x1="264.9736" x2="264.9736" y1="27.4469" y2="108.6344"/><line style="stroke:#181818;stroke-width:1;" x1="220.5" x2="317.6777" y1="27.4469" y2="27.4469"/><text fill="#000000" font-family="sans-serif" font-size="14" lengthAdjust="spacing" textLength="28.9365" x="225.5" y="42.442">fruit</text><text fill="#000000" font-family="sans-serif" font-size="14" lengthAdjust="spacing" textLength="39.8535" x="269.9736" y="42.442">Apple</text><line style="stroke:#181818;stroke-width:1;" x1="220.5" x2="317.6777" y1="47.7438" y2="47.7438"/><text fill="#000000" font-family="sans-serif" font-size="14" lengthAdjust="spacing" textLength="27.1455" x="225.5" y="62.7389">size</text><text fill="#000000" font-family="sans-serif" font-size="14" lengthAdjust="spacing" textLength="39.6348" x="269.9736" y="62.7389">Large</text><line style="stroke:#181818;stroke-width:1;" x1="220.5" x2="317.6777" y1="68.0406" y2="68.0406"/><text fill="#000000" font-family="sans-serif" font-size="14" lengthAdjust="spacing" textLength="34.4736" x="225.5" y="83.0357">color</text><text fill="#000000" font-family="sans-serif" font-size="14" lengthAdjust="spacing" textLength="27.2275" x="269.9736" y="83.0357">Red</text><line style="stroke:#181818;stroke-width:1;" x1="264.9736" x2="317.6777" y1="88.3375" y2="88.3375"/><text fill="#000000" font-family="sans-serif" font-size="14" lengthAdjust="spacing" textLength="42.7041" x="269.9736" y="103.3326">Green</text></g><?plantuml-src HSYn2eD044NHVhxYyMg_m6wr42HLMh5Oab4KSMLdqoJuxqP5xEuzbdnIq17UOFiuiTFAsqhyv2mKiegC5cRKEmBiucT8pEcMPL9cXzdmrJyzVEmlUeKfHEPe-DGtCx2AgZDRMJS0?></g></svg>