<svg xmlns="http://www.w3.org/2000/svg" xmlns:xlink="http://www.w3.org/1999/xlink" contentStyleType="text/css" data-diagram-type="CLASS" height="163px" preserveAspectRatio="none" style="width:375px;height:163px;background:#FFFFFF;" version="1.1" viewBox="0 0 375 163" width="375px" zoomAndPan="magnify"><?plantuml 1.2026.3beta5?><defs/><g><g class="cluster" data-qualified-name="..3" data-source-line="4" id="ent0004"><rect fill="none" height="141" rx="2.5" ry="2.5" style="stroke:none;stroke-width:1;" width="128" x="101.72" y="7"/><path d="M86.72,7 L99.22,7 A2.5,2.5 0 0 1 101.72,9.5 L101.72,145.5 A2.5,2.5 0 0 0 104.22,148 L227.22,148 A2.5,2.5 0 0 0 229.72,145.5 L229.72,9.5 A2.5,2.5 0 0 1 232.22,7 L244.72,7" fill="none" style="stroke:#181818;stroke-width:1;"/></g><g class="entity" data-qualified-name="..3.J" data-source-line="5" id="ent0005"><rect fill="#F1F1F1" height="101.4844" rx="2.5" ry="2.5" style="stroke:#181818;stroke-width:0.5;" width="109.9014" x="111.22" y="27"/><text fill="#000000" font-family="sans-serif" font-size="14" lengthAdjust="spacing" textLength="95.9014" x="118.22" y="41.9951">JSON_file.json</text><line style="stroke:#181818;stroke-width:1;" x1="155.6936" x2="155.6936" y1="47.2969" y2="128.4844"/><line style="stroke:#181818;stroke-width:1;" x1="111.22" x2="221.1214" y1="47.2969" y2="47.2969"/><text fill="#000000" font-family="sans-serif" font-size="14" lengthAdjust="spacing" textLength="28.9365" x="116.22" y="62.292">fruit</text><text fill="#000000" font-family="sans-serif" font-size="14" lengthAdjust="spacing" textLength="39.8535" x="160.6936" y="62.292">Apple</text><line style="stroke:#181818;stroke-width:1;" x1="111.22" x2="221.1214" y1="67.5938" y2="67.5938"/><text fill="#000000" font-family="sans-serif" font-size="14" lengthAdjust="spacing" textLength="27.1455" x="116.22" y="82.5889">size</text><text fill="#000000" font-family="sans-serif" font-size="14" lengthAdjust="spacing" textLength="39.6348" x="160.6936" y="82.5889">Large</text><line style="stroke:#181818;stroke-width:1;" x1="111.22" x2="221.1214" y1="87.8906" y2="87.8906"/><text fill="#000000" font-family="sans-serif" font-size="14" lengthAdjust="spacing" textLength="34.4736" x="116.22" y="102.8857">color</text><text fill="#000000" font-family="sans-serif" font-size="14" lengthAdjust="spacing" textLength="27.2275" x="160.6936" y="102.8857">Red</text><line style="stroke:#181818;stroke-width:1;" x1="155.6936" x2="221.1214" y1="108.1875" y2="108.1875"/><text fill="#000000" font-family="sans-serif" font-size="14" lengthAdjust="spacing" textLength="42.7041" x="160.6936" y="123.1826">Green</text></g><!--entity Agent--><g class="entity" data-qualified-name="Agent" data-source-line="3" id="ent0002"><rect fill="#F1F1F1" height="36.2969" rx="2.5" ry="2.5" style="stroke:#181818;stroke-width:0.5;" width="61.4395" x="7" y="59.35"/><text fill="#000000" font-family="sans-serif" font-size="14" lengthAdjust="spacing" textLength="41.4395" x="17" y="82.3451">Agent</text></g><!--entity Database--><g class="entity" data-qualified-name="Database" data-source-line="11" id="ent0006"><path d="M263.32,64.85 C263.32,54.85 306.7204,54.85 306.7204,54.85 C306.7204,54.85 350.1208,54.85 350.1208,64.85 L350.1208,90.1469 C350.1208,100.1469 306.7204,100.1469 306.7204,100.1469 C306.7204,100.1469 263.32,100.1469 263.32,90.1469 L263.32,64.85" fill="#F1F1F1" style="stroke:#181818;stroke-width:0.5;"/><path d="M263.32,64.85 C263.32,74.85 306.7204,74.85 306.7204,74.85 C306.7204,74.85 350.1208,74.85 350.1208,64.85" fill="none" style="stroke:#181818;stroke-width:0.5;"/><text fill="#000000" font-family="sans-serif" font-size="14" lengthAdjust="spacing" textLength="66.8008" x="273.32" y="91.8451">Database</text></g><!--link Agent to J--><g class="link" data-entity-1="ent0002" data-entity-2="ent0005" data-link-type="dependency" data-source-line="13" id="lnk7"><path codeLine="13" d="M68.72,77.5 C80.34,77.5 85.96,77.5 97.58,77.5" fill="none" id="Agent-to-J" style="stroke:#181818;stroke-width:1;"/><polygon fill="#181818" points="103.58,77.5,94.58,73.5,98.58,77.5,94.58,81.5,103.58,77.5" style="stroke:#181818;stroke-width:1;"/></g><!--link J to Database--><g class="link" data-entity-1="ent0005" data-entity-2="ent0006" data-link-type="dependency" data-source-line="14" id="lnk8"><path codeLine="14" d="M227.96,77.5 C239.65,77.5 245.34,77.5 257.03,77.5" fill="none" id="J-to-Database" style="stroke:#181818;stroke-width:1;"/><polygon fill="#181818" points="263.03,77.5,254.03,73.5,258.03,77.5,254.03,81.5,263.03,77.5" style="stroke:#181818;stroke-width:1;"/></g><?plantuml-src FOxD2i8m48Jl-nJ3dgiFu44e248G1JsAoDfkIpIc9OaeIj_TjlvSTcQ-xxBYN7E_seVrDP7KwXFouL9CKbpm8k0S6myskytwM5cdqs4p9CAC6k0gt6pY6UTjwvIp3upsgJrRIQZ_h6XS4tY6FM-rv0oy3AgU3xtjgADIafmaAXRVGZG-WyaSXimGF_C6?></g></svg>