<svg xmlns="http://www.w3.org/2000/svg" xmlns:xlink="http://www.w3.org/1999/xlink" contentStyleType="text/css" data-diagram-type="CLASS" height="380px" preserveAspectRatio="none" style="width:339px;height:380px;background:#FFFFFF;" version="1.1" viewBox="0 0 339 380" width="339px" zoomAndPan="magnify"><?plantuml 1.2026.3beta5?><defs/><g><!--entity Component--><g class="entity" data-qualified-name="Component" data-source-line="3" id="ent0002"><rect fill="#F1F1F1" height="46.2969" rx="2.5" ry="2.5" style="stroke:#181818;stroke-width:0.5;" width="121.2793" x="7" y="20.5"/><rect fill="#F1F1F1" height="10" style="stroke:#181818;stroke-width:0.5;" width="15" x="108.2793" y="25.5"/><rect fill="#F1F1F1" height="2" style="stroke:#181818;stroke-width:0.5;" width="4" x="106.2793" y="27.5"/><rect fill="#F1F1F1" height="2" style="stroke:#181818;stroke-width:0.5;" width="4" x="106.2793" y="31.5"/><text fill="#000000" font-family="sans-serif" font-size="14" lengthAdjust="spacing" textLength="81.2793" x="22" y="53.4951">Component</text></g><!--entity Actor--><g class="entity" data-qualified-name="Actor" data-source-line="4" id="ent0003"><ellipse cx="181.6425" cy="14" fill="#F1F1F1" rx="8" ry="8" style="stroke:#181818;stroke-width:0.5;"/><path d="M181.6425,22 L181.6425,49 M168.6425,30 L194.6425,30 M181.6425,49 L168.6425,64 M181.6425,49 L194.6425,64" fill="none" style="stroke:#181818;stroke-width:0.5;"/><text fill="#000000" font-family="sans-serif" font-size="14" lengthAdjust="spacing" textLength="37.085" x="163.1" y="78.4951">Actor</text></g><!--entity Usecase--><g class="entity" data-qualified-name="Usecase" data-source-line="5" id="ent0004"><ellipse cx="279.6411" cy="43.6536" fill="#F1F1F1" rx="44.2511" ry="14.5236" style="stroke:#181818;stroke-width:0.5;"/><text fill="#000000" font-family="sans-serif" font-size="14" lengthAdjust="spacing" textLength="58.3379" x="250.4722" y="48.3021">Usecase</text></g><!--entity Interface--><g class="entity" data-qualified-name="Interface" data-source-line="6" id="ent0005"><ellipse cx="67.64" cy="170.8" fill="#F1F1F1" rx="8" ry="8" style="stroke:#181818;stroke-width:0.5;"/><text fill="#000000" font-family="sans-serif" font-size="14" lengthAdjust="spacing" textLength="62.6787" x="36.3006" y="200.7951">Interface</text></g><!--entity Node--><g class="entity" data-qualified-name="Node" data-source-line="7" id="ent0006"><polygon fill="#F1F1F1" points="141.37,157.65,151.37,147.65,217.9081,147.65,217.9081,183.9469,207.9081,193.9469,141.37,193.9469,141.37,157.65" style="stroke:#181818;stroke-width:0.5;"/><line style="stroke:#181818;stroke-width:0.5;" x1="207.9081" x2="217.9081" y1="157.65" y2="147.65"/><line style="stroke:#181818;stroke-width:0.5;" x1="141.37" x2="207.9081" y1="157.65" y2="157.65"/><line style="stroke:#181818;stroke-width:0.5;" x1="207.9081" x2="207.9081" y1="157.65" y2="193.9469"/><text fill="#000000" font-family="sans-serif" font-size="14" lengthAdjust="spacing" textLength="36.5381" x="156.37" y="180.6451">Node</text></g><!--entity Cloud--><g class="entity" data-qualified-name="Cloud" data-source-line="8" id="ent0007"><path d="M262.1079,155.7072 C266.3894,148.9579 271.787,149.5439 276.0929,155.6806 C278.8447,150.2967 283.5845,147.993 287.9958,153.9368 C293.1596,147.0786 297.3261,148.2943 301.6255,154.8172 C306.4753,149.0089 312.5239,150.3779 314.9604,157.3377 C323.978,160.1882 324.304,166.6177 318.7195,172.9778 C324.3506,177.9942 322.5668,183.7161 315.8086,185.9532 C312.9552,193.1916 308.6599,194.073 303.0153,188.8095 C299.1171,195.7313 294.7876,198.4844 288.4059,191.3999 C283.5044,196.8412 278.4541,196.5483 275.7109,189.2494 C270.3196,195.6474 263.9642,194.4591 261.91,186.1236 C253.754,183.5062 253.3768,176.7654 259.8941,172.0467 C252.8498,165.7961 254.2329,159.9364 262.1079,155.7072" fill="#F1F1F1" style="stroke:#181818;stroke-width:0.5;"/><text fill="#000000" font-family="sans-serif" font-size="14" lengthAdjust="spacing" textLength="39.9902" x="267.64" y="175.6451">Cloud</text></g><g class="entity" data-qualified-name="JSON" data-source-line="10" id="ent0008"><rect fill="#F1F1F1" height="101.4844" rx="2.5" ry="2.5" style="stroke:#181818;stroke-width:0.5;" width="97.1777" x="19.14" y="263.8"/><text fill="#000000" font-family="sans-serif" font-size="14" lengthAdjust="spacing" textLength="34.5078" x="50.475" y="278.7951">JSON</text><line style="stroke:#181818;stroke-width:1;" x1="63.6136" x2="63.6136" y1="284.0969" y2="365.2844"/><line style="stroke:#181818;stroke-width:1;" x1="19.14" x2="116.3177" y1="284.0969" y2="284.0969"/><text fill="#000000" font-family="sans-serif" font-size="14" lengthAdjust="spacing" textLength="28.9365" x="24.14" y="299.092">fruit</text><text fill="#000000" font-family="sans-serif" font-size="14" lengthAdjust="spacing" textLength="39.8535" x="68.6136" y="299.092">Apple</text><line style="stroke:#181818;stroke-width:1;" x1="19.14" x2="116.3177" y1="304.3938" y2="304.3938"/><text fill="#000000" font-family="sans-serif" font-size="14" lengthAdjust="spacing" textLength="27.1455" x="24.14" y="319.3889">size</text><text fill="#000000" font-family="sans-serif" font-size="14" lengthAdjust="spacing" textLength="39.6348" x="68.6136" y="319.3889">Large</text><line style="stroke:#181818;stroke-width:1;" x1="19.14" x2="116.3177" y1="324.6906" y2="324.6906"/><text fill="#000000" font-family="sans-serif" font-size="14" lengthAdjust="spacing" textLength="34.4736" x="24.14" y="339.6857">color</text><text fill="#000000" font-family="sans-serif" font-size="14" lengthAdjust="spacing" textLength="27.2275" x="68.6136" y="339.6857">Red</text><line style="stroke:#181818;stroke-width:1;" x1="63.6136" x2="116.3177" y1="344.9875" y2="344.9875"/><text fill="#000000" font-family="sans-serif" font-size="14" lengthAdjust="spacing" textLength="42.7041" x="68.6136" y="359.9826">Green</text></g><?plantuml-src DSX12i8m48NX_PmYp4gX9-YkT26AL51SYOkGJaiadGb9Yg9uTzFMljNtVksSF0Vxijm361cyC75IzIhG9abGqwf9C4OoEbB-rqMmsQh_zfmeTDeGiBIqj2OBZ9EndMyz2U0HXTNXSchK1tB5BemsOOcLzuwmc5kqRyhfg4E_9YDE0fRgXcTgiL2u2qICT_Z-0000?></g></svg>