<svg xmlns="http://www.w3.org/2000/svg" xmlns:xlink="http://www.w3.org/1999/xlink" contentStyleType="text/css" data-diagram-type="CLASS" height="235px" preserveAspectRatio="none" style="width:198px;height:235px;background:#FFFFFF;" version="1.1" viewBox="0 0 198 235" width="198px" zoomAndPan="magnify"><?plantuml 1.2026.3beta5?><defs/><g><!--class Class--><g class="entity" data-qualified-name="Class" data-source-line="1" id="ent0002"><rect fill="#F1F1F1" height="48" rx="2.5" ry="2.5" style="stroke:#181818;stroke-width:0.5;" width="68.832" x="21.08" y="7"/><ellipse cx="36.08" cy="23" fill="#ADD1B2" rx="11" ry="11" style="stroke:#181818;stroke-width:1;"/><path d="M39.0488,28.6406 Q38.4706,28.9375 37.83,29.0781 Q37.1894,29.2344 36.4863,29.2344 Q33.9863,29.2344 32.6581,27.5938 Q31.3456,25.9375 31.3456,22.8125 Q31.3456,19.6875 32.6581,18.0313 Q33.9863,16.375 36.4863,16.375 Q37.1894,16.375 37.83,16.5313 Q38.4863,16.6875 39.0488,16.9844 L39.0488,19.7031 Q38.4238,19.125 37.83,18.8594 Q37.2363,18.5781 36.6113,18.5781 Q35.2675,18.5781 34.58,19.6563 Q33.8925,20.7188 33.8925,22.8125 Q33.8925,24.9063 34.58,25.9844 Q35.2675,27.0469 36.6113,27.0469 Q37.2363,27.0469 37.83,26.7813 Q38.4238,26.5 39.0488,25.9219 L39.0488,28.6406 Z " fill="#000000"/><text fill="#000000" font-family="sans-serif" font-size="14" lengthAdjust="spacing" textLength="36.832" x="50.08" y="27.8467">Class</text><line style="stroke:#181818;stroke-width:0.5;" x1="22.08" x2="88.912" y1="39" y2="39"/><line style="stroke:#181818;stroke-width:0.5;" x1="22.08" x2="88.912" y1="47" y2="47"/></g><g class="entity" data-qualified-name="Object" data-source-line="2" id="ent0003"><rect fill="#F1F1F1" height="36.2969" rx="2.5" ry="2.5" style="stroke:#181818;stroke-width:0.5;" width="59.5957" x="124.7" y="12.85"/><text fill="#000000" font-family="sans-serif" font-size="14" lengthAdjust="spacing" textLength="45.5957" x="131.7" y="27.8451">Object</text><line style="stroke:#181818;stroke-width:0.5;" x1="125.7" x2="183.2957" y1="33.1469" y2="33.1469"/></g><g class="entity" data-qualified-name="JSON" data-source-line="3" id="ent0004"><rect fill="#F1F1F1" height="101.4844" rx="2.5" ry="2.5" style="stroke:#181818;stroke-width:0.5;" width="97.1777" x="7" y="119"/><text fill="#000000" font-family="sans-serif" font-size="14" lengthAdjust="spacing" textLength="34.5078" x="38.335" y="133.9951">JSON</text><line style="stroke:#181818;stroke-width:1;" x1="51.4736" x2="51.4736" y1="139.2969" y2="220.4844"/><line style="stroke:#181818;stroke-width:1;" x1="7" x2="104.1777" y1="139.2969" y2="139.2969"/><text fill="#000000" font-family="sans-serif" font-size="14" lengthAdjust="spacing" textLength="28.9365" x="12" y="154.292">fruit</text><text fill="#000000" font-family="sans-serif" font-size="14" lengthAdjust="spacing" textLength="39.8535" x="56.4736" y="154.292">Apple</text><line style="stroke:#181818;stroke-width:1;" x1="7" x2="104.1777" y1="159.5938" y2="159.5938"/><text fill="#000000" font-family="sans-serif" font-size="14" lengthAdjust="spacing" textLength="27.1455" x="12" y="174.5889">size</text><text fill="#000000" font-family="sans-serif" font-size="14" lengthAdjust="spacing" textLength="39.6348" x="56.4736" y="174.5889">Large</text><line style="stroke:#181818;stroke-width:1;" x1="7" x2="104.1777" y1="179.8906" y2="179.8906"/><text fill="#000000" font-family="sans-serif" font-size="14" lengthAdjust="spacing" textLength="34.4736" x="12" y="194.8857">color</text><text fill="#000000" font-family="sans-serif" font-size="14" lengthAdjust="spacing" textLength="27.2275" x="56.4736" y="194.8857">Red</text><line style="stroke:#181818;stroke-width:1;" x1="51.4736" x2="104.1777" y1="200.1875" y2="200.1875"/><text fill="#000000" font-family="sans-serif" font-size="14" lengthAdjust="spacing" textLength="42.7041" x="56.4736" y="215.1826">Green</text></g><?plantuml-src Iyv9B2vMS0QHNFb9MQd99Gh-O8ehgpW_Jy4hsDzFePfBGK51AQseDBD4oKh9iQ0W9rL91onMd5cL2XJoIInAXmabv-Va5obPAKGh1QMcAEaeABaNfQRcASLorG80?></g></svg>