<svg xmlns="http://www.w3.org/2000/svg" xmlns:xlink="http://www.w3.org/1999/xlink" contentStyleType="text/css" data-diagram-type="JSON" height="507px" preserveAspectRatio="none" style="width:536px;height:507px;background:#FFFFFF;" version="1.1" viewBox="0 0 536 507" width="536px" zoomAndPan="magnify"><?plantuml 1.2026.3beta5?><defs/><g><rect fill="#F1F1F1" height="142.0781" rx="5" ry="5" style="stroke:#F1F1F1;stroke-width:1.5;" width="218.8232" x="10" y="17.4609"/><text fill="#000000" font-family="sans-serif" font-size="14" font-weight="700" lengthAdjust="spacing" textLength="29.5313" x="15" y="32.4561">null</text><text fill="#000000" font-family="sans-serif" font-size="14" lengthAdjust="spacing" textLength="8.4014" x="133.6025" y="32.4561">&#9216;</text><line style="stroke:#000000;stroke-width:1;" x1="128.6025" x2="128.6025" y1="17.4609" y2="37.7578"/><line style="stroke:#000000;stroke-width:1;" x1="10" x2="228.8232" y1="37.7578" y2="37.7578"/><text fill="#000000" font-family="sans-serif" font-size="14" font-weight="700" lengthAdjust="spacing" textLength="33.0586" x="15" y="52.7529">true</text><text fill="#000000" font-family="sans-serif" font-size="14" lengthAdjust="spacing" textLength="45.7324" x="133.6025" y="52.7529">&#9745; true</text><line style="stroke:#000000;stroke-width:1;" x1="128.6025" x2="128.6025" y1="37.7578" y2="58.0547"/><line style="stroke:#000000;stroke-width:1;" x1="10" x2="228.8232" y1="58.0547" y2="58.0547"/><text fill="#000000" font-family="sans-serif" font-size="14" font-weight="700" lengthAdjust="spacing" textLength="38.165" x="15" y="73.0498">false</text><text fill="#000000" font-family="sans-serif" font-size="14" lengthAdjust="spacing" textLength="50.3057" x="133.6025" y="73.0498">&#9744; false</text><line style="stroke:#000000;stroke-width:1;" x1="128.6025" x2="128.6025" y1="58.0547" y2="78.3516"/><line style="stroke:#000000;stroke-width:1;" x1="10" x2="228.8232" y1="78.3516" y2="78.3516"/><text fill="#000000" font-family="sans-serif" font-size="14" font-weight="700" lengthAdjust="spacing" textLength="108.6025" x="15" y="93.3467">JSON_Number</text><text fill="#000000" font-family="sans-serif" font-size="14" lengthAdjust="spacing" textLength="13.3506" x="133.6025" y="93.3467">&#160;&#160;&#160;</text><line style="stroke:#000000;stroke-width:1;" x1="128.6025" x2="128.6025" y1="78.3516" y2="98.6484"/><line style="stroke:#000000;stroke-width:1;" x1="10" x2="228.8232" y1="98.6484" y2="98.6484"/><text fill="#000000" font-family="sans-serif" font-size="14" font-weight="700" lengthAdjust="spacing" textLength="94.377" x="15" y="113.6436">JSON_String</text><text fill="#000000" font-family="sans-serif" font-size="14" lengthAdjust="spacing" textLength="25.1631" x="133.6025" y="113.6436">a
b&#13;c</text><text fill="#000000" font-family="sans-serif" font-size="14" lengthAdjust="spacing" textLength="8.8867" x="169.2041" y="113.6436">d</text><text fill="#008000" font-family="sans-serif" font-size="14" lengthAdjust="spacing" textLength="41.2822" x="182.541" y="113.6436">TBC...</text><line style="stroke:#000000;stroke-width:1;" x1="128.6025" x2="128.6025" y1="98.6484" y2="118.9453"/><line style="stroke:#000000;stroke-width:1;" x1="10" x2="228.8232" y1="118.9453" y2="118.9453"/><text fill="#000000" font-family="sans-serif" font-size="14" font-weight="700" lengthAdjust="spacing" textLength="97.1182" x="15" y="133.9404">JSON_Object</text><text fill="#000000" font-family="sans-serif" font-size="14" lengthAdjust="spacing" textLength="13.3506" x="133.6025" y="133.9404">&#160;&#160;&#160;</text><line style="stroke:#000000;stroke-width:1;" x1="128.6025" x2="128.6025" y1="118.9453" y2="139.2422"/><line style="stroke:#000000;stroke-width:1;" x1="10" x2="228.8232" y1="139.2422" y2="139.2422"/><text fill="#000000" font-family="sans-serif" font-size="14" font-weight="700" lengthAdjust="spacing" textLength="89.127" x="15" y="154.2373">JSON_Array</text><text fill="#000000" font-family="sans-serif" font-size="14" lengthAdjust="spacing" textLength="13.3506" x="133.6025" y="154.2373">&#160;&#160;&#160;</text><line style="stroke:#000000;stroke-width:1;" x1="128.6025" x2="128.6025" y1="139.2422" y2="159.5391"/><rect fill="none" height="142.0781" rx="5" ry="5" style="stroke:#000000;stroke-width:1.5;" width="218.8232" x="10" y="17.4609"/><rect fill="#F1F1F1" height="60.8906" rx="5" ry="5" style="stroke:#F1F1F1;stroke-width:1.5;" width="37.9316" x="290.5" y="10"/><text fill="#000000" font-family="sans-serif" font-size="14" lengthAdjust="spacing" textLength="13.959" x="295.5" y="24.9951">-1</text><line style="stroke:#000000;stroke-width:1;" x1="290.5" x2="328.4316" y1="30.2969" y2="30.2969"/><text fill="#000000" font-family="sans-serif" font-size="14" lengthAdjust="spacing" textLength="27.3164" x="295.5" y="45.292">-1.1</text><line style="stroke:#000000;stroke-width:1;" x1="290.5" x2="328.4316" y1="50.5938" y2="50.5938"/><text fill="#008000" font-family="sans-serif" font-size="14" lengthAdjust="spacing" textLength="27.9316" x="295.5" y="65.5889">TBC</text><rect fill="none" height="60.8906" rx="5" ry="5" style="stroke:#000000;stroke-width:1.5;" width="37.9316" x="290.5" y="10"/><rect fill="#F1F1F1" height="81.1875" rx="5" ry="5" style="stroke:#F1F1F1;stroke-width:1.5;" width="87.4707" x="266" y="88.9063"/><text fill="#000000" font-family="sans-serif" font-size="14" font-weight="700" lengthAdjust="spacing" textLength="19.9336" x="271" y="103.9014">{}</text><text fill="#000000" font-family="sans-serif" font-size="14" lengthAdjust="spacing" textLength="13.3506" x="321.749" y="103.9014">&#160;&#160;&#160;</text><line style="stroke:#000000;stroke-width:1;" x1="316.749" x2="316.749" y1="88.9063" y2="109.2031"/><line style="stroke:#000000;stroke-width:1;" x1="266" x2="353.4707" y1="109.2031" y2="109.2031"/><text fill="#000000" font-family="sans-serif" font-size="14" font-weight="700" lengthAdjust="spacing" textLength="37.7686" x="271" y="124.1982">k_int</text><text fill="#000000" font-family="sans-serif" font-size="14" lengthAdjust="spacing" textLength="26.7217" x="321.749" y="124.1982">123</text><line style="stroke:#000000;stroke-width:1;" x1="316.749" x2="316.749" y1="109.2031" y2="129.5"/><line style="stroke:#000000;stroke-width:1;" x1="266" x2="353.4707" y1="129.5" y2="129.5"/><text fill="#000000" font-family="sans-serif" font-size="14" font-weight="700" lengthAdjust="spacing" textLength="38.2402" x="271" y="144.4951">k_str</text><text fill="#000000" font-family="sans-serif" font-size="14" lengthAdjust="spacing" textLength="25.1631" x="321.749" y="144.4951">abc</text><line style="stroke:#000000;stroke-width:1;" x1="316.749" x2="316.749" y1="129.5" y2="149.7969"/><line style="stroke:#000000;stroke-width:1;" x1="266" x2="353.4707" y1="149.7969" y2="149.7969"/><text fill="#000000" font-family="sans-serif" font-size="14" font-weight="700" lengthAdjust="spacing" textLength="40.749" x="271" y="164.792">k_obj</text><text fill="#000000" font-family="sans-serif" font-size="14" lengthAdjust="spacing" textLength="13.3506" x="321.749" y="164.792">&#160;&#160;&#160;</text><line style="stroke:#000000;stroke-width:1;" x1="316.749" x2="316.749" y1="149.7969" y2="170.0938"/><rect fill="none" height="81.1875" rx="5" ry="5" style="stroke:#000000;stroke-width:1.5;" width="87.4707" x="266" y="88.9063"/><rect fill="#F1F1F1" height="15" rx="5" ry="5" style="stroke:#F1F1F1;stroke-width:1.5;" width="30" x="412" y="92"/><rect fill="none" height="15" rx="5" ry="5" style="stroke:#000000;stroke-width:1.5;" width="30" x="412" y="92"/><rect fill="#F1F1F1" height="20.2969" rx="5" ry="5" style="stroke:#F1F1F1;stroke-width:1.5;" width="37.5957" x="401" y="125.3516"/><text fill="#000000" font-family="sans-serif" font-size="14" font-weight="700" lengthAdjust="spacing" textLength="9.3105" x="406" y="140.3467">k</text><text fill="#000000" font-family="sans-serif" font-size="14" lengthAdjust="spacing" textLength="8.2852" x="425.3105" y="140.3467">v</text><line style="stroke:#000000;stroke-width:1;" x1="420.3105" x2="420.3105" y1="125.3516" y2="145.6484"/><rect fill="none" height="20.2969" rx="5" ry="5" style="stroke:#000000;stroke-width:1.5;" width="37.5957" x="401" y="125.3516"/><rect fill="#F1F1F1" height="101.4844" rx="5" ry="5" style="stroke:#F1F1F1;stroke-width:1.5;" width="23.3506" x="298" y="206.7578"/><text fill="#000000" font-family="sans-serif" font-size="14" lengthAdjust="spacing" textLength="13.3506" x="303" y="221.7529">&#160;&#160;&#160;</text><line style="stroke:#000000;stroke-width:1;" x1="298" x2="321.3506" y1="227.0547" y2="227.0547"/><text fill="#000000" font-family="sans-serif" font-size="14" lengthAdjust="spacing" textLength="13.3506" x="303" y="242.0498">&#160;&#160;&#160;</text><line style="stroke:#000000;stroke-width:1;" x1="298" x2="321.3506" y1="247.3516" y2="247.3516"/><text fill="#000000" font-family="sans-serif" font-size="14" lengthAdjust="spacing" textLength="13.3506" x="303" y="262.3467">&#160;&#160;&#160;</text><line style="stroke:#000000;stroke-width:1;" x1="298" x2="321.3506" y1="267.6484" y2="267.6484"/><text fill="#000000" font-family="sans-serif" font-size="14" lengthAdjust="spacing" textLength="13.3506" x="303" y="282.6436">&#160;&#160;&#160;</text><line style="stroke:#000000;stroke-width:1;" x1="298" x2="321.3506" y1="287.9453" y2="287.9453"/><text fill="#000000" font-family="sans-serif" font-size="14" lengthAdjust="spacing" textLength="13.3506" x="303" y="302.9404">&#160;&#160;&#160;</text><rect fill="none" height="101.4844" rx="5" ry="5" style="stroke:#000000;stroke-width:1.5;" width="23.3506" x="298" y="206.7578"/><rect fill="#F1F1F1" height="15" rx="5" ry="5" style="stroke:#F1F1F1;stroke-width:1.5;" width="30" x="412" y="164"/><rect fill="none" height="15" rx="5" ry="5" style="stroke:#000000;stroke-width:1.5;" width="30" x="412" y="164"/><rect fill="#F1F1F1" height="40.5938" rx="5" ry="5" style="stroke:#F1F1F1;stroke-width:1.5;" width="60.3057" x="390" y="197"/><text fill="#000000" font-family="sans-serif" font-size="14" lengthAdjust="spacing" textLength="45.7324" x="395" y="211.9951">&#9745; true</text><line style="stroke:#000000;stroke-width:1;" x1="390" x2="450.3057" y1="217.2969" y2="217.2969"/><text fill="#000000" font-family="sans-serif" font-size="14" lengthAdjust="spacing" textLength="50.3057" x="395" y="232.292">&#9744; false</text><rect fill="none" height="40.5938" rx="5" ry="5" style="stroke:#000000;stroke-width:1.5;" width="60.3057" x="390" y="197"/><rect fill="#F1F1F1" height="40.5938" rx="5" ry="5" style="stroke:#F1F1F1;stroke-width:1.5;" width="23.959" x="408" y="256"/><text fill="#000000" font-family="sans-serif" font-size="14" lengthAdjust="spacing" textLength="13.959" x="413" y="270.9951">-1</text><line style="stroke:#000000;stroke-width:1;" x1="408" x2="431.959" y1="276.2969" y2="276.2969"/><text fill="#000000" font-family="sans-serif" font-size="14" lengthAdjust="spacing" textLength="8.9072" x="413" y="291.292">1</text><rect fill="none" height="40.5938" rx="5" ry="5" style="stroke:#000000;stroke-width:1.5;" width="23.959" x="408" y="256"/><rect fill="#F1F1F1" height="60.8906" rx="5" ry="5" style="stroke:#F1F1F1;stroke-width:1.5;" width="18.8867" x="410.5" y="315"/><text fill="#000000" font-family="sans-serif" font-size="14" lengthAdjust="spacing" textLength="8.5791" x="415.5" y="329.9951">a</text><line style="stroke:#000000;stroke-width:1;" x1="410.5" x2="429.3867" y1="335.2969" y2="335.2969"/><text fill="#000000" font-family="sans-serif" font-size="14" lengthAdjust="spacing" textLength="8.8867" x="415.5" y="350.292">b</text><line style="stroke:#000000;stroke-width:1;" x1="410.5" x2="429.3867" y1="355.5938" y2="355.5938"/><text fill="#000000" font-family="sans-serif" font-size="14" lengthAdjust="spacing" textLength="7.6973" x="415.5" y="370.5889">c</text><rect fill="none" height="60.8906" rx="5" ry="5" style="stroke:#000000;stroke-width:1.5;" width="18.8867" x="410.5" y="315"/><rect fill="#F1F1F1" height="101.4844" rx="5" ry="5" style="stroke:#F1F1F1;stroke-width:1.5;" width="55.7324" x="392" y="393.7578"/><text fill="#000000" font-family="sans-serif" font-size="14" lengthAdjust="spacing" textLength="25.8125" x="397" y="408.7529">mix</text><line style="stroke:#000000;stroke-width:1;" x1="392" x2="447.7324" y1="414.0547" y2="414.0547"/><text fill="#000000" font-family="sans-serif" font-size="14" lengthAdjust="spacing" textLength="8.4014" x="397" y="429.0498">&#9216;</text><line style="stroke:#000000;stroke-width:1;" x1="392" x2="447.7324" y1="434.3516" y2="434.3516"/><text fill="#000000" font-family="sans-serif" font-size="14" lengthAdjust="spacing" textLength="45.7324" x="397" y="449.3467">&#9745; true</text><line style="stroke:#000000;stroke-width:1;" x1="392" x2="447.7324" y1="454.6484" y2="454.6484"/><text fill="#000000" font-family="sans-serif" font-size="14" lengthAdjust="spacing" textLength="8.9072" x="397" y="469.6436">1</text><line style="stroke:#000000;stroke-width:1;" x1="392" x2="447.7324" y1="474.9453" y2="474.9453"/><text fill="#000000" font-family="sans-serif" font-size="14" lengthAdjust="spacing" textLength="13.3506" x="397" y="489.9404">&#160;&#160;&#160;</text><rect fill="none" height="101.4844" rx="5" ry="5" style="stroke:#000000;stroke-width:1.5;" width="55.7324" x="392" y="393.7578"/><rect fill="#F1F1F1" height="20.2969" rx="5" ry="5" style="stroke:#F1F1F1;stroke-width:1.5;" width="37.5957" x="487" y="475.3516"/><text fill="#000000" font-family="sans-serif" font-size="14" font-weight="700" lengthAdjust="spacing" textLength="9.3105" x="492" y="490.3467">k</text><text fill="#000000" font-family="sans-serif" font-size="14" lengthAdjust="spacing" textLength="8.2852" x="511.3105" y="490.3467">v</text><line style="stroke:#000000;stroke-width:1;" x1="506.3105" x2="506.3105" y1="475.3516" y2="495.6484"/><rect fill="none" height="20.2969" rx="5" ry="5" style="stroke:#000000;stroke-width:1.5;" width="37.5957" x="487" y="475.3516"/><path d="M217,88.5 L230,88.5 C250.5019,88.5 270.2149,76.5468 284.8208,64.5703" fill="none" style="stroke:#000000;stroke-width:1;stroke-dasharray:3,3;"/><path d="M286.8606,66.9441 L286.6012,63.0405 L282.7811,62.1965 L290.7553,59.4709 L286.8606,66.9441" fill="#000000"/><ellipse cx="217" cy="88.5" fill="#000000" rx="3" ry="3" style="stroke:#000000;stroke-width:1;"/><path d="M341,99.5 L354,99.5 C371.3505,99.5 391.2862,99.5 404.5622,99.5" fill="none" style="stroke:#000000;stroke-width:1;stroke-dasharray:3,3;"/><path d="M404.5622,102.5674 L406.8627,99.5 L404.5622,96.4326 L412.2306,99.5 L404.5622,102.5674" fill="#000000"/><ellipse cx="341" cy="99.5" fill="#000000" rx="3" ry="3" style="stroke:#000000;stroke-width:1;"/><path d="M341,159.5 L354,159.5 C368.1413,159.5 383.0092,154.507 394.9989,149.0758" fill="none" style="stroke:#000000;stroke-width:1;stroke-dasharray:3,3;"/><path d="M396.3579,151.9002 L397.1172,148.0565 L393.6398,146.2513 L402.06,145.6782 L396.3579,151.9002" fill="#000000"/><ellipse cx="341" cy="159.5" fill="#000000" rx="3" ry="3" style="stroke:#000000;stroke-width:1;"/><path d="M217,129.5 L230,129.5 C239.3071,129.5 249.231,129.5 258.7907,129.5" fill="none" style="stroke:#000000;stroke-width:1;stroke-dasharray:3,3;"/><path d="M258.7907,132.5279 L261.0616,129.5 L258.7907,126.4721 L266.3605,129.5 L258.7907,132.5279" fill="#000000"/><ellipse cx="217" cy="129.5" fill="#000000" rx="3" ry="3" style="stroke:#000000;stroke-width:1;"/><path d="M310,216.5 L323,216.5 C331.7951,216.5 380.8448,191.6305 405.4372,178.8679" fill="none" style="stroke:#000000;stroke-width:1;stroke-dasharray:3,3;"/><path d="M406.8497,181.578 L407.4698,177.8085 L404.0247,176.1577 L412.2125,175.3367 L406.8497,181.578" fill="#000000"/><ellipse cx="310" cy="216.5" fill="#000000" rx="3" ry="3" style="stroke:#000000;stroke-width:1;"/><path d="M310,237.5 L323,237.5 C343.0609,237.5 364.9886,233.3046 382.8649,228.7568" fill="none" style="stroke:#000000;stroke-width:1;stroke-dasharray:3,3;"/><path d="M383.6487,231.7152 L385.0837,228.169 L382.0812,225.7984 L390.2609,226.7974 L383.6487,231.7152" fill="#000000"/><ellipse cx="310" cy="237.5" fill="#000000" rx="3" ry="3" style="stroke:#000000;stroke-width:1;"/><path d="M310,257.5 L323,257.5 C350.6137,257.5 381.849,265.0822 401.1107,270.667" fill="none" style="stroke:#000000;stroke-width:1;stroke-dasharray:3,3;"/><path d="M400.2428,273.5625 L403.2823,271.3179 L401.9785,267.7715 L408.3495,272.8366 L400.2428,273.5625" fill="#000000"/><ellipse cx="310" cy="257.5" fill="#000000" rx="3" ry="3" style="stroke:#000000;stroke-width:1;"/><path d="M310,277.5 L323,277.5 C357.9186,277.5 389.101,307.619 406.054,327.767" fill="none" style="stroke:#000000;stroke-width:1;stroke-dasharray:3,3;"/><path d="M403.6987,329.6841 L407.4918,329.5335 L408.4093,325.8499 L410.8468,333.6553 L403.6987,329.6841" fill="#000000"/><ellipse cx="310" cy="277.5" fill="#000000" rx="3" ry="3" style="stroke:#000000;stroke-width:1;"/><path d="M436.5,485.5 L449.5,485.5 C459.3741,485.5 470.2276,485.5 479.7292,485.5" fill="none" style="stroke:#000000;stroke-width:1;stroke-dasharray:3,3;"/><path d="M479.7292,488.5449 L482.0129,485.5 L479.7292,482.4551 L487.3415,485.5 L479.7292,488.5449" fill="#000000"/><ellipse cx="436.5" cy="485.5" fill="#000000" rx="3" ry="3" style="stroke:#000000;stroke-width:1;"/><path d="M310,296.5 L310,309.5 C310,358.445 353.951,399.5584 386.1632,423.1182" fill="none" style="stroke:#000000;stroke-width:1;stroke-dasharray:3,3;"/><path d="M384.3732,425.6259 L388.044,424.4607 L387.9532,420.6104 L392.4326,427.5932 L384.3732,425.6259" fill="#000000"/><ellipse cx="310" cy="296.5" fill="#000000" rx="3" ry="3" style="stroke:#000000;stroke-width:1;"/><path d="M217,149.5 L230,149.5 C249.7076,149.5 277.9936,196.9399 294.8303,228.9366" fill="none" style="stroke:#000000;stroke-width:1;stroke-dasharray:3,3;"/><path d="M292.0433,230.3826 L295.9148,231.0269 L297.6173,227.4906 L298.4452,235.9042 L292.0433,230.3826" fill="#000000"/><ellipse cx="217" cy="149.5" fill="#000000" rx="3" ry="3" style="stroke:#000000;stroke-width:1;"/><?plantuml-src NL31QiCm3BtxAupEgPbJjaCPerjlFRI7xfQ4OhjkIPewu3XZ8_ZV9pa9WrqalUSdoK_RFYWVchvpR6JWXhQ53QUKCGX-i8We8RggjYUOCkBzwNWu7uQ7jXxPOYKplf828xoQhktyvkQjTM-V7pke5laf-DhTK0wgTBhqfWmN_bykX82buQWRQm8sZ8np62DLCQFwVguTFSXyFUC--3HP6vYPJZVK07VYlo2okCnzzrxz0CT_exAeI5yadvEzYI1BSYf10HhJ50pCrAF-HfnkDTs8e_vlMSKg5jdMkakwBfCYVyfVn5hRe9v_0G00?></g></svg>