<svg xmlns="http://www.w3.org/2000/svg" xmlns:xlink="http://www.w3.org/1999/xlink" contentStyleType="text/css" data-diagram-type="JSON" height="194px" preserveAspectRatio="none" style="width:699px;height:194px;background:#FFFFFF;" version="1.1" viewBox="0 0 699 194" width="699px" zoomAndPan="magnify"><?plantuml 1.2026.3beta5?><defs/><g><rect fill="#F1F1F1" height="162.375" rx="5" ry="5" style="stroke:#F1F1F1;stroke-width:1.5;" width="185.8262" x="10" y="18.4063"/><text fill="#000000" font-family="sans-serif" font-size="14" font-weight="700" lengthAdjust="spacing" textLength="78.0664" x="15" y="33.4014">firstName</text><text fill="#000000" font-family="sans-serif" font-size="14" lengthAdjust="spacing" textLength="30.4404" x="145.0938" y="33.4014">John</text><line style="stroke:#000000;stroke-width:1;" x1="140.0938" x2="140.0938" y1="18.4063" y2="38.7031"/><rect fill="#CCFF02" height="20.2969" rx="2" ry="2" style="stroke:#CCFF02;stroke-width:1;" width="183.8262" x="11.5" y="38.7031"/><line style="stroke:#000000;stroke-width:1;" x1="10" x2="195.8262" y1="38.7031" y2="38.7031"/><text fill="#000000" font-family="sans-serif" font-size="14" font-weight="700" lengthAdjust="spacing" textLength="74.5186" x="15" y="53.6982">lastName</text><text fill="#000000" font-family="sans-serif" font-size="14" lengthAdjust="spacing" textLength="40.7764" x="145.0938" y="53.6982">Smith</text><line style="stroke:#000000;stroke-width:1;" x1="140.0938" x2="140.0938" y1="38.7031" y2="59"/><line style="stroke:#000000;stroke-width:1;" x1="10" x2="195.8262" y1="59" y2="59"/><text fill="#000000" font-family="sans-serif" font-size="14" font-weight="700" lengthAdjust="spacing" textLength="52.1855" x="15" y="73.9951">isAlive</text><text fill="#000000" font-family="sans-serif" font-size="14" lengthAdjust="spacing" textLength="45.7324" x="145.0938" y="73.9951">&#9745; true</text><line style="stroke:#000000;stroke-width:1;" x1="140.0938" x2="140.0938" y1="59" y2="79.2969"/><line style="stroke:#000000;stroke-width:1;" x1="10" x2="195.8262" y1="79.2969" y2="79.2969"/><text fill="#000000" font-family="sans-serif" font-size="14" font-weight="700" lengthAdjust="spacing" textLength="28.9639" x="15" y="94.292">age</text><text fill="#000000" font-family="sans-serif" font-size="14" lengthAdjust="spacing" textLength="17.8145" x="145.0938" y="94.292">28</text><line style="stroke:#000000;stroke-width:1;" x1="140.0938" x2="140.0938" y1="79.2969" y2="99.5938"/><line style="stroke:#000000;stroke-width:1;" x1="10" x2="195.8262" y1="99.5938" y2="99.5938"/><text fill="#000000" font-family="sans-serif" font-size="14" font-weight="700" lengthAdjust="spacing" textLength="62.5557" x="15" y="114.5889">address</text><text fill="#000000" font-family="sans-serif" font-size="14" lengthAdjust="spacing" textLength="13.3506" x="145.0938" y="114.5889">&#160;&#160;&#160;</text><line style="stroke:#000000;stroke-width:1;" x1="140.0938" x2="140.0938" y1="99.5938" y2="119.8906"/><line style="stroke:#000000;stroke-width:1;" x1="10" x2="195.8262" y1="119.8906" y2="119.8906"/><text fill="#000000" font-family="sans-serif" font-size="14" font-weight="700" lengthAdjust="spacing" textLength="120.0938" x="15" y="134.8857">phoneNumbers</text><text fill="#000000" font-family="sans-serif" font-size="14" lengthAdjust="spacing" textLength="13.3506" x="145.0938" y="134.8857">&#160;&#160;&#160;</text><line style="stroke:#000000;stroke-width:1;" x1="140.0938" x2="140.0938" y1="119.8906" y2="140.1875"/><line style="stroke:#000000;stroke-width:1;" x1="10" x2="195.8262" y1="140.1875" y2="140.1875"/><text fill="#000000" font-family="sans-serif" font-size="14" font-weight="700" lengthAdjust="spacing" textLength="64.251" x="15" y="155.1826">children</text><text fill="#000000" font-family="sans-serif" font-size="14" lengthAdjust="spacing" textLength="13.3506" x="145.0938" y="155.1826">&#160;&#160;&#160;</text><line style="stroke:#000000;stroke-width:1;" x1="140.0938" x2="140.0938" y1="140.1875" y2="160.4844"/><line style="stroke:#000000;stroke-width:1;" x1="10" x2="195.8262" y1="160.4844" y2="160.4844"/><text fill="#000000" font-family="sans-serif" font-size="14" font-weight="700" lengthAdjust="spacing" textLength="55.7676" x="15" y="175.4795">spouse</text><text fill="#000000" font-family="sans-serif" font-size="14" lengthAdjust="spacing" textLength="8.4014" x="145.0938" y="175.4795">&#9216;</text><line style="stroke:#000000;stroke-width:1;" x1="140.0938" x2="140.0938" y1="160.4844" y2="180.7813"/><rect fill="none" height="162.375" rx="5" ry="5" style="stroke:#000000;stroke-width:1.5;" width="185.8262" x="10" y="18.4063"/><rect fill="#F1F1F1" height="81.1875" rx="5" ry="5" style="stroke:#F1F1F1;stroke-width:1.5;" width="227.7852" x="233" y="10"/><text fill="#000000" font-family="sans-serif" font-size="14" font-weight="700" lengthAdjust="spacing" textLength="111.5557" x="238" y="24.9951">streetAddress</text><text fill="#000000" font-family="sans-serif" font-size="14" lengthAdjust="spacing" textLength="96.2295" x="359.5557" y="24.9951">21 2nd Street</text><line style="stroke:#000000;stroke-width:1;" x1="354.5557" x2="354.5557" y1="10" y2="30.2969"/><rect fill="#008000" height="20.2969" rx="2" ry="2" style="stroke:#008000;stroke-width:1;" width="225.7852" x="234.5" y="30.2969"/><line style="stroke:#000000;stroke-width:1;" x1="233" x2="460.7852" y1="30.2969" y2="30.2969"/><text fill="#FFFFFF" font-family="sans-serif" font-size="14" font-style="italic" lengthAdjust="spacing" textLength="25.3613" x="238" y="45.292">city</text><text fill="#FFFFFF" font-family="sans-serif" font-size="14" font-style="italic" lengthAdjust="spacing" textLength="65.9668" x="359.5557" y="45.292">New York</text><line style="stroke:#000000;stroke-width:1;" x1="354.5557" x2="354.5557" y1="30.2969" y2="50.5938"/><line style="stroke:#000000;stroke-width:1;" x1="233" x2="460.7852" y1="50.5938" y2="50.5938"/><text fill="#000000" font-family="sans-serif" font-size="14" font-weight="700" lengthAdjust="spacing" textLength="40.6602" x="238" y="65.5889">state</text><text fill="#000000" font-family="sans-serif" font-size="14" lengthAdjust="spacing" textLength="19.0244" x="359.5557" y="65.5889">NY</text><line style="stroke:#000000;stroke-width:1;" x1="354.5557" x2="354.5557" y1="50.5938" y2="70.8906"/><line style="stroke:#000000;stroke-width:1;" x1="233" x2="460.7852" y1="70.8906" y2="70.8906"/><text fill="#000000" font-family="sans-serif" font-size="14" font-weight="700" lengthAdjust="spacing" textLength="88.3203" x="238" y="85.8857">postalCode</text><text fill="#000000" font-family="sans-serif" font-size="14" lengthAdjust="spacing" textLength="85.2168" x="359.5557" y="85.8857">10021-3100</text><line style="stroke:#000000;stroke-width:1;" x1="354.5557" x2="354.5557" y1="70.8906" y2="91.1875"/><rect fill="none" height="81.1875" rx="5" ry="5" style="stroke:#000000;stroke-width:1.5;" width="227.7852" x="233" y="10"/><rect fill="#F1F1F1" height="40.5938" rx="5" ry="5" style="stroke:#F1F1F1;stroke-width:1.5;" width="23.3506" x="335.5" y="109.0938"/><text fill="#000000" font-family="sans-serif" font-size="14" lengthAdjust="spacing" textLength="13.3506" x="340.5" y="124.0889">&#160;&#160;&#160;</text><line style="stroke:#000000;stroke-width:1;" x1="335.5" x2="358.8506" y1="129.3906" y2="129.3906"/><text fill="#000000" font-family="sans-serif" font-size="14" lengthAdjust="spacing" textLength="13.3506" x="340.5" y="144.3857">&#160;&#160;&#160;</text><rect fill="none" height="40.5938" rx="5" ry="5" style="stroke:#000000;stroke-width:1.5;" width="23.3506" x="335.5" y="109.0938"/><rect fill="#F1F1F1" height="40.5938" rx="5" ry="5" style="stroke:#F1F1F1;stroke-width:1.5;" width="189.0391" x="498" y="79.0938"/><text fill="#000000" font-family="sans-serif" font-size="14" font-weight="700" lengthAdjust="spacing" textLength="35.335" x="503" y="94.0889">type</text><text fill="#000000" font-family="sans-serif" font-size="14" lengthAdjust="spacing" textLength="39.6895" x="573.9424" y="94.0889">home</text><line style="stroke:#000000;stroke-width:1;" x1="568.9424" x2="568.9424" y1="79.0938" y2="99.3906"/><rect fill="#FF0000" height="20.2969" rx="2" ry="2" style="stroke:#FF0000;stroke-width:1;" width="187.0391" x="499.5" y="99.3906"/><line style="stroke:#000000;stroke-width:1;" x1="498" x2="687.0391" y1="99.3906" y2="99.3906"/><text fill="#FFFFFF" font-family="sans-serif" font-size="14" font-weight="700" lengthAdjust="spacing" textLength="60.9424" x="503" y="114.3857">number</text><text fill="#FFFFFF" font-family="sans-serif" font-size="14" font-weight="700" lengthAdjust="spacing" textLength="108.0967" x="573.9424" y="114.3857">212 555-1234</text><line style="stroke:#000000;stroke-width:1;" x1="568.9424" x2="568.9424" y1="99.3906" y2="119.6875"/><rect fill="none" height="40.5938" rx="5" ry="5" style="stroke:#000000;stroke-width:1.5;" width="189.0391" x="498" y="79.0938"/><rect fill="#F1F1F1" height="40.5938" rx="5" ry="5" style="stroke:#F1F1F1;stroke-width:1.5;" width="179.5166" x="502.5" y="138.0938"/><text fill="#000000" font-family="sans-serif" font-size="14" font-weight="700" lengthAdjust="spacing" textLength="35.335" x="507.5" y="153.0889">type</text><text fill="#000000" font-family="sans-serif" font-size="14" lengthAdjust="spacing" textLength="38.623" x="578.4424" y="153.0889">office</text><line style="stroke:#000000;stroke-width:1;" x1="573.4424" x2="573.4424" y1="138.0938" y2="158.3906"/><line style="stroke:#000000;stroke-width:1;" x1="502.5" x2="682.0166" y1="158.3906" y2="158.3906"/><text fill="#000000" font-family="sans-serif" font-size="14" font-weight="700" lengthAdjust="spacing" textLength="60.9424" x="507.5" y="173.3857">number</text><text fill="#000000" font-family="sans-serif" font-size="14" lengthAdjust="spacing" textLength="98.5742" x="578.4424" y="173.3857">646 555-4567</text><line style="stroke:#000000;stroke-width:1;" x1="573.4424" x2="573.4424" y1="158.3906" y2="178.6875"/><rect fill="none" height="40.5938" rx="5" ry="5" style="stroke:#000000;stroke-width:1.5;" width="179.5166" x="502.5" y="138.0938"/><rect fill="#F1F1F1" height="15" rx="5" ry="5" style="stroke:#F1F1F1;stroke-width:1.5;" width="30" x="339" y="168.0938"/><rect fill="none" height="15" rx="5" ry="5" style="stroke:#000000;stroke-width:1.5;" width="30" x="339" y="168.0938"/><path d="M184,109.5938 L197,109.5938 C203.0057,109.5938 221.8804,102.9208 244.289,94.0633" fill="none" style="stroke:#000000;stroke-width:1;stroke-dasharray:3,3;"/><path d="M245.4147,96.8863 L246.4063,93.219 L243.1634,91.2403 L251.3466,91.2492 L245.4147,96.8863" fill="#000000"/><ellipse cx="184" cy="109.5938" fill="#000000" rx="3" ry="3" style="stroke:#000000;stroke-width:1;"/><path d="M347.5,119.5938 L360.5,119.5938 C403.319,119.5938 450.4283,116.1555 490.9089,112.1302" fill="none" style="stroke:#000000;stroke-width:1;stroke-dasharray:3,3;"/><path d="M491.212,115.1217 L493.1526,111.9028 L490.6058,109.1386 L498.3879,111.3724 L491.212,115.1217" fill="#000000"/><ellipse cx="347.5" cy="119.5938" fill="#000000" rx="3" ry="3" style="stroke:#000000;stroke-width:1;"/><path d="M347.5,139.5938 L360.5,139.5938 C404.8221,139.5938 453.7579,143.096 495.1761,147.0931" fill="none" style="stroke:#000000;stroke-width:1;stroke-dasharray:3,3;"/><path d="M494.8756,150.1505 L497.4692,147.3186 L495.4767,144.0358 L502.8195,147.8445 L494.8756,150.1505" fill="#000000"/><ellipse cx="347.5" cy="139.5938" fill="#000000" rx="3" ry="3" style="stroke:#000000;stroke-width:1;"/><path d="M184,129.5938 L197,129.5938 C244.2784,129.5938 299.967,129.5938 328.1602,129.5938" fill="none" style="stroke:#000000;stroke-width:1;stroke-dasharray:3,3;"/><path d="M328.1602,132.7246 L330.5084,129.5938 L328.1602,126.4629 L335.9874,129.5938 L328.1602,132.7246" fill="#000000"/><ellipse cx="184" cy="129.5938" fill="#000000" rx="3" ry="3" style="stroke:#000000;stroke-width:1;"/><path d="M184,150.5938 L197,150.5938 C213.4924,150.5938 216.8122,156.4383 233,159.5938 C268.176,166.4505 310.0311,171.5783 331.7594,174.0164" fill="none" style="stroke:#000000;stroke-width:1;stroke-dasharray:3,3;"/><path d="M331.4288,177.0269 L334.0172,174.2643 L332.09,171.0059 L339.2856,174.8429 L331.4288,177.0269" fill="#000000"/><ellipse cx="184" cy="150.5938" fill="#000000" rx="3" ry="3" style="stroke:#000000;stroke-width:1;"/><?plantuml-src ZP9VQy8m5CNV-oaksQj_scYx8KLqmWPxw8jFO-oXDj5angGawKI6tttfRHK41tjeGdwtv-JSsowSBwt_SaP7kVCdnUSHm4Way1DsWEUoshzQqsYsCifOs5dEDLPUZFOTEmhf-PMjMnEGlbIo2l2CTlGFEylPFymsHZ6qoiTzn0SXTqA5nmDHfVD5UU3aXfQCMUuSWJ6GIleJWJmNoVnMMWkZUT4SDjnsRyQuQYIee47HHYTRQVjhPa3UZD1aqEBhvO6k3zAB3aktLFAxfTus756vQu_qgJlqwMRzN8ZpOR1-USM49a0rWpLoD8M-aL0i-17UZTrVUFY67YCKxnTKcm3LoZ3aIHpJP3W96sa7YHbkcf_11-gwEA7gJpKgXGdD3Iwqdmpcev2cwJ2Xaod1ydbmty5ijxAwwv5DC_IOfjbZxn7MJqnN2Qd2C7IRh2EkDerh7NMZL7IE5bmp_6-ZP4HZceqc6-xBz1S0?></g></svg>