<svg xmlns="http://www.w3.org/2000/svg" xmlns:xlink="http://www.w3.org/1999/xlink" contentStyleType="text/css" data-diagram-type="DESCRIPTION" height="197px" preserveAspectRatio="none" style="width:399px;height:197px;background:#FFFFFF;" version="1.1" viewBox="0 0 399 197" width="399px" zoomAndPan="magnify"><?plantuml 1.2026.3beta5?><defs/><g><!--entity User--><g class="entity" data-qualified-name="User" data-source-line="2" id="ent0002"><ellipse cx="87.95" cy="22" fill="#F1F1F1" rx="16" ry="16" style="stroke:#181818;stroke-width:0.5;"/><path d="M87.95,42 C91.95,42 94.95,42 98.95,38 C106.95,38 114.95,46 114.95,54 L114.95,58 C114.95,62 110.95,66 106.95,66 L68.95,66 C64.95,66 60.95,62 60.95,58 L60.95,54 C60.95,46 68.95,38 76.95,38 C80.95,42 83.95,42 87.95,42" fill="#F1F1F1" style="stroke:#181818;stroke-width:0.5;"/><text fill="#000000" font-family="sans-serif" font-size="14" lengthAdjust="spacing" textLength="31.9102" x="71.9949" y="79.4951">User</text></g><!--entity Use--><g class="entity" data-qualified-name="Use" data-source-line="2" id="ent0003"><ellipse cx="87.9523" cy="163.2205" fill="#F1F1F1" rx="81.9523" ry="18.7905" style="stroke:#181818;stroke-width:0.5;"/><text fill="#000000" font-family="sans-serif" font-size="14" lengthAdjust="spacing" textLength="135.2559" x="20.3244" y="167.8689">Use the application</text></g><!--entity Admin--><g class="entity" data-qualified-name="Admin" data-source-line="3" id="ent0005"><ellipse cx="294.9477" cy="22" fill="#F1F1F1" rx="16" ry="16" style="stroke:#181818;stroke-width:0.5;"/><path d="M294.9477,42 C298.9477,42 301.9477,42 305.9477,38 C313.9477,38 321.9477,46 321.9477,54 L321.9477,58 C321.9477,62 317.9477,66 313.9477,66 L275.9477,66 C271.9477,66 267.9477,62 267.9477,58 L267.9477,54 C267.9477,46 275.9477,38 283.9477,38 C287.9477,42 290.9477,42 294.9477,42" fill="#F1F1F1" style="stroke:#181818;stroke-width:0.5;"/><text fill="#000000" font-family="sans-serif" font-size="14" lengthAdjust="spacing" textLength="82.7354" x="253.58" y="79.4951">Main Admin</text></g><!--entity Admin the application--><g class="entity" data-qualified-name="Admin the application" data-source-line="5" id="ent0006"><ellipse cx="294.9493" cy="163.2199" fill="#F1F1F1" rx="90.0993" ry="20.4199" style="stroke:#181818;stroke-width:0.5;"/><text fill="#000000" font-family="sans-serif" font-size="14" lengthAdjust="spacing" textLength="153.9658" x="217.9664" y="167.8683">Admin the application</text></g><!--link User to Use--><g class="link" data-entity-1="ent0002" data-entity-2="ent0003" data-link-type="dependency" data-source-line="2" id="lnk4"><path d="M87.95,83.16 C87.95,103.59 87.95,121.84 87.95,138.05" fill="none" id="User-to-Use" style="stroke:#181818;stroke-width:1;"/><polygon fill="#181818" points="87.95,144.05,91.95,135.05,87.95,139.05,83.95,135.05,87.95,144.05" style="stroke:#181818;stroke-width:1;"/></g><!--link Admin to Admin the application--><g class="link" data-entity-1="ent0005" data-entity-2="ent0006" data-link-type="dependency" data-source-line="5" id="lnk7"><path d="M294.95,83.16 C294.95,102.92 294.95,120.26 294.95,136.43" fill="none" id="Admin-to-Admin the application" style="stroke:#181818;stroke-width:1;"/><polygon fill="#181818" points="294.95,142.43,298.95,133.43,294.95,137.43,290.95,133.43,294.95,142.43" style="stroke:#181818;stroke-width:1;"/></g><?plantuml-src AyxEp2j8B4hCLKXCBial2Ywfp4bLI2nFBSxFJUMo2YrEBR9IqDMrKz00CZMvb7mJC_CK75DoC_EK51AB8Imk9Q2SGaa6K5z1GKvcSc99PZv46g89h0XY28I9fbGJ0000?></g></svg>