<svg xmlns="http://www.w3.org/2000/svg" xmlns:xlink="http://www.w3.org/1999/xlink" contentStyleType="text/css" data-diagram-type="DESCRIPTION" height="347px" preserveAspectRatio="none" style="width:293px;height:347px;background:#FFFFFF;" version="1.1" viewBox="0 0 293 347" width="293px" zoomAndPan="magnify"><?plantuml 1.2026.3beta5?><defs/><g><!--entity User--><g class="entity" data-qualified-name="User" data-source-line="1" id="ent0002"><ellipse cx="21.9551" cy="151.29" fill="#F1F1F1" rx="8" ry="8" style="stroke:#181818;stroke-width:0.5;"/><path d="M21.9551,159.29 L21.9551,186.29 M8.9551,167.29 L34.9551,167.29 M21.9551,186.29 L8.9551,201.29 M21.9551,186.29 L34.9551,201.29" fill="none" style="stroke:#181818;stroke-width:0.5;"/><text fill="#000000" font-family="sans-serif" font-size="14" lengthAdjust="spacing" textLength="31.9102" x="6" y="215.7851">User</text></g><!--entity Start--><g class="entity" data-qualified-name="Start" data-source-line="1" id="ent0003"><ellipse cx="99.9632" cy="180.9436" fill="#F1F1F1" rx="27.1832" ry="14.5236" style="stroke:#181818;stroke-width:0.5;"/><text fill="#000000" font-family="sans-serif" font-size="14" lengthAdjust="spacing" textLength="34.2002" x="82.8631" y="185.5921">Start</text></g><!--entity Use the application--><g class="entity" data-qualified-name="Use the application" data-source-line="2" id="ent0005"><ellipse cx="125.9623" cy="314.8805" fill="#F1F1F1" rx="81.9523" ry="18.7905" style="stroke:#181818;stroke-width:0.5;"/><text fill="#000000" font-family="sans-serif" font-size="14" lengthAdjust="spacing" textLength="135.2559" x="58.3344" y="319.5289">Use the application</text></g><!--entity Main Admin--><g class="entity" data-qualified-name="Main Admin" data-source-line="4" id="ent0007"><ellipse cx="196.9577" cy="14" fill="#F1F1F1" rx="8" ry="8" style="stroke:#181818;stroke-width:0.5;"/><path d="M196.9577,22 L196.9577,49 M183.9577,30 L209.9577,30 M196.9577,49 L183.9577,64 M196.9577,49 L209.9577,64" fill="none" style="stroke:#181818;stroke-width:0.5;"/><text fill="#000000" font-family="sans-serif" font-size="14" lengthAdjust="spacing" textLength="82.7354" x="155.59" y="78.4951">Main Admin</text></g><!--link User to Start--><g class="link" data-entity-1="ent0002" data-entity-2="ent0003" data-link-type="dependency" data-source-line="1" id="lnk4"><path d="M38.41,180.94 C49.79,180.94 55.17,180.94 66.55,180.94" fill="none" id="User-to-Start" style="stroke:#181818;stroke-width:1;"/><polygon fill="#181818" points="72.55,180.94,63.55,176.94,67.55,180.94,63.55,184.94,72.55,180.94" style="stroke:#181818;stroke-width:1;"/></g><!--link User to Use the application--><g class="link" data-entity-1="ent0002" data-entity-2="ent0005" data-link-type="dependency" data-source-line="2" id="lnk6"><path d="M38.25,203.95 C51.03,221.05 69.35,245.29 85.96,266.09 C94.05,276.24 99.4743,282.7897 107.0643,291.7597" fill="none" id="User-to-Use the application" style="stroke:#181818;stroke-width:1;"/><polygon fill="#181818" points="110.94,296.34,108.1801,286.8858,107.7103,292.5231,102.073,292.0533,110.94,296.34" style="stroke:#181818;stroke-width:1;"/><text fill="#000000" font-family="sans-serif" font-size="13" lengthAdjust="spacing" textLength="83.2241" x="86.96" y="262.1569">A small label</text></g><!--link Main Admin to Use the application--><g class="link" data-entity-1="ent0007" data-entity-2="ent0005" data-link-type="dependency" data-source-line="4" id="lnk8"><path d="M200.76,81.98 C203.79,127.75 203.6,206.56 174.96,266.09 C169.29,277.87 163.9764,284.423 154.5964,292.543" fill="none" id="Main Admin-to-Use the application" style="stroke:#181818;stroke-width:1;"/><polygon fill="#181818" points="150.06,296.47,159.4826,293.6037,153.8403,293.1975,154.2465,287.5552,150.06,296.47" style="stroke:#181818;stroke-width:1;"/><text fill="#000000" font-family="sans-serif" font-size="13" lengthAdjust="spacing" textLength="41.082" x="219.2986" y="170.5069">This is</text><text fill="#000000" font-family="sans-serif" font-size="13" lengthAdjust="spacing" textLength="75.7593" x="201.96" y="185.6397">yet another</text><text fill="#000000" font-family="sans-serif" font-size="13" lengthAdjust="spacing" textLength="31.4399" x="224.1197" y="200.7725">label</text></g><?plantuml-src VOon3O0m30JxJF4b52oG0ea1g82Ena0aB3aEIjomFO41wFvVTx-KaD7rQ2QZRArRlluEDS7E0BekuPsCaxRm650YYK1e2-AS7uaLmn5PVVL-nFda0Ywhti50cYgIL_rk7W00?></g></svg>