<svg xmlns="http://www.w3.org/2000/svg" xmlns:xlink="http://www.w3.org/1999/xlink" contentStyleType="text/css" data-diagram-type="DESCRIPTION" height="247px" preserveAspectRatio="none" style="width:192px;height:247px;background:#FFFFFF;" version="1.1" viewBox="0 0 192 247" width="192px" zoomAndPan="magnify"><?plantuml 1.2026.3beta5?><defs/><g><!--entity First Actor--><g class="entity" data-qualified-name="First Actor" data-source-line="1" id="ent0002"><ellipse cx="42.0083" cy="22.15" fill="#F1F1F1" rx="8" ry="8" style="stroke:#181818;stroke-width:0.5;"/><line style="stroke:#181818;stroke-width:0.5;" x1="40.0645" x2="49.7686" y1="29.9103" y2="20.2062"/><path d="M42.0083,30.15 L42.0083,57.15 M29.0083,38.15 L55.0083,38.15 M42.0083,57.15 L29.0083,72.15 M42.0083,57.15 L55.0083,72.15" fill="none" style="stroke:#181818;stroke-width:0.5;"/><text fill="#000000" font-family="sans-serif" font-size="14" lengthAdjust="spacing" textLength="72.0166" x="6" y="86.6451">First Actor</text></g><!--entity Man2--><g class="entity" data-qualified-name="Man2" data-source-line="2" id="ent0003"><ellipse cx="141.0035" cy="14" fill="#F1F1F1" rx="8" ry="8" style="stroke:#181818;stroke-width:0.5;"/><line style="stroke:#181818;stroke-width:0.5;" x1="139.0597" x2="148.7638" y1="21.7603" y2="12.0562"/><path d="M141.0035,22 L141.0035,49 M128.0035,30 L154.0035,30 M141.0035,49 L128.0035,64 M141.0035,49 L154.0035,64" fill="none" style="stroke:#181818;stroke-width:0.5;"/><text fill="#000000" font-family="sans-serif" font-size="14" lengthAdjust="spacing" textLength="55.7471" x="113.13" y="78.4951">Another</text><text fill="#000000" font-family="sans-serif" font-size="14" lengthAdjust="spacing" textLength="36.0869" x="113.13" y="94.792">actor</text></g><!--entity Woman3--><g class="entity" data-qualified-name="Woman3" data-source-line="3" id="ent0004"><ellipse cx="42.0126" cy="166.59" fill="#F1F1F1" rx="8" ry="8" style="stroke:#181818;stroke-width:0.5;"/><line style="stroke:#181818;stroke-width:0.5;" x1="40.0688" x2="49.7729" y1="174.3503" y2="164.6462"/><path d="M42.0126,174.59 L42.0126,201.59 M29.0126,182.59 L55.0126,182.59 M42.0126,201.59 L29.0126,216.59 M42.0126,201.59 L55.0126,216.59" fill="none" style="stroke:#181818;stroke-width:0.5;"/><text fill="#000000" font-family="sans-serif" font-size="14" lengthAdjust="spacing" textLength="62.4053" x="10.81" y="231.0851">Woman3</text></g><!--entity Person1--><g class="entity" data-qualified-name="Person1" data-source-line="4" id="ent0005"><ellipse cx="143.0096" cy="166.59" fill="#F1F1F1" rx="8" ry="8" style="stroke:#181818;stroke-width:0.5;"/><line style="stroke:#181818;stroke-width:0.5;" x1="141.0658" x2="150.7699" y1="174.3503" y2="164.6462"/><path d="M143.0096,174.59 L143.0096,201.59 M130.0096,182.59 L156.0096,182.59 M143.0096,201.59 L130.0096,216.59 M143.0096,201.59 L156.0096,216.59" fill="none" style="stroke:#181818;stroke-width:0.5;"/><text fill="#000000" font-family="sans-serif" font-size="14" lengthAdjust="spacing" textLength="69.6992" x="108.16" y="231.0851">Last actor</text></g><?plantuml-src itBBB2ekKN1CBialijBdidBCoo_9I2sAoKk4Y2Wa5Ylu9kOPSO7v-WhX-Rc9USOmdfLF8b0pH2b8PK1gKN5-dY40?></g></svg>