<svg xmlns="http://www.w3.org/2000/svg" xmlns:xlink="http://www.w3.org/1999/xlink" contentStyleType="text/css" data-diagram-type="DESCRIPTION" height="225px" preserveAspectRatio="none" style="width:505px;height:225px;background:#FFFFFF;" version="1.1" viewBox="0 0 505 225" width="505px" zoomAndPan="magnify"><?plantuml 1.2026.3beta5?><defs/><g><!--entity user--><g class="entity" data-qualified-name="user" data-source-line="2" id="ent0002"><ellipse cx="238.2381" cy="78.87" fill="#F1F1F1" rx="8" ry="8" style="stroke:#181818;stroke-width:0.5;"/><path d="M238.2381,86.87 L238.2381,113.87 M225.2381,94.87 L251.2381,94.87 M238.2381,113.87 L225.2381,128.87 M238.2381,113.87 L251.2381,128.87" fill="none" style="stroke:#181818;stroke-width:0.5;"/><text fill="#000000" font-family="sans-serif" font-size="14" lengthAdjust="spacing" textLength="30.5361" x="222.97" y="143.3651">user</text></g><!--entity dummyLeft--><g class="entity" data-qualified-name="dummyLeft" data-source-line="2" id="ent0003"><ellipse cx="238.2356" cy="20.5236" fill="#F1F1F1" rx="59.6756" ry="14.5236" style="stroke:#181818;stroke-width:0.5;"/><text fill="#000000" font-family="sans-serif" font-size="14" lengthAdjust="spacing" textLength="80.1514" x="198.1599" y="25.1721">dummyLeft</text></g><!--entity dummyRight--><g class="entity" data-qualified-name="dummyRight" data-source-line="3" id="ent0006"><ellipse cx="238.2428" cy="196.5246" fill="#F1F1F1" rx="63.7728" ry="15.1546" style="stroke:#181818;stroke-width:0.5;"/><text fill="#000000" font-family="sans-serif" font-size="14" lengthAdjust="spacing" textLength="90.1865" x="193.1495" y="201.173">dummyRight</text></g><!--entity dummyUp--><g class="entity" data-qualified-name="dummyUp" data-source-line="4" id="ent0008"><ellipse cx="60.2328" cy="108.5236" fill="#F1F1F1" rx="54.2328" ry="14.5236" style="stroke:#181818;stroke-width:0.5;"/><text fill="#000000" font-family="sans-serif" font-size="14" lengthAdjust="spacing" textLength="72.4541" x="24.0057" y="113.1721">dummyUp</text></g><!--entity dummyDown--><g class="entity" data-qualified-name="dummyDown" data-source-line="5" id="ent0011"><ellipse cx="426.8297" cy="108.5239" fill="#F1F1F1" rx="64.8197" ry="15.3639" style="stroke:#181818;stroke-width:0.5;"/><text fill="#000000" font-family="sans-serif" font-size="14" lengthAdjust="spacing" textLength="92.9893" x="380.3351" y="113.1724">dummyDown</text></g><!--reverse link dummyLeft to user--><g class="link" data-entity-1="ent0003" data-entity-2="ent0002" data-link-type="dependency" data-source-line="2" id="lnk5"><path d="M238.24,41.21 C238.24,52.81 238.24,58.41 238.24,70.02" fill="none" id="dummyLeft-backto-user" style="stroke:#181818;stroke-width:1;"/><polygon fill="#181818" points="238.24,35.21,234.24,44.21,238.24,40.21,242.24,44.21,238.24,35.21" style="stroke:#181818;stroke-width:1;"/></g><!--link user to dummyRight--><g class="link" data-entity-1="ent0002" data-entity-2="ent0006" data-link-type="dependency" data-source-line="3" id="lnk7"><path d="M238.24,147.05 C238.24,158.38 238.24,163.71 238.24,175.05" fill="none" id="user-to-dummyRight" style="stroke:#181818;stroke-width:1;"/><polygon fill="#181818" points="238.24,181.05,242.24,172.05,238.24,176.05,234.24,172.05,238.24,181.05" style="stroke:#181818;stroke-width:1;"/></g><!--reverse link dummyUp to user--><g class="link" data-entity-1="ent0008" data-entity-2="ent0002" data-link-type="dependency" data-source-line="4" id="lnk10"><path d="M120.52,108.52 C157.95,108.52 199.37,108.52 222.79,108.52" fill="none" id="dummyUp-backto-user" style="stroke:#181818;stroke-width:1;"/><polygon fill="#181818" points="114.52,108.52,123.52,112.52,119.52,108.52,123.52,104.52,114.52,108.52" style="stroke:#181818;stroke-width:1;"/></g><!--link user to dummyDown--><g class="link" data-entity-1="ent0002" data-entity-2="ent0011" data-link-type="dependency" data-source-line="5" id="lnk12"><path d="M253.88,108.52 C276.9,108.52 316.94,108.52 355.58,108.52" fill="none" id="user-to-dummyDown" style="stroke:#181818;stroke-width:1;"/><polygon fill="#181818" points="361.58,108.52,352.58,104.52,356.58,108.52,352.58,112.52,361.58,108.52" style="stroke:#181818;stroke-width:1;"/></g><?plantuml-src oqbDAr4eoLSeoapFA558oInAJIx9pC_ZiYejJYsoKj3D0ShhsYbef9JcvbRw03cQS2cm5hXS48Y7a2mjWCk45Y24K_BBy-0IBa2E9W00?></g></svg>