<svg xmlns="http://www.w3.org/2000/svg" xmlns:xlink="http://www.w3.org/1999/xlink" contentStyleType="text/css" data-diagram-type="DESCRIPTION" height="276px" preserveAspectRatio="none" style="width:367px;height:276px;background:#FFFFFF;" version="1.1" viewBox="0 0 367 276" width="367px" zoomAndPan="magnify"><?plantuml 1.2026.3beta5?><defs/><g><!--entity user--><g class="entity" data-qualified-name="user" data-source-line="1" id="ent0002"><ellipse cx="175.6781" cy="103.55" fill="#F1F1F1" rx="8" ry="8" style="stroke:#181818;stroke-width:0.5;"/><path d="M175.6781,111.55 L175.6781,138.55 M162.6781,119.55 L188.6781,119.55 M175.6781,138.55 L162.6781,153.55 M175.6781,138.55 L188.6781,153.55" fill="none" style="stroke:#181818;stroke-width:0.5;"/><text fill="#000000" font-family="sans-serif" font-size="14" lengthAdjust="spacing" textLength="30.5361" x="160.41" y="168.0451">user</text></g><!--entity dummyLeft--><g class="entity" data-qualified-name="dummyLeft" data-source-line="1" id="ent0003"><ellipse cx="65.6756" cy="133.1936" fill="#F1F1F1" rx="59.6756" ry="14.5236" style="stroke:#181818;stroke-width:0.5;"/><text fill="#000000" font-family="sans-serif" font-size="14" lengthAdjust="spacing" textLength="80.1514" x="25.5999" y="137.8421">dummyLeft</text></g><!--entity dummyRight--><g class="entity" data-qualified-name="dummyRight" data-source-line="2" id="ent0006"><ellipse cx="289.6828" cy="133.1946" fill="#F1F1F1" rx="63.7728" ry="15.1546" style="stroke:#181818;stroke-width:0.5;"/><text fill="#000000" font-family="sans-serif" font-size="14" lengthAdjust="spacing" textLength="90.1865" x="244.5895" y="137.843">dummyRight</text></g><!--entity dummyUp--><g class="entity" data-qualified-name="dummyUp" data-source-line="3" id="ent0008"><ellipse cx="175.6828" cy="20.5236" fill="#F1F1F1" rx="54.2328" ry="14.5236" style="stroke:#181818;stroke-width:0.5;"/><text fill="#000000" font-family="sans-serif" font-size="14" lengthAdjust="spacing" textLength="72.4541" x="139.4557" y="25.1721">dummyUp</text></g><!--entity dummyDown--><g class="entity" data-qualified-name="dummyDown" data-source-line="4" id="ent0011"><ellipse cx="175.6797" cy="246.7139" fill="#F1F1F1" rx="64.8197" ry="15.3639" style="stroke:#181818;stroke-width:0.5;"/><text fill="#000000" font-family="sans-serif" font-size="14" lengthAdjust="spacing" textLength="92.9893" x="129.1851" y="251.3624">dummyDown</text></g><!--reverse link dummyLeft to user--><g class="link" data-entity-1="ent0003" data-entity-2="ent0002" data-link-type="dependency" data-source-line="1" id="lnk5"><path d="M131.83,133.19 C143.25,133.19 148.68,133.19 160.1,133.19" fill="none" id="dummyLeft-backto-user" style="stroke:#181818;stroke-width:1;"/><polygon fill="#181818" points="125.83,133.19,134.83,137.19,130.83,133.19,134.83,129.19,125.83,133.19" style="stroke:#181818;stroke-width:1;"/></g><!--link user to dummyRight--><g class="link" data-entity-1="ent0002" data-entity-2="ent0006" data-link-type="dependency" data-source-line="2" id="lnk7"><path d="M191.26,133.19 C202.67,133.19 208.07,133.19 219.48,133.19" fill="none" id="user-to-dummyRight" style="stroke:#181818;stroke-width:1;"/><polygon fill="#181818" points="225.48,133.19,216.48,129.19,220.48,133.19,216.48,137.19,225.48,133.19" style="stroke:#181818;stroke-width:1;"/></g><!--reverse link dummyUp to user--><g class="link" data-entity-1="ent0008" data-entity-2="ent0002" data-link-type="dependency" data-source-line="3" id="lnk10"><path d="M175.68,41.54 C175.68,56.31 175.68,74.22 175.68,94.55" fill="none" id="dummyUp-backto-user" style="stroke:#181818;stroke-width:1;"/><polygon fill="#181818" points="175.68,35.54,171.68,44.54,175.68,40.54,179.68,44.54,175.68,35.54" style="stroke:#181818;stroke-width:1;"/></g><!--link user to dummyDown--><g class="link" data-entity-1="ent0002" data-entity-2="ent0011" data-link-type="dependency" data-source-line="4" id="lnk12"><path d="M175.68,171.64 C175.68,192.01 175.68,210.05 175.68,225.09" fill="none" id="user-to-dummyDown" style="stroke:#181818;stroke-width:1;"/><polygon fill="#181818" points="175.68,231.09,179.68,222.09,175.68,226.09,171.68,222.09,175.68,231.09" style="stroke:#181818;stroke-width:1;"/></g><?plantuml-src ioejJYsoKj3DIKqhqRLJq4WfpSsjz05oDBcie595cUaP2BaW40yXMLe0bmajG0Ydv9VdmILSW1nD0000?></g></svg>