<svg xmlns="http://www.w3.org/2000/svg" xmlns:xlink="http://www.w3.org/1999/xlink" contentStyleType="text/css" data-diagram-type="DESCRIPTION" height="184px" preserveAspectRatio="none" style="width:240px;height:184px;background:#FFFFFF;" version="1.1" viewBox="0 0 240 184" width="240px" zoomAndPan="magnify"><?plantuml 1.2026.3beta5?><defs/><g><!--entity user--><g class="entity" data-qualified-name="user" data-source-line="1" id="ent0002"><ellipse cx="62.8381" cy="14" fill="#F1F1F1" rx="8" ry="8" style="stroke:#181818;stroke-width:0.5;"/><path d="M62.8381,22 L62.8381,49 M49.8381,30 L75.8381,30 M62.8381,49 L49.8381,64 M62.8381,49 L75.8381,64" fill="none" style="stroke:#181818;stroke-width:0.5;"/><text fill="#000000" font-family="sans-serif" font-size="14" lengthAdjust="spacing" textLength="30.5361" x="47.57" y="78.4951">user</text></g><!--entity Use case 1--><g class="entity" data-qualified-name="Use case 1" data-source-line="1" id="ent0003"><ellipse cx="62.843" cy="156.3236" fill="#F1F1F1" rx="56.843" ry="14.5236" style="stroke:#181818;stroke-width:0.5;"/><text fill="#000000" font-family="sans-serif" font-size="14" lengthAdjust="spacing" textLength="76.1455" x="24.7703" y="160.9721">Use case 1</text></g><!--entity Use case 2--><g class="entity" data-qualified-name="Use case 2" data-source-line="2" id="ent0005"><ellipse cx="169.843" cy="43.6436" fill="#F1F1F1" rx="56.843" ry="14.5236" style="stroke:#181818;stroke-width:0.5;"/><text fill="#000000" font-family="sans-serif" font-size="14" lengthAdjust="spacing" textLength="76.1455" x="131.7703" y="48.2921">Use case 2</text></g><!--link user to Use case 1--><g class="link" data-entity-1="ent0002" data-entity-2="ent0003" data-link-type="dependency" data-source-line="1" id="lnk4"><path d="M62.84,82.11 C62.84,102.56 62.84,120.64 62.84,135.45" fill="none" id="user-to-Use case 1" style="stroke:#181818;stroke-width:1;"/><polygon fill="#181818" points="62.84,141.45,66.84,132.45,62.84,136.45,58.84,132.45,62.84,141.45" style="stroke:#181818;stroke-width:1;"/></g><!--link user to Use case 2--><g class="link" data-entity-1="ent0002" data-entity-2="ent0005" data-link-type="dependency" data-source-line="2" id="lnk6"><path d="M78.31,43.64 C89.75,43.64 95.19,43.64 106.63,43.64" fill="none" id="user-to-Use case 2" style="stroke:#181818;stroke-width:1;"/><polygon fill="#181818" points="112.63,43.64,103.63,39.64,107.63,43.64,103.63,47.64,112.63,43.64" style="stroke:#181818;stroke-width:1;"/></g><?plantuml-src ioejJYsoKj3LjLFG22rELKXE11A6cbnMK75aOIDD0000?></g></svg>