<svg xmlns="http://www.w3.org/2000/svg" xmlns:xlink="http://www.w3.org/1999/xlink" contentStyleType="text/css" data-diagram-type="DESCRIPTION" height="201px" preserveAspectRatio="none" style="width:397px;height:201px;background:#FFFFFF;" version="1.1" viewBox="0 0 397 201" width="397px" zoomAndPan="magnify"><?plantuml 1.2026.3beta5?><defs/><g><!--entity foo--><g class="entity" data-qualified-name="foo" data-source-line="1" id="ent0002"><ellipse cx="159.42" cy="14" fill="#F1F1F1" rx="8" ry="8" style="stroke:#181818;stroke-width:0.5;"/><path d="M159.42,22 L159.42,49 M146.42,30 L172.42,30 M159.42,49 L146.42,64 M159.42,49 L172.42,64" fill="none" style="stroke:#181818;stroke-width:0.5;"/><text fill="#000000" font-family="sans-serif" font-size="14" lengthAdjust="spacing" textLength="22.0596" x="148.3902" y="78.4951">foo</text></g><!--entity bar--><g class="entity" data-qualified-name="bar" data-source-line="2" id="ent0003"><ellipse cx="25.4202" cy="173.3236" fill="#F1F1F1" rx="19.4202" ry="14.5236" style="stroke:#181818;stroke-width:0.5;"/><text fill="#000000" font-family="sans-serif" font-size="14" lengthAdjust="spacing" textLength="23.2217" x="13.8094" y="177.9721">bar</text></g><!--entity bar1--><g class="entity" data-qualified-name="bar1" data-source-line="3" id="ent0005"><ellipse cx="112.4186" cy="173.3236" fill="#F1F1F1" rx="25.7186" ry="14.5236" style="stroke:#181818;stroke-width:0.5;"/><text fill="#000000" font-family="sans-serif" font-size="14" lengthAdjust="spacing" textLength="32.1289" x="96.3541" y="177.9721">bar1</text></g><!--entity bar2--><g class="entity" data-qualified-name="bar2" data-source-line="4" id="ent0007"><ellipse cx="207.4186" cy="173.3236" fill="#F1F1F1" rx="25.7186" ry="14.5236" style="stroke:#181818;stroke-width:0.5;"/><text fill="#000000" font-family="sans-serif" font-size="14" lengthAdjust="spacing" textLength="32.1289" x="191.3541" y="177.9721">bar2</text></g><!--entity bar3--><g class="entity" data-qualified-name="bar3" data-source-line="5" id="ent0009"><ellipse cx="338.4186" cy="173.3236" fill="#F1F1F1" rx="25.7186" ry="14.5236" style="stroke:#181818;stroke-width:0.5;"/><text fill="#000000" font-family="sans-serif" font-size="14" lengthAdjust="spacing" textLength="32.1289" x="322.3541" y="177.9721">bar3</text></g><!--link foo to bar--><g class="link" data-entity-1="ent0002" data-entity-2="ent0003" data-link-type="dependency" data-source-line="2" id="lnk4"><path d="M145.62,49.98 C123.07,59.32 78.19,80.65 51.42,111.79 C39.64,125.49 34.142,139.569 30.392,152.749" fill="none" id="foo-to-bar" style="stroke:#181818;stroke-width:1;"/><polygon fill="#181818" points="28.75,158.52,35.0603,150.9582,30.1183,153.7109,27.3656,148.7689,28.75,158.52" style="stroke:#181818;stroke-width:1;"/><text fill="#000000" font-family="sans-serif" font-size="13" lengthAdjust="spacing" textLength="45.7793" x="52.42" y="124.8569">normal</text></g><!--link foo to bar1--><g class="link" data-entity-1="ent0002" data-entity-2="ent0005" data-link-type="dependency" data-source-line="3" id="lnk6"><path d="M145.76,57.53 C133.56,70.04 116.55,90.27 109.42,111.79 C104.32,127.17 105.2651,140.0662 107.7651,152.5862" fill="none" id="foo-to-bar1" style="stroke:#FF0000;stroke-width:2;"/><polygon fill="#FF0000" points="108.94,158.47,111.1002,148.861,107.9609,153.5668,103.2551,150.4275,108.94,158.47" style="stroke:#FF0000;stroke-width:2;"/><text fill="#FF0000" font-family="sans-serif" font-size="13" lengthAdjust="spacing" textLength="53.7964" x="110.42" y="124.8569">red bold</text></g><!--link foo to bar2--><g class="link" data-entity-1="ent0002" data-entity-2="ent0007" data-link-type="dependency" data-source-line="4" id="lnk8"><path d="M173.3,81.57 C183.05,107.5 193.4082,135.0539 200.2482,153.2439" fill="none" id="foo-to-bar2" style="stroke:#008000;stroke-width:1;stroke-dasharray:7,7;"/><polygon fill="#008000" points="202.36,158.86,202.9363,149.028,200.6002,154.1799,195.4482,151.8438,202.36,158.86" style="stroke:#008000;stroke-width:1;"/><text fill="#008000" font-family="sans-serif" font-size="13" lengthAdjust="spacing" textLength="89.4448" x="191.42" y="124.8569">green dashed</text></g><!--link foo to bar3--><g class="link" data-entity-1="ent0002" data-entity-2="ent0009" data-link-type="dependency" data-source-line="5" id="lnk10"><path d="M173.03,49.51 C197.95,58.85 251.8,81.15 289.42,111.79 C306.4,125.62 318.1844,141.196 326.9944,154.426" fill="none" id="foo-to-bar3" style="stroke:#0000FF;stroke-width:1;stroke-dasharray:1,3;"/><polygon fill="#0000FF" points="330.32,159.42,328.661,149.7119,327.5487,155.2583,322.0023,154.146,330.32,159.42" style="stroke:#0000FF;stroke-width:1;"/><text fill="#0000FF" font-family="sans-serif" font-size="13" lengthAdjust="spacing" textLength="74.8833" x="306.42" y="124.8569">blue dotted</text></g><?plantuml-src LSqz2iCm38RXlQVue4ipf91sIw1tiMFr1rmBL0Lo_4XnEdWm4gzuS9YL1K_captq_GEN6AJ3YCBo3Rd9GuTp_XGQXTBaopLoJfFIgfvWoeV7njtClOIeL9J2xqq7sxEvEki53RuRZdcXmxBgttg5VxelzR81?></g></svg>