<svg xmlns="http://www.w3.org/2000/svg" xmlns:xlink="http://www.w3.org/1999/xlink" contentStyleType="text/css" data-diagram-type="DESCRIPTION" height="184px" preserveAspectRatio="none" style="width:240px;height:184px;background:#FFFFFF;" version="1.1" viewBox="0 0 240 184" width="240px" zoomAndPan="magnify"><?plantuml 1.2026.3beta5?><defs/><g><!--entity Use case 1--><g class="entity" data-qualified-name="Use case 1" data-source-line="1" id="ent0002"><ellipse cx="169.843" cy="20.5236" fill="#F1F1F1" rx="56.843" ry="14.5236" style="stroke:#181818;stroke-width:0.5;"/><text fill="#000000" font-family="sans-serif" font-size="14" lengthAdjust="spacing" textLength="76.1455" x="131.7703" y="25.1721">Use case 1</text></g><!--entity user--><g class="entity" data-qualified-name="user" data-source-line="1" id="ent0003"><ellipse cx="169.8381" cy="103.54" fill="#F1F1F1" rx="8" ry="8" style="stroke:#181818;stroke-width:0.5;"/><path d="M169.8381,111.54 L169.8381,138.54 M156.8381,119.54 L182.8381,119.54 M169.8381,138.54 L156.8381,153.54 M169.8381,138.54 L182.8381,153.54" fill="none" style="stroke:#181818;stroke-width:0.5;"/><text fill="#000000" font-family="sans-serif" font-size="14" lengthAdjust="spacing" textLength="30.5361" x="154.57" y="168.0351">user</text></g><!--entity Use case 2--><g class="entity" data-qualified-name="Use case 2" data-source-line="2" id="ent0005"><ellipse cx="62.843" cy="133.1936" fill="#F1F1F1" rx="56.843" ry="14.5236" style="stroke:#181818;stroke-width:0.5;"/><text fill="#000000" font-family="sans-serif" font-size="14" lengthAdjust="spacing" textLength="76.1455" x="24.7703" y="137.8421">Use case 2</text></g><!--reverse link Use case 1 to user--><g class="link" data-entity-1="ent0002" data-entity-2="ent0003" data-link-type="dependency" data-source-line="1" id="lnk4"><path d="M169.84,41.54 C169.84,56.31 169.84,74.21 169.84,94.55" fill="none" id="Use case 1-backto-user" style="stroke:#181818;stroke-width:1;stroke-dasharray:7,7;"/><polygon fill="#181818" points="169.84,35.54,165.84,44.54,169.84,40.54,173.84,44.54,169.84,35.54" style="stroke:#181818;stroke-width:1;"/></g><!--reverse link Use case 2 to user--><g class="link" data-entity-1="ent0005" data-entity-2="ent0003" data-link-type="dependency" data-source-line="2" id="lnk6"><path d="M126.1,133.19 C137.5,133.19 142.9,133.19 154.3,133.19" fill="none" id="Use case 2-backto-user" style="stroke:#181818;stroke-width:1;"/><polygon fill="#181818" points="120.1,133.19,129.1,137.19,125.1,133.19,129.1,129.19,120.1,133.19" style="stroke:#181818;stroke-width:1;"/></g><?plantuml-src qmWjJbL8JWGIXfeADdfw2bQbnQb5LbmQS74ZeBWkL1W0?></g></svg>