<svg xmlns="http://www.w3.org/2000/svg" xmlns:xlink="http://www.w3.org/1999/xlink" contentStyleType="text/css" data-diagram-type="DESCRIPTION" height="231px" preserveAspectRatio="none" style="width:301px;height:231px;background:#FFFFFF;" version="1.1" viewBox="0 0 301 231" width="301px" zoomAndPan="magnify"><?plantuml 1.2026.3beta5?><defs/><g><!--entity Admin--><g class="entity" data-qualified-name="Admin" data-source-line="1" id="ent0002"><ellipse cx="47.3677" cy="150.29" fill="#F1F1F1" rx="8" ry="8" style="stroke:#181818;stroke-width:0.5;"/><path d="M47.3677,158.29 L47.3677,185.29 M34.3677,166.29 L60.3677,166.29 M47.3677,185.29 L34.3677,200.29 M47.3677,185.29 L60.3677,200.29" fill="none" style="stroke:#181818;stroke-width:0.5;"/><text fill="#000000" font-family="sans-serif" font-size="14" lengthAdjust="spacing" textLength="82.7354" x="6" y="214.7851">Main Admin</text></g><!--entity Use--><g class="entity" data-qualified-name="Use" data-source-line="2" id="ent0003"><ellipse cx="205.3723" cy="179.9405" fill="#F1F1F1" rx="81.9523" ry="18.7905" style="stroke:#181818;stroke-width:0.5;"/><text fill="#000000" font-family="sans-serif" font-size="14" lengthAdjust="spacing" textLength="135.2559" x="137.7444" y="184.5889">Use the application</text></g><!--entity User--><g class="entity" data-qualified-name="User" data-source-line="4" id="ent0004"><ellipse cx="47.3651" cy="14" fill="#F1F1F1" rx="8" ry="8" style="stroke:#181818;stroke-width:0.5;"/><path d="M47.3651,22 L47.3651,49 M34.3651,30 L60.3651,30 M47.3651,49 L34.3651,64 M47.3651,49 L60.3651,64" fill="none" style="stroke:#181818;stroke-width:0.5;"/><text fill="#000000" font-family="sans-serif" font-size="14" lengthAdjust="spacing" textLength="31.9102" x="31.41" y="78.4951">User</text></g><!--entity Start--><g class="entity" data-qualified-name="Start" data-source-line="5" id="ent0006"><ellipse cx="205.3732" cy="43.6436" fill="#F1F1F1" rx="27.1832" ry="14.5236" style="stroke:#181818;stroke-width:0.5;"/><text fill="#000000" font-family="sans-serif" font-size="14" lengthAdjust="spacing" textLength="34.2002" x="188.2731" y="48.2921">Start</text></g><!--reverse link User to Admin--><g class="link" data-entity-1="ent0004" data-entity-2="ent0002" data-link-type="extension" data-source-line="4" id="lnk5"><path d="M47.37,100.05 C47.37,118.68 47.37,123.13 47.37,141.73" fill="none" id="User-backto-Admin" style="stroke:#181818;stroke-width:1;"/><polygon fill="none" points="47.37,82.05,41.37,100.05,53.37,100.05,47.37,82.05" style="stroke:#181818;stroke-width:1;"/></g><!--reverse link Start to Use--><g class="link" data-entity-1="ent0006" data-entity-2="ent0003" data-link-type="extension" data-source-line="5" id="lnk7"><path d="M205.37,76.51 C205.37,100.91 205.37,133.48 205.37,160.69" fill="none" id="Start-backto-Use" style="stroke:#181818;stroke-width:1;"/><polygon fill="none" points="205.37,58.51,199.37,76.51,211.37,76.51,205.37,58.51" style="stroke:#181818;stroke-width:1;"/></g><?plantuml-src i_9DpCnJS4p9pSopKaWiXh2uD4ABKnLACb8L4WiASZAJ4qioy_CqGT8W2KqkBY1Pf61JewiBKnzSabXKeWaH0gi10000?></g></svg>