<svg xmlns="http://www.w3.org/2000/svg" xmlns:xlink="http://www.w3.org/1999/xlink" contentStyleType="text/css" data-diagram-type="DESCRIPTION" height="169px" preserveAspectRatio="none" style="width:399px;height:169px;background:#FFFFFF;" version="1.1" viewBox="0 0 399 169" width="399px" zoomAndPan="magnify"><?plantuml 1.2026.3beta5?><defs/><g><!--entity User--><g class="entity" data-qualified-name="User" data-source-line="2" id="ent0002"><ellipse cx="87.9551" cy="10.5" fill="#F1F1F1" rx="4.5" ry="4.5" style="stroke:#181818;stroke-width:0.5;"/><path d="M75.4551,17 L75.4551,22 L84.9551,22 L84.9551,24.2574 L75.4551,33.7574 L79.6977,38 L87.9551,29.7426 L96.2124,38 L100.4551,33.7574 L90.9551,24.2574 L90.9551,22 L100.4551,22 L100.4551,17 L75.4551,17" fill="#F1F1F1" style="stroke:#181818;stroke-width:0.5;"/><text fill="#000000" font-family="sans-serif" font-size="14" lengthAdjust="spacing" textLength="31.9102" x="72" y="51.4951">User</text></g><!--entity Use--><g class="entity" data-qualified-name="Use" data-source-line="2" id="ent0003"><ellipse cx="87.9523" cy="135.2205" fill="#F1F1F1" rx="81.9523" ry="18.7905" style="stroke:#181818;stroke-width:0.5;"/><text fill="#000000" font-family="sans-serif" font-size="14" lengthAdjust="spacing" textLength="135.2559" x="20.3244" y="139.8689">Use the application</text></g><!--entity Admin--><g class="entity" data-qualified-name="Admin" data-source-line="3" id="ent0005"><ellipse cx="294.9477" cy="10.5" fill="#F1F1F1" rx="4.5" ry="4.5" style="stroke:#181818;stroke-width:0.5;"/><path d="M282.4477,17 L282.4477,22 L291.9477,22 L291.9477,24.2574 L282.4477,33.7574 L286.6903,38 L294.9477,29.7426 L303.205,38 L307.4477,33.7574 L297.9477,24.2574 L297.9477,22 L307.4477,22 L307.4477,17 L282.4477,17" fill="#F1F1F1" style="stroke:#181818;stroke-width:0.5;"/><text fill="#000000" font-family="sans-serif" font-size="14" lengthAdjust="spacing" textLength="82.7354" x="253.58" y="51.4951">Main Admin</text></g><!--entity Admin the application--><g class="entity" data-qualified-name="Admin the application" data-source-line="5" id="ent0006"><ellipse cx="294.9493" cy="135.2199" fill="#F1F1F1" rx="90.0993" ry="20.4199" style="stroke:#181818;stroke-width:0.5;"/><text fill="#000000" font-family="sans-serif" font-size="14" lengthAdjust="spacing" textLength="153.9658" x="217.9664" y="139.8683">Admin the application</text></g><!--link User to Use--><g class="link" data-entity-1="ent0002" data-entity-2="ent0003" data-link-type="dependency" data-source-line="2" id="lnk4"><path d="M87.95,55.06 C87.95,73.73 87.95,93.27 87.95,110.24" fill="none" id="User-to-Use" style="stroke:#181818;stroke-width:1;"/><polygon fill="#181818" points="87.95,116.24,91.95,107.24,87.95,111.24,83.95,107.24,87.95,116.24" style="stroke:#181818;stroke-width:1;"/></g><!--link Admin to Admin the application--><g class="link" data-entity-1="ent0005" data-entity-2="ent0006" data-link-type="dependency" data-source-line="5" id="lnk7"><path d="M294.95,55.06 C294.95,73.13 294.95,91.65 294.95,108.59" fill="none" id="Admin-to-Admin the application" style="stroke:#181818;stroke-width:1;"/><polygon fill="#181818" points="294.95,114.59,298.95,105.59,294.95,109.59,290.95,105.59,294.95,114.59" style="stroke:#181818;stroke-width:1;"/></g><?plantuml-src AyxEp2j8B4hCLKXCBial2Ywfp4bLyCZFoSalL-2o2YrEBR9IqDMrKz00CZMvb7mJC_CK75DoC_EK51AB8Imk9Q2SGab6ga9YGK5EPd9YIMO-H1gY2Qm8OWY4YQPK4m00?></g></svg>