<svg xmlns="http://www.w3.org/2000/svg" xmlns:xlink="http://www.w3.org/1999/xlink" contentStyleType="text/css" data-diagram-type="DESCRIPTION" height="205px" preserveAspectRatio="none" style="width:226px;height:205px;background:#FFFFFF;" version="1.1" viewBox="0 0 226 205" width="226px" zoomAndPan="magnify"><?plantuml 1.2026.3beta5?><defs/><g><!--entity user1--><g class="entity" data-qualified-name="user1" data-source-line="2" id="ent0002"><ellipse cx="25.7217" cy="125" fill="#F1F1F1" rx="8" ry="8" style="stroke:#181818;stroke-width:0.5;"/><path d="M25.7217,133 L25.7217,160 M12.7217,141 L38.7217,141 M25.7217,160 L12.7217,175 M25.7217,160 L38.7217,175" fill="none" style="stroke:#181818;stroke-width:0.5;"/><text fill="#000000" font-family="sans-serif" font-size="14" lengthAdjust="spacing" textLength="39.4434" x="6" y="189.4951">user1</text></g><!--entity Usecase 1--><g class="entity" data-qualified-name="Usecase 1" data-source-line="2" id="ent0003"><ellipse cx="159.1362" cy="154.6536" fill="#F1F1F1" rx="53.6962" ry="14.5236" style="stroke:#181818;stroke-width:0.5;"/><text fill="#000000" font-family="sans-serif" font-size="14" lengthAdjust="spacing" textLength="71.6953" x="123.2886" y="159.3021">Usecase 1</text></g><!--entity user2--><g class="entity" data-qualified-name="user2" data-source-line="3" id="ent0005"><ellipse cx="25.7217" cy="14" fill="#F1F1F1" rx="8" ry="8" style="stroke:#181818;stroke-width:0.5;"/><path d="M25.7217,22 L25.7217,49 M12.7217,30 L38.7217,30 M25.7217,49 L12.7217,64 M25.7217,49 L38.7217,64" fill="none" style="stroke:#181818;stroke-width:0.5;"/><text fill="#000000" font-family="sans-serif" font-size="14" lengthAdjust="spacing" textLength="39.4434" x="6" y="78.4951">user2</text></g><!--entity Usecase 2--><g class="entity" data-qualified-name="Usecase 2" data-source-line="3" id="ent0006"><ellipse cx="159.1362" cy="43.6536" fill="#F1F1F1" rx="53.6962" ry="14.5236" style="stroke:#181818;stroke-width:0.5;"/><text fill="#000000" font-family="sans-serif" font-size="14" lengthAdjust="spacing" textLength="71.6953" x="123.2886" y="48.3021">Usecase 2</text></g><!--link user1 to Usecase 1--><g class="link" data-entity-1="ent0002" data-entity-2="ent0003" data-link-type="dependency" data-source-line="2" id="lnk4"><path d="M45.83,154.65 C61.42,154.65 78.22,154.65 99.21,154.65" fill="none" id="user1-to-Usecase 1" style="stroke:#181818;stroke-width:1;"/><polygon fill="#181818" points="105.21,154.65,96.21,150.65,100.21,154.65,96.21,158.65,105.21,154.65" style="stroke:#181818;stroke-width:1;"/></g><!--link user2 to Usecase 2--><g class="link" data-entity-1="ent0005" data-entity-2="ent0006" data-link-type="dependency" data-source-line="3" id="lnk7"><path d="M45.83,43.65 C61.42,43.65 78.22,43.65 99.21,43.65" fill="none" id="user2-to-Usecase 2" style="stroke:#181818;stroke-width:1;"/><polygon fill="#181818" points="105.21,43.65,96.21,39.65,100.21,43.65,96.21,47.65,105.21,43.65" style="stroke:#181818;stroke-width:1;"/></g><?plantuml-src oqbDAr4eoLSeoapFA558oInAJIx9pC_ZAYrEBJ9KqDMrKz08BKvDJYnELJ3K18iQeOeQQG80?></g></svg>