<svg xmlns="http://www.w3.org/2000/svg" xmlns:xlink="http://www.w3.org/1999/xlink" contentStyleType="text/css" data-diagram-type="DESCRIPTION" height="184px" preserveAspectRatio="none" style="width:269px;height:184px;background:#FFFFFF;" version="1.1" viewBox="0 0 269 184" width="269px" zoomAndPan="magnify"><?plantuml 1.2026.3beta5?><defs/><g><!--entity user1--><g class="entity" data-qualified-name="user1" data-source-line="3" id="ent0002"><ellipse cx="59.6917" cy="14" fill="#F1F1F1" rx="8" ry="8" style="stroke:#181818;stroke-width:0.5;"/><path d="M59.6917,22 L59.6917,49 M46.6917,30 L72.6917,30 M59.6917,49 L46.6917,64 M59.6917,49 L72.6917,64" fill="none" style="stroke:#181818;stroke-width:0.5;"/><text fill="#000000" font-family="sans-serif" font-size="14" lengthAdjust="spacing" textLength="39.4434" x="39.97" y="78.4951">user1</text></g><!--entity Usecase 1--><g class="entity" data-qualified-name="Usecase 1" data-source-line="3" id="ent0003"><ellipse cx="59.6962" cy="156.3236" fill="#F1F1F1" rx="53.6962" ry="14.5236" style="stroke:#181818;stroke-width:0.5;"/><text fill="#000000" font-family="sans-serif" font-size="14" lengthAdjust="spacing" textLength="71.6953" x="23.8486" y="160.9721">Usecase 1</text></g><!--entity user2--><g class="entity" data-qualified-name="user2" data-source-line="4" id="ent0005"><ellipse cx="201.6917" cy="14" fill="#F1F1F1" rx="8" ry="8" style="stroke:#181818;stroke-width:0.5;"/><path d="M201.6917,22 L201.6917,49 M188.6917,30 L214.6917,30 M201.6917,49 L188.6917,64 M201.6917,49 L214.6917,64" fill="none" style="stroke:#181818;stroke-width:0.5;"/><text fill="#000000" font-family="sans-serif" font-size="14" lengthAdjust="spacing" textLength="39.4434" x="181.97" y="78.4951">user2</text></g><!--entity Usecase 2--><g class="entity" data-qualified-name="Usecase 2" data-source-line="4" id="ent0006"><ellipse cx="201.6962" cy="156.3236" fill="#F1F1F1" rx="53.6962" ry="14.5236" style="stroke:#181818;stroke-width:0.5;"/><text fill="#000000" font-family="sans-serif" font-size="14" lengthAdjust="spacing" textLength="71.6953" x="165.8486" y="160.9721">Usecase 2</text></g><!--link user1 to Usecase 1--><g class="link" data-entity-1="ent0002" data-entity-2="ent0003" data-link-type="dependency" data-source-line="3" id="lnk4"><path d="M59.7,82.11 C59.7,102.56 59.7,120.64 59.7,135.45" fill="none" id="user1-to-Usecase 1" style="stroke:#181818;stroke-width:1;"/><polygon fill="#181818" points="59.7,141.45,63.7,132.45,59.7,136.45,55.7,132.45,59.7,141.45" style="stroke:#181818;stroke-width:1;"/></g><!--link user2 to Usecase 2--><g class="link" data-entity-1="ent0005" data-entity-2="ent0006" data-link-type="dependency" data-source-line="4" id="lnk7"><path d="M201.7,82.11 C201.7,102.56 201.7,120.64 201.7,135.45" fill="none" id="user2-to-Usecase 2" style="stroke:#181818;stroke-width:1;"/><polygon fill="#181818" points="201.7,141.45,205.7,132.45,201.7,136.45,197.7,132.45,201.7,141.45" style="stroke:#181818;stroke-width:1;"/></g><?plantuml-src Kqz9JKiipIdXAialK2Z9LqZABod9prL8oInAJIx9pC_ZAYrEBJ9KqDMrKz08BKvDJYnELJ3K18iQeOeQQG80?></g></svg>