<svg xmlns="http://www.w3.org/2000/svg" xmlns:xlink="http://www.w3.org/1999/xlink" contentStyleType="text/css" data-diagram-type="DESCRIPTION" height="221px" preserveAspectRatio="none" style="width:377px;height:221px;background:#FFFFFF;" version="1.1" viewBox="0 0 377 221" width="377px" zoomAndPan="magnify"><?plantuml 1.2026.3beta5?><defs/><g><!--entity User--><g class="entity" data-qualified-name="User" data-source-line="17" id="ent0002"><polygon fill="#F1F1F1" points="48.8547,34.5445,47.6821,36.1468,46.2951,38.4937,44.3114,40.0753,42.2268,40.9402,40.5647,41.0152,38.4285,39.9336,36.4128,39.2269,34.8829,37.7922,34.0804,36.1497,33.6045,34.8419,33.1382,33.1337,32.3814,31.6637,32.963,30.2285,33.4725,28.6563,35.3846,27.4128,36.7298,25.7994,38.3948,25.2637,40.3743,24.8023,42.9127,25.0764,44.303,25.7321,45.9194,26.0293,47.8849,28.043,48.57,30.1688,48.8677,31.6193,48.5305,34.0095" style="stroke:#181818;stroke-width:0.5;"/><path d="M40.8105,40.5986 L40.9974,40.5986 L40.4423,45.9986 L40.9824,51.3986 L41.1658,56.7986 L40.1764,62.1986 L40.8105,67.5986 M27.8105,48.5986 L27.8105,48.5296 L33.0105,48.2195 L38.2105,48.2577 L43.4105,48.538 L48.6105,47.9841 L53.8105,48.5986 M40.8105,67.5986 L41.1824,67.9209 L37.7872,70.2317 L35.4777,73.4835 L33.3007,76.8501 L30.3529,79.5487 L27.8105,82.5986 M40.8105,67.5986 L40.8564,67.6384 L43.3891,70.58 L46.1305,73.7026 L48.7712,76.7378 L51.604,79.9396 L53.8105,82.5986" fill="none" style="stroke:#181818;stroke-width:0.5;"/><text fill="#000000" font-family="sans-serif" font-size="14" lengthAdjust="spacing" textLength="31.9102" x="24.8555" y="97.0938">User</text><text fill="#000000" font-family="sans-serif" font-size="14" font-style="italic" lengthAdjust="spacing" textLength="67.6211" x="7" y="20.7969">&#171;Human&#187;</text></g><!--entity MySql--><g class="entity" data-qualified-name="MySql" data-source-line="18" id="ent0003"><polygon fill="#F1F1F1" points="317.8501,34.5445,316.6775,36.1468,315.2905,38.4937,313.3068,40.0753,311.2222,40.9402,309.5601,41.0152,307.4239,39.9336,305.4082,39.2269,303.8783,37.7922,303.0758,36.1497,302.5999,34.8419,302.1336,33.1337,301.3768,31.6637,301.9584,30.2285,302.4679,28.6563,304.38,27.4128,305.7252,25.7994,307.3902,25.2637,309.3697,24.8023,311.908,25.0764,313.2984,25.7321,314.9148,26.0293,316.8803,28.043,317.5654,30.1688,317.8631,31.6193,317.5259,34.0095" style="stroke:#181818;stroke-width:0.5;"/><path d="M309.8059,40.5986 L309.9928,40.5986 L309.4377,45.9986 L309.9777,51.3986 L310.1612,56.7986 L309.1718,62.1986 L309.8059,67.5986 M296.8059,48.5986 L296.8059,48.5296 L302.0059,48.2195 L307.2059,48.2577 L312.4059,48.538 L317.6059,47.9841 L322.8059,48.5986 M309.8059,67.5986 L310.1778,67.9209 L306.7826,70.2317 L304.4731,73.4835 L302.2961,76.8501 L299.3483,79.5487 L296.8059,82.5986 M309.8059,67.5986 L309.8518,67.6384 L312.3845,70.58 L315.1259,73.7026 L317.7666,76.7378 L320.5994,79.9396 L322.8059,82.5986" fill="none" style="stroke:#181818;stroke-width:0.5;"/><text fill="#000000" font-family="sans-serif" font-size="14" lengthAdjust="spacing" textLength="104.6719" x="257.47" y="97.0938">Main Database</text><text fill="#000000" font-family="sans-serif" font-size="14" font-style="italic" lengthAdjust="spacing" textLength="95.3545" x="262.1287" y="20.7969">&#171;Application&#187;</text></g><!--entity Start--><g class="entity" data-qualified-name="Start" data-source-line="19" id="ent0004"><polygon fill="#8FBC8F" points="221.8444,57.6643,220.725,61.6587,216.4522,64.698,211.5496,67.726,207.5023,71.2429,199.8664,73.2481,192.8905,75.4028,184.7027,76.7931,175.6817,77.4592,167.8473,78.142,157.2212,77.0678,150.4405,76.9484,141.6707,75.2588,133.2327,72.9273,127.3202,70.8478,121.3796,67.9346,116.9351,64.8398,113.2557,61.2855,111.1125,57.6461,109.9048,53.7357,110.4672,49.9897,112.5075,46.3832,116.5069,43.2287,120.7889,39.9393,126.1427,36.9728,134.9557,35.4634,140.3613,32.6472,149.9417,31.8436,157.2509,30.4564,167.5539,30.8133,175.6822,30.8355,183.0216,31.1902,192.326,33.105,199.5929,34.9432,205.9304,37.2017,211.5248,39.9691,216.7469,43.3914,219.6767,46.63,223.0138,50.7723,222.4234,53.9253" style="stroke:#2F4F4F;stroke-width:0.5;"/><text fill="#000000" font-family="sans-serif" font-size="14" font-style="italic" lengthAdjust="spacing" textLength="81.9014" x="125.8635" y="53.8097">&#171;One Shot&#187;</text><text fill="#000000" font-family="sans-serif" font-size="14" lengthAdjust="spacing" textLength="34.2002" x="149.7141" y="70.1065">Start</text></g><!--entity Use--><g class="entity" data-qualified-name="Use" data-source-line="20" id="ent0005"><polygon fill="#9ACD32" points="262.1913,187.6866,260.4138,191.7005,253.6294,194.7546,245.8448,197.7974,239.4185,201.3314,227.2939,203.3464,216.2174,205.5116,203.2167,206.9086,188.8928,207.578,176.453,208.2642,159.5807,207.1847,148.814,207.0647,134.8892,205.3669,121.491,203.0241,112.103,200.9344,102.6704,198.007,95.6132,194.8971,89.7711,191.3255,86.368,187.6683,84.4504,183.7389,85.3433,179.9747,88.583,176.3506,94.9333,173.1807,101.7324,169.8753,110.2334,166.8943,124.2269,165.3775,132.8101,162.5477,148.0221,161.7401,159.6278,160.3461,175.9872,160.7048,188.8936,160.7271,200.5472,161.0835,215.3211,163.0076,226.8597,164.8548,236.9225,167.1243,245.8056,169.9052,254.0972,173.3442,258.7493,176.5985,264.0481,180.7611,263.1107,183.9295" style="stroke:#9ACD32;stroke-width:0.5;"/><text fill="#000000" font-family="sans-serif" font-size="14" font-style="italic" lengthAdjust="spacing" textLength="50.5518" x="149.5368" y="177.1042">&#171;Main&#187;</text><text fill="#000000" font-family="sans-serif" font-size="14" lengthAdjust="spacing" textLength="135.2559" x="107.1848" y="193.4011">Use the application</text></g><!--link User to Start--><g class="link" data-entity-1="ent0002" data-entity-2="ent0004" data-link-type="dependency" data-source-line="22" id="lnk6"><path d="M75.76,54.1018 L75.76,54.1952 L81.53,53.9176 L87.3,54.1877 L93.07,54.2794 L98.84,53.7847 L104.61,54.1018" fill="none" style="stroke:#808000;stroke-width:1;"/><polygon fill="#808000" points="110.61,54.1018,110.6385,54.1658,108.7539,53.1756,107.0362,52.5606,105.2641,51.8235,103.3134,50.6845,101.61,50.1018,101.5917,50.0834,102.3095,50.8012,103.1196,51.6114,103.9939,52.4857,104.647,53.1388,105.61,54.1018,105.7405,54.2323,104.6614,54.7532,103.9634,55.6551,103.3118,56.6036,102.3898,57.2815,101.61,58.1018,101.6192,58.1225,103.4057,57.292,105.2342,56.5561,107.0424,55.7746,108.8893,55.0802,110.61,54.1018" style="stroke:#808000;stroke-width:1;"/></g><!--link User to Use--><g class="link" data-entity-1="ent0002" data-entity-2="ent0005" data-link-type="dependency" data-source-line="23" id="lnk7"><path d="M76.02,88.7318 L76.2136,88.9344 L82.7655,95.1419 L90.4524,102.5372 L97.7696,109.5457 L103.8716,115.2821 L111.5842,122.7045 L118.3901,129.1778 L125.5569,136.0288 L132.9745,143.1423 L139.5276,149.351 L147.2916,156.8271" fill="none" style="stroke:#808000;stroke-width:1;"/><polygon fill="#808000" points="151.63,160.9718,151.6948,160.9984,150.7534,159.0974,150.1918,157.3525,149.5066,155.5568,148.4145,153.5939,147.8855,151.8625,147.8597,151.8619,147.7692,152.9903,147.8094,154.1217,147.9403,155.2552,147.7585,156.3815,148.0147,157.5179,148.0189,157.7024,146.8788,157.3336,145.751,157.5036,144.6247,157.7393,143.4897,157.5926,142.3593,157.647,142.367,157.6684,144.2098,158.3019,146.0877,159.0329,147.9486,159.7169,149.8418,160.4906,151.63,160.9718" style="stroke:#808000;stroke-width:1;"/></g><!--link MySql to Use--><g class="link" data-entity-1="ent0003" data-entity-2="ent0005" data-link-type="dependency" data-source-line="25" id="lnk8"><path d="M261.83,100.5918 L262.0229,100.7951 L254.0204,107.2374 L247.1484,114.8717 L239.9083,122.1179 L231.4576,128.0876 L224.6114,135.7491 L216.8619,142.4582 L209.4719,149.5463 L202.3943,156.9638" fill="none" style="stroke:#808000;stroke-width:1;"/><polygon fill="#808000" points="198.04,161.0918,198.0634,161.1578,199.8506,160.3038,201.7749,159.8368,203.6545,159.2439,205.3873,158.2363,207.3234,157.8026,207.3227,157.7767,206.1886,157.6303,205.0581,157.6145,203.9299,157.6894,202.7934,157.4516,201.6686,157.6518,201.853,157.6567,201.4887,156.5152,201.663,155.3881,201.903,154.2627,201.7607,153.1271,201.8194,151.9969,201.8404,152.0057,201.0537,153.8118,200.3626,155.6577,199.6254,157.4844,198.9762,159.3477,198.04,161.0918" style="stroke:#808000;stroke-width:1;"/></g><?plantuml-src TP31JiD034Jl_WfpemT-eAeYfQq8bz93n86ZcrXabSqwE0vHXVXtiaa44HN7dNaxO_jEMdCIiA9G3khCEA1fpm1TxK9BIWts7HVKCNx2dehwJQKFvK6yA1v9wvmfK-O0Uz6ITMLuCiwKhl3ttsw79t81amHVsNiPRWB-8I1LbM6kE7ltmP0M9hfkllYnQvOV9TWpDOm7wTMnmaBV3FFKDpHrPU9B-09uwLXnPS1sckP8HfVn4bka3a_N_Dr7A6rRxmgQpZYYzxcHsYOwvy2OLsAJF6QYLOpqYszYJZGcUbbuQNz8S4bQtb68AC3S_2Dy0m00?></g></svg>