<svg xmlns="http://www.w3.org/2000/svg" xmlns:xlink="http://www.w3.org/1999/xlink" contentStyleType="text/css" data-diagram-type="DESCRIPTION" height="221px" preserveAspectRatio="none" style="width:377px;height:221px;background:#FFFFFF;" version="1.1" viewBox="0 0 377 221" width="377px" zoomAndPan="magnify"><?plantuml 1.2026.3beta5?><defs/><g><!--entity User--><g class="entity" data-qualified-name="User" data-source-line="1" id="ent0002"><ellipse cx="40.8105" cy="32.5986" fill="#F1F1F1" rx="8" ry="8" style="stroke:#181818;stroke-width:0.5;"/><path d="M40.8105,40.5986 L40.8105,67.5986 M27.8105,48.5986 L53.8105,48.5986 M40.8105,67.5986 L27.8105,82.5986 M40.8105,67.5986 L53.8105,82.5986" fill="none" style="stroke:#181818;stroke-width:0.5;"/><text fill="#000000" font-family="sans-serif" font-size="14" lengthAdjust="spacing" textLength="31.9102" x="24.8555" y="97.0938">User</text><text fill="#000000" font-family="sans-serif" font-size="14" font-style="italic" lengthAdjust="spacing" textLength="67.6211" x="7" y="20.7969">&#171;Human&#187;</text></g><!--entity MySql--><g class="entity" data-qualified-name="MySql" data-source-line="2" id="ent0003"><ellipse cx="309.8059" cy="32.5986" fill="#F1F1F1" rx="8" ry="8" style="stroke:#181818;stroke-width:0.5;"/><path d="M309.8059,40.5986 L309.8059,67.5986 M296.8059,48.5986 L322.8059,48.5986 M309.8059,67.5986 L296.8059,82.5986 M309.8059,67.5986 L322.8059,82.5986" fill="none" style="stroke:#181818;stroke-width:0.5;"/><text fill="#000000" font-family="sans-serif" font-size="14" lengthAdjust="spacing" textLength="104.6719" x="257.47" y="97.0938">Main Database</text><text fill="#000000" font-family="sans-serif" font-size="14" font-style="italic" lengthAdjust="spacing" textLength="95.3545" x="262.1287" y="20.7969">&#171;Application&#187;</text></g><!--entity Start--><g class="entity" data-qualified-name="Start" data-source-line="3" id="ent0004"><ellipse cx="166.8142" cy="54.1043" fill="#F1F1F1" rx="56.0342" ry="23.6026" style="stroke:#181818;stroke-width:0.5;"/><text fill="#000000" font-family="sans-serif" font-size="14" font-style="italic" lengthAdjust="spacing" textLength="81.9014" x="125.8635" y="53.8097">&#171;One Shot&#187;</text><text fill="#000000" font-family="sans-serif" font-size="14" lengthAdjust="spacing" textLength="34.2002" x="149.7141" y="70.1065">Start</text></g><!--entity Use--><g class="entity" data-qualified-name="Use" data-source-line="4" id="ent0005"><ellipse cx="174.8127" cy="184.1093" fill="#F1F1F1" rx="88.9727" ry="23.7176" style="stroke:#181818;stroke-width:0.5;"/><text fill="#000000" font-family="sans-serif" font-size="14" font-style="italic" lengthAdjust="spacing" textLength="50.5518" x="149.5368" y="177.1042">&#171;Main&#187;</text><text fill="#000000" font-family="sans-serif" font-size="14" lengthAdjust="spacing" textLength="135.2559" x="107.1848" y="193.4011">Use the application</text></g><!--link User to Start--><g class="link" data-entity-1="ent0002" data-entity-2="ent0004" data-link-type="dependency" data-source-line="6" id="lnk6"><path d="M75.76,54.1018 C87.37,54.1018 92.99,54.1018 104.61,54.1018" fill="none" id="User-to-Start" style="stroke:#181818;stroke-width:1;"/><polygon fill="#181818" points="110.61,54.1018,101.61,50.1018,105.61,54.1018,101.61,58.1018,110.61,54.1018" style="stroke:#181818;stroke-width:1;"/></g><!--link User to Use--><g class="link" data-entity-1="ent0002" data-entity-2="ent0005" data-link-type="dependency" data-source-line="7" id="lnk7"><path d="M76.02,88.7318 C99.9,111.5518 126.4616,136.9271 147.2916,156.8271" fill="none" id="User-to-Use" style="stroke:#181818;stroke-width:1;"/><polygon fill="#181818" points="151.63,160.9718,147.8855,151.8625,148.0147,157.5179,142.3593,157.647,151.63,160.9718" style="stroke:#181818;stroke-width:1;"/></g><!--link MySql to Use--><g class="link" data-entity-1="ent0003" data-entity-2="ent0005" data-link-type="dependency" data-source-line="9" id="lnk8"><path d="M261.83,100.5918 C240.16,121.1518 219.9043,140.3638 202.3943,156.9638" fill="none" id="MySql-to-Use" style="stroke:#181818;stroke-width:1;"/><polygon fill="#181818" points="198.04,161.0918,207.3234,157.8026,201.6686,157.6518,201.8194,151.9969,198.04,161.0918" style="stroke:#181818;stroke-width:1;"/></g><?plantuml-src 2orEBLAmiL7mACrDp5Emi-EoyatCp5DmIIn9J4eiJhLII2nMyAqCBim1AN8iACZ9J4uioSm7AzK8BaaiAj44oVZdfIe4P-INW8L3YrCLIZ9I5H8HoZL1ve0amAh1LW1LSeM2RDUrKu2Q1EM3141AkRWWDiC50000?></g></svg>