<svg xmlns="http://www.w3.org/2000/svg" xmlns:xlink="http://www.w3.org/1999/xlink" contentStyleType="text/css" data-diagram-type="DESCRIPTION" height="196px" preserveAspectRatio="none" style="width:399px;height:196px;background:#FFFFFF;" version="1.1" viewBox="0 0 399 196" width="399px" zoomAndPan="magnify"><?plantuml 1.2026.3beta5?><defs/><g><!--entity User--><g class="entity" data-qualified-name="User" data-source-line="1" id="ent0002"><ellipse cx="87.9551" cy="14" fill="#F1F1F1" rx="8" ry="8" style="stroke:#181818;stroke-width:0.5;"/><path d="M87.9551,22 L87.9551,49 M74.9551,30 L100.9551,30 M87.9551,49 L74.9551,64 M87.9551,49 L100.9551,64" fill="none" style="stroke:#181818;stroke-width:0.5;"/><text fill="#000000" font-family="sans-serif" font-size="14" lengthAdjust="spacing" textLength="31.9102" x="72" y="78.4951">User</text></g><!--entity Use--><g class="entity" data-qualified-name="Use" data-source-line="1" id="ent0003"><ellipse cx="87.9523" cy="162.2205" fill="#F1F1F1" rx="81.9523" ry="18.7905" style="stroke:#181818;stroke-width:0.5;"/><text fill="#000000" font-family="sans-serif" font-size="14" lengthAdjust="spacing" textLength="135.2559" x="20.3244" y="166.8689">Use the application</text></g><!--entity Admin--><g class="entity" data-qualified-name="Admin" data-source-line="2" id="ent0005"><ellipse cx="294.9477" cy="14" fill="#F1F1F1" rx="8" ry="8" style="stroke:#181818;stroke-width:0.5;"/><path d="M294.9477,22 L294.9477,49 M281.9477,30 L307.9477,30 M294.9477,49 L281.9477,64 M294.9477,49 L307.9477,64" fill="none" style="stroke:#181818;stroke-width:0.5;"/><text fill="#000000" font-family="sans-serif" font-size="14" lengthAdjust="spacing" textLength="82.7354" x="253.58" y="78.4951">Main Admin</text></g><!--entity Admin the application--><g class="entity" data-qualified-name="Admin the application" data-source-line="4" id="ent0006"><ellipse cx="294.9493" cy="162.2199" fill="#F1F1F1" rx="90.0993" ry="20.4199" style="stroke:#181818;stroke-width:0.5;"/><text fill="#000000" font-family="sans-serif" font-size="14" lengthAdjust="spacing" textLength="153.9658" x="217.9664" y="166.8683">Admin the application</text></g><!--link User to Use--><g class="link" data-entity-1="ent0002" data-entity-2="ent0003" data-link-type="dependency" data-source-line="1" id="lnk4"><path d="M87.95,82.18 C87.95,102.54 87.95,120.8 87.95,137.02" fill="none" id="User-to-Use" style="stroke:#181818;stroke-width:1;"/><polygon fill="#181818" points="87.95,143.02,91.95,134.02,87.95,138.02,83.95,134.02,87.95,143.02" style="stroke:#181818;stroke-width:1;"/></g><!--link Admin to Admin the application--><g class="link" data-entity-1="ent0005" data-entity-2="ent0006" data-link-type="dependency" data-source-line="4" id="lnk7"><path d="M294.95,82.18 C294.95,101.88 294.95,119.22 294.95,135.4" fill="none" id="Admin-to-Admin the application" style="stroke:#181818;stroke-width:1;"/><polygon fill="#181818" points="294.95,141.4,298.95,132.4,294.95,136.4,290.95,132.4,294.95,141.4" style="stroke:#181818;stroke-width:1;"/></g><?plantuml-src imejJYsoKj3LjLFG038rkPHy4pFp51nJSZFpb1GIYo4iBYMWd499Hgf2Oa51JcPoOabcFaGQeWci2688X8ccL1C0?></g></svg>