<svg xmlns="http://www.w3.org/2000/svg" xmlns:xlink="http://www.w3.org/1999/xlink" contentStyleType="text/css" data-diagram-type="DESCRIPTION" height="211px" preserveAspectRatio="none" style="width:296px;height:211px;background:#FFFFFF;" version="1.1" viewBox="0 0 296 211" width="296px" zoomAndPan="magnify"><?plantuml 1.2026.3beta5?><defs/><g><!--cluster Restaurant--><g class="cluster" data-qualified-name="Restaurant" data-source-line="3" id="ent0003"><rect fill="none" height="190" rx="2.5" ry="2.5" style="stroke:#181818;stroke-width:1;" width="157.58" x="125.02" y="7"/><text fill="#000000" font-family="sans-serif" font-size="14" font-weight="700" lengthAdjust="spacing" textLength="0" x="203.81" y="9">Restaurant</text></g><!--entity UC1--><g class="entity" data-qualified-name="Restaurant.UC1" data-source-line="4" id="ent0004"><ellipse cx="203.8108" cy="166.0036" fill="#F1F1F1" rx="46.4408" ry="14.5236" style="stroke:#181818;stroke-width:0.5;"/><text fill="#000000" font-family="sans-serif" font-size="14" lengthAdjust="spacing" textLength="61.4346" x="173.0935" y="170.6521">Eat Food</text></g><!--entity UC2--><g class="entity" data-qualified-name="Restaurant.UC2" data-source-line="5" id="ent0005"><ellipse cx="203.8128" cy="101.9986" fill="#F1F1F1" rx="62.7928" ry="14.9586" style="stroke:#181818;stroke-width:0.5;"/><text fill="#000000" font-family="sans-serif" font-size="14" lengthAdjust="spacing" textLength="87.5273" x="160.0492" y="106.647">Pay for Food</text></g><!--entity UC3--><g class="entity" data-qualified-name="Restaurant.UC3" data-source-line="6" id="ent0006"><ellipse cx="203.8102" cy="38.0036" fill="#F1F1F1" rx="29.4502" ry="14.5236" style="stroke:#181818;stroke-width:0.5;"/><text fill="#000000" font-family="sans-serif" font-size="14" lengthAdjust="spacing" textLength="37.4063" x="185.1071" y="42.6521">Drink</text></g><!--entity fc--><g class="entity" data-qualified-name="fc" data-source-line="2" id="ent0002"><ellipse cx="43.5088" cy="72.35" fill="#F1F1F1" rx="8" ry="8" style="stroke:#181818;stroke-width:0.5;"/><path d="M43.5088,80.35 L43.5088,107.35 M30.5088,88.35 L56.5088,88.35 M43.5088,107.35 L30.5088,122.35 M43.5088,107.35 L56.5088,122.35" fill="none" style="stroke:#181818;stroke-width:0.5;"/><text fill="#000000" font-family="sans-serif" font-size="14" lengthAdjust="spacing" textLength="75.0176" x="6" y="136.8451">Food Critic</text></g><!--link fc to UC1--><g class="link" data-entity-1="ent0002" data-entity-2="ent0004" data-link-type="dependency" data-source-line="8" id="lnk7"><path d="M81.22,118.7 C92.63,123.76 105.29,129.23 117.02,134 C135.13,141.37 150.0029,146.9849 166.4329,152.9749" fill="none" id="fc-to-UC1" style="stroke:#181818;stroke-width:1;"/><polygon fill="#181818" points="172.07,155.03,164.9845,148.1893,167.3725,153.3174,162.2443,155.7053,172.07,155.03" style="stroke:#181818;stroke-width:1;"/></g><!--link fc to UC2--><g class="link" data-entity-1="ent0002" data-entity-2="ent0005" data-link-type="dependency" data-source-line="9" id="lnk8"><path d="M81.22,102 C98.85,102 114.47,102 134.56,102" fill="none" id="fc-to-UC2" style="stroke:#181818;stroke-width:1;"/><polygon fill="#181818" points="140.56,102,131.56,98,135.56,102,131.56,106,140.56,102" style="stroke:#181818;stroke-width:1;"/></g><!--link fc to UC3--><g class="link" data-entity-1="ent0002" data-entity-2="ent0006" data-link-type="dependency" data-source-line="10" id="lnk9"><path d="M81.22,85.3 C92.63,80.24 105.29,74.77 117.02,70 C137.93,61.49 156.3962,54.6166 173.7162,48.3666" fill="none" id="fc-to-UC3" style="stroke:#181818;stroke-width:1;"/><polygon fill="#181818" points="179.36,46.33,169.5366,45.6224,174.6568,48.0272,172.252,53.1474,179.36,46.33" style="stroke:#181818;stroke-width:1;"/></g><?plantuml-src JOmn2i9044NxFSKdVGgJtYPgBO8762QpSJ3imkoa4F7kcY2wtOVttvibEZp3TBevHZLXrvm2iMT3Syfvn63goWse879O7vIcMN2HuhGO9SSp04iHfY9eZkHOnSsu3hkQdUc1-2bNlAlvmJJTlw0Fhn0PRRlVAh_P_MV_1W00?></g></svg>