<svg xmlns="http://www.w3.org/2000/svg" xmlns:xlink="http://www.w3.org/1999/xlink" contentStyleType="text/css" data-diagram-type="DESCRIPTION" height="409px" preserveAspectRatio="none" style="width:313px;height:409px;background:#FFFFFF;" version="1.1" viewBox="0 0 313 409" width="313px" zoomAndPan="magnify"><?plantuml 1.2026.3beta5?><defs/><g><!--cluster Professional--><g class="cluster" data-qualified-name="Professional" data-source-line="3" id="ent0003"><path d="M8.5,175 L33.5,175 A3.75,3.75 0 0 1 36,177.5 L43,185 L110.52,185 A2.5,2.5 0 0 1 113.02,187.5 L113.02,391.5 A2.5,2.5 0 0 1 110.52,394 L8.5,394 A2.5,2.5 0 0 1 6,391.5 L6,177.5 A2.5,2.5 0 0 1 8.5,175" fill="none" style="stroke:#000000;stroke-width:1.5;"/><line style="stroke:#000000;stroke-width:1.5;" x1="6" x2="43" y1="185" y2="185"/><text fill="#000000" font-family="sans-serif" font-size="14" font-weight="700" lengthAdjust="spacing" textLength="0" x="10" y="177">Professional</text></g><!--cluster Restaurant--><g class="cluster" data-qualified-name="Restaurant" data-source-line="7" id="ent0006"><path d="M143.52,6 L177.915,6 A3.75,3.75 0 0 1 180.415,8.5 L187.415,16 L296.1,16 A2.5,2.5 0 0 1 298.6,18.5 L298.6,257.5 A2.5,2.5 0 0 1 296.1,260 L143.52,260 A2.5,2.5 0 0 1 141.02,257.5 L141.02,8.5 A2.5,2.5 0 0 1 143.52,6" fill="none" style="stroke:#000000;stroke-width:1.5;"/><line style="stroke:#000000;stroke-width:1.5;" x1="141.02" x2="187.415" y1="16" y2="16"/><text fill="#000000" font-family="sans-serif" font-size="14" font-weight="700" lengthAdjust="spacing" textLength="0" x="145.02" y="8">Restaurant</text></g><!--entity c--><g class="entity" data-qualified-name="Professional.c" data-source-line="4" id="ent0004"><ellipse cx="59.5052" cy="310.35" fill="#F1F1F1" rx="8" ry="8" style="stroke:#181818;stroke-width:0.5;"/><path d="M59.5052,318.35 L59.5052,345.35 M46.5052,326.35 L72.5052,326.35 M59.5052,345.35 L46.5052,360.35 M59.5052,345.35 L72.5052,360.35" fill="none" style="stroke:#181818;stroke-width:0.5;"/><text fill="#000000" font-family="sans-serif" font-size="14" lengthAdjust="spacing" textLength="32.1904" x="43.41" y="374.8451">Chef</text></g><!--entity fc--><g class="entity" data-qualified-name="Professional.fc" data-source-line="5" id="ent0005"><ellipse cx="59.5088" cy="199.35" fill="#F1F1F1" rx="8" ry="8" style="stroke:#181818;stroke-width:0.5;"/><path d="M59.5088,207.35 L59.5088,234.35 M46.5088,215.35 L72.5088,215.35 M59.5088,234.35 L46.5088,249.35 M59.5088,234.35 L72.5088,249.35" fill="none" style="stroke:#181818;stroke-width:0.5;"/><text fill="#000000" font-family="sans-serif" font-size="14" lengthAdjust="spacing" textLength="75.0176" x="22" y="263.8451">Food Critic</text></g><!--entity UC1--><g class="entity" data-qualified-name="Restaurant.UC1" data-source-line="8" id="ent0007"><ellipse cx="219.8108" cy="37.0036" fill="#F1F1F1" rx="46.4408" ry="14.5236" style="stroke:#181818;stroke-width:0.5;"/><text fill="#000000" font-family="sans-serif" font-size="14" lengthAdjust="spacing" textLength="61.4346" x="189.0935" y="41.6521">Eat Food</text></g><!--entity UC2--><g class="entity" data-qualified-name="Restaurant.UC2" data-source-line="9" id="ent0008"><ellipse cx="219.8128" cy="164.9986" fill="#F1F1F1" rx="62.7928" ry="14.9586" style="stroke:#181818;stroke-width:0.5;"/><text fill="#000000" font-family="sans-serif" font-size="14" lengthAdjust="spacing" textLength="87.5273" x="176.0492" y="169.647">Pay for Food</text></g><!--entity UC3--><g class="entity" data-qualified-name="Restaurant.UC3" data-source-line="10" id="ent0009"><ellipse cx="219.8102" cy="101.0036" fill="#F1F1F1" rx="29.4502" ry="14.5236" style="stroke:#181818;stroke-width:0.5;"/><text fill="#000000" font-family="sans-serif" font-size="14" lengthAdjust="spacing" textLength="37.4063" x="201.1071" y="105.6521">Drink</text></g><!--entity UC4--><g class="entity" data-qualified-name="Restaurant.UC4" data-source-line="11" id="ent0010"><ellipse cx="219.8148" cy="229.0036" fill="#F1F1F1" rx="38.7648" ry="14.5236" style="stroke:#181818;stroke-width:0.5;"/><text fill="#000000" font-family="sans-serif" font-size="14" lengthAdjust="spacing" textLength="50.5791" x="194.5253" y="233.6521">Review</text></g><!--entity g--><g class="entity" data-qualified-name="g" data-source-line="2" id="ent0002"><ellipse cx="59.5091" cy="71.35" fill="#F1F1F1" rx="8" ry="8" style="stroke:#181818;stroke-width:0.5;"/><path d="M59.5091,79.35 L59.5091,106.35 M46.5091,87.35 L72.5091,87.35 M59.5091,106.35 L46.5091,121.35 M59.5091,106.35 L72.5091,121.35" fill="none" style="stroke:#181818;stroke-width:0.5;"/><text fill="#000000" font-family="sans-serif" font-size="14" lengthAdjust="spacing" textLength="41.1182" x="38.95" y="135.8451">Guest</text></g><!--link fc to UC4--><g class="link" data-entity-1="ent0005" data-entity-2="ent0010" data-link-type="dependency" data-source-line="13" id="lnk11"><path d="M97.22,229 C122.25,229 149.31,229 174.64,229" fill="none" id="fc-to-UC4" style="stroke:#181818;stroke-width:1;"/><polygon fill="#181818" points="180.64,229,171.64,225,175.64,229,171.64,233,180.64,229" style="stroke:#181818;stroke-width:1;"/></g><!--link g to UC1--><g class="link" data-entity-1="ent0002" data-entity-2="ent0007" data-link-type="dependency" data-source-line="14" id="lnk12"><path d="M80.38,91.85 C94.88,85.28 115.05,76.31 133.02,69 C151.13,61.63 166.0029,56.0151 182.4329,50.0251" fill="none" id="g-to-UC1" style="stroke:#181818;stroke-width:1;"/><polygon fill="#181818" points="188.07,47.97,178.2443,47.2947,183.3725,49.6826,180.9845,54.8107,188.07,47.97" style="stroke:#181818;stroke-width:1;"/></g><!--link g to UC2--><g class="link" data-entity-1="ent0002" data-entity-2="ent0008" data-link-type="dependency" data-source-line="15" id="lnk13"><path d="M80.38,110.15 C94.88,116.72 115.05,125.69 133.02,133 C149.51,139.71 162.3564,144.6053 177.9364,150.3153" fill="none" id="g-to-UC2" style="stroke:#181818;stroke-width:1;"/><polygon fill="#181818" points="183.57,152.38,176.4961,145.5273,178.8754,150.6594,173.7432,153.0387,183.57,152.38" style="stroke:#181818;stroke-width:1;"/></g><!--link g to UC3--><g class="link" data-entity-1="ent0002" data-entity-2="ent0009" data-link-type="dependency" data-source-line="16" id="lnk14"><path d="M80.56,101 C108.26,101 152.41,101 184.09,101" fill="none" id="g-to-UC3" style="stroke:#181818;stroke-width:1;"/><polygon fill="#181818" points="190.09,101,181.09,97,185.09,101,181.09,105,190.09,101" style="stroke:#181818;stroke-width:1;"/></g><?plantuml-src JOwx3eCm34NtV8N5pW3jt8K-LeJK3x2C4o8GgHBJgghwxmqKHTckVQwFFB4M40VUca6Wjvv9h9iLaZWFjuM300Omwe4qec5elTCSGkpW11y5y6ys0-krI6bJN9theV5MB1KhqgI-ITD5CIuUPzaaIs32m51SK60zt2xkJPMp5j-WepdZTSxFtixZ3WuvwFXf-RMJO_n24vJbQHlCdggKwfGEFm00?></g></svg>