<svg xmlns="http://www.w3.org/2000/svg" xmlns:xlink="http://www.w3.org/1999/xlink" contentStyleType="text/css" data-diagram-type="DESCRIPTION" height="297px" preserveAspectRatio="none" style="width:519px;height:297px;background:#FFFFFF;" version="1.1" viewBox="0 0 519 297" width="519px" zoomAndPan="magnify"><?plantuml 1.2026.3beta5?><defs/><g><!--entity Admin--><g class="entity" data-qualified-name="Admin" data-source-line="1" id="ent0002"><ellipse cx="280.9577" cy="14" fill="#F1F1F1" rx="8" ry="8" style="stroke:#181818;stroke-width:0.5;"/><path d="M280.9577,22 L280.9577,49 M267.9577,30 L293.9577,30 M280.9577,49 L267.9577,64 M280.9577,49 L293.9577,64" fill="none" style="stroke:#181818;stroke-width:0.5;"/><text fill="#000000" font-family="sans-serif" font-size="14" lengthAdjust="spacing" textLength="82.7354" x="239.59" y="78.4951">Main Admin</text></g><!--entity Use--><g class="entity" data-qualified-name="Use" data-source-line="2" id="ent0003"><ellipse cx="143.9623" cy="262.2005" fill="#F1F1F1" rx="81.9523" ry="18.7905" style="stroke:#181818;stroke-width:0.5;"/><text fill="#000000" font-family="sans-serif" font-size="14" lengthAdjust="spacing" textLength="135.2559" x="76.3344" y="266.8489">Use the application</text></g><!--entity User--><g class="entity" data-qualified-name="User" data-source-line="4" id="ent0004"><ellipse cx="21.9551" cy="14" fill="#F1F1F1" rx="8" ry="8" style="stroke:#181818;stroke-width:0.5;"/><path d="M21.9551,22 L21.9551,49 M8.9551,30 L34.9551,30 M21.9551,49 L8.9551,64 M21.9551,49 L34.9551,64" fill="none" style="stroke:#181818;stroke-width:0.5;"/><text fill="#000000" font-family="sans-serif" font-size="14" lengthAdjust="spacing" textLength="31.9102" x="6" y="78.4951">User</text></g><!--entity Start--><g class="entity" data-qualified-name="Start" data-source-line="4" id="ent0005"><ellipse cx="114.9632" cy="43.6536" fill="#F1F1F1" rx="27.1832" ry="14.5236" style="stroke:#181818;stroke-width:0.5;"/><text fill="#000000" font-family="sans-serif" font-size="14" lengthAdjust="spacing" textLength="34.2002" x="97.8631" y="48.3021">Start</text></g><g class="entity" data-qualified-name="GMN9" data-source-line="9" id="ent0010"><path d="M357.52,31.08 L357.52,39.65 L322.56,43.65 L357.52,47.65 L357.52,56.2128 A0,0 0 0 0 357.52,56.2128 L504.3877,56.2128 A0,0 0 0 0 504.3877,56.2128 L504.3877,41.08 L494.3877,31.08 L357.52,31.08 A0,0 0 0 0 357.52,31.08" fill="#FEFFDD" style="stroke:#181818;stroke-width:0.5;"/><path d="M494.3877,31.08 L494.3877,41.08 L504.3877,41.08 L494.3877,31.08" fill="#FEFFDD" style="stroke:#181818;stroke-width:0.5;"/><text fill="#000000" font-family="sans-serif" font-size="13" lengthAdjust="spacing" textLength="125.8677" x="363.52" y="48.1469">This is an example.</text></g><g class="entity" data-qualified-name="GMN12" data-source-line="12" id="ent0013"><path d="M261.23,242.06 L261.23,258.2 L226.27,262.2 L261.23,266.2 L261.23,282.3256 A0,0 0 0 0 261.23,282.3256 L404.689,282.3256 A0,0 0 0 0 404.689,282.3256 L404.689,252.06 L394.689,242.06 L261.23,242.06 A0,0 0 0 0 261.23,242.06" fill="#FEFFDD" style="stroke:#181818;stroke-width:0.5;"/><path d="M394.689,242.06 L394.689,252.06 L404.689,252.06 L394.689,242.06" fill="#FEFFDD" style="stroke:#181818;stroke-width:0.5;"/><text fill="#000000" font-family="sans-serif" font-size="13" lengthAdjust="spacing" textLength="100.2358" x="267.23" y="259.1269">A note can also</text><text fill="#000000" font-family="sans-serif" font-size="13" lengthAdjust="spacing" textLength="122.459" x="267.23" y="274.2597">be on several lines</text></g><g class="entity" data-qualified-name="N2" data-source-line="16" id="ent0015"><path d="M60.1,141.8 L60.1,182.0656 L227.807,182.0656 L227.807,151.8 L217.807,141.8 L60.1,141.8" fill="#FEFFDD" style="stroke:#181818;stroke-width:0.5;"/><path d="M217.807,141.8 L217.807,151.8 L227.807,151.8 L217.807,141.8" fill="#FEFFDD" style="stroke:#181818;stroke-width:1;"/><text fill="#000000" font-family="sans-serif" font-size="13" lengthAdjust="spacing" textLength="146.707" x="66.1" y="158.8669">This note is connected</text><text fill="#000000" font-family="sans-serif" font-size="13" lengthAdjust="spacing" textLength="119.666" x="66.1" y="173.9997">to several objects.</text></g><!--link User to Start--><g class="link" data-entity-1="ent0004" data-entity-2="ent0005" data-link-type="dependency" data-source-line="4" id="lnk6"><path d="M38.3,43.65 C54.67,43.65 65.04,43.65 81.41,43.65" fill="none" id="User-to-Start" style="stroke:#181818;stroke-width:1;"/><polygon fill="#181818" points="87.41,43.65,78.41,39.65,82.41,43.65,78.41,47.65,87.41,43.65" style="stroke:#181818;stroke-width:1;"/></g><!--link User to Use--><g class="link" data-entity-1="ent0004" data-entity-2="ent0003" data-link-type="dependency" data-source-line="5" id="lnk7"><path d="M20.41,82.11 C20.85,111.23 25.18,151.64 42.96,182.06 C59.03,209.57 83.4936,227.9791 106.5236,241.5791" fill="none" id="User-to-Use" style="stroke:#181818;stroke-width:1;"/><polygon fill="#181818" points="111.69,244.63,105.9743,236.6093,107.3847,242.0876,101.9064,243.4979,111.69,244.63" style="stroke:#181818;stroke-width:1;"/></g><!--link Admin to Use--><g class="link" data-entity-1="ent0002" data-entity-2="ent0003" data-link-type="dependency" data-source-line="7" id="lnk8"><path d="M277.68,82.29 C273.65,111.51 264.72,151.97 244.96,182.06 C227.34,208.87 202.7101,227.4319 180.0401,241.2819" fill="none" id="Admin-to-Use" style="stroke:#181818;stroke-width:1;"/><polygon fill="#181818" points="174.92,244.41,184.6855,243.1313,179.1867,241.8033,180.5147,236.3045,174.92,244.41" style="stroke:#181818;stroke-width:1;"/></g><!--link Start to N2--><g class="link" data-entity-1="ent0005" data-entity-2="ent0015" data-link-type="association" data-source-line="17" id="lnk16"><path d="M118.4,58.45 C123.53,79.02 133.21,117.84 139.07,141.34" fill="none" id="Start-N2" style="stroke:#181818;stroke-width:1;stroke-dasharray:7,7;"/></g><!--link N2 to Use--><g class="link" data-entity-1="ent0015" data-entity-2="ent0003" data-link-type="association" data-source-line="18" id="lnk17"><path d="M143.96,182.35 C143.96,200.02 143.96,225.91 143.96,243.15" fill="none" id="N2-Use" style="stroke:#181818;stroke-width:1;stroke-dasharray:7,7;"/></g><?plantuml-src NOyn3i8m34NtdEAhKplGeMC7f1w0Bi36uhQ61gLEbKI8uvEa5KX8KVBz_6t7xOcqe9iMBIt8RqgLLyy8CuFMrUYHWhPIfNHAL4h5s-5mH7aEv4Arnmbi-TmbWXyH6nXEF-O0Uz-ceCLbrXxna83VjAo6wt_hLWzqo7oCLZBUHZ8mhC3pYnqP62ti5SkKVNkN8W_8ChwZ5U4ny7IJOB-5TdX6wEiYxTStQjy9TPsYlaaYV-83?></g></svg>