<svg xmlns="http://www.w3.org/2000/svg" xmlns:xlink="http://www.w3.org/1999/xlink" contentStyleType="text/css" data-diagram-type="SEQUENCE" height="218px" preserveAspectRatio="none" style="width:433px;height:218px;background:#FFFFFF;" version="1.1" viewBox="0 0 433 218" width="433px" zoomAndPan="magnify"><?plantuml 1.2026.3beta5?><defs/><g><line style="stroke:#181818;stroke-width:1;" x1="155.8193" x2="155.8193" y1="72.4297" y2="155.8281"/><polygon fill="#181818" points="151.8193,82.4297,155.8193,72.4297,159.8193,82.4297,155.8193,78.4297" style="stroke:#181818;stroke-width:1;"/><polygon fill="#181818" points="151.8193,145.8281,155.8193,155.8281,159.8193,145.8281,155.8193,149.8281" style="stroke:#181818;stroke-width:1;"/><text fill="#000000" font-family="sans-serif" font-size="13" lengthAdjust="spacing" textLength="68.8911" x="159.8193" y="118.6294">some time</text><g><title>Alice</title><rect fill="#000000" fill-opacity="0.00000" height="134.5313" width="8" x="30.3335" y="41.2969"/><line style="stroke:#181818;stroke-width:0.5;stroke-dasharray:5,5;" x1="33.8335" x2="33.8335" y1="41.2969" y2="175.8281"/></g><g><title>Bob</title><rect fill="#000000" fill-opacity="0.00000" height="134.5313" width="8" x="274.3052" y="41.2969"/><line style="stroke:#181818;stroke-width:0.5;stroke-dasharray:5,5;" x1="277.8052" x2="277.8052" y1="41.2969" y2="175.8281"/></g><g><title>Max</title><rect fill="#000000" fill-opacity="0.00000" height="134.5313" width="8" x="397.646" y="41.2969"/><line style="stroke:#181818;stroke-width:0.5;stroke-dasharray:5,5;" x1="401.146" x2="401.146" y1="41.2969" y2="175.8281"/></g><rect fill="#E2E2F0" height="30.2969" rx="2.5" ry="2.5" style="stroke:#181818;stroke-width:0.5;" width="47.667" x="10" y="10"/><text fill="#000000" font-family="sans-serif" font-size="14" lengthAdjust="spacing" textLength="33.667" x="17" y="29.9951">Alice</text><rect fill="#E2E2F0" height="30.2969" rx="2.5" ry="2.5" style="stroke:#181818;stroke-width:0.5;" width="41.0566" x="257.2769" y="10"/><text fill="#000000" font-family="sans-serif" font-size="14" lengthAdjust="spacing" textLength="27.0566" x="264.2769" y="29.9951">Bob</text><rect fill="#E2E2F0" height="30.2969" rx="2.5" ry="2.5" style="stroke:#181818;stroke-width:0.5;" width="42.9434" x="379.6743" y="10"/><text fill="#000000" font-family="sans-serif" font-size="14" lengthAdjust="spacing" textLength="28.9434" x="386.6743" y="29.9951">Max</text><rect fill="#E2E2F0" height="30.2969" rx="2.5" ry="2.5" style="stroke:#181818;stroke-width:0.5;" width="47.667" x="10" y="175.8281"/><text fill="#000000" font-family="sans-serif" font-size="14" lengthAdjust="spacing" textLength="33.667" x="17" y="195.8232">Alice</text><rect fill="#E2E2F0" height="30.2969" rx="2.5" ry="2.5" style="stroke:#181818;stroke-width:0.5;" width="41.0566" x="257.2769" y="175.8281"/><text fill="#000000" font-family="sans-serif" font-size="14" lengthAdjust="spacing" textLength="27.0566" x="264.2769" y="195.8232">Bob</text><rect fill="#E2E2F0" height="30.2969" rx="2.5" ry="2.5" style="stroke:#181818;stroke-width:0.5;" width="42.9434" x="379.6743" y="175.8281"/><text fill="#000000" font-family="sans-serif" font-size="14" lengthAdjust="spacing" textLength="28.9434" x="386.6743" y="195.8232">Max</text><polygon fill="#181818" points="265.8052,66.4297,275.8052,70.4297,265.8052,74.4297,269.8052,70.4297" style="stroke:#181818;stroke-width:1;"/><line style="stroke:#181818;stroke-width:1;" x1="33.8335" x2="271.8052" y1="70.4297" y2="70.4297"/><text fill="#000000" font-family="sans-serif" font-size="13" lengthAdjust="spacing" textLength="219.9717" x="40.8335" y="65.3638">start doing things during duration</text><polygon fill="#181818" points="389.146,95.5625,399.146,99.5625,389.146,103.5625,393.146,99.5625" style="stroke:#181818;stroke-width:1;"/><line style="stroke:#181818;stroke-width:1;" x1="277.8052" x2="395.146" y1="99.5625" y2="99.5625"/><text fill="#000000" font-family="sans-serif" font-size="13" lengthAdjust="spacing" textLength="68.8276" x="284.8052" y="94.4966">something</text><polygon fill="#181818" points="288.8052,124.6953,278.8052,128.6953,288.8052,132.6953,284.8052,128.6953" style="stroke:#181818;stroke-width:1;"/><line style="stroke:#181818;stroke-width:1;" x1="282.8052" x2="400.146" y1="128.6953" y2="128.6953"/><text fill="#000000" font-family="sans-serif" font-size="13" lengthAdjust="spacing" textLength="99.3408" x="294.8052" y="123.6294">something else</text><polygon fill="#181818" points="44.8335,153.8281,34.8335,157.8281,44.8335,161.8281,40.8335,157.8281" style="stroke:#181818;stroke-width:1;"/><line style="stroke:#181818;stroke-width:1;" x1="38.8335" x2="276.8052" y1="157.8281" y2="157.8281"/><text fill="#000000" font-family="sans-serif" font-size="13" lengthAdjust="spacing" textLength="35.0518" x="50.8335" y="152.7622">finish</text><line style="stroke:#181818;stroke-width:1;" x1="155.8193" x2="155.8193" y1="72.4297" y2="155.8281"/><polygon fill="#181818" points="151.8193,82.4297,155.8193,72.4297,159.8193,82.4297,155.8193,78.4297" style="stroke:#181818;stroke-width:1;"/><polygon fill="#181818" points="151.8193,145.8281,155.8193,155.8281,159.8193,145.8281,155.8193,149.8281" style="stroke:#181818;stroke-width:1;"/><text fill="#000000" font-family="sans-serif" font-size="13" lengthAdjust="spacing" textLength="68.8911" x="159.8193" y="118.6294">some time</text><?plantuml-src HOxH3S8m34J_FSKn00jK2AdyCqGWfhNKn2Xn9KJLtKaQglxOklCxswTtSaDmCDOlBCrCj6HpoLRqapmPvojk-a27pOLNYGDiB3N3pwcgqfo9HgfWuU_kKtaDl75KzR5cjy5JPbeu-XN_OBlOuILHydXySYcp1hOyJ0B_0000?></g></svg>