<svg xmlns="http://www.w3.org/2000/svg" xmlns:xlink="http://www.w3.org/1999/xlink" contentStyleType="text/css" data-diagram-type="SEQUENCE" height="132px" preserveAspectRatio="none" style="width:136px;height:132px;background:#FFFFFF;" version="1.1" viewBox="0 0 136 132" width="136px" zoomAndPan="magnify"><?plantuml 1.2026.3beta5?><defs/><g><g class="participant-lifeline" data-entity-uid="part1" data-qualified-name="Alice" data-source-line="2" id="part1-lifeline"><g><title>Alice</title><rect fill="#000000" fill-opacity="0.00000" height="49.1328" width="8" x="28.5" y="82.2969"/><line style="stroke:#181818;stroke-width:0.5;stroke-dasharray:5,5;" x1="32" x2="32" y1="82.2969" y2="131.4297"/></g></g><g class="participant-lifeline" data-entity-uid="part2" data-qualified-name="Bob" data-source-line="3" id="part2-lifeline"><g><title>Bob</title><rect fill="#000000" fill-opacity="0.00000" height="49.1328" width="8" x="93.5" y="82.2969"/><line style="stroke:#181818;stroke-width:0.5;stroke-dasharray:5,5;" x1="97" x2="97" y1="82.2969" y2="131.4297"/></g></g><g class="participant participant-head" data-entity-uid="part1" data-qualified-name="Alice" data-source-line="2" id="part1-head"><text fill="#000000" font-family="sans-serif" font-size="14" lengthAdjust="spacing" textLength="33.667" x="12.6665" y="78.9951">Alice</text><ellipse cx="32.5" cy="21.5" fill="#E2E2F0" rx="16" ry="16" style="stroke:#181818;stroke-width:0.5;"/><path d="M32.5,41.5 C36.5,41.5 39.5,41.5 43.5,37.5 C51.5,37.5 59.5,45.5 59.5,53.5 L59.5,57.5 C59.5,61.5 55.5,65.5 51.5,65.5 L13.5,65.5 C9.5,65.5 5.5,61.5 5.5,57.5 L5.5,53.5 C5.5,45.5 13.5,37.5 21.5,37.5 C25.5,41.5 28.5,41.5 32.5,41.5" fill="#E2E2F0" style="stroke:#181818;stroke-width:0.5;"/></g><g class="participant participant-head" data-entity-uid="part2" data-qualified-name="Bob" data-source-line="3" id="part2-head"><text fill="#000000" font-family="sans-serif" font-size="14" lengthAdjust="spacing" textLength="27.0566" x="80.9717" y="78.9951">Bob</text><ellipse cx="97.5" cy="21.5" fill="#E2E2F0" rx="16" ry="16" style="stroke:#181818;stroke-width:0.5;"/><path d="M97.5,41.5 C101.5,41.5 104.5,41.5 108.5,37.5 C116.5,37.5 124.5,45.5 124.5,53.5 L124.5,57.5 C124.5,61.5 120.5,65.5 116.5,65.5 L78.5,65.5 C74.5,65.5 70.5,61.5 70.5,57.5 L70.5,53.5 C70.5,45.5 78.5,37.5 86.5,37.5 C90.5,41.5 93.5,41.5 97.5,41.5" fill="#E2E2F0" style="stroke:#181818;stroke-width:0.5;"/></g><g class="message" data-entity-1="part1" data-entity-2="part2" data-source-line="4" id="msg1"><polygon fill="#181818" points="85.5,109.4297,95.5,113.4297,85.5,117.4297,89.5,113.4297" style="stroke:#181818;stroke-width:1;"/><line style="stroke:#181818;stroke-width:1;" x1="32.5" x2="91.5" y1="113.4297" y2="113.4297"/><text fill="#000000" font-family="sans-serif" font-size="13" lengthAdjust="spacing" textLength="31.4146" x="39.5" y="108.3638">hello</text></g><?plantuml-src AyxEp2j8B4hCLKXCBial2Ywfp4bLI2nFBSxFJUK22oauvcGcmzXE-KbSOBw2hXs8es2ba96QavFFbP6PaggGbfzVafHV0G00?></g></svg>