<svg xmlns="http://www.w3.org/2000/svg" xmlns:xlink="http://www.w3.org/1999/xlink" contentStyleType="text/css" data-diagram-type="SEQUENCE" height="233px" preserveAspectRatio="none" style="width:114px;height:233px;background:#FFFFFF;" version="1.1" viewBox="0 0 114 233" width="114px" zoomAndPan="magnify"><?plantuml 1.2026.3beta5?><defs/><g><g class="participant-lifeline" data-entity-uid="part1" data-qualified-name="Bob" data-source-line="1" id="part1-lifeline"><g><title>Bob</title><rect fill="#000000" fill-opacity="0.00000" height="160" width="8" x="21.5283" y="36.2969"/><line style="stroke:#181818;stroke-width:0.5;stroke-dasharray:5,5;" x1="25" x2="25" y1="36.2969" y2="196.2969"/></g></g><g class="participant-lifeline" data-entity-uid="part2" data-qualified-name="Alice" data-source-line="1" id="part2-lifeline"><g><title>Alice</title><rect fill="#000000" fill-opacity="0.00000" height="160" width="8" x="75.8901" y="36.2969"/><line style="stroke:#181818;stroke-width:0.5;stroke-dasharray:5,5;" x1="79.0566" x2="79.0566" y1="36.2969" y2="196.2969"/></g></g><g class="participant participant-head" data-entity-uid="part1" data-qualified-name="Bob" data-source-line="1" id="part1-head"><rect fill="#E2E2F0" height="30.2969" rx="2.5" ry="2.5" style="stroke:#181818;stroke-width:0.5;" width="41.0566" x="5" y="5"/><text fill="#000000" font-family="sans-serif" font-size="14" lengthAdjust="spacing" textLength="27.0566" x="12" y="24.9951">Bob</text></g><g class="participant participant-tail" data-entity-uid="part1" data-qualified-name="Bob" data-source-line="1" id="part1-tail"><rect fill="#E2E2F0" height="30.2969" rx="2.5" ry="2.5" style="stroke:#181818;stroke-width:0.5;" width="41.0566" x="5" y="195.2969"/><text fill="#000000" font-family="sans-serif" font-size="14" lengthAdjust="spacing" textLength="27.0566" x="12" y="215.292">Bob</text></g><g class="participant participant-head" data-entity-uid="part2" data-qualified-name="Alice" data-source-line="1" id="part2-head"><rect fill="#E2E2F0" height="30.2969" rx="2.5" ry="2.5" style="stroke:#181818;stroke-width:0.5;" width="47.667" x="56.0566" y="5"/><text fill="#000000" font-family="sans-serif" font-size="14" lengthAdjust="spacing" textLength="33.667" x="63.0566" y="24.9951">Alice</text></g><g class="participant participant-tail" data-entity-uid="part2" data-qualified-name="Alice" data-source-line="1" id="part2-tail"><rect fill="#E2E2F0" height="30.2969" rx="2.5" ry="2.5" style="stroke:#181818;stroke-width:0.5;" width="47.667" x="56.0566" y="195.2969"/><text fill="#000000" font-family="sans-serif" font-size="14" lengthAdjust="spacing" textLength="33.667" x="63.0566" y="215.292">Alice</text></g><g class="message" data-entity-1="part1" data-entity-2="part2" data-source-line="1" id="msg1"><line style="stroke:#181818;stroke-width:2;" x1="61.8901" x2="71.8901" y1="47.2969" y2="57.2969"/><line style="stroke:#181818;stroke-width:2;" x1="61.8901" x2="71.8901" y1="57.2969" y2="47.2969"/><line style="stroke:#181818;stroke-width:1;" x1="25.5283" x2="66.8901" y1="52.2969" y2="52.2969"/></g><g class="message" data-entity-1="part1" data-entity-2="part2" data-source-line="2" id="msg2"><polygon fill="#181818" points="67.8901,62.2969,77.8901,66.2969,67.8901,70.2969,71.8901,66.2969" style="stroke:#181818;stroke-width:1;"/><line style="stroke:#181818;stroke-width:1;" x1="25.5283" x2="73.8901" y1="66.2969" y2="66.2969"/></g><g class="message" data-entity-1="part1" data-entity-2="part2" data-source-line="3" id="msg3"><line style="stroke:#181818;stroke-width:1;" x1="77.8901" x2="67.8901" y1="80.2969" y2="76.2969"/><line style="stroke:#181818;stroke-width:1;" x1="77.8901" x2="67.8901" y1="80.2969" y2="84.2969"/><line style="stroke:#181818;stroke-width:1;" x1="25.5283" x2="78.8901" y1="80.2969" y2="80.2969"/></g><g class="message" data-entity-1="part1" data-entity-2="part2" data-source-line="4" id="msg4"><polygon fill="#181818" points="67.8901,90.2969,77.8901,94.2969,67.8901,94.2969" style="stroke:#181818;stroke-width:1;"/><line style="stroke:#181818;stroke-width:1;" x1="25.5283" x2="78.8901" y1="94.2969" y2="94.2969"/></g><g class="message" data-entity-1="part2" data-entity-2="part1" data-source-line="5" id="msg5"><line style="stroke:#181818;stroke-width:1;" x1="26.5283" x2="36.5283" y1="108.2969" y2="112.2969"/><line style="stroke:#181818;stroke-width:1;" x1="25.5283" x2="78.8901" y1="108.2969" y2="108.2969"/></g><g class="message" data-entity-1="part2" data-entity-2="part1" data-source-line="6" id="msg6"><line style="stroke:#181818;stroke-width:1;" x1="26.5283" x2="36.5283" y1="122.2969" y2="118.2969"/><line style="stroke:#181818;stroke-width:1;stroke-dasharray:2,2;" x1="25.5283" x2="78.8901" y1="122.2969" y2="122.2969"/></g><g class="message" data-entity-1="part1" data-entity-2="part2" data-source-line="8" id="msg7"><ellipse cx="79.3901" cy="135.5469" fill="#000000" rx="4" ry="4" style="stroke:#181818;stroke-width:1.5;"/><polygon fill="#181818" points="62.3901,132.2969,72.3901,136.2969,62.3901,140.2969,66.3901,136.2969" style="stroke:#181818;stroke-width:1;"/><line style="stroke:#181818;stroke-width:1;" x1="25.5283" x2="68.3901" y1="136.2969" y2="136.2969"/></g><g class="message" data-entity-1="part2" data-entity-2="part1" data-source-line="9" id="msg8"><ellipse cx="25.0283" cy="149.5469" fill="#000000" rx="4" ry="4" style="stroke:#181818;stroke-width:1.5;"/><line style="stroke:#181818;stroke-width:1;" x1="32.0283" x2="42.0283" y1="150.2969" y2="154.2969"/><line style="stroke:#181818;stroke-width:1;stroke-dasharray:2,2;" x1="31.0283" x2="78.8901" y1="150.2969" y2="150.2969"/></g><g class="message" data-entity-1="part1" data-entity-2="part2" data-source-line="11" id="msg9"><polygon fill="#181818" points="36.5283,160.2969,26.5283,164.2969,36.5283,168.2969,32.5283,164.2969" style="stroke:#181818;stroke-width:1;"/><polygon fill="#181818" points="67.8901,160.2969,77.8901,164.2969,67.8901,168.2969,71.8901,164.2969" style="stroke:#181818;stroke-width:1;"/><line style="stroke:#181818;stroke-width:1;" x1="30.5283" x2="73.8901" y1="164.2969" y2="164.2969"/></g><g class="message" data-entity-1="part1" data-entity-2="part2" data-source-line="12" id="msg10"><polygon fill="#181818" points="36.5283,174.2969,26.5283,178.2969,36.5283,182.2969,32.5283,178.2969" style="stroke:#181818;stroke-width:1;"/><ellipse cx="79.3901" cy="177.5469" fill="#000000" rx="4" ry="4" style="stroke:#181818;stroke-width:1.5;"/><polygon fill="#181818" points="62.3901,174.2969,72.3901,178.2969,62.3901,182.2969,66.3901,178.2969" style="stroke:#181818;stroke-width:1;"/><line style="stroke:#181818;stroke-width:1;" x1="30.5283" x2="68.3901" y1="178.2969" y2="178.2969"/></g><?plantuml-src SyfFKj2rgr1mpCbCJkLo0lDGE2Yy62HEJ8mk4azVNnV6XMhCHvBD1of6aRP1iSK6hXe0?></g></svg>