<svg xmlns="http://www.w3.org/2000/svg" xmlns:xlink="http://www.w3.org/1999/xlink" contentStyleType="text/css" data-diagram-type="SEQUENCE" height="276px" preserveAspectRatio="none" style="width:431px;height:276px;background:#FFFFFF;" version="1.1" viewBox="0 0 431 276" width="431px" zoomAndPan="magnify"><?plantuml 1.2026.3beta5?><defs/><g><rect fill="none" height="84.2656" style="stroke:none;stroke-width:1;" width="410.0454" x="10" y="53.2969"/><rect fill="none" height="55.1328" style="stroke:none;stroke-width:1;" width="410.0454" x="10" y="155.5625"/><g><title>a</title><rect fill="#000000" fill-opacity="0.00000" height="193.3984" width="8" x="152.2036" y="41.2969"/><line style="stroke:#181818;stroke-width:0.5;stroke-dasharray:5,5;" x1="155.7036" x2="155.7036" y1="41.2969" y2="234.6953"/></g><g><title>b</title><rect fill="#000000" fill-opacity="0.00000" height="193.3984" width="8" x="203.8921" y="41.2969"/><line style="stroke:#181818;stroke-width:0.5;stroke-dasharray:5,5;" x1="207.3921" x2="207.3921" y1="41.2969" y2="234.6953"/></g><g><title>c</title><rect fill="#000000" fill-opacity="0.00000" height="193.3984" width="8" x="255.5806" y="41.2969"/><line style="stroke:#181818;stroke-width:0.5;stroke-dasharray:5,5;" x1="259.0806" x2="259.0806" y1="41.2969" y2="234.6953"/></g><rect fill="#E2E2F0" height="30.2969" rx="2.5" ry="2.5" style="stroke:#181818;stroke-width:0.5;" width="22.5791" x="144.4141" y="10"/><text fill="#000000" font-family="sans-serif" font-size="14" lengthAdjust="spacing" textLength="8.5791" x="151.4141" y="29.9951">a</text><rect fill="#E2E2F0" height="30.2969" rx="2.5" ry="2.5" style="stroke:#181818;stroke-width:0.5;" width="22.8867" x="195.9487" y="10"/><text fill="#000000" font-family="sans-serif" font-size="14" lengthAdjust="spacing" textLength="8.8867" x="202.9487" y="29.9951">b</text><rect fill="#E2E2F0" height="30.2969" rx="2.5" ry="2.5" style="stroke:#181818;stroke-width:0.5;" width="21.6973" x="248.2319" y="10"/><text fill="#000000" font-family="sans-serif" font-size="14" lengthAdjust="spacing" textLength="7.6973" x="255.2319" y="29.9951">c</text><rect fill="#E2E2F0" height="30.2969" rx="2.5" ry="2.5" style="stroke:#181818;stroke-width:0.5;" width="22.5791" x="144.4141" y="234.6953"/><text fill="#000000" font-family="sans-serif" font-size="14" lengthAdjust="spacing" textLength="8.5791" x="151.4141" y="254.6904">a</text><rect fill="#E2E2F0" height="30.2969" rx="2.5" ry="2.5" style="stroke:#181818;stroke-width:0.5;" width="22.8867" x="195.9487" y="234.6953"/><text fill="#000000" font-family="sans-serif" font-size="14" lengthAdjust="spacing" textLength="8.8867" x="202.9487" y="254.6904">b</text><rect fill="#E2E2F0" height="30.2969" rx="2.5" ry="2.5" style="stroke:#181818;stroke-width:0.5;" width="21.6973" x="248.2319" y="234.6953"/><text fill="#000000" font-family="sans-serif" font-size="14" lengthAdjust="spacing" textLength="7.6973" x="255.2319" y="254.6904">c</text><text fill="#000000" font-family="sans-serif" font-size="13" font-weight="700" lengthAdjust="spacing" textLength="0" x="215.0227" y="53.2969">p1</text><rect fill="none" height="84.2656" style="stroke:#000000;stroke-width:1.5;" width="410.0454" x="10" y="53.2969"/><polygon fill="#181818" points="247.0806,90.4297,257.0806,94.4297,247.0806,98.4297,251.0806,94.4297" style="stroke:#181818;stroke-width:1;"/><line style="stroke:#181818;stroke-width:1;" x1="207.3921" x2="253.0806" y1="94.4297" y2="94.4297"/><text fill="#000000" font-family="sans-serif" font-size="13" lengthAdjust="spacing" textLength="27.6885" x="214.3921" y="89.3638">msg</text><polygon fill="#181818" points="218.3921,119.5625,208.3921,123.5625,218.3921,127.5625,214.3921,123.5625" style="stroke:#181818;stroke-width:1;"/><line style="stroke:#181818;stroke-width:1;stroke-dasharray:2,2;" x1="212.3921" x2="258.0806" y1="123.5625" y2="123.5625"/><text fill="#000000" font-family="sans-serif" font-size="13" lengthAdjust="spacing" textLength="18.7573" x="224.3921" y="118.4966">OK</text><path d="M264.0806,107.4297 L264.0806,132.4297 L389.0806,132.4297 L389.0806,117.4297 L379.0806,107.4297 L264.0806,107.4297" fill="#FEFFDD" style="stroke:#181818;stroke-width:0.5;"/><path d="M379.0806,107.4297 L379.0806,117.4297 L389.0806,117.4297 L379.0806,107.4297" fill="#FEFFDD" style="stroke:#181818;stroke-width:0.5;"/><text fill="#000000" font-family="sans-serif" font-size="13" lengthAdjust="spacing" textLength="104.9648" x="270.0806" y="124.4966">Some right note</text><text fill="#000000" font-family="sans-serif" font-size="13" font-weight="700" lengthAdjust="spacing" textLength="0" x="215.0227" y="155.5625">p2</text><rect fill="none" height="55.1328" style="stroke:#000000;stroke-width:1.5;" width="410.0454" x="10" y="155.5625"/><polygon fill="#181818" points="195.3921,192.6953,205.3921,196.6953,195.3921,200.6953,199.3921,196.6953" style="stroke:#181818;stroke-width:1;"/><line style="stroke:#181818;stroke-width:1;" x1="155.7036" x2="201.3921" y1="196.6953" y2="196.6953"/><text fill="#000000" font-family="sans-serif" font-size="13" lengthAdjust="spacing" textLength="27.6885" x="162.7036" y="191.6294">msg</text><path d="M34,180.5625 L34,205.5625 L150,205.5625 L150,190.5625 L140,180.5625 L34,180.5625" fill="#FEFFDD" style="stroke:#181818;stroke-width:0.5;"/><path d="M140,180.5625 L140,190.5625 L150,190.5625 L140,180.5625" fill="#FEFFDD" style="stroke:#181818;stroke-width:0.5;"/><text fill="#000000" font-family="sans-serif" font-size="13" lengthAdjust="spacing" textLength="95.7036" x="40" y="197.6294">Some left note</text><?plantuml-src LOmx3eCm40NxFSNB0IX2wO8BKAJW18kp64lnHywcoUd1_2IwcIVDU-J2BZ1KqXzQVaAPYthhCqS5qwxgKqH-qeYcWpK8NqSMpIgZmQkdc5HGl9lLO4ZXODIP9BvlBoqnzh2-REL7fZEiU7KB?></g></svg>