<svg xmlns="http://www.w3.org/2000/svg" xmlns:xlink="http://www.w3.org/1999/xlink" contentStyleType="text/css" data-diagram-type="SEQUENCE" height="409px" preserveAspectRatio="none" style="width:353px;height:409px;background:#FFFFFF;" version="1.1" viewBox="0 0 353 409" width="353px" zoomAndPan="magnify"><?plantuml 1.2026.3beta5?><defs/><g><rect fill="none" height="273.0625" style="stroke:#000000;stroke-width:1.5;" width="327.9619" x="10" y="82.4297"/><rect fill="none" height="130.5313" style="stroke:#000000;stroke-width:1.5;" width="307.9619" x="20" y="176.8281"/><rect fill="none" height="46.2656" style="stroke:#000000;stroke-width:1.5;" width="248.71" x="30" y="224.9609"/><g class="participant-lifeline" data-entity-uid="part1" data-qualified-name="Alice" data-source-line="1" id="part1-lifeline"><g><title>Alice</title><rect fill="#000000" fill-opacity="0.00000" height="336.1953" width="8" x="59.8335" y="36.2969"/><line style="stroke:#181818;stroke-width:0.5;stroke-dasharray:5,5;" x1="63" x2="63" y1="36.2969" y2="372.4922"/></g></g><g class="participant-lifeline" data-entity-uid="part2" data-qualified-name="Bob" data-source-line="1" id="part2-lifeline"><g><title>Bob</title><rect fill="#000000" fill-opacity="0.00000" height="336.1953" width="8" x="244.1816" y="36.2969"/><line style="stroke:#181818;stroke-width:0.5;stroke-dasharray:5,5;" x1="247.6533" x2="247.6533" y1="36.2969" y2="372.4922"/></g></g><g class="participant-lifeline" data-entity-uid="part3" data-qualified-name="Log" data-source-line="11" id="part3-lifeline"><g><title>Log</title><rect fill="#000000" fill-opacity="0.00000" height="336.1953" width="8" x="294.3359" y="36.2969"/><line style="stroke:#181818;stroke-width:0.5;stroke-dasharray:5,5;" x1="297.71" x2="297.71" y1="36.2969" y2="372.4922"/></g></g><g class="participant participant-head" data-entity-uid="part1" data-qualified-name="Alice" data-source-line="1" id="part1-head"><rect fill="#E2E2F0" height="30.2969" rx="2.5" ry="2.5" style="stroke:#181818;stroke-width:0.5;" width="47.667" x="40" y="5"/><text fill="#000000" font-family="sans-serif" font-size="14" lengthAdjust="spacing" textLength="33.667" x="47" y="24.9951">Alice</text></g><g class="participant participant-tail" data-entity-uid="part1" data-qualified-name="Alice" data-source-line="1" id="part1-tail"><rect fill="#E2E2F0" height="30.2969" rx="2.5" ry="2.5" style="stroke:#181818;stroke-width:0.5;" width="47.667" x="40" y="371.4922"/><text fill="#000000" font-family="sans-serif" font-size="14" lengthAdjust="spacing" textLength="33.667" x="47" y="391.4873">Alice</text></g><g class="participant participant-head" data-entity-uid="part2" data-qualified-name="Bob" data-source-line="1" id="part2-head"><rect fill="#E2E2F0" height="30.2969" rx="2.5" ry="2.5" style="stroke:#181818;stroke-width:0.5;" width="41.0566" x="227.6533" y="5"/><text fill="#000000" font-family="sans-serif" font-size="14" lengthAdjust="spacing" textLength="27.0566" x="234.6533" y="24.9951">Bob</text></g><g class="participant participant-tail" data-entity-uid="part2" data-qualified-name="Bob" data-source-line="1" id="part2-tail"><rect fill="#E2E2F0" height="30.2969" rx="2.5" ry="2.5" style="stroke:#181818;stroke-width:0.5;" width="41.0566" x="227.6533" y="371.4922"/><text fill="#000000" font-family="sans-serif" font-size="14" lengthAdjust="spacing" textLength="27.0566" x="234.6533" y="391.4873">Bob</text></g><g class="participant participant-head" data-entity-uid="part3" data-qualified-name="Log" data-source-line="11" id="part3-head"><rect fill="#E2E2F0" height="30.2969" rx="2.5" ry="2.5" style="stroke:#181818;stroke-width:0.5;" width="39.252" x="278.71" y="5"/><text fill="#000000" font-family="sans-serif" font-size="14" lengthAdjust="spacing" textLength="25.252" x="285.71" y="24.9951">Log</text></g><g class="participant participant-tail" data-entity-uid="part3" data-qualified-name="Log" data-source-line="11" id="part3-tail"><rect fill="#E2E2F0" height="30.2969" rx="2.5" ry="2.5" style="stroke:#181818;stroke-width:0.5;" width="39.252" x="278.71" y="371.4922"/><text fill="#000000" font-family="sans-serif" font-size="14" lengthAdjust="spacing" textLength="25.252" x="285.71" y="391.4873">Log</text></g><g class="message" data-entity-1="part1" data-entity-2="part2" data-source-line="1" id="msg1"><polygon fill="#181818" points="236.1816,63.4297,246.1816,67.4297,236.1816,71.4297,240.1816,67.4297" style="stroke:#181818;stroke-width:1;"/><line style="stroke:#181818;stroke-width:1;" x1="63.8335" x2="242.1816" y1="67.4297" y2="67.4297"/><text fill="#000000" font-family="sans-serif" font-size="13" lengthAdjust="spacing" textLength="152.9531" x="70.8335" y="62.3638">Authentication Request</text></g><path d="M10,82.4297 L74.4429,82.4297 L74.4429,89.5625 L64.4429,99.5625 L10,99.5625 L10,82.4297" fill="#EEEEEE" style="stroke:#000000;stroke-width:1.5;"/><rect fill="none" height="273.0625" style="stroke:#000000;stroke-width:1.5;" width="327.9619" x="10" y="82.4297"/><text fill="#000000" font-family="sans-serif" font-size="13" font-weight="700" lengthAdjust="spacing" textLength="19.4429" x="25" y="98.5625">alt</text><text fill="#000000" font-family="sans-serif" font-size="11" font-weight="700" lengthAdjust="spacing" textLength="0" x="89.4429" y="84.4297">[successful case]</text><g class="message" data-entity-1="part2" data-entity-2="part1" data-source-line="5" id="msg2"><polygon fill="#181818" points="74.8335,116.6953,64.8335,120.6953,74.8335,124.6953,70.8335,120.6953" style="stroke:#181818;stroke-width:1;"/><line style="stroke:#181818;stroke-width:1;" x1="68.8335" x2="247.1816" y1="120.6953" y2="120.6953"/><text fill="#000000" font-family="sans-serif" font-size="13" lengthAdjust="spacing" textLength="160.3481" x="80.8335" y="115.6294">Authentication Accepted</text></g><line style="stroke:#000000;stroke-width:1;stroke-dasharray:2,2;" x1="10" x2="337.9619" y1="129.6953" y2="129.6953"/><text fill="#000000" font-family="sans-serif" font-size="11" font-weight="700" lengthAdjust="spacing" textLength="0" x="15" y="129.6953">[some kind of failure]</text><g class="message" data-entity-1="part2" data-entity-2="part1" data-source-line="9" id="msg3"><polygon fill="#181818" points="74.8335,157.8281,64.8335,161.8281,74.8335,165.8281,70.8335,161.8281" style="stroke:#181818;stroke-width:1;"/><line style="stroke:#181818;stroke-width:1;" x1="68.8335" x2="247.1816" y1="161.8281" y2="161.8281"/><text fill="#000000" font-family="sans-serif" font-size="13" lengthAdjust="spacing" textLength="143.8125" x="80.8335" y="156.7622">Authentication Failure</text></g><path d="M20,176.8281 L65,176.8281 L65,178.8281 L55,188.8281 L20,188.8281 L20,176.8281" fill="#EEEEEE" style="stroke:#000000;stroke-width:1.5;"/><rect fill="none" height="130.5313" style="stroke:#000000;stroke-width:1.5;" width="307.9619" x="20" y="176.8281"/><text fill="#000000" font-family="sans-serif" font-size="13" font-weight="700" lengthAdjust="spacing" textLength="0" x="35" y="177.8281">My own label</text><g class="message" data-entity-1="part1" data-entity-2="part3" data-source-line="11" id="msg4"><polygon fill="#181818" points="286.3359,205.9609,296.3359,209.9609,286.3359,213.9609,290.3359,209.9609" style="stroke:#181818;stroke-width:1;"/><line style="stroke:#181818;stroke-width:1;" x1="63.8335" x2="292.3359" y1="209.9609" y2="209.9609"/><text fill="#000000" font-family="sans-serif" font-size="13" lengthAdjust="spacing" textLength="102.7939" x="70.8335" y="204.895">Log attack start</text></g><path d="M30,224.9609 L106.624,224.9609 L106.624,232.0938 L96.624,242.0938 L30,242.0938 L30,224.9609" fill="#EEEEEE" style="stroke:#000000;stroke-width:1.5;"/><rect fill="none" height="46.2656" style="stroke:#000000;stroke-width:1.5;" width="248.71" x="30" y="224.9609"/><text fill="#000000" font-family="sans-serif" font-size="13" font-weight="700" lengthAdjust="spacing" textLength="31.624" x="45" y="241.0938">loop</text><text fill="#000000" font-family="sans-serif" font-size="11" font-weight="700" lengthAdjust="spacing" textLength="0" x="121.624" y="226.9609">[1000 times]</text><g class="message" data-entity-1="part1" data-entity-2="part2" data-source-line="13" id="msg5"><polygon fill="#181818" points="236.1816,259.2266,246.1816,263.2266,236.1816,267.2266,240.1816,263.2266" style="stroke:#181818;stroke-width:1;"/><line style="stroke:#181818;stroke-width:1;" x1="63.8335" x2="242.1816" y1="263.2266" y2="263.2266"/><text fill="#000000" font-family="sans-serif" font-size="13" lengthAdjust="spacing" textLength="73.8486" x="70.8335" y="258.1606">DNS Attack</text></g><g class="message" data-entity-1="part1" data-entity-2="part3" data-source-line="15" id="msg6"><polygon fill="#181818" points="286.3359,295.3594,296.3359,299.3594,286.3359,303.3594,290.3359,299.3594" style="stroke:#181818;stroke-width:1;"/><line style="stroke:#181818;stroke-width:1;" x1="63.8335" x2="292.3359" y1="299.3594" y2="299.3594"/><text fill="#000000" font-family="sans-serif" font-size="13" lengthAdjust="spacing" textLength="97.0049" x="70.8335" y="294.2935">Log attack end</text></g><line style="stroke:#000000;stroke-width:1;stroke-dasharray:2,2;" x1="10" x2="337.9619" y1="315.3594" y2="315.3594"/><text fill="#000000" font-family="sans-serif" font-size="11" font-weight="700" lengthAdjust="spacing" textLength="0" x="15" y="315.3594">[Another type of failure]</text><g class="message" data-entity-1="part2" data-entity-2="part1" data-source-line="20" id="msg7"><polygon fill="#181818" points="74.8335,343.4922,64.8335,347.4922,74.8335,351.4922,70.8335,347.4922" style="stroke:#181818;stroke-width:1;"/><line style="stroke:#181818;stroke-width:1;" x1="68.8335" x2="247.1816" y1="347.4922" y2="347.4922"/><text fill="#000000" font-family="sans-serif" font-size="13" lengthAdjust="spacing" textLength="88.9751" x="80.8335" y="342.4263">Please repeat</text></g><?plantuml-src ZP31IeCn48JlUOfv0U7tseCGaPwqY3x1Dl_-DJJDncI3zErDObkeFUWU4bXclcN61kyOTmzubEqAjke7H_MEr4l46tzMBceC1KMfpd4fImrmLDWOj6ckRhQTScEtpP2KPsCu54QH0sFlumnPi90FDV-7iZufkt2NfIQy725V4O6s7CRQdaCyomwhyP8gkJsAKjQXwHD44kwdQOBw0vVB_eenYdZQlCCEn4N4SVxZs5dH_v_8DahBag77nBzJNuT-3TnAHUR4r0flY6y0?></g></svg>