<svg xmlns="http://www.w3.org/2000/svg" xmlns:xlink="http://www.w3.org/1999/xlink" contentStyleType="text/css" data-diagram-type="SEQUENCE" height="104px" preserveAspectRatio="none" style="width:107px;height:104px;background:#FFFFFF;" version="1.1" viewBox="0 0 107 104" width="107px" zoomAndPan="magnify"><?plantuml 1.2026.3beta5?><defs/><g><g class="participant-lifeline" data-entity-uid="part1" data-qualified-name="Alice" data-source-line="2" id="part1-lifeline"><g><title>Alice</title><rect fill="#000000" fill-opacity="0.00000" height="49.1328" width="8" x="20.8335" y="54.2969"/><line style="stroke:#181818;stroke-width:0.5;stroke-dasharray:5,5;" x1="24" x2="24" y1="54.2969" y2="103.4297"/></g></g><g class="participant-lifeline" data-entity-uid="part2" data-qualified-name="Bob" data-source-line="3" id="part2-lifeline"><g><title>Bob</title><rect fill="#000000" fill-opacity="0.00000" height="49.1328" width="8" x="76.248" y="54.2969"/><line style="stroke:#181818;stroke-width:0.5;stroke-dasharray:5,5;" x1="79.7197" x2="79.7197" y1="54.2969" y2="103.4297"/></g></g><g class="participant participant-head" data-entity-uid="part1" data-qualified-name="Alice" data-source-line="2" id="part1-head"><text fill="#000000" font-family="sans-serif" font-size="14" lengthAdjust="spacing" textLength="33.667" x="5" y="50.9951">Alice</text><ellipse cx="24.8335" cy="10" fill="#E2E2F0" rx="4.5" ry="4.5" style="stroke:#181818;stroke-width:0.5;"/><path d="M12.3335,16.5 L12.3335,21.5 L21.8335,21.5 L21.8335,23.7574 L12.3335,33.2574 L16.5761,37.5 L24.8335,29.2426 L33.0909,37.5 L37.3335,33.2574 L27.8335,23.7574 L27.8335,21.5 L37.3335,21.5 L37.3335,16.5 L12.3335,16.5" fill="#E2E2F0" style="stroke:#181818;stroke-width:0.5;"/></g><g class="participant participant-head" data-entity-uid="part2" data-qualified-name="Bob" data-source-line="3" id="part2-head"><text fill="#000000" font-family="sans-serif" font-size="14" lengthAdjust="spacing" textLength="27.0566" x="63.7197" y="50.9951">Bob</text><ellipse cx="80.248" cy="10" fill="#E2E2F0" rx="4.5" ry="4.5" style="stroke:#181818;stroke-width:0.5;"/><path d="M67.748,16.5 L67.748,21.5 L77.248,21.5 L77.248,23.7574 L67.748,33.2574 L71.9907,37.5 L80.248,29.2426 L88.5054,37.5 L92.748,33.2574 L83.248,23.7574 L83.248,21.5 L92.748,21.5 L92.748,16.5 L67.748,16.5" fill="#E2E2F0" style="stroke:#181818;stroke-width:0.5;"/></g><g class="message" data-entity-1="part1" data-entity-2="part2" data-source-line="4" id="msg1"><polygon fill="#181818" points="68.248,81.4297,78.248,85.4297,68.248,89.4297,72.248,85.4297" style="stroke:#181818;stroke-width:1;"/><line style="stroke:#181818;stroke-width:1;" x1="24.8335" x2="74.248" y1="85.4297" y2="85.4297"/><text fill="#000000" font-family="sans-serif" font-size="13" lengthAdjust="spacing" textLength="31.4146" x="31.8335" y="80.3638">hello</text></g><?plantuml-src AyxEp2j8B4hCLKXCBial2Ywfp4bLyCZFoSalvmABA3ZcP2QdGjbE-KbSOBw2hXs8es2ba94ALCkLaPcIgf2Mdr-Ib5y10000?></g></svg>