<svg xmlns="http://www.w3.org/2000/svg" xmlns:xlink="http://www.w3.org/1999/xlink" contentStyleType="text/css" data-diagram-type="SEQUENCE" height="676px" preserveAspectRatio="none" style="width:114px;height:676px;background:#FFFFFF;" version="1.1" viewBox="0 0 114 676" width="114px" zoomAndPan="magnify"><?plantuml 1.2026.3beta5?><defs/><g><g class="participant-lifeline" data-entity-uid="part1" data-qualified-name="a" data-source-line="1" id="part1-lifeline"><g><title>Alice</title><rect fill="#000000" fill-opacity="0.00000" height="602.6563" width="8" x="24.8335" y="36.2969"/><line style="stroke:#181818;stroke-width:0.5;stroke-dasharray:5,5;" x1="28" x2="28" y1="36.2969" y2="638.9531"/></g></g><g class="participant-lifeline" data-entity-uid="part2" data-qualified-name="b" data-source-line="2" id="part2-lifeline"><g><title>Bob</title><rect fill="#000000" fill-opacity="0.00000" height="602.6563" width="8" x="79.1953" y="36.2969"/><line style="stroke:#181818;stroke-width:0.5;stroke-dasharray:5,5;" x1="82.667" x2="82.667" y1="36.2969" y2="638.9531"/></g></g><g class="participant participant-head" data-entity-uid="part1" data-qualified-name="a" data-source-line="1" id="part1-head"><rect fill="#E2E2F0" height="30.2969" rx="2.5" ry="2.5" style="stroke:#181818;stroke-width:0.5;" width="47.667" x="5" y="5"/><text fill="#000000" font-family="sans-serif" font-size="14" lengthAdjust="spacing" textLength="33.667" x="12" y="24.9951">Alice</text></g><g class="participant participant-tail" data-entity-uid="part1" data-qualified-name="a" data-source-line="1" id="part1-tail"><rect fill="#E2E2F0" height="30.2969" rx="2.5" ry="2.5" style="stroke:#181818;stroke-width:0.5;" width="47.667" x="5" y="637.9531"/><text fill="#000000" font-family="sans-serif" font-size="14" lengthAdjust="spacing" textLength="33.667" x="12" y="657.9482">Alice</text></g><g class="participant participant-head" data-entity-uid="part2" data-qualified-name="b" data-source-line="2" id="part2-head"><rect fill="#E2E2F0" height="30.2969" rx="2.5" ry="2.5" style="stroke:#181818;stroke-width:0.5;" width="41.0566" x="62.667" y="5"/><text fill="#000000" font-family="sans-serif" font-size="14" lengthAdjust="spacing" textLength="27.0566" x="69.667" y="24.9951">Bob</text></g><g class="participant participant-tail" data-entity-uid="part2" data-qualified-name="b" data-source-line="2" id="part2-tail"><rect fill="#E2E2F0" height="30.2969" rx="2.5" ry="2.5" style="stroke:#181818;stroke-width:0.5;" width="41.0566" x="62.667" y="637.9531"/><text fill="#000000" font-family="sans-serif" font-size="14" lengthAdjust="spacing" textLength="27.0566" x="69.667" y="657.9482">Bob</text></g><g class="message" data-entity-1="part2" data-entity-2="part2" data-source-line="3" id="msg1"><polygon fill="#181818" points="71.1953,63.4297,81.1953,67.4297,71.1953,71.4297,75.1953,67.4297" style="stroke:#181818;stroke-width:1;"/><line style="stroke:#181818;stroke-width:1;" x1="0" x2="77.1953" y1="67.4297" y2="67.4297"/><text fill="#000000" font-family="monospace" font-size="13" lengthAdjust="spacing" textLength="23.48" x="7" y="62.3638">[-&gt;</text></g><g class="message" data-entity-1="part2" data-entity-2="part2" data-source-line="4" id="msg2"><line style="stroke:#181818;stroke-width:1;" x1="81.1953" x2="71.1953" y1="96.5625" y2="92.5625"/><line style="stroke:#181818;stroke-width:1;" x1="81.1953" x2="71.1953" y1="96.5625" y2="100.5625"/><line style="stroke:#181818;stroke-width:1;" x1="0" x2="82.1953" y1="96.5625" y2="96.5625"/><text fill="#000000" font-family="monospace" font-size="13" lengthAdjust="spacing" textLength="31.3066" x="7" y="91.4966">[-&gt;&gt;</text></g><g class="message" data-entity-1="part2" data-entity-2="part2" data-source-line="5" id="msg3"><polygon fill="#181818" points="71.1953,121.6953,81.1953,125.6953,71.1953,125.6953" style="stroke:#181818;stroke-width:1;"/><line style="stroke:#181818;stroke-width:1;" x1="0" x2="82.1953" y1="125.6953" y2="125.6953"/><text fill="#000000" font-family="monospace" font-size="13" lengthAdjust="spacing" textLength="23.48" x="7" y="120.6294">[-\</text></g><g class="message" data-entity-1="part2" data-entity-2="part2" data-source-line="6" id="msg4"><line style="stroke:#181818;stroke-width:1;" x1="81.1953" x2="71.1953" y1="154.8281" y2="150.8281"/><line style="stroke:#181818;stroke-width:1;" x1="0" x2="82.1953" y1="154.8281" y2="154.8281"/><text fill="#000000" font-family="monospace" font-size="13" lengthAdjust="spacing" textLength="31.3066" x="7" y="149.7622">[-\\</text></g><g class="message" data-entity-1="part2" data-entity-2="part2" data-source-line="7" id="msg5"><polygon fill="#181818" points="71.1953,183.9609,81.1953,183.9609,71.1953,187.9609" style="stroke:#181818;stroke-width:1;"/><line style="stroke:#181818;stroke-width:1;" x1="0" x2="82.1953" y1="183.9609" y2="183.9609"/><text fill="#000000" font-family="monospace" font-size="13" lengthAdjust="spacing" textLength="23.48" x="7" y="178.895">[-/</text></g><g class="message" data-entity-1="part2" data-entity-2="part2" data-source-line="8" id="msg6"><line style="stroke:#181818;stroke-width:1;" x1="81.1953" x2="71.1953" y1="213.0938" y2="217.0938"/><line style="stroke:#181818;stroke-width:1;" x1="0" x2="82.1953" y1="213.0938" y2="213.0938"/><text fill="#000000" font-family="monospace" font-size="13" lengthAdjust="spacing" textLength="31.3066" x="7" y="208.0278">[-//</text></g><g class="message" data-entity-1="part2" data-entity-2="part2" data-source-line="9" id="msg7"><line style="stroke:#181818;stroke-width:2;" x1="65.1953" x2="75.1953" y1="237.2266" y2="247.2266"/><line style="stroke:#181818;stroke-width:2;" x1="65.1953" x2="75.1953" y1="247.2266" y2="237.2266"/><line style="stroke:#181818;stroke-width:1;" x1="0" x2="70.1953" y1="242.2266" y2="242.2266"/><text fill="#000000" font-family="monospace" font-size="13" lengthAdjust="spacing" textLength="31.3066" x="7" y="237.1606">[-&gt;x</text></g><g class="message" data-entity-1="part2" data-entity-2="part2" data-source-line="10" id="msg8"><line style="stroke:#181818;stroke-width:2;" x1="7" x2="17" y1="266.3594" y2="276.3594"/><line style="stroke:#181818;stroke-width:2;" x1="7" x2="17" y1="276.3594" y2="266.3594"/><polygon fill="#181818" points="71.1953,267.3594,81.1953,271.3594,71.1953,275.3594,75.1953,271.3594" style="stroke:#181818;stroke-width:1;"/><line style="stroke:#181818;stroke-width:1;" x1="12" x2="77.1953" y1="271.3594" y2="271.3594"/><text fill="#000000" font-family="monospace" font-size="13" lengthAdjust="spacing" textLength="31.3066" x="17" y="266.2935">[x-&gt;</text></g><g class="message" data-entity-1="part2" data-entity-2="part2" data-source-line="11" id="msg9"><ellipse cx="7.5" cy="299.7422" fill="#000000" rx="4" ry="4" style="stroke:#181818;stroke-width:1.5;"/><polygon fill="#181818" points="71.1953,296.4922,81.1953,300.4922,71.1953,304.4922,75.1953,300.4922" style="stroke:#181818;stroke-width:1;"/><line style="stroke:#181818;stroke-width:1;" x1="12" x2="77.1953" y1="300.4922" y2="300.4922"/><text fill="#000000" font-family="monospace" font-size="13" lengthAdjust="spacing" textLength="31.3066" x="15" y="295.4263">[o-&gt;</text></g><g class="message" data-entity-1="part2" data-entity-2="part2" data-source-line="12" id="msg10"><ellipse cx="82.6953" cy="328.875" fill="#000000" rx="4" ry="4" style="stroke:#181818;stroke-width:1.5;"/><polygon fill="#181818" points="65.6953,325.625,75.6953,329.625,65.6953,333.625,69.6953,329.625" style="stroke:#181818;stroke-width:1;"/><line style="stroke:#181818;stroke-width:1;" x1="0" x2="71.6953" y1="329.625" y2="329.625"/><text fill="#000000" font-family="monospace" font-size="13" lengthAdjust="spacing" textLength="31.3066" x="7" y="324.5591">[-&gt;o</text></g><g class="message" data-entity-1="part2" data-entity-2="part2" data-source-line="13" id="msg11"><ellipse cx="7.5" cy="358.0078" fill="#000000" rx="4" ry="4" style="stroke:#181818;stroke-width:1.5;"/><ellipse cx="82.6953" cy="358.0078" fill="#000000" rx="4" ry="4" style="stroke:#181818;stroke-width:1.5;"/><polygon fill="#181818" points="65.6953,354.7578,75.6953,358.7578,65.6953,362.7578,69.6953,358.7578" style="stroke:#181818;stroke-width:1;"/><line style="stroke:#181818;stroke-width:1;" x1="12" x2="71.6953" y1="358.7578" y2="358.7578"/><text fill="#000000" font-family="monospace" font-size="13" lengthAdjust="spacing" textLength="39.1333" x="15" y="353.6919">[o-&gt;o</text></g><g class="message" data-entity-1="part2" data-entity-2="part2" data-source-line="14" id="msg12"><polygon fill="#181818" points="11,383.8906,1,387.8906,11,391.8906,7,387.8906" style="stroke:#181818;stroke-width:1;"/><polygon fill="#181818" points="71.1953,383.8906,81.1953,387.8906,71.1953,391.8906,75.1953,387.8906" style="stroke:#181818;stroke-width:1;"/><line style="stroke:#181818;stroke-width:1;" x1="5" x2="77.1953" y1="387.8906" y2="387.8906"/><text fill="#000000" font-family="monospace" font-size="13" lengthAdjust="spacing" textLength="31.3066" x="17" y="382.8247">[&lt;-&gt;</text></g><g class="message" data-entity-1="part2" data-entity-2="part2" data-source-line="15" id="msg13"><ellipse cx="7.5" cy="416.2734" fill="#000000" rx="4" ry="4" style="stroke:#181818;stroke-width:1.5;"/><polygon fill="#181818" points="24.5,413.0234,14.5,417.0234,24.5,421.0234,20.5,417.0234" style="stroke:#181818;stroke-width:1;"/><ellipse cx="82.6953" cy="416.2734" fill="#000000" rx="4" ry="4" style="stroke:#181818;stroke-width:1.5;"/><polygon fill="#181818" points="65.6953,413.0234,75.6953,417.0234,65.6953,421.0234,69.6953,417.0234" style="stroke:#181818;stroke-width:1;"/><line style="stroke:#181818;stroke-width:1;" x1="18.5" x2="71.6953" y1="417.0234" y2="417.0234"/><text fill="#000000" font-family="monospace" font-size="13" lengthAdjust="spacing" textLength="46.96" x="25" y="411.9575">[o&lt;-&gt;o</text></g><g class="message" data-entity-1="part2" data-entity-2="part2" data-source-line="16" id="msg14"><line style="stroke:#181818;stroke-width:2;" x1="7" x2="17" y1="441.1563" y2="451.1563"/><line style="stroke:#181818;stroke-width:2;" x1="7" x2="17" y1="451.1563" y2="441.1563"/><line style="stroke:#181818;stroke-width:2;" x1="65.1953" x2="75.1953" y1="441.1563" y2="451.1563"/><line style="stroke:#181818;stroke-width:2;" x1="65.1953" x2="75.1953" y1="451.1563" y2="441.1563"/><line style="stroke:#181818;stroke-width:1;" x1="12" x2="70.1953" y1="446.1563" y2="446.1563"/><text fill="#000000" font-family="monospace" font-size="13" lengthAdjust="spacing" textLength="46.96" x="17" y="441.0903">[x&lt;-&gt;x</text></g><g class="message" data-entity-1="part2" data-entity-2="part2" data-source-line="17" id="msg15"><ellipse cx="82.6953" cy="474.5391" fill="#000000" rx="4" ry="4" style="stroke:#181818;stroke-width:1.5;"/><line style="stroke:#181818;stroke-width:1;" x1="75.6953" x2="65.6953" y1="475.2891" y2="471.2891"/><line style="stroke:#181818;stroke-width:1;" x1="75.6953" x2="65.6953" y1="475.2891" y2="479.2891"/><line style="stroke:#181818;stroke-width:1;" x1="0" x2="76.6953" y1="475.2891" y2="475.2891"/><text fill="#000000" font-family="monospace" font-size="13" lengthAdjust="spacing" textLength="39.1333" x="7" y="470.2231">[-&gt;&gt;o</text></g><g class="message" data-entity-1="part2" data-entity-2="part2" data-source-line="18" id="msg16"><ellipse cx="82.6953" cy="503.6719" fill="#000000" rx="4" ry="4" style="stroke:#181818;stroke-width:1.5;"/><polygon fill="#181818" points="65.6953,500.4219,75.6953,504.4219,65.6953,504.4219" style="stroke:#181818;stroke-width:1;"/><line style="stroke:#181818;stroke-width:1;" x1="0" x2="76.6953" y1="504.4219" y2="504.4219"/><text fill="#000000" font-family="monospace" font-size="13" lengthAdjust="spacing" textLength="31.3066" x="7" y="499.356">[-\o</text></g><g class="message" data-entity-1="part2" data-entity-2="part2" data-source-line="19" id="msg17"><ellipse cx="82.6953" cy="532.8047" fill="#000000" rx="4" ry="4" style="stroke:#181818;stroke-width:1.5;"/><line style="stroke:#181818;stroke-width:1;" x1="75.6953" x2="65.6953" y1="533.5547" y2="529.5547"/><line style="stroke:#181818;stroke-width:1;" x1="0" x2="76.6953" y1="533.5547" y2="533.5547"/><text fill="#000000" font-family="monospace" font-size="13" lengthAdjust="spacing" textLength="39.1333" x="7" y="528.4888">[-\\o</text></g><g class="message" data-entity-1="part2" data-entity-2="part2" data-source-line="20" id="msg18"><ellipse cx="82.6953" cy="561.9375" fill="#000000" rx="4" ry="4" style="stroke:#181818;stroke-width:1.5;"/><polygon fill="#181818" points="65.6953,562.6875,75.6953,562.6875,65.6953,566.6875" style="stroke:#181818;stroke-width:1;"/><line style="stroke:#181818;stroke-width:1;" x1="0" x2="76.6953" y1="562.6875" y2="562.6875"/><text fill="#000000" font-family="monospace" font-size="13" lengthAdjust="spacing" textLength="31.3066" x="7" y="557.6216">[-/o</text></g><g class="message" data-entity-1="part2" data-entity-2="part2" data-source-line="21" id="msg19"><ellipse cx="82.6953" cy="591.0703" fill="#000000" rx="4" ry="4" style="stroke:#181818;stroke-width:1.5;"/><line style="stroke:#181818;stroke-width:1;" x1="75.6953" x2="65.6953" y1="591.8203" y2="595.8203"/><line style="stroke:#181818;stroke-width:1;" x1="0" x2="76.6953" y1="591.8203" y2="591.8203"/><text fill="#000000" font-family="monospace" font-size="13" lengthAdjust="spacing" textLength="39.1333" x="7" y="586.7544">[-//o</text></g><g class="message" data-entity-1="part2" data-entity-2="part2" data-source-line="22" id="msg20"><line style="stroke:#181818;stroke-width:2;" x1="7" x2="17" y1="615.9531" y2="625.9531"/><line style="stroke:#181818;stroke-width:2;" x1="7" x2="17" y1="625.9531" y2="615.9531"/><ellipse cx="82.6953" cy="620.2031" fill="#000000" rx="4" ry="4" style="stroke:#181818;stroke-width:1.5;"/><polygon fill="#181818" points="65.6953,616.9531,75.6953,620.9531,65.6953,624.9531,69.6953,620.9531" style="stroke:#181818;stroke-width:1;"/><line style="stroke:#181818;stroke-width:1;" x1="12" x2="71.6953" y1="620.9531" y2="620.9531"/><text fill="#000000" font-family="monospace" font-size="13" lengthAdjust="spacing" textLength="39.1333" x="17" y="615.8872">[x-&gt;o</text></g><?plantuml-src NP2z2WCX48JxUuh5_h0F8YIl4HizhZW86KckyF4JVrOoiTkFsNNuSdoTntRa-3pb-ZYsNU9Ruf9_y0r9fEAqt5SlxIMvY35zDAPopzmF7ZWVD1y2y-zht7BUQjvQvbR_BVnlwRoirAUDbOCvbAyUV0Sp3ywZSSTttBpl-eBcwzZwkDvK-zHnU0Dxm_33VGAcD_nxGnV42nPJ75WSL11OKEKV?></g></svg>