<svg xmlns="http://www.w3.org/2000/svg" xmlns:xlink="http://www.w3.org/1999/xlink" contentStyleType="text/css" data-diagram-type="SEQUENCE" height="401px" preserveAspectRatio="none" style="width:175px;height:401px;background:#FFFFFF;" version="1.1" viewBox="0 0 175 401" width="175px" zoomAndPan="magnify"><?plantuml 1.2026.3beta5?><defs/><g><g class="participant-lifeline" data-entity-uid="part1" data-qualified-name="Alice" data-source-line="1" id="part1-lifeline"><g><title>Alice</title><rect fill="#000000" fill-opacity="0.00000" height="38" width="8" x="24.8335" y="36.2969"/><line style="stroke:#181818;stroke-width:0.5;stroke-dasharray:5,5;" x1="28" x2="28" y1="36.2969" y2="74.2969"/></g><line style="stroke:#181818;stroke-width:0.5;stroke-dasharray:1,4;" x1="28" x2="28" y1="74.2969" y2="102.2969"/><g><title>Alice</title><rect fill="#000000" fill-opacity="0.00000" height="56" width="8" x="24.8335" y="102.2969"/><line style="stroke:#181818;stroke-width:0.5;stroke-dasharray:5,5;" x1="28" x2="28" y1="102.2969" y2="158.2969"/></g><line style="stroke:#181818;stroke-width:0.5;stroke-dasharray:1,4;" x1="28" x2="28" y1="158.2969" y2="186.2969"/><g><title>Alice</title><rect fill="#000000" fill-opacity="0.00000" height="28" width="8" x="24.8335" y="186.2969"/><line style="stroke:#181818;stroke-width:0.5;stroke-dasharray:5,5;" x1="28" x2="28" y1="186.2969" y2="214.2969"/></g><line style="stroke:#181818;stroke-width:0.5;stroke-dasharray:1,4;" x1="28" x2="28" y1="214.2969" y2="242.2969"/><g><title>Alice</title><rect fill="#000000" fill-opacity="0.00000" height="56" width="8" x="24.8335" y="242.2969"/><line style="stroke:#181818;stroke-width:0.5;stroke-dasharray:5,5;" x1="28" x2="28" y1="242.2969" y2="298.2969"/></g><line style="stroke:#181818;stroke-width:0.5;stroke-dasharray:1,4;" x1="28" x2="28" y1="298.2969" y2="326.2969"/><g><title>Alice</title><rect fill="#000000" fill-opacity="0.00000" height="38" width="8" x="24.8335" y="326.2969"/><line style="stroke:#181818;stroke-width:0.5;stroke-dasharray:5,5;" x1="28" x2="28" y1="326.2969" y2="364.2969"/></g></g><g class="participant-lifeline" data-entity-uid="part2" data-qualified-name="Bob" data-source-line="2" id="part2-lifeline"><g><title>Bob</title><rect fill="#000000" fill-opacity="0.00000" height="38" width="8" x="79.1953" y="36.2969"/><line style="stroke:#181818;stroke-width:0.5;stroke-dasharray:5,5;" x1="82.667" x2="82.667" y1="36.2969" y2="74.2969"/></g><line style="stroke:#181818;stroke-width:0.5;stroke-dasharray:1,4;" x1="82.667" x2="82.667" y1="74.2969" y2="102.2969"/><g><title>Bob</title><rect fill="#000000" fill-opacity="0.00000" height="56" width="8" x="79.1953" y="102.2969"/><line style="stroke:#181818;stroke-width:0.5;stroke-dasharray:5,5;" x1="82.667" x2="82.667" y1="102.2969" y2="158.2969"/></g><line style="stroke:#181818;stroke-width:0.5;stroke-dasharray:1,4;" x1="82.667" x2="82.667" y1="158.2969" y2="186.2969"/><g><title>Bob</title><rect fill="#000000" fill-opacity="0.00000" height="28" width="8" x="79.1953" y="186.2969"/><line style="stroke:#181818;stroke-width:0.5;stroke-dasharray:5,5;" x1="82.667" x2="82.667" y1="186.2969" y2="214.2969"/></g><line style="stroke:#181818;stroke-width:0.5;stroke-dasharray:1,4;" x1="82.667" x2="82.667" y1="214.2969" y2="242.2969"/><g><title>Bob</title><rect fill="#000000" fill-opacity="0.00000" height="56" width="8" x="79.1953" y="242.2969"/><line style="stroke:#181818;stroke-width:0.5;stroke-dasharray:5,5;" x1="82.667" x2="82.667" y1="242.2969" y2="298.2969"/></g><line style="stroke:#181818;stroke-width:0.5;stroke-dasharray:1,4;" x1="82.667" x2="82.667" y1="298.2969" y2="326.2969"/><g><title>Bob</title><rect fill="#000000" fill-opacity="0.00000" height="38" width="8" x="79.1953" y="326.2969"/><line style="stroke:#181818;stroke-width:0.5;stroke-dasharray:5,5;" x1="82.667" x2="82.667" y1="326.2969" y2="364.2969"/></g></g><g class="participant-lifeline" data-entity-uid="part3" data-qualified-name="Carol" data-source-line="4" id="part3-lifeline"><g><title>Carol</title><rect fill="#000000" fill-opacity="0.00000" height="38" width="8" x="135.0063" y="36.2969"/><line style="stroke:#181818;stroke-width:0.5;stroke-dasharray:5,5;" x1="138.7236" x2="138.7236" y1="36.2969" y2="74.2969"/></g><line style="stroke:#181818;stroke-width:0.5;stroke-dasharray:1,4;" x1="138.7236" x2="138.7236" y1="74.2969" y2="102.2969"/><g><title>Carol</title><rect fill="#000000" fill-opacity="0.00000" height="56" width="8" x="135.0063" y="102.2969"/><line style="stroke:#181818;stroke-width:0.5;stroke-dasharray:5,5;" x1="138.7236" x2="138.7236" y1="102.2969" y2="158.2969"/></g><line style="stroke:#181818;stroke-width:0.5;stroke-dasharray:1,4;" x1="138.7236" x2="138.7236" y1="158.2969" y2="186.2969"/><g><title>Carol</title><rect fill="#000000" fill-opacity="0.00000" height="28" width="8" x="135.0063" y="186.2969"/><line style="stroke:#181818;stroke-width:0.5;stroke-dasharray:5,5;" x1="138.7236" x2="138.7236" y1="186.2969" y2="214.2969"/></g><line style="stroke:#181818;stroke-width:0.5;stroke-dasharray:1,4;" x1="138.7236" x2="138.7236" y1="214.2969" y2="242.2969"/><g><title>Carol</title><rect fill="#000000" fill-opacity="0.00000" height="56" width="8" x="135.0063" y="242.2969"/><line style="stroke:#181818;stroke-width:0.5;stroke-dasharray:5,5;" x1="138.7236" x2="138.7236" y1="242.2969" y2="298.2969"/></g><line style="stroke:#181818;stroke-width:0.5;stroke-dasharray:1,4;" x1="138.7236" x2="138.7236" y1="298.2969" y2="326.2969"/><g><title>Carol</title><rect fill="#000000" fill-opacity="0.00000" height="38" width="8" x="135.0063" y="326.2969"/><line style="stroke:#181818;stroke-width:0.5;stroke-dasharray:5,5;" x1="138.7236" x2="138.7236" y1="326.2969" y2="364.2969"/></g></g><g class="participant participant-head" data-entity-uid="part1" data-qualified-name="Alice" data-source-line="1" id="part1-head"><rect fill="#E2E2F0" height="30.2969" rx="2.5" ry="2.5" style="stroke:#181818;stroke-width:0.5;" width="47.667" x="5" y="5"/><text fill="#000000" font-family="sans-serif" font-size="14" lengthAdjust="spacing" textLength="33.667" x="12" y="24.9951">Alice</text></g><g class="participant participant-tail" data-entity-uid="part1" data-qualified-name="Alice" data-source-line="1" id="part1-tail"><rect fill="#E2E2F0" height="30.2969" rx="2.5" ry="2.5" style="stroke:#181818;stroke-width:0.5;" width="47.667" x="5" y="363.2969"/><text fill="#000000" font-family="sans-serif" font-size="14" lengthAdjust="spacing" textLength="33.667" x="12" y="383.292">Alice</text></g><g class="participant participant-head" data-entity-uid="part2" data-qualified-name="Bob" data-source-line="2" id="part2-head"><rect fill="#ADD8E6" height="30.2969" rx="2.5" ry="2.5" style="stroke:#181818;stroke-width:0.5;" width="41.0566" x="62.667" y="5"/><text fill="#000000" font-family="sans-serif" font-size="14" lengthAdjust="spacing" textLength="27.0566" x="69.667" y="24.9951">Bob</text></g><g class="participant participant-tail" data-entity-uid="part2" data-qualified-name="Bob" data-source-line="2" id="part2-tail"><rect fill="#ADD8E6" height="30.2969" rx="2.5" ry="2.5" style="stroke:#181818;stroke-width:0.5;" width="41.0566" x="62.667" y="363.2969"/><text fill="#000000" font-family="sans-serif" font-size="14" lengthAdjust="spacing" textLength="27.0566" x="69.667" y="383.292">Bob</text></g><g class="participant participant-head" data-entity-uid="part3" data-qualified-name="Carol" data-source-line="4" id="part3-head"><rect fill="#E2E2F0" height="30.2969" rx="2.5" ry="2.5" style="stroke:#181818;stroke-width:0.5;" width="50.5654" x="113.7236" y="5"/><text fill="#000000" font-family="sans-serif" font-size="14" lengthAdjust="spacing" textLength="36.5654" x="120.7236" y="24.9951">Carol</text></g><g class="participant participant-tail" data-entity-uid="part3" data-qualified-name="Carol" data-source-line="4" id="part3-tail"><rect fill="#E2E2F0" height="30.2969" rx="2.5" ry="2.5" style="stroke:#181818;stroke-width:0.5;" width="50.5654" x="113.7236" y="363.2969"/><text fill="#000000" font-family="sans-serif" font-size="14" lengthAdjust="spacing" textLength="36.5654" x="120.7236" y="383.292">Carol</text></g><g class="message" data-entity-1="part1" data-entity-2="part2" data-source-line="3" id="msg1"><polygon fill="#181818" points="71.1953,48.2969,81.1953,52.2969,71.1953,56.2969,75.1953,52.2969" style="stroke:#181818;stroke-width:1;"/><line style="stroke:#181818;stroke-width:1;" x1="28.8335" x2="77.1953" y1="52.2969" y2="52.2969"/></g><g class="message" data-entity-1="part2" data-entity-2="part3" data-source-line="4" id="msg2"><polygon fill="#181818" points="127.0063,62.2969,137.0063,66.2969,127.0063,70.2969,131.0063,66.2969" style="stroke:#181818;stroke-width:1;"/><line style="stroke:#181818;stroke-width:1;" x1="83.1953" x2="133.0063" y1="66.2969" y2="66.2969"/></g><g class="message" data-entity-1="part2" data-entity-2="part2" data-source-line="6" id="msg3"><polygon fill="#181818" points="71.1953,104.2969,81.1953,108.2969,71.1953,112.2969,75.1953,108.2969" style="stroke:#181818;stroke-width:1;"/><line style="stroke:#181818;stroke-width:1;" x1="0" x2="77.1953" y1="108.2969" y2="108.2969"/></g><g class="message" data-entity-1="part2" data-entity-2="part2" data-source-line="7" id="msg4"><ellipse cx="7.5" cy="121.5469" fill="#000000" rx="4" ry="4" style="stroke:#181818;stroke-width:1.5;"/><polygon fill="#181818" points="71.1953,118.2969,81.1953,122.2969,71.1953,126.2969,75.1953,122.2969" style="stroke:#181818;stroke-width:1;"/><line style="stroke:#181818;stroke-width:1;" x1="12" x2="77.1953" y1="122.2969" y2="122.2969"/></g><g class="message" data-entity-1="part2" data-entity-2="part2" data-source-line="8" id="msg5"><ellipse cx="7.5" cy="135.5469" fill="#000000" rx="4" ry="4" style="stroke:#181818;stroke-width:1.5;"/><ellipse cx="82.6953" cy="135.5469" fill="#000000" rx="4" ry="4" style="stroke:#181818;stroke-width:1.5;"/><polygon fill="#181818" points="65.6953,132.2969,75.6953,136.2969,65.6953,140.2969,69.6953,136.2969" style="stroke:#181818;stroke-width:1;"/><line style="stroke:#181818;stroke-width:1;" x1="12" x2="71.6953" y1="136.2969" y2="136.2969"/></g><g class="message" data-entity-1="part2" data-entity-2="part2" data-source-line="9" id="msg6"><line style="stroke:#181818;stroke-width:2;" x1="7" x2="17" y1="145.2969" y2="155.2969"/><line style="stroke:#181818;stroke-width:2;" x1="7" x2="17" y1="155.2969" y2="145.2969"/><polygon fill="#181818" points="71.1953,146.2969,81.1953,150.2969,71.1953,154.2969,75.1953,150.2969" style="stroke:#181818;stroke-width:1;"/><line style="stroke:#181818;stroke-width:1;" x1="12" x2="77.1953" y1="150.2969" y2="150.2969"/></g><g class="message" data-entity-1="part2" data-entity-2="part2" data-source-line="11" id="msg7"><polygon fill="#181818" points="11,188.2969,1,192.2969,11,196.2969,7,192.2969" style="stroke:#181818;stroke-width:1;"/><line style="stroke:#181818;stroke-width:1;" x1="5" x2="82.1953" y1="192.2969" y2="192.2969"/></g><g class="message" data-entity-1="part2" data-entity-2="part2" data-source-line="12" id="msg8"><line style="stroke:#181818;stroke-width:2;" x1="7" x2="17" y1="201.2969" y2="211.2969"/><line style="stroke:#181818;stroke-width:2;" x1="7" x2="17" y1="211.2969" y2="201.2969"/><line style="stroke:#181818;stroke-width:1;" x1="12" x2="82.1953" y1="206.2969" y2="206.2969"/></g><g class="message" data-entity-1="part2" data-entity-2="part2" data-source-line="14" id="msg9"><polygon fill="#181818" points="157.2891,244.2969,167.2891,248.2969,157.2891,252.2969,161.2891,248.2969" style="stroke:#181818;stroke-width:1;"/><line style="stroke:#181818;stroke-width:1;" x1="83.1953" x2="163.2891" y1="248.2969" y2="248.2969"/></g><g class="message" data-entity-1="part2" data-entity-2="part2" data-source-line="15" id="msg10"><ellipse cx="160.7891" cy="261.5469" fill="#000000" rx="4" ry="4" style="stroke:#181818;stroke-width:1.5;"/><polygon fill="#181818" points="143.7891,258.2969,153.7891,262.2969,143.7891,266.2969,147.7891,262.2969" style="stroke:#181818;stroke-width:1;"/><line style="stroke:#181818;stroke-width:1;" x1="83.1953" x2="149.7891" y1="262.2969" y2="262.2969"/></g><g class="message" data-entity-1="part2" data-entity-2="part2" data-source-line="16" id="msg11"><ellipse cx="82.6953" cy="275.5469" fill="#000000" rx="4" ry="4" style="stroke:#181818;stroke-width:1.5;"/><ellipse cx="160.7891" cy="275.5469" fill="#000000" rx="4" ry="4" style="stroke:#181818;stroke-width:1.5;"/><polygon fill="#181818" points="143.7891,272.2969,153.7891,276.2969,143.7891,280.2969,147.7891,276.2969" style="stroke:#181818;stroke-width:1;"/><line style="stroke:#181818;stroke-width:1;" x1="87.1953" x2="149.7891" y1="276.2969" y2="276.2969"/></g><g class="message" data-entity-1="part2" data-entity-2="part2" data-source-line="17" id="msg12"><line style="stroke:#181818;stroke-width:2;" x1="151.2891" x2="161.2891" y1="285.2969" y2="295.2969"/><line style="stroke:#181818;stroke-width:2;" x1="151.2891" x2="161.2891" y1="295.2969" y2="285.2969"/><line style="stroke:#181818;stroke-width:1;" x1="83.1953" x2="156.2891" y1="290.2969" y2="290.2969"/></g><g class="message" data-entity-1="part2" data-entity-2="part2" data-source-line="19" id="msg13"><polygon fill="#181818" points="94.1953,328.2969,84.1953,332.2969,94.1953,336.2969,90.1953,332.2969" style="stroke:#181818;stroke-width:1;"/><line style="stroke:#181818;stroke-width:1;" x1="88.1953" x2="168.2891" y1="332.2969" y2="332.2969"/></g><g class="message" data-entity-1="part2" data-entity-2="part2" data-source-line="20" id="msg14"><line style="stroke:#181818;stroke-width:2;" x1="90.1953" x2="100.1953" y1="341.2969" y2="351.2969"/><line style="stroke:#181818;stroke-width:2;" x1="90.1953" x2="100.1953" y1="351.2969" y2="341.2969"/><line style="stroke:#181818;stroke-width:1;" x1="95.1953" x2="168.2891" y1="346.2969" y2="346.2969"/></g><?plantuml-src AqWiAibCpYn8p2jHSCp9J4xbAa0ISSfFKb3EoKpFA4dAAKtb0YjGqBK3YNE1v81CvyIY_1mkFJqzhcYeH7G-4YCVmgg02e7LsUX21Q4Ca234j5WedGzXvCDPkdOLiN1rDheGGQ3-M000?></g></svg>