<svg xmlns="http://www.w3.org/2000/svg" xmlns:xlink="http://www.w3.org/1999/xlink" contentStyleType="text/css" data-diagram-type="SEQUENCE" height="936px" preserveAspectRatio="none" style="width:114px;height:936px;background:#FFFFFF;" version="1.1" viewBox="0 0 114 936" width="114px" zoomAndPan="magnify"><?plantuml 1.2026.3beta5?><defs/><g><g class="participant-lifeline" data-entity-uid="part1" data-qualified-name="a" data-source-line="1" id="part1-lifeline"><g><title>Alice</title><rect fill="#000000" fill-opacity="0.00000" height="862.6563" width="8" x="24.8335" y="36.2969"/><line style="stroke:#181818;stroke-width:0.5;stroke-dasharray:5,5;" x1="28" x2="28" y1="36.2969" y2="898.9531"/></g></g><g class="participant-lifeline" data-entity-uid="part2" data-qualified-name="b" data-source-line="2" id="part2-lifeline"><g><title>Bob</title><rect fill="#000000" fill-opacity="0.00000" height="862.6563" width="8" x="79.1953" y="36.2969"/><line style="stroke:#181818;stroke-width:0.5;stroke-dasharray:5,5;" x1="82.667" x2="82.667" y1="36.2969" y2="898.9531"/></g></g><g class="participant participant-head" data-entity-uid="part1" data-qualified-name="a" data-source-line="1" id="part1-head"><rect fill="#E2E2F0" height="30.2969" rx="2.5" ry="2.5" style="stroke:#181818;stroke-width:0.5;" width="47.667" x="5" y="5"/><text fill="#000000" font-family="sans-serif" font-size="14" lengthAdjust="spacing" textLength="33.667" x="12" y="24.9951">Alice</text></g><g class="participant participant-tail" data-entity-uid="part1" data-qualified-name="a" data-source-line="1" id="part1-tail"><rect fill="#E2E2F0" height="30.2969" rx="2.5" ry="2.5" style="stroke:#181818;stroke-width:0.5;" width="47.667" x="5" y="897.9531"/><text fill="#000000" font-family="sans-serif" font-size="14" lengthAdjust="spacing" textLength="33.667" x="12" y="917.9482">Alice</text></g><g class="participant participant-head" data-entity-uid="part2" data-qualified-name="b" data-source-line="2" id="part2-head"><rect fill="#E2E2F0" height="30.2969" rx="2.5" ry="2.5" style="stroke:#181818;stroke-width:0.5;" width="41.0566" x="62.667" y="5"/><text fill="#000000" font-family="sans-serif" font-size="14" lengthAdjust="spacing" textLength="27.0566" x="69.667" y="24.9951">Bob</text></g><g class="participant participant-tail" data-entity-uid="part2" data-qualified-name="b" data-source-line="2" id="part2-tail"><rect fill="#E2E2F0" height="30.2969" rx="2.5" ry="2.5" style="stroke:#181818;stroke-width:0.5;" width="41.0566" x="62.667" y="897.9531"/><text fill="#000000" font-family="sans-serif" font-size="14" lengthAdjust="spacing" textLength="27.0566" x="69.667" y="917.9482">Bob</text></g><g class="message" data-entity-1="part1" data-entity-2="part1" data-source-line="3" id="msg1"><line style="stroke:#181818;stroke-width:1;" x1="28.8335" x2="70.8335" y1="67.4297" y2="67.4297"/><line style="stroke:#181818;stroke-width:1;" x1="70.8335" x2="70.8335" y1="67.4297" y2="80.4297"/><line style="stroke:#181818;stroke-width:1;" x1="29.8335" x2="70.8335" y1="80.4297" y2="80.4297"/><polygon fill="#181818" points="39.8335,76.4297,29.8335,80.4297,39.8335,84.4297,35.8335,80.4297" style="stroke:#181818;stroke-width:1;"/><text fill="#000000" font-family="monospace" font-size="13" lengthAdjust="spacing" textLength="15.6533" x="35.8335" y="62.3638">-&gt;</text></g><g class="message" data-entity-1="part1" data-entity-2="part1" data-source-line="4" id="msg2"><line style="stroke:#181818;stroke-width:1;" x1="28.8335" x2="70.8335" y1="109.5625" y2="109.5625"/><line style="stroke:#181818;stroke-width:1;" x1="70.8335" x2="70.8335" y1="109.5625" y2="122.5625"/><line style="stroke:#181818;stroke-width:1;" x1="28.8335" x2="70.8335" y1="122.5625" y2="122.5625"/><line style="stroke:#181818;stroke-width:1;" x1="29.8335" x2="39.8335" y1="122.5625" y2="118.5625"/><line style="stroke:#181818;stroke-width:1;" x1="29.8335" x2="39.8335" y1="122.5625" y2="126.5625"/><text fill="#000000" font-family="monospace" font-size="13" lengthAdjust="spacing" textLength="23.48" x="35.8335" y="104.4966">-&gt;&gt;</text></g><g class="message" data-entity-1="part1" data-entity-2="part1" data-source-line="5" id="msg3"><line style="stroke:#181818;stroke-width:1;" x1="28.8335" x2="70.8335" y1="151.6953" y2="151.6953"/><line style="stroke:#181818;stroke-width:1;" x1="70.8335" x2="70.8335" y1="151.6953" y2="164.6953"/><line style="stroke:#181818;stroke-width:1;" x1="29.8335" x2="70.8335" y1="164.6953" y2="164.6953"/><polygon fill="#181818" points="38.8335,160.6953,28.8335,164.6953,38.8335,164.6953" style="stroke:#181818;stroke-width:1;"/><text fill="#000000" font-family="monospace" font-size="13" lengthAdjust="spacing" textLength="15.6533" x="35.8335" y="146.6294">-\</text></g><g class="message" data-entity-1="part1" data-entity-2="part1" data-source-line="6" id="msg4"><line style="stroke:#181818;stroke-width:1;" x1="28.8335" x2="70.8335" y1="193.8281" y2="193.8281"/><line style="stroke:#181818;stroke-width:1;" x1="70.8335" x2="70.8335" y1="193.8281" y2="206.8281"/><line style="stroke:#181818;stroke-width:1;" x1="28.8335" x2="70.8335" y1="206.8281" y2="206.8281"/><line style="stroke:#181818;stroke-width:1;" x1="29.8335" x2="39.8335" y1="206.8281" y2="202.8281"/><text fill="#000000" font-family="monospace" font-size="13" lengthAdjust="spacing" textLength="23.48" x="35.8335" y="188.7622">-\\</text></g><g class="message" data-entity-1="part1" data-entity-2="part1" data-source-line="7" id="msg5"><line style="stroke:#181818;stroke-width:1;" x1="28.8335" x2="70.8335" y1="235.9609" y2="235.9609"/><line style="stroke:#181818;stroke-width:1;" x1="70.8335" x2="70.8335" y1="235.9609" y2="248.9609"/><line style="stroke:#181818;stroke-width:1;" x1="29.8335" x2="70.8335" y1="248.9609" y2="248.9609"/><polygon fill="#181818" points="38.8335,248.9609,28.8335,248.9609,38.8335,252.9609" style="stroke:#181818;stroke-width:1;"/><text fill="#000000" font-family="monospace" font-size="13" lengthAdjust="spacing" textLength="15.6533" x="35.8335" y="230.895">-/</text></g><g class="message" data-entity-1="part1" data-entity-2="part1" data-source-line="8" id="msg6"><line style="stroke:#181818;stroke-width:1;" x1="28.8335" x2="70.8335" y1="278.0938" y2="278.0938"/><line style="stroke:#181818;stroke-width:1;" x1="70.8335" x2="70.8335" y1="278.0938" y2="291.0938"/><line style="stroke:#181818;stroke-width:1;" x1="28.8335" x2="70.8335" y1="291.0938" y2="291.0938"/><line style="stroke:#181818;stroke-width:1;" x1="29.8335" x2="39.8335" y1="291.0938" y2="295.0938"/><text fill="#000000" font-family="monospace" font-size="13" lengthAdjust="spacing" textLength="23.48" x="35.8335" y="273.0278">-//</text></g><g class="message" data-entity-1="part1" data-entity-2="part1" data-source-line="9" id="msg7"><line style="stroke:#181818;stroke-width:1;" x1="28.8335" x2="70.8335" y1="320.2266" y2="320.2266"/><line style="stroke:#181818;stroke-width:1;" x1="70.8335" x2="70.8335" y1="320.2266" y2="333.2266"/><line style="stroke:#181818;stroke-width:1;" x1="41.8335" x2="70.8335" y1="333.2266" y2="333.2266"/><line style="stroke:#181818;stroke-width:2;" x1="34.8335" x2="44.8335" y1="328.2266" y2="338.2266"/><line style="stroke:#181818;stroke-width:2;" x1="34.8335" x2="44.8335" y1="338.2266" y2="328.2266"/><text fill="#000000" font-family="monospace" font-size="13" lengthAdjust="spacing" textLength="23.48" x="35.8335" y="315.1606">-&gt;x</text></g><g class="message" data-entity-1="part1" data-entity-2="part1" data-source-line="10" id="msg8"><line style="stroke:#181818;stroke-width:1;" x1="40.8335" x2="70.8335" y1="362.3594" y2="362.3594"/><line style="stroke:#181818;stroke-width:1;" x1="70.8335" x2="70.8335" y1="362.3594" y2="375.3594"/><line style="stroke:#181818;stroke-width:1;" x1="29.8335" x2="70.8335" y1="375.3594" y2="375.3594"/><line style="stroke:#181818;stroke-width:2;" x1="34.8335" x2="44.8335" y1="357.3594" y2="367.3594"/><line style="stroke:#181818;stroke-width:2;" x1="34.8335" x2="44.8335" y1="367.3594" y2="357.3594"/><polygon fill="#181818" points="39.8335,371.3594,29.8335,375.3594,39.8335,379.3594,35.8335,375.3594" style="stroke:#181818;stroke-width:1;"/><text fill="#000000" font-family="monospace" font-size="13" lengthAdjust="spacing" textLength="23.48" x="35.8335" y="357.2935">x-&gt;</text></g><g class="message" data-entity-1="part1" data-entity-2="part1" data-source-line="11" id="msg9"><ellipse cx="28.3335" cy="403.7422" fill="#000000" rx="4" ry="4" style="stroke:#181818;stroke-width:1.5;"/><line style="stroke:#181818;stroke-width:1;" x1="32.8335" x2="70.8335" y1="404.4922" y2="404.4922"/><line style="stroke:#181818;stroke-width:1;" x1="70.8335" x2="70.8335" y1="404.4922" y2="417.4922"/><line style="stroke:#181818;stroke-width:1;" x1="29.8335" x2="70.8335" y1="417.4922" y2="417.4922"/><polygon fill="#181818" points="39.8335,413.4922,29.8335,417.4922,39.8335,421.4922,35.8335,417.4922" style="stroke:#181818;stroke-width:1;"/><text fill="#000000" font-family="monospace" font-size="13" lengthAdjust="spacing" textLength="23.48" x="35.8335" y="399.4263">o-&gt;</text></g><g class="message" data-entity-1="part1" data-entity-2="part1" data-source-line="12" id="msg10"><ellipse cx="28.3335" cy="458.875" fill="#000000" rx="4" ry="4" style="stroke:#181818;stroke-width:1.5;"/><line style="stroke:#181818;stroke-width:1;" x1="28.8335" x2="70.8335" y1="446.625" y2="446.625"/><line style="stroke:#181818;stroke-width:1;" x1="70.8335" x2="70.8335" y1="446.625" y2="459.625"/><line style="stroke:#181818;stroke-width:1;" x1="35.3335" x2="70.8335" y1="459.625" y2="459.625"/><polygon fill="#181818" points="45.3335,455.625,35.3335,459.625,45.3335,463.625,41.3335,459.625" style="stroke:#181818;stroke-width:1;"/><text fill="#000000" font-family="monospace" font-size="13" lengthAdjust="spacing" textLength="23.48" x="35.8335" y="441.5591">-&gt;o</text></g><g class="message" data-entity-1="part1" data-entity-2="part1" data-source-line="13" id="msg11"><ellipse cx="28.3335" cy="488.0078" fill="#000000" rx="4" ry="4" style="stroke:#181818;stroke-width:1.5;"/><ellipse cx="28.3335" cy="501.0078" fill="#000000" rx="4" ry="4" style="stroke:#181818;stroke-width:1.5;"/><line style="stroke:#181818;stroke-width:1;" x1="32.8335" x2="70.8335" y1="488.7578" y2="488.7578"/><line style="stroke:#181818;stroke-width:1;" x1="70.8335" x2="70.8335" y1="488.7578" y2="501.7578"/><line style="stroke:#181818;stroke-width:1;" x1="35.3335" x2="70.8335" y1="501.7578" y2="501.7578"/><polygon fill="#181818" points="45.3335,497.7578,35.3335,501.7578,45.3335,505.7578,41.3335,501.7578" style="stroke:#181818;stroke-width:1;"/><text fill="#000000" font-family="monospace" font-size="13" lengthAdjust="spacing" textLength="31.3066" x="35.8335" y="483.6919">o-&gt;o</text></g><g class="message" data-entity-1="part1" data-entity-2="part1" data-source-line="14" id="msg12"><line style="stroke:#181818;stroke-width:1;" x1="28.8335" x2="70.8335" y1="530.8906" y2="530.8906"/><line style="stroke:#181818;stroke-width:1;" x1="70.8335" x2="70.8335" y1="530.8906" y2="543.8906"/><line style="stroke:#181818;stroke-width:1;" x1="29.8335" x2="70.8335" y1="543.8906" y2="543.8906"/><polygon fill="#181818" points="38.8335,526.8906,28.8335,530.8906,38.8335,534.8906,34.8335,530.8906" style="stroke:#181818;stroke-width:1;"/><polygon fill="#181818" points="39.8335,539.8906,29.8335,543.8906,39.8335,547.8906,35.8335,543.8906" style="stroke:#181818;stroke-width:1;"/><text fill="#000000" font-family="monospace" font-size="13" lengthAdjust="spacing" textLength="23.48" x="35.8335" y="525.8247">&lt;-&gt;</text></g><g class="message" data-entity-1="part1" data-entity-2="part1" data-source-line="15" id="msg13"><ellipse cx="28.3335" cy="572.2734" fill="#000000" rx="4" ry="4" style="stroke:#181818;stroke-width:1.5;"/><ellipse cx="28.3335" cy="585.2734" fill="#000000" rx="4" ry="4" style="stroke:#181818;stroke-width:1.5;"/><line style="stroke:#181818;stroke-width:1;" x1="35.3335" x2="70.8335" y1="573.0234" y2="573.0234"/><line style="stroke:#181818;stroke-width:1;" x1="70.8335" x2="70.8335" y1="573.0234" y2="586.0234"/><line style="stroke:#181818;stroke-width:1;" x1="35.3335" x2="70.8335" y1="586.0234" y2="586.0234"/><polygon fill="#181818" points="45.3335,569.0234,35.3335,573.0234,45.3335,577.0234,41.3335,573.0234" style="stroke:#181818;stroke-width:1;"/><polygon fill="#181818" points="45.3335,582.0234,35.3335,586.0234,45.3335,590.0234,41.3335,586.0234" style="stroke:#181818;stroke-width:1;"/><text fill="#000000" font-family="monospace" font-size="13" lengthAdjust="spacing" textLength="39.1333" x="35.8335" y="567.9575">o&lt;-&gt;o</text></g><g class="message" data-entity-1="part1" data-entity-2="part1" data-source-line="16" id="msg14"><line style="stroke:#181818;stroke-width:1;" x1="40.8335" x2="70.8335" y1="615.1563" y2="615.1563"/><line style="stroke:#181818;stroke-width:1;" x1="70.8335" x2="70.8335" y1="615.1563" y2="628.1563"/><line style="stroke:#181818;stroke-width:1;" x1="41.8335" x2="70.8335" y1="628.1563" y2="628.1563"/><line style="stroke:#181818;stroke-width:2;" x1="34.8335" x2="44.8335" y1="610.1563" y2="620.1563"/><line style="stroke:#181818;stroke-width:2;" x1="34.8335" x2="44.8335" y1="620.1563" y2="610.1563"/><line style="stroke:#181818;stroke-width:2;" x1="34.8335" x2="44.8335" y1="623.1563" y2="633.1563"/><line style="stroke:#181818;stroke-width:2;" x1="34.8335" x2="44.8335" y1="633.1563" y2="623.1563"/><text fill="#000000" font-family="monospace" font-size="13" lengthAdjust="spacing" textLength="39.1333" x="35.8335" y="610.0903">x&lt;-&gt;x</text></g><g class="message" data-entity-1="part1" data-entity-2="part1" data-source-line="17" id="msg15"><ellipse cx="28.3335" cy="669.5391" fill="#000000" rx="4" ry="4" style="stroke:#181818;stroke-width:1.5;"/><line style="stroke:#181818;stroke-width:1;" x1="28.8335" x2="70.8335" y1="657.2891" y2="657.2891"/><line style="stroke:#181818;stroke-width:1;" x1="70.8335" x2="70.8335" y1="657.2891" y2="670.2891"/><line style="stroke:#181818;stroke-width:1;" x1="34.3335" x2="70.8335" y1="670.2891" y2="670.2891"/><line style="stroke:#181818;stroke-width:1;" x1="35.3335" x2="45.3335" y1="670.2891" y2="666.2891"/><line style="stroke:#181818;stroke-width:1;" x1="35.3335" x2="45.3335" y1="670.2891" y2="674.2891"/><text fill="#000000" font-family="monospace" font-size="13" lengthAdjust="spacing" textLength="31.3066" x="35.8335" y="652.2231">-&gt;&gt;o</text></g><g class="message" data-entity-1="part1" data-entity-2="part1" data-source-line="18" id="msg16"><ellipse cx="28.3335" cy="711.6719" fill="#000000" rx="4" ry="4" style="stroke:#181818;stroke-width:1.5;"/><line style="stroke:#181818;stroke-width:1;" x1="28.8335" x2="70.8335" y1="699.4219" y2="699.4219"/><line style="stroke:#181818;stroke-width:1;" x1="70.8335" x2="70.8335" y1="699.4219" y2="712.4219"/><line style="stroke:#181818;stroke-width:1;" x1="35.3335" x2="70.8335" y1="712.4219" y2="712.4219"/><polygon fill="#181818" points="44.3335,708.4219,34.3335,712.4219,44.3335,712.4219" style="stroke:#181818;stroke-width:1;"/><text fill="#000000" font-family="monospace" font-size="13" lengthAdjust="spacing" textLength="23.48" x="35.8335" y="694.356">-\o</text></g><g class="message" data-entity-1="part1" data-entity-2="part1" data-source-line="19" id="msg17"><ellipse cx="28.3335" cy="753.8047" fill="#000000" rx="4" ry="4" style="stroke:#181818;stroke-width:1.5;"/><line style="stroke:#181818;stroke-width:1;" x1="28.8335" x2="70.8335" y1="741.5547" y2="741.5547"/><line style="stroke:#181818;stroke-width:1;" x1="70.8335" x2="70.8335" y1="741.5547" y2="754.5547"/><line style="stroke:#181818;stroke-width:1;" x1="34.3335" x2="70.8335" y1="754.5547" y2="754.5547"/><line style="stroke:#181818;stroke-width:1;" x1="35.3335" x2="45.3335" y1="754.5547" y2="750.5547"/><text fill="#000000" font-family="monospace" font-size="13" lengthAdjust="spacing" textLength="31.3066" x="35.8335" y="736.4888">-\\o</text></g><g class="message" data-entity-1="part1" data-entity-2="part1" data-source-line="20" id="msg18"><ellipse cx="28.3335" cy="795.9375" fill="#000000" rx="4" ry="4" style="stroke:#181818;stroke-width:1.5;"/><line style="stroke:#181818;stroke-width:1;" x1="28.8335" x2="70.8335" y1="783.6875" y2="783.6875"/><line style="stroke:#181818;stroke-width:1;" x1="70.8335" x2="70.8335" y1="783.6875" y2="796.6875"/><line style="stroke:#181818;stroke-width:1;" x1="35.3335" x2="70.8335" y1="796.6875" y2="796.6875"/><polygon fill="#181818" points="44.3335,796.6875,34.3335,796.6875,44.3335,800.6875" style="stroke:#181818;stroke-width:1;"/><text fill="#000000" font-family="monospace" font-size="13" lengthAdjust="spacing" textLength="23.48" x="35.8335" y="778.6216">-/o</text></g><g class="message" data-entity-1="part1" data-entity-2="part1" data-source-line="21" id="msg19"><ellipse cx="28.3335" cy="838.0703" fill="#000000" rx="4" ry="4" style="stroke:#181818;stroke-width:1.5;"/><line style="stroke:#181818;stroke-width:1;" x1="28.8335" x2="70.8335" y1="825.8203" y2="825.8203"/><line style="stroke:#181818;stroke-width:1;" x1="70.8335" x2="70.8335" y1="825.8203" y2="838.8203"/><line style="stroke:#181818;stroke-width:1;" x1="34.3335" x2="70.8335" y1="838.8203" y2="838.8203"/><line style="stroke:#181818;stroke-width:1;" x1="35.3335" x2="45.3335" y1="838.8203" y2="842.8203"/><text fill="#000000" font-family="monospace" font-size="13" lengthAdjust="spacing" textLength="31.3066" x="35.8335" y="820.7544">-//o</text></g><g class="message" data-entity-1="part1" data-entity-2="part1" data-source-line="22" id="msg20"><ellipse cx="28.3335" cy="880.2031" fill="#000000" rx="4" ry="4" style="stroke:#181818;stroke-width:1.5;"/><line style="stroke:#181818;stroke-width:1;" x1="40.8335" x2="70.8335" y1="867.9531" y2="867.9531"/><line style="stroke:#181818;stroke-width:1;" x1="70.8335" x2="70.8335" y1="867.9531" y2="880.9531"/><line style="stroke:#181818;stroke-width:1;" x1="35.3335" x2="70.8335" y1="880.9531" y2="880.9531"/><line style="stroke:#181818;stroke-width:2;" x1="34.8335" x2="44.8335" y1="862.9531" y2="872.9531"/><line style="stroke:#181818;stroke-width:2;" x1="34.8335" x2="44.8335" y1="872.9531" y2="862.9531"/><polygon fill="#181818" points="45.3335,876.9531,35.3335,880.9531,45.3335,884.9531,41.3335,880.9531" style="stroke:#181818;stroke-width:1;"/><text fill="#000000" font-family="monospace" font-size="13" lengthAdjust="spacing" textLength="31.3066" x="35.8335" y="862.8872">x-&gt;o</text></g><?plantuml-src LP0x2WCn34JxFOLmRzm7OqZEuSQxf324Z4csyF4J_sVLwJ58mqlXSyOZfl0-vVwAnrF2LyAM23-mYnIyRq6qap91Rg9KNPIgs35s0tjE-vdsdl5_6ZQSDZDj36CpNsP-cJlEcfhKfM8mniJQWOzWfS5fD6pvY5stROttT5bQ4rjRzIPb6Qh0gZ2SS1EFfGfNLUXIE6wmN85TOKe1Iodu1m00?></g></svg>