<svg xmlns="http://www.w3.org/2000/svg" xmlns:xlink="http://www.w3.org/1999/xlink" contentStyleType="text/css" data-diagram-type="SEQUENCE" height="255px" preserveAspectRatio="none" style="width:406px;height:255px;background:#FFFFFF;" version="1.1" viewBox="0 0 406 255" width="406px" zoomAndPan="magnify"><?plantuml 1.2026.3beta5?><defs/><g><rect fill="none" height="81.3984" style="stroke:#000000;stroke-width:1.5;" width="219.0967" x="171.5347" y="53.2969"/><rect fill="none" height="52.2656" style="stroke:#000000;stroke-width:1.5;" width="205.4214" x="9" y="148.6953"/><g class="participant-lifeline" data-entity-uid="part1" data-qualified-name="a" data-source-line="1" id="part1-lifeline"><g><title>a</title><rect fill="#000000" fill-opacity="0.00000" height="181.6641" width="8" x="137.2896" y="36.2969"/><line style="stroke:#181818;stroke-width:0.5;stroke-dasharray:5,5;" x1="141" x2="141" y1="36.2969" y2="217.9609"/></g></g><g class="participant-lifeline" data-entity-uid="part2" data-qualified-name="b" data-source-line="4" id="part2-lifeline"><g><title>b</title><rect fill="#000000" fill-opacity="0.00000" height="181.6641" width="8" x="188.978" y="36.2969"/><line style="stroke:#181818;stroke-width:0.5;stroke-dasharray:5,5;" x1="192.5347" x2="192.5347" y1="36.2969" y2="217.9609"/></g></g><g class="participant-lifeline" data-entity-uid="part3" data-qualified-name="c" data-source-line="4" id="part3-lifeline"><g><title>c</title><rect fill="#000000" fill-opacity="0.00000" height="181.6641" width="8" x="240.6665" y="36.2969"/><line style="stroke:#181818;stroke-width:0.5;stroke-dasharray:5,5;" x1="243.8179" x2="243.8179" y1="36.2969" y2="217.9609"/></g></g><g class="participant participant-head" data-entity-uid="part1" data-qualified-name="a" data-source-line="1" id="part1-head"><rect fill="#E2E2F0" height="30.2969" rx="2.5" ry="2.5" style="stroke:#181818;stroke-width:0.5;" width="22.5791" x="130" y="5"/><text fill="#000000" font-family="sans-serif" font-size="14" lengthAdjust="spacing" textLength="8.5791" x="137" y="24.9951">a</text></g><g class="participant participant-tail" data-entity-uid="part1" data-qualified-name="a" data-source-line="1" id="part1-tail"><rect fill="#E2E2F0" height="30.2969" rx="2.5" ry="2.5" style="stroke:#181818;stroke-width:0.5;" width="22.5791" x="130" y="216.9609"/><text fill="#000000" font-family="sans-serif" font-size="14" lengthAdjust="spacing" textLength="8.5791" x="137" y="236.9561">a</text></g><g class="participant participant-head" data-entity-uid="part2" data-qualified-name="b" data-source-line="4" id="part2-head"><rect fill="#E2E2F0" height="30.2969" rx="2.5" ry="2.5" style="stroke:#181818;stroke-width:0.5;" width="22.8867" x="181.5347" y="5"/><text fill="#000000" font-family="sans-serif" font-size="14" lengthAdjust="spacing" textLength="8.8867" x="188.5347" y="24.9951">b</text></g><g class="participant participant-tail" data-entity-uid="part2" data-qualified-name="b" data-source-line="4" id="part2-tail"><rect fill="#E2E2F0" height="30.2969" rx="2.5" ry="2.5" style="stroke:#181818;stroke-width:0.5;" width="22.8867" x="181.5347" y="216.9609"/><text fill="#000000" font-family="sans-serif" font-size="14" lengthAdjust="spacing" textLength="8.8867" x="188.5347" y="236.9561">b</text></g><g class="participant participant-head" data-entity-uid="part3" data-qualified-name="c" data-source-line="4" id="part3-head"><rect fill="#E2E2F0" height="30.2969" rx="2.5" ry="2.5" style="stroke:#181818;stroke-width:0.5;" width="21.6973" x="233.8179" y="5"/><text fill="#000000" font-family="sans-serif" font-size="14" lengthAdjust="spacing" textLength="7.6973" x="240.8179" y="24.9951">c</text></g><g class="participant participant-tail" data-entity-uid="part3" data-qualified-name="c" data-source-line="4" id="part3-tail"><rect fill="#E2E2F0" height="30.2969" rx="2.5" ry="2.5" style="stroke:#181818;stroke-width:0.5;" width="21.6973" x="233.8179" y="216.9609"/><text fill="#000000" font-family="sans-serif" font-size="14" lengthAdjust="spacing" textLength="7.6973" x="240.8179" y="236.9561">c</text></g><path d="M171.5347,53.2969 L280.5508,53.2969 L280.5508,60.4297 L270.5508,70.4297 L171.5347,70.4297 L171.5347,53.2969" fill="#EEEEEE" style="stroke:#000000;stroke-width:1.5;"/><rect fill="none" height="81.3984" style="stroke:#000000;stroke-width:1.5;" width="219.0967" x="171.5347" y="53.2969"/><text fill="#000000" font-family="sans-serif" font-size="13" font-weight="700" lengthAdjust="spacing" textLength="64.0161" x="186.5347" y="66.3638">partition</text><text fill="#000000" font-family="sans-serif" font-size="11" font-weight="700" lengthAdjust="spacing" textLength="25.5825" x="295.5508" y="65.5073">[p1]</text><g class="message" data-entity-1="part2" data-entity-2="part3" data-source-line="4" id="msg1"><polygon fill="#181818" points="232.6665,87.5625,242.6665,91.5625,232.6665,95.5625,236.6665,91.5625" style="stroke:#181818;stroke-width:1;"/><line style="stroke:#181818;stroke-width:1;" x1="192.978" x2="238.6665" y1="91.5625" y2="91.5625"/><text fill="#000000" font-family="sans-serif" font-size="13" lengthAdjust="spacing" textLength="27.6885" x="199.978" y="86.4966">msg</text></g><g class="message" data-entity-1="part3" data-entity-2="part2" data-source-line="5" id="msg2"><polygon fill="#181818" points="203.978,119.6953,193.978,123.6953,203.978,127.6953,199.978,123.6953" style="stroke:#181818;stroke-width:1;"/><line style="stroke:#181818;stroke-width:1;stroke-dasharray:2,2;" x1="197.978" x2="243.6665" y1="123.6953" y2="123.6953"/><text fill="#000000" font-family="sans-serif" font-size="13" lengthAdjust="spacing" textLength="18.7573" x="209.978" y="118.6294">OK</text></g><path d="M249,104.5625 L249,129.5625 L374,129.5625 L374,114.5625 L364,104.5625 L249,104.5625" fill="#FEFFDD" style="stroke:#181818;stroke-width:0.5;"/><path d="M364,104.5625 L364,114.5625 L374,114.5625 L364,104.5625" fill="#FEFFDD" style="stroke:#181818;stroke-width:0.5;"/><text fill="#000000" font-family="sans-serif" font-size="13" lengthAdjust="spacing" textLength="104.9648" x="255" y="121.6294">Some right note</text><path d="M9,148.6953 L118.0161,148.6953 L118.0161,155.8281 L108.0161,165.8281 L9,165.8281 L9,148.6953" fill="#EEEEEE" style="stroke:#000000;stroke-width:1.5;"/><rect fill="none" height="52.2656" style="stroke:#000000;stroke-width:1.5;" width="205.4214" x="9" y="148.6953"/><text fill="#000000" font-family="sans-serif" font-size="13" font-weight="700" lengthAdjust="spacing" textLength="64.0161" x="24" y="161.7622">partition</text><text fill="#000000" font-family="sans-serif" font-size="11" font-weight="700" lengthAdjust="spacing" textLength="25.5825" x="133.0161" y="160.9058">[p2]</text><g class="message" data-entity-1="part1" data-entity-2="part2" data-source-line="10" id="msg4"><polygon fill="#181818" points="180.978,185.9609,190.978,189.9609,180.978,193.9609,184.978,189.9609" style="stroke:#181818;stroke-width:1;"/><line style="stroke:#181818;stroke-width:1;" x1="141.2896" x2="186.978" y1="189.9609" y2="189.9609"/><text fill="#000000" font-family="sans-serif" font-size="13" lengthAdjust="spacing" textLength="27.6885" x="148.2896" y="184.895">msg</text></g><path d="M19,170.8281 L19,195.8281 L135,195.8281 L135,180.8281 L125,170.8281 L19,170.8281" fill="#FEFFDD" style="stroke:#181818;stroke-width:0.5;"/><path d="M125,170.8281 L125,180.8281 L135,180.8281 L125,170.8281" fill="#FEFFDD" style="stroke:#181818;stroke-width:0.5;"/><text fill="#000000" font-family="sans-serif" font-size="13" lengthAdjust="spacing" textLength="95.7036" x="25" y="187.895">Some left note</text><?plantuml-src AqWiAibCpYn8p2jHIEJYAW1nIpBpynGA3BcI57Jj59Aj57ABqxcI5NI1d2Gh1NzlhhpyabI5eipqZ18hXU3yN2XR0IJCbPgNWcAA4LUY0aGZo1ImpfpKD9X641Ek3m00?></g></svg>