<svg xmlns="http://www.w3.org/2000/svg" xmlns:xlink="http://www.w3.org/1999/xlink" contentStyleType="text/css" data-diagram-type="SEQUENCE" height="229px" preserveAspectRatio="none" style="width:367px;height:229px;background:#FFFFFF;" version="1.1" viewBox="0 0 367 229" width="367px" zoomAndPan="magnify"><?plantuml 1.2026.3beta5?><defs/><g><g class="participant-lifeline" data-entity-uid="part1" data-qualified-name="Alice" data-source-line="1" id="part1-lifeline"><g><title>Alice</title><rect fill="#000000" fill-opacity="0.00000" height="155.6641" width="8" x="139.8335" y="36.2969"/><line style="stroke:#181818;stroke-width:0.5;stroke-dasharray:5,5;" x1="143" x2="143" y1="36.2969" y2="191.9609"/></g></g><g class="participant-lifeline" data-entity-uid="part2" data-qualified-name="Bob" data-source-line="1" id="part2-lifeline"><g><title>Bob</title><rect fill="#000000" fill-opacity="0.00000" height="155.6641" width="8" x="195.248" y="36.2969"/><line style="stroke:#181818;stroke-width:0.5;stroke-dasharray:5,5;" x1="198.7197" x2="198.7197" y1="36.2969" y2="191.9609"/></g></g><g class="participant participant-head" data-entity-uid="part1" data-qualified-name="Alice" data-source-line="1" id="part1-head"><rect fill="#E2E2F0" height="30.2969" rx="2.5" ry="2.5" style="stroke:#181818;stroke-width:0.5;" width="47.667" x="120" y="5"/><text fill="#000000" font-family="sans-serif" font-size="14" lengthAdjust="spacing" textLength="33.667" x="127" y="24.9951">Alice</text></g><g class="participant participant-tail" data-entity-uid="part1" data-qualified-name="Alice" data-source-line="1" id="part1-tail"><rect fill="#E2E2F0" height="30.2969" rx="2.5" ry="2.5" style="stroke:#181818;stroke-width:0.5;" width="47.667" x="120" y="190.9609"/><text fill="#000000" font-family="sans-serif" font-size="14" lengthAdjust="spacing" textLength="33.667" x="127" y="210.9561">Alice</text></g><g class="participant participant-head" data-entity-uid="part2" data-qualified-name="Bob" data-source-line="1" id="part2-head"><rect fill="#E2E2F0" height="30.2969" rx="2.5" ry="2.5" style="stroke:#181818;stroke-width:0.5;" width="41.0566" x="178.7197" y="5"/><text fill="#000000" font-family="sans-serif" font-size="14" lengthAdjust="spacing" textLength="27.0566" x="185.7197" y="24.9951">Bob</text></g><g class="participant participant-tail" data-entity-uid="part2" data-qualified-name="Bob" data-source-line="1" id="part2-tail"><rect fill="#E2E2F0" height="30.2969" rx="2.5" ry="2.5" style="stroke:#181818;stroke-width:0.5;" width="41.0566" x="178.7197" y="190.9609"/><text fill="#000000" font-family="sans-serif" font-size="14" lengthAdjust="spacing" textLength="27.0566" x="185.7197" y="210.9561">Bob</text></g><g class="message" data-entity-1="part1" data-entity-2="part2" data-source-line="1" id="msg1"><polygon fill="#181818" points="187.248,66.4297,197.248,70.4297,187.248,74.4297,191.248,70.4297" style="stroke:#181818;stroke-width:1;"/><line style="stroke:#181818;stroke-width:1;" x1="143.8335" x2="193.248" y1="70.4297" y2="70.4297"/><text fill="#000000" font-family="sans-serif" font-size="13" lengthAdjust="spacing" textLength="31.4146" x="150.8335" y="65.3638">hello</text></g><path d="M5,51.2969 L5,76.2969 L139,76.2969 L139,61.2969 L129,51.2969 L5,51.2969" fill="#FEFFDD" style="stroke:#181818;stroke-width:0.5;"/><path d="M129,51.2969 L129,61.2969 L139,61.2969 L129,51.2969" fill="#FEFFDD" style="stroke:#181818;stroke-width:0.5;"/><text fill="#000000" font-family="sans-serif" font-size="13" lengthAdjust="spacing" textLength="113.293" x="11" y="68.3638">this is a first note</text><g class="message" data-entity-1="part2" data-entity-2="part1" data-source-line="4" id="msg3"><polygon fill="#181818" points="154.8335,101.5625,144.8335,105.5625,154.8335,109.5625,150.8335,105.5625" style="stroke:#181818;stroke-width:1;"/><line style="stroke:#181818;stroke-width:1;" x1="148.8335" x2="198.248" y1="105.5625" y2="105.5625"/><text fill="#000000" font-family="sans-serif" font-size="13" lengthAdjust="spacing" textLength="15.4819" x="160.8335" y="100.4966">ok</text></g><path d="M204,86.4297 L204,111.4297 L351,111.4297 L351,96.4297 L341,86.4297 L204,86.4297" fill="#FEFFDD" style="stroke:#181818;stroke-width:0.5;"/><path d="M341,86.4297 L341,96.4297 L351,96.4297 L341,86.4297" fill="#FEFFDD" style="stroke:#181818;stroke-width:0.5;"/><text fill="#000000" font-family="sans-serif" font-size="13" lengthAdjust="spacing" textLength="126.6294" x="210" y="103.4966">this is another note</text><g class="message" data-entity-1="part2" data-entity-2="part2" data-source-line="7" id="msg5"><line style="stroke:#181818;stroke-width:1;" x1="199.248" x2="241.248" y1="149.3281" y2="149.3281"/><line style="stroke:#181818;stroke-width:1;" x1="241.248" x2="241.248" y1="149.3281" y2="162.3281"/><line style="stroke:#181818;stroke-width:1;" x1="200.248" x2="241.248" y1="162.3281" y2="162.3281"/><polygon fill="#181818" points="210.248,158.3281,200.248,162.3281,210.248,166.3281,206.248,162.3281" style="stroke:#181818;stroke-width:1;"/><text fill="#000000" font-family="sans-serif" font-size="13" lengthAdjust="spacing" textLength="85.5474" x="206.248" y="144.2622">I am thinking</text></g><path d="M46,121.5625 L46,176.5625 L194,176.5625 L194,131.5625 L184,121.5625 L46,121.5625" fill="#FEFFDD" style="stroke:#181818;stroke-width:0.5;"/><path d="M184,121.5625 L184,131.5625 L194,131.5625 L184,121.5625" fill="#FEFFDD" style="stroke:#181818;stroke-width:0.5;"/><text fill="#000000" font-family="sans-serif" font-size="13" lengthAdjust="spacing" textLength="41.3867" x="52" y="138.6294">a note</text><text fill="#000000" font-family="sans-serif" font-size="13" lengthAdjust="spacing" textLength="127.2324" x="52" y="153.7622">can also be defined</text><text fill="#000000" font-family="sans-serif" font-size="13" lengthAdjust="spacing" textLength="102.0767" x="52" y="168.895">on several lines</text><?plantuml-src JOr13eCm30JlUSL-W0zmGAAtFiCGXrYujfH4VN-JSW1fJxipsbLbvsbv-OOPcLKzc3U6ScepMfQA7aAIKXl654A7fsKTOdVyl8GYHtuQlSnSdiRryGPz1cMds75_1RhGdGoarR4n8YSnZi4DbRzSIA6zg84j_kaV?></g></svg>