<svg xmlns="http://www.w3.org/2000/svg" xmlns:xlink="http://www.w3.org/1999/xlink" contentStyleType="text/css" data-diagram-type="SEQUENCE" height="299px" preserveAspectRatio="none" style="width:292px;height:299px;background:#FFFFFF;" version="1.1" viewBox="0 0 292 299" width="292px" zoomAndPan="magnify"><?plantuml 1.2026.3beta5?><defs/><g><g class="participant-lifeline" data-entity-uid="part1" data-qualified-name="Alice" data-source-line="1" id="part1-lifeline"><g><title>Alice</title><rect fill="#000000" fill-opacity="0.00000" height="225.9297" width="8" x="80.8335" y="36.2969"/><line style="stroke:#181818;stroke-width:0.5;stroke-dasharray:5,5;" x1="84" x2="84" y1="36.2969" y2="262.2266"/></g></g><g class="participant-lifeline" data-entity-uid="part2" data-qualified-name="Bob" data-source-line="1" id="part2-lifeline"><g><title>Bob</title><rect fill="#000000" fill-opacity="0.00000" height="225.9297" width="8" x="135.1953" y="36.2969"/><line style="stroke:#181818;stroke-width:0.5;stroke-dasharray:5,5;" x1="138.667" x2="138.667" y1="36.2969" y2="262.2266"/></g></g><g class="participant-lifeline" data-entity-uid="part3" data-qualified-name="Charlie" data-source-line="2" id="part3-lifeline"><g><title>Charlie</title><rect fill="#000000" fill-opacity="0.00000" height="225.9297" width="8" x="197.4116" y="36.2969"/><line style="stroke:#181818;stroke-width:0.5;stroke-dasharray:5,5;" x1="200.7236" x2="200.7236" y1="36.2969" y2="262.2266"/></g></g><g class="participant participant-head" data-entity-uid="part1" data-qualified-name="Alice" data-source-line="1" id="part1-head"><rect fill="#E2E2F0" height="30.2969" rx="2.5" ry="2.5" style="stroke:#181818;stroke-width:0.5;" width="47.667" x="61" y="5"/><text fill="#000000" font-family="sans-serif" font-size="14" lengthAdjust="spacing" textLength="33.667" x="68" y="24.9951">Alice</text></g><g class="participant participant-tail" data-entity-uid="part1" data-qualified-name="Alice" data-source-line="1" id="part1-tail"><rect fill="#E2E2F0" height="30.2969" rx="2.5" ry="2.5" style="stroke:#181818;stroke-width:0.5;" width="47.667" x="61" y="261.2266"/><text fill="#000000" font-family="sans-serif" font-size="14" lengthAdjust="spacing" textLength="33.667" x="68" y="281.2217">Alice</text></g><g class="participant participant-head" data-entity-uid="part2" data-qualified-name="Bob" data-source-line="1" id="part2-head"><rect fill="#E2E2F0" height="30.2969" rx="2.5" ry="2.5" style="stroke:#181818;stroke-width:0.5;" width="41.0566" x="118.667" y="5"/><text fill="#000000" font-family="sans-serif" font-size="14" lengthAdjust="spacing" textLength="27.0566" x="125.667" y="24.9951">Bob</text></g><g class="participant participant-tail" data-entity-uid="part2" data-qualified-name="Bob" data-source-line="1" id="part2-tail"><rect fill="#E2E2F0" height="30.2969" rx="2.5" ry="2.5" style="stroke:#181818;stroke-width:0.5;" width="41.0566" x="118.667" y="261.2266"/><text fill="#000000" font-family="sans-serif" font-size="14" lengthAdjust="spacing" textLength="27.0566" x="125.667" y="281.2217">Bob</text></g><g class="participant participant-head" data-entity-uid="part3" data-qualified-name="Charlie" data-source-line="2" id="part3-head"><rect fill="#E2E2F0" height="30.2969" rx="2.5" ry="2.5" style="stroke:#181818;stroke-width:0.5;" width="63.376" x="169.7236" y="5"/><text fill="#000000" font-family="sans-serif" font-size="14" lengthAdjust="spacing" textLength="49.376" x="176.7236" y="24.9951">Charlie</text></g><g class="participant participant-tail" data-entity-uid="part3" data-qualified-name="Charlie" data-source-line="2" id="part3-tail"><rect fill="#E2E2F0" height="30.2969" rx="2.5" ry="2.5" style="stroke:#181818;stroke-width:0.5;" width="63.376" x="169.7236" y="261.2266"/><text fill="#000000" font-family="sans-serif" font-size="14" lengthAdjust="spacing" textLength="49.376" x="176.7236" y="281.2217">Charlie</text></g><g class="message" data-entity-1="part1" data-entity-2="part2" data-source-line="1" id="msg1"><polygon fill="#181818" points="127.1953,63.4297,137.1953,67.4297,127.1953,71.4297,131.1953,67.4297" style="stroke:#181818;stroke-width:1;"/><line style="stroke:#181818;stroke-width:1;" x1="84.8335" x2="133.1953" y1="67.4297" y2="67.4297"/><text fill="#000000" font-family="sans-serif" font-size="13" lengthAdjust="spacing" textLength="20.9346" x="91.8335" y="62.3638">m1</text></g><g class="message" data-entity-1="part2" data-entity-2="part3" data-source-line="2" id="msg2"><polygon fill="#181818" points="189.4116,92.5625,199.4116,96.5625,189.4116,100.5625,193.4116,96.5625" style="stroke:#181818;stroke-width:1;"/><line style="stroke:#181818;stroke-width:1;" x1="139.1953" x2="195.4116" y1="96.5625" y2="96.5625"/><text fill="#000000" font-family="sans-serif" font-size="13" lengthAdjust="spacing" textLength="20.9346" x="146.1953" y="91.4966">m2</text></g><path d="M5,109.5625 L5,149.5625 L281,149.5625 L281,119.5625 L271,109.5625 L5,109.5625" fill="#FEFFDD" style="stroke:#181818;stroke-width:0.5;"/><path d="M271,109.5625 L271,119.5625 L281,119.5625 L271,109.5625" fill="#FEFFDD" style="stroke:#181818;stroke-width:0.5;"/><text fill="#000000" font-family="sans-serif" font-size="13" lengthAdjust="spacing" textLength="255.3218" x="11" y="126.6294">Old method for note over all part. with:</text><text fill="#000000" font-family="sans-serif" font-size="13" lengthAdjust="spacing" textLength="4.1323" x="11" y="141.7622">&#160;</text><text fill="#000000" font-family="monospace" font-size="13" lengthAdjust="spacing" textLength="70.4399" x="15.1323" y="141.7622">note&#160;over</text><text fill="#000000" font-family="monospace" font-size="13" font-style="italic" lengthAdjust="spacing" textLength="148.7065" x="93.3989" y="141.7622">FirstPart,&#160;LastPart</text><text fill="#000000" font-family="sans-serif" font-size="13" lengthAdjust="spacing" textLength="4.1323" x="242.1055" y="141.7622">.</text><path d="M59,159.8281 L59,199.8281 L226,199.8281 L226,169.8281 L216,159.8281 L59,159.8281" fill="#FEFFDD" style="stroke:#181818;stroke-width:0.5;"/><path d="M216,159.8281 L216,169.8281 L226,169.8281 L216,159.8281" fill="#FEFFDD" style="stroke:#181818;stroke-width:0.5;"/><text fill="#000000" font-family="sans-serif" font-size="13" lengthAdjust="spacing" textLength="118.7837" x="78.658" y="176.895">New method with:</text><text fill="#000000" font-family="monospace" font-size="13" lengthAdjust="spacing" textLength="86.0933" x="78.658" y="192.0278">note&#160;across</text><g class="message" data-entity-1="part2" data-entity-2="part1" data-source-line="5" id="msg3"><polygon fill="#181818" points="95.8335,207.0938,85.8335,211.0938,95.8335,215.0938,91.8335,211.0938" style="stroke:#181818;stroke-width:1;"/><line style="stroke:#181818;stroke-width:1;" x1="89.8335" x2="138.1953" y1="211.0938" y2="211.0938"/></g><polygon fill="#FEFFDD" points="69,224.0938,216,224.0938,226,235.0938,216,247.0938,69,247.0938,59,235.0938,69,224.0938" style="stroke:#181818;stroke-width:0.5;"/><text fill="#000000" font-family="sans-serif" font-size="13" lengthAdjust="spacing" textLength="131.1108" x="76.9944" y="240.1606">Note across all part.</text><?plantuml-src JOx12i8m44Jl-OebvxP1ZpaKgk19gX_W9ROh2IJTiWdszwsc9PvsODxCJkVTW7LxegSE1x6UkZrRmzwX3aSnKKAWDp9qNww2tOER7o5WiZJ2YnWAQBo7sN1gO779wiS4KXPNgOlZcEuhKC7LPAMKb4t-PGQc63NqkEprMytMaW4fyzJVAc7_ettHPSi7?></g></svg>