<svg xmlns="http://www.w3.org/2000/svg" xmlns:xlink="http://www.w3.org/1999/xlink" contentStyleType="text/css" data-diagram-type="SEQUENCE" height="130px" preserveAspectRatio="none" style="width:194px;height:130px;background:#FFFFFF;" version="1.1" viewBox="0 0 194 130" width="194px" zoomAndPan="magnify"><?plantuml 1.2026.3beta5?><defs/><g><g><title>Alice</title><rect fill="#000000" fill-opacity="0.00000" height="47.1328" width="8" x="30.3335" y="41.2969"/><line style="stroke:#181818;stroke-width:0.5;stroke-dasharray:5,5;" x1="33.8335" x2="33.8335" y1="41.2969" y2="88.4297"/></g><g><title>Bob</title><rect fill="#000000" fill-opacity="0.00000" height="47.1328" width="8" x="85.748" y="41.2969"/><line style="stroke:#181818;stroke-width:0.5;stroke-dasharray:5,5;" x1="89.248" x2="89.248" y1="41.2969" y2="88.4297"/></g><g><title>Charlie</title><rect fill="#000000" fill-opacity="0.00000" height="47.1328" width="8" x="147.9644" y="41.2969"/><line style="stroke:#181818;stroke-width:0.5;stroke-dasharray:5,5;" x1="151.4644" x2="151.4644" y1="41.2969" y2="88.4297"/></g><rect fill="#E2E2F0" height="30.2969" rx="2.5" ry="2.5" style="stroke:#181818;stroke-width:0.5;" width="47.667" x="10" y="10"/><text fill="#000000" font-family="sans-serif" font-size="14" lengthAdjust="spacing" textLength="33.667" x="17" y="29.9951">Alice</text><rect fill="#E2E2F0" height="30.2969" rx="2.5" ry="2.5" style="stroke:#181818;stroke-width:0.5;" width="41.0566" x="68.7197" y="10"/><text fill="#000000" font-family="sans-serif" font-size="14" lengthAdjust="spacing" textLength="27.0566" x="75.7197" y="29.9951">Bob</text><rect fill="#E2E2F0" height="30.2969" rx="2.5" ry="2.5" style="stroke:#181818;stroke-width:0.5;" width="63.376" x="119.7764" y="10"/><text fill="#000000" font-family="sans-serif" font-size="14" lengthAdjust="spacing" textLength="49.376" x="126.7764" y="29.9951">Charlie</text><rect fill="#E2E2F0" height="30.2969" rx="2.5" ry="2.5" style="stroke:#181818;stroke-width:0.5;" width="47.667" x="10" y="88.4297"/><text fill="#000000" font-family="sans-serif" font-size="14" lengthAdjust="spacing" textLength="33.667" x="17" y="108.4248">Alice</text><rect fill="#E2E2F0" height="30.2969" rx="2.5" ry="2.5" style="stroke:#181818;stroke-width:0.5;" width="41.0566" x="68.7197" y="88.4297"/><text fill="#000000" font-family="sans-serif" font-size="14" lengthAdjust="spacing" textLength="27.0566" x="75.7197" y="108.4248">Bob</text><rect fill="#E2E2F0" height="30.2969" rx="2.5" ry="2.5" style="stroke:#181818;stroke-width:0.5;" width="63.376" x="119.7764" y="88.4297"/><text fill="#000000" font-family="sans-serif" font-size="14" lengthAdjust="spacing" textLength="49.376" x="126.7764" y="108.4248">Charlie</text><polygon fill="#181818" points="77.248,66.4297,87.248,70.4297,77.248,74.4297,81.248,70.4297" style="stroke:#181818;stroke-width:1;"/><line style="stroke:#181818;stroke-width:1;" x1="33.8335" x2="83.248" y1="70.4297" y2="70.4297"/><text fill="#000000" font-family="sans-serif" font-size="13" lengthAdjust="spacing" textLength="31.4146" x="40.8335" y="65.3638">hello</text><polygon fill="#181818" points="139.4644,66.4297,149.4644,70.4297,139.4644,74.4297,143.4644,70.4297" style="stroke:#181818;stroke-width:1;"/><line style="stroke:#181818;stroke-width:1;" x1="89.248" x2="145.4644" y1="70.4297" y2="70.4297"/><text fill="#000000" font-family="sans-serif" font-size="13" lengthAdjust="spacing" textLength="11.8511" x="96.248" y="65.3638">hi</text><?plantuml-src KomeIapFJLGeISslKYWfAatbSip9J4vLqBLJSCfFKh1Io4ZDoSddKWFpW8BE6Ob5EPcf88bC0000?></g></svg>