<svg xmlns="http://www.w3.org/2000/svg" xmlns:xlink="http://www.w3.org/1999/xlink" contentStyleType="text/css" data-diagram-type="SEQUENCE" height="285px" preserveAspectRatio="none" style="width:438px;height:285px;background:#FFFFFF;" version="1.1" viewBox="0 0 438 285" width="438px" zoomAndPan="magnify"><?plantuml 1.2026.3beta5?><defs/><g><g class="participant-lifeline" data-entity-uid="part1" data-qualified-name="Bob" data-source-line="1" id="part1-lifeline"><g><title>Bob</title><rect fill="#000000" fill-opacity="0.00000" height="177.8594" width="8" x="21.5283" y="53.2969"/><line style="stroke:#181818;stroke-width:0.5;stroke-dasharray:5,5;" x1="25" x2="25" y1="53.2969" y2="231.1563"/></g></g><g class="participant-lifeline" data-entity-uid="part2" data-qualified-name="Alice" data-source-line="1" id="part2-lifeline"><g><title>Alice</title><rect fill="#000000" fill-opacity="0.00000" height="177.8594" width="8" x="76.9429" y="53.2969"/><line style="stroke:#181818;stroke-width:0.5;stroke-dasharray:5,5;" x1="80.1094" x2="80.1094" y1="53.2969" y2="231.1563"/></g></g><g class="participant-lifeline" data-entity-uid="part3" data-qualified-name="Other" data-source-line="3" id="part3-lifeline"><g><title>Other</title><rect fill="#000000" fill-opacity="0.00000" height="108.0781" width="8" x="154.688" y="123.0781"/><line style="stroke:#181818;stroke-width:0.5;stroke-dasharray:5,5;" x1="157.8125" x2="157.8125" y1="123.0781" y2="231.1563"/></g></g><g class="participant-lifeline" data-entity-uid="part4" data-qualified-name="String" data-source-line="6" id="part4-lifeline"><g><title>String</title><rect fill="#000000" fill-opacity="0.00000" height="58.2813" width="8" x="215.4541" y="172.875"/><line style="stroke:#181818;stroke-width:0.5;stroke-dasharray:5,5;" x1="218.5635" x2="218.5635" y1="172.875" y2="231.1563"/></g></g><g class="participant participant-head" data-entity-uid="part1" data-qualified-name="Bob" data-source-line="1" id="part1-head"><rect fill="#E2E2F0" height="30.2969" rx="2.5" ry="2.5" style="stroke:#181818;stroke-width:0.5;" width="41.0566" x="5" y="22"/><text fill="#000000" font-family="sans-serif" font-size="14" lengthAdjust="spacing" textLength="27.0566" x="12" y="41.9951">Bob</text></g><g class="participant participant-tail" data-entity-uid="part1" data-qualified-name="Bob" data-source-line="1" id="part1-tail"><rect fill="#E2E2F0" height="30.2969" rx="2.5" ry="2.5" style="stroke:#181818;stroke-width:0.5;" width="41.0566" x="5" y="230.1563"/><text fill="#000000" font-family="sans-serif" font-size="14" lengthAdjust="spacing" textLength="27.0566" x="12" y="250.1514">Bob</text></g><g class="participant participant-head" data-entity-uid="part2" data-qualified-name="Alice" data-source-line="1" id="part2-head"><rect fill="#E2E2F0" height="30.2969" rx="2.5" ry="2.5" style="stroke:#181818;stroke-width:0.5;" width="47.667" x="57.1094" y="22"/><text fill="#000000" font-family="sans-serif" font-size="14" lengthAdjust="spacing" textLength="33.667" x="64.1094" y="41.9951">Alice</text></g><g class="participant participant-tail" data-entity-uid="part2" data-qualified-name="Alice" data-source-line="1" id="part2-tail"><rect fill="#E2E2F0" height="30.2969" rx="2.5" ry="2.5" style="stroke:#181818;stroke-width:0.5;" width="47.667" x="57.1094" y="230.1563"/><text fill="#000000" font-family="sans-serif" font-size="14" lengthAdjust="spacing" textLength="33.667" x="64.1094" y="250.1514">Alice</text></g><g class="participant participant-tail" data-entity-uid="part3" data-qualified-name="Other" data-source-line="3" id="part3-tail"><rect fill="#E2E2F0" height="30.2969" rx="2.5" ry="2.5" style="stroke:#181818;stroke-width:0.5;" width="53.751" x="131.8125" y="230.1563"/><text fill="#000000" font-family="sans-serif" font-size="14" lengthAdjust="spacing" textLength="39.751" x="138.8125" y="250.1514">Other</text></g><g class="participant participant-tail" data-entity-uid="part4" data-qualified-name="String" data-source-line="6" id="part4-tail"><text fill="#000000" font-family="sans-serif" font-size="14" lengthAdjust="spacing" textLength="41.7813" x="195.5635" y="243.1514">String</text><ellipse cx="219.4541" cy="262.4531" fill="#E2E2F0" rx="12" ry="12" style="stroke:#181818;stroke-width:0.5;"/><polygon fill="#181818" points="215.4541,250.4531,221.4541,245.4531,219.4541,250.4531,221.4541,255.4531,215.4541,250.4531" style="stroke:#181818;stroke-width:1;"/></g><g class="message" data-entity-1="part1" data-entity-2="part2" data-source-line="1" id="msg1"><polygon fill="#181818" points="68.9429,80.4297,78.9429,84.4297,68.9429,88.4297,72.9429,84.4297" style="stroke:#181818;stroke-width:1;"/><line style="stroke:#181818;stroke-width:1;" x1="25.5283" x2="74.9429" y1="84.4297" y2="84.4297"/><text fill="#000000" font-family="sans-serif" font-size="13" lengthAdjust="spacing" textLength="31.4146" x="32.5283" y="79.3638">hello</text></g><g class="message" data-entity-1="part2" data-entity-2="part3" data-source-line="4" id="msg2"><polygon fill="#181818" points="119.8125,109.5625,129.8125,113.5625,119.8125,117.5625,123.8125,113.5625" style="stroke:#181818;stroke-width:1;"/><line style="stroke:#181818;stroke-width:1;" x1="80.9429" x2="125.8125" y1="113.5625" y2="113.5625"/><text fill="#000000" font-family="sans-serif" font-size="13" lengthAdjust="spacing" textLength="26.8696" x="87.9429" y="108.4966">new</text></g><rect fill="#E2E2F0" height="30.2969" rx="2.5" ry="2.5" style="stroke:#181818;stroke-width:0.5;" width="53.751" x="131.8125" y="92.4297"/><text fill="#000000" font-family="sans-serif" font-size="14" lengthAdjust="spacing" textLength="39.751" x="138.8125" y="112.4248">Other</text><g class="message" data-entity-1="part2" data-entity-2="part4" data-source-line="7" id="msg4"><polygon fill="#181818" points="183.5635,135.7266,193.5635,139.7266,183.5635,143.7266,187.5635,139.7266" style="stroke:#181818;stroke-width:1;"/><line style="stroke:#181818;stroke-width:1;" x1="80.9429" x2="189.5635" y1="139.7266" y2="139.7266"/></g><text fill="#000000" font-family="sans-serif" font-size="14" lengthAdjust="spacing" textLength="41.7813" x="195.5635" y="178.7217">String</text><ellipse cx="219.4541" cy="149.7266" fill="#E2E2F0" rx="12" ry="12" style="stroke:#181818;stroke-width:0.5;"/><polygon fill="#181818" points="215.4541,137.7266,221.4541,132.7266,219.4541,137.7266,221.4541,142.7266,215.4541,137.7266" style="stroke:#181818;stroke-width:1;"/><path d="M247.8906,150.3086 L247.8906,175.3086 L421.8906,175.3086 L421.8906,160.3086 L411.8906,150.3086 L247.8906,150.3086" fill="#FEFFDD" style="stroke:#181818;stroke-width:0.5;"/><path d="M411.8906,150.3086 L411.8906,160.3086 L421.8906,160.3086 L411.8906,150.3086" fill="#FEFFDD" style="stroke:#181818;stroke-width:0.5;"/><text fill="#000000" font-family="sans-serif" font-size="13" lengthAdjust="spacing" textLength="153.1816" x="253.8906" y="167.3755">You can also put notes!</text><g class="message" data-entity-1="part2" data-entity-2="part1" data-source-line="10" id="msg7"><polygon fill="#181818" points="36.5283,209.1563,26.5283,213.1563,36.5283,217.1563,32.5283,213.1563" style="stroke:#181818;stroke-width:1;"/><line style="stroke:#181818;stroke-width:1;stroke-dasharray:2,2;" x1="30.5283" x2="79.9429" y1="213.1563" y2="213.1563"/><text fill="#000000" font-family="sans-serif" font-size="13" lengthAdjust="spacing" textLength="15.4819" x="42.5283" y="208.0903">ok</text></g><?plantuml-src HOux3eD030NxFSNB0RW01LAu04KgocLbiQjODZ96kNwSa4yvUZFI6tL1D-3AhH1wL6BMb8fHTiBabIoTMqXl34deyLEAYfioRcvDrh_xOT5mhAtLevlrGCc2pBjYEnolTR-aRnNP67TwwFq9?></g></svg>