<svg xmlns="http://www.w3.org/2000/svg" xmlns:xlink="http://www.w3.org/1999/xlink" contentStyleType="text/css" data-diagram-type="SEQUENCE" height="239px" preserveAspectRatio="none" style="width:258px;height:239px;background:#FFFFFF;" version="1.1" viewBox="0 0 258 239" width="258px" zoomAndPan="magnify"><?plantuml 1.2026.3beta5?><defs/><g><rect fill="#ADD8E6" height="213.2578" style="stroke:#181818;stroke-width:0.5;" width="162.2168" x="16" y="11"/><text fill="#000000" font-family="sans-serif" font-size="13" font-weight="700" lengthAdjust="spacing" textLength="116.5874" x="38.8147" y="23.0669">Internal Service</text><rect fill="#DDDDDD" height="193.125" style="stroke:#181818;stroke-width:0.5;" width="110.1074" x="68.1094" y="31.1328"/><text fill="#000000" font-family="sans-serif" font-size="13" font-weight="700" lengthAdjust="spacing" textLength="65.2729" x="90.5266" y="43.1997">Subteam</text><g><title>Bob</title><rect fill="#000000" fill-opacity="0.00000" height="105.3984" width="8" x="37.0283" y="81.5625"/><line style="stroke:#181818;stroke-width:0.5;stroke-dasharray:5,5;" x1="40.5283" x2="40.5283" y1="81.5625" y2="186.9609"/></g><g><title>Alice</title><rect fill="#000000" fill-opacity="0.00000" height="105.3984" width="8" x="92.4429" y="81.5625"/><line style="stroke:#181818;stroke-width:0.5;stroke-dasharray:5,5;" x1="95.9429" x2="95.9429" y1="81.5625" y2="186.9609"/></g><g><title>John</title><rect fill="#000000" fill-opacity="0.00000" height="105.3984" width="8" x="148.4966" y="81.5625"/><line style="stroke:#181818;stroke-width:0.5;stroke-dasharray:5,5;" x1="151.9966" x2="151.9966" y1="81.5625" y2="186.9609"/></g><g><title>Other</title><rect fill="#000000" fill-opacity="0.00000" height="105.3984" width="8" x="217.5923" y="81.5625"/><line style="stroke:#181818;stroke-width:0.5;stroke-dasharray:5,5;" x1="221.0923" x2="221.0923" y1="81.5625" y2="186.9609"/></g><rect fill="#E2E2F0" height="30.2969" rx="2.5" ry="2.5" style="stroke:#181818;stroke-width:0.5;" width="41.0566" x="20" y="50.2656"/><text fill="#000000" font-family="sans-serif" font-size="14" lengthAdjust="spacing" textLength="27.0566" x="27" y="70.2607">Bob</text><rect fill="#E2E2F0" height="30.2969" rx="2.5" ry="2.5" style="stroke:#181818;stroke-width:0.5;" width="47.667" x="72.1094" y="50.2656"/><text fill="#000000" font-family="sans-serif" font-size="14" lengthAdjust="spacing" textLength="33.667" x="79.1094" y="70.2607">Alice</text><rect fill="#E2E2F0" height="30.2969" rx="2.5" ry="2.5" style="stroke:#181818;stroke-width:0.5;" width="44.4404" x="129.7764" y="50.2656"/><text fill="#000000" font-family="sans-serif" font-size="14" lengthAdjust="spacing" textLength="30.4404" x="136.7764" y="70.2607">John</text><rect fill="#E2E2F0" height="30.2969" rx="2.5" ry="2.5" style="stroke:#181818;stroke-width:0.5;" width="53.751" x="194.2168" y="50.2656"/><text fill="#000000" font-family="sans-serif" font-size="14" lengthAdjust="spacing" textLength="39.751" x="201.2168" y="70.2607">Other</text><rect fill="#E2E2F0" height="30.2969" rx="2.5" ry="2.5" style="stroke:#181818;stroke-width:0.5;" width="41.0566" x="20" y="186.9609"/><text fill="#000000" font-family="sans-serif" font-size="14" lengthAdjust="spacing" textLength="27.0566" x="27" y="206.9561">Bob</text><rect fill="#E2E2F0" height="30.2969" rx="2.5" ry="2.5" style="stroke:#181818;stroke-width:0.5;" width="47.667" x="72.1094" y="186.9609"/><text fill="#000000" font-family="sans-serif" font-size="14" lengthAdjust="spacing" textLength="33.667" x="79.1094" y="206.9561">Alice</text><rect fill="#E2E2F0" height="30.2969" rx="2.5" ry="2.5" style="stroke:#181818;stroke-width:0.5;" width="44.4404" x="129.7764" y="186.9609"/><text fill="#000000" font-family="sans-serif" font-size="14" lengthAdjust="spacing" textLength="30.4404" x="136.7764" y="206.9561">John</text><rect fill="#E2E2F0" height="30.2969" rx="2.5" ry="2.5" style="stroke:#181818;stroke-width:0.5;" width="53.751" x="194.2168" y="186.9609"/><text fill="#000000" font-family="sans-serif" font-size="14" lengthAdjust="spacing" textLength="39.751" x="201.2168" y="206.9561">Other</text><polygon fill="#181818" points="83.9429,106.6953,93.9429,110.6953,83.9429,114.6953,87.9429,110.6953" style="stroke:#181818;stroke-width:1;"/><line style="stroke:#181818;stroke-width:1;" x1="40.5283" x2="89.9429" y1="110.6953" y2="110.6953"/><text fill="#000000" font-family="sans-serif" font-size="13" lengthAdjust="spacing" textLength="31.4146" x="47.5283" y="105.6294">hello</text><polygon fill="#181818" points="139.9966,135.8281,149.9966,139.8281,139.9966,143.8281,143.9966,139.8281" style="stroke:#181818;stroke-width:1;"/><line style="stroke:#181818;stroke-width:1;" x1="95.9429" x2="145.9966" y1="139.8281" y2="139.8281"/><text fill="#000000" font-family="sans-serif" font-size="13" lengthAdjust="spacing" textLength="31.4146" x="102.9429" y="134.7622">hello</text><polygon fill="#181818" points="209.0923,164.9609,219.0923,168.9609,209.0923,172.9609,213.0923,168.9609" style="stroke:#181818;stroke-width:1;"/><line style="stroke:#181818;stroke-width:1;" x1="151.9966" x2="215.0923" y1="168.9609" y2="168.9609"/><text fill="#000000" font-family="sans-serif" font-size="13" lengthAdjust="spacing" textLength="32.9507" x="158.9966" y="163.895">Hello</text><?plantuml-src LOn12i9034NtEKKSrrwW2y6kL0GNFK6cXix0TAQ4LCJJctQWs5t-ot__C0aD8w5o-QBApE3B1zqjAqkcX1tBE_RiyFY8Gz0sMMCYqTZ7YR9YMtmrkjahq-XstqioTqVk9MJW_4AJO3l-6qyDB00sZATpNS060wTKe2R3oyn6rs1mDHkyBl07?></g></svg>