<svg xmlns="http://www.w3.org/2000/svg" xmlns:xlink="http://www.w3.org/1999/xlink" contentStyleType="text/css" data-diagram-type="SEQUENCE" height="314px" preserveAspectRatio="none" style="width:168px;height:314px;background:#FFFFFF;" version="1.1" viewBox="0 0 168 314" width="168px" zoomAndPan="magnify"><?plantuml 1.2026.3beta5?><defs/><g><g class="participant-lifeline" data-entity-uid="part1" data-qualified-name="Alice" data-source-line="1" id="part1-lifeline"><g><title>Alice</title><rect fill="#000000" fill-opacity="0.00000" height="151.3047" width="8" x="24.8335" y="81.2969"/><line style="stroke:#181818;stroke-width:0.5;stroke-dasharray:5,5;" x1="28" x2="28" y1="81.2969" y2="232.6016"/></g></g><g class="participant-lifeline" data-entity-uid="part2" data-qualified-name="Bob" data-source-line="2" id="part2-lifeline"><g><title>Bob</title><rect fill="#000000" fill-opacity="0.00000" height="151.3047" width="8" x="80.248" y="81.2969"/><line style="stroke:#181818;stroke-width:0.5;stroke-dasharray:5,5;" x1="83.7197" x2="83.7197" y1="81.2969" y2="232.6016"/></g></g><g class="participant participant-head" data-entity-uid="part1" data-qualified-name="Alice" data-source-line="1" id="part1-head"><rect fill="#E2E2F0" height="30.2969" rx="2.5" ry="2.5" style="stroke:#181818;stroke-width:0.5;" width="47.667" x="5" y="50"/><text fill="#000000" font-family="sans-serif" font-size="14" lengthAdjust="spacing" textLength="33.667" x="12" y="69.9951">Alice</text></g><g class="participant participant-tail" data-entity-uid="part1" data-qualified-name="Alice" data-source-line="1" id="part1-tail"><rect fill="#E2E2F0" height="30.2969" rx="2.5" ry="2.5" style="stroke:#181818;stroke-width:0.5;" width="47.667" x="5" y="231.6016"/><text fill="#000000" font-family="sans-serif" font-size="14" lengthAdjust="spacing" textLength="33.667" x="12" y="251.5967">Alice</text></g><g class="participant participant-head" data-entity-uid="part2" data-qualified-name="Bob" data-source-line="2" id="part2-head"><text fill="#000000" font-family="sans-serif" font-size="14" lengthAdjust="spacing" textLength="27.0566" x="67.7197" y="77.9951">Bob</text><ellipse cx="84.248" cy="13.5" fill="#E2E2F0" rx="8" ry="8" style="stroke:#181818;stroke-width:0.5;"/><path d="M84.248,21.5 L84.248,48.5 M71.248,29.5 L97.248,29.5 M84.248,48.5 L71.248,63.5 M84.248,48.5 L97.248,63.5" fill="none" style="stroke:#181818;stroke-width:0.5;"/></g><g class="participant participant-tail" data-entity-uid="part2" data-qualified-name="Bob" data-source-line="2" id="part2-tail"><text fill="#000000" font-family="sans-serif" font-size="14" lengthAdjust="spacing" textLength="27.0566" x="67.7197" y="244.5967">Bob</text><ellipse cx="84.248" cy="256.3984" fill="#E2E2F0" rx="8" ry="8" style="stroke:#181818;stroke-width:0.5;"/><path d="M84.248,264.3984 L84.248,291.3984 M71.248,272.3984 L97.248,272.3984 M84.248,291.3984 L71.248,306.3984 M84.248,291.3984 L97.248,306.3984" fill="none" style="stroke:#181818;stroke-width:0.5;"/></g><rect fill="none" height="39.1016" style="stroke:#000000;stroke-width:1.5;" width="101.7764" x="2" y="91.2969"/><path d="M2,91.2969 L67,91.2969 L67,98.2969 L57,108.2969 L2,108.2969 L2,91.2969" fill="#EEEEEE" style="stroke:#000000;stroke-width:2;"/><text fill="#000000" font-family="sans-serif" font-size="13" font-weight="700" lengthAdjust="spacing" textLength="20.8838" x="15" y="105.3638">ref</text><text fill="#000000" font-family="sans-serif" font-size="12" lengthAdjust="spacing" textLength="18.9785" x="43.3989" y="123.4355">init</text><g class="message" data-entity-1="part1" data-entity-2="part2" data-source-line="6" id="msg1"><polygon fill="#181818" points="72.248,152.5313,82.248,156.5313,72.248,160.5313,76.248,156.5313" style="stroke:#181818;stroke-width:1;"/><line style="stroke:#181818;stroke-width:1;" x1="28.8335" x2="78.248" y1="156.5313" y2="156.5313"/><text fill="#000000" font-family="sans-serif" font-size="13" lengthAdjust="spacing" textLength="31.4146" x="35.8335" y="151.4653">hello</text></g><rect fill="none" height="53.0703" style="stroke:#000000;stroke-width:1.5;" width="95.4688" x="64.7197" y="164.5313"/><path d="M64.7197,164.5313 L129.7197,164.5313 L129.7197,171.5313 L119.7197,181.5313 L64.7197,181.5313 L64.7197,164.5313" fill="#EEEEEE" style="stroke:#000000;stroke-width:2;"/><text fill="#000000" font-family="sans-serif" font-size="13" font-weight="700" lengthAdjust="spacing" textLength="20.8838" x="77.7197" y="178.5981">ref</text><text fill="#000000" font-family="sans-serif" font-size="12" lengthAdjust="spacing" textLength="87.4688" x="68.7197" y="196.6699">This can be on</text><text fill="#000000" font-family="sans-serif" font-size="12" lengthAdjust="spacing" textLength="75.4629" x="74.7227" y="210.6387">several lines</text><?plantuml-src JSl12SCm34RXkwRu1qWNwA6Gp905P5SX0Y4PstJ-scqEkNwFLxXspLhOErRJBCIvHyKMYQZAWVX8_PTb8fvGrqxq8pnU5vvY5hTZ_i1-QaDcHnA43sWo8XjCNHg9lp6EBm00?></g></svg>