<svg xmlns="http://www.w3.org/2000/svg" xmlns:xlink="http://www.w3.org/1999/xlink" contentStyleType="text/css" data-diagram-type="SEQUENCE" height="192px" preserveAspectRatio="none" style="width:213px;height:192px;background:#FFFFFF;" version="1.1" viewBox="0 0 213 192" width="213px" zoomAndPan="magnify"><?plantuml 1.2026.3beta5?><defs/><g><g class="participant-lifeline" data-entity-uid="part1" data-qualified-name="Alice" data-source-line="1" id="part1-lifeline"><g><title>Alice</title><rect fill="#000000" fill-opacity="0.00000" height="119.3984" width="8" x="73.8335" y="36.2969"/><line style="stroke:#181818;stroke-width:0.5;stroke-dasharray:5,5;" x1="77" x2="77" y1="36.2969" y2="155.6953"/></g></g><g class="participant-lifeline" data-entity-uid="part2" data-qualified-name="Bob" data-source-line="2" id="part2-lifeline"><g><title>Bob</title><rect fill="#000000" fill-opacity="0.00000" height="119.3984" width="8" x="129.248" y="36.2969"/><line style="stroke:#181818;stroke-width:0.5;stroke-dasharray:5,5;" x1="132.7197" x2="132.7197" y1="36.2969" y2="155.6953"/></g></g><g class="participant participant-head" data-entity-uid="part1" data-qualified-name="Alice" data-source-line="1" id="part1-head"><rect fill="#E2E2F0" height="30.2969" rx="2.5" ry="2.5" style="stroke:#181818;stroke-width:0.5;" width="47.667" x="54" y="5"/><text fill="#000000" font-family="sans-serif" font-size="14" lengthAdjust="spacing" textLength="33.667" x="61" y="24.9951">Alice</text></g><g class="participant participant-tail" data-entity-uid="part1" data-qualified-name="Alice" data-source-line="1" id="part1-tail"><rect fill="#E2E2F0" height="30.2969" rx="2.5" ry="2.5" style="stroke:#181818;stroke-width:0.5;" width="47.667" x="54" y="154.6953"/><text fill="#000000" font-family="sans-serif" font-size="14" lengthAdjust="spacing" textLength="33.667" x="61" y="174.6904">Alice</text></g><g class="participant participant-head" data-entity-uid="part2" data-qualified-name="Bob" data-source-line="2" id="part2-head"><rect fill="#E2E2F0" height="30.2969" rx="2.5" ry="2.5" style="stroke:#181818;stroke-width:0.5;" width="41.0566" x="112.7197" y="5"/><text fill="#000000" font-family="sans-serif" font-size="14" lengthAdjust="spacing" textLength="27.0566" x="119.7197" y="24.9951">Bob</text></g><g class="participant participant-tail" data-entity-uid="part2" data-qualified-name="Bob" data-source-line="2" id="part2-tail"><rect fill="#E2E2F0" height="30.2969" rx="2.5" ry="2.5" style="stroke:#181818;stroke-width:0.5;" width="41.0566" x="112.7197" y="154.6953"/><text fill="#000000" font-family="sans-serif" font-size="14" lengthAdjust="spacing" textLength="27.0566" x="119.7197" y="174.6904">Bob</text></g><path d="M5,51.2969 L5,76.2969 L150,76.2969 L150,61.2969 L140,51.2969 L5,51.2969" fill="#FEFFDD" style="stroke:#181818;stroke-width:0.5;"/><path d="M140,51.2969 L140,61.2969 L150,61.2969 L140,51.2969" fill="#FEFFDD" style="stroke:#181818;stroke-width:0.5;"/><text fill="#000000" font-family="sans-serif" font-size="13" lengthAdjust="spacing" textLength="124.8711" x="11" y="68.3638">initial state of Alice</text><path d="M63,86.4297 L63,111.4297 L202,111.4297 L202,96.4297 L192,86.4297 L63,86.4297" fill="#FEFFDD" style="stroke:#181818;stroke-width:0.5;"/><path d="M192,86.4297 L192,96.4297 L202,96.4297 L192,86.4297" fill="#FEFFDD" style="stroke:#181818;stroke-width:0.5;"/><text fill="#000000" font-family="sans-serif" font-size="13" lengthAdjust="spacing" textLength="118.7329" x="69" y="103.4966">initial state of Bob</text><g class="message" data-entity-1="part2" data-entity-2="part1" data-source-line="3" id="msg1"><polygon fill="#181818" points="88.8335,133.6953,78.8335,137.6953,88.8335,141.6953,84.8335,137.6953" style="stroke:#181818;stroke-width:1;"/><line style="stroke:#181818;stroke-width:1;" x1="82.8335" x2="132.248" y1="137.6953" y2="137.6953"/><text fill="#000000" font-family="sans-serif" font-size="13" lengthAdjust="spacing" textLength="31.4146" x="94.8335" y="132.6294">hello</text></g><?plantuml-src oyilILN8BqijKd3CoKnELR1IoCpBBCbCp54eBaa4IQL19BZou0gTyfEmAGCASu6aTEtWHcMavkJa0m00?></g></svg>