<svg xmlns="http://www.w3.org/2000/svg" xmlns:xlink="http://www.w3.org/1999/xlink" contentStyleType="text/css" data-diagram-type="SEQUENCE" height="157px" preserveAspectRatio="none" style="width:311px;height:157px;background:#FFFFFF;" version="1.1" viewBox="0 0 311 157" width="311px" zoomAndPan="magnify"><?plantuml 1.2026.3beta5?><defs/><g><g class="participant-lifeline" data-entity-uid="part1" data-qualified-name="Alice" data-source-line="1" id="part1-lifeline"><g><title>Alice</title><rect fill="#000000" fill-opacity="0.00000" height="84.2656" width="8" x="73.9355" y="36.2969"/><line style="stroke:#181818;stroke-width:0.5;stroke-dasharray:5,5;" x1="77.1021" x2="77.1021" y1="36.2969" y2="120.5625"/></g></g><g class="participant-lifeline" data-entity-uid="part2" data-qualified-name="Bob" data-source-line="2" id="part2-lifeline"><g><title>Bob</title><rect fill="#000000" fill-opacity="0.00000" height="84.2656" width="8" x="226.7375" y="36.2969"/><line style="stroke:#181818;stroke-width:0.5;stroke-dasharray:5,5;" x1="230.2092" x2="230.2092" y1="36.2969" y2="120.5625"/></g></g><g class="participant participant-head" data-entity-uid="part1" data-qualified-name="Alice" data-source-line="1" id="part1-head"><rect fill="#E2E2F0" height="30.2969" rx="2.5" ry="2.5" style="stroke:#181818;stroke-width:0.5;" width="47.667" x="54.1021" y="5"/><text fill="#000000" font-family="sans-serif" font-size="14" lengthAdjust="spacing" textLength="33.667" x="61.1021" y="24.9951">Alice</text></g><g class="participant participant-tail" data-entity-uid="part1" data-qualified-name="Alice" data-source-line="1" id="part1-tail"><rect fill="#E2E2F0" height="30.2969" rx="2.5" ry="2.5" style="stroke:#181818;stroke-width:0.5;" width="47.667" x="54.1021" y="119.5625"/><text fill="#000000" font-family="sans-serif" font-size="14" lengthAdjust="spacing" textLength="33.667" x="61.1021" y="139.5576">Alice</text></g><g class="participant participant-head" data-entity-uid="part2" data-qualified-name="Bob" data-source-line="2" id="part2-head"><rect fill="#E2E2F0" height="30.2969" rx="2.5" ry="2.5" style="stroke:#181818;stroke-width:0.5;" width="41.0566" x="210.2092" y="5"/><text fill="#000000" font-family="sans-serif" font-size="14" lengthAdjust="spacing" textLength="27.0566" x="217.2092" y="24.9951">Bob</text></g><g class="participant participant-tail" data-entity-uid="part2" data-qualified-name="Bob" data-source-line="2" id="part2-tail"><rect fill="#E2E2F0" height="30.2969" rx="2.5" ry="2.5" style="stroke:#181818;stroke-width:0.5;" width="41.0566" x="210.2092" y="119.5625"/><text fill="#000000" font-family="sans-serif" font-size="14" lengthAdjust="spacing" textLength="27.0566" x="217.2092" y="139.5576">Bob</text></g><path d="M5,51.2969 L5,76.2969 L150,76.2969 L150,61.2969 L140,51.2969 L5,51.2969" fill="#FEFFDD" style="stroke:#181818;stroke-width:0.5;"/><path d="M140,51.2969 L140,61.2969 L150,61.2969 L140,51.2969" fill="#FEFFDD" style="stroke:#181818;stroke-width:0.5;"/><text fill="#000000" font-family="sans-serif" font-size="13" lengthAdjust="spacing" textLength="124.8711" x="11" y="68.3638">initial state of Alice</text><path d="M160,51.2969 L160,76.2969 L299,76.2969 L299,61.2969 L289,51.2969 L160,51.2969" fill="#FEFFDD" style="stroke:#181818;stroke-width:0.5;"/><path d="M289,51.2969 L289,61.2969 L299,61.2969 L289,51.2969" fill="#FEFFDD" style="stroke:#181818;stroke-width:0.5;"/><text fill="#000000" font-family="sans-serif" font-size="13" lengthAdjust="spacing" textLength="118.7329" x="166" y="68.3638">initial state of Bob</text><g class="message" data-entity-1="part2" data-entity-2="part1" data-source-line="3" id="msg1"><polygon fill="#181818" points="88.9355,98.5625,78.9355,102.5625,88.9355,106.5625,84.9355,102.5625" style="stroke:#181818;stroke-width:1;"/><line style="stroke:#181818;stroke-width:1;" x1="82.9355" x2="229.7375" y1="102.5625" y2="102.5625"/><text fill="#000000" font-family="sans-serif" font-size="13" lengthAdjust="spacing" textLength="31.4146" x="94.9355" y="97.4966">hello</text></g><?plantuml-src oyilILN8BqijKd3CoKnELR1IoCpBBCbCp54eBaa4IQL19BZq5VBWIftoax0f10fpWQHqxU26PQJcvEG30000?></g></svg>