<svg xmlns="http://www.w3.org/2000/svg" xmlns:xlink="http://www.w3.org/1999/xlink" contentStyleType="text/css" data-diagram-type="SEQUENCE" height="705px" preserveAspectRatio="none" style="width:183px;height:705px;background:#FFFFFF;" version="1.1" viewBox="0 0 183 705" width="183px" zoomAndPan="magnify"><?plantuml 1.2026.3beta5?><defs/><g><g class="participant-lifeline" data-entity-uid="part1" data-qualified-name="a" data-source-line="1" id="part1-lifeline"><g><title>Alice</title><rect fill="#000000" fill-opacity="0.00000" height="631.7891" width="8" x="24.8335" y="36.2969"/><line style="stroke:#181818;stroke-width:0.5;stroke-dasharray:5,5;" x1="28" x2="28" y1="36.2969" y2="668.0859"/></g></g><g class="participant-lifeline" data-entity-uid="part2" data-qualified-name="b" data-source-line="2" id="part2-lifeline"><g><title>Bob</title><rect fill="#000000" fill-opacity="0.00000" height="631.7891" width="8" x="148.2822" y="36.2969"/><line style="stroke:#181818;stroke-width:0.5;stroke-dasharray:5,5;" x1="151.7539" x2="151.7539" y1="36.2969" y2="668.0859"/></g></g><g class="participant participant-head" data-entity-uid="part1" data-qualified-name="a" data-source-line="1" id="part1-head"><rect fill="#E2E2F0" height="30.2969" rx="2.5" ry="2.5" style="stroke:#181818;stroke-width:0.5;" width="47.667" x="5" y="5"/><text fill="#000000" font-family="sans-serif" font-size="14" lengthAdjust="spacing" textLength="33.667" x="12" y="24.9951">Alice</text></g><g class="participant participant-tail" data-entity-uid="part1" data-qualified-name="a" data-source-line="1" id="part1-tail"><rect fill="#E2E2F0" height="30.2969" rx="2.5" ry="2.5" style="stroke:#181818;stroke-width:0.5;" width="47.667" x="5" y="667.0859"/><text fill="#000000" font-family="sans-serif" font-size="14" lengthAdjust="spacing" textLength="33.667" x="12" y="687.0811">Alice</text></g><g class="participant participant-head" data-entity-uid="part2" data-qualified-name="b" data-source-line="2" id="part2-head"><rect fill="#E2E2F0" height="30.2969" rx="2.5" ry="2.5" style="stroke:#181818;stroke-width:0.5;" width="41.0566" x="131.7539" y="5"/><text fill="#000000" font-family="sans-serif" font-size="14" lengthAdjust="spacing" textLength="27.0566" x="138.7539" y="24.9951">Bob</text></g><g class="participant participant-tail" data-entity-uid="part2" data-qualified-name="b" data-source-line="2" id="part2-tail"><rect fill="#E2E2F0" height="30.2969" rx="2.5" ry="2.5" style="stroke:#181818;stroke-width:0.5;" width="41.0566" x="131.7539" y="667.0859"/><text fill="#000000" font-family="sans-serif" font-size="14" lengthAdjust="spacing" textLength="27.0566" x="138.7539" y="687.0811">Bob</text></g><g class="message" data-entity-1="part1" data-entity-2="part2" data-source-line="3" id="msg1"><polygon fill="#181818" points="140.2822,63.4297,150.2822,67.4297,140.2822,71.4297,144.2822,67.4297" style="stroke:#181818;stroke-width:1;"/><line style="stroke:#181818;stroke-width:1;" x1="28.8335" x2="146.2822" y1="67.4297" y2="67.4297"/><text fill="#000000" font-family="sans-serif" font-size="13" font-style="italic" lengthAdjust="spacing" textLength="99.4487" x="35.8335" y="62.3638">Long long label</text></g><g class="message" data-entity-1="part1" data-entity-2="part1" data-source-line="4" id="msg2"><polygon fill="#181818" points="87.7935,92.5625,97.7935,96.5625,87.7935,100.5625,91.7935,96.5625" style="stroke:#181818;stroke-width:1;"/><line style="stroke:#181818;stroke-width:1;" x1="28.8335" x2="93.7935" y1="96.5625" y2="96.5625"/><text fill="#000000" font-family="monospace" font-size="13" lengthAdjust="spacing" textLength="23.48" x="35.8335" y="91.4966">-&gt;?</text></g><g class="message" data-entity-1="part1" data-entity-2="part1" data-source-line="5" id="msg3"><line style="stroke:#181818;stroke-width:1;" x1="97.7935" x2="87.7935" y1="125.6953" y2="121.6953"/><line style="stroke:#181818;stroke-width:1;" x1="97.7935" x2="87.7935" y1="125.6953" y2="129.6953"/><line style="stroke:#181818;stroke-width:1;" x1="28.8335" x2="98.7935" y1="125.6953" y2="125.6953"/><text fill="#000000" font-family="monospace" font-size="13" lengthAdjust="spacing" textLength="31.3066" x="35.8335" y="120.6294">-&gt;&gt;?</text></g><g class="message" data-entity-1="part1" data-entity-2="part1" data-source-line="6" id="msg4"><polygon fill="#181818" points="87.7935,150.8281,97.7935,154.8281,87.7935,154.8281" style="stroke:#181818;stroke-width:1;"/><line style="stroke:#181818;stroke-width:1;" x1="28.8335" x2="98.7935" y1="154.8281" y2="154.8281"/><text fill="#000000" font-family="monospace" font-size="13" lengthAdjust="spacing" textLength="23.48" x="35.8335" y="149.7622">-\?</text></g><g class="message" data-entity-1="part1" data-entity-2="part1" data-source-line="7" id="msg5"><line style="stroke:#181818;stroke-width:1;" x1="82.1401" x2="72.1401" y1="183.9609" y2="179.9609"/><line style="stroke:#181818;stroke-width:1;" x1="28.8335" x2="83.1401" y1="183.9609" y2="183.9609"/><text fill="#000000" font-family="monospace" font-size="13" lengthAdjust="spacing" textLength="31.3066" x="35.8335" y="178.895">-\\?</text></g><g class="message" data-entity-1="part1" data-entity-2="part1" data-source-line="8" id="msg6"><polygon fill="#181818" points="87.7935,213.0938,97.7935,213.0938,87.7935,217.0938" style="stroke:#181818;stroke-width:1;"/><line style="stroke:#181818;stroke-width:1;" x1="28.8335" x2="98.7935" y1="213.0938" y2="213.0938"/><text fill="#000000" font-family="monospace" font-size="13" lengthAdjust="spacing" textLength="23.48" x="35.8335" y="208.0278">-/?</text></g><g class="message" data-entity-1="part1" data-entity-2="part1" data-source-line="9" id="msg7"><line style="stroke:#181818;stroke-width:1;" x1="97.7935" x2="87.7935" y1="242.2266" y2="246.2266"/><line style="stroke:#181818;stroke-width:1;" x1="28.8335" x2="98.7935" y1="242.2266" y2="242.2266"/><text fill="#000000" font-family="monospace" font-size="13" lengthAdjust="spacing" textLength="31.3066" x="35.8335" y="237.1606">-//?</text></g><g class="message" data-entity-1="part1" data-entity-2="part1" data-source-line="10" id="msg8"><line style="stroke:#181818;stroke-width:2;" x1="81.7935" x2="91.7935" y1="266.3594" y2="276.3594"/><line style="stroke:#181818;stroke-width:2;" x1="81.7935" x2="91.7935" y1="276.3594" y2="266.3594"/><line style="stroke:#181818;stroke-width:1;" x1="28.8335" x2="86.7935" y1="271.3594" y2="271.3594"/><text fill="#000000" font-family="monospace" font-size="13" lengthAdjust="spacing" textLength="31.3066" x="35.8335" y="266.2935">-&gt;x?</text></g><g class="message" data-entity-1="part1" data-entity-2="part1" data-source-line="11" id="msg9"><line style="stroke:#181818;stroke-width:2;" x1="35.8335" x2="45.8335" y1="295.4922" y2="305.4922"/><line style="stroke:#181818;stroke-width:2;" x1="35.8335" x2="45.8335" y1="305.4922" y2="295.4922"/><polygon fill="#181818" points="87.7935,296.4922,97.7935,300.4922,87.7935,304.4922,91.7935,300.4922" style="stroke:#181818;stroke-width:1;"/><line style="stroke:#181818;stroke-width:1;" x1="40.8335" x2="93.7935" y1="300.4922" y2="300.4922"/><text fill="#000000" font-family="monospace" font-size="13" lengthAdjust="spacing" textLength="31.3066" x="45.8335" y="295.4263">x-&gt;?</text></g><g class="message" data-entity-1="part1" data-entity-2="part1" data-source-line="12" id="msg10"><ellipse cx="28.3335" cy="328.875" fill="#000000" rx="4" ry="4" style="stroke:#181818;stroke-width:1.5;"/><polygon fill="#181818" points="87.7935,325.625,97.7935,329.625,87.7935,333.625,91.7935,329.625" style="stroke:#181818;stroke-width:1;"/><line style="stroke:#181818;stroke-width:1;" x1="32.8335" x2="93.7935" y1="329.625" y2="329.625"/><text fill="#000000" font-family="monospace" font-size="13" lengthAdjust="spacing" textLength="31.3066" x="35.8335" y="324.5591">o-&gt;?</text></g><g class="message" data-entity-1="part1" data-entity-2="part1" data-source-line="13" id="msg11"><ellipse cx="107.2935" cy="358.0078" fill="#000000" rx="4" ry="4" style="stroke:#181818;stroke-width:1.5;"/><polygon fill="#181818" points="90.2935,354.7578,100.2935,358.7578,90.2935,362.7578,94.2935,358.7578" style="stroke:#181818;stroke-width:1;"/><line style="stroke:#181818;stroke-width:1;" x1="28.8335" x2="96.2935" y1="358.7578" y2="358.7578"/><text fill="#000000" font-family="monospace" font-size="13" lengthAdjust="spacing" textLength="31.3066" x="35.8335" y="353.6919">-&gt;o?</text></g><g class="message" data-entity-1="part1" data-entity-2="part1" data-source-line="14" id="msg12"><ellipse cx="28.3335" cy="387.1406" fill="#000000" rx="4" ry="4" style="stroke:#181818;stroke-width:1.5;"/><ellipse cx="107.2935" cy="387.1406" fill="#000000" rx="4" ry="4" style="stroke:#181818;stroke-width:1.5;"/><polygon fill="#181818" points="90.2935,383.8906,100.2935,387.8906,90.2935,391.8906,94.2935,387.8906" style="stroke:#181818;stroke-width:1;"/><line style="stroke:#181818;stroke-width:1;" x1="32.8335" x2="96.2935" y1="387.8906" y2="387.8906"/><text fill="#000000" font-family="monospace" font-size="13" lengthAdjust="spacing" textLength="39.1333" x="35.8335" y="382.8247">o-&gt;o?</text></g><g class="message" data-entity-1="part1" data-entity-2="part1" data-source-line="15" id="msg13"><polygon fill="#181818" points="39.8335,413.0234,29.8335,417.0234,39.8335,421.0234,35.8335,417.0234" style="stroke:#181818;stroke-width:1;"/><polygon fill="#181818" points="87.7935,413.0234,97.7935,417.0234,87.7935,421.0234,91.7935,417.0234" style="stroke:#181818;stroke-width:1;"/><line style="stroke:#181818;stroke-width:1;" x1="33.8335" x2="93.7935" y1="417.0234" y2="417.0234"/><text fill="#000000" font-family="monospace" font-size="13" lengthAdjust="spacing" textLength="31.3066" x="45.8335" y="411.9575">&lt;-&gt;?</text></g><g class="message" data-entity-1="part1" data-entity-2="part1" data-source-line="16" id="msg14"><ellipse cx="28.3335" cy="445.4063" fill="#000000" rx="4" ry="4" style="stroke:#181818;stroke-width:1.5;"/><polygon fill="#181818" points="45.3335,442.1563,35.3335,446.1563,45.3335,450.1563,41.3335,446.1563" style="stroke:#181818;stroke-width:1;"/><ellipse cx="107.2935" cy="445.4063" fill="#000000" rx="4" ry="4" style="stroke:#181818;stroke-width:1.5;"/><polygon fill="#181818" points="90.2935,442.1563,100.2935,446.1563,90.2935,450.1563,94.2935,446.1563" style="stroke:#181818;stroke-width:1;"/><line style="stroke:#181818;stroke-width:1;" x1="39.3335" x2="96.2935" y1="446.1563" y2="446.1563"/><text fill="#000000" font-family="monospace" font-size="13" lengthAdjust="spacing" textLength="46.96" x="45.8335" y="441.0903">o&lt;-&gt;o?</text></g><g class="message" data-entity-1="part1" data-entity-2="part1" data-source-line="17" id="msg15"><line style="stroke:#181818;stroke-width:2;" x1="35.8335" x2="45.8335" y1="470.2891" y2="480.2891"/><line style="stroke:#181818;stroke-width:2;" x1="35.8335" x2="45.8335" y1="480.2891" y2="470.2891"/><line style="stroke:#181818;stroke-width:2;" x1="81.7935" x2="91.7935" y1="470.2891" y2="480.2891"/><line style="stroke:#181818;stroke-width:2;" x1="81.7935" x2="91.7935" y1="480.2891" y2="470.2891"/><line style="stroke:#181818;stroke-width:1;" x1="40.8335" x2="86.7935" y1="475.2891" y2="475.2891"/><text fill="#000000" font-family="monospace" font-size="13" lengthAdjust="spacing" textLength="46.96" x="45.8335" y="470.2231">x&lt;-&gt;x?</text></g><g class="message" data-entity-1="part1" data-entity-2="part1" data-source-line="18" id="msg16"><ellipse cx="107.2935" cy="503.6719" fill="#000000" rx="4" ry="4" style="stroke:#181818;stroke-width:1.5;"/><line style="stroke:#181818;stroke-width:1;" x1="100.2935" x2="90.2935" y1="504.4219" y2="500.4219"/><line style="stroke:#181818;stroke-width:1;" x1="100.2935" x2="90.2935" y1="504.4219" y2="508.4219"/><line style="stroke:#181818;stroke-width:1;" x1="28.8335" x2="101.2935" y1="504.4219" y2="504.4219"/><text fill="#000000" font-family="monospace" font-size="13" lengthAdjust="spacing" textLength="39.1333" x="35.8335" y="499.356">-&gt;&gt;o?</text></g><g class="message" data-entity-1="part1" data-entity-2="part1" data-source-line="19" id="msg17"><ellipse cx="107.2935" cy="532.8047" fill="#000000" rx="4" ry="4" style="stroke:#181818;stroke-width:1.5;"/><polygon fill="#181818" points="90.2935,529.5547,100.2935,533.5547,90.2935,533.5547" style="stroke:#181818;stroke-width:1;"/><line style="stroke:#181818;stroke-width:1;" x1="28.8335" x2="101.2935" y1="533.5547" y2="533.5547"/><text fill="#000000" font-family="monospace" font-size="13" lengthAdjust="spacing" textLength="31.3066" x="35.8335" y="528.4888">-\o?</text></g><g class="message" data-entity-1="part1" data-entity-2="part1" data-source-line="20" id="msg18"><ellipse cx="99.4668" cy="561.9375" fill="#000000" rx="4" ry="4" style="stroke:#181818;stroke-width:1.5;"/><line style="stroke:#181818;stroke-width:1;" x1="92.4668" x2="82.4668" y1="562.6875" y2="558.6875"/><line style="stroke:#181818;stroke-width:1;" x1="28.8335" x2="93.4668" y1="562.6875" y2="562.6875"/><text fill="#000000" font-family="monospace" font-size="13" lengthAdjust="spacing" textLength="39.1333" x="35.8335" y="557.6216">-\\o?</text></g><g class="message" data-entity-1="part1" data-entity-2="part1" data-source-line="21" id="msg19"><ellipse cx="107.2935" cy="591.0703" fill="#000000" rx="4" ry="4" style="stroke:#181818;stroke-width:1.5;"/><polygon fill="#181818" points="90.2935,591.8203,100.2935,591.8203,90.2935,595.8203" style="stroke:#181818;stroke-width:1;"/><line style="stroke:#181818;stroke-width:1;" x1="28.8335" x2="101.2935" y1="591.8203" y2="591.8203"/><text fill="#000000" font-family="monospace" font-size="13" lengthAdjust="spacing" textLength="31.3066" x="35.8335" y="586.7544">-/o?</text></g><g class="message" data-entity-1="part1" data-entity-2="part1" data-source-line="22" id="msg20"><ellipse cx="107.2935" cy="620.2031" fill="#000000" rx="4" ry="4" style="stroke:#181818;stroke-width:1.5;"/><line style="stroke:#181818;stroke-width:1;" x1="100.2935" x2="90.2935" y1="620.9531" y2="624.9531"/><line style="stroke:#181818;stroke-width:1;" x1="28.8335" x2="101.2935" y1="620.9531" y2="620.9531"/><text fill="#000000" font-family="monospace" font-size="13" lengthAdjust="spacing" textLength="39.1333" x="35.8335" y="615.8872">-//o?</text></g><g class="message" data-entity-1="part1" data-entity-2="part1" data-source-line="23" id="msg21"><line style="stroke:#181818;stroke-width:2;" x1="35.8335" x2="45.8335" y1="645.0859" y2="655.0859"/><line style="stroke:#181818;stroke-width:2;" x1="35.8335" x2="45.8335" y1="655.0859" y2="645.0859"/><ellipse cx="107.2935" cy="649.3359" fill="#000000" rx="4" ry="4" style="stroke:#181818;stroke-width:1.5;"/><polygon fill="#181818" points="90.2935,646.0859,100.2935,650.0859,90.2935,654.0859,94.2935,650.0859" style="stroke:#181818;stroke-width:1;"/><line style="stroke:#181818;stroke-width:1;" x1="40.8335" x2="96.2935" y1="650.0859" y2="650.0859"/><text fill="#000000" font-family="monospace" font-size="13" lengthAdjust="spacing" textLength="39.1333" x="45.8335" y="645.02">x-&gt;o?</text></g><?plantuml-src JP0n2iCm34Ntd49u3zgBIMZd7i6B7K89X2Yq6NpynfADluV0VtwI5PtnUstBTiRZekU-BIl57yNX1FoIH5Hm6YAD4vMJw47CRpa-jEidfdLdLc5MunQSi-2SydfXl0JZ0VtG_H303_UPZJFwt7rcy3NKTpE-cnlF8ynZGRaWbyx7IR2FW6yNrR-3SezzFFJtjK1z3JQFhvFgF1hQtdf_2tK_E4-Gliy0VjcRjCLX0VS2PYZGq1RKUQu_zWS0?></g></svg>