<svg xmlns="http://www.w3.org/2000/svg" xmlns:xlink="http://www.w3.org/1999/xlink" contentStyleType="text/css" data-diagram-type="SEQUENCE" height="705px" preserveAspectRatio="none" style="width:183px;height:705px;background:#FFFFFF;" version="1.1" viewBox="0 0 183 705" width="183px" zoomAndPan="magnify"><?plantuml 1.2026.3beta5?><defs/><g><g class="participant-lifeline" data-entity-uid="part1" data-qualified-name="a" data-source-line="1" id="part1-lifeline"><g><title>Alice</title><rect fill="#000000" fill-opacity="0.00000" height="631.7891" width="8" x="24.8335" y="36.2969"/><line style="stroke:#181818;stroke-width:0.5;stroke-dasharray:5,5;" x1="28" x2="28" y1="36.2969" y2="668.0859"/></g></g><g class="participant-lifeline" data-entity-uid="part2" data-qualified-name="b" data-source-line="2" id="part2-lifeline"><g><title>Bob</title><rect fill="#000000" fill-opacity="0.00000" height="631.7891" width="8" x="148.2822" y="36.2969"/><line style="stroke:#181818;stroke-width:0.5;stroke-dasharray:5,5;" x1="151.7539" x2="151.7539" y1="36.2969" y2="668.0859"/></g></g><g class="participant participant-head" data-entity-uid="part1" data-qualified-name="a" data-source-line="1" id="part1-head"><rect fill="#E2E2F0" height="30.2969" rx="2.5" ry="2.5" style="stroke:#181818;stroke-width:0.5;" width="47.667" x="5" y="5"/><text fill="#000000" font-family="sans-serif" font-size="14" lengthAdjust="spacing" textLength="33.667" x="12" y="24.9951">Alice</text></g><g class="participant participant-tail" data-entity-uid="part1" data-qualified-name="a" data-source-line="1" id="part1-tail"><rect fill="#E2E2F0" height="30.2969" rx="2.5" ry="2.5" style="stroke:#181818;stroke-width:0.5;" width="47.667" x="5" y="667.0859"/><text fill="#000000" font-family="sans-serif" font-size="14" lengthAdjust="spacing" textLength="33.667" x="12" y="687.0811">Alice</text></g><g class="participant participant-head" data-entity-uid="part2" data-qualified-name="b" data-source-line="2" id="part2-head"><rect fill="#E2E2F0" height="30.2969" rx="2.5" ry="2.5" style="stroke:#181818;stroke-width:0.5;" width="41.0566" x="131.7539" y="5"/><text fill="#000000" font-family="sans-serif" font-size="14" lengthAdjust="spacing" textLength="27.0566" x="138.7539" y="24.9951">Bob</text></g><g class="participant participant-tail" data-entity-uid="part2" data-qualified-name="b" data-source-line="2" id="part2-tail"><rect fill="#E2E2F0" height="30.2969" rx="2.5" ry="2.5" style="stroke:#181818;stroke-width:0.5;" width="41.0566" x="131.7539" y="667.0859"/><text fill="#000000" font-family="sans-serif" font-size="14" lengthAdjust="spacing" textLength="27.0566" x="138.7539" y="687.0811">Bob</text></g><g class="message" data-entity-1="part1" data-entity-2="part2" data-source-line="3" id="msg1"><polygon fill="#181818" points="140.2822,63.4297,150.2822,67.4297,140.2822,71.4297,144.2822,67.4297" style="stroke:#181818;stroke-width:1;"/><line style="stroke:#181818;stroke-width:1;" x1="28.8335" x2="146.2822" y1="67.4297" y2="67.4297"/><text fill="#000000" font-family="sans-serif" font-size="13" font-style="italic" lengthAdjust="spacing" textLength="99.4487" x="35.8335" y="62.3638">Long long label</text></g><g class="message" data-entity-1="part2" data-entity-2="part2" data-source-line="4" id="msg2"><polygon fill="#181818" points="140.2822,92.5625,150.2822,96.5625,140.2822,100.5625,144.2822,96.5625" style="stroke:#181818;stroke-width:1;"/><line style="stroke:#181818;stroke-width:1;" x1="81.3223" x2="146.2822" y1="96.5625" y2="96.5625"/><text fill="#000000" font-family="monospace" font-size="13" lengthAdjust="spacing" textLength="23.48" x="88.3223" y="91.4966">?-&gt;</text></g><g class="message" data-entity-1="part2" data-entity-2="part2" data-source-line="5" id="msg3"><line style="stroke:#181818;stroke-width:1;" x1="150.2822" x2="140.2822" y1="125.6953" y2="121.6953"/><line style="stroke:#181818;stroke-width:1;" x1="150.2822" x2="140.2822" y1="125.6953" y2="129.6953"/><line style="stroke:#181818;stroke-width:1;" x1="81.3223" x2="151.2822" y1="125.6953" y2="125.6953"/><text fill="#000000" font-family="monospace" font-size="13" lengthAdjust="spacing" textLength="31.3066" x="88.3223" y="120.6294">?-&gt;&gt;</text></g><g class="message" data-entity-1="part2" data-entity-2="part2" data-source-line="6" id="msg4"><polygon fill="#181818" points="140.2822,150.8281,150.2822,154.8281,140.2822,154.8281" style="stroke:#181818;stroke-width:1;"/><line style="stroke:#181818;stroke-width:1;" x1="81.3223" x2="151.2822" y1="154.8281" y2="154.8281"/><text fill="#000000" font-family="monospace" font-size="13" lengthAdjust="spacing" textLength="23.48" x="88.3223" y="149.7622">?-\</text></g><g class="message" data-entity-1="part2" data-entity-2="part2" data-source-line="7" id="msg5"><line style="stroke:#181818;stroke-width:1;" x1="150.2822" x2="140.2822" y1="183.9609" y2="179.9609"/><line style="stroke:#181818;stroke-width:1;" x1="96.9756" x2="151.2822" y1="183.9609" y2="183.9609"/><text fill="#000000" font-family="monospace" font-size="13" lengthAdjust="spacing" textLength="31.3066" x="103.9756" y="178.895">?-\\</text></g><g class="message" data-entity-1="part2" data-entity-2="part2" data-source-line="8" id="msg6"><polygon fill="#181818" points="140.2822,213.0938,150.2822,213.0938,140.2822,217.0938" style="stroke:#181818;stroke-width:1;"/><line style="stroke:#181818;stroke-width:1;" x1="81.3223" x2="151.2822" y1="213.0938" y2="213.0938"/><text fill="#000000" font-family="monospace" font-size="13" lengthAdjust="spacing" textLength="23.48" x="88.3223" y="208.0278">?-/</text></g><g class="message" data-entity-1="part2" data-entity-2="part2" data-source-line="9" id="msg7"><line style="stroke:#181818;stroke-width:1;" x1="150.2822" x2="140.2822" y1="242.2266" y2="246.2266"/><line style="stroke:#181818;stroke-width:1;" x1="81.3223" x2="151.2822" y1="242.2266" y2="242.2266"/><text fill="#000000" font-family="monospace" font-size="13" lengthAdjust="spacing" textLength="31.3066" x="88.3223" y="237.1606">?-//</text></g><g class="message" data-entity-1="part2" data-entity-2="part2" data-source-line="10" id="msg8"><line style="stroke:#181818;stroke-width:2;" x1="134.2822" x2="144.2822" y1="266.3594" y2="276.3594"/><line style="stroke:#181818;stroke-width:2;" x1="134.2822" x2="144.2822" y1="276.3594" y2="266.3594"/><line style="stroke:#181818;stroke-width:1;" x1="81.3223" x2="139.2822" y1="271.3594" y2="271.3594"/><text fill="#000000" font-family="monospace" font-size="13" lengthAdjust="spacing" textLength="31.3066" x="88.3223" y="266.2935">?-&gt;x</text></g><g class="message" data-entity-1="part2" data-entity-2="part2" data-source-line="11" id="msg9"><line style="stroke:#181818;stroke-width:2;" x1="88.3223" x2="98.3223" y1="295.4922" y2="305.4922"/><line style="stroke:#181818;stroke-width:2;" x1="88.3223" x2="98.3223" y1="305.4922" y2="295.4922"/><polygon fill="#181818" points="140.2822,296.4922,150.2822,300.4922,140.2822,304.4922,144.2822,300.4922" style="stroke:#181818;stroke-width:1;"/><line style="stroke:#181818;stroke-width:1;" x1="93.3223" x2="146.2822" y1="300.4922" y2="300.4922"/><text fill="#000000" font-family="monospace" font-size="13" lengthAdjust="spacing" textLength="31.3066" x="98.3223" y="295.4263">?x-&gt;</text></g><g class="message" data-entity-1="part2" data-entity-2="part2" data-source-line="12" id="msg10"><ellipse cx="72.8223" cy="328.875" fill="#000000" rx="4" ry="4" style="stroke:#181818;stroke-width:1.5;"/><polygon fill="#181818" points="140.2822,325.625,150.2822,329.625,140.2822,333.625,144.2822,329.625" style="stroke:#181818;stroke-width:1;"/><line style="stroke:#181818;stroke-width:1;" x1="77.3223" x2="146.2822" y1="329.625" y2="329.625"/><text fill="#000000" font-family="monospace" font-size="13" lengthAdjust="spacing" textLength="31.3066" x="80.3223" y="324.5591">?o-&gt;</text></g><g class="message" data-entity-1="part2" data-entity-2="part2" data-source-line="13" id="msg11"><ellipse cx="151.7822" cy="358.0078" fill="#000000" rx="4" ry="4" style="stroke:#181818;stroke-width:1.5;"/><polygon fill="#181818" points="134.7822,354.7578,144.7822,358.7578,134.7822,362.7578,138.7822,358.7578" style="stroke:#181818;stroke-width:1;"/><line style="stroke:#181818;stroke-width:1;" x1="81.3223" x2="140.7822" y1="358.7578" y2="358.7578"/><text fill="#000000" font-family="monospace" font-size="13" lengthAdjust="spacing" textLength="31.3066" x="88.3223" y="353.6919">?-&gt;o</text></g><g class="message" data-entity-1="part2" data-entity-2="part2" data-source-line="14" id="msg12"><ellipse cx="72.8223" cy="387.1406" fill="#000000" rx="4" ry="4" style="stroke:#181818;stroke-width:1.5;"/><ellipse cx="151.7822" cy="387.1406" fill="#000000" rx="4" ry="4" style="stroke:#181818;stroke-width:1.5;"/><polygon fill="#181818" points="134.7822,383.8906,144.7822,387.8906,134.7822,391.8906,138.7822,387.8906" style="stroke:#181818;stroke-width:1;"/><line style="stroke:#181818;stroke-width:1;" x1="77.3223" x2="140.7822" y1="387.8906" y2="387.8906"/><text fill="#000000" font-family="monospace" font-size="13" lengthAdjust="spacing" textLength="39.1333" x="80.3223" y="382.8247">?o-&gt;o</text></g><g class="message" data-entity-1="part2" data-entity-2="part2" data-source-line="15" id="msg13"><polygon fill="#181818" points="92.3223,413.0234,82.3223,417.0234,92.3223,421.0234,88.3223,417.0234" style="stroke:#181818;stroke-width:1;"/><polygon fill="#181818" points="140.2822,413.0234,150.2822,417.0234,140.2822,421.0234,144.2822,417.0234" style="stroke:#181818;stroke-width:1;"/><line style="stroke:#181818;stroke-width:1;" x1="86.3223" x2="146.2822" y1="417.0234" y2="417.0234"/><text fill="#000000" font-family="monospace" font-size="13" lengthAdjust="spacing" textLength="31.3066" x="98.3223" y="411.9575">?&lt;-&gt;</text></g><g class="message" data-entity-1="part2" data-entity-2="part2" data-source-line="16" id="msg14"><ellipse cx="72.8223" cy="445.4063" fill="#000000" rx="4" ry="4" style="stroke:#181818;stroke-width:1.5;"/><polygon fill="#181818" points="89.8223,442.1563,79.8223,446.1563,89.8223,450.1563,85.8223,446.1563" style="stroke:#181818;stroke-width:1;"/><ellipse cx="151.7822" cy="445.4063" fill="#000000" rx="4" ry="4" style="stroke:#181818;stroke-width:1.5;"/><polygon fill="#181818" points="134.7822,442.1563,144.7822,446.1563,134.7822,450.1563,138.7822,446.1563" style="stroke:#181818;stroke-width:1;"/><line style="stroke:#181818;stroke-width:1;" x1="83.8223" x2="140.7822" y1="446.1563" y2="446.1563"/><text fill="#000000" font-family="monospace" font-size="13" lengthAdjust="spacing" textLength="46.96" x="90.3223" y="441.0903">?o&lt;-&gt;o</text></g><g class="message" data-entity-1="part2" data-entity-2="part2" data-source-line="17" id="msg15"><line style="stroke:#181818;stroke-width:2;" x1="88.3223" x2="98.3223" y1="470.2891" y2="480.2891"/><line style="stroke:#181818;stroke-width:2;" x1="88.3223" x2="98.3223" y1="480.2891" y2="470.2891"/><line style="stroke:#181818;stroke-width:2;" x1="134.2822" x2="144.2822" y1="470.2891" y2="480.2891"/><line style="stroke:#181818;stroke-width:2;" x1="134.2822" x2="144.2822" y1="480.2891" y2="470.2891"/><line style="stroke:#181818;stroke-width:1;" x1="93.3223" x2="139.2822" y1="475.2891" y2="475.2891"/><text fill="#000000" font-family="monospace" font-size="13" lengthAdjust="spacing" textLength="46.96" x="98.3223" y="470.2231">?x&lt;-&gt;x</text></g><g class="message" data-entity-1="part2" data-entity-2="part2" data-source-line="18" id="msg16"><ellipse cx="151.7822" cy="503.6719" fill="#000000" rx="4" ry="4" style="stroke:#181818;stroke-width:1.5;"/><line style="stroke:#181818;stroke-width:1;" x1="144.7822" x2="134.7822" y1="504.4219" y2="500.4219"/><line style="stroke:#181818;stroke-width:1;" x1="144.7822" x2="134.7822" y1="504.4219" y2="508.4219"/><line style="stroke:#181818;stroke-width:1;" x1="81.3223" x2="145.7822" y1="504.4219" y2="504.4219"/><text fill="#000000" font-family="monospace" font-size="13" lengthAdjust="spacing" textLength="39.1333" x="88.3223" y="499.356">?-&gt;&gt;o</text></g><g class="message" data-entity-1="part2" data-entity-2="part2" data-source-line="19" id="msg17"><ellipse cx="151.7822" cy="532.8047" fill="#000000" rx="4" ry="4" style="stroke:#181818;stroke-width:1.5;"/><polygon fill="#181818" points="134.7822,529.5547,144.7822,533.5547,134.7822,533.5547" style="stroke:#181818;stroke-width:1;"/><line style="stroke:#181818;stroke-width:1;" x1="81.3223" x2="145.7822" y1="533.5547" y2="533.5547"/><text fill="#000000" font-family="monospace" font-size="13" lengthAdjust="spacing" textLength="31.3066" x="88.3223" y="528.4888">?-\o</text></g><g class="message" data-entity-1="part2" data-entity-2="part2" data-source-line="20" id="msg18"><ellipse cx="151.7822" cy="561.9375" fill="#000000" rx="4" ry="4" style="stroke:#181818;stroke-width:1.5;"/><line style="stroke:#181818;stroke-width:1;" x1="144.7822" x2="134.7822" y1="562.6875" y2="558.6875"/><line style="stroke:#181818;stroke-width:1;" x1="81.3223" x2="145.7822" y1="562.6875" y2="562.6875"/><text fill="#000000" font-family="monospace" font-size="13" lengthAdjust="spacing" textLength="39.1333" x="88.3223" y="557.6216">?-\\o</text></g><g class="message" data-entity-1="part2" data-entity-2="part2" data-source-line="21" id="msg19"><ellipse cx="151.7822" cy="591.0703" fill="#000000" rx="4" ry="4" style="stroke:#181818;stroke-width:1.5;"/><polygon fill="#181818" points="134.7822,591.8203,144.7822,591.8203,134.7822,595.8203" style="stroke:#181818;stroke-width:1;"/><line style="stroke:#181818;stroke-width:1;" x1="81.3223" x2="145.7822" y1="591.8203" y2="591.8203"/><text fill="#000000" font-family="monospace" font-size="13" lengthAdjust="spacing" textLength="31.3066" x="88.3223" y="586.7544">?-/o</text></g><g class="message" data-entity-1="part2" data-entity-2="part2" data-source-line="22" id="msg20"><ellipse cx="151.7822" cy="620.2031" fill="#000000" rx="4" ry="4" style="stroke:#181818;stroke-width:1.5;"/><line style="stroke:#181818;stroke-width:1;" x1="144.7822" x2="134.7822" y1="620.9531" y2="624.9531"/><line style="stroke:#181818;stroke-width:1;" x1="81.3223" x2="145.7822" y1="620.9531" y2="620.9531"/><text fill="#000000" font-family="monospace" font-size="13" lengthAdjust="spacing" textLength="39.1333" x="88.3223" y="615.8872">?-//o</text></g><g class="message" data-entity-1="part2" data-entity-2="part2" data-source-line="23" id="msg21"><line style="stroke:#181818;stroke-width:2;" x1="88.3223" x2="98.3223" y1="645.0859" y2="655.0859"/><line style="stroke:#181818;stroke-width:2;" x1="88.3223" x2="98.3223" y1="655.0859" y2="645.0859"/><ellipse cx="151.7822" cy="649.3359" fill="#000000" rx="4" ry="4" style="stroke:#181818;stroke-width:1.5;"/><polygon fill="#181818" points="134.7822,646.0859,144.7822,650.0859,134.7822,654.0859,138.7822,650.0859" style="stroke:#181818;stroke-width:1;"/><line style="stroke:#181818;stroke-width:1;" x1="93.3223" x2="140.7822" y1="650.0859" y2="650.0859"/><text fill="#000000" font-family="monospace" font-size="13" lengthAdjust="spacing" textLength="39.1333" x="98.3223" y="645.02">?x-&gt;o</text></g><?plantuml-src NP2z2iCm38JtF8Nm7hGNuzBEVGGlTWWb47AXpP37R_rBhneC-doIZjl3wrYcPG_R8RTrcMO9Rmd3_eFlY289no78w2HLb8keFh0zPSrFYFEgEbphVnOOKrfZ4dVCNUMUzRxflMV-hSoLzThqgiortJtvxbduEPAVt2OEvcXyTE0zw7gm7fbRtcFxVbi6cZwrsOyjJfkVrDRSmBcXviD-F7fk-C-jJYXFA7fouEJG4W8dbFW7?></g></svg>