<svg xmlns="http://www.w3.org/2000/svg" xmlns:xlink="http://www.w3.org/1999/xlink" contentStyleType="text/css" data-diagram-type="SEQUENCE" height="387px" preserveAspectRatio="none" style="width:437px;height:387px;background:#EEEBDC;" version="1.1" viewBox="0 0 437 387" width="437px" zoomAndPan="magnify"><?plantuml 1.2026.3beta5?><defs/><g><rect fill="#EEEBDC" height="387" style="stroke:none;stroke-width:1;" width="437" x="0" y="0"/><polygon fill="#FFFFCC" points="5.5,8,5.5,8.2102,15.4157,7.5857,25.3314,8.1933,35.2471,8.3997,45.1629,7.2866,55.0786,7.9223,64.9943,7.5735,74.91,7.6165,84.8257,7.9318,94.7414,7.3086,104.6571,8.5536,114.5728,7.3697,124.4886,7.8022,134.4043,8.4319,144.32,7.9142,154.2357,8.0682,164.1514,7.9681,174.0671,8.1785,183.9828,8.2391,193.8986,8.5857,203.8143,8.6711,213.73,8.6793,223.6457,8.2546,233.5614,8.4636,243.4771,8.7022,253.3928,7.2788,263.3085,8.6785,273.2243,7.7035,283.14,8.5338,293.0557,7.505,302.9714,7.9315,312.8871,8.7416,322.8028,7.9513,332.7185,8.1053,342.6343,8.3386,352.55,8.4162,362.4657,7.9961,372.3814,8.2872,382.2971,7.4276,392.2128,8.2844,402.1285,8.5482,412.0442,8.4445,421.96,8,422.0382,8.1888,422.2519,7.9977,422.5839,8.092,422.9414,8.248,423.3667,8.5677,423.7277,8.7322,423.6672,8.7072,424.084,9.1727,423.9668,9.4171,424.0614,9.7491,424.3838,10.1756,424.46,10.5,424.2377,10.5,424.2869,12.8281,424.6763,15.1563,424.6052,17.4844,424.7048,19.8125,424.46,22.1406,424.3609,22.0996,424.4118,22.5349,424.3489,22.923,423.8751,23.141,423.8447,23.5426,423.7277,23.9084,423.7438,23.9472,423.4573,24.2556,423.0201,24.2,422.7261,24.4902,422.2429,24.3236,421.96,24.6406,421.96,23.9634,412.0442,25.1442,402.1285,23.9237,392.2128,25.1496,382.2971,24.8473,372.3814,24.3727,362.4657,24.2869,352.55,25.0994,342.6343,24.3413,332.7185,25.2325,322.8028,24.0879,312.8871,25.2581,302.9714,25.1249,293.0557,24.8856,283.14,24.6878,273.2243,25.3672,263.3085,25.2542,253.3928,24.8099,243.4771,24.9088,233.5614,24.5104,223.6457,25.3571,213.73,24.7955,203.8143,24.8132,193.8986,24.0323,183.9828,24.2354,174.0671,25.1714,164.1514,25.0704,154.2357,24.5977,144.32,24.3185,134.4043,24.4217,124.4886,23.9544,114.5728,25.0554,104.6571,25.3802,94.7414,25.167,84.8257,25.3356,74.91,24.5039,64.9943,24.7278,55.0786,24.253,45.1629,24.9247,35.2471,24.8874,25.3314,25.193,15.4157,24.411,5.5,24.6406,5.4829,24.5992,5.203,24.6307,4.8653,24.5224,4.374,24.0434,4.0611,23.9951,3.7322,23.9084,3.7782,23.9274,3.3977,23.4769,3.5482,23.2464,3.3723,22.8806,3.1154,22.4813,3,22.1406,3.0474,22.1406,3.2429,19.8125,2.8957,17.4844,3.105,15.1563,3.0952,12.8281,3,10.5,3.0357,10.5148,3.1898,10.1644,3.3278,9.8074,3.2471,9.3597,3.4624,9.0347,3.7322,8.7322,3.6734,8.5901,4.0939,8.6054,4.4506,8.4665,4.8135,8.3427,5.1093,8.0568,5.5,8" style="stroke:#FFDD88;stroke-width:3;"/><text fill="#000000" font-family="monospace" font-size="10" lengthAdjust="spacing" textLength="355.21" x="10" y="18.6406">Please&#160;use&#160;'!option&#160;handwritten&#160;true'&#160;to&#160;enable&#160;handwritten</text><g><title>First Class</title><polygon fill="#A9DCDF" points="105.3188,137.5625,105.3188,137.6326,107.3188,137.4244,109.3188,137.6269,111.3188,137.6957,113.3188,137.3247,115.3188,137.5625,115.2411,137.5625,114.8924,147.2734,114.9353,156.9844,115.2507,166.6953,114.6275,176.4063,115.8725,186.1172,114.6886,195.8281,115.1211,205.5391,115.7508,215.25,115.2331,224.9609,115.3871,234.6719,115.2869,244.3828,115.4974,254.0938,115.558,263.8047,115.9045,273.5156,115.3188,283.2266,115.3188,283.4502,113.3188,283.453,111.3188,283.3114,109.3188,283.3811,107.3188,283.4606,105.3188,283.2266,104.5977,283.2266,105.9974,273.5156,105.0223,263.8047,105.8527,254.0938,104.8238,244.3828,105.2503,234.6719,106.0605,224.9609,105.2701,215.25,105.4241,205.5391,105.6575,195.8281,105.7351,186.1172,105.3149,176.4063,105.6061,166.6953,104.7464,156.9844,105.6032,147.2734,105.3188,137.5625" style="stroke:#181818;stroke-width:1;"/></g><g><title>Second Class</title><polygon fill="#A9DCDF" points="248.5747,166.6953,248.5747,166.7654,250.5747,166.5572,252.5747,166.7597,254.5747,166.8285,256.5747,166.4575,258.5747,166.6953,258.497,166.6953,258.1482,176.4063,258.1912,186.1172,258.5066,195.8281,257.8833,205.5391,259.1283,215.25,257.9444,224.9609,258.3769,234.6719,259.0067,244.3828,258.5747,254.0938,258.5747,254.0652,256.5747,254.1165,254.5747,254.0831,252.5747,254.1533,250.5747,254.1735,248.5747,254.0938,249.1604,254.0938,249.2458,244.3828,249.254,234.6719,248.8293,224.9609,249.0383,215.25,249.2769,205.5391,247.8535,195.8281,249.2532,186.1172,248.2782,176.4063,248.5747,166.6953" style="stroke:#181818;stroke-width:1;"/></g><g><title>Last Class</title><polygon fill="#A9DCDF" points="371.6902,195.8281,371.6902,195.8982,373.6902,195.69,375.6902,195.8926,377.6902,195.9614,379.6902,195.5903,381.6902,195.8281,381.6643,195.8281,381.548,201.6547,381.5624,207.4813,381.6675,213.3078,381.4597,219.1344,381.6902,224.9609,381.6902,225.1455,379.6902,224.7508,377.6902,224.895,375.6902,225.1049,373.6902,224.9323,371.6902,224.9609,371.7129,224.9609,371.6795,219.1344,371.7497,213.3078,371.7699,207.4813,371.8854,201.6547,371.6902,195.8281" style="stroke:#181818;stroke-width:1;"/></g><g class="participant-lifeline" data-entity-uid="part1" data-qualified-name="User" data-source-line="22" id="part1-lifeline"><g><title>User</title><polygon fill="#000000" fill-opacity="0.00000" points="23.374,106.4297,23.374,106.4997,24.974,106.2916,26.574,106.4941,28.174,106.5629,29.774,106.1919,31.374,106.4297,31.2963,106.4297,30.9475,116.6822,30.9905,126.9346,31.3059,137.1871,30.6827,147.4396,31.9277,157.692,30.7437,167.9445,31.1763,178.197,31.806,188.4494,31.2882,198.7019,31.4423,208.9544,31.3421,219.2068,31.5525,229.4593,31.6132,239.7118,31.9597,249.9642,32.0451,260.2167,32.0533,270.4692,31.6287,280.7216,31.8376,290.9741,31.374,301.2266,31.374,301.4606,29.774,300.9862,28.174,301.4527,26.574,301.1277,24.974,301.4045,23.374,301.2266,22.879,301.2266,23.3055,290.9741,24.1156,280.7216,23.3253,270.4692,23.4793,260.2167,23.7127,249.9642,23.7903,239.7118,23.3701,229.4593,23.6612,219.2068,22.8016,208.9544,23.6584,198.7019,23.9222,188.4494,23.8186,178.197,23.987,167.9445,22.8909,157.692,22.7218,147.4396,22.7526,137.1871,23.3151,126.9346,23.1775,116.6822,23.374,106.4297"/><path d="M27,106.4297 L27.2802,106.4297 L26.4476,116.6822 L27.2577,126.9346 L27.5329,137.1871 L26.0488,147.4396 L26.8964,157.692 L26.4313,167.9445 L26.4887,178.197 L26.9091,188.4494 L26.0782,198.7019 L27.7382,208.9544 L26.1596,219.2068 L26.7363,229.4593 L27.5759,239.7118 L26.8856,249.9642 L27.091,260.2167 L26.9574,270.4692 L27.238,280.7216 L27.3188,290.9741 L27,301.2266" fill="none" style="stroke:#0000FF;stroke-width:0.5;stroke-dasharray:5,5;"/></g></g><g class="participant-lifeline" data-entity-uid="part2" data-qualified-name="A" data-source-line="23" id="part2-lifeline"><g><title>First Class</title><polygon fill="#000000" fill-opacity="0.00000" points="106.3188,106.4297,106.3188,106.4997,107.9188,106.2916,109.5188,106.4941,111.1188,106.5629,112.7188,106.1919,114.3188,106.4297,114.2411,106.4297,113.8924,116.6822,113.9353,126.9346,114.2507,137.1871,113.6275,147.4396,114.8725,157.692,113.6886,167.9445,114.1211,178.197,114.7508,188.4494,114.2331,198.7019,114.3871,208.9544,114.2869,219.2068,114.4974,229.4593,114.558,239.7118,114.9045,249.9642,114.9899,260.2167,114.9981,270.4692,114.5735,280.7216,114.7824,290.9741,114.3188,301.2266,114.3188,301.4606,112.7188,300.9862,111.1188,301.4527,109.5188,301.1277,107.9188,301.4045,106.3188,301.2266,105.8238,301.2266,106.2503,290.9741,107.0605,280.7216,106.2701,270.4692,106.4241,260.2167,106.6575,249.9642,106.7351,239.7118,106.3149,229.4593,106.6061,219.2068,105.7464,208.9544,106.6032,198.7019,106.867,188.4494,106.7634,178.197,106.9319,167.9445,105.8358,157.692,105.6667,147.4396,105.6974,137.1871,106.26,126.9346,106.1223,116.6822,106.3188,106.4297"/><path d="M109.748,106.4297 L110.0283,106.4297 L109.1956,116.6822 L110.0058,126.9346 L110.281,137.1871 L108.7969,147.4396 L109.6444,157.692 L109.1794,167.9445 L109.2367,178.197 L109.6572,188.4494 L108.8262,198.7019 L110.4862,208.9544 L108.9077,219.2068 L109.4844,229.4593 L110.324,239.7118 L109.6337,249.9642 L109.839,260.2167 L109.7055,270.4692 L109.9861,280.7216 L110.0669,290.9741 L109.748,301.2266" fill="none" style="stroke:#0000FF;stroke-width:0.5;stroke-dasharray:5,5;"/></g></g><g class="participant-lifeline" data-entity-uid="part3" data-qualified-name="B" data-source-line="24" id="part3-lifeline"><g><title>Second Class</title><polygon fill="#000000" fill-opacity="0.00000" points="249.5747,106.4297,249.5747,106.4997,251.1747,106.2916,252.7747,106.4941,254.3747,106.5629,255.9747,106.1919,257.5747,106.4297,257.497,106.4297,257.1482,116.6822,257.1912,126.9346,257.5066,137.1871,256.8833,147.4396,258.1283,157.692,256.9444,167.9445,257.3769,178.197,258.0067,188.4494,257.4889,198.7019,257.6429,208.9544,257.5428,219.2068,257.7532,229.4593,257.8138,239.7118,258.1604,249.9642,258.2458,260.2167,258.254,270.4692,257.8293,280.7216,258.0383,290.9741,257.5747,301.2266,257.5747,301.4606,255.9747,300.9862,254.3747,301.4527,252.7747,301.1277,251.1747,301.4045,249.5747,301.2266,249.0797,301.2266,249.5062,290.9741,250.3163,280.7216,249.526,270.4692,249.68,260.2167,249.9133,249.9642,249.9909,239.7118,249.5708,229.4593,249.8619,219.2068,249.0023,208.9544,249.8591,198.7019,250.1229,188.4494,250.0192,178.197,250.1877,167.9445,249.0916,157.692,248.9225,147.4396,248.9533,137.1871,249.5158,126.9346,249.3782,116.6822,249.5747,106.4297"/><path d="M253.229,106.4297 L253.5092,106.4297 L252.6766,116.6822 L253.4867,126.9346 L253.7619,137.1871 L252.2778,147.4396 L253.1254,157.692 L252.6603,167.9445 L252.7177,178.197 L253.1381,188.4494 L252.3072,198.7019 L253.9672,208.9544 L252.3886,219.2068 L252.9653,229.4593 L253.8049,239.7118 L253.1146,249.9642 L253.32,260.2167 L253.1864,270.4692 L253.467,280.7216 L253.5478,290.9741 L253.229,301.2266" fill="none" style="stroke:#0000FF;stroke-width:0.5;stroke-dasharray:5,5;"/></g></g><g class="participant-lifeline" data-entity-uid="part4" data-qualified-name="C" data-source-line="25" id="part4-lifeline"><g><title>Last Class</title><polygon fill="#000000" fill-opacity="0.00000" points="372.6902,106.4297,372.6902,106.4997,374.2902,106.2916,375.8902,106.4941,377.4902,106.5629,379.0902,106.1919,380.6902,106.4297,380.6125,106.4297,380.2637,116.6822,380.3067,126.9346,380.622,137.1871,379.9988,147.4396,381.2438,157.692,380.0599,167.9445,380.4924,178.197,381.1221,188.4494,380.6044,198.7019,380.7584,208.9544,380.6582,219.2068,380.8687,229.4593,380.9293,239.7118,381.2759,249.9642,381.3612,260.2167,381.3694,270.4692,380.9448,280.7216,381.1538,290.9741,380.6902,301.2266,380.6902,301.4606,379.0902,300.9862,377.4902,301.4527,375.8902,301.1277,374.2902,301.4045,372.6902,301.2266,372.1952,301.2266,372.6217,290.9741,373.4318,280.7216,372.6415,270.4692,372.7955,260.2167,373.0288,249.9642,373.1064,239.7118,372.6863,229.4593,372.9774,219.2068,372.1178,208.9544,372.9746,198.7019,373.2384,188.4494,373.1347,178.197,373.3032,167.9445,372.2071,157.692,372.038,147.4396,372.0688,137.1871,372.6313,126.9346,372.4937,116.6822,372.6902,106.4297"/><path d="M375.9204,106.4297 L376.2007,106.4297 L375.368,116.6822 L376.1781,126.9346 L376.4533,137.1871 L374.9692,147.4396 L375.8168,157.692 L375.3518,167.9445 L375.4091,178.197 L375.8295,188.4494 L374.9986,198.7019 L376.6586,208.9544 L375.08,219.2068 L375.6567,229.4593 L376.4963,239.7118 L375.806,249.9642 L376.0114,260.2167 L375.8778,270.4692 L376.1584,280.7216 L376.2393,290.9741 L375.9204,301.2266" fill="none" style="stroke:#0000FF;stroke-width:0.5;stroke-dasharray:5,5;"/></g></g><g class="participant participant-head" data-entity-uid="part1" data-qualified-name="User" data-source-line="22" id="part1-head"><text fill="#00BFFF" font-family="Aapex" font-size="17" lengthAdjust="spacing" textLength="38.748" x="5" y="102.4204">User</text><polygon fill="#00FFFF" points="35.4182,37.0865,34.2456,38.6888,32.8585,41.0357,30.8748,42.6173,28.7903,43.4822,27.1282,43.5572,24.992,42.4756,22.9763,41.7689,21.4464,40.3342,20.6439,38.6917,20.168,37.3839,19.7017,35.6757,18.9449,34.2057,19.5265,32.7704,20.036,31.1982,21.9481,29.9548,23.2933,28.3414,24.9583,27.8057,26.9377,27.3443,29.4761,27.6184,30.8664,28.2741,32.4829,28.5713,34.4483,30.585,35.1335,32.7108,35.4312,34.1612,35.094,36.5514" style="stroke:#00BFFF;stroke-width:0.5;"/><path d="M27.374,43.1406 L27.5609,43.1406 L27.0057,48.5406 L27.5458,53.9406 L27.7293,59.3406 L26.7399,64.7406 L27.374,70.1406 M14.374,51.1406 L14.374,51.0715 L19.574,50.7615 L24.774,50.7997 L29.974,51.08 L35.174,50.5261 L40.374,51.1406 M27.374,70.1406 L27.7459,70.4629 L24.3506,72.7737 L22.0412,76.0255 L19.8642,79.3921 L16.9164,82.0907 L14.374,85.1406 M27.374,70.1406 L27.4199,70.1804 L29.9526,73.122 L32.6939,76.2446 L35.3347,79.2798 L38.1674,82.4816 L40.374,85.1406" fill="none" style="stroke:#00BFFF;stroke-width:0.5;"/></g><g class="participant participant-tail" data-entity-uid="part1" data-qualified-name="User" data-source-line="22" id="part1-tail"><text fill="#00BFFF" font-family="Aapex" font-size="17" lengthAdjust="spacing" textLength="38.748" x="5" y="316.0063">User</text><polygon fill="#00FFFF" points="35.4182,330.4615,34.2456,332.0638,32.8585,334.4107,30.8748,335.9923,28.7903,336.8572,27.1282,336.9322,24.992,335.8506,22.9763,335.1439,21.4464,333.7092,20.6439,332.0667,20.168,330.7589,19.7017,329.0507,18.9449,327.5807,19.5265,326.1454,20.036,324.5732,21.9481,323.3298,23.2933,321.7164,24.9583,321.1807,26.9377,320.7193,29.4761,320.9934,30.8664,321.6491,32.4829,321.9463,34.4483,323.96,35.1335,326.0858,35.4312,327.5362,35.094,329.9264" style="stroke:#00BFFF;stroke-width:0.5;"/><path d="M27.374,336.5156 L27.5609,336.5156 L27.0057,341.9156 L27.5458,347.3156 L27.7293,352.7156 L26.7399,358.1156 L27.374,363.5156 M14.374,344.5156 L14.374,344.4465 L19.574,344.1365 L24.774,344.1747 L29.974,344.455 L35.174,343.9011 L40.374,344.5156 M27.374,363.5156 L27.7459,363.8379 L24.3506,366.1487 L22.0412,369.4005 L19.8642,372.7671 L16.9164,375.4657 L14.374,378.5156 M27.374,363.5156 L27.4199,363.5554 L29.9526,366.497 L32.6939,369.6196 L35.3347,372.6548 L38.1674,375.8566 L40.374,378.5156" fill="none" style="stroke:#00BFFF;stroke-width:0.5;"/></g><g class="participant participant-head" data-entity-uid="part2" data-qualified-name="A" data-source-line="23" id="part2-head"><polygon fill="#1E90FF" points="62.248,71.6406,62.248,71.8508,71.8622,71.2263,81.4764,71.8339,91.0905,72.0403,100.7047,70.9272,110.3188,71.5629,119.933,71.2141,129.5472,71.2571,139.1613,71.5725,148.7755,70.9493,158.3896,71.6406,158.4603,71.8111,158.6628,71.593,159.0715,71.8726,159.5054,72.213,159.7929,72.2,160.1574,72.3729,160.1784,72.3816,160.294,72.7223,160.5053,73.1027,160.6704,73.464,160.9236,73.8618,160.8896,74.1406,161.1133,74.1406,161.1161,79.8984,160.9745,85.6563,161.0442,91.4141,161.1237,97.1719,160.8896,102.9297,160.6676,102.8377,160.9522,103.3698,160.5054,103.599,160.6147,104.0584,160.1514,104.2808,160.1574,104.6975,160.1487,104.6764,159.8985,105.0723,159.4441,104.9753,159.1102,105.1692,158.7864,105.3875,158.3896,105.4297,158.3896,105.8459,148.7755,105.4258,139.1613,105.7169,129.5472,104.8573,119.933,105.7141,110.3188,105.9779,100.7047,105.8742,91.0905,106.0427,81.4764,104.9466,71.8622,104.7775,62.248,105.4297,62.1688,105.2383,61.887,105.2651,61.5159,105.0763,61.2743,105.2002,60.8116,104.7901,60.4803,104.6975,60.3746,104.6537,60.4041,104.373,59.982,103.9053,59.8811,103.5706,60.0943,103.366,59.748,102.9297,59.8933,102.9297,59.9929,97.1719,59.6408,91.4141,59.8544,85.6563,59.9449,79.8984,59.748,74.1406,59.6026,74.0804,59.865,73.7748,60.0797,73.4496,60.3881,73.1631,60.3325,72.7259,60.4803,72.3729,60.5393,72.5153,60.7632,72.0559,61.101,71.8714,61.6052,72.0886,61.803,71.5663,62.248,71.6406" style="stroke:#00BFFF;stroke-width:0.5;"/><text fill="#A9DCDF" font-family="Impact" font-size="17" lengthAdjust="spacing" textLength="87.1416" x="66.748" y="94.4204">First Class</text></g><g class="participant participant-tail" data-entity-uid="part2" data-qualified-name="A" data-source-line="23" id="part2-tail"><polygon fill="#1E90FF" points="62.248,300.2266,62.248,300.4367,71.8622,299.8122,81.4764,300.4198,91.0905,300.6262,100.7047,299.5132,110.3188,300.1488,119.933,299.8001,129.5472,299.8431,139.1613,300.1584,148.7755,299.5352,158.3896,300.2266,158.4603,300.3971,158.6628,300.1789,159.0715,300.4586,159.5054,300.7989,159.7929,300.7859,160.1574,300.9588,160.1784,300.9675,160.294,301.3083,160.5053,301.6887,160.6704,302.05,160.9236,302.4477,160.8896,302.7266,161.1133,302.7266,161.1161,308.4844,160.9745,314.2422,161.0442,320,161.1237,325.7578,160.8896,331.5156,160.6676,331.4236,160.9522,331.9557,160.5054,332.1849,160.6147,332.6444,160.1514,332.8667,160.1574,333.2834,160.1487,333.2623,159.8985,333.6582,159.4441,333.5613,159.1102,333.7552,158.7864,333.9735,158.3896,334.0156,158.3896,334.4319,148.7755,334.0117,139.1613,334.3028,129.5472,333.4432,119.933,334.3,110.3188,334.5638,100.7047,334.4602,91.0905,334.6286,81.4764,333.5325,71.8622,333.3634,62.248,334.0156,62.1688,333.8243,61.887,333.851,61.5159,333.6622,61.2743,333.7861,60.8116,333.376,60.4803,333.2834,60.3746,333.2396,60.4041,332.959,59.982,332.4912,59.8811,332.1565,60.0943,331.952,59.748,331.5156,59.8933,331.5156,59.9929,325.7578,59.6408,320,59.8544,314.2422,59.9449,308.4844,59.748,302.7266,59.6026,302.6663,59.865,302.3608,60.0797,302.0355,60.3881,301.749,60.3325,301.3118,60.4803,300.9588,60.5393,301.1012,60.7632,300.6418,61.101,300.4573,61.6052,300.6745,61.803,300.1522,62.248,300.2266" style="stroke:#00BFFF;stroke-width:0.5;"/><text fill="#A9DCDF" font-family="Impact" font-size="17" lengthAdjust="spacing" textLength="87.1416" x="66.748" y="323.0063">First Class</text></g><g class="participant participant-head" data-entity-uid="part3" data-qualified-name="B" data-source-line="24" id="part3-head"><polygon fill="#1E90FF" points="192.729,71.6406,192.729,71.8508,202.87,71.2263,213.0109,71.8339,223.1519,72.0403,233.2928,70.9272,243.4338,71.5629,253.5747,71.2141,263.7157,71.2571,273.8566,71.5725,283.9976,70.9493,294.1385,72.1943,304.2795,71.0103,314.4204,71.6406,314.3952,71.5797,314.8291,71.9201,315.1166,71.9071,315.4898,72.101,315.8305,72.2166,316.1882,72.3729,316.2432,72.3956,316.4083,72.7569,316.6614,73.1547,316.8342,73.5191,316.9831,73.8737,316.9204,74.1406,317.0053,74.1406,317.0749,79.8984,317.1545,85.6563,316.68,91.4141,317.1466,97.1719,316.9204,102.9297,316.8291,102.8919,316.9384,103.3513,316.4751,103.5736,316.46,103.9816,316.563,104.4385,316.1882,104.6975,316.182,104.6824,315.8481,104.8763,315.5243,105.0946,315.1806,105.265,314.7735,105.282,314.4204,105.4297,314.4204,105.7169,304.2795,104.8573,294.1385,105.7141,283.9976,105.9779,273.8566,105.8742,263.7157,106.0427,253.5747,104.9466,243.4338,104.7775,233.2928,104.8083,223.1519,105.3708,213.0109,105.2332,202.87,106.1111,192.729,105.4297,192.7067,105.3759,192.3317,105.1776,192.051,105.2071,191.5833,104.785,191.2486,104.684,190.9612,104.6975,191.1611,104.7802,190.949,104.3995,190.8945,104.084,190.4228,103.5957,190.4738,103.324,190.229,102.9297,190.4258,102.9297,190.0715,97.1719,190.1971,91.4141,190.271,85.6563,190.4463,79.8984,190.229,74.1406,190.2277,74.1401,190.5179,73.8461,190.3514,73.3629,190.4598,72.9936,190.9699,72.7907,190.9612,72.3729,190.8698,72.1521,191.3797,72.3832,191.6947,72.1436,191.9877,71.851,192.3303,71.6781,192.729,71.6406" style="stroke:#00BFFF;stroke-width:0.5;"/><text fill="#A9DCDF" font-family="Impact" font-size="17" lengthAdjust="spacing" textLength="112.6914" x="197.229" y="94.4204">Second Class</text></g><g class="participant participant-tail" data-entity-uid="part3" data-qualified-name="B" data-source-line="24" id="part3-tail"><polygon fill="#1E90FF" points="192.729,300.2266,192.729,300.4367,202.87,299.8122,213.0109,300.4198,223.1519,300.6262,233.2928,299.5132,243.4338,300.1488,253.5747,299.8001,263.7157,299.8431,273.8566,300.1584,283.9976,299.5352,294.1385,300.7802,304.2795,299.5963,314.4204,300.2266,314.3952,300.1657,314.8291,300.506,315.1166,300.493,315.4898,300.6869,315.8305,300.8025,316.1882,300.9588,316.2432,300.9816,316.4083,301.3429,316.6614,301.7406,316.8342,302.1051,316.9831,302.4597,316.9204,302.7266,317.0053,302.7266,317.0749,308.4844,317.1545,314.2422,316.68,320,317.1466,325.7578,316.9204,331.5156,316.8291,331.4778,316.9384,331.9373,316.4751,332.1596,316.46,332.5675,316.563,333.0244,316.1882,333.2834,316.182,333.2684,315.8481,333.4623,315.5243,333.6806,315.1806,333.8509,314.7735,333.868,314.4204,334.0156,314.4204,334.3028,304.2795,333.4432,294.1385,334.3,283.9976,334.5638,273.8566,334.4602,263.7157,334.6286,253.5747,333.5325,243.4338,333.3634,233.2928,333.3942,223.1519,333.9567,213.0109,333.8191,202.87,334.697,192.729,334.0156,192.7067,333.9618,192.3317,333.7635,192.051,333.793,191.5833,333.3709,191.2486,333.27,190.9612,333.2834,191.1611,333.3662,190.949,332.9854,190.8945,332.67,190.4228,332.1817,190.4738,331.9099,190.229,331.5156,190.4258,331.5156,190.0715,325.7578,190.1971,320,190.271,314.2422,190.4463,308.4844,190.229,302.7266,190.2277,302.726,190.5179,302.432,190.3514,301.9488,190.4598,301.5795,190.9699,301.3766,190.9612,300.9588,190.8698,300.738,191.3797,300.9691,191.6947,300.7295,191.9877,300.4369,192.3303,300.2641,192.729,300.2266" style="stroke:#00BFFF;stroke-width:0.5;"/><text fill="#A9DCDF" font-family="Impact" font-size="17" lengthAdjust="spacing" textLength="112.6914" x="197.229" y="323.0063">Second Class</text></g><g class="participant participant-head" data-entity-uid="part4" data-qualified-name="C" data-source-line="25" id="part4-head"><polygon fill="#1E90FF" points="329.4204,71.6406,329.4204,71.8508,339.9248,71.2263,350.4292,71.8339,360.9336,72.0403,371.438,70.9272,381.9424,71.5629,392.4468,71.2141,402.9512,71.2571,413.4556,71.5725,423.96,71.6406,423.8718,71.4277,424.3841,71.9576,424.5867,71.7394,424.9954,72.0191,425.4293,72.3594,425.7277,72.3729,425.7013,72.3619,425.8952,72.7351,426.0108,73.0759,426.222,73.4563,426.3872,73.8176,426.46,74.1406,426.6552,74.1406,426.6836,79.8984,426.6864,85.6563,426.5448,91.4141,426.6145,97.1719,426.46,102.9297,426.6762,103.0193,426.0914,103.1912,426.376,103.7233,425.9293,103.9525,426.0386,104.412,425.7277,104.6975,425.6646,104.545,425.3654,104.8228,425.1152,105.2187,424.6609,105.1218,424.3269,105.3157,423.96,105.4297,423.96,105.7683,413.4556,105.8459,402.9512,105.4258,392.4468,105.7169,381.9424,104.8573,371.438,105.7141,360.9336,105.9779,350.4292,105.8742,339.9248,106.0427,329.4204,105.4297,329.3588,105.2809,328.9837,105.0824,328.634,104.9454,328.3522,104.9722,327.9811,104.7834,327.6526,104.6975,327.8625,104.7844,327.4524,104.3216,327.2541,103.9466,327.2836,103.6659,326.8615,103.1982,326.9204,102.9297,326.7474,102.9297,327.1367,97.1719,327.0656,91.4141,327.1652,85.6563,326.8131,79.8984,326.9204,74.1406,327.0187,74.1813,327.2487,73.8624,327.0678,73.3733,327.3302,73.0677,327.545,72.7425,327.6526,72.3729,327.7358,72.5736,328.0057,72.2251,328.4188,72.2224,328.6427,71.763,328.9805,71.5785,329.4204,71.6406" style="stroke:#00BFFF;stroke-width:0.5;"/><text fill="#A9DCDF" font-family="Impact" font-size="17" lengthAdjust="spacing" textLength="85.5396" x="333.9204" y="94.4204">Last Class</text></g><g class="participant participant-tail" data-entity-uid="part4" data-qualified-name="C" data-source-line="25" id="part4-tail"><polygon fill="#1E90FF" points="329.4204,300.2266,329.4204,300.4367,339.9248,299.8122,350.4292,300.4198,360.9336,300.6262,371.438,299.5132,381.9424,300.1488,392.4468,299.8001,402.9512,299.8431,413.4556,300.1584,423.96,300.2266,423.8718,300.0136,424.3841,300.5435,424.5867,300.3254,424.9954,300.605,425.4293,300.9454,425.7277,300.9588,425.7013,300.9479,425.8952,301.3211,426.0108,301.6618,426.222,302.0422,426.3872,302.4035,426.46,302.7266,426.6552,302.7266,426.6836,308.4844,426.6864,314.2422,426.5448,320,426.6145,325.7578,426.46,331.5156,426.6762,331.6052,426.0914,331.7772,426.376,332.3093,425.9293,332.5385,426.0386,332.9979,425.7277,333.2834,425.6646,333.1309,425.3654,333.4087,425.1152,333.8047,424.6609,333.7077,424.3269,333.9016,423.96,334.0156,423.96,334.3543,413.4556,334.4319,402.9512,334.0117,392.4468,334.3028,381.9424,333.4432,371.438,334.3,360.9336,334.5638,350.4292,334.4602,339.9248,334.6286,329.4204,334.0156,329.3588,333.8669,328.9837,333.6683,328.634,333.5314,328.3522,333.5582,327.9811,333.3693,327.6526,333.2834,327.8625,333.3703,327.4524,332.9076,327.2541,332.5325,327.2836,332.2518,326.8615,331.7841,326.9204,331.5156,326.7474,331.5156,327.1367,325.7578,327.0656,320,327.1652,314.2422,326.8131,308.4844,326.9204,302.7266,327.0187,302.7673,327.2487,302.4483,327.0678,301.9592,327.3302,301.6537,327.545,301.3284,327.6526,300.9588,327.7358,301.1595,328.0057,300.8111,328.4188,300.8084,328.6427,300.3489,328.9805,300.1644,329.4204,300.2266" style="stroke:#00BFFF;stroke-width:0.5;"/><text fill="#A9DCDF" font-family="Impact" font-size="17" lengthAdjust="spacing" textLength="85.5396" x="333.9204" y="323.0063">Last Class</text></g><g><title>First Class</title><polygon fill="#A9DCDF" points="105.3188,137.5625,105.3188,137.6326,107.3188,137.4244,109.3188,137.6269,111.3188,137.6957,113.3188,137.3247,115.3188,137.5625,115.2411,137.5625,114.8924,147.2734,114.9353,156.9844,115.2507,166.6953,114.6275,176.4063,115.8725,186.1172,114.6886,195.8281,115.1211,205.5391,115.7508,215.25,115.2331,224.9609,115.3871,234.6719,115.2869,244.3828,115.4974,254.0938,115.558,263.8047,115.9045,273.5156,115.3188,283.2266,115.3188,283.4502,113.3188,283.453,111.3188,283.3114,109.3188,283.3811,107.3188,283.4606,105.3188,283.2266,104.5977,283.2266,105.9974,273.5156,105.0223,263.8047,105.8527,254.0938,104.8238,244.3828,105.2503,234.6719,106.0605,224.9609,105.2701,215.25,105.4241,205.5391,105.6575,195.8281,105.7351,186.1172,105.3149,176.4063,105.6061,166.6953,104.7464,156.9844,105.6032,147.2734,105.3188,137.5625" style="stroke:#181818;stroke-width:1;"/></g><g><title>Second Class</title><polygon fill="#A9DCDF" points="248.5747,166.6953,248.5747,166.7654,250.5747,166.5572,252.5747,166.7597,254.5747,166.8285,256.5747,166.4575,258.5747,166.6953,258.497,166.6953,258.1482,176.4063,258.1912,186.1172,258.5066,195.8281,257.8833,205.5391,259.1283,215.25,257.9444,224.9609,258.3769,234.6719,259.0067,244.3828,258.5747,254.0938,258.5747,254.0652,256.5747,254.1165,254.5747,254.0831,252.5747,254.1533,250.5747,254.1735,248.5747,254.0938,249.1604,254.0938,249.2458,244.3828,249.254,234.6719,248.8293,224.9609,249.0383,215.25,249.2769,205.5391,247.8535,195.8281,249.2532,186.1172,248.2782,176.4063,248.5747,166.6953" style="stroke:#181818;stroke-width:1;"/></g><g><title>Last Class</title><polygon fill="#A9DCDF" points="371.6902,195.8281,371.6902,195.8982,373.6902,195.69,375.6902,195.8926,377.6902,195.9614,379.6902,195.5903,381.6902,195.8281,381.6643,195.8281,381.548,201.6547,381.5624,207.4813,381.6675,213.3078,381.4597,219.1344,381.6902,224.9609,381.6902,225.1455,379.6902,224.7508,377.6902,224.895,375.6902,225.1049,373.6902,224.9323,371.6902,224.9609,371.7129,224.9609,371.6795,219.1344,371.7497,213.3078,371.7699,207.4813,371.8854,201.6547,371.6902,195.8281" style="stroke:#181818;stroke-width:1;"/></g><g class="message" data-entity-1="part1" data-entity-2="part2" data-source-line="27" id="msg1"><polygon fill="#00BFFF" points="93.3188,133.5625,93.3449,133.6275,95.2676,134.2343,97.3428,135.2223,99.3683,136.0862,101.2305,136.5417,103.3188,137.5625,103.3092,137.5384,101.266,138.2305,99.2714,139.0438,97.3104,139.9414,95.2333,140.5485,93.3188,141.5625,93.4493,141.693,93.9703,140.6139,94.8722,139.9159,95.8207,139.2643,96.4986,138.3423,97.3188,137.5625,97.3349,137.5786,96.5113,136.755,95.7609,136.0046,94.9752,135.2189,94.2569,134.5005,93.3188,133.5625" style="stroke:#00BFFF;stroke-width:1;"/><path d="M27.374,137.5625 L27.374,137.8427 L37.6519,137.0101 L47.9297,137.8202 L58.2075,138.0954 L68.4854,136.6113 L78.7632,137.4589 L89.041,136.9938 L99.3188,137.5625" fill="none" style="stroke:#00BFFF;stroke-width:1;"/><text fill="#000000" font-family="sans-serif" font-size="13" lengthAdjust="spacing" textLength="51.6445" x="34.374" y="132.4966">DoWork</text></g><g class="message" data-entity-1="part2" data-entity-2="part3" data-source-line="30" id="msg2"><polygon fill="#00BFFF" points="236.5747,162.6953,236.6007,162.7604,238.5234,163.3671,240.5986,164.3551,242.6242,165.219,244.4864,165.6745,246.5747,166.6953,246.5651,166.6713,244.5219,167.3633,242.5272,168.1766,240.5663,169.0742,238.4891,169.6813,236.5747,170.6953,236.7052,170.8258,237.2261,169.7468,238.1281,169.0487,239.0765,168.3971,239.7545,167.4751,240.5747,166.6953,240.5908,166.7114,239.7672,165.8878,239.0168,165.1374,238.2311,164.3517,237.5128,163.6334,236.5747,162.6953" style="stroke:#00BFFF;stroke-width:1;"/><path d="M115.3188,166.6953 L115.3188,166.9756 L125.1078,166.1429 L134.8967,166.953 L144.6856,167.2282 L154.4745,165.7441 L164.2634,166.5917 L174.0523,166.1267 L183.8412,166.184 L193.6301,166.6044 L203.4191,165.7735 L213.208,167.4335 L222.9969,165.8549 L232.7858,166.4316 L242.5747,166.6953" fill="none" style="stroke:#00BFFF;stroke-width:1;"/><text fill="#000000" font-family="sans-serif" font-size="13" lengthAdjust="spacing" textLength="101.0039" x="122.3188" y="161.6294">Create Request</text></g><g class="message" data-entity-1="part3" data-entity-2="part4" data-source-line="33" id="msg3"><polygon fill="#00BFFF" points="359.6902,191.8281,359.7162,191.8932,361.6389,192.4999,363.7141,193.4879,365.7397,194.3518,367.6019,194.8073,369.6902,195.8281,369.6806,195.8041,367.6374,196.4961,365.6427,197.3094,363.6817,198.207,361.6046,198.8142,359.6902,199.8281,359.8207,199.9586,360.3416,198.8796,361.2436,198.1815,362.192,197.5299,362.87,196.6079,363.6902,195.8281,363.7063,195.8442,362.8827,195.0206,362.1323,194.2702,361.3465,193.4845,360.6282,192.7662,359.6902,191.8281" style="stroke:#00BFFF;stroke-width:1;"/><path d="M258.5747,195.8281 L258.5747,196.1084 L268.3125,195.2757 L278.0502,196.0858 L287.788,196.361 L297.5258,194.8769 L307.2636,195.7245 L317.0013,195.2595 L326.7391,195.3168 L336.4769,195.7372 L346.2146,194.9063 L355.9524,196.5663 L365.6902,195.8281" fill="none" style="stroke:#00BFFF;stroke-width:1;"/><text fill="#000000" font-family="sans-serif" font-size="13" lengthAdjust="spacing" textLength="51.6445" x="265.5747" y="190.7622">DoWork</text></g><g class="message" data-entity-1="part4" data-entity-2="part3" data-source-line="35" id="msg4"><polygon fill="#00BFFF" points="269.5747,220.9609,269.6007,221.026,267.5234,221.6327,265.5986,222.6208,263.6242,223.4846,261.4864,223.9401,259.5747,224.9609,259.5651,224.9369,261.5219,225.6289,263.5272,226.4422,265.5663,227.3398,267.4891,227.947,269.5747,228.9609,269.7052,229.0914,268.6261,228.0124,267.9281,227.3143,267.2765,226.6627,266.3545,225.7407,265.5747,224.9609,265.5908,224.977,266.3672,224.1534,267.2168,223.403,268.0311,222.6173,268.9128,221.899,269.5747,220.9609" style="stroke:#00BFFF;stroke-width:1;"/><path d="M263.5747,224.9609 L263.5747,225.2412 L273.767,224.4085 L283.9593,225.2187 L294.1517,225.4938 L304.344,224.0097 L314.5363,224.8573 L324.7286,224.3923 L334.9209,224.4496 L345.1132,224.8701 L355.3056,224.0391 L365.4979,225.6991 L375.6902,224.9609" fill="none" style="stroke:#00BFFF;stroke-width:1;stroke-dasharray:2,2;"/><text fill="#000000" font-family="sans-serif" font-size="13" lengthAdjust="spacing" textLength="67.8818" x="275.5747" y="219.895">WorkDone</text></g><path d="M367.6902,215.9609 L367.7562,216.027 L371.16,219.4307 L374.9509,223.2217 L378.6158,226.8865 L381.866,230.1367 L385.6902,233.9609" fill="none" style="stroke:#0000FF;stroke-width:2;"/><path d="M367.6902,233.9609 L367.7562,234.027 L371.16,230.2307 L374.9509,226.8217 L378.6158,223.2865 L381.866,219.3367 L385.6902,215.9609" fill="none" style="stroke:#0000FF;stroke-width:2;"/><g class="message" data-entity-1="part3" data-entity-2="part2" data-source-line="38" id="msg5"><polygon fill="#00BFFF" points="126.3188,250.0938,126.3449,250.1588,124.2676,250.7655,122.3428,251.7536,120.3683,252.6174,118.2305,253.073,116.3188,254.0938,116.3092,254.0697,118.266,254.7618,120.2714,255.5751,122.3104,256.4727,124.2333,257.0798,126.3188,258.0938,126.4493,258.2242,125.3703,257.1452,124.6722,256.4471,124.0207,255.7956,123.0986,254.8735,122.3188,254.0938,122.3349,254.1098,123.1113,253.2862,123.9609,252.5358,124.7752,251.7501,125.6569,251.0318,126.3188,250.0938" style="stroke:#00BFFF;stroke-width:1;"/><path d="M120.3188,254.0938 L120.3188,254.374 L130.4924,253.5413 L140.6659,254.3515 L150.8394,254.6267 L161.013,253.1426 L171.1865,253.9901 L181.36,253.5251 L191.5335,253.5824 L201.7071,254.0029 L211.8806,253.1719 L222.0541,254.8319 L232.2277,253.2534 L242.4012,253.8301 L252.5747,254.0938" fill="none" style="stroke:#00BFFF;stroke-width:1;stroke-dasharray:2,2;"/><text fill="#000000" font-family="sans-serif" font-size="13" lengthAdjust="spacing" textLength="109.2559" x="132.3188" y="249.0278">Request Created</text></g><g class="message" data-entity-1="part2" data-entity-2="part1" data-source-line="41" id="msg6"><polygon fill="#00BFFF" points="38.374,279.2266,38.4,279.2916,36.3227,279.8983,34.398,280.8864,32.4235,281.7503,30.2857,282.2058,28.374,283.2266,28.3644,283.2025,30.3212,283.8946,32.3265,284.7079,34.3656,285.6055,36.2884,286.2126,38.374,287.2266,38.5045,287.3571,37.4255,286.278,36.7274,285.5799,36.0758,284.9284,35.1538,284.0063,34.374,283.2266,34.3901,283.2426,35.1665,282.419,36.0161,281.6686,36.8304,280.8829,37.7121,280.1646,38.374,279.2266" style="stroke:#00BFFF;stroke-width:1;"/><path d="M32.374,283.2266 L32.374,283.5068 L41.9921,282.6741 L51.6102,283.4843 L61.2283,283.7595 L70.8464,282.2754 L80.4645,283.1229 L90.0826,282.6579 L99.7007,282.7152 L109.3188,283.2266" fill="none" style="stroke:#00BFFF;stroke-width:1;stroke-dasharray:2,2;"/><text fill="#000000" font-family="sans-serif" font-size="13" lengthAdjust="spacing" textLength="34.2012" x="44.374" y="278.1606">Done</text></g><?plantuml-src TPBDJiCm48Jl-nIhSkw14w87fDXf9QGA8Ih4UPiinKfgfsk7KX3lJfnKpK_5TR_PcLdBlZ2s8g4zRYahTk9gcsjNEi6RvNAfKWt-elWWcn_5XC0MWzGC0-RvKBFD67yW4N77pYDbhZR5IPMDECc24-KaPxc6Q_FEQsDvoBSZC6sNtASwNG4yamIJcOfi-CzyA9dOf2xViKnLAsV34-qP7_SLPM6ADkQRyVPkEfuKw-wTvD6Xfexq6rUFDCou3De-2LNy1Ry05CVuwbcWwblWR6N41zGbUJz3yfYCyOOpP_C1LsE-fj6s1eWHE7_0PD6yrPkJ8aQRJmfDcUR6YDG2jN2SlCHFu4ClKG0gIlJrjWQDysuxWjHPXhnP5dUAkQg5JUhPynoHDvgXUzBAOicOq5hq_Vu0?></g></svg>