<svg xmlns="http://www.w3.org/2000/svg" xmlns:xlink="http://www.w3.org/1999/xlink" contentStyleType="text/css" data-diagram-type="SEQUENCE" height="210px" preserveAspectRatio="none" style="width:308px;height:210px;background:#FFFFFF;" version="1.1" viewBox="0 0 308 210" width="308px" zoomAndPan="magnify"><?plantuml 1.2026.3beta5?><defs/><g><g><title>A</title><rect fill="#000000" fill-opacity="0.00000" height="127.3984" width="8" x="18.2886" y="41.2969"/><line style="stroke:#181818;stroke-width:0.5;stroke-dasharray:5,5;" x1="21.7886" x2="21.7886" y1="41.2969" y2="168.6953"/></g><g><title>C</title><rect fill="#000000" fill-opacity="0.00000" height="127.3984" width="8" x="139.7632" y="41.2969"/><line style="stroke:#181818;stroke-width:0.5;stroke-dasharray:5,5;" x1="143.2632" x2="143.2632" y1="41.2969" y2="168.6953"/></g><g><title>B</title><rect fill="#000000" fill-opacity="0.00000" height="127.3984" width="8" x="282.2549" y="41.2969"/><line style="stroke:#181818;stroke-width:0.5;stroke-dasharray:5,5;" x1="285.7549" x2="285.7549" y1="41.2969" y2="168.6953"/></g><rect fill="#E2E2F0" height="30.2969" rx="2.5" ry="2.5" style="stroke:#181818;stroke-width:0.5;" width="23.5771" x="10" y="10"/><text fill="#000000" font-family="sans-serif" font-size="14" lengthAdjust="spacing" textLength="9.5771" x="17" y="29.9951">A</text><rect fill="#E2E2F0" height="30.2969" rx="2.5" ry="2.5" style="stroke:#181818;stroke-width:0.5;" width="23.7754" x="131.3755" y="10"/><text fill="#000000" font-family="sans-serif" font-size="14" lengthAdjust="spacing" textLength="9.7754" x="138.3755" y="29.9951">C</text><rect fill="#E2E2F0" height="30.2969" rx="2.5" ry="2.5" style="stroke:#181818;stroke-width:0.5;" width="23.6045" x="273.9526" y="10"/><text fill="#000000" font-family="sans-serif" font-size="14" lengthAdjust="spacing" textLength="9.6045" x="280.9526" y="29.9951">B</text><rect fill="#E2E2F0" height="30.2969" rx="2.5" ry="2.5" style="stroke:#181818;stroke-width:0.5;" width="23.5771" x="10" y="168.6953"/><text fill="#000000" font-family="sans-serif" font-size="14" lengthAdjust="spacing" textLength="9.5771" x="17" y="188.6904">A</text><rect fill="#E2E2F0" height="30.2969" rx="2.5" ry="2.5" style="stroke:#181818;stroke-width:0.5;" width="23.7754" x="131.3755" y="168.6953"/><text fill="#000000" font-family="sans-serif" font-size="14" lengthAdjust="spacing" textLength="9.7754" x="138.3755" y="188.6904">C</text><rect fill="#E2E2F0" height="30.2969" rx="2.5" ry="2.5" style="stroke:#181818;stroke-width:0.5;" width="23.6045" x="273.9526" y="168.6953"/><text fill="#000000" font-family="sans-serif" font-size="14" lengthAdjust="spacing" textLength="9.6045" x="280.9526" y="188.6904">B</text><polygon fill="#181818" points="133.5384,143.1901,141.2632,150.6953,130.4934,150.588,135.7148,148.4116" style="stroke:#181818;stroke-width:1;"/><line style="stroke:#181818;stroke-width:1;" x1="21.7886" x2="141.2632" y1="100.6953" y2="150.6953"/><text fill="#000000" font-family="sans-serif" font-size="13" lengthAdjust="spacing" textLength="38.5303" x="28.7886" y="80.4966">Starts</text><text fill="#000000" font-family="sans-serif" font-size="13" lengthAdjust="spacing" textLength="97.4746" x="28.7886" y="95.6294">when 'B' sends</text><polygon fill="#181818" points="153.4215,120.0274,144.2632,125.6953,154.804,127.907,150.1729,124.6585" style="stroke:#181818;stroke-width:1;"/><line style="stroke:#181818;stroke-width:1;" x1="284.7549" x2="143.2632" y1="100.6953" y2="125.6953"/><text fill="#000000" font-family="sans-serif" font-size="13" lengthAdjust="spacing" textLength="4.1323" x="160.2632" y="65.3638">&#160;</text><text fill="#000000" font-family="sans-serif" font-size="13" lengthAdjust="spacing" textLength="108.2085" x="160.2632" y="80.4966">But B's message</text><text fill="#000000" font-family="sans-serif" font-size="13" lengthAdjust="spacing" textLength="114.3594" x="164.3955" y="95.6294">arrives before A's</text><?plantuml-src 7Sen3e9040NGdbDy6rOB4c92Os72SWJQRSRu1Gi6CpDWukcDlleTNYRJ8WYk7uHjh7eqrsFNdZ1SC8POUD7tJ4NA2KwzUrKZ_zAv-wUYUGlav5ZeBXEBGioUEnqtFbOZ-kHV?></g></svg>