<svg xmlns="http://www.w3.org/2000/svg" width="640.0" height="120160.0">
  <g stroke="#333333" fill="none" stroke-width="1.5">
    <path d="M 400.0 120.0 C 400.0 59920.0, 400.0 59920.0, 400.0 119720.0" stroke="#333333" fill="none"/>
    <polygon points="396.0,119714.0 404.0,119714.0 400.0,119720.0" fill="#333333" stroke="none"/>
    <path d="M 400.0 119760.0 C 400.0 119800.0, 260.0 119800.0, 260.0 119840.0" stroke="#333333" fill="none"/>
    <polygon points="256.0,119834.0 264.0,119834.0 260.0,119840.0" fill="#333333" stroke="none"/>
    <path d="M 260.0 119880.0 C 260.0 119920.0, 260.0 119920.0, 260.0 119960.0" stroke="#333333" fill="none"/>
    <polygon points="256.0,119954.0 264.0,119954.0 260.0,119960.0" fill="#333333" stroke="none"/>
    <path d="M 260.0 120000.0 C 260.0 120040.0, 400.0 120040.0, 400.0 120080.0" stroke="#333333" fill="none"/>
    <polygon points="396.0,120074.0 404.0,120074.0 400.0,120080.0" fill="#333333" stroke="none"/>
    <path d="M 400.0 120120.0 C 400.0 119920.0, 400.0 119920.0, 400.0 119720.0" stroke="#333333" fill="none"/>
    <polygon points="396.0,119714.0 404.0,119714.0 400.0,119720.0" fill="#333333" stroke="none"/>
    <path d="M 400.0 119760.0 C 400.0 119800.0, 540.0 119800.0, 540.0 119840.0" stroke="#333333" fill="none"/>
    <polygon points="536.0,119834.0 544.0,119834.0 540.0,119840.0" fill="#333333" stroke="none"/>
    <path d="M 540.0 119880.0 C 540.0 119920.0, 540.0 119920.0, 540.0 119960.0" stroke="#333333" fill="none"/>
    <polygon points="536.0,119954.0 544.0,119954.0 540.0,119960.0" fill="#333333" stroke="none"/>
  </g>
  <g font-family="sans-serif" font-size="14" text-anchor="middle">
    <rect x="340.0" y="80.0" width="120.0" height="40.0" rx="0" ry="0" fill="#f0f0f0" stroke="#333333" stroke-width="1.5"/>
    <text x="400.0" y="100.0" dy="5" fill="#000000">legacy</text>
    <circle cx="400.0" cy="119740.0" r="15" fill="#f0f0f0" stroke="#333333" stroke-width="2"/>
    <text x="400.0" y="119740.0" dy="5" fill="#000000">10</text>
    <rect x="200.0" y="119840.0" width="120.0" height="40.0" rx="0" ry="0" fill="#f0f0f0" stroke="#333333" stroke-width="1.5"/>
    <text x="260.0" y="119860.0" dy="5" fill="#000000">legacy</text>
    <rect x="200.0" y="119960.0" width="120.0" height="40.0" rx="10" ry="10" fill="#f0f0f0" stroke="#333333" stroke-width="1.5"/>
    <text x="260.0" y="119980.0" dy="5" fill="#000000">text10</text>
    <rect x="340.0" y="120080.0" width="120.0" height="40.0" rx="0" ry="0" fill="#f0f0f0" stroke="#333333" stroke-width="1.5"/>
    <text x="400.0" y="120100.0" dy="5" fill="#000000">legacy</text>
    <rect x="480.0" y="119840.0" width="120.0" height="40.0" rx="0" ry="0" fill="#f0f0f0" stroke="#333333" stroke-width="1.5"/>
    <text x="540.0" y="119860.0" dy="5" fill="#000000">legacy</text>
    <rect x="480.0" y="119960.0" width="120.0" height="40.0" rx="10" ry="10" fill="#f0f0f0" stroke="#333333" stroke-width="1.5"/>
    <text x="540.0" y="119980.0" dy="5" fill="#000000">text10</text>
  </g>
</svg>
