<svg xmlns="http://www.w3.org/2000/svg" xmlns:xlink="http://www.w3.org/1999/xlink" contentStyleType="text/css" data-diagram-type="SEQUENCE" height="256px" preserveAspectRatio="none" style="width:255px;height:256px;background:#FFFFFF;" version="1.1" viewBox="0 0 255 256" width="255px" zoomAndPan="magnify"><?plantuml 1.2026.3beta5?><defs/><g><g><title>S1</title><rect fill="#000000" fill-opacity="0.00000" height="172.5313" width="8" x="91.8613" y="41.2969"/><line style="stroke:#181818;stroke-width:0.5;stroke-dasharray:5,5;" x1="95.3613" x2="95.3613" y1="41.2969" y2="213.8281"/></g><g><title>S2</title><rect fill="#000000" fill-opacity="0.00000" height="172.5313" width="8" x="155.9531" y="41.2969"/><line style="stroke:#181818;stroke-width:0.5;stroke-dasharray:5,5;" x1="159.4531" x2="159.4531" y1="41.2969" y2="213.8281"/></g><rect fill="#E2E2F0" height="30.2969" rx="2.5" ry="2.5" style="stroke:#181818;stroke-width:0.5;" width="31.7939" x="79.4644" y="10"/><text fill="#000000" font-family="sans-serif" font-size="14" lengthAdjust="spacing" textLength="17.7939" x="86.4644" y="29.9951">S1</text><rect fill="#E2E2F0" height="30.2969" rx="2.5" ry="2.5" style="stroke:#181818;stroke-width:0.5;" width="31.7939" x="143.5562" y="10"/><text fill="#000000" font-family="sans-serif" font-size="14" lengthAdjust="spacing" textLength="17.7939" x="150.5562" y="29.9951">S2</text><rect fill="#E2E2F0" height="30.2969" rx="2.5" ry="2.5" style="stroke:#181818;stroke-width:0.5;" width="31.7939" x="79.4644" y="213.8281"/><text fill="#000000" font-family="sans-serif" font-size="14" lengthAdjust="spacing" textLength="17.7939" x="86.4644" y="233.8232">S1</text><rect fill="#E2E2F0" height="30.2969" rx="2.5" ry="2.5" style="stroke:#181818;stroke-width:0.5;" width="31.7939" x="143.5562" y="213.8281"/><text fill="#000000" font-family="sans-serif" font-size="14" lengthAdjust="spacing" textLength="17.7939" x="150.5562" y="233.8232">S2</text><polygon fill="#181818" points="150.0919,107.7004,157.4531,115.5625,146.7005,114.9459,152.019,113.0189" style="stroke:#181818;stroke-width:1;"/><line style="stroke:#181818;stroke-width:1;" x1="95.3613" x2="157.4531" y1="85.5625" y2="115.5625"/><text fill="#000000" font-family="sans-serif" font-size="13" lengthAdjust="spacing" textLength="40.0918" x="102.3613" y="65.3638">msg 1</text><text fill="#000000" font-family="sans-serif" font-size="13" lengthAdjust="spacing" textLength="4.1323" x="102.3613" y="80.4966">&#160;</text><polygon fill="#181818" points="103.7225,107.7004,96.3613,115.5625,107.114,114.9459,101.7955,113.0189" style="stroke:#181818;stroke-width:1;"/><line style="stroke:#181818;stroke-width:1;" x1="158.4531" x2="95.3613" y1="85.5625" y2="115.5625"/><text fill="#000000" font-family="sans-serif" font-size="13" lengthAdjust="spacing" textLength="40.0918" x="112.3613" y="80.4966">msg 2</text><path d="M15,158.5625 L15,198.5625 L90,198.5625 L90,168.5625 L80,158.5625 L15,158.5625" fill="#FEFFDD" style="stroke:#181818;stroke-width:0.5;"/><path d="M80,158.5625 L80,168.5625 L90,168.5625 L80,158.5625" fill="#FEFFDD" style="stroke:#181818;stroke-width:0.5;"/><text fill="#000000" font-family="sans-serif" font-size="13" lengthAdjust="spacing" textLength="27.6885" x="21" y="175.6294">msg</text><text fill="#000000" font-family="sans-serif" font-size="13" lengthAdjust="spacing" textLength="54.3613" x="21" y="190.7622">S2 to S1</text><path d="M164.4531,158.5625 L164.4531,198.5625 L239.4531,198.5625 L239.4531,168.5625 L229.4531,158.5625 L164.4531,158.5625" fill="#FEFFDD" style="stroke:#181818;stroke-width:0.5;"/><path d="M229.4531,158.5625 L229.4531,168.5625 L239.4531,168.5625 L229.4531,158.5625" fill="#FEFFDD" style="stroke:#181818;stroke-width:0.5;"/><text fill="#000000" font-family="sans-serif" font-size="13" lengthAdjust="spacing" textLength="27.6885" x="170.4531" y="175.6294">msg</text><text fill="#000000" font-family="sans-serif" font-size="13" lengthAdjust="spacing" textLength="54.3613" x="170.4531" y="190.7622">S1 to S2</text><?plantuml-src KomeIapFJLGeISslKYWfAatbuWesLD2rqp0sq5G8Dh9Io2rELp2CoUDI0_BWueOGSICkhhpyabI5dDIq4fXWJ1vGNKa-a0lK0fOjoapFA86P1PGs14iR0G00?></g></svg>