<svg xmlns="http://www.w3.org/2000/svg" xmlns:xlink="http://www.w3.org/1999/xlink" contentStyleType="text/css" data-diagram-type="SEQUENCE" height="155px" preserveAspectRatio="none" style="width:250px;height:155px;background:#FFFFFF;" version="1.1" viewBox="0 0 250 155" width="250px" zoomAndPan="magnify"><?plantuml 1.2026.3beta5?><defs/><g><g class="participant-lifeline" data-entity-uid="part1" data-qualified-name="Bob" data-source-line="1" id="part1-lifeline"><g><title>.. Generated ..</title><rect fill="#000000" fill-opacity="0.00000" height="49.1328" width="8" x="53.7017" y="52.5938"/><line style="stroke:#181818;stroke-width:0.5;stroke-dasharray:5,5;" x1="57" x2="57" y1="52.5938" y2="101.7266"/></g></g><g class="participant-lifeline" data-entity-uid="part2" data-qualified-name="Alice" data-source-line="2" id="part2-lifeline"><g><title>C .. Testable ..</title><rect fill="#000000" fill-opacity="0.00000" height="49.1328" width="8" x="175.9272" y="52.5938"/><line style="stroke:#181818;stroke-width:0.5;stroke-dasharray:5,5;" x1="179.4033" x2="179.4033" y1="52.5938" y2="101.7266"/></g></g><g class="participant participant-head" data-entity-uid="part1" data-qualified-name="Bob" data-source-line="1" id="part1-head"><rect fill="#E2E2F0" height="46.5938" rx="2.5" ry="2.5" style="stroke:#181818;stroke-width:0.5;" width="105.4033" x="5" y="5"/><text fill="#000000" font-family="sans-serif" font-size="14" font-style="italic" lengthAdjust="spacing" textLength="91.4033" x="12" y="24.9951">&#171;Generated&#187;</text><text fill="#000000" font-family="sans-serif" font-size="14" lengthAdjust="spacing" textLength="86.5088" x="14.4473" y="41.292">Famous Bob</text></g><g class="participant participant-tail" data-entity-uid="part1" data-qualified-name="Bob" data-source-line="1" id="part1-tail"><rect fill="#E2E2F0" height="46.5938" rx="2.5" ry="2.5" style="stroke:#181818;stroke-width:0.5;" width="105.4033" x="5" y="100.7266"/><text fill="#000000" font-family="sans-serif" font-size="14" font-style="italic" lengthAdjust="spacing" textLength="91.4033" x="12" y="120.7217">&#171;Generated&#187;</text><text fill="#000000" font-family="sans-serif" font-size="14" lengthAdjust="spacing" textLength="86.5088" x="14.4473" y="137.0186">Famous Bob</text></g><g class="participant participant-head" data-entity-uid="part2" data-qualified-name="Alice" data-source-line="2" id="part2-head"><rect fill="#E2E2F0" height="46.5938" rx="2.5" ry="2.5" style="stroke:#181818;stroke-width:0.5;" width="119.0479" x="120.4033" y="5"/><ellipse cx="138.4033" cy="23" fill="#ADD1B2" rx="11" ry="11" style="stroke:#181818;stroke-width:1;"/><path d="M141.3721,28.6406 Q140.7939,28.9375 140.1533,29.0781 Q139.5127,29.2344 138.8096,29.2344 Q136.3096,29.2344 134.9814,27.5938 Q133.6689,25.9375 133.6689,22.8125 Q133.6689,19.6875 134.9814,18.0313 Q136.3096,16.375 138.8096,16.375 Q139.5127,16.375 140.1533,16.5313 Q140.8096,16.6875 141.3721,16.9844 L141.3721,19.7031 Q140.7471,19.125 140.1533,18.8594 Q139.5596,18.5781 138.9346,18.5781 Q137.5908,18.5781 136.9033,19.6563 Q136.2158,20.7188 136.2158,22.8125 Q136.2158,24.9063 136.9033,25.9844 Q137.5908,27.0469 138.9346,27.0469 Q139.5596,27.0469 140.1533,26.7813 Q140.7471,26.5 141.3721,25.9219 L141.3721,28.6406 Z " fill="#000000"/><text fill="#000000" font-family="sans-serif" font-size="14" font-style="italic" lengthAdjust="spacing" textLength="77.0479" x="155.4033" y="24.9951">&#171;Testable&#187;</text><text fill="#000000" font-family="sans-serif" font-size="14" lengthAdjust="spacing" textLength="33.667" x="177.0938" y="41.292">Alice</text></g><g class="participant participant-tail" data-entity-uid="part2" data-qualified-name="Alice" data-source-line="2" id="part2-tail"><rect fill="#E2E2F0" height="46.5938" rx="2.5" ry="2.5" style="stroke:#181818;stroke-width:0.5;" width="119.0479" x="120.4033" y="100.7266"/><ellipse cx="138.4033" cy="118.7266" fill="#ADD1B2" rx="11" ry="11" style="stroke:#181818;stroke-width:1;"/><path d="M141.3721,124.3672 Q140.7939,124.6641 140.1533,124.8047 Q139.5127,124.9609 138.8096,124.9609 Q136.3096,124.9609 134.9814,123.3203 Q133.6689,121.6641 133.6689,118.5391 Q133.6689,115.4141 134.9814,113.7578 Q136.3096,112.1016 138.8096,112.1016 Q139.5127,112.1016 140.1533,112.2578 Q140.8096,112.4141 141.3721,112.7109 L141.3721,115.4297 Q140.7471,114.8516 140.1533,114.5859 Q139.5596,114.3047 138.9346,114.3047 Q137.5908,114.3047 136.9033,115.3828 Q136.2158,116.4453 136.2158,118.5391 Q136.2158,120.6328 136.9033,121.7109 Q137.5908,122.7734 138.9346,122.7734 Q139.5596,122.7734 140.1533,122.5078 Q140.7471,122.2266 141.3721,121.6484 L141.3721,124.3672 Z " fill="#000000"/><text fill="#000000" font-family="sans-serif" font-size="14" font-style="italic" lengthAdjust="spacing" textLength="77.0479" x="155.4033" y="120.7217">&#171;Testable&#187;</text><text fill="#000000" font-family="sans-serif" font-size="14" lengthAdjust="spacing" textLength="33.667" x="177.0938" y="137.0186">Alice</text></g><g class="message" data-entity-1="part1" data-entity-2="part2" data-source-line="4" id="msg1"><polygon fill="#181818" points="167.9272,79.7266,177.9272,83.7266,167.9272,87.7266,171.9272,83.7266" style="stroke:#181818;stroke-width:1;"/><line style="stroke:#181818;stroke-width:1;" x1="57.7017" x2="173.9272" y1="83.7266" y2="83.7266"/><text fill="#000000" font-family="sans-serif" font-size="13" lengthAdjust="spacing" textLength="90.8604" x="64.7017" y="78.6606">First message</text></g><?plantuml-src AqWiAibCpYn8p2jHK79BpCqlBLPmoazIKaW4qmesDWhkgNcfHOabgIaATdPS1KZg7NCoarD1AZISTPGTNLmCdOmq5K9IYqiIat9IGOgvW2Rese6LMIcuPHOLboZafXON9wQd0W00?></g></svg>