<svg xmlns="http://www.w3.org/2000/svg" xmlns:xlink="http://www.w3.org/1999/xlink" contentStyleType="text/css" data-diagram-type="SEQUENCE" height="155px" preserveAspectRatio="none" style="width:327px;height:155px;background:#FFFFFF;" version="1.1" viewBox="0 0 327 155" width="327px" zoomAndPan="magnify"><?plantuml 1.2026.3beta5?><defs/><g><g class="participant-lifeline" data-entity-uid="part1" data-qualified-name="Bob" data-source-line="2" id="part1-lifeline"><g><title>.. Generated ..</title><rect fill="#000000" fill-opacity="0.00000" height="49.1328" width="8" x="73.0474" y="52.5938"/><line style="stroke:#181818;stroke-width:0.5;stroke-dasharray:5,5;" x1="77" x2="77" y1="52.5938" y2="101.7266"/></g></g><g class="participant-lifeline" data-entity-uid="part2" data-qualified-name="Alice" data-source-line="3" id="part2-lifeline"><g><title>C .. Testable ..</title><rect fill="#000000" fill-opacity="0.00000" height="49.1328" width="8" x="233.9644" y="52.5938"/><line style="stroke:#181818;stroke-width:0.5;stroke-dasharray:5,5;" x1="237.0947" x2="237.0947" y1="52.5938" y2="101.7266"/></g></g><g class="participant participant-head" data-entity-uid="part1" data-qualified-name="Bob" data-source-line="2" id="part1-head"><rect fill="#E2E2F0" height="46.5938" rx="2.5" ry="2.5" style="stroke:#181818;stroke-width:0.5;" width="144.0947" x="5" y="5"/><text fill="#000000" font-family="sans-serif" font-size="14" font-style="italic" lengthAdjust="spacing" textLength="130.0947" x="12" y="24.9951">&lt;&lt; Generated &gt;&gt;</text><text fill="#000000" font-family="sans-serif" font-size="14" lengthAdjust="spacing" textLength="86.5088" x="33.793" y="41.292">Famous Bob</text></g><g class="participant participant-tail" data-entity-uid="part1" data-qualified-name="Bob" data-source-line="2" id="part1-tail"><rect fill="#E2E2F0" height="46.5938" rx="2.5" ry="2.5" style="stroke:#181818;stroke-width:0.5;" width="144.0947" x="5" y="100.7266"/><text fill="#000000" font-family="sans-serif" font-size="14" font-style="italic" lengthAdjust="spacing" textLength="130.0947" x="12" y="120.7217">&lt;&lt; Generated &gt;&gt;</text><text fill="#000000" font-family="sans-serif" font-size="14" lengthAdjust="spacing" textLength="86.5088" x="33.793" y="137.0186">Famous Bob</text></g><g class="participant participant-head" data-entity-uid="part2" data-qualified-name="Alice" data-source-line="3" id="part2-head"><rect fill="#E2E2F0" height="46.5938" rx="2.5" ry="2.5" style="stroke:#181818;stroke-width:0.5;" width="157.7393" x="159.0947" y="5"/><ellipse cx="177.0947" cy="23" fill="#ADD1B2" rx="11" ry="11" style="stroke:#181818;stroke-width:1;"/><path d="M180.0635,28.6406 Q179.4854,28.9375 178.8447,29.0781 Q178.2041,29.2344 177.501,29.2344 Q175.001,29.2344 173.6729,27.5938 Q172.3604,25.9375 172.3604,22.8125 Q172.3604,19.6875 173.6729,18.0313 Q175.001,16.375 177.501,16.375 Q178.2041,16.375 178.8447,16.5313 Q179.501,16.6875 180.0635,16.9844 L180.0635,19.7031 Q179.4385,19.125 178.8447,18.8594 Q178.251,18.5781 177.626,18.5781 Q176.2822,18.5781 175.5947,19.6563 Q174.9072,20.7188 174.9072,22.8125 Q174.9072,24.9063 175.5947,25.9844 Q176.2822,27.0469 177.626,27.0469 Q178.251,27.0469 178.8447,26.7813 Q179.4385,26.5 180.0635,25.9219 L180.0635,28.6406 Z " fill="#000000"/><text fill="#000000" font-family="sans-serif" font-size="14" font-style="italic" lengthAdjust="spacing" textLength="115.7393" x="194.0947" y="24.9951">&lt;&lt; Testable &gt;&gt;</text><text fill="#000000" font-family="sans-serif" font-size="14" lengthAdjust="spacing" textLength="33.667" x="235.1309" y="41.292">Alice</text></g><g class="participant participant-tail" data-entity-uid="part2" data-qualified-name="Alice" data-source-line="3" id="part2-tail"><rect fill="#E2E2F0" height="46.5938" rx="2.5" ry="2.5" style="stroke:#181818;stroke-width:0.5;" width="157.7393" x="159.0947" y="100.7266"/><ellipse cx="177.0947" cy="118.7266" fill="#ADD1B2" rx="11" ry="11" style="stroke:#181818;stroke-width:1;"/><path d="M180.0635,124.3672 Q179.4854,124.6641 178.8447,124.8047 Q178.2041,124.9609 177.501,124.9609 Q175.001,124.9609 173.6729,123.3203 Q172.3604,121.6641 172.3604,118.5391 Q172.3604,115.4141 173.6729,113.7578 Q175.001,112.1016 177.501,112.1016 Q178.2041,112.1016 178.8447,112.2578 Q179.501,112.4141 180.0635,112.7109 L180.0635,115.4297 Q179.4385,114.8516 178.8447,114.5859 Q178.251,114.3047 177.626,114.3047 Q176.2822,114.3047 175.5947,115.3828 Q174.9072,116.4453 174.9072,118.5391 Q174.9072,120.6328 175.5947,121.7109 Q176.2822,122.7734 177.626,122.7734 Q178.251,122.7734 178.8447,122.5078 Q179.4385,122.2266 180.0635,121.6484 L180.0635,124.3672 Z " fill="#000000"/><text fill="#000000" font-family="sans-serif" font-size="14" font-style="italic" lengthAdjust="spacing" textLength="115.7393" x="194.0947" y="120.7217">&lt;&lt; Testable &gt;&gt;</text><text fill="#000000" font-family="sans-serif" font-size="14" lengthAdjust="spacing" textLength="33.667" x="235.1309" y="137.0186">Alice</text></g><g class="message" data-entity-1="part1" data-entity-2="part2" data-source-line="5" id="msg1"><polygon fill="#181818" points="225.9644,79.7266,235.9644,83.7266,225.9644,87.7266,229.9644,83.7266" style="stroke:#181818;stroke-width:1;"/><line style="stroke:#181818;stroke-width:1;" x1="77.0474" x2="231.9644" y1="83.7266" y2="83.7266"/><text fill="#000000" font-family="sans-serif" font-size="13" lengthAdjust="spacing" textLength="90.8604" x="84.0474" y="78.6606">First message</text></g><?plantuml-src LSp12e9G48NXlKzni4r1BMePSa4JUu5UOBH9XkPUvSxu_gcxLWT-Fevz9SsKAM9SH9KZEpwaniLQNGQPAJdAZkAq69gfBq7xeghmvCIPdDy8uS_NAWDlulWu7-gslJQt4rviJhtoXelruH9sTaSdsHoHpMZa7m00?></g></svg>