<svg xmlns="http://www.w3.org/2000/svg" xmlns:xlink="http://www.w3.org/1999/xlink" contentStyleType="text/css" data-diagram-type="SEQUENCE" height="134px" preserveAspectRatio="none" style="width:203px;height:134px;background:#FFFFFF;" version="1.1" viewBox="0 0 203 134" width="203px" zoomAndPan="magnify"><?plantuml 1.2026.3beta5?><defs/><g><g class="participant-lifeline" data-entity-uid="part1" data-qualified-name="Bob" data-source-line="1" id="part1-lifeline"><g><title>C </title><rect fill="#000000" fill-opacity="0.00000" height="49.1328" width="8" x="35.5283" y="42"/><line style="stroke:#181818;stroke-width:0.5;stroke-dasharray:5,5;" x1="39" x2="39" y1="42" y2="91.1328"/></g></g><g class="participant-lifeline" data-entity-uid="part2" data-qualified-name="Alice" data-source-line="2" id="part2-lifeline"><g><title>C </title><rect fill="#000000" fill-opacity="0.00000" height="49.1328" width="8" x="150.3887" y="42"/><line style="stroke:#181818;stroke-width:0.5;stroke-dasharray:5,5;" x1="153.5552" x2="153.5552" y1="42" y2="91.1328"/></g></g><g class="participant participant-head" data-entity-uid="part1" data-qualified-name="Bob" data-source-line="1" id="part1-head"><rect fill="#E2E2F0" height="36" rx="2.5" ry="2.5" style="stroke:#181818;stroke-width:0.5;" width="69.0566" x="5" y="5"/><ellipse cx="23" cy="23" fill="#ADD1B2" rx="11" ry="11" style="stroke:#181818;stroke-width:1;"/><path d="M25.9688,28.6406 Q25.3906,28.9375 24.75,29.0781 Q24.1094,29.2344 23.4063,29.2344 Q20.9063,29.2344 19.5781,27.5938 Q18.2656,25.9375 18.2656,22.8125 Q18.2656,19.6875 19.5781,18.0313 Q20.9063,16.375 23.4063,16.375 Q24.1094,16.375 24.75,16.5313 Q25.4063,16.6875 25.9688,16.9844 L25.9688,19.7031 Q25.3438,19.125 24.75,18.8594 Q24.1563,18.5781 23.5313,18.5781 Q22.1875,18.5781 21.5,19.6563 Q20.8125,20.7188 20.8125,22.8125 Q20.8125,24.9063 21.5,25.9844 Q22.1875,27.0469 23.5313,27.0469 Q24.1563,27.0469 24.75,26.7813 Q25.3438,26.5 25.9688,25.9219 L25.9688,28.6406 Z " fill="#000000"/><text fill="#000000" font-family="sans-serif" font-size="14" lengthAdjust="spacing" textLength="27.0566" x="40" y="24.9951">Bob</text></g><g class="participant participant-tail" data-entity-uid="part1" data-qualified-name="Bob" data-source-line="1" id="part1-tail"><rect fill="#E2E2F0" height="36" rx="2.5" ry="2.5" style="stroke:#181818;stroke-width:0.5;" width="69.0566" x="5" y="90.1328"/><ellipse cx="23" cy="108.1328" fill="#ADD1B2" rx="11" ry="11" style="stroke:#181818;stroke-width:1;"/><path d="M25.9688,113.7734 Q25.3906,114.0703 24.75,114.2109 Q24.1094,114.3672 23.4063,114.3672 Q20.9063,114.3672 19.5781,112.7266 Q18.2656,111.0703 18.2656,107.9453 Q18.2656,104.8203 19.5781,103.1641 Q20.9063,101.5078 23.4063,101.5078 Q24.1094,101.5078 24.75,101.6641 Q25.4063,101.8203 25.9688,102.1172 L25.9688,104.8359 Q25.3438,104.2578 24.75,103.9922 Q24.1563,103.7109 23.5313,103.7109 Q22.1875,103.7109 21.5,104.7891 Q20.8125,105.8516 20.8125,107.9453 Q20.8125,110.0391 21.5,111.1172 Q22.1875,112.1797 23.5313,112.1797 Q24.1563,112.1797 24.75,111.9141 Q25.3438,111.6328 25.9688,111.0547 L25.9688,113.7734 Z " fill="#000000"/><text fill="#000000" font-family="sans-serif" font-size="14" lengthAdjust="spacing" textLength="27.0566" x="40" y="110.1279">Bob</text></g><g class="participant participant-head" data-entity-uid="part2" data-qualified-name="Alice" data-source-line="2" id="part2-head"><rect fill="#E2E2F0" height="36" rx="2.5" ry="2.5" style="stroke:#181818;stroke-width:0.5;" width="75.667" x="116.5552" y="5"/><ellipse cx="134.5552" cy="23" fill="#ADD1B2" rx="11" ry="11" style="stroke:#181818;stroke-width:1;"/><path d="M137.5239,28.6406 Q136.9458,28.9375 136.3052,29.0781 Q135.6646,29.2344 134.9614,29.2344 Q132.4614,29.2344 131.1333,27.5938 Q129.8208,25.9375 129.8208,22.8125 Q129.8208,19.6875 131.1333,18.0313 Q132.4614,16.375 134.9614,16.375 Q135.6646,16.375 136.3052,16.5313 Q136.9614,16.6875 137.5239,16.9844 L137.5239,19.7031 Q136.8989,19.125 136.3052,18.8594 Q135.7114,18.5781 135.0864,18.5781 Q133.7427,18.5781 133.0552,19.6563 Q132.3677,20.7188 132.3677,22.8125 Q132.3677,24.9063 133.0552,25.9844 Q133.7427,27.0469 135.0864,27.0469 Q135.7114,27.0469 136.3052,26.7813 Q136.8989,26.5 137.5239,25.9219 L137.5239,28.6406 Z " fill="#000000"/><text fill="#000000" font-family="sans-serif" font-size="14" lengthAdjust="spacing" textLength="33.667" x="151.5552" y="24.9951">Alice</text></g><g class="participant participant-tail" data-entity-uid="part2" data-qualified-name="Alice" data-source-line="2" id="part2-tail"><rect fill="#E2E2F0" height="36" rx="2.5" ry="2.5" style="stroke:#181818;stroke-width:0.5;" width="75.667" x="116.5552" y="90.1328"/><ellipse cx="134.5552" cy="108.1328" fill="#ADD1B2" rx="11" ry="11" style="stroke:#181818;stroke-width:1;"/><path d="M137.5239,113.7734 Q136.9458,114.0703 136.3052,114.2109 Q135.6646,114.3672 134.9614,114.3672 Q132.4614,114.3672 131.1333,112.7266 Q129.8208,111.0703 129.8208,107.9453 Q129.8208,104.8203 131.1333,103.1641 Q132.4614,101.5078 134.9614,101.5078 Q135.6646,101.5078 136.3052,101.6641 Q136.9614,101.8203 137.5239,102.1172 L137.5239,104.8359 Q136.8989,104.2578 136.3052,103.9922 Q135.7114,103.7109 135.0864,103.7109 Q133.7427,103.7109 133.0552,104.7891 Q132.3677,105.8516 132.3677,107.9453 Q132.3677,110.0391 133.0552,111.1172 Q133.7427,112.1797 135.0864,112.1797 Q135.7114,112.1797 136.3052,111.9141 Q136.8989,111.6328 137.5239,111.0547 L137.5239,113.7734 Z " fill="#000000"/><text fill="#000000" font-family="sans-serif" font-size="14" lengthAdjust="spacing" textLength="33.667" x="151.5552" y="110.1279">Alice</text></g><g class="message" data-entity-1="part1" data-entity-2="part2" data-source-line="4" id="msg1"><polygon fill="#181818" points="142.3887,69.1328,152.3887,73.1328,142.3887,77.1328,146.3887,73.1328" style="stroke:#181818;stroke-width:1;"/><line style="stroke:#181818;stroke-width:1;" x1="39.5283" x2="148.3887" y1="73.1328" y2="73.1328"/><text fill="#000000" font-family="sans-serif" font-size="13" lengthAdjust="spacing" textLength="90.8604" x="46.5283" y="68.0669">First message</text></g><?plantuml-src AqWiAibCpYn8p2jHSCfFKh2nKT1mrb5sT74nT3BILB2puof0Kk6OavcSYaKD5r2hhXrOrah1BREek4GXDxMuE34z5G00?></g></svg>