<svg xmlns="http://www.w3.org/2000/svg" xmlns:xlink="http://www.w3.org/1999/xlink" contentStyleType="text/css" data-diagram-type="SEQUENCE" height="131px" preserveAspectRatio="none" style="width:107px;height:131px;background:#FFFFFF;" version="1.1" viewBox="0 0 107 131" width="107px" zoomAndPan="magnify"><?plantuml 1.2026.3beta5?><defs/><g><g class="participant-lifeline" data-entity-uid="part1" data-qualified-name="Alice" data-source-line="1" id="part1-lifeline"><g><title>Alice</title><rect fill="#000000" fill-opacity="0.00000" height="49.1328" width="8" x="20.8335" y="81.2969"/><line style="stroke:#181818;stroke-width:0.5;stroke-dasharray:5,5;" x1="24" x2="24" y1="81.2969" y2="130.4297"/></g></g><g class="participant-lifeline" data-entity-uid="part2" data-qualified-name="Bob" data-source-line="2" id="part2-lifeline"><g><title>Bob</title><rect fill="#000000" fill-opacity="0.00000" height="49.1328" width="8" x="76.248" y="81.2969"/><line style="stroke:#181818;stroke-width:0.5;stroke-dasharray:5,5;" x1="79.7197" x2="79.7197" y1="81.2969" y2="130.4297"/></g></g><g class="participant participant-head" data-entity-uid="part1" data-qualified-name="Alice" data-source-line="1" id="part1-head"><text fill="#000000" font-family="sans-serif" font-size="14" lengthAdjust="spacing" textLength="33.667" x="5" y="77.9951">Alice</text><ellipse cx="24.8335" cy="13.5" fill="#E2E2F0" rx="8" ry="8" style="stroke:#181818;stroke-width:0.5;"/><path d="M24.8335,21.5 L24.8335,48.5 M11.8335,29.5 L37.8335,29.5 M24.8335,48.5 L11.8335,63.5 M24.8335,48.5 L37.8335,63.5" fill="none" style="stroke:#181818;stroke-width:0.5;"/></g><g class="participant participant-head" data-entity-uid="part2" data-qualified-name="Bob" data-source-line="2" id="part2-head"><text fill="#000000" font-family="sans-serif" font-size="14" lengthAdjust="spacing" textLength="27.0566" x="63.7197" y="77.9951">Bob</text><ellipse cx="80.248" cy="13.5" fill="#E2E2F0" rx="8" ry="8" style="stroke:#181818;stroke-width:0.5;"/><path d="M80.248,21.5 L80.248,48.5 M67.248,29.5 L93.248,29.5 M80.248,48.5 L67.248,63.5 M80.248,48.5 L93.248,63.5" fill="none" style="stroke:#181818;stroke-width:0.5;"/></g><g class="message" data-entity-1="part1" data-entity-2="part2" data-source-line="3" id="msg1"><polygon fill="#181818" points="68.248,108.4297,78.248,112.4297,68.248,116.4297,72.248,112.4297" style="stroke:#181818;stroke-width:1;"/><line style="stroke:#181818;stroke-width:1;" x1="24.8335" x2="74.248" y1="112.4297" y2="112.4297"/><text fill="#000000" font-family="sans-serif" font-size="13" lengthAdjust="spacing" textLength="31.4146" x="31.8335" y="107.3638">hello</text></g><?plantuml-src IqmkoIzISCp9J4xbIWIpdVAJkC1y1Lqx44V1IY4ZDISddoiZCoLL8Iq_loGflm80?></g></svg>