<svg xmlns="http://www.w3.org/2000/svg" xmlns:xlink="http://www.w3.org/1999/xlink" contentStyleType="text/css" data-diagram-type="SEQUENCE" height="201px" preserveAspectRatio="none" style="width:505px;height:201px;background:#FFFFFF;" version="1.1" viewBox="0 0 505 201" width="505px" zoomAndPan="magnify"><?plantuml 1.2026.3beta5?><defs/><g><g><title>ParticipantNumber1</title><rect fill="#000000" fill-opacity="0.00000" height="118.3984" width="8" x="83.8589" y="41.2969"/><line style="stroke:#181818;stroke-width:0.5;stroke-dasharray:5,5;" x1="87.3589" x2="87.3589" y1="41.2969" y2="159.6953"/></g><g><title>ParticipantNumber2</title><rect fill="#000000" fill-opacity="0.00000" height="118.3984" width="8" x="248.5767" y="41.2969"/><line style="stroke:#181818;stroke-width:0.5;stroke-dasharray:5,5;" x1="252.0767" x2="252.0767" y1="41.2969" y2="159.6953"/></g><g><title>ParticipantNumber3</title><rect fill="#000000" fill-opacity="0.00000" height="118.3984" width="8" x="413.2944" y="41.2969"/><line style="stroke:#181818;stroke-width:0.5;stroke-dasharray:5,5;" x1="416.7944" x2="416.7944" y1="41.2969" y2="159.6953"/></g><rect fill="#E2E2F0" height="30.2969" rx="2.5" ry="2.5" style="stroke:#181818;stroke-width:0.5;" width="154.7178" x="10" y="10"/><text fill="#000000" font-family="sans-serif" font-size="14" lengthAdjust="spacing" textLength="140.7178" x="17" y="29.9951">ParticipantNumber1</text><rect fill="#E2E2F0" height="30.2969" rx="2.5" ry="2.5" style="stroke:#181818;stroke-width:0.5;" width="154.7178" x="174.7178" y="10"/><text fill="#000000" font-family="sans-serif" font-size="14" lengthAdjust="spacing" textLength="140.7178" x="181.7178" y="29.9951">ParticipantNumber2</text><rect fill="#E2E2F0" height="30.2969" rx="2.5" ry="2.5" style="stroke:#181818;stroke-width:0.5;" width="154.7178" x="339.4355" y="10"/><text fill="#000000" font-family="sans-serif" font-size="14" lengthAdjust="spacing" textLength="140.7178" x="346.4355" y="29.9951">ParticipantNumber3</text><rect fill="#E2E2F0" height="30.2969" rx="2.5" ry="2.5" style="stroke:#181818;stroke-width:0.5;" width="154.7178" x="10" y="159.6953"/><text fill="#000000" font-family="sans-serif" font-size="14" lengthAdjust="spacing" textLength="140.7178" x="17" y="179.6904">ParticipantNumber1</text><rect fill="#E2E2F0" height="30.2969" rx="2.5" ry="2.5" style="stroke:#181818;stroke-width:0.5;" width="154.7178" x="174.7178" y="159.6953"/><text fill="#000000" font-family="sans-serif" font-size="14" lengthAdjust="spacing" textLength="140.7178" x="181.7178" y="179.6904">ParticipantNumber2</text><rect fill="#E2E2F0" height="30.2969" rx="2.5" ry="2.5" style="stroke:#181818;stroke-width:0.5;" width="154.7178" x="339.4355" y="159.6953"/><text fill="#000000" font-family="sans-serif" font-size="14" lengthAdjust="spacing" textLength="140.7178" x="346.4355" y="179.6904">ParticipantNumber3</text><polygon fill="#181818" points="240.0767,66.4297,250.0767,70.4297,240.0767,74.4297,244.0767,70.4297" style="stroke:#181818;stroke-width:1;"/><line style="stroke:#181818;stroke-width:1;" x1="87.3589" x2="246.0767" y1="70.4297" y2="70.4297"/><text fill="#000000" font-family="sans-serif" font-size="13" lengthAdjust="spacing" textLength="288.0439" x="94.3589" y="65.3638">this is a very long message that is very long</text><line style="stroke:#181818;stroke-width:1;" x1="87.3589" x2="129.3589" y1="99.5625" y2="99.5625"/><line style="stroke:#181818;stroke-width:1;" x1="129.3589" x2="129.3589" y1="99.5625" y2="112.5625"/><line style="stroke:#181818;stroke-width:1;" x1="88.3589" x2="129.3589" y1="112.5625" y2="112.5625"/><polygon fill="#181818" points="98.3589,108.5625,88.3589,112.5625,98.3589,116.5625,94.3589,112.5625" style="stroke:#181818;stroke-width:1;"/><text fill="#000000" font-family="sans-serif" font-size="13" lengthAdjust="spacing" textLength="288.0439" x="94.3589" y="94.4966">this is a very long message that is very long</text><polygon fill="#181818" points="404.7944,137.6953,414.7944,141.6953,404.7944,145.6953,408.7944,141.6953" style="stroke:#181818;stroke-width:1;"/><line style="stroke:#181818;stroke-width:1;" x1="252.0767" x2="410.7944" y1="141.6953" y2="141.6953"/><text fill="#000000" font-family="sans-serif" font-size="13" lengthAdjust="spacing" textLength="28.7549" x="259.0767" y="136.6294">foo2</text><?plantuml-src KomeIapFJLGeISslKYWfAatbKeIA5ASMbgRc9QVwfXON9wQd1XSava4KS0Ka5fLa9cS21KhyIdEJKeiC5NJj5314ZHIi54eoCeiLW2XHeIorg58X9pylNI4NOY1GBh4490UN8TPWGr8DLk32uZXi9Xi3JKxBppS20000?></g></svg>