<svg xmlns="http://www.w3.org/2000/svg" xmlns:xlink="http://www.w3.org/1999/xlink" contentStyleType="text/css" data-diagram-type="CLASS" height="416px" preserveAspectRatio="none" style="width:709px;height:416px;background:#FFFFFF;" version="1.1" viewBox="0 0 709 416" width="709px" zoomAndPan="magnify"><?plantuml 1.2026.3beta5?><defs/><g><!--class AbstractList--><g class="entity" data-qualified-name="AbstractList" data-source-line="1" id="ent0002"><rect fill="#F1F1F1" height="48" rx="2.5" ry="2.5" style="stroke:#181818;stroke-width:0.5;" width="115.2412" x="202.39" y="188.34"/><ellipse cx="217.39" cy="204.34" fill="#A9DCDF" rx="11" ry="11" style="stroke:#181818;stroke-width:1;"/><path d="M217.4994,199.6838 L216.3431,204.7619 L218.6713,204.7619 L217.4994,199.6838 Z M216.015,197.4494 L218.9994,197.4494 L222.3588,209.84 L219.9056,209.84 L219.14,206.7775 L215.8588,206.7775 L215.1088,209.84 L212.6713,209.84 L216.015,197.4494 Z " fill="#000000"/><text fill="#000000" font-family="sans-serif" font-size="14" font-style="italic" lengthAdjust="spacing" textLength="83.2412" x="231.39" y="209.1867">AbstractList</text><line style="stroke:#181818;stroke-width:0.5;" x1="203.39" x2="316.6312" y1="220.34" y2="220.34"/><line style="stroke:#181818;stroke-width:0.5;" x1="203.39" x2="316.6312" y1="228.34" y2="228.34"/></g><!--class AbstractCollection--><g class="entity" data-qualified-name="AbstractCollection" data-source-line="2" id="ent0003"><rect fill="#F1F1F1" height="48" rx="2.5" ry="2.5" style="stroke:#181818;stroke-width:0.5;" width="160.0166" x="7" y="188.34"/><ellipse cx="22" cy="204.34" fill="#A9DCDF" rx="11" ry="11" style="stroke:#181818;stroke-width:1;"/><path d="M22.1094,199.6838 L20.9531,204.7619 L23.2813,204.7619 L22.1094,199.6838 Z M20.625,197.4494 L23.6094,197.4494 L26.9688,209.84 L24.5156,209.84 L23.75,206.7775 L20.4688,206.7775 L19.7188,209.84 L17.2813,209.84 L20.625,197.4494 Z " fill="#000000"/><text fill="#000000" font-family="sans-serif" font-size="14" font-style="italic" lengthAdjust="spacing" textLength="128.0166" x="36" y="209.1867">AbstractCollection</text><line style="stroke:#181818;stroke-width:0.5;" x1="8" x2="166.0166" y1="220.34" y2="220.34"/><line style="stroke:#181818;stroke-width:0.5;" x1="8" x2="166.0166" y1="228.34" y2="228.34"/></g><!--class List--><g class="entity" data-qualified-name="List" data-source-line="3" id="ent0004"><rect fill="#F1F1F1" height="48" rx="2.5" ry="2.5" style="stroke:#181818;stroke-width:0.5;" width="56.4727" x="202.77" y="31.45"/><ellipse cx="217.77" cy="47.45" fill="#B4A7E5" rx="11" ry="11" style="stroke:#181818;stroke-width:1;"/><path d="M213.6919,43.2156 L213.6919,41.0594 L221.0825,41.0594 L221.0825,43.2156 L218.6138,43.2156 L218.6138,51.2937 L221.0825,51.2937 L221.0825,53.45 L213.6919,53.45 L213.6919,51.2937 L216.1606,51.2937 L216.1606,43.2156 L213.6919,43.2156 Z " fill="#000000"/><text fill="#000000" font-family="sans-serif" font-size="14" font-style="italic" lengthAdjust="spacing" textLength="24.4727" x="231.77" y="52.2967">List</text><line style="stroke:#181818;stroke-width:0.5;" x1="203.77" x2="258.2427" y1="63.45" y2="63.45"/><line style="stroke:#181818;stroke-width:0.5;" x1="203.77" x2="258.2427" y1="71.45" y2="71.45"/></g><!--class Collection--><g class="entity" data-qualified-name="Collection" data-source-line="4" id="ent0005"><rect fill="#F1F1F1" height="48" rx="2.5" ry="2.5" style="stroke:#181818;stroke-width:0.5;" width="101.248" x="51.38" y="31.45"/><ellipse cx="66.38" cy="47.45" fill="#B4A7E5" rx="11" ry="11" style="stroke:#181818;stroke-width:1;"/><path d="M62.3019,43.2156 L62.3019,41.0594 L69.6925,41.0594 L69.6925,43.2156 L67.2238,43.2156 L67.2238,51.2937 L69.6925,51.2937 L69.6925,53.45 L62.3019,53.45 L62.3019,51.2937 L64.7706,51.2937 L64.7706,43.2156 L62.3019,43.2156 Z " fill="#000000"/><text fill="#000000" font-family="sans-serif" font-size="14" font-style="italic" lengthAdjust="spacing" textLength="69.248" x="80.38" y="52.2967">Collection</text><line style="stroke:#181818;stroke-width:0.5;" x1="52.38" x2="151.628" y1="63.45" y2="63.45"/><line style="stroke:#181818;stroke-width:0.5;" x1="52.38" x2="151.628" y1="71.45" y2="71.45"/></g><!--class ArrayList--><g class="entity" data-qualified-name="ArrayList" data-source-line="11" id="ent0010"><rect fill="#F1F1F1" height="80.5938" rx="2.5" ry="2.5" style="stroke:#181818;stroke-width:0.5;" width="164.127" x="177.94" y="320.79"/><ellipse cx="224.5406" cy="336.79" fill="#ADD1B2" rx="11" ry="11" style="stroke:#181818;stroke-width:1;"/><path d="M227.5093,342.4306 Q226.9312,342.7275 226.2906,342.8681 Q225.65,343.0244 224.9468,343.0244 Q222.4468,343.0244 221.1187,341.3837 Q219.8062,339.7275 219.8062,336.6025 Q219.8062,333.4775 221.1187,331.8212 Q222.4468,330.165 224.9468,330.165 Q225.65,330.165 226.2906,330.3212 Q226.9468,330.4775 227.5093,330.7744 L227.5093,333.4931 Q226.8843,332.915 226.2906,332.6494 Q225.6968,332.3681 225.0718,332.3681 Q223.7281,332.3681 223.0406,333.4462 Q222.3531,334.5087 222.3531,336.6025 Q222.3531,338.6962 223.0406,339.7744 Q223.7281,340.8369 225.0718,340.8369 Q225.6968,340.8369 226.2906,340.5712 Q226.8843,340.29 227.5093,339.7119 L227.5093,342.4306 Z " fill="#000000"/><text fill="#000000" font-family="sans-serif" font-size="14" lengthAdjust="spacing" textLength="62.4258" x="245.0406" y="341.6367">ArrayList</text><line style="stroke:#181818;stroke-width:0.5;" x1="178.94" x2="341.067" y1="352.79" y2="352.79"/><text fill="#000000" font-family="sans-serif" font-size="14" lengthAdjust="spacing" textLength="152.127" x="183.94" y="369.7851">Object[] elementData</text><line style="stroke:#181818;stroke-width:0.5;" x1="178.94" x2="341.067" y1="377.0869" y2="377.0869"/><text fill="#000000" font-family="sans-serif" font-size="14" lengthAdjust="spacing" textLength="38.0693" x="183.94" y="394.082">size()</text></g><!--class TimeUnit--><g class="entity" data-qualified-name="TimeUnit" data-source-line="18" id="ent0012"><rect fill="#F1F1F1" height="96.8906" rx="2.5" ry="2.5" style="stroke:#181818;stroke-width:0.5;" width="95.1914" x="401.41" y="7"/><ellipse cx="416.41" cy="23" fill="#EB937F" rx="11" ry="11" style="stroke:#181818;stroke-width:1;"/><path d="M420.5194,29 L412.8006,29 L412.8006,16.6094 L420.5194,16.6094 L420.5194,18.7656 L415.2538,18.7656 L415.2538,21.4375 L420.0194,21.4375 L420.0194,23.5938 L415.2538,23.5938 L415.2538,26.8438 L420.5194,26.8438 L420.5194,29 Z " fill="#000000"/><text fill="#000000" font-family="sans-serif" font-size="14" lengthAdjust="spacing" textLength="63.1914" x="430.41" y="27.8467">TimeUnit</text><line style="stroke:#181818;stroke-width:0.5;" x1="402.41" x2="495.6014" y1="39" y2="39"/><text fill="#000000" font-family="sans-serif" font-size="14" lengthAdjust="spacing" textLength="37.7959" x="407.41" y="55.9951">DAYS</text><text fill="#000000" font-family="sans-serif" font-size="14" lengthAdjust="spacing" textLength="50.4082" x="407.41" y="72.292">HOURS</text><text fill="#000000" font-family="sans-serif" font-size="14" lengthAdjust="spacing" textLength="63.2119" x="407.41" y="88.5889">MINUTES</text><line style="stroke:#181818;stroke-width:0.5;" x1="402.41" x2="495.6014" y1="95.8906" y2="95.8906"/></g><!--class SuppressWarnings--><g class="entity" data-qualified-name="SuppressWarnings" data-source-line="24" id="ent0013"><rect fill="#F1F1F1" height="48" rx="2.5" ry="2.5" style="stroke:#181818;stroke-width:0.5;" width="162.4844" x="531.77" y="31.45"/><ellipse cx="546.77" cy="47.45" fill="#E3664A" rx="11" ry="11" style="stroke:#181818;stroke-width:1;"/><path d="M548.8481,47.9187 Q548.8481,46.9812 548.4263,46.45 Q548.0044,45.9187 547.2544,45.9187 Q546.52,45.9187 546.0981,46.45 Q545.6919,46.9812 545.6919,47.9187 Q545.6919,48.8719 546.0981,49.4031 Q546.52,49.9344 547.2544,49.9344 Q548.0044,49.9344 548.4263,49.4031 Q548.8481,48.8719 548.8481,47.9187 Z M550.395,51.325 L548.77,51.325 L548.77,50.6531 Q548.4419,51.0906 548.02,51.2937 Q547.5981,51.4969 546.9888,51.4969 Q545.6294,51.4969 544.8013,50.5281 Q543.9731,49.5437 543.9731,47.9187 Q543.9731,46.325 544.8013,45.3562 Q545.6294,44.3719 546.9888,44.3719 Q547.5825,44.3719 548.0356,44.575 Q548.4888,44.7781 548.77,45.1687 L548.77,44.825 Q548.77,43.7 548.145,43.0906 Q547.52,42.4656 546.3794,42.4656 Q544.6606,42.4656 543.5669,43.9969 Q542.4731,45.5125 542.4731,47.95 Q542.4731,50.4969 543.7231,51.9969 Q544.9888,53.4969 547.0981,53.4969 Q547.7544,53.4969 548.3794,53.3094 Q549.0044,53.1219 549.5825,52.7312 L550.3481,54.1844 Q549.6763,54.6375 548.8794,54.8562 Q548.0825,55.0906 547.1763,55.0906 Q544.27,55.0906 542.5356,53.1531 Q540.8169,51.2312 540.8169,47.95 Q540.8169,44.7312 542.3638,42.8094 Q543.9263,40.8719 546.4888,40.8719 Q548.2856,40.8719 549.3325,41.9656 Q550.395,43.0594 550.395,44.9344 L550.395,51.325 Z " fill="#000000"/><text fill="#000000" font-family="sans-serif" font-size="14" lengthAdjust="spacing" textLength="130.4844" x="560.77" y="52.2967">SuppressWarnings</text><line style="stroke:#181818;stroke-width:0.5;" x1="532.77" x2="693.2544" y1="63.45" y2="63.45"/><line style="stroke:#181818;stroke-width:0.5;" x1="532.77" x2="693.2544" y1="71.45" y2="71.45"/></g><!--class Annotation--><g class="entity" data-qualified-name="Annotation" data-source-line="26" id="ent0014"><rect fill="#F1F1F1" height="96.8906" rx="2.5" ry="2.5" style="stroke:#181818;stroke-width:0.5;" width="192.8174" x="352.6" y="163.9"/><ellipse cx="406.3715" cy="179.9" fill="#E3664A" rx="11" ry="11" style="stroke:#181818;stroke-width:1;"/><path d="M408.4496,180.3688 Q408.4496,179.4313 408.0277,178.9 Q407.6059,178.3688 406.8559,178.3688 Q406.1215,178.3688 405.6996,178.9 Q405.2934,179.4313 405.2934,180.3688 Q405.2934,181.3219 405.6996,181.8531 Q406.1215,182.3844 406.8559,182.3844 Q407.6059,182.3844 408.0277,181.8531 Q408.4496,181.3219 408.4496,180.3688 Z M409.9965,183.775 L408.3715,183.775 L408.3715,183.1031 Q408.0434,183.5406 407.6215,183.7438 Q407.1996,183.9469 406.5902,183.9469 Q405.2309,183.9469 404.4027,182.9781 Q403.5746,181.9938 403.5746,180.3688 Q403.5746,178.775 404.4027,177.8063 Q405.2309,176.8219 406.5902,176.8219 Q407.184,176.8219 407.6371,177.025 Q408.0902,177.2281 408.3715,177.6188 L408.3715,177.275 Q408.3715,176.15 407.7465,175.5406 Q407.1215,174.9156 405.9809,174.9156 Q404.2621,174.9156 403.1684,176.4469 Q402.0746,177.9625 402.0746,180.4 Q402.0746,182.9469 403.3246,184.4469 Q404.5902,185.9469 406.6996,185.9469 Q407.3559,185.9469 407.9809,185.7594 Q408.6059,185.5719 409.184,185.1813 L409.9496,186.6344 Q409.2777,187.0875 408.4809,187.3063 Q407.684,187.5406 406.7777,187.5406 Q403.8715,187.5406 402.1371,185.6031 Q400.4184,183.6813 400.4184,180.4 Q400.4184,177.1813 401.9652,175.2594 Q403.5277,173.3219 406.0902,173.3219 Q407.8871,173.3219 408.934,174.4156 Q409.9965,175.5094 409.9965,177.3844 L409.9965,183.775 Z " fill="#000000"/><text fill="#000000" font-family="sans-serif" font-size="14" lengthAdjust="spacing" textLength="76.7744" x="426.8715" y="184.7467">Annotation</text><line style="stroke:#181818;stroke-width:0.5;" x1="353.6" x2="544.4174" y1="195.9" y2="195.9"/><text fill="#000000" font-family="sans-serif" font-size="14" lengthAdjust="spacing" textLength="180.8174" x="358.6" y="212.8951">annotation with members</text><line style="stroke:#181818;stroke-width:0.5;" x1="353.6" x2="544.4174" y1="220.1969" y2="220.1969"/><text fill="#000000" font-family="sans-serif" font-size="14" lengthAdjust="spacing" textLength="79.2148" x="358.6" y="237.192">String foo()</text><text fill="#000000" font-family="sans-serif" font-size="14" lengthAdjust="spacing" textLength="80.377" x="358.6" y="253.4889">String bar()</text></g><!--reverse link List to AbstractList--><g class="link" data-entity-1="ent0004" data-entity-2="ent0002" data-link-type="extension" data-source-line="6" id="lnk6"><path codeLine="6" d="M238.6643,97.3322 C244.1343,126.5322 250.16,158.72 255.64,187.99" fill="none" id="List-backto-AbstractList" style="stroke:#181818;stroke-width:1;"/><polygon fill="none" points="235.35,79.64,232.7669,98.437,244.5617,96.2275,235.35,79.64" style="stroke:#181818;stroke-width:1;"/></g><!--reverse link Collection to AbstractCollection--><g class="link" data-entity-1="ent0005" data-entity-2="ent0003" data-link-type="extension" data-source-line="7" id="lnk7"><path codeLine="7" d="M98.0236,97.5561 C95.1936,126.7561 92.1,158.72 89.27,187.99" fill="none" id="Collection-backto-AbstractCollection" style="stroke:#181818;stroke-width:1;"/><polygon fill="none" points="99.76,79.64,92.0516,96.9773,103.9956,98.1348,99.76,79.64" style="stroke:#181818;stroke-width:1;"/></g><!--reverse link Collection to List--><g class="link" data-entity-1="ent0005" data-entity-2="ent0004" data-link-type="extension" data-source-line="9" id="lnk8"><path codeLine="9" d="M170.9,55.45 C187.38,55.45 185.85,55.45 202.33,55.45" fill="none" id="Collection-backto-List" style="stroke:#181818;stroke-width:1;"/><polygon fill="none" points="152.9,55.45,170.9,61.45,170.9,49.45,152.9,55.45" style="stroke:#181818;stroke-width:1;"/></g><!--reverse link AbstractCollection to AbstractList--><g class="link" data-entity-1="ent0003" data-entity-2="ent0002" data-link-type="extension" data-source-line="10" id="lnk9"><path codeLine="10" d="M185.43,212.34 C197,212.34 190.57,212.34 202.14,212.34" fill="none" id="AbstractCollection-backto-AbstractList" style="stroke:#181818;stroke-width:1;"/><polygon fill="none" points="167.43,212.34,185.43,218.34,185.43,206.34,167.43,212.34" style="stroke:#181818;stroke-width:1;"/></g><!--reverse link AbstractList to ArrayList--><g class="link" data-entity-1="ent0002" data-entity-2="ent0010" data-link-type="extension" data-source-line="11" id="lnk11"><path codeLine="11" d="M260.01,254.59 C260.01,277.06 260.01,293.54 260.01,320.36" fill="none" id="AbstractList-backto-ArrayList" style="stroke:#181818;stroke-width:1;"/><polygon fill="none" points="260.01,236.59,254.01,254.59,266.01,254.59,260.01,236.59" style="stroke:#181818;stroke-width:1;"/></g><?plantuml-src PO_FJiCm3CRlUGeVuR0tu58n9920INGLGeY3MtcGgN4csnFYtxkJT2rjnCdv_FlysS5MJR0pw7fKXMgKjrxDuSIcxcNiU-hCHtQUZMI77S5WdUN2upA2Y-_LgioTBILSZfQUqvB_le4LsKinfelWny3S-CUf0LyEODFkKzRp2r1FWTZMQ9ZQwZ_fxDpzE4Ty3B3rWHhsfv5rzLIdShrf7dAzkxbljbTrzY9pD1mkgu-7Wv3g8mfxVjK2LlCp1ox8kxSt21HQ4asaDad3i8in7VCdMvHysoy0?></g></svg>