<svg xmlns="http://www.w3.org/2000/svg" xmlns:xlink="http://www.w3.org/1999/xlink" contentStyleType="text/css" data-diagram-type="CLASS" height="100px" preserveAspectRatio="none" style="width:138px;height:100px;background:#FFFFFF;" version="1.1" viewBox="0 0 138 100" width="138px" zoomAndPan="magnify"><?plantuml 1.2026.3beta5?><defs/><g><!--class Dummy--><g class="entity" data-qualified-name="Dummy" data-source-line="1" id="ent0002"><rect fill="#F1F1F1" height="80.5938" rx="2.5" ry="2.5" style="stroke:#181818;stroke-width:0.5;" width="118.3604" x="7" y="7"/><ellipse cx="36.0159" cy="23" fill="#ADD1B2" rx="11" ry="11" style="stroke:#181818;stroke-width:1;"/><path d="M38.9847,28.6406 Q38.4065,28.9375 37.7659,29.0781 Q37.1253,29.2344 36.4222,29.2344 Q33.9222,29.2344 32.594,27.5938 Q31.2815,25.9375 31.2815,22.8125 Q31.2815,19.6875 32.594,18.0313 Q33.9222,16.375 36.4222,16.375 Q37.1253,16.375 37.7659,16.5313 Q38.4222,16.6875 38.9847,16.9844 L38.9847,19.7031 Q38.3597,19.125 37.7659,18.8594 Q37.1722,18.5781 36.5472,18.5781 Q35.2034,18.5781 34.5159,19.6563 Q33.8284,20.7188 33.8284,22.8125 Q33.8284,24.9063 34.5159,25.9844 Q35.2034,27.0469 36.5472,27.0469 Q37.1722,27.0469 37.7659,26.7813 Q38.3597,26.5 38.9847,25.9219 L38.9847,28.6406 Z " fill="#000000"/><text fill="#000000" font-family="sans-serif" font-size="14" lengthAdjust="spacing" textLength="55.2139" x="53.1306" y="27.8467">Dummy</text><line style="stroke:#181818;stroke-width:0.5;" x1="8" x2="124.3604" y1="39" y2="39"/><text fill="#000000" font-family="sans-serif" font-size="14" lengthAdjust="spacing" text-decoration="underline" textLength="59.0078" x="13" y="55.9951">String id</text><line style="stroke:#181818;stroke-width:0.5;" x1="8" x2="124.3604" y1="63.2969" y2="63.2969"/><text fill="#000000" font-family="sans-serif" font-size="14" font-style="italic" lengthAdjust="spacing" textLength="106.3604" x="13" y="80.292">void methods()</text></g><?plantuml-src Iyv9B2vMS2dDpQrKgEPIKAWkBaaioKokLGWkAShCIrV8J0499YOLbnGb9fVKAfJbPwOevAQMPEId56jeSjK20000?></g></svg>