<svg xmlns="http://www.w3.org/2000/svg" xmlns:xlink="http://www.w3.org/1999/xlink" contentStyleType="text/css" data-diagram-type="CLASS" height="100px" preserveAspectRatio="none" style="width:234px;height:100px;background:#FFFFFF;" version="1.1" viewBox="0 0 234 100" width="234px" zoomAndPan="magnify"><?plantuml 1.2026.3beta5?><defs/><g><!--class Dummy--><g class="entity" data-qualified-name="Dummy" data-source-line="1" id="ent0002"><rect fill="#F1F1F1" height="80.5938" rx="2.5" ry="2.5" style="stroke:#181818;stroke-width:0.5;" width="214.6172" x="7" y="7"/><ellipse cx="82.4517" cy="23" fill="#ADD1B2" rx="11" ry="11" style="stroke:#181818;stroke-width:1;"/><path d="M85.4204,28.6406 Q84.8423,28.9375 84.2017,29.0781 Q83.561,29.2344 82.8579,29.2344 Q80.3579,29.2344 79.0298,27.5938 Q77.7173,25.9375 77.7173,22.8125 Q77.7173,19.6875 79.0298,18.0313 Q80.3579,16.375 82.8579,16.375 Q83.561,16.375 84.2017,16.5313 Q84.8579,16.6875 85.4204,16.9844 L85.4204,19.7031 Q84.7954,19.125 84.2017,18.8594 Q83.6079,18.5781 82.9829,18.5781 Q81.6392,18.5781 80.9517,19.6563 Q80.2642,20.7188 80.2642,22.8125 Q80.2642,24.9063 80.9517,25.9844 Q81.6392,27.0469 82.9829,27.0469 Q83.6079,27.0469 84.2017,26.7813 Q84.7954,26.5 85.4204,25.9219 L85.4204,28.6406 Z " fill="#000000"/><text fill="#000000" font-family="sans-serif" font-size="14" lengthAdjust="spacing" textLength="55.2139" x="102.9517" y="27.8467">Dummy</text><line style="stroke:#181818;stroke-width:0.5;" x1="8" x2="220.6172" y1="39" y2="39"/><text fill="#000000" font-family="sans-serif" font-size="14" lengthAdjust="spacing" textLength="202.6172" x="13" y="55.9951">A field (despite parentheses)</text><line style="stroke:#181818;stroke-width:0.5;" x1="8" x2="220.6172" y1="63.2969" y2="63.2969"/><text fill="#000000" font-family="sans-serif" font-size="14" lengthAdjust="spacing" textLength="98.2188" x="13" y="80.292">Some method</text></g><?plantuml-src Iyv9B2vMS2dDpQrKgEPIKAXEoqpDIQbLS5G0CnGqKbAB2p9BKXKA4ejIyqeoKejJYpL1wd9JIpBoWGg3ytDJ5I0Shbe0?></g></svg>