<svg xmlns="http://www.w3.org/2000/svg" xmlns:xlink="http://www.w3.org/1999/xlink" contentStyleType="text/css" data-diagram-type="CLASS" height="102px" preserveAspectRatio="none" style="width:343px;height:102px;background:#FFFFFF;" version="1.1" viewBox="0 0 343 102" width="343px" zoomAndPan="magnify"><?plantuml 1.2026.3beta5?><defs/><g><!--class Dummy--><g class="entity" data-qualified-name="Dummy" data-source-line="1" id="ent0002"><rect fill="#F1F1F1" height="80.5938" rx="2.5" ry="2.5" style="stroke:#181818;stroke-width:0.5;" width="118.3604" x="7" y="7"/><ellipse cx="36.0159" cy="23" fill="#ADD1B2" rx="11" ry="11" style="stroke:#181818;stroke-width:1;"/><path d="M38.9847,28.6406 Q38.4065,28.9375 37.7659,29.0781 Q37.1253,29.2344 36.4222,29.2344 Q33.9222,29.2344 32.594,27.5938 Q31.2815,25.9375 31.2815,22.8125 Q31.2815,19.6875 32.594,18.0313 Q33.9222,16.375 36.4222,16.375 Q37.1253,16.375 37.7659,16.5313 Q38.4222,16.6875 38.9847,16.9844 L38.9847,19.7031 Q38.3597,19.125 37.7659,18.8594 Q37.1722,18.5781 36.5472,18.5781 Q35.2034,18.5781 34.5159,19.6563 Q33.8284,20.7188 33.8284,22.8125 Q33.8284,24.9063 34.5159,25.9844 Q35.2034,27.0469 36.5472,27.0469 Q37.1722,27.0469 37.7659,26.7813 Q38.3597,26.5 38.9847,25.9219 L38.9847,28.6406 Z " fill="#000000"/><text fill="#000000" font-family="sans-serif" font-size="14" lengthAdjust="spacing" textLength="55.2139" x="53.1306" y="27.8467">Dummy</text><line style="stroke:#181818;stroke-width:0.5;" x1="8" x2="124.3604" y1="39" y2="39"/><text fill="#000000" font-family="sans-serif" font-size="14" lengthAdjust="spacing" textLength="77.7656" x="13" y="55.9951">String data</text><line style="stroke:#181818;stroke-width:0.5;" x1="8" x2="124.3604" y1="63.2969" y2="63.2969"/><text fill="#000000" font-family="sans-serif" font-size="14" lengthAdjust="spacing" textLength="106.3604" x="13" y="80.292">void methods()</text></g><!--class Flight--><g class="entity" data-qualified-name="Flight" data-source-line="6" id="ent0003"><rect fill="#F1F1F1" height="80.5938" rx="2.5" ry="2.5" style="stroke:#181818;stroke-width:0.5;" width="168.1738" x="160.09" y="7"/><ellipse cx="220.3864" cy="23" fill="#ADD1B2" rx="11" ry="11" style="stroke:#181818;stroke-width:1;"/><path d="M223.3551,28.6406 Q222.777,28.9375 222.1364,29.0781 Q221.4958,29.2344 220.7926,29.2344 Q218.2926,29.2344 216.9645,27.5938 Q215.652,25.9375 215.652,22.8125 Q215.652,19.6875 216.9645,18.0313 Q218.2926,16.375 220.7926,16.375 Q221.4958,16.375 222.1364,16.5313 Q222.7926,16.6875 223.3551,16.9844 L223.3551,19.7031 Q222.7301,19.125 222.1364,18.8594 Q221.5426,18.5781 220.9176,18.5781 Q219.5739,18.5781 218.8864,19.6563 Q218.1989,20.7188 218.1989,22.8125 Q218.1989,24.9063 218.8864,25.9844 Q219.5739,27.0469 220.9176,27.0469 Q221.5426,27.0469 222.1364,26.7813 Q222.7301,26.5 223.3551,25.9219 L223.3551,28.6406 Z " fill="#000000"/><text fill="#000000" font-family="sans-serif" font-size="14" lengthAdjust="spacing" textLength="39.0811" x="240.8864" y="27.8467">Flight</text><line style="stroke:#181818;stroke-width:0.5;" x1="161.09" x2="327.2638" y1="39" y2="39"/><text fill="#000000" font-family="sans-serif" font-size="14" lengthAdjust="spacing" textLength="156.1738" x="166.09" y="55.9951">flightNumber : Integer</text><text fill="#000000" font-family="sans-serif" font-size="14" lengthAdjust="spacing" textLength="151.2246" x="166.09" y="72.292">departureTime : Date</text><line style="stroke:#181818;stroke-width:0.5;" x1="161.09" x2="327.2638" y1="79.5938" y2="79.5938"/></g><?plantuml-src 7Oj13eCm30JlViKUsozmHfLwwGK-O8WR8c50ZeE4AluEpMrMipFEd3FQedhWHq3dbfQ8mCxtsjSKeEBJ6lBZIIVHMF-lESN9Qu1lvK_HGGmDtejB5FkR81kR5vC-gTogPHSwBm00?></g></svg>