<svg xmlns="http://www.w3.org/2000/svg" xmlns:xlink="http://www.w3.org/1999/xlink" contentStyleType="text/css" data-diagram-type="CLASS" height="126px" preserveAspectRatio="none" style="width:384px;height:126px;background:#FFFFFF;" version="1.1" viewBox="0 0 384 126" width="384px" zoomAndPan="magnify"><?plantuml 1.2026.3beta5?><defs/><g><!--class User--><g class="entity" data-qualified-name="User" data-source-line="3" id="ent0002"><rect fill="#F1F1F1" height="80.5938" rx="2.5" ry="2.5" style="stroke:#181818;stroke-width:0.5;" width="144.1113" x="7" y="31"/><ellipse cx="58.8506" cy="47" fill="#ADD1B2" rx="11" ry="11" style="stroke:#181818;stroke-width:1;"/><path d="M61.8193,52.6406 Q61.2412,52.9375 60.6006,53.0781 Q59.96,53.2344 59.2568,53.2344 Q56.7568,53.2344 55.4287,51.5938 Q54.1162,49.9375 54.1162,46.8125 Q54.1162,43.6875 55.4287,42.0313 Q56.7568,40.375 59.2568,40.375 Q59.96,40.375 60.6006,40.5313 Q61.2568,40.6875 61.8193,40.9844 L61.8193,43.7031 Q61.1943,43.125 60.6006,42.8594 Q60.0068,42.5781 59.3818,42.5781 Q58.0381,42.5781 57.3506,43.6563 Q56.6631,44.7188 56.6631,46.8125 Q56.6631,48.9063 57.3506,49.9844 Q58.0381,51.0469 59.3818,51.0469 Q60.0068,51.0469 60.6006,50.7813 Q61.1943,50.5 61.8193,49.9219 L61.8193,52.6406 Z " fill="#000000"/><text fill="#000000" font-family="sans-serif" font-size="14" lengthAdjust="spacing" textLength="31.9102" x="79.3506" y="51.8467">User</text><line style="stroke:#181818;stroke-width:0.5;" x1="8" x2="150.1113" y1="63" y2="63"/><text fill="#000000" font-family="sans-serif" font-size="14" lengthAdjust="spacing" textLength="87.8145" x="13" y="79.9951">id : INTEGER</text><line style="stroke:#181818;stroke-width:1;stroke-dasharray:1,2;" x1="8" x2="150.1113" y1="87.2969" y2="87.2969"/><text fill="#000000" font-family="sans-serif" font-size="14" lengthAdjust="spacing" textLength="132.1113" x="13" y="104.292">other_id : INTEGER</text></g><!--class Email--><g class="entity" data-qualified-name="Email" data-source-line="9" id="ent0003"><rect fill="#F1F1F1" height="96.8906" rx="2.5" ry="2.5" style="stroke:#181818;stroke-width:0.5;" width="142.3477" x="227" y="7"/><ellipse cx="274.5029" cy="23" fill="#ADD1B2" rx="11" ry="11" style="stroke:#181818;stroke-width:1;"/><path d="M277.4717,28.6406 Q276.8936,28.9375 276.2529,29.0781 Q275.6123,29.2344 274.9092,29.2344 Q272.4092,29.2344 271.0811,27.5938 Q269.7686,25.9375 269.7686,22.8125 Q269.7686,19.6875 271.0811,18.0313 Q272.4092,16.375 274.9092,16.375 Q275.6123,16.375 276.2529,16.5313 Q276.9092,16.6875 277.4717,16.9844 L277.4717,19.7031 Q276.8467,19.125 276.2529,18.8594 Q275.6592,18.5781 275.0342,18.5781 Q273.6904,18.5781 273.0029,19.6563 Q272.3154,20.7188 272.3154,22.8125 Q272.3154,24.9063 273.0029,25.9844 Q273.6904,27.0469 275.0342,27.0469 Q275.6592,27.0469 276.2529,26.7813 Q276.8467,26.5 277.4717,25.9219 L277.4717,28.6406 Z " fill="#000000"/><text fill="#000000" font-family="sans-serif" font-size="14" lengthAdjust="spacing" textLength="38.8418" x="295.0029" y="27.8467">Email</text><line style="stroke:#181818;stroke-width:0.5;" x1="228" x2="368.3477" y1="39" y2="39"/><text fill="#000000" font-family="sans-serif" font-size="14" lengthAdjust="spacing" textLength="87.8145" x="233" y="55.9951">id : INTEGER</text><line style="stroke:#181818;stroke-width:1;stroke-dasharray:1,2;" x1="228" x2="368.3477" y1="63.2969" y2="63.2969"/><text fill="#000000" font-family="sans-serif" font-size="14" lengthAdjust="spacing" textLength="125.3506" x="233" y="80.292">user_id : INTEGER</text><text fill="#000000" font-family="sans-serif" font-size="14" lengthAdjust="spacing" textLength="130.3477" x="233" y="96.5889">address : INTEGER</text></g><!--reverse link User to Email--><g class="link" data-entity-1="ent0002" data-entity-2="ent0003" data-link-type="composition" data-source-line="16" id="lnk4"><path codeLine="16" d="M164,75 C196.89,75 193.11,75 226,75" fill="none" id="User-backto-Email" style="stroke:#181818;stroke-width:1;"/><polygon fill="#181818" points="152,75,158,79,164,75,158,71,152,75" style="stroke:#181818;stroke-width:1;"/></g><?plantuml-src oqbDAr4eoLSeoapFA558oInAJIx9pC_ZuahEIImkLWWjJYrIgEPIKCXCKR1IyFGBSNLt3G9ozVI0H7v9HcfHF8fCBKoZQsvYPWvEdQN5w1eL519JKefIWJfH30FPRsK5LAcbgminqyeAgXa0?></g></svg>