<svg xmlns="http://www.w3.org/2000/svg" xmlns:xlink="http://www.w3.org/1999/xlink" contentStyleType="text/css" data-diagram-type="CLASS" height="267px" preserveAspectRatio="none" style="width:218px;height:267px;background:#FFFFFF;" version="1.1" viewBox="0 0 218 267" width="218px" zoomAndPan="magnify"><?plantuml 1.2026.3beta5?><defs/><g><!--class Foo--><g class="entity" data-qualified-name="Foo" data-source-line="1" id="ent0002"><rect fill="#F1F1F1" height="80.5938" rx="2.5" ry="2.5" style="stroke:#181818;stroke-width:0.5;" width="65.1152" x="86.83" y="7"/><ellipse cx="105.3992" cy="23" fill="#ADD1B2" rx="11" ry="11" style="stroke:#181818;stroke-width:1;"/><path d="M108.368,28.6406 Q107.7899,28.9375 107.1492,29.0781 Q106.5086,29.2344 105.8055,29.2344 Q103.3055,29.2344 101.9774,27.5938 Q100.6649,25.9375 100.6649,22.8125 Q100.6649,19.6875 101.9774,18.0313 Q103.3055,16.375 105.8055,16.375 Q106.5086,16.375 107.1492,16.5313 Q107.8055,16.6875 108.368,16.9844 L108.368,19.7031 Q107.743,19.125 107.1492,18.8594 Q106.5555,18.5781 105.9305,18.5781 Q104.5867,18.5781 103.8992,19.6563 Q103.2117,20.7188 103.2117,22.8125 Q103.2117,24.9063 103.8992,25.9844 Q104.5867,27.0469 105.9305,27.0469 Q106.5555,27.0469 107.1492,26.7813 Q107.743,26.5 108.368,25.9219 L108.368,28.6406 Z " fill="#000000"/><text fill="#000000" font-family="sans-serif" font-size="14" lengthAdjust="spacing" textLength="25.1836" x="120.1924" y="27.8467">Foo</text><line style="stroke:#181818;stroke-width:0.5;" x1="87.83" x2="150.9452" y1="39" y2="39"/><g data-visibility-modifier="PUBLIC_FIELD"><ellipse cx="97.83" cy="52.6484" fill="none" rx="3" ry="3" style="stroke:#038048;stroke-width:1;"/></g><text fill="#000000" font-family="sans-serif" font-size="14" lengthAdjust="spacing" textLength="39.1152" x="106.83" y="55.9951">field1</text><g data-visibility-modifier="PUBLIC_FIELD"><ellipse cx="97.83" cy="68.9453" fill="none" rx="3" ry="3" style="stroke:#038048;stroke-width:1;"/></g><text fill="#000000" font-family="sans-serif" font-size="14" lengthAdjust="spacing" textLength="39.1152" x="106.83" y="72.292">field2</text><line style="stroke:#181818;stroke-width:0.5;" x1="87.83" x2="150.9452" y1="79.5938" y2="79.5938"/></g><!--class Bar--><g class="entity" data-qualified-name="Bar" data-source-line="6" id="ent0003"><rect fill="#F1F1F1" height="80.5938" rx="2.5" ry="2.5" style="stroke:#181818;stroke-width:0.5;" width="65.1152" x="86.83" y="172"/><ellipse cx="105.9591" cy="188" fill="#ADD1B2" rx="11" ry="11" style="stroke:#181818;stroke-width:1;"/><path d="M108.9279,193.6406 Q108.3497,193.9375 107.7091,194.0781 Q107.0685,194.2344 106.3654,194.2344 Q103.8654,194.2344 102.5372,192.5938 Q101.2247,190.9375 101.2247,187.8125 Q101.2247,184.6875 102.5372,183.0313 Q103.8654,181.375 106.3654,181.375 Q107.0685,181.375 107.7091,181.5313 Q108.3654,181.6875 108.9279,181.9844 L108.9279,184.7031 Q108.3029,184.125 107.7091,183.8594 Q107.1154,183.5781 106.4904,183.5781 Q105.1466,183.5781 104.4591,184.6563 Q103.7716,185.7188 103.7716,187.8125 Q103.7716,189.9063 104.4591,190.9844 Q105.1466,192.0469 106.4904,192.0469 Q107.1154,192.0469 107.7091,191.7813 Q108.3029,191.5 108.9279,190.9219 L108.9279,193.6406 Z " fill="#000000"/><text fill="#000000" font-family="sans-serif" font-size="14" lengthAdjust="spacing" textLength="23.9395" x="120.8767" y="192.8467">Bar</text><line style="stroke:#181818;stroke-width:0.5;" x1="87.83" x2="150.9452" y1="204" y2="204"/><g data-visibility-modifier="PUBLIC_FIELD"><ellipse cx="97.83" cy="217.6484" fill="none" rx="3" ry="3" style="stroke:#038048;stroke-width:1;"/></g><text fill="#000000" font-family="sans-serif" font-size="14" lengthAdjust="spacing" textLength="39.1152" x="106.83" y="220.9951">field3</text><g data-visibility-modifier="PUBLIC_FIELD"><ellipse cx="97.83" cy="233.9453" fill="none" rx="3" ry="3" style="stroke:#038048;stroke-width:1;"/></g><text fill="#000000" font-family="sans-serif" font-size="14" lengthAdjust="spacing" textLength="39.1152" x="106.83" y="237.292">field4</text><line style="stroke:#181818;stroke-width:0.5;" x1="87.83" x2="150.9452" y1="244.5938" y2="244.5938"/></g><!--link Foo to Bar--><g class="link" data-entity-1="ent0002" data-entity-2="ent0003" data-link-type="dependency" data-source-line="11" id="lnk4"><path codeLine="11" d="M85.33,51 C12,51 6,216 79.33,216" fill="none" id="Foo-to-Bar" style="stroke:#181818;stroke-width:1;"/><polygon fill="#181818" points="85.33,216,76.33,212,80.33,216,76.33,220,85.33,216" style="stroke:#181818;stroke-width:1;"/><text fill="#000000" font-family="sans-serif" font-size="13" lengthAdjust="spacing" textLength="20.4839" x="32.33" y="134.0669">foo</text></g><!--link Foo to Bar--><g class="link" data-entity-1="ent0002" data-entity-2="ent0003" data-link-type="dependency" data-source-line="12" id="lnk5"><path codeLine="12" d="M153.33,67 C190,67 196,232 159.33,232" fill="none" id="Foo-to-Bar-1" style="stroke:#181818;stroke-width:1;"/><polygon fill="#181818" points="153.33,232,162.33,236,158.33,232,162.33,228,153.33,232" style="stroke:#181818;stroke-width:1;"/><text fill="#000000" font-family="sans-serif" font-size="13" lengthAdjust="spacing" textLength="21.563" x="181.33" y="134.0669">bar</text></g><?plantuml-src Iyv9B2vMSClFLwZcqbP8oqpDIJ64COouQhcuai4Ad1AB40gCOGmJa0AWNYihY4O5NLqxa58etrZ1IY4jFnz9XH6Q2XEWYgJ48W00?></g></svg>