<svg xmlns="http://www.w3.org/2000/svg" xmlns:xlink="http://www.w3.org/1999/xlink" contentStyleType="text/css" data-diagram-type="CLASS" height="91px" preserveAspectRatio="none" style="width:383px;height:91px;background:#FFFFFF;" version="1.1" viewBox="0 0 383 91" width="383px" zoomAndPan="magnify"><?plantuml 1.2026.3beta5?><defs/><g><!--class Station--><g class="entity" data-qualified-name="Station" data-source-line="1" id="ent0002"><rect fill="#F1F1F1" height="64.2969" rx="2.5" ry="2.5" style="stroke:#181818;stroke-width:0.5;" width="115.0586" x="253.73" y="10.6847"/><ellipse cx="283.7088" cy="26.6847" fill="#ADD1B2" rx="11" ry="11" style="stroke:#181818;stroke-width:1;"/><path d="M286.6775,32.3254 Q286.0994,32.6222 285.4588,32.7629 Q284.8181,32.9191 284.115,32.9191 Q281.615,32.9191 280.2869,31.2785 Q278.9744,29.6222 278.9744,26.4972 Q278.9744,23.3722 280.2869,21.716 Q281.615,20.0597 284.115,20.0597 Q284.8181,20.0597 285.4588,20.216 Q286.115,20.3722 286.6775,20.6691 L286.6775,23.3879 Q286.0525,22.8097 285.4588,22.5441 Q284.865,22.2629 284.24,22.2629 Q282.8963,22.2629 282.2088,23.341 Q281.5213,24.4035 281.5213,26.4972 Q281.5213,28.591 282.2088,29.6691 Q282.8963,30.7316 284.24,30.7316 Q284.865,30.7316 285.4588,30.466 Q286.0525,30.1847 286.6775,29.6066 L286.6775,32.3254 Z " fill="#000000"/><text fill="#000000" font-family="sans-serif" font-size="14" lengthAdjust="spacing" textLength="49.7725" x="301.0374" y="31.5314">Station</text><line style="stroke:#181818;stroke-width:0.5;" x1="254.73" x2="367.7886" y1="42.6847" y2="42.6847"/><g data-visibility-modifier="PUBLIC_FIELD"><ellipse cx="264.73" cy="56.3332" fill="none" rx="3" ry="3" style="stroke:#038048;stroke-width:1;"/></g><text fill="#000000" font-family="sans-serif" font-size="14" lengthAdjust="spacing" textLength="89.0586" x="273.73" y="59.6799">name: string</text><line style="stroke:#181818;stroke-width:0.5;" x1="254.73" x2="367.7886" y1="66.9816" y2="66.9816"/></g><!--class StationCrossing--><g class="entity" data-qualified-name="StationCrossing" data-source-line="5" id="ent0003"><rect fill="#F1F1F1" height="64.2969" rx="2.5" ry="2.5" style="stroke:#181818;stroke-width:0.5;" width="152.5195" x="7" y="10.6847"/><ellipse cx="26.6859" cy="26.6847" fill="#ADD1B2" rx="11" ry="11" style="stroke:#181818;stroke-width:1;"/><path d="M29.6546,32.3254 Q29.0765,32.6222 28.4359,32.7629 Q27.7953,32.9191 27.0921,32.9191 Q24.5921,32.9191 23.264,31.2785 Q21.9515,29.6222 21.9515,26.4972 Q21.9515,23.3722 23.264,21.716 Q24.5921,20.0597 27.0921,20.0597 Q27.7953,20.0597 28.4359,20.216 Q29.0921,20.3722 29.6546,20.6691 L29.6546,23.3879 Q29.0296,22.8097 28.4359,22.5441 Q27.8421,22.2629 27.2171,22.2629 Q25.8734,22.2629 25.1859,23.341 Q24.4984,24.4035 24.4984,26.4972 Q24.4984,28.591 25.1859,29.6691 Q25.8734,30.7316 27.2171,30.7316 Q27.8421,30.7316 28.4359,30.466 Q29.0296,30.1847 29.6546,29.6066 L29.6546,32.3254 Z " fill="#000000"/><text fill="#000000" font-family="sans-serif" font-size="14" lengthAdjust="spacing" textLength="110.1064" x="41.7272" y="31.5314">StationCrossing</text><line style="stroke:#181818;stroke-width:0.5;" x1="8" x2="158.5195" y1="42.6847" y2="42.6847"/><g data-visibility-modifier="PUBLIC_FIELD"><ellipse cx="18" cy="56.3332" fill="none" rx="3" ry="3" style="stroke:#038048;stroke-width:1;"/></g><text fill="#000000" font-family="sans-serif" font-size="14" lengthAdjust="spacing" textLength="126.5195" x="27" y="59.6799">cost: TimeInterval</text><line style="stroke:#181818;stroke-width:0.5;" x1="8" x2="158.5195" y1="66.9816" y2="66.9816"/></g><polygon fill="#F1F1F1" points="206.26,30.8347,218.26,42.8347,206.26,54.8347,194.26,42.8347,206.26,30.8347" style="stroke:#181818;stroke-width:0.5;"/><!--link StationCrossing to diamond--><g class="link" data-entity-1="ent0003" data-entity-2="ent0004" data-link-type="association" data-source-line="11" id="lnk5"><path codeLine="11" d="M159.65,42.8347 C171.06,42.8347 182.47,42.8347 193.88,42.8347" fill="none" id="StationCrossing-diamond" style="stroke:#181818;stroke-width:1;stroke-dasharray:7,7;"/></g><!--link diamond to Station--><g class="link" data-entity-1="ent0004" data-entity-2="ent0002" data-link-type="association" data-source-line="12" id="lnk6"><path codeLine="12" d="M215.69,45.7847 C228.26,49.3147 240.83,51.3047 253.4,51.7447" fill="none" id="diamond-Station" style="stroke:#181818;stroke-width:1;"/><text fill="#000000" font-family="sans-serif" font-size="13" lengthAdjust="spacing" textLength="57.7065" x="193.3289" y="74.7091">from 0..*</text></g><!--link diamond to Station--><g class="link" data-entity-1="ent0004" data-entity-2="ent0002" data-link-type="association" data-source-line="13" id="lnk7"><path codeLine="13" d="M215.69,39.8947 C228.26,36.3547 240.83,34.3747 253.4,33.9347" fill="none" id="diamond-Station-1" style="stroke:#181818;stroke-width:1;"/><text fill="#000000" font-family="sans-serif" font-size="13" lengthAdjust="spacing" textLength="40.2188" x="210.3729" y="19.6328">to 0..*</text></g><?plantuml-src Iyv9B2vM22v9BCdCprEevb800ksynDnKAuNYagBCl7IkMYwkP6H5paNvnSL02PZYvFpY4Yk5aCpSLC-yajIYiiGSa1OREuMKpCJS_BmKBYvqZNfmAIYjeAkWb5QKdwjWeAUdfGIp25cs91yifm2N1000?></g></svg>