<svg xmlns="http://www.w3.org/2000/svg" xmlns:xlink="http://www.w3.org/1999/xlink" contentStyleType="text/css" data-diagram-type="CLASS" height="334px" preserveAspectRatio="none" style="width:210px;height:334px;background:#FFFFFF;" version="1.1" viewBox="0 0 210 334" width="210px" zoomAndPan="magnify"><?plantuml 1.2026.3beta5?><defs/><g><!--class Student--><g class="entity" data-qualified-name="Student" data-source-line="1" id="ent0002"><rect fill="#F1F1F1" height="64.2969" rx="2.5" ry="2.5" style="stroke:#181818;stroke-width:0.5;" width="87.1113" x="7" y="7"/><ellipse cx="22" cy="23" fill="#ADD1B2" rx="11" ry="11" style="stroke:#181818;stroke-width:1;"/><path d="M24.9688,28.6406 Q24.3906,28.9375 23.75,29.0781 Q23.1094,29.2344 22.4063,29.2344 Q19.9063,29.2344 18.5781,27.5938 Q17.2656,25.9375 17.2656,22.8125 Q17.2656,19.6875 18.5781,18.0313 Q19.9063,16.375 22.4063,16.375 Q23.1094,16.375 23.75,16.5313 Q24.4063,16.6875 24.9688,16.9844 L24.9688,19.7031 Q24.3438,19.125 23.75,18.8594 Q23.1563,18.5781 22.5313,18.5781 Q21.1875,18.5781 20.5,19.6563 Q19.8125,20.7188 19.8125,22.8125 Q19.8125,24.9063 20.5,25.9844 Q21.1875,27.0469 22.5313,27.0469 Q23.1563,27.0469 23.75,26.7813 Q24.3438,26.5 24.9688,25.9219 L24.9688,28.6406 Z " fill="#000000"/><text fill="#000000" font-family="sans-serif" font-size="14" lengthAdjust="spacing" textLength="55.1113" x="36" y="27.8467">Student</text><line style="stroke:#181818;stroke-width:0.5;" x1="8" x2="93.1113" y1="39" y2="39"/><text fill="#000000" font-family="sans-serif" font-size="14" lengthAdjust="spacing" textLength="41.3027" x="13" y="55.9951">Name</text><line style="stroke:#181818;stroke-width:0.5;" x1="8" x2="93.1113" y1="63.2969" y2="63.2969"/></g><!--class Course--><g class="entity" data-qualified-name="Course" data-source-line="4" id="ent0003"><rect fill="#F1F1F1" height="48" rx="2.5" ry="2.5" style="stroke:#181818;stroke-width:0.5;" width="80.877" x="10.12" y="271.89"/><ellipse cx="25.12" cy="287.89" fill="#ADD1B2" rx="11" ry="11" style="stroke:#181818;stroke-width:1;"/><path d="M28.0888,293.5306 Q27.5106,293.8275 26.87,293.9681 Q26.2294,294.1244 25.5263,294.1244 Q23.0263,294.1244 21.6981,292.4838 Q20.3856,290.8275 20.3856,287.7025 Q20.3856,284.5775 21.6981,282.9213 Q23.0263,281.265 25.5263,281.265 Q26.2294,281.265 26.87,281.4213 Q27.5263,281.5775 28.0888,281.8744 L28.0888,284.5931 Q27.4638,284.015 26.87,283.7494 Q26.2763,283.4681 25.6513,283.4681 Q24.3075,283.4681 23.62,284.5463 Q22.9325,285.6088 22.9325,287.7025 Q22.9325,289.7963 23.62,290.8744 Q24.3075,291.9369 25.6513,291.9369 Q26.2763,291.9369 26.87,291.6713 Q27.4638,291.39 28.0888,290.8119 L28.0888,293.5306 Z " fill="#000000"/><text fill="#000000" font-family="sans-serif" font-size="14" lengthAdjust="spacing" textLength="48.877" x="39.12" y="292.7367">Course</text><line style="stroke:#181818;stroke-width:0.5;" x1="11.12" x2="89.997" y1="303.89" y2="303.89"/><line style="stroke:#181818;stroke-width:0.5;" x1="11.12" x2="89.997" y1="311.89" y2="311.89"/></g><!--class Enrollment--><g class="entity" data-qualified-name="Enrollment" data-source-line="5" id="ent0005"><rect fill="#F1F1F1" height="80.5938" rx="2.5" ry="2.5" style="stroke:#181818;stroke-width:0.5;" width="108.4326" x="87.34" y="131.3"/><ellipse cx="102.34" cy="147.3" fill="#ADD1B2" rx="11" ry="11" style="stroke:#181818;stroke-width:1;"/><path d="M105.3088,152.9406 Q104.7306,153.2375 104.09,153.3781 Q103.4494,153.5344 102.7463,153.5344 Q100.2463,153.5344 98.9181,151.8937 Q97.6056,150.2375 97.6056,147.1125 Q97.6056,143.9875 98.9181,142.3312 Q100.2463,140.675 102.7463,140.675 Q103.4494,140.675 104.09,140.8312 Q104.7463,140.9875 105.3088,141.2844 L105.3088,144.0031 Q104.6838,143.425 104.09,143.1594 Q103.4963,142.8781 102.8713,142.8781 Q101.5275,142.8781 100.84,143.9562 Q100.1525,145.0187 100.1525,147.1125 Q100.1525,149.2062 100.84,150.2844 Q101.5275,151.3469 102.8713,151.3469 Q103.4963,151.3469 104.09,151.0812 Q104.6838,150.8 105.3088,150.2219 L105.3088,152.9406 Z " fill="#000000"/><text fill="#000000" font-family="sans-serif" font-size="14" lengthAdjust="spacing" textLength="76.4326" x="116.34" y="152.1467">Enrollment</text><line style="stroke:#181818;stroke-width:0.5;" x1="88.34" x2="194.7726" y1="163.3" y2="163.3"/><line style="stroke:#181818;stroke-width:0.5;" x1="88.34" x2="194.7726" y1="171.3" y2="171.3"/><text fill="#000000" font-family="sans-serif" font-size="14" lengthAdjust="spacing" textLength="43.0186" x="93.34" y="188.2951">drop()</text><text fill="#000000" font-family="sans-serif" font-size="14" lengthAdjust="spacing" textLength="56.2734" x="93.34" y="204.592">cancel()</text></g><ellipse cx="50.56" cy="171.59" fill="#181818" rx="2" ry="2" style="stroke:#181818;stroke-width:1;"/><!--link Student to apoint6--><g class="link" data-entity-1="ent0002" data-entity-2="ent0007" data-link-type="association" data-source-line="5" id="lnk8"><path d="M50.56,71.72 C50.56,107.31 50.56,161.31 50.56,169.53" fill="none" id="Student-apoint6" style="stroke:#181818;stroke-width:1;"/><text fill="#000000" font-family="sans-serif" font-size="13" lengthAdjust="spacing" textLength="23.0356" x="25.372" y="91.4382">0..*</text></g><!--link apoint6 to Course--><g class="link" data-entity-1="ent0007" data-entity-2="ent0003" data-link-type="association" data-source-line="5" id="lnk9"><path d="M50.56,173.97 C50.56,183.39 50.56,239.05 50.56,271.47" fill="none" id="apoint6-Course" style="stroke:#181818;stroke-width:1;"/><text fill="#000000" font-family="sans-serif" font-size="13" lengthAdjust="spacing" textLength="23.0356" x="24.7616" y="260.7726">1..*</text></g><!--link apoint6 to Enrollment--><g class="link" data-entity-1="ent0007" data-entity-2="ent0005" data-link-type="association" data-source-line="5" id="lnk10"><path d="M53.04,171.59 C64.34,171.59 75.63,171.59 86.93,171.59" fill="none" id="apoint6-Enrollment" style="stroke:#181818;stroke-width:1;stroke-dasharray:7,7;"/></g><?plantuml-src Iyv9B2vM22ufJKdDAr6evb9Gy4lCJUMgvO89AHdewMafAUZgAYWPWbdE-QL5nQbS6b05Eb01JGKz1TUyeloSd5oWA1TNCjXWX0ZOx9IY_08DJI0ZEJ4lEJK7oAm50000?></g></svg>