<svg xmlns="http://www.w3.org/2000/svg" xmlns:xlink="http://www.w3.org/1999/xlink" contentStyleType="text/css" data-diagram-type="CLASS" height="203px" preserveAspectRatio="none" style="width:181px;height:203px;background:#FFFFFF;" version="1.1" viewBox="0 0 181 203" width="181px" zoomAndPan="magnify"><?plantuml 1.2026.3beta5?><defs/><g><!--cluster X1--><g class="cluster" data-qualified-name="X1" data-source-line="2" id="ent0003"><path d="M8.5,6 L30.0352,6 A3.75,3.75 0 0 1 32.5352,8.5 L39.5352,28.2969 L163.5,28.2969 A2.5,2.5 0 0 1 166,30.7969 L166,185.8 A2.5,2.5 0 0 1 163.5,188.3 L8.5,188.3 A2.5,2.5 0 0 1 6,185.8 L6,8.5 A2.5,2.5 0 0 1 8.5,6" fill="none" style="stroke:#000000;stroke-width:1.5;"/><line style="stroke:#000000;stroke-width:1.5;" x1="6" x2="39.5352" y1="28.2969" y2="28.2969"/><text fill="#000000" font-family="sans-serif" font-size="14" font-weight="700" lengthAdjust="spacing" textLength="20.5352" x="10" y="20.9951">X1</text></g><!--cluster X2--><g class="cluster" data-qualified-name="X1..X2" data-source-line="2" id="ent0004"><path d="M32.5,49 L54.0352,49 A3.75,3.75 0 0 1 56.5352,51.5 L63.5352,71.2969 L139.5,71.2969 A2.5,2.5 0 0 1 142,73.7969 L142,161.8 A2.5,2.5 0 0 1 139.5,164.3 L32.5,164.3 A2.5,2.5 0 0 1 30,161.8 L30,51.5 A2.5,2.5 0 0 1 32.5,49" fill="none" style="stroke:#000000;stroke-width:1.5;"/><line style="stroke:#000000;stroke-width:1.5;" x1="30" x2="63.5352" y1="71.2969" y2="71.2969"/><text fill="#000000" font-family="sans-serif" font-size="14" font-weight="700" lengthAdjust="spacing" textLength="20.5352" x="34" y="63.9951">X2</text></g><!--class foo--><g class="entity" data-qualified-name="X1..X2..foo" data-source-line="2" id="ent0002"><rect fill="#F1F1F1" height="64.2969" rx="2.5" ry="2.5" style="stroke:#181818;stroke-width:0.5;" width="80.8174" x="45.59" y="84"/><ellipse cx="72.631" cy="100" fill="#ADD1B2" rx="11" ry="11" style="stroke:#181818;stroke-width:1;"/><path d="M75.5998,105.6406 Q75.0216,105.9375 74.381,106.0781 Q73.7404,106.2344 73.0373,106.2344 Q70.5373,106.2344 69.2091,104.5938 Q67.8966,102.9375 67.8966,99.8125 Q67.8966,96.6875 69.2091,95.0313 Q70.5373,93.375 73.0373,93.375 Q73.7404,93.375 74.381,93.5313 Q75.0373,93.6875 75.5998,93.9844 L75.5998,96.7031 Q74.9748,96.125 74.381,95.8594 Q73.7873,95.5781 73.1623,95.5781 Q71.8185,95.5781 71.131,96.6563 Q70.4435,97.7188 70.4435,99.8125 Q70.4435,101.9063 71.131,102.9844 Q71.8185,104.0469 73.1623,104.0469 Q73.7873,104.0469 74.381,103.7813 Q74.9748,103.5 75.5998,102.9219 L75.5998,105.6406 Z " fill="#000000"/><text fill="#000000" font-family="sans-serif" font-size="14" lengthAdjust="spacing" textLength="22.0596" x="89.3068" y="104.8467">foo</text><line style="stroke:#181818;stroke-width:0.5;" x1="46.59" x2="125.4074" y1="116" y2="116"/><text fill="#000000" font-family="sans-serif" font-size="14" lengthAdjust="spacing" textLength="68.8174" x="51.59" y="132.9951">some info</text><line style="stroke:#181818;stroke-width:0.5;" x1="46.59" x2="125.4074" y1="140.2969" y2="140.2969"/></g><?plantuml-src AqujKIXEBKWiIYp9BrAmik9ApaaiBbQ8CBIoYZ2oiahBprUevb9GACxFJLN8p4lBvwe50000?></g></svg>