<svg xmlns="http://www.w3.org/2000/svg" xmlns:xlink="http://www.w3.org/1999/xlink" contentStyleType="text/css" data-diagram-type="CLASS" height="286px" preserveAspectRatio="none" style="width:380px;height:286px;background:#FFFFFF;" version="1.1" viewBox="0 0 380 286" width="380px" zoomAndPan="magnify"><?plantuml 1.2026.3beta5?><defs/><g><!--class foo--><g class="entity" data-qualified-name="foo" data-source-line="1" id="ent0002"><rect fill="#F1F1F1" height="48" rx="2.5" ry="2.5" style="stroke:#181818;stroke-width:0.5;" width="54.0596" x="154.05" y="115"/><ellipse cx="169.05" cy="131" fill="#ADD1B2" rx="11" ry="11" style="stroke:#181818;stroke-width:1;"/><path d="M172.0188,136.6406 Q171.4406,136.9375 170.8,137.0781 Q170.1594,137.2344 169.4563,137.2344 Q166.9563,137.2344 165.6281,135.5938 Q164.3156,133.9375 164.3156,130.8125 Q164.3156,127.6875 165.6281,126.0313 Q166.9563,124.375 169.4563,124.375 Q170.1594,124.375 170.8,124.5313 Q171.4563,124.6875 172.0188,124.9844 L172.0188,127.7031 Q171.3938,127.125 170.8,126.8594 Q170.2063,126.5781 169.5813,126.5781 Q168.2375,126.5781 167.55,127.6563 Q166.8625,128.7188 166.8625,130.8125 Q166.8625,132.9063 167.55,133.9844 Q168.2375,135.0469 169.5813,135.0469 Q170.2063,135.0469 170.8,134.7813 Q171.3938,134.5 172.0188,133.9219 L172.0188,136.6406 Z " fill="#000000"/><text fill="#000000" font-family="sans-serif" font-size="14" lengthAdjust="spacing" textLength="22.0596" x="183.05" y="135.8467">foo</text><line style="stroke:#181818;stroke-width:0.5;" x1="155.05" x2="207.1096" y1="147" y2="147"/><line style="stroke:#181818;stroke-width:0.5;" x1="155.05" x2="207.1096" y1="155" y2="155"/></g><!--class dummyLeft--><g class="entity" data-qualified-name="dummyLeft" data-source-line="1" id="ent0003"><rect fill="#F1F1F1" height="48" rx="2.5" ry="2.5" style="stroke:#181818;stroke-width:0.5;" width="112.1514" x="7" y="115"/><ellipse cx="22" cy="131" fill="#ADD1B2" rx="11" ry="11" style="stroke:#181818;stroke-width:1;"/><path d="M24.9688,136.6406 Q24.3906,136.9375 23.75,137.0781 Q23.1094,137.2344 22.4063,137.2344 Q19.9063,137.2344 18.5781,135.5938 Q17.2656,133.9375 17.2656,130.8125 Q17.2656,127.6875 18.5781,126.0313 Q19.9063,124.375 22.4063,124.375 Q23.1094,124.375 23.75,124.5313 Q24.4063,124.6875 24.9688,124.9844 L24.9688,127.7031 Q24.3438,127.125 23.75,126.8594 Q23.1563,126.5781 22.5313,126.5781 Q21.1875,126.5781 20.5,127.6563 Q19.8125,128.7188 19.8125,130.8125 Q19.8125,132.9063 20.5,133.9844 Q21.1875,135.0469 22.5313,135.0469 Q23.1563,135.0469 23.75,134.7813 Q24.3438,134.5 24.9688,133.9219 L24.9688,136.6406 Z " fill="#000000"/><text fill="#000000" font-family="sans-serif" font-size="14" lengthAdjust="spacing" textLength="80.1514" x="36" y="135.8467">dummyLeft</text><line style="stroke:#181818;stroke-width:0.5;" x1="8" x2="118.1514" y1="147" y2="147"/><line style="stroke:#181818;stroke-width:0.5;" x1="8" x2="118.1514" y1="155" y2="155"/></g><!--class dummyRight--><g class="entity" data-qualified-name="dummyRight" data-source-line="2" id="ent0006"><rect fill="#F1F1F1" height="48" rx="2.5" ry="2.5" style="stroke:#181818;stroke-width:0.5;" width="122.1865" x="242.98" y="115"/><ellipse cx="257.98" cy="131" fill="#ADD1B2" rx="11" ry="11" style="stroke:#181818;stroke-width:1;"/><path d="M260.9488,136.6406 Q260.3706,136.9375 259.73,137.0781 Q259.0894,137.2344 258.3863,137.2344 Q255.8863,137.2344 254.5581,135.5938 Q253.2456,133.9375 253.2456,130.8125 Q253.2456,127.6875 254.5581,126.0313 Q255.8863,124.375 258.3863,124.375 Q259.0894,124.375 259.73,124.5313 Q260.3863,124.6875 260.9488,124.9844 L260.9488,127.7031 Q260.3238,127.125 259.73,126.8594 Q259.1363,126.5781 258.5113,126.5781 Q257.1675,126.5781 256.48,127.6563 Q255.7925,128.7188 255.7925,130.8125 Q255.7925,132.9063 256.48,133.9844 Q257.1675,135.0469 258.5113,135.0469 Q259.1363,135.0469 259.73,134.7813 Q260.3238,134.5 260.9488,133.9219 L260.9488,136.6406 Z " fill="#000000"/><text fill="#000000" font-family="sans-serif" font-size="14" lengthAdjust="spacing" textLength="90.1865" x="271.98" y="135.8467">dummyRight</text><line style="stroke:#181818;stroke-width:0.5;" x1="243.98" x2="364.1665" y1="147" y2="147"/><line style="stroke:#181818;stroke-width:0.5;" x1="243.98" x2="364.1665" y1="155" y2="155"/></g><!--class dummyUp--><g class="entity" data-qualified-name="dummyUp" data-source-line="3" id="ent0008"><rect fill="#F1F1F1" height="48" rx="2.5" ry="2.5" style="stroke:#181818;stroke-width:0.5;" width="104.4541" x="128.85" y="7"/><ellipse cx="143.85" cy="23" fill="#ADD1B2" rx="11" ry="11" style="stroke:#181818;stroke-width:1;"/><path d="M146.8188,28.6406 Q146.2406,28.9375 145.6,29.0781 Q144.9594,29.2344 144.2563,29.2344 Q141.7563,29.2344 140.4281,27.5938 Q139.1156,25.9375 139.1156,22.8125 Q139.1156,19.6875 140.4281,18.0313 Q141.7563,16.375 144.2563,16.375 Q144.9594,16.375 145.6,16.5313 Q146.2563,16.6875 146.8188,16.9844 L146.8188,19.7031 Q146.1938,19.125 145.6,18.8594 Q145.0063,18.5781 144.3813,18.5781 Q143.0375,18.5781 142.35,19.6563 Q141.6625,20.7188 141.6625,22.8125 Q141.6625,24.9063 142.35,25.9844 Q143.0375,27.0469 144.3813,27.0469 Q145.0063,27.0469 145.6,26.7813 Q146.1938,26.5 146.8188,25.9219 L146.8188,28.6406 Z " fill="#000000"/><text fill="#000000" font-family="sans-serif" font-size="14" lengthAdjust="spacing" textLength="72.4541" x="157.85" y="27.8467">dummyUp</text><line style="stroke:#181818;stroke-width:0.5;" x1="129.85" x2="232.3041" y1="39" y2="39"/><line style="stroke:#181818;stroke-width:0.5;" x1="129.85" x2="232.3041" y1="47" y2="47"/></g><!--class dummyDown--><g class="entity" data-qualified-name="dummyDown" data-source-line="4" id="ent0011"><rect fill="#F1F1F1" height="48" rx="2.5" ry="2.5" style="stroke:#181818;stroke-width:0.5;" width="124.9893" x="118.58" y="223"/><ellipse cx="133.58" cy="239" fill="#ADD1B2" rx="11" ry="11" style="stroke:#181818;stroke-width:1;"/><path d="M136.5487,244.6406 Q135.9706,244.9375 135.33,245.0781 Q134.6894,245.2344 133.9862,245.2344 Q131.4862,245.2344 130.1581,243.5938 Q128.8456,241.9375 128.8456,238.8125 Q128.8456,235.6875 130.1581,234.0313 Q131.4862,232.375 133.9862,232.375 Q134.6894,232.375 135.33,232.5313 Q135.9862,232.6875 136.5487,232.9844 L136.5487,235.7031 Q135.9237,235.125 135.33,234.8594 Q134.7362,234.5781 134.1112,234.5781 Q132.7675,234.5781 132.08,235.6563 Q131.3925,236.7188 131.3925,238.8125 Q131.3925,240.9063 132.08,241.9844 Q132.7675,243.0469 134.1112,243.0469 Q134.7362,243.0469 135.33,242.7813 Q135.9237,242.5 136.5487,241.9219 L136.5487,244.6406 Z " fill="#000000"/><text fill="#000000" font-family="sans-serif" font-size="14" lengthAdjust="spacing" textLength="92.9893" x="147.58" y="243.8467">dummyDown</text><line style="stroke:#181818;stroke-width:0.5;" x1="119.58" x2="242.5693" y1="255" y2="255"/><line style="stroke:#181818;stroke-width:0.5;" x1="119.58" x2="242.5693" y1="263" y2="263"/></g><!--reverse link dummyLeft to foo--><g class="link" data-entity-1="ent0003" data-entity-2="ent0002" data-link-type="dependency" data-source-line="1" id="lnk5"><path codeLine="1" d="M125.31,139 C136.73,139 142.15,139 153.57,139" fill="none" id="dummyLeft-backto-foo" style="stroke:#181818;stroke-width:1;"/><polygon fill="#181818" points="119.31,139,128.31,143,124.31,139,128.31,135,119.31,139" style="stroke:#181818;stroke-width:1;"/></g><!--link foo to dummyRight--><g class="link" data-entity-1="ent0002" data-entity-2="ent0006" data-link-type="dependency" data-source-line="2" id="lnk7"><path codeLine="2" d="M208.46,139 C219.92,139 225.37,139 236.82,139" fill="none" id="foo-to-dummyRight" style="stroke:#181818;stroke-width:1;"/><polygon fill="#181818" points="242.82,139,233.82,135,237.82,139,233.82,143,242.82,139" style="stroke:#181818;stroke-width:1;"/></g><!--reverse link dummyUp to foo--><g class="link" data-entity-1="ent0008" data-entity-2="ent0002" data-link-type="dependency" data-source-line="3" id="lnk10"><path codeLine="3" d="M181.08,61.26 C181.08,78.94 181.08,97.13 181.08,114.79" fill="none" id="dummyUp-backto-foo" style="stroke:#181818;stroke-width:1;"/><polygon fill="#181818" points="181.08,55.26,177.08,64.26,181.08,60.26,185.08,64.26,181.08,55.26" style="stroke:#181818;stroke-width:1;"/></g><!--link foo to dummyDown--><g class="link" data-entity-1="ent0002" data-entity-2="ent0011" data-link-type="dependency" data-source-line="4" id="lnk12"><path codeLine="4" d="M181.08,163.26 C181.08,180.94 181.08,199.13 181.08,216.79" fill="none" id="foo-to-dummyDown" style="stroke:#181818;stroke-width:1;"/><polygon fill="#181818" points="181.08,222.79,185.08,213.79,181.08,217.79,177.08,213.79,181.08,222.79" style="stroke:#181818;stroke-width:1;"/></g><?plantuml-src IylFLz3DIKqhqRLJI2dDpQtq0RAvqa2YHPdf6N3X81078bvQ01CCBO28fEINvy74N81i0000?></g></svg>