<svg xmlns="http://www.w3.org/2000/svg" xmlns:xlink="http://www.w3.org/1999/xlink" contentStyleType="text/css" data-diagram-type="CLASS" height="178px" preserveAspectRatio="none" style="width:216px;height:178px;background:#FFFFFF;" version="1.1" viewBox="0 0 216 178" width="216px" zoomAndPan="magnify"><?plantuml 1.2026.3beta5?><defs/><g><!--class Student--><g class="entity" data-qualified-name="Student" data-source-line="1" id="ent0002"><rect fill="#F1F1F1" height="48" rx="2.5" ry="2.5" style="stroke:#181818;stroke-width:0.5;" width="87.1113" x="7" y="115"/><ellipse cx="22" cy="131" fill="#ADD1B2" rx="11" ry="11" style="stroke:#181818;stroke-width:1;"/><path d="M24.9688,136.6406 Q24.3906,136.9375 23.75,137.0781 Q23.1094,137.2344 22.4063,137.2344 Q19.9063,137.2344 18.5781,135.5938 Q17.2656,133.9375 17.2656,130.8125 Q17.2656,127.6875 18.5781,126.0313 Q19.9063,124.375 22.4063,124.375 Q23.1094,124.375 23.75,124.5313 Q24.4063,124.6875 24.9688,124.9844 L24.9688,127.7031 Q24.3438,127.125 23.75,126.8594 Q23.1563,126.5781 22.5313,126.5781 Q21.1875,126.5781 20.5,127.6563 Q19.8125,128.7188 19.8125,130.8125 Q19.8125,132.9063 20.5,133.9844 Q21.1875,135.0469 22.5313,135.0469 Q23.1563,135.0469 23.75,134.7813 Q24.3438,134.5 24.9688,133.9219 L24.9688,136.6406 Z " fill="#000000"/><text fill="#000000" font-family="sans-serif" font-size="14" lengthAdjust="spacing" textLength="55.1113" x="36" y="135.8467">Student</text><line style="stroke:#181818;stroke-width:0.5;" x1="8" x2="93.1113" y1="147" y2="147"/><line style="stroke:#181818;stroke-width:0.5;" x1="8" x2="93.1113" y1="155" y2="155"/></g><!--class Room--><g class="entity" data-qualified-name="Room" data-source-line="1" id="ent0003"><rect fill="#F1F1F1" height="48" rx="2.5" ry="2.5" style="stroke:#181818;stroke-width:0.5;" width="72.4961" x="129.31" y="115"/><ellipse cx="144.31" cy="131" fill="#ADD1B2" rx="11" ry="11" style="stroke:#181818;stroke-width:1;"/><path d="M147.2788,136.6406 Q146.7006,136.9375 146.06,137.0781 Q145.4194,137.2344 144.7163,137.2344 Q142.2163,137.2344 140.8881,135.5938 Q139.5756,133.9375 139.5756,130.8125 Q139.5756,127.6875 140.8881,126.0313 Q142.2163,124.375 144.7163,124.375 Q145.4194,124.375 146.06,124.5313 Q146.7163,124.6875 147.2788,124.9844 L147.2788,127.7031 Q146.6538,127.125 146.06,126.8594 Q145.4663,126.5781 144.8413,126.5781 Q143.4975,126.5781 142.81,127.6563 Q142.1225,128.7188 142.1225,130.8125 Q142.1225,132.9063 142.81,133.9844 Q143.4975,135.0469 144.8413,135.0469 Q145.4663,135.0469 146.06,134.7813 Q146.6538,134.5 147.2788,133.9219 L147.2788,136.6406 Z " fill="#000000"/><text fill="#000000" font-family="sans-serif" font-size="14" lengthAdjust="spacing" textLength="40.4961" x="158.31" y="135.8467">Room</text><line style="stroke:#181818;stroke-width:0.5;" x1="130.31" x2="200.8061" y1="147" y2="147"/><line style="stroke:#181818;stroke-width:0.5;" x1="130.31" x2="200.8061" y1="155" y2="155"/></g><!--class Chair--><g class="entity" data-qualified-name="Chair" data-source-line="2" id="ent0005"><rect fill="#F1F1F1" height="48" rx="2.5" ry="2.5" style="stroke:#181818;stroke-width:0.5;" width="68.873" x="131.12" y="7"/><ellipse cx="146.12" cy="23" fill="#ADD1B2" rx="11" ry="11" style="stroke:#181818;stroke-width:1;"/><path d="M149.0888,28.6406 Q148.5106,28.9375 147.87,29.0781 Q147.2294,29.2344 146.5263,29.2344 Q144.0263,29.2344 142.6981,27.5938 Q141.3856,25.9375 141.3856,22.8125 Q141.3856,19.6875 142.6981,18.0313 Q144.0263,16.375 146.5263,16.375 Q147.2294,16.375 147.87,16.5313 Q148.5263,16.6875 149.0888,16.9844 L149.0888,19.7031 Q148.4638,19.125 147.87,18.8594 Q147.2763,18.5781 146.6513,18.5781 Q145.3075,18.5781 144.62,19.6563 Q143.9325,20.7188 143.9325,22.8125 Q143.9325,24.9063 144.62,25.9844 Q145.3075,27.0469 146.6513,27.0469 Q147.2763,27.0469 147.87,26.7813 Q148.4638,26.5 149.0888,25.9219 L149.0888,28.6406 Z " fill="#000000"/><text fill="#000000" font-family="sans-serif" font-size="14" lengthAdjust="spacing" textLength="36.873" x="160.12" y="27.8467">Chair</text><line style="stroke:#181818;stroke-width:0.5;" x1="132.12" x2="198.993" y1="39" y2="39"/><line style="stroke:#181818;stroke-width:0.5;" x1="132.12" x2="198.993" y1="47" y2="47"/></g><!--link Student to Room--><g class="link" data-entity-1="ent0002" data-entity-2="ent0003" data-link-type="aggregation" data-source-line="1" id="lnk4"><path codeLine="1" d="M94.58,139 C106.04,139 105.5,139 116.96,139" fill="none" id="Student-to-Room" style="stroke:#181818;stroke-width:1;"/><polygon fill="none" points="128.96,139,122.96,135,116.96,139,122.96,143,128.96,139" style="stroke:#181818;stroke-width:1;"/></g><!--link Chair to Room--><g class="link" data-entity-1="ent0005" data-entity-2="ent0003" data-link-type="composition" data-source-line="2" id="lnk6"><path codeLine="2" d="M165.56,55.26 C165.56,72.94 165.56,85.13 165.56,102.79" fill="none" id="Chair-to-Room" style="stroke:#181818;stroke-width:1;"/><polygon fill="#181818" points="165.56,114.79,169.56,108.79,165.56,102.79,161.56,108.79,165.56,114.79" style="stroke:#181818;stroke-width:1;"/></g><?plantuml-src 2oufJKdDAr7GpLS8oi_FvNBEICmiKj3LrG9p0G00?></g></svg>