<svg xmlns="http://www.w3.org/2000/svg" xmlns:xlink="http://www.w3.org/1999/xlink" contentStyleType="text/css" data-diagram-type="CLASS" height="178px" preserveAspectRatio="none" style="width:216px;height:178px;background:#FFFFFF;" version="1.1" viewBox="0 0 216 178" width="216px" zoomAndPan="magnify"><?plantuml 1.2026.3beta5?><defs/><g><!--class Room--><g class="entity" data-qualified-name="Room" data-source-line="1" id="ent0002"><rect fill="#F1F1F1" height="48" rx="2.5" ry="2.5" style="stroke:#181818;stroke-width:0.5;" width="72.4961" x="7" y="7"/><ellipse cx="22" cy="23" fill="#ADD1B2" rx="11" ry="11" style="stroke:#181818;stroke-width:1;"/><path d="M24.9688,28.6406 Q24.3906,28.9375 23.75,29.0781 Q23.1094,29.2344 22.4063,29.2344 Q19.9063,29.2344 18.5781,27.5938 Q17.2656,25.9375 17.2656,22.8125 Q17.2656,19.6875 18.5781,18.0313 Q19.9063,16.375 22.4063,16.375 Q23.1094,16.375 23.75,16.5313 Q24.4063,16.6875 24.9688,16.9844 L24.9688,19.7031 Q24.3438,19.125 23.75,18.8594 Q23.1563,18.5781 22.5313,18.5781 Q21.1875,18.5781 20.5,19.6563 Q19.8125,20.7188 19.8125,22.8125 Q19.8125,24.9063 20.5,25.9844 Q21.1875,27.0469 22.5313,27.0469 Q23.1563,27.0469 23.75,26.7813 Q24.3438,26.5 24.9688,25.9219 L24.9688,28.6406 Z " fill="#000000"/><text fill="#000000" font-family="sans-serif" font-size="14" lengthAdjust="spacing" textLength="40.4961" x="36" y="27.8467">Room</text><line style="stroke:#181818;stroke-width:0.5;" x1="8" x2="78.4961" y1="39" y2="39"/><line style="stroke:#181818;stroke-width:0.5;" x1="8" x2="78.4961" y1="47" y2="47"/></g><!--class Student--><g class="entity" data-qualified-name="Student" data-source-line="1" id="ent0003"><rect fill="#F1F1F1" height="48" rx="2.5" ry="2.5" style="stroke:#181818;stroke-width:0.5;" width="87.1113" x="114.69" y="7"/><ellipse cx="129.69" cy="23" fill="#ADD1B2" rx="11" ry="11" style="stroke:#181818;stroke-width:1;"/><path d="M132.6588,28.6406 Q132.0806,28.9375 131.44,29.0781 Q130.7994,29.2344 130.0963,29.2344 Q127.5963,29.2344 126.2681,27.5938 Q124.9556,25.9375 124.9556,22.8125 Q124.9556,19.6875 126.2681,18.0313 Q127.5963,16.375 130.0963,16.375 Q130.7994,16.375 131.44,16.5313 Q132.0963,16.6875 132.6588,16.9844 L132.6588,19.7031 Q132.0338,19.125 131.44,18.8594 Q130.8463,18.5781 130.2213,18.5781 Q128.8775,18.5781 128.19,19.6563 Q127.5025,20.7188 127.5025,22.8125 Q127.5025,24.9063 128.19,25.9844 Q128.8775,27.0469 130.2213,27.0469 Q130.8463,27.0469 131.44,26.7813 Q132.0338,26.5 132.6588,25.9219 L132.6588,28.6406 Z " fill="#000000"/><text fill="#000000" font-family="sans-serif" font-size="14" lengthAdjust="spacing" textLength="55.1113" x="143.69" y="27.8467">Student</text><line style="stroke:#181818;stroke-width:0.5;" x1="115.69" x2="200.8013" y1="39" y2="39"/><line style="stroke:#181818;stroke-width:0.5;" x1="115.69" x2="200.8013" y1="47" y2="47"/></g><!--class Chair--><g class="entity" data-qualified-name="Chair" data-source-line="2" id="ent0005"><rect fill="#F1F1F1" height="48" rx="2.5" ry="2.5" style="stroke:#181818;stroke-width:0.5;" width="68.873" x="8.81" y="115"/><ellipse cx="23.81" cy="131" fill="#ADD1B2" rx="11" ry="11" style="stroke:#181818;stroke-width:1;"/><path d="M26.7788,136.6406 Q26.2006,136.9375 25.56,137.0781 Q24.9194,137.2344 24.2163,137.2344 Q21.7163,137.2344 20.3881,135.5938 Q19.0756,133.9375 19.0756,130.8125 Q19.0756,127.6875 20.3881,126.0313 Q21.7163,124.375 24.2163,124.375 Q24.9194,124.375 25.56,124.5313 Q26.2163,124.6875 26.7788,124.9844 L26.7788,127.7031 Q26.1538,127.125 25.56,126.8594 Q24.9663,126.5781 24.3413,126.5781 Q22.9975,126.5781 22.31,127.6563 Q21.6225,128.7188 21.6225,130.8125 Q21.6225,132.9063 22.31,133.9844 Q22.9975,135.0469 24.3413,135.0469 Q24.9663,135.0469 25.56,134.7813 Q26.1538,134.5 26.7788,133.9219 L26.7788,136.6406 Z " fill="#000000"/><text fill="#000000" font-family="sans-serif" font-size="14" lengthAdjust="spacing" textLength="36.873" x="37.81" y="135.8467">Chair</text><line style="stroke:#181818;stroke-width:0.5;" x1="9.81" x2="76.683" y1="147" y2="147"/><line style="stroke:#181818;stroke-width:0.5;" x1="9.81" x2="76.683" y1="155" y2="155"/></g><!--reverse link Room to Student--><g class="link" data-entity-1="ent0002" data-entity-2="ent0003" data-link-type="aggregation" data-source-line="1" id="lnk4"><path codeLine="1" d="M91.63,31 C103.2,31 102.77,31 114.34,31" fill="none" id="Room-backto-Student" style="stroke:#181818;stroke-width:1;"/><polygon fill="none" points="79.63,31,85.63,35,91.63,31,85.63,27,79.63,31" style="stroke:#181818;stroke-width:1;"/></g><!--reverse link Room to Chair--><g class="link" data-entity-1="ent0002" data-entity-2="ent0005" data-link-type="composition" data-source-line="2" id="lnk6"><path codeLine="2" d="M43.25,67.26 C43.25,84.94 43.25,97.13 43.25,114.79" fill="none" id="Room-backto-Chair" style="stroke:#181818;stroke-width:1;"/><polygon fill="#181818" points="43.25,55.26,39.25,61.26,43.25,67.26,47.25,61.26,43.25,55.26" style="stroke:#181818;stroke-width:1;"/></g><?plantuml-src 2yhFprN8rrK8BYbDISqhuGe2yRLqTHMSCn8pYm00?></g></svg>