<svg xmlns="http://www.w3.org/2000/svg" xmlns:xlink="http://www.w3.org/1999/xlink" contentStyleType="text/css" data-diagram-type="CLASS" height="178px" preserveAspectRatio="none" style="width:254px;height:178px;background:#FFFFFF;" version="1.1" viewBox="0 0 254 178" width="254px" zoomAndPan="magnify"><?plantuml 1.2026.3beta5?><defs/><g><!--class abstract--><g class="entity" data-qualified-name="abstract" data-source-line="1" id="ent0002"><rect fill="#F1F1F1" height="48" rx="2.5" ry="2.5" style="stroke:#181818;stroke-width:0.5;" width="89.7705" x="7" y="7"/><ellipse cx="22" cy="23" fill="#A9DCDF" rx="11" ry="11" style="stroke:#181818;stroke-width:1;"/><path d="M22.1094,18.3438 L20.9531,23.4219 L23.2813,23.4219 L22.1094,18.3438 Z M20.625,16.1094 L23.6094,16.1094 L26.9688,28.5 L24.5156,28.5 L23.75,25.4375 L20.4688,25.4375 L19.7188,28.5 L17.2813,28.5 L20.625,16.1094 Z " fill="#000000"/><text fill="#000000" font-family="sans-serif" font-size="14" font-style="italic" lengthAdjust="spacing" textLength="57.7705" x="36" y="27.8467">abstract</text><line style="stroke:#181818;stroke-width:0.5;" x1="8" x2="95.7705" y1="39" y2="39"/><line style="stroke:#181818;stroke-width:0.5;" x1="8" x2="95.7705" y1="47" y2="47"/></g><!--class annotation--><g class="entity" data-qualified-name="annotation" data-source-line="2" id="ent0003"><rect fill="#FFC0CB" height="48" rx="2.5" ry="2.5" style="stroke:#FF0000;stroke-width:2;" width="107.7764" x="132" y="7"/><ellipse cx="147" cy="23" fill="#E3664A" rx="11" ry="11" style="stroke:#181818;stroke-width:1;"/><path d="M149.0781,23.4688 Q149.0781,22.5313 148.6563,22 Q148.2344,21.4688 147.4844,21.4688 Q146.75,21.4688 146.3281,22 Q145.9219,22.5313 145.9219,23.4688 Q145.9219,24.4219 146.3281,24.9531 Q146.75,25.4844 147.4844,25.4844 Q148.2344,25.4844 148.6563,24.9531 Q149.0781,24.4219 149.0781,23.4688 Z M150.625,26.875 L149,26.875 L149,26.2031 Q148.6719,26.6406 148.25,26.8438 Q147.8281,27.0469 147.2188,27.0469 Q145.8594,27.0469 145.0313,26.0781 Q144.2031,25.0938 144.2031,23.4688 Q144.2031,21.875 145.0313,20.9063 Q145.8594,19.9219 147.2188,19.9219 Q147.8125,19.9219 148.2656,20.125 Q148.7188,20.3281 149,20.7188 L149,20.375 Q149,19.25 148.375,18.6406 Q147.75,18.0156 146.6094,18.0156 Q144.8906,18.0156 143.7969,19.5469 Q142.7031,21.0625 142.7031,23.5 Q142.7031,26.0469 143.9531,27.5469 Q145.2188,29.0469 147.3281,29.0469 Q147.9844,29.0469 148.6094,28.8594 Q149.2344,28.6719 149.8125,28.2813 L150.5781,29.7344 Q149.9063,30.1875 149.1094,30.4063 Q148.3125,30.6406 147.4063,30.6406 Q144.5,30.6406 142.7656,28.7031 Q141.0469,26.7813 141.0469,23.5 Q141.0469,20.2813 142.5938,18.3594 Q144.1563,16.4219 146.7188,16.4219 Q148.5156,16.4219 149.5625,17.5156 Q150.625,18.6094 150.625,20.4844 L150.625,26.875 Z " fill="#000000"/><text fill="#FF0000" font-family="sans-serif" font-size="14" lengthAdjust="spacing" textLength="75.7764" x="161" y="27.8467">annotation</text><line style="stroke:#FF0000;stroke-width:2;" x1="133" x2="238.7764" y1="39" y2="39"/><line style="stroke:#FF0000;stroke-width:2;" x1="133" x2="238.7764" y1="47" y2="47"/></g><!--class class--><g class="entity" data-qualified-name="class" data-source-line="3" id="ent0004"><rect fill="#98FB98" height="48" rx="2.5" ry="2.5" style="stroke:#008000;stroke-width:1;stroke-dasharray:7,7;" width="66.7539" x="18.51" y="115"/><ellipse cx="33.51" cy="131" fill="#ADD1B2" rx="11" ry="11" style="stroke:#181818;stroke-width:1;"/><path d="M36.4788,136.6406 Q35.9006,136.9375 35.26,137.0781 Q34.6194,137.2344 33.9163,137.2344 Q31.4162,137.2344 30.0881,135.5938 Q28.7756,133.9375 28.7756,130.8125 Q28.7756,127.6875 30.0881,126.0313 Q31.4162,124.375 33.9163,124.375 Q34.6194,124.375 35.26,124.5313 Q35.9163,124.6875 36.4788,124.9844 L36.4788,127.7031 Q35.8538,127.125 35.26,126.8594 Q34.6663,126.5781 34.0413,126.5781 Q32.6975,126.5781 32.01,127.6563 Q31.3225,128.7188 31.3225,130.8125 Q31.3225,132.9063 32.01,133.9844 Q32.6975,135.0469 34.0413,135.0469 Q34.6663,135.0469 35.26,134.7813 Q35.8538,134.5 36.4788,133.9219 L36.4788,136.6406 Z " fill="#000000"/><text fill="#008000" font-family="sans-serif" font-size="14" lengthAdjust="spacing" textLength="34.7539" x="47.51" y="135.8467">class</text><line style="stroke:#008000;stroke-width:1;stroke-dasharray:7,7;" x1="19.51" x2="84.2639" y1="147" y2="147"/><line style="stroke:#008000;stroke-width:1;stroke-dasharray:7,7;" x1="19.51" x2="84.2639" y1="155" y2="155"/></g><!--class interface--><g class="entity" data-qualified-name="interface" data-source-line="4" id="ent0005"><rect fill="#F0F8FF" height="48" rx="2.5" ry="2.5" style="stroke:#0000FF;stroke-width:1;stroke-dasharray:1,3;" width="94.4395" x="120.67" y="115"/><ellipse cx="135.67" cy="131" fill="#B4A7E5" rx="11" ry="11" style="stroke:#181818;stroke-width:1;"/><path d="M131.5919,126.7656 L131.5919,124.6094 L138.9825,124.6094 L138.9825,126.7656 L136.5138,126.7656 L136.5138,134.8438 L138.9825,134.8438 L138.9825,137 L131.5919,137 L131.5919,134.8438 L134.0606,134.8438 L134.0606,126.7656 L131.5919,126.7656 Z " fill="#000000"/><text fill="#0000FF" font-family="sans-serif" font-size="14" font-style="italic" lengthAdjust="spacing" textLength="62.4395" x="149.67" y="135.8467">interface</text><line style="stroke:#0000FF;stroke-width:1;stroke-dasharray:1,3;" x1="121.67" x2="214.1095" y1="147" y2="147"/><line style="stroke:#0000FF;stroke-width:1;stroke-dasharray:1,3;" x1="121.67" x2="214.1095" y1="155" y2="155"/></g><?plantuml-src JSn13iCW34JHFQUmn9u39ASnC6rHBHE18_NuLKYQujNJIFuSkpLEHaHyqR5gDRPIbIRwhUXxbQ9O6l90Y5NoQlZOCRaat3kDc-Wt5ZmReEVpdo5pV-4AZDaLDRG79n1Dz2mb8SgECt4hv6hsAnph5m00?></g></svg>