<svg xmlns="http://www.w3.org/2000/svg" xmlns:xlink="http://www.w3.org/1999/xlink" contentStyleType="text/css" data-diagram-type="CLASS" height="286px" preserveAspectRatio="none" style="width:396px;height:286px;background:#FFFFFF;" version="1.1" viewBox="0 0 396 286" width="396px" zoomAndPan="magnify"><?plantuml 1.2026.3beta5?><defs><linearGradient id="g10s4z5i3e9q6m0" x1="0%" x2="100%" y1="50%" y2="50%"><stop offset="0%" stop-color="#90EE90"/><stop offset="100%" stop-color="#FFFF00"/></linearGradient><linearGradient id="g10s4z5i3e9q6m1" x1="0%" x2="100%" y1="0%" y2="100%"><stop offset="0%" stop-color="#0000FF"/><stop offset="100%" stop-color="#FF0000"/></linearGradient></defs><g><!--class bar--><g class="entity" data-qualified-name="bar" data-source-line="1" id="ent0002"><rect fill="#ADD8E6" height="48" rx="2.5" ry="2.5" style="stroke:#008000;stroke-width:0.5;" width="55.2217" x="34.49" y="7"/><ellipse cx="49.49" cy="23" fill="#ADD1B2" rx="11" ry="11" style="stroke:#181818;stroke-width:1;"/><path d="M52.4587,28.6406 Q51.8806,28.9375 51.24,29.0781 Q50.5994,29.2344 49.8962,29.2344 Q47.3962,29.2344 46.0681,27.5938 Q44.7556,25.9375 44.7556,22.8125 Q44.7556,19.6875 46.0681,18.0313 Q47.3962,16.375 49.8962,16.375 Q50.5994,16.375 51.24,16.5313 Q51.8962,16.6875 52.4587,16.9844 L52.4587,19.7031 Q51.8337,19.125 51.24,18.8594 Q50.6462,18.5781 50.0212,18.5781 Q48.6775,18.5781 47.99,19.6563 Q47.3025,20.7188 47.3025,22.8125 Q47.3025,24.9063 47.99,25.9844 Q48.6775,27.0469 50.0212,27.0469 Q50.6462,27.0469 51.24,26.7813 Q51.8337,26.5 52.4587,25.9219 L52.4587,28.6406 Z " fill="#000000"/><text fill="#000000" font-family="sans-serif" font-size="14" lengthAdjust="spacing" textLength="23.2217" x="63.49" y="27.8467">bar</text><line style="stroke:#008000;stroke-width:0.5;" x1="35.49" x2="88.7117" y1="39" y2="39"/><line style="stroke:#008000;stroke-width:0.5;" x1="35.49" x2="88.7117" y1="47" y2="47"/></g><!--class bar2--><g class="entity" data-qualified-name="bar2" data-source-line="2" id="ent0003"><rect fill="#ADD8E6" height="48" rx="2.5" ry="2.5" style="stroke:#008000;stroke-width:0.5;" width="64.1289" x="125.04" y="7"/><ellipse cx="140.04" cy="23" fill="#ADD1B2" rx="11" ry="11" style="stroke:#181818;stroke-width:1;"/><path d="M143.0088,28.6406 Q142.4306,28.9375 141.79,29.0781 Q141.1494,29.2344 140.4463,29.2344 Q137.9463,29.2344 136.6181,27.5938 Q135.3056,25.9375 135.3056,22.8125 Q135.3056,19.6875 136.6181,18.0313 Q137.9463,16.375 140.4463,16.375 Q141.1494,16.375 141.79,16.5313 Q142.4463,16.6875 143.0088,16.9844 L143.0088,19.7031 Q142.3838,19.125 141.79,18.8594 Q141.1963,18.5781 140.5713,18.5781 Q139.2275,18.5781 138.54,19.6563 Q137.8525,20.7188 137.8525,22.8125 Q137.8525,24.9063 138.54,25.9844 Q139.2275,27.0469 140.5713,27.0469 Q141.1963,27.0469 141.79,26.7813 Q142.3838,26.5 143.0088,25.9219 L143.0088,28.6406 Z " fill="#000000"/><text fill="#000000" font-family="sans-serif" font-size="14" lengthAdjust="spacing" textLength="32.1289" x="154.04" y="27.8467">bar2</text><line style="stroke:#008000;stroke-width:0.5;" x1="126.04" x2="188.1689" y1="39" y2="39"/><line style="stroke:#008000;stroke-width:0.5;" x1="126.04" x2="188.1689" y1="47" y2="47"/></g><!--class Foo1--><g class="entity" data-qualified-name="Foo1" data-source-line="4" id="ent0004"><rect fill="#FF0000" height="48" rx="2.5" ry="2.5" style="stroke:#00FFFF;stroke-width:0.5;" width="66.0908" x="224.06" y="7"/><ellipse cx="239.06" cy="23" fill="#ADD1B2" rx="11" ry="11" style="stroke:#181818;stroke-width:1;"/><path d="M242.0288,28.6406 Q241.4506,28.9375 240.81,29.0781 Q240.1694,29.2344 239.4663,29.2344 Q236.9663,29.2344 235.6381,27.5938 Q234.3256,25.9375 234.3256,22.8125 Q234.3256,19.6875 235.6381,18.0313 Q236.9663,16.375 239.4663,16.375 Q240.1694,16.375 240.81,16.5313 Q241.4663,16.6875 242.0288,16.9844 L242.0288,19.7031 Q241.4038,19.125 240.81,18.8594 Q240.2163,18.5781 239.5913,18.5781 Q238.2475,18.5781 237.56,19.6563 Q236.8725,20.7188 236.8725,22.8125 Q236.8725,24.9063 237.56,25.9844 Q238.2475,27.0469 239.5913,27.0469 Q240.2163,27.0469 240.81,26.7813 Q241.4038,26.5 242.0288,25.9219 L242.0288,28.6406 Z " fill="#000000"/><text fill="#000000" font-family="sans-serif" font-size="14" lengthAdjust="spacing" textLength="34.0908" x="253.06" y="27.8467">Foo1</text><line style="stroke:#00FFFF;stroke-width:0.5;" x1="225.06" x2="289.1508" y1="39" y2="39"/><line style="stroke:#00FFFF;stroke-width:0.5;" x1="225.06" x2="289.1508" y1="47" y2="47"/></g><!--class FooDashed--><g class="entity" data-qualified-name="FooDashed" data-source-line="5" id="ent0005"><rect fill="#F1F1F1" height="48" rx="2.5" ry="2.5" style="stroke:#0000FF;stroke-width:1;stroke-dasharray:7,7;" width="110.21" x="7" y="115"/><ellipse cx="22" cy="131" fill="#ADD1B2" rx="11" ry="11" style="stroke:#181818;stroke-width:1;"/><path d="M24.9688,136.6406 Q24.3906,136.9375 23.75,137.0781 Q23.1094,137.2344 22.4063,137.2344 Q19.9063,137.2344 18.5781,135.5938 Q17.2656,133.9375 17.2656,130.8125 Q17.2656,127.6875 18.5781,126.0313 Q19.9063,124.375 22.4063,124.375 Q23.1094,124.375 23.75,124.5313 Q24.4063,124.6875 24.9688,124.9844 L24.9688,127.7031 Q24.3438,127.125 23.75,126.8594 Q23.1563,126.5781 22.5313,126.5781 Q21.1875,126.5781 20.5,127.6563 Q19.8125,128.7188 19.8125,130.8125 Q19.8125,132.9063 20.5,133.9844 Q21.1875,135.0469 22.5313,135.0469 Q23.1563,135.0469 23.75,134.7813 Q24.3438,134.5 24.9688,133.9219 L24.9688,136.6406 Z " fill="#000000"/><text fill="#000000" font-family="sans-serif" font-size="14" lengthAdjust="spacing" textLength="78.21" x="36" y="135.8467">FooDashed</text><line style="stroke:#0000FF;stroke-width:1;stroke-dasharray:7,7;" x1="8" x2="116.21" y1="147" y2="147"/><line style="stroke:#0000FF;stroke-width:1;stroke-dasharray:7,7;" x1="8" x2="116.21" y1="155" y2="155"/></g><!--class FooDotted--><g class="entity" data-qualified-name="FooDotted" data-source-line="6" id="ent0006"><rect fill="#F1F1F1" height="48" rx="2.5" ry="2.5" style="stroke:#0000FF;stroke-width:1;stroke-dasharray:1,3;" width="105.0078" x="152.6" y="115"/><ellipse cx="167.6" cy="131" fill="#ADD1B2" rx="11" ry="11" style="stroke:#181818;stroke-width:1;"/><path d="M170.5688,136.6406 Q169.9906,136.9375 169.35,137.0781 Q168.7094,137.2344 168.0063,137.2344 Q165.5063,137.2344 164.1781,135.5938 Q162.8656,133.9375 162.8656,130.8125 Q162.8656,127.6875 164.1781,126.0313 Q165.5063,124.375 168.0063,124.375 Q168.7094,124.375 169.35,124.5313 Q170.0063,124.6875 170.5688,124.9844 L170.5688,127.7031 Q169.9438,127.125 169.35,126.8594 Q168.7563,126.5781 168.1313,126.5781 Q166.7875,126.5781 166.1,127.6563 Q165.4125,128.7188 165.4125,130.8125 Q165.4125,132.9063 166.1,133.9844 Q166.7875,135.0469 168.1313,135.0469 Q168.7563,135.0469 169.35,134.7813 Q169.9438,134.5 170.5688,133.9219 L170.5688,136.6406 Z " fill="#000000"/><text fill="#000000" font-family="sans-serif" font-size="14" lengthAdjust="spacing" textLength="73.0078" x="181.6" y="135.8467">FooDotted</text><line style="stroke:#0000FF;stroke-width:1;stroke-dasharray:1,3;" x1="153.6" x2="256.6078" y1="147" y2="147"/><line style="stroke:#0000FF;stroke-width:1;stroke-dasharray:1,3;" x1="153.6" x2="256.6078" y1="155" y2="155"/></g><!--class FooBold--><g class="entity" data-qualified-name="FooBold" data-source-line="7" id="ent0007"><rect fill="#F1F1F1" height="48" rx="2.5" ry="2.5" style="stroke:#181818;stroke-width:2;" width="88.1299" x="293.04" y="115"/><ellipse cx="308.04" cy="131" fill="#ADD1B2" rx="11" ry="11" style="stroke:#181818;stroke-width:1;"/><path d="M311.0088,136.6406 Q310.4306,136.9375 309.79,137.0781 Q309.1494,137.2344 308.4463,137.2344 Q305.9463,137.2344 304.6181,135.5938 Q303.3056,133.9375 303.3056,130.8125 Q303.3056,127.6875 304.6181,126.0313 Q305.9463,124.375 308.4463,124.375 Q309.1494,124.375 309.79,124.5313 Q310.4463,124.6875 311.0088,124.9844 L311.0088,127.7031 Q310.3838,127.125 309.79,126.8594 Q309.1963,126.5781 308.5713,126.5781 Q307.2275,126.5781 306.54,127.6563 Q305.8525,128.7188 305.8525,130.8125 Q305.8525,132.9063 306.54,133.9844 Q307.2275,135.0469 308.5713,135.0469 Q309.1963,135.0469 309.79,134.7813 Q310.3838,134.5 311.0088,133.9219 L311.0088,136.6406 Z " fill="#000000"/><text fill="#000000" font-family="sans-serif" font-size="14" lengthAdjust="spacing" textLength="56.1299" x="322.04" y="135.8467">FooBold</text><line style="stroke:#181818;stroke-width:2;" x1="294.04" x2="380.1699" y1="147" y2="147"/><line style="stroke:#181818;stroke-width:2;" x1="294.04" x2="380.1699" y1="155" y2="155"/></g><!--class Demo1--><g class="entity" data-qualified-name="Demo1" data-source-line="8" id="ent0008"><rect fill="url(#g10s4z5i3e9q6m0)" height="48" rx="2.5" ry="2.5" style="stroke:#181818;stroke-width:0.5;" width="82.5039" x="20.85" y="223"/><rect fill="url(#g10s4z5i3e9q6m1)" height="32" rx="2.5" ry="2.5" style="stroke:url(#g10s4z5i3e9q6m1);stroke-width:0.5;" width="82.5039" x="20.85" y="223"/><rect fill="url(#g10s4z5i3e9q6m1)" height="2.5" style="stroke:url(#g10s4z5i3e9q6m1);stroke-width:0.5;" width="82.5039" x="20.85" y="252.5"/><rect fill="none" height="48" rx="2.5" ry="2.5" style="stroke:#181818;stroke-width:0.5;" width="82.5039" x="20.85" y="223"/><ellipse cx="35.85" cy="239" fill="#ADD1B2" rx="11" ry="11" style="stroke:#181818;stroke-width:1;"/><path d="M38.8188,244.6406 Q38.2406,244.9375 37.6,245.0781 Q36.9594,245.2344 36.2563,245.2344 Q33.7563,245.2344 32.4281,243.5938 Q31.1156,241.9375 31.1156,238.8125 Q31.1156,235.6875 32.4281,234.0313 Q33.7563,232.375 36.2563,232.375 Q36.9594,232.375 37.6,232.5313 Q38.2563,232.6875 38.8188,232.9844 L38.8188,235.7031 Q38.1938,235.125 37.6,234.8594 Q37.0063,234.5781 36.3813,234.5781 Q35.0375,234.5781 34.35,235.6563 Q33.6625,236.7188 33.6625,238.8125 Q33.6625,240.9063 34.35,241.9844 Q35.0375,243.0469 36.3813,243.0469 Q37.0063,243.0469 37.6,242.7813 Q38.1938,242.5 38.8188,241.9219 L38.8188,244.6406 Z " fill="#000000"/><text fill="#000000" font-family="sans-serif" font-size="14" lengthAdjust="spacing" textLength="50.5039" x="49.85" y="243.8467">Demo1</text><line style="stroke:#181818;stroke-width:0.5;" x1="21.85" x2="102.3539" y1="255" y2="255"/><line style="stroke:#181818;stroke-width:0.5;" x1="21.85" x2="102.3539" y1="263" y2="263"/></g><?plantuml-src NOx13eCW38RlFWM9zytj2BV5-1u56Z7h906MnMGFFwmePZsr_R_s_mr1Z49342rDCyen8CvAWtbAcaQNDBsnCJjqNwcoLPLl2Z5uVnCj7mUq6z1rGwuAz10TsitjOdcG9vELy2bLWeS_uk5frtLkYz3Zwx3db9pjko2H_oY7O37mesiEzmC0?></g></svg>