<svg xmlns="http://www.w3.org/2000/svg" xmlns:xlink="http://www.w3.org/1999/xlink" contentStyleType="text/css" data-diagram-type="CLASS" height="195px" preserveAspectRatio="none" style="width:414px;height:195px;background:#FFFFFF;" version="1.1" viewBox="0 0 414 195" width="414px" zoomAndPan="magnify"><?plantuml 1.2026.3beta5?><defs/><g><!--class foo--><g class="entity" data-qualified-name="foo" data-source-line="1" id="ent0002"><rect fill="#F1F1F1" height="48" rx="2.5" ry="2.5" style="stroke:#181818;stroke-width:0.5;" width="54.0596" x="149.58" y="7"/><ellipse cx="164.58" cy="23" fill="#ADD1B2" rx="11" ry="11" style="stroke:#181818;stroke-width:1;"/><path d="M167.5488,28.6406 Q166.9706,28.9375 166.33,29.0781 Q165.6894,29.2344 164.9863,29.2344 Q162.4863,29.2344 161.1581,27.5938 Q159.8456,25.9375 159.8456,22.8125 Q159.8456,19.6875 161.1581,18.0313 Q162.4863,16.375 164.9863,16.375 Q165.6894,16.375 166.33,16.5313 Q166.9863,16.6875 167.5488,16.9844 L167.5488,19.7031 Q166.9238,19.125 166.33,18.8594 Q165.7363,18.5781 165.1113,18.5781 Q163.7675,18.5781 163.08,19.6563 Q162.3925,20.7188 162.3925,22.8125 Q162.3925,24.9063 163.08,25.9844 Q163.7675,27.0469 165.1113,27.0469 Q165.7363,27.0469 166.33,26.7813 Q166.9238,26.5 167.5488,25.9219 L167.5488,28.6406 Z " fill="#000000"/><text fill="#000000" font-family="sans-serif" font-size="14" lengthAdjust="spacing" textLength="22.0596" x="178.58" y="27.8467">foo</text><line style="stroke:#181818;stroke-width:0.5;" x1="150.58" x2="202.6396" y1="39" y2="39"/><line style="stroke:#181818;stroke-width:0.5;" x1="150.58" x2="202.6396" y1="47" y2="47"/></g><!--class bar--><g class="entity" data-qualified-name="bar" data-source-line="2" id="ent0003"><rect fill="#F1F1F1" height="48" rx="2.5" ry="2.5" style="stroke:#181818;stroke-width:0.5;" width="55.2217" x="7" y="132"/><ellipse cx="22" cy="148" fill="#ADD1B2" rx="11" ry="11" style="stroke:#181818;stroke-width:1;"/><path d="M24.9688,153.6406 Q24.3906,153.9375 23.75,154.0781 Q23.1094,154.2344 22.4063,154.2344 Q19.9063,154.2344 18.5781,152.5938 Q17.2656,150.9375 17.2656,147.8125 Q17.2656,144.6875 18.5781,143.0313 Q19.9063,141.375 22.4063,141.375 Q23.1094,141.375 23.75,141.5313 Q24.4063,141.6875 24.9688,141.9844 L24.9688,144.7031 Q24.3438,144.125 23.75,143.8594 Q23.1563,143.5781 22.5313,143.5781 Q21.1875,143.5781 20.5,144.6563 Q19.8125,145.7188 19.8125,147.8125 Q19.8125,149.9063 20.5,150.9844 Q21.1875,152.0469 22.5313,152.0469 Q23.1563,152.0469 23.75,151.7813 Q24.3438,151.5 24.9688,150.9219 L24.9688,153.6406 Z " fill="#000000"/><text fill="#000000" font-family="sans-serif" font-size="14" lengthAdjust="spacing" textLength="23.2217" x="36" y="152.8467">bar</text><line style="stroke:#181818;stroke-width:0.5;" x1="8" x2="61.2217" y1="164" y2="164"/><line style="stroke:#181818;stroke-width:0.5;" x1="8" x2="61.2217" y1="172" y2="172"/></g><!--class bar1--><g class="entity" data-qualified-name="bar1" data-source-line="3" id="ent0005"><rect fill="#F1F1F1" height="48" rx="2.5" ry="2.5" style="stroke:#181818;stroke-width:0.5;" width="64.1289" x="97.55" y="132"/><ellipse cx="112.55" cy="148" fill="#ADD1B2" rx="11" ry="11" style="stroke:#181818;stroke-width:1;"/><path d="M115.5188,153.6406 Q114.9406,153.9375 114.3,154.0781 Q113.6594,154.2344 112.9563,154.2344 Q110.4563,154.2344 109.1281,152.5938 Q107.8156,150.9375 107.8156,147.8125 Q107.8156,144.6875 109.1281,143.0313 Q110.4563,141.375 112.9563,141.375 Q113.6594,141.375 114.3,141.5313 Q114.9563,141.6875 115.5188,141.9844 L115.5188,144.7031 Q114.8938,144.125 114.3,143.8594 Q113.7063,143.5781 113.0813,143.5781 Q111.7375,143.5781 111.05,144.6563 Q110.3625,145.7188 110.3625,147.8125 Q110.3625,149.9063 111.05,150.9844 Q111.7375,152.0469 113.0813,152.0469 Q113.7063,152.0469 114.3,151.7813 Q114.8938,151.5 115.5188,150.9219 L115.5188,153.6406 Z " fill="#000000"/><text fill="#000000" font-family="sans-serif" font-size="14" lengthAdjust="spacing" textLength="32.1289" x="126.55" y="152.8467">bar1</text><line style="stroke:#181818;stroke-width:0.5;" x1="98.55" x2="160.6789" y1="164" y2="164"/><line style="stroke:#181818;stroke-width:0.5;" x1="98.55" x2="160.6789" y1="172" y2="172"/></g><!--class bar2--><g class="entity" data-qualified-name="bar2" data-source-line="4" id="ent0007"><rect fill="#F1F1F1" height="48" rx="2.5" ry="2.5" style="stroke:#181818;stroke-width:0.5;" width="64.1289" x="196.55" y="132"/><ellipse cx="211.55" cy="148" fill="#ADD1B2" rx="11" ry="11" style="stroke:#181818;stroke-width:1;"/><path d="M214.5188,153.6406 Q213.9406,153.9375 213.3,154.0781 Q212.6594,154.2344 211.9563,154.2344 Q209.4563,154.2344 208.1281,152.5938 Q206.8156,150.9375 206.8156,147.8125 Q206.8156,144.6875 208.1281,143.0313 Q209.4563,141.375 211.9563,141.375 Q212.6594,141.375 213.3,141.5313 Q213.9563,141.6875 214.5188,141.9844 L214.5188,144.7031 Q213.8938,144.125 213.3,143.8594 Q212.7063,143.5781 212.0813,143.5781 Q210.7375,143.5781 210.05,144.6563 Q209.3625,145.7188 209.3625,147.8125 Q209.3625,149.9063 210.05,150.9844 Q210.7375,152.0469 212.0813,152.0469 Q212.7063,152.0469 213.3,151.7813 Q213.8938,151.5 214.5188,150.9219 L214.5188,153.6406 Z " fill="#000000"/><text fill="#000000" font-family="sans-serif" font-size="14" lengthAdjust="spacing" textLength="32.1289" x="225.55" y="152.8467">bar2</text><line style="stroke:#181818;stroke-width:0.5;" x1="197.55" x2="259.6789" y1="164" y2="164"/><line style="stroke:#181818;stroke-width:0.5;" x1="197.55" x2="259.6789" y1="172" y2="172"/></g><!--class bar3--><g class="entity" data-qualified-name="bar3" data-source-line="5" id="ent0009"><rect fill="#F1F1F1" height="48" rx="2.5" ry="2.5" style="stroke:#181818;stroke-width:0.5;" width="64.1289" x="325.55" y="132"/><ellipse cx="340.55" cy="148" fill="#ADD1B2" rx="11" ry="11" style="stroke:#181818;stroke-width:1;"/><path d="M343.5188,153.6406 Q342.9406,153.9375 342.3,154.0781 Q341.6594,154.2344 340.9563,154.2344 Q338.4563,154.2344 337.1281,152.5938 Q335.8156,150.9375 335.8156,147.8125 Q335.8156,144.6875 337.1281,143.0313 Q338.4563,141.375 340.9563,141.375 Q341.6594,141.375 342.3,141.5313 Q342.9563,141.6875 343.5188,141.9844 L343.5188,144.7031 Q342.8938,144.125 342.3,143.8594 Q341.7063,143.5781 341.0813,143.5781 Q339.7375,143.5781 339.05,144.6563 Q338.3625,145.7188 338.3625,147.8125 Q338.3625,149.9063 339.05,150.9844 Q339.7375,152.0469 341.0813,152.0469 Q341.7063,152.0469 342.3,151.7813 Q342.8938,151.5 343.5188,150.9219 L343.5188,153.6406 Z " fill="#000000"/><text fill="#000000" font-family="sans-serif" font-size="14" lengthAdjust="spacing" textLength="32.1289" x="354.55" y="152.8467">bar3</text><line style="stroke:#181818;stroke-width:0.5;" x1="326.55" x2="388.6789" y1="164" y2="164"/><line style="stroke:#181818;stroke-width:0.5;" x1="326.55" x2="388.6789" y1="172" y2="172"/></g><!--link foo to bar--><g class="link" data-entity-1="ent0002" data-entity-2="ent0003" data-link-type="dependency" data-source-line="2" id="lnk4"><path codeLine="2" d="M149.35,40.25 C126.05,48.45 92.85,63.01 70.61,85 C57.49,97.97 50.405,111.1498 44.545,125.9798" fill="none" id="foo-to-bar" style="stroke:#181818;stroke-width:1;"/><polygon fill="#181818" points="42.34,131.56,49.3676,124.6597,44.1775,126.9099,41.9274,121.7198,42.34,131.56" style="stroke:#181818;stroke-width:1;"/><text fill="#000000" font-family="sans-serif" font-size="13" lengthAdjust="spacing" textLength="45.7793" x="71.61" y="98.0669">normal</text></g><!--link foo to bar1--><g class="link" data-entity-1="ent0002" data-entity-2="ent0005" data-link-type="dependency" data-source-line="3" id="lnk6"><path codeLine="3" d="M149.33,54.67 C141.05,63.22 132.99,73.65 128.61,85 C122.93,99.74 122.5368,111.605 124.2568,125.575" fill="none" id="foo-to-bar1" style="stroke:#FF0000;stroke-width:2;"/><polygon fill="#FF0000" points="124.99,131.53,127.8602,122.1087,124.379,126.5675,119.9202,123.0862,124.99,131.53" style="stroke:#FF0000;stroke-width:2;"/><text fill="#FF0000" font-family="sans-serif" font-size="13" lengthAdjust="spacing" textLength="53.7964" x="129.61" y="98.0669">red bold</text></g><!--link foo to bar2--><g class="link" data-entity-1="ent0002" data-entity-2="ent0007" data-link-type="dependency" data-source-line="4" id="lnk8"><path codeLine="4" d="M186.51,55.42 C195.77,77.31 207.164,104.2734 216.404,126.1334" fill="none" id="foo-to-bar2" style="stroke:#008000;stroke-width:1;stroke-dasharray:7,7;"/><polygon fill="#008000" points="218.74,131.66,218.9203,121.8128,216.7933,127.0545,211.5516,124.9275,218.74,131.66" style="stroke:#008000;stroke-width:1;"/><text fill="#008000" font-family="sans-serif" font-size="13" lengthAdjust="spacing" textLength="89.4448" x="207.61" y="98.0669">green dashed</text></g><!--link foo to bar3--><g class="link" data-entity-1="ent0002" data-entity-2="ent0009" data-link-type="dependency" data-source-line="5" id="lnk10"><path codeLine="5" d="M204.01,38.59 C231.75,46.28 274.84,61.07 305.61,85 C321.87,97.64 332.3871,111.489 341.6171,126.499" fill="none" id="foo-to-bar3" style="stroke:#0000FF;stroke-width:1;stroke-dasharray:1,3;"/><polygon fill="#0000FF" points="344.76,131.61,343.453,121.8482,342.1409,127.3508,336.6384,126.0387,344.76,131.61" style="stroke:#0000FF;stroke-width:1;"/><text fill="#0000FF" font-family="sans-serif" font-size="13" lengthAdjust="spacing" textLength="74.8833" x="323.61" y="98.0669">blue dotted</text></g><?plantuml-src JOt12eCm44JlViL0pXPgRmhzbyHigx3DGXB1ppURMCXXcU4DZrtPfeIFo50Eu_Y6in4pWiIVvHu-ONWFD4VoYvQ74_PBfZChGd4q5FRM1FEDHA4ftgQDRgdYOhLiIs--O1mVT8kIyrzK2lrNIrik?></g></svg>