<svg xmlns="http://www.w3.org/2000/svg" xmlns:xlink="http://www.w3.org/1999/xlink" contentStyleType="text/css" data-diagram-type="CLASS" height="236px" preserveAspectRatio="none" style="width:493px;height:236px;background:#FFFFFF;" version="1.1" viewBox="0 0 493 236" width="493px" zoomAndPan="magnify"><?plantuml 1.2026.3beta5?><defs/><g><!--class foo--><g class="entity" data-qualified-name="foo" data-source-line="2" id="ent0002"><rect fill="#F1F1F1" height="48" rx="2.5" ry="2.5" style="stroke:#181818;stroke-width:0.5;" width="54.0596" x="205.52" y="90"/><ellipse cx="220.52" cy="106" fill="#ADD1B2" rx="11" ry="11" style="stroke:#181818;stroke-width:1;"/><path d="M223.4888,111.6406 Q222.9106,111.9375 222.27,112.0781 Q221.6294,112.2344 220.9263,112.2344 Q218.4263,112.2344 217.0981,110.5938 Q215.7856,108.9375 215.7856,105.8125 Q215.7856,102.6875 217.0981,101.0313 Q218.4263,99.375 220.9263,99.375 Q221.6294,99.375 222.27,99.5313 Q222.9263,99.6875 223.4888,99.9844 L223.4888,102.7031 Q222.8638,102.125 222.27,101.8594 Q221.6763,101.5781 221.0513,101.5781 Q219.7075,101.5781 219.02,102.6563 Q218.3325,103.7188 218.3325,105.8125 Q218.3325,107.9063 219.02,108.9844 Q219.7075,110.0469 221.0513,110.0469 Q221.6763,110.0469 222.27,109.7813 Q222.8638,109.5 223.4888,108.9219 L223.4888,111.6406 Z " fill="#000000"/><text fill="#000000" font-family="sans-serif" font-size="14" lengthAdjust="spacing" textLength="22.0596" x="234.52" y="110.8467">foo</text><line style="stroke:#181818;stroke-width:0.5;" x1="206.52" x2="258.5796" y1="122" y2="122"/><line style="stroke:#181818;stroke-width:0.5;" x1="206.52" x2="258.5796" y1="130" y2="130"/></g><!--class dummyLeft--><g class="entity" data-qualified-name="dummyLeft" data-source-line="2" id="ent0003"><rect fill="#F1F1F1" height="48" rx="2.5" ry="2.5" style="stroke:#181818;stroke-width:0.5;" width="112.1514" x="176.47" y="7"/><ellipse cx="191.47" cy="23" fill="#ADD1B2" rx="11" ry="11" style="stroke:#181818;stroke-width:1;"/><path d="M194.4388,28.6406 Q193.8606,28.9375 193.22,29.0781 Q192.5794,29.2344 191.8763,29.2344 Q189.3763,29.2344 188.0481,27.5938 Q186.7356,25.9375 186.7356,22.8125 Q186.7356,19.6875 188.0481,18.0313 Q189.3763,16.375 191.8763,16.375 Q192.5794,16.375 193.22,16.5313 Q193.8763,16.6875 194.4388,16.9844 L194.4388,19.7031 Q193.8138,19.125 193.22,18.8594 Q192.6263,18.5781 192.0013,18.5781 Q190.6575,18.5781 189.97,19.6563 Q189.2825,20.7188 189.2825,22.8125 Q189.2825,24.9063 189.97,25.9844 Q190.6575,27.0469 192.0013,27.0469 Q192.6263,27.0469 193.22,26.7813 Q193.8138,26.5 194.4388,25.9219 L194.4388,28.6406 Z " fill="#000000"/><text fill="#000000" font-family="sans-serif" font-size="14" lengthAdjust="spacing" textLength="80.1514" x="205.47" y="27.8467">dummyLeft</text><line style="stroke:#181818;stroke-width:0.5;" x1="177.47" x2="287.6214" y1="39" y2="39"/><line style="stroke:#181818;stroke-width:0.5;" x1="177.47" x2="287.6214" y1="47" y2="47"/></g><!--class dummyRight--><g class="entity" data-qualified-name="dummyRight" data-source-line="3" id="ent0006"><rect fill="#F1F1F1" height="48" rx="2.5" ry="2.5" style="stroke:#181818;stroke-width:0.5;" width="122.1865" x="171.45" y="173"/><ellipse cx="186.45" cy="189" fill="#ADD1B2" rx="11" ry="11" style="stroke:#181818;stroke-width:1;"/><path d="M189.4188,194.6406 Q188.8406,194.9375 188.2,195.0781 Q187.5594,195.2344 186.8563,195.2344 Q184.3563,195.2344 183.0281,193.5938 Q181.7156,191.9375 181.7156,188.8125 Q181.7156,185.6875 183.0281,184.0313 Q184.3563,182.375 186.8563,182.375 Q187.5594,182.375 188.2,182.5313 Q188.8563,182.6875 189.4188,182.9844 L189.4188,185.7031 Q188.7938,185.125 188.2,184.8594 Q187.6063,184.5781 186.9813,184.5781 Q185.6375,184.5781 184.95,185.6563 Q184.2625,186.7188 184.2625,188.8125 Q184.2625,190.9063 184.95,191.9844 Q185.6375,193.0469 186.9813,193.0469 Q187.6063,193.0469 188.2,192.7813 Q188.7938,192.5 189.4188,191.9219 L189.4188,194.6406 Z " fill="#000000"/><text fill="#000000" font-family="sans-serif" font-size="14" lengthAdjust="spacing" textLength="90.1865" x="200.45" y="193.8467">dummyRight</text><line style="stroke:#181818;stroke-width:0.5;" x1="172.45" x2="292.6365" y1="205" y2="205"/><line style="stroke:#181818;stroke-width:0.5;" x1="172.45" x2="292.6365" y1="213" y2="213"/></g><!--class dummyUp--><g class="entity" data-qualified-name="dummyUp" data-source-line="4" id="ent0008"><rect fill="#F1F1F1" height="48" rx="2.5" ry="2.5" style="stroke:#181818;stroke-width:0.5;" width="104.4541" x="7" y="90"/><ellipse cx="22" cy="106" fill="#ADD1B2" rx="11" ry="11" style="stroke:#181818;stroke-width:1;"/><path d="M24.9688,111.6406 Q24.3906,111.9375 23.75,112.0781 Q23.1094,112.2344 22.4063,112.2344 Q19.9063,112.2344 18.5781,110.5938 Q17.2656,108.9375 17.2656,105.8125 Q17.2656,102.6875 18.5781,101.0313 Q19.9063,99.375 22.4063,99.375 Q23.1094,99.375 23.75,99.5313 Q24.4063,99.6875 24.9688,99.9844 L24.9688,102.7031 Q24.3438,102.125 23.75,101.8594 Q23.1563,101.5781 22.5313,101.5781 Q21.1875,101.5781 20.5,102.6563 Q19.8125,103.7188 19.8125,105.8125 Q19.8125,107.9063 20.5,108.9844 Q21.1875,110.0469 22.5313,110.0469 Q23.1563,110.0469 23.75,109.7813 Q24.3438,109.5 24.9688,108.9219 L24.9688,111.6406 Z " fill="#000000"/><text fill="#000000" font-family="sans-serif" font-size="14" lengthAdjust="spacing" textLength="72.4541" x="36" y="110.8467">dummyUp</text><line style="stroke:#181818;stroke-width:0.5;" x1="8" x2="110.4541" y1="122" y2="122"/><line style="stroke:#181818;stroke-width:0.5;" x1="8" x2="110.4541" y1="130" y2="130"/></g><!--class dummyDown--><g class="entity" data-qualified-name="dummyDown" data-source-line="5" id="ent0011"><rect fill="#F1F1F1" height="48" rx="2.5" ry="2.5" style="stroke:#181818;stroke-width:0.5;" width="124.9893" x="353.64" y="90"/><ellipse cx="368.64" cy="106" fill="#ADD1B2" rx="11" ry="11" style="stroke:#181818;stroke-width:1;"/><path d="M371.6088,111.6406 Q371.0306,111.9375 370.39,112.0781 Q369.7494,112.2344 369.0463,112.2344 Q366.5463,112.2344 365.2181,110.5938 Q363.9056,108.9375 363.9056,105.8125 Q363.9056,102.6875 365.2181,101.0313 Q366.5463,99.375 369.0463,99.375 Q369.7494,99.375 370.39,99.5313 Q371.0463,99.6875 371.6088,99.9844 L371.6088,102.7031 Q370.9838,102.125 370.39,101.8594 Q369.7963,101.5781 369.1713,101.5781 Q367.8275,101.5781 367.14,102.6563 Q366.4525,103.7188 366.4525,105.8125 Q366.4525,107.9063 367.14,108.9844 Q367.8275,110.0469 369.1713,110.0469 Q369.7963,110.0469 370.39,109.7813 Q370.9838,109.5 371.6088,108.9219 L371.6088,111.6406 Z " fill="#000000"/><text fill="#000000" font-family="sans-serif" font-size="14" lengthAdjust="spacing" textLength="92.9893" x="382.64" y="110.8467">dummyDown</text><line style="stroke:#181818;stroke-width:0.5;" x1="354.64" x2="477.6293" y1="122" y2="122"/><line style="stroke:#181818;stroke-width:0.5;" x1="354.64" x2="477.6293" y1="130" y2="130"/></g><!--reverse link dummyLeft to foo--><g class="link" data-entity-1="ent0003" data-entity-2="ent0002" data-link-type="dependency" data-source-line="2" id="lnk5"><path codeLine="2" d="M232.55,61.3 C232.55,72.76 232.55,78.22 232.55,89.68" fill="none" id="dummyLeft-backto-foo" style="stroke:#181818;stroke-width:1;"/><polygon fill="#181818" points="232.55,55.3,228.55,64.3,232.55,60.3,236.55,64.3,232.55,55.3" style="stroke:#181818;stroke-width:1;"/></g><!--link foo to dummyRight--><g class="link" data-entity-1="ent0002" data-entity-2="ent0006" data-link-type="dependency" data-source-line="3" id="lnk7"><path codeLine="3" d="M232.55,138.3 C232.55,149.76 232.55,155.22 232.55,166.68" fill="none" id="foo-to-dummyRight" style="stroke:#181818;stroke-width:1;"/><polygon fill="#181818" points="232.55,172.68,236.55,163.68,232.55,167.68,228.55,163.68,232.55,172.68" style="stroke:#181818;stroke-width:1;"/></g><!--reverse link dummyUp to foo--><g class="link" data-entity-1="ent0008" data-entity-2="ent0002" data-link-type="dependency" data-source-line="4" id="lnk10"><path codeLine="4" d="M117.63,114 C148.38,114 180.18,114 205.03,114" fill="none" id="dummyUp-backto-foo" style="stroke:#181818;stroke-width:1;"/><polygon fill="#181818" points="111.63,114,120.63,118,116.63,114,120.63,110,111.63,114" style="stroke:#181818;stroke-width:1;"/></g><!--link foo to dummyDown--><g class="link" data-entity-1="ent0002" data-entity-2="ent0011" data-link-type="dependency" data-source-line="5" id="lnk12"><path codeLine="5" d="M259.95,114 C284.35,114 315.52,114 347.36,114" fill="none" id="foo-to-dummyDown" style="stroke:#181818;stroke-width:1;"/><polygon fill="#181818" points="353.36,114,344.36,110,348.36,114,344.36,118,353.36,114" style="stroke:#181818;stroke-width:1;"/></g><?plantuml-src oqbDAr4eoLSeoapFA558oInAJIx9pC_ZIilFLz3D0KhgsYcabERcLle0sH1Hi5AOS1280n4lBO09XXP0H5Boo_DWOYv0DW00?></g></svg>