<svg xmlns="http://www.w3.org/2000/svg" xmlns:xlink="http://www.w3.org/1999/xlink" contentStyleType="text/css" data-diagram-type="CLASS" height="351px" preserveAspectRatio="none" style="width:670px;height:351px;background:#FFFFFF;" version="1.1" viewBox="0 0 670 351" width="670px" zoomAndPan="magnify"><?plantuml 1.2026.3beta5?><defs/><g><!--class abstract--><g class="entity" data-qualified-name="abstract" data-source-line="2" id="ent0002"><rect fill="#F1F1F1" height="32" rx="2.5" ry="2.5" style="stroke:#181818;stroke-width:0.5;" width="89.7705" x="7" y="7"/><ellipse cx="22" cy="23" fill="#A9DCDF" rx="11" ry="11" style="stroke:#181818;stroke-width:1;"/><path d="M22.1094,18.3438 L20.9531,23.4219 L23.2813,23.4219 L22.1094,18.3438 Z M20.625,16.1094 L23.6094,16.1094 L26.9688,28.5 L24.5156,28.5 L23.75,25.4375 L20.4688,25.4375 L19.7188,28.5 L17.2813,28.5 L20.625,16.1094 Z " fill="#000000"/><text fill="#000000" font-family="sans-serif" font-size="14" font-style="italic" lengthAdjust="spacing" textLength="57.7705" x="36" y="27.8467">abstract</text></g><!--class abstract class--><g class="entity" data-qualified-name="abstract class" data-source-line="3" id="ent0003"><rect fill="#F1F1F1" height="32" rx="2.5" ry="2.5" style="stroke:#181818;stroke-width:0.5;" width="128.9746" x="131.4" y="7"/><ellipse cx="146.4" cy="23" fill="#A9DCDF" rx="11" ry="11" style="stroke:#181818;stroke-width:1;"/><path d="M146.5094,18.3438 L145.3531,23.4219 L147.6813,23.4219 L146.5094,18.3438 Z M145.025,16.1094 L148.0094,16.1094 L151.3688,28.5 L148.9156,28.5 L148.15,25.4375 L144.8688,25.4375 L144.1188,28.5 L141.6813,28.5 L145.025,16.1094 Z " fill="#000000"/><text fill="#000000" font-family="sans-serif" font-size="14" font-style="italic" lengthAdjust="spacing" textLength="96.9746" x="160.4" y="27.8467">abstract class</text></g><!--class annotation--><g class="entity" data-qualified-name="annotation" data-source-line="4" id="ent0004"><rect fill="#F1F1F1" height="32" rx="2.5" ry="2.5" style="stroke:#181818;stroke-width:0.5;" width="107.7764" x="295" y="7"/><ellipse cx="310" cy="23" fill="#E3664A" rx="11" ry="11" style="stroke:#181818;stroke-width:1;"/><path d="M312.0781,23.4688 Q312.0781,22.5313 311.6563,22 Q311.2344,21.4688 310.4844,21.4688 Q309.75,21.4688 309.3281,22 Q308.9219,22.5313 308.9219,23.4688 Q308.9219,24.4219 309.3281,24.9531 Q309.75,25.4844 310.4844,25.4844 Q311.2344,25.4844 311.6563,24.9531 Q312.0781,24.4219 312.0781,23.4688 Z M313.625,26.875 L312,26.875 L312,26.2031 Q311.6719,26.6406 311.25,26.8438 Q310.8281,27.0469 310.2188,27.0469 Q308.8594,27.0469 308.0313,26.0781 Q307.2031,25.0938 307.2031,23.4688 Q307.2031,21.875 308.0313,20.9063 Q308.8594,19.9219 310.2188,19.9219 Q310.8125,19.9219 311.2656,20.125 Q311.7188,20.3281 312,20.7188 L312,20.375 Q312,19.25 311.375,18.6406 Q310.75,18.0156 309.6094,18.0156 Q307.8906,18.0156 306.7969,19.5469 Q305.7031,21.0625 305.7031,23.5 Q305.7031,26.0469 306.9531,27.5469 Q308.2188,29.0469 310.3281,29.0469 Q310.9844,29.0469 311.6094,28.8594 Q312.2344,28.6719 312.8125,28.2813 L313.5781,29.7344 Q312.9063,30.1875 312.1094,30.4063 Q311.3125,30.6406 310.4063,30.6406 Q307.5,30.6406 305.7656,28.7031 Q304.0469,26.7813 304.0469,23.5 Q304.0469,20.2813 305.5938,18.3594 Q307.1563,16.4219 309.7188,16.4219 Q311.5156,16.4219 312.5625,17.5156 Q313.625,18.6094 313.625,20.4844 L313.625,26.875 Z " fill="#000000"/><text fill="#000000" font-family="sans-serif" font-size="14" lengthAdjust="spacing" textLength="75.7764" x="324" y="27.8467">annotation</text></g><!--entity circle--><g class="entity" data-qualified-name="circle" data-source-line="5" id="ent0005"><ellipse cx="464.89" cy="23" fill="#F1F1F1" rx="8" ry="8" style="stroke:#181818;stroke-width:0.5;"/><text fill="#000000" font-family="sans-serif" font-size="14" lengthAdjust="spacing" textLength="37.543" x="446.1185" y="52.9951">circle</text></g><!--entity circle_short_form--><g class="entity" data-qualified-name="circle_short_form" data-source-line="6" id="ent0006"><ellipse cx="594.89" cy="23" fill="#F1F1F1" rx="8" ry="8" style="stroke:#181818;stroke-width:0.5;"/><text fill="#000000" font-family="sans-serif" font-size="14" lengthAdjust="spacing" textLength="120.4082" x="534.6859" y="52.9951">circle_short_form</text></g><!--class class--><g class="entity" data-qualified-name="class" data-source-line="7" id="ent0007"><rect fill="#F1F1F1" height="32" rx="2.5" ry="2.5" style="stroke:#181818;stroke-width:0.5;" width="66.7539" x="18.51" y="116.14"/><ellipse cx="33.51" cy="132.14" fill="#ADD1B2" rx="11" ry="11" style="stroke:#181818;stroke-width:1;"/><path d="M36.4788,137.7806 Q35.9006,138.0775 35.26,138.2181 Q34.6194,138.3744 33.9163,138.3744 Q31.4162,138.3744 30.0881,136.7338 Q28.7756,135.0775 28.7756,131.9525 Q28.7756,128.8275 30.0881,127.1712 Q31.4162,125.515 33.9163,125.515 Q34.6194,125.515 35.26,125.6712 Q35.9163,125.8275 36.4788,126.1244 L36.4788,128.8431 Q35.8538,128.265 35.26,127.9994 Q34.6663,127.7181 34.0413,127.7181 Q32.6975,127.7181 32.01,128.7963 Q31.3225,129.8588 31.3225,131.9525 Q31.3225,134.0463 32.01,135.1244 Q32.6975,136.1869 34.0413,136.1869 Q34.6663,136.1869 35.26,135.9213 Q35.8538,135.64 36.4788,135.0619 L36.4788,137.7806 Z " fill="#000000"/><text fill="#000000" font-family="sans-serif" font-size="14" lengthAdjust="spacing" textLength="34.7539" x="47.51" y="136.9867">class</text></g><!--class class_stereo--><g class="entity" data-qualified-name="class_stereo" data-source-line="8" id="ent0008"><rect fill="#F1F1F1" height="40.2656" rx="2.5" ry="2.5" style="stroke:#181818;stroke-width:0.5;" width="118.085" x="119.84" y="112"/><ellipse cx="134.84" cy="132.1328" fill="#ADD1B2" rx="11" ry="11" style="stroke:#181818;stroke-width:1;"/><path d="M137.8088,137.7734 Q137.2306,138.0703 136.59,138.2109 Q135.9494,138.3672 135.2463,138.3672 Q132.7463,138.3672 131.4181,136.7266 Q130.1056,135.0703 130.1056,131.9453 Q130.1056,128.8203 131.4181,127.1641 Q132.7463,125.5078 135.2463,125.5078 Q135.9494,125.5078 136.59,125.6641 Q137.2463,125.8203 137.8088,126.1172 L137.8088,128.8359 Q137.1838,128.2578 136.59,127.9922 Q135.9963,127.7109 135.3713,127.7109 Q134.0275,127.7109 133.34,128.7891 Q132.6525,129.8516 132.6525,131.9453 Q132.6525,134.0391 133.34,135.1172 Q134.0275,136.1797 135.3713,136.1797 Q135.9963,136.1797 136.59,135.9141 Q137.1838,135.6328 137.8088,135.0547 L137.8088,137.7734 Z " fill="#000000"/><text fill="#000000" font-family="sans-serif" font-size="12" font-style="italic" lengthAdjust="spacing" textLength="79.4883" x="152.1383" y="128.1387">&#171;stereotype&#187;</text><text fill="#000000" font-family="sans-serif" font-size="14" lengthAdjust="spacing" textLength="86.085" x="148.84" y="143.9639">class_stereo</text></g><!--class dataclass--><g class="entity" data-qualified-name="dataclass" data-source-line="9" id="ent0009"><rect fill="#F1F1F1" height="32" rx="2.5" ry="2.5" style="stroke:#181818;stroke-width:0.5;" width="98.2881" x="272.74" y="116.14"/><ellipse cx="287.74" cy="132.14" fill="#7E57C2" rx="11" ry="11" style="stroke:#181818;stroke-width:1;"/><path d="M287.3338,127.9525 L287.3338,135.9369 L287.99,135.9369 Q289.4275,135.9369 290.0369,135.0306 Q290.6619,134.1088 290.6619,131.9369 Q290.6619,129.765 290.0369,128.8588 Q289.4275,127.9525 287.99,127.9525 L287.3338,127.9525 Z M284.8806,125.7494 L287.5056,125.7494 Q290.5369,125.7494 291.865,127.2025 Q293.2088,128.64 293.2088,131.9369 Q293.2088,135.2338 291.865,136.6869 Q290.5369,138.14 287.5056,138.14 L284.8806,138.14 L284.8806,125.7494 Z " fill="#000000"/><text fill="#000000" font-family="sans-serif" font-size="14" lengthAdjust="spacing" textLength="66.2881" x="301.74" y="136.9867">dataclass</text></g><g class="entity" data-qualified-name="diamond" id="ent0010"><polygon fill="#F1F1F1" points="417.89,120.14,429.89,132.14,417.89,144.14,405.89,132.14,417.89,120.14" style="stroke:#181818;stroke-width:0.5;"/></g><polygon fill="#F1F1F1" points="476.89,120.14,488.89,132.14,476.89,144.14,464.89,132.14,476.89,120.14" style="stroke:#181818;stroke-width:0.5;"/><!--class entity--><g class="entity" data-qualified-name="entity" data-source-line="12" id="ent0012"><rect fill="#F1F1F1" height="32" rx="2.5" ry="2.5" style="stroke:#181818;stroke-width:0.5;" width="72.6396" x="15.57" y="212.27"/><ellipse cx="30.57" cy="228.27" fill="#ADD1B2" rx="11" ry="11" style="stroke:#181818;stroke-width:1;"/><path d="M34.6794,234.27 L26.9606,234.27 L26.9606,221.8794 L34.6794,221.8794 L34.6794,224.0356 L29.4138,224.0356 L29.4138,226.7075 L34.1794,226.7075 L34.1794,228.8637 L29.4138,228.8637 L29.4138,232.1137 L34.6794,232.1137 L34.6794,234.27 Z " fill="#000000"/><text fill="#000000" font-family="sans-serif" font-size="14" lengthAdjust="spacing" textLength="40.6396" x="44.57" y="233.1167">entity</text></g><!--class enum--><g class="entity" data-qualified-name="enum" data-source-line="13" id="ent0013"><rect fill="#F1F1F1" height="32" rx="2.5" ry="2.5" style="stroke:#181818;stroke-width:0.5;" width="71.9971" x="122.89" y="212.27"/><ellipse cx="137.89" cy="228.27" fill="#EB937F" rx="11" ry="11" style="stroke:#181818;stroke-width:1;"/><path d="M141.9994,234.27 L134.2806,234.27 L134.2806,221.8794 L141.9994,221.8794 L141.9994,224.0356 L136.7338,224.0356 L136.7338,226.7075 L141.4994,226.7075 L141.4994,228.8637 L136.7338,228.8637 L136.7338,232.1137 L141.9994,232.1137 L141.9994,234.27 Z " fill="#000000"/><text fill="#000000" font-family="sans-serif" font-size="14" lengthAdjust="spacing" textLength="39.9971" x="151.89" y="233.1167">enum</text></g><!--class exception--><g class="entity" data-qualified-name="exception" data-source-line="14" id="ent0014"><rect fill="#F1F1F1" height="32" rx="2.5" ry="2.5" style="stroke:#181818;stroke-width:0.5;" width="100.9131" x="229.43" y="212.27"/><ellipse cx="244.43" cy="228.27" fill="#D94321" rx="11" ry="11" style="stroke:#181818;stroke-width:1;"/><path d="M249.4456,234.27 L246.9144,234.27 L244.5394,230.1762 L242.18,234.27 L239.6488,234.27 L243.2894,227.9731 L239.7581,221.8794 L242.2894,221.8794 L244.5394,225.8169 L246.805,221.8794 L249.3363,221.8794 L245.8206,227.9731 L249.4456,234.27 Z " fill="#000000"/><text fill="#000000" font-family="sans-serif" font-size="14" lengthAdjust="spacing" textLength="68.9131" x="258.43" y="233.1167">exception</text></g><!--class interface--><g class="entity" data-qualified-name="interface" data-source-line="15" id="ent0015"><rect fill="#F1F1F1" height="32" rx="2.5" ry="2.5" style="stroke:#181818;stroke-width:0.5;" width="94.4395" x="365.67" y="212.27"/><ellipse cx="380.67" cy="228.27" fill="#B4A7E5" rx="11" ry="11" style="stroke:#181818;stroke-width:1;"/><path d="M376.5919,224.0356 L376.5919,221.8794 L383.9825,221.8794 L383.9825,224.0356 L381.5138,224.0356 L381.5138,232.1137 L383.9825,232.1137 L383.9825,234.27 L376.5919,234.27 L376.5919,232.1137 L379.0606,232.1137 L379.0606,224.0356 L376.5919,224.0356 Z " fill="#000000"/><text fill="#000000" font-family="sans-serif" font-size="14" font-style="italic" lengthAdjust="spacing" textLength="62.4395" x="394.67" y="233.1167">interface</text></g><!--class metaclass--><g class="entity" data-qualified-name="metaclass" data-source-line="16" id="ent0016"><rect fill="#F1F1F1" height="32" rx="2.5" ry="2.5" style="stroke:#181818;stroke-width:0.5;" width="103.0732" x="495.35" y="212.27"/><ellipse cx="510.35" cy="228.27" fill="#CCCCCC" rx="11" ry="11" style="stroke:#181818;stroke-width:1;"/><path d="M506.0688,221.8794 L508.9906,221.8794 L510.4594,227.3169 L511.9281,221.8794 L514.8656,221.8794 L514.8656,234.27 L512.7563,234.27 L512.7563,224.3481 L511.4438,229.77 L509.5063,229.77 L508.1781,224.3481 L508.1781,234.27 L506.0688,234.27 L506.0688,221.8794 Z " fill="#000000"/><text fill="#000000" font-family="sans-serif" font-size="14" lengthAdjust="spacing" textLength="71.0732" x="524.35" y="233.1167">metaclass</text></g><!--class protocol--><g class="entity" data-qualified-name="protocol" data-source-line="17" id="ent0017"><rect fill="#F1F1F1" height="32" rx="2.5" ry="2.5" style="stroke:#181818;stroke-width:0.5;" width="89.415" x="7.18" y="304.27"/><ellipse cx="22.18" cy="320.27" fill="#F1F1F1" rx="11" ry="11" style="stroke:#181818;stroke-width:1;"/><path d="M21.9769,315.9419 L21.9769,319.5669 L22.9769,319.5669 Q24.18,319.5669 24.6644,319.1606 Q25.1488,318.7544 25.1488,317.7544 Q25.1488,316.7544 24.6644,316.3481 Q24.18,315.9419 22.9769,315.9419 L21.9769,315.9419 Z M19.5238,313.8794 L22.8831,313.8794 Q25.4456,313.8794 26.5706,314.8013 Q27.6956,315.7075 27.6956,317.7544 Q27.6956,319.8013 26.5706,320.7231 Q25.4456,321.6294 22.8831,321.6294 L21.9769,321.6294 L21.9769,326.27 L19.5238,326.27 L19.5238,313.8794 Z " fill="#000000"/><text fill="#000000" font-family="sans-serif" font-size="14" lengthAdjust="spacing" textLength="57.415" x="36.18" y="325.1167">protocol</text></g><!--class record--><g class="entity" data-qualified-name="record" data-source-line="18" id="ent0018"><rect fill="#F1F1F1" height="32" rx="2.5" ry="2.5" style="stroke:#181818;stroke-width:0.5;" width="77.2744" x="131.25" y="304.27"/><ellipse cx="146.25" cy="320.27" fill="#FF8F00" rx="11" ry="11" style="stroke:#181818;stroke-width:1;"/><path d="M147.4531,320.4106 Q147.8125,320.4888 148.0781,320.77 Q148.3594,321.0356 148.75,321.8169 L150.9844,326.27 L148.2969,326.27 L146.7969,323.145 Q146.7344,323.0044 146.625,322.77 Q145.9688,321.3794 145.0781,321.3794 L144.2969,321.3794 L144.2969,326.27 L141.8594,326.27 L141.8594,313.8794 L145.3906,313.8794 Q147.7813,313.8794 148.8125,314.7231 Q149.8594,315.5669 149.8594,317.4731 Q149.8594,318.7544 149.2344,319.52 Q148.625,320.27 147.4531,320.4106 Z M144.2969,315.9419 L144.2969,319.3169 L145.4531,319.3169 Q146.4688,319.3169 146.8906,318.9263 Q147.3281,318.52 147.3281,317.6138 Q147.3281,316.7231 146.8906,316.3325 Q146.4688,315.9419 145.4531,315.9419 L144.2969,315.9419 Z " fill="#000000"/><text fill="#000000" font-family="sans-serif" font-size="14" lengthAdjust="spacing" textLength="45.2744" x="160.25" y="325.1167">record</text></g><!--class stereotype--><g class="entity" data-qualified-name="stereotype" data-source-line="19" id="ent0019"><rect fill="#F1F1F1" height="32" rx="2.5" ry="2.5" style="stroke:#181818;stroke-width:0.5;" width="107.6055" x="243.08" y="304.27"/><ellipse cx="258.08" cy="320.27" fill="#FF77FF" rx="11" ry="11" style="stroke:#181818;stroke-width:1;"/><path d="M257.5644,320.8325 Q255.705,320.1294 255.0488,319.3638 Q254.4081,318.5825 254.4081,317.27 Q254.4081,315.5825 255.4863,314.6138 Q256.5644,313.645 258.4394,313.645 Q259.2988,313.645 260.1425,313.8481 Q261.0019,314.0356 261.8456,314.4263 L261.8456,316.8169 Q261.0644,316.2544 260.2363,315.9731 Q259.4238,315.6763 258.6269,315.6763 Q257.7519,315.6763 257.2675,316.0356 Q256.7988,316.395 256.7988,317.0513 Q256.7988,317.5669 257.1425,317.9106 Q257.4863,318.2388 258.58,318.645 L259.6425,319.0513 Q261.1269,319.5981 261.83,320.5044 Q262.5488,321.4106 262.5488,322.7856 Q262.5488,324.6606 261.4394,325.5825 Q260.33,326.5044 258.08,326.5044 Q257.1581,326.5044 256.2363,326.2856 Q255.3144,326.0669 254.455,325.645 L254.455,323.1138 Q255.4238,323.8013 256.3456,324.145 Q257.2675,324.4888 258.1581,324.4888 Q259.0644,324.4888 259.5644,324.0825 Q260.0644,323.6606 260.0644,322.9263 Q260.0644,322.3638 259.7206,321.9575 Q259.3925,321.5356 258.7675,321.2856 L257.5644,320.8325 Z " fill="#000000"/><text fill="#000000" font-family="sans-serif" font-size="14" lengthAdjust="spacing" textLength="75.6055" x="272.08" y="325.1167">stereotype</text></g><!--class struct--><g class="entity" data-qualified-name="struct" data-source-line="20" id="ent0020"><rect fill="#F1F1F1" height="32" rx="2.5" ry="2.5" style="stroke:#181818;stroke-width:0.5;" width="72.5986" x="385.59" y="304.27"/><ellipse cx="400.59" cy="320.27" fill="#F1F1F1" rx="11" ry="11" style="stroke:#181818;stroke-width:1;"/><path d="M400.0744,320.8325 Q398.215,320.1294 397.5588,319.3638 Q396.9181,318.5825 396.9181,317.27 Q396.9181,315.5825 397.9963,314.6138 Q399.0744,313.645 400.9494,313.645 Q401.8088,313.645 402.6525,313.8481 Q403.5119,314.0356 404.3556,314.4263 L404.3556,316.8169 Q403.5744,316.2544 402.7463,315.9731 Q401.9338,315.6763 401.1369,315.6763 Q400.2619,315.6763 399.7775,316.0356 Q399.3088,316.395 399.3088,317.0513 Q399.3088,317.5669 399.6525,317.9106 Q399.9963,318.2388 401.09,318.645 L402.1525,319.0513 Q403.6369,319.5981 404.34,320.5044 Q405.0588,321.4106 405.0588,322.7856 Q405.0588,324.6606 403.9494,325.5825 Q402.84,326.5044 400.59,326.5044 Q399.6681,326.5044 398.7463,326.2856 Q397.8244,326.0669 396.965,325.645 L396.965,323.1138 Q397.9338,323.8013 398.8556,324.145 Q399.7775,324.4888 400.6681,324.4888 Q401.5744,324.4888 402.0744,324.0825 Q402.5744,323.6606 402.5744,322.9263 Q402.5744,322.3638 402.2306,321.9575 Q401.9025,321.5356 401.2775,321.2856 L400.0744,320.8325 Z " fill="#000000"/><text fill="#000000" font-family="sans-serif" font-size="14" lengthAdjust="spacing" textLength="40.5986" x="414.59" y="325.1167">struct</text></g><?plantuml-src RP7H3eCW34NV-nNDdhP_CFwAgTXb949DgSdy-sb0q6HzujnIk5m-VcBaiDY6WSF8ce36P4hEiDJ9hU5cIWdnSHSUG36AaNc9PR8oEAzkPgoL6Pull5MMX_GHjU4j6g3SrNOS_5yTah6o87PTNjcsSD_3H4RNWSemUGeIftfCOUZwkwsYNtrnDB-7LYlpBg_XEdamyDVnqcB1ok3ZRlHDxaocCWI-cwuCYug9a_cyucHGTgBjCPWPMXPPRhotT6qVVRGE_W40?></g></svg>