<svg xmlns="http://www.w3.org/2000/svg" xmlns:xlink="http://www.w3.org/1999/xlink" contentStyleType="text/css" data-diagram-type="CLASS" height="178px" preserveAspectRatio="none" style="width:140px;height:178px;background:#FFFFFF;" version="1.1" viewBox="0 0 140 178" width="140px" zoomAndPan="magnify"><?plantuml 1.2026.3beta5?><defs/><g><!--class A--><g class="entity" data-qualified-name="A" data-source-line="1" id="ent0002"><rect fill="#F1F1F1" height="48" rx="2.5" ry="2.5" style="stroke:#181818;stroke-width:0.5;" width="41.5771" x="45.01" y="115"/><ellipse cx="60.01" cy="131" fill="#ADD1B2" rx="11" ry="11" style="stroke:#181818;stroke-width:1;"/><path d="M62.9788,136.6406 Q62.4006,136.9375 61.76,137.0781 Q61.1194,137.2344 60.4163,137.2344 Q57.9163,137.2344 56.5881,135.5938 Q55.2756,133.9375 55.2756,130.8125 Q55.2756,127.6875 56.5881,126.0313 Q57.9163,124.375 60.4163,124.375 Q61.1194,124.375 61.76,124.5313 Q62.4163,124.6875 62.9788,124.9844 L62.9788,127.7031 Q62.3538,127.125 61.76,126.8594 Q61.1663,126.5781 60.5413,126.5781 Q59.1975,126.5781 58.51,127.6563 Q57.8225,128.7188 57.8225,130.8125 Q57.8225,132.9063 58.51,133.9844 Q59.1975,135.0469 60.5413,135.0469 Q61.1663,135.0469 61.76,134.7813 Q62.3538,134.5 62.9788,133.9219 L62.9788,136.6406 Z " fill="#000000"/><text fill="#000000" font-family="sans-serif" font-size="14" lengthAdjust="spacing" textLength="9.5771" x="74.01" y="135.8467">A</text><line style="stroke:#181818;stroke-width:0.5;" x1="46.01" x2="85.5871" y1="147" y2="147"/><line style="stroke:#181818;stroke-width:0.5;" x1="46.01" x2="85.5871" y1="155" y2="155"/></g><!--class B--><g class="entity" data-qualified-name="B" id="ent0003"><rect fill="#F1F1F1" height="48" rx="2.5" ry="2.5" style="stroke:#181818;stroke-width:0.5;" width="41.6045" x="7" y="7"/><ellipse cx="22" cy="23" fill="#ADD1B2" rx="11" ry="11" style="stroke:#181818;stroke-width:1;"/><path d="M24.9688,28.6406 Q24.3906,28.9375 23.75,29.0781 Q23.1094,29.2344 22.4063,29.2344 Q19.9063,29.2344 18.5781,27.5938 Q17.2656,25.9375 17.2656,22.8125 Q17.2656,19.6875 18.5781,18.0313 Q19.9063,16.375 22.4063,16.375 Q23.1094,16.375 23.75,16.5313 Q24.4063,16.6875 24.9688,16.9844 L24.9688,19.7031 Q24.3438,19.125 23.75,18.8594 Q23.1563,18.5781 22.5313,18.5781 Q21.1875,18.5781 20.5,19.6563 Q19.8125,20.7188 19.8125,22.8125 Q19.8125,24.9063 20.5,25.9844 Q21.1875,27.0469 22.5313,27.0469 Q23.1563,27.0469 23.75,26.7813 Q24.3438,26.5 24.9688,25.9219 L24.9688,28.6406 Z " fill="#000000"/><text fill="#000000" font-family="sans-serif" font-size="14" lengthAdjust="spacing" textLength="9.6045" x="36" y="27.8467">B</text><line style="stroke:#181818;stroke-width:0.5;" x1="8" x2="47.6045" y1="39" y2="39"/><line style="stroke:#181818;stroke-width:0.5;" x1="8" x2="47.6045" y1="47" y2="47"/></g><!--class C--><g class="entity" data-qualified-name="C" id="ent0005"><rect fill="#F1F1F1" height="48" rx="2.5" ry="2.5" style="stroke:#181818;stroke-width:0.5;" width="41.7754" x="83.91" y="7"/><ellipse cx="98.91" cy="23" fill="#ADD1B2" rx="11" ry="11" style="stroke:#181818;stroke-width:1;"/><path d="M101.8788,28.6406 Q101.3006,28.9375 100.66,29.0781 Q100.0194,29.2344 99.3163,29.2344 Q96.8163,29.2344 95.4881,27.5938 Q94.1756,25.9375 94.1756,22.8125 Q94.1756,19.6875 95.4881,18.0313 Q96.8163,16.375 99.3163,16.375 Q100.0194,16.375 100.66,16.5313 Q101.3163,16.6875 101.8788,16.9844 L101.8788,19.7031 Q101.2538,19.125 100.66,18.8594 Q100.0663,18.5781 99.4413,18.5781 Q98.0975,18.5781 97.41,19.6563 Q96.7225,20.7188 96.7225,22.8125 Q96.7225,24.9063 97.41,25.9844 Q98.0975,27.0469 99.4413,27.0469 Q100.0663,27.0469 100.66,26.7813 Q101.2538,26.5 101.8788,25.9219 L101.8788,28.6406 Z " fill="#000000"/><text fill="#000000" font-family="sans-serif" font-size="14" lengthAdjust="spacing" textLength="9.7754" x="112.91" y="27.8467">C</text><line style="stroke:#181818;stroke-width:0.5;" x1="84.91" x2="124.6854" y1="39" y2="39"/><line style="stroke:#181818;stroke-width:0.5;" x1="84.91" x2="124.6854" y1="47" y2="47"/></g><!--reverse link B to A--><g class="link" data-entity-1="ent0003" data-entity-2="ent0002" data-link-type="extension" id="lnk4"><path d="M42.2159,72.2035 C48.5559,89.8835 51.15,97.13 57.48,114.79" fill="none" id="B-backto-A" style="stroke:#181818;stroke-width:1;"/><polygon fill="none" points="36.14,55.26,36.5681,74.2288,47.8638,70.1782,36.14,55.26" style="stroke:#181818;stroke-width:1;"/></g><!--reverse link C to A--><g class="link" data-entity-1="ent0005" data-entity-2="ent0002" data-link-type="extension" id="lnk6"><path d="M90.0288,72.1544 C83.5288,89.8344 80.84,97.13 74.34,114.79" fill="none" id="C-backto-A" style="stroke:#181818;stroke-width:1;"/><polygon fill="none" points="96.24,55.26,84.3973,70.084,95.6603,74.2248,96.24,55.26" style="stroke:#181818;stroke-width:1;"/></g><?plantuml-src Iyv9B2vMS5H8hIX9pKifLd3IKN1MgEQg1G00?></g></svg>