<svg xmlns="http://www.w3.org/2000/svg" xmlns:xlink="http://www.w3.org/1999/xlink" contentStyleType="text/css" data-diagram-type="CLASS" height="198px" preserveAspectRatio="none" style="width:846px;height:198px;background:#FFFFFF;" version="1.1" viewBox="0 0 846 198" width="846px" zoomAndPan="magnify"><?plantuml 1.2026.3beta5?><defs/><g><!--class A1--><g class="entity" data-qualified-name="A1" data-source-line="3" id="ent0002"><rect fill="#F1F1F1" height="48" rx="2.5" ry="2.5" style="stroke:#181818;stroke-width:0.5;" width="50.4844" x="7.01" y="7"/><ellipse cx="22.01" cy="23" fill="#ADD1B2" rx="11" ry="11" style="stroke:#181818;stroke-width:1;"/><path d="M24.9787,28.6406 Q24.4006,28.9375 23.76,29.0781 Q23.1194,29.2344 22.4162,29.2344 Q19.9162,29.2344 18.5881,27.5938 Q17.2756,25.9375 17.2756,22.8125 Q17.2756,19.6875 18.5881,18.0313 Q19.9162,16.375 22.4162,16.375 Q23.1194,16.375 23.76,16.5313 Q24.4162,16.6875 24.9787,16.9844 L24.9787,19.7031 Q24.3537,19.125 23.76,18.8594 Q23.1662,18.5781 22.5412,18.5781 Q21.1975,18.5781 20.51,19.6563 Q19.8225,20.7188 19.8225,22.8125 Q19.8225,24.9063 20.51,25.9844 Q21.1975,27.0469 22.5412,27.0469 Q23.1662,27.0469 23.76,26.7813 Q24.3537,26.5 24.9787,25.9219 L24.9787,28.6406 Z " fill="#000000"/><text fill="#000000" font-family="sans-serif" font-size="14" lengthAdjust="spacing" textLength="18.4844" x="36.01" y="27.8467">A1</text><line style="stroke:#181818;stroke-width:0.5;" x1="8.01" x2="56.4944" y1="39" y2="39"/><line style="stroke:#181818;stroke-width:0.5;" x1="8.01" x2="56.4944" y1="47" y2="47"/></g><!--class B1--><g class="entity" data-qualified-name="B1" data-source-line="3" id="ent0003"><rect fill="#F1F1F1" height="48" rx="2.5" ry="2.5" style="stroke:#181818;stroke-width:0.5;" width="50.5117" x="7" y="135"/><ellipse cx="22" cy="151" fill="#ADD1B2" rx="11" ry="11" style="stroke:#181818;stroke-width:1;"/><path d="M24.9688,156.6406 Q24.3906,156.9375 23.75,157.0781 Q23.1094,157.2344 22.4063,157.2344 Q19.9063,157.2344 18.5781,155.5938 Q17.2656,153.9375 17.2656,150.8125 Q17.2656,147.6875 18.5781,146.0313 Q19.9063,144.375 22.4063,144.375 Q23.1094,144.375 23.75,144.5313 Q24.4063,144.6875 24.9688,144.9844 L24.9688,147.7031 Q24.3438,147.125 23.75,146.8594 Q23.1563,146.5781 22.5313,146.5781 Q21.1875,146.5781 20.5,147.6563 Q19.8125,148.7188 19.8125,150.8125 Q19.8125,152.9063 20.5,153.9844 Q21.1875,155.0469 22.5313,155.0469 Q23.1563,155.0469 23.75,154.7813 Q24.3438,154.5 24.9688,153.9219 L24.9688,156.6406 Z " fill="#000000"/><text fill="#000000" font-family="sans-serif" font-size="14" lengthAdjust="spacing" textLength="18.5117" x="36" y="155.8467">B1</text><line style="stroke:#181818;stroke-width:0.5;" x1="8" x2="56.5117" y1="167" y2="167"/><line style="stroke:#181818;stroke-width:0.5;" x1="8" x2="56.5117" y1="175" y2="175"/></g><!--class A2--><g class="entity" data-qualified-name="A2" data-source-line="5" id="ent0005"><rect fill="#F1F1F1" height="48" rx="2.5" ry="2.5" style="stroke:#181818;stroke-width:0.5;" width="50.4844" x="136.01" y="7"/><ellipse cx="151.01" cy="23" fill="#ADD1B2" rx="11" ry="11" style="stroke:#181818;stroke-width:1;"/><path d="M153.9788,28.6406 Q153.4006,28.9375 152.76,29.0781 Q152.1194,29.2344 151.4163,29.2344 Q148.9163,29.2344 147.5881,27.5938 Q146.2756,25.9375 146.2756,22.8125 Q146.2756,19.6875 147.5881,18.0313 Q148.9163,16.375 151.4163,16.375 Q152.1194,16.375 152.76,16.5313 Q153.4163,16.6875 153.9788,16.9844 L153.9788,19.7031 Q153.3538,19.125 152.76,18.8594 Q152.1663,18.5781 151.5413,18.5781 Q150.1975,18.5781 149.51,19.6563 Q148.8225,20.7188 148.8225,22.8125 Q148.8225,24.9063 149.51,25.9844 Q150.1975,27.0469 151.5413,27.0469 Q152.1663,27.0469 152.76,26.7813 Q153.3538,26.5 153.9788,25.9219 L153.9788,28.6406 Z " fill="#000000"/><text fill="#000000" font-family="sans-serif" font-size="14" lengthAdjust="spacing" textLength="18.4844" x="165.01" y="27.8467">A2</text><line style="stroke:#181818;stroke-width:0.5;" x1="137.01" x2="185.4944" y1="39" y2="39"/><line style="stroke:#181818;stroke-width:0.5;" x1="137.01" x2="185.4944" y1="47" y2="47"/></g><!--class B2--><g class="entity" data-qualified-name="B2" data-source-line="5" id="ent0006"><rect fill="#F1F1F1" height="48" rx="2.5" ry="2.5" style="stroke:#181818;stroke-width:0.5;" width="50.5117" x="93" y="135"/><ellipse cx="108" cy="151" fill="#ADD1B2" rx="11" ry="11" style="stroke:#181818;stroke-width:1;"/><path d="M110.9688,156.6406 Q110.3906,156.9375 109.75,157.0781 Q109.1094,157.2344 108.4063,157.2344 Q105.9063,157.2344 104.5781,155.5938 Q103.2656,153.9375 103.2656,150.8125 Q103.2656,147.6875 104.5781,146.0313 Q105.9063,144.375 108.4063,144.375 Q109.1094,144.375 109.75,144.5313 Q110.4063,144.6875 110.9688,144.9844 L110.9688,147.7031 Q110.3438,147.125 109.75,146.8594 Q109.1563,146.5781 108.5313,146.5781 Q107.1875,146.5781 106.5,147.6563 Q105.8125,148.7188 105.8125,150.8125 Q105.8125,152.9063 106.5,153.9844 Q107.1875,155.0469 108.5313,155.0469 Q109.1563,155.0469 109.75,154.7813 Q110.3438,154.5 110.9688,153.9219 L110.9688,156.6406 Z " fill="#000000"/><text fill="#000000" font-family="sans-serif" font-size="14" lengthAdjust="spacing" textLength="18.5117" x="122" y="155.8467">B2</text><line style="stroke:#181818;stroke-width:0.5;" x1="94" x2="142.5117" y1="167" y2="167"/><line style="stroke:#181818;stroke-width:0.5;" x1="94" x2="142.5117" y1="175" y2="175"/></g><!--class C2--><g class="entity" data-qualified-name="C2" data-source-line="6" id="ent0008"><rect fill="#F1F1F1" height="48" rx="2.5" ry="2.5" style="stroke:#181818;stroke-width:0.5;" width="50.6826" x="178.91" y="135"/><ellipse cx="193.91" cy="151" fill="#ADD1B2" rx="11" ry="11" style="stroke:#181818;stroke-width:1;"/><path d="M196.8788,156.6406 Q196.3006,156.9375 195.66,157.0781 Q195.0194,157.2344 194.3163,157.2344 Q191.8163,157.2344 190.4881,155.5938 Q189.1756,153.9375 189.1756,150.8125 Q189.1756,147.6875 190.4881,146.0313 Q191.8163,144.375 194.3163,144.375 Q195.0194,144.375 195.66,144.5313 Q196.3163,144.6875 196.8788,144.9844 L196.8788,147.7031 Q196.2538,147.125 195.66,146.8594 Q195.0663,146.5781 194.4413,146.5781 Q193.0975,146.5781 192.41,147.6563 Q191.7225,148.7188 191.7225,150.8125 Q191.7225,152.9063 192.41,153.9844 Q193.0975,155.0469 194.4413,155.0469 Q195.0663,155.0469 195.66,154.7813 Q196.2538,154.5 196.8788,153.9219 L196.8788,156.6406 Z " fill="#000000"/><text fill="#000000" font-family="sans-serif" font-size="14" lengthAdjust="spacing" textLength="18.6826" x="207.91" y="155.8467">C2</text><line style="stroke:#181818;stroke-width:0.5;" x1="179.91" x2="228.5926" y1="167" y2="167"/><line style="stroke:#181818;stroke-width:0.5;" x1="179.91" x2="228.5926" y1="175" y2="175"/></g><!--class A3--><g class="entity" data-qualified-name="A3" data-source-line="8" id="ent0010"><rect fill="#F1F1F1" height="48" rx="2.5" ry="2.5" style="stroke:#181818;stroke-width:0.5;" width="50.4844" x="351.01" y="7"/><ellipse cx="366.01" cy="23" fill="#ADD1B2" rx="11" ry="11" style="stroke:#181818;stroke-width:1;"/><path d="M368.9788,28.6406 Q368.4006,28.9375 367.76,29.0781 Q367.1194,29.2344 366.4163,29.2344 Q363.9163,29.2344 362.5881,27.5938 Q361.2756,25.9375 361.2756,22.8125 Q361.2756,19.6875 362.5881,18.0313 Q363.9163,16.375 366.4163,16.375 Q367.1194,16.375 367.76,16.5313 Q368.4163,16.6875 368.9788,16.9844 L368.9788,19.7031 Q368.3538,19.125 367.76,18.8594 Q367.1663,18.5781 366.5413,18.5781 Q365.1975,18.5781 364.51,19.6563 Q363.8225,20.7188 363.8225,22.8125 Q363.8225,24.9063 364.51,25.9844 Q365.1975,27.0469 366.5413,27.0469 Q367.1663,27.0469 367.76,26.7813 Q368.3538,26.5 368.9788,25.9219 L368.9788,28.6406 Z " fill="#000000"/><text fill="#000000" font-family="sans-serif" font-size="14" lengthAdjust="spacing" textLength="18.4844" x="380.01" y="27.8467">A3</text><line style="stroke:#181818;stroke-width:0.5;" x1="352.01" x2="400.4944" y1="39" y2="39"/><line style="stroke:#181818;stroke-width:0.5;" x1="352.01" x2="400.4944" y1="47" y2="47"/></g><polygon fill="none" points="376.2564,55,383.2598,74.9988,369.2598,75.0012" style="stroke:#181818;stroke-width:1;"/><line style="stroke:#181818;stroke-width:1;" x1="376.2598" x2="376.26" y1="75" y2="76"/><!--class B3--><g class="entity" data-qualified-name="B3" data-source-line="8" id="ent0011"><rect fill="#F1F1F1" height="48" rx="2.5" ry="2.5" style="stroke:#181818;stroke-width:0.5;" width="50.5117" x="265" y="135"/><ellipse cx="280" cy="151" fill="#ADD1B2" rx="11" ry="11" style="stroke:#181818;stroke-width:1;"/><path d="M282.9688,156.6406 Q282.3906,156.9375 281.75,157.0781 Q281.1094,157.2344 280.4063,157.2344 Q277.9063,157.2344 276.5781,155.5938 Q275.2656,153.9375 275.2656,150.8125 Q275.2656,147.6875 276.5781,146.0313 Q277.9063,144.375 280.4063,144.375 Q281.1094,144.375 281.75,144.5313 Q282.4063,144.6875 282.9688,144.9844 L282.9688,147.7031 Q282.3438,147.125 281.75,146.8594 Q281.1563,146.5781 280.5313,146.5781 Q279.1875,146.5781 278.5,147.6563 Q277.8125,148.7188 277.8125,150.8125 Q277.8125,152.9063 278.5,153.9844 Q279.1875,155.0469 280.5313,155.0469 Q281.1563,155.0469 281.75,154.7813 Q282.3438,154.5 282.9688,153.9219 L282.9688,156.6406 Z " fill="#000000"/><text fill="#000000" font-family="sans-serif" font-size="14" lengthAdjust="spacing" textLength="18.5117" x="294" y="155.8467">B3</text><line style="stroke:#181818;stroke-width:0.5;" x1="266" x2="314.5117" y1="167" y2="167"/><line style="stroke:#181818;stroke-width:0.5;" x1="266" x2="314.5117" y1="175" y2="175"/></g><!--class C3--><g class="entity" data-qualified-name="C3" data-source-line="9" id="ent0013"><rect fill="#F1F1F1" height="48" rx="2.5" ry="2.5" style="stroke:#181818;stroke-width:0.5;" width="50.6826" x="350.91" y="135"/><ellipse cx="365.91" cy="151" fill="#ADD1B2" rx="11" ry="11" style="stroke:#181818;stroke-width:1;"/><path d="M368.8788,156.6406 Q368.3006,156.9375 367.66,157.0781 Q367.0194,157.2344 366.3163,157.2344 Q363.8163,157.2344 362.4881,155.5938 Q361.1756,153.9375 361.1756,150.8125 Q361.1756,147.6875 362.4881,146.0313 Q363.8163,144.375 366.3163,144.375 Q367.0194,144.375 367.66,144.5313 Q368.3163,144.6875 368.8788,144.9844 L368.8788,147.7031 Q368.2538,147.125 367.66,146.8594 Q367.0663,146.5781 366.4413,146.5781 Q365.0975,146.5781 364.41,147.6563 Q363.7225,148.7188 363.7225,150.8125 Q363.7225,152.9063 364.41,153.9844 Q365.0975,155.0469 366.4413,155.0469 Q367.0663,155.0469 367.66,154.7813 Q368.2538,154.5 368.8788,153.9219 L368.8788,156.6406 Z " fill="#000000"/><text fill="#000000" font-family="sans-serif" font-size="14" lengthAdjust="spacing" textLength="18.6826" x="379.91" y="155.8467">C3</text><line style="stroke:#181818;stroke-width:0.5;" x1="351.91" x2="400.5926" y1="167" y2="167"/><line style="stroke:#181818;stroke-width:0.5;" x1="351.91" x2="400.5926" y1="175" y2="175"/></g><!--class D3--><g class="entity" data-qualified-name="D3" data-source-line="10" id="ent0015"><rect fill="#F1F1F1" height="48" rx="2.5" ry="2.5" style="stroke:#181818;stroke-width:0.5;" width="51.6875" x="436.41" y="135"/><ellipse cx="451.41" cy="151" fill="#ADD1B2" rx="11" ry="11" style="stroke:#181818;stroke-width:1;"/><path d="M454.3788,156.6406 Q453.8006,156.9375 453.16,157.0781 Q452.5194,157.2344 451.8163,157.2344 Q449.3163,157.2344 447.9881,155.5938 Q446.6756,153.9375 446.6756,150.8125 Q446.6756,147.6875 447.9881,146.0313 Q449.3163,144.375 451.8163,144.375 Q452.5194,144.375 453.16,144.5313 Q453.8163,144.6875 454.3788,144.9844 L454.3788,147.7031 Q453.7538,147.125 453.16,146.8594 Q452.5663,146.5781 451.9413,146.5781 Q450.5975,146.5781 449.91,147.6563 Q449.2225,148.7188 449.2225,150.8125 Q449.2225,152.9063 449.91,153.9844 Q450.5975,155.0469 451.9413,155.0469 Q452.5663,155.0469 453.16,154.7813 Q453.7538,154.5 454.3788,153.9219 L454.3788,156.6406 Z " fill="#000000"/><text fill="#000000" font-family="sans-serif" font-size="14" lengthAdjust="spacing" textLength="19.6875" x="465.41" y="155.8467">D3</text><line style="stroke:#181818;stroke-width:0.5;" x1="437.41" x2="487.0975" y1="167" y2="167"/><line style="stroke:#181818;stroke-width:0.5;" x1="437.41" x2="487.0975" y1="175" y2="175"/></g><!--class A4--><g class="entity" data-qualified-name="A4" data-source-line="12" id="ent0017"><rect fill="#F1F1F1" height="48" rx="2.5" ry="2.5" style="stroke:#181818;stroke-width:0.5;" width="50.4844" x="652.01" y="7"/><ellipse cx="667.01" cy="23" fill="#ADD1B2" rx="11" ry="11" style="stroke:#181818;stroke-width:1;"/><path d="M669.9788,28.6406 Q669.4006,28.9375 668.76,29.0781 Q668.1194,29.2344 667.4163,29.2344 Q664.9163,29.2344 663.5881,27.5938 Q662.2756,25.9375 662.2756,22.8125 Q662.2756,19.6875 663.5881,18.0313 Q664.9163,16.375 667.4163,16.375 Q668.1194,16.375 668.76,16.5313 Q669.4163,16.6875 669.9788,16.9844 L669.9788,19.7031 Q669.3538,19.125 668.76,18.8594 Q668.1663,18.5781 667.5413,18.5781 Q666.1975,18.5781 665.51,19.6563 Q664.8225,20.7188 664.8225,22.8125 Q664.8225,24.9063 665.51,25.9844 Q666.1975,27.0469 667.5413,27.0469 Q668.1663,27.0469 668.76,26.7813 Q669.3538,26.5 669.9788,25.9219 L669.9788,28.6406 Z " fill="#000000"/><text fill="#000000" font-family="sans-serif" font-size="14" lengthAdjust="spacing" textLength="18.4844" x="681.01" y="27.8467">A4</text><line style="stroke:#181818;stroke-width:0.5;" x1="653.01" x2="701.4944" y1="39" y2="39"/><line style="stroke:#181818;stroke-width:0.5;" x1="653.01" x2="701.4944" y1="47" y2="47"/></g><polygon fill="none" points="677.2564,55,684.2598,74.9988,670.2598,75.0012" style="stroke:#181818;stroke-width:1;"/><line style="stroke:#181818;stroke-width:1;" x1="677.2598" x2="677.26" y1="75" y2="76"/><!--class B4--><g class="entity" data-qualified-name="B4" data-source-line="12" id="ent0018"><rect fill="#F1F1F1" height="48" rx="2.5" ry="2.5" style="stroke:#181818;stroke-width:0.5;" width="50.5117" x="523" y="135"/><ellipse cx="538" cy="151" fill="#ADD1B2" rx="11" ry="11" style="stroke:#181818;stroke-width:1;"/><path d="M540.9688,156.6406 Q540.3906,156.9375 539.75,157.0781 Q539.1094,157.2344 538.4063,157.2344 Q535.9063,157.2344 534.5781,155.5938 Q533.2656,153.9375 533.2656,150.8125 Q533.2656,147.6875 534.5781,146.0313 Q535.9063,144.375 538.4063,144.375 Q539.1094,144.375 539.75,144.5313 Q540.4063,144.6875 540.9688,144.9844 L540.9688,147.7031 Q540.3438,147.125 539.75,146.8594 Q539.1563,146.5781 538.5313,146.5781 Q537.1875,146.5781 536.5,147.6563 Q535.8125,148.7188 535.8125,150.8125 Q535.8125,152.9063 536.5,153.9844 Q537.1875,155.0469 538.5313,155.0469 Q539.1563,155.0469 539.75,154.7813 Q540.3438,154.5 540.9688,153.9219 L540.9688,156.6406 Z " fill="#000000"/><text fill="#000000" font-family="sans-serif" font-size="14" lengthAdjust="spacing" textLength="18.5117" x="552" y="155.8467">B4</text><line style="stroke:#181818;stroke-width:0.5;" x1="524" x2="572.5117" y1="167" y2="167"/><line style="stroke:#181818;stroke-width:0.5;" x1="524" x2="572.5117" y1="175" y2="175"/></g><!--class C4--><g class="entity" data-qualified-name="C4" data-source-line="13" id="ent0020"><rect fill="#F1F1F1" height="48" rx="2.5" ry="2.5" style="stroke:#181818;stroke-width:0.5;" width="50.6826" x="608.91" y="135"/><ellipse cx="623.91" cy="151" fill="#ADD1B2" rx="11" ry="11" style="stroke:#181818;stroke-width:1;"/><path d="M626.8788,156.6406 Q626.3006,156.9375 625.66,157.0781 Q625.0194,157.2344 624.3163,157.2344 Q621.8163,157.2344 620.4881,155.5938 Q619.1756,153.9375 619.1756,150.8125 Q619.1756,147.6875 620.4881,146.0313 Q621.8163,144.375 624.3163,144.375 Q625.0194,144.375 625.66,144.5313 Q626.3163,144.6875 626.8788,144.9844 L626.8788,147.7031 Q626.2538,147.125 625.66,146.8594 Q625.0663,146.5781 624.4413,146.5781 Q623.0975,146.5781 622.41,147.6563 Q621.7225,148.7188 621.7225,150.8125 Q621.7225,152.9063 622.41,153.9844 Q623.0975,155.0469 624.4413,155.0469 Q625.0663,155.0469 625.66,154.7813 Q626.2538,154.5 626.8788,153.9219 L626.8788,156.6406 Z " fill="#000000"/><text fill="#000000" font-family="sans-serif" font-size="14" lengthAdjust="spacing" textLength="18.6826" x="637.91" y="155.8467">C4</text><line style="stroke:#181818;stroke-width:0.5;" x1="609.91" x2="658.5926" y1="167" y2="167"/><line style="stroke:#181818;stroke-width:0.5;" x1="609.91" x2="658.5926" y1="175" y2="175"/></g><!--class D4--><g class="entity" data-qualified-name="D4" data-source-line="14" id="ent0022"><rect fill="#F1F1F1" height="48" rx="2.5" ry="2.5" style="stroke:#181818;stroke-width:0.5;" width="51.6875" x="694.41" y="135"/><ellipse cx="709.41" cy="151" fill="#ADD1B2" rx="11" ry="11" style="stroke:#181818;stroke-width:1;"/><path d="M712.3788,156.6406 Q711.8006,156.9375 711.16,157.0781 Q710.5194,157.2344 709.8163,157.2344 Q707.3163,157.2344 705.9881,155.5938 Q704.6756,153.9375 704.6756,150.8125 Q704.6756,147.6875 705.9881,146.0313 Q707.3163,144.375 709.8163,144.375 Q710.5194,144.375 711.16,144.5313 Q711.8163,144.6875 712.3788,144.9844 L712.3788,147.7031 Q711.7538,147.125 711.16,146.8594 Q710.5663,146.5781 709.9413,146.5781 Q708.5975,146.5781 707.91,147.6563 Q707.2225,148.7188 707.2225,150.8125 Q707.2225,152.9063 707.91,153.9844 Q708.5975,155.0469 709.9413,155.0469 Q710.5663,155.0469 711.16,154.7813 Q711.7538,154.5 712.3788,153.9219 L712.3788,156.6406 Z " fill="#000000"/><text fill="#000000" font-family="sans-serif" font-size="14" lengthAdjust="spacing" textLength="19.6875" x="723.41" y="155.8467">D4</text><line style="stroke:#181818;stroke-width:0.5;" x1="695.41" x2="745.0975" y1="167" y2="167"/><line style="stroke:#181818;stroke-width:0.5;" x1="695.41" x2="745.0975" y1="175" y2="175"/></g><!--class E4--><g class="entity" data-qualified-name="E4" data-source-line="15" id="ent0024"><rect fill="#F1F1F1" height="48" rx="2.5" ry="2.5" style="stroke:#181818;stroke-width:0.5;" width="49.7529" x="781.38" y="135"/><ellipse cx="796.38" cy="151" fill="#ADD1B2" rx="11" ry="11" style="stroke:#181818;stroke-width:1;"/><path d="M799.3488,156.6406 Q798.7706,156.9375 798.13,157.0781 Q797.4894,157.2344 796.7863,157.2344 Q794.2863,157.2344 792.9581,155.5938 Q791.6456,153.9375 791.6456,150.8125 Q791.6456,147.6875 792.9581,146.0313 Q794.2863,144.375 796.7863,144.375 Q797.4894,144.375 798.13,144.5313 Q798.7863,144.6875 799.3488,144.9844 L799.3488,147.7031 Q798.7238,147.125 798.13,146.8594 Q797.5363,146.5781 796.9113,146.5781 Q795.5675,146.5781 794.88,147.6563 Q794.1925,148.7188 794.1925,150.8125 Q794.1925,152.9063 794.88,153.9844 Q795.5675,155.0469 796.9113,155.0469 Q797.5363,155.0469 798.13,154.7813 Q798.7238,154.5 799.3488,153.9219 L799.3488,156.6406 Z " fill="#000000"/><text fill="#000000" font-family="sans-serif" font-size="14" lengthAdjust="spacing" textLength="17.7529" x="810.38" y="155.8467">E4</text><line style="stroke:#181818;stroke-width:0.5;" x1="782.38" x2="830.1329" y1="167" y2="167"/><line style="stroke:#181818;stroke-width:0.5;" x1="782.38" x2="830.1329" y1="175" y2="175"/></g><!--reverse link A1 to B1--><g class="link" data-entity-1="ent0002" data-entity-2="ent0003" data-link-type="extension" data-source-line="3" id="lnk4"><path codeLine="3" d="M32.26,73.4 C32.26,96.04 32.26,112.13 32.26,134.72" fill="none" id="A1-backto-B1" style="stroke:#181818;stroke-width:1;"/><polygon fill="none" points="32.26,55.4,26.26,73.4,38.26,73.4,32.26,55.4" style="stroke:#181818;stroke-width:1;"/></g><!--reverse link A2 to B2--><g class="link" data-entity-1="ent0005" data-entity-2="ent0006" data-link-type="extension" data-source-line="5" id="lnk7"><path codeLine="5" d="M147.4606,72.4368 C139.7406,95.0768 133.91,112.13 126.2,134.72" fill="none" id="A2-backto-B2" style="stroke:#181818;stroke-width:1;"/><polygon fill="none" points="153.27,55.4,141.7817,70.5003,153.1396,74.3732,153.27,55.4" style="stroke:#181818;stroke-width:1;"/></g><!--reverse link A2 to C2--><g class="link" data-entity-1="ent0005" data-entity-2="ent0008" data-link-type="extension" data-source-line="6" id="lnk9"><path codeLine="6" d="M175.0561,72.4345 C182.7861,95.0745 188.6,112.13 196.31,134.72" fill="none" id="A2-backto-C2" style="stroke:#181818;stroke-width:1;"/><polygon fill="none" points="169.24,55.4,169.3779,74.3732,180.7343,70.4958,169.24,55.4" style="stroke:#181818;stroke-width:1;"/></g><!--reverse link A3 to B3--><g class="link" data-entity-1="ent0010" data-entity-2="ent0011" data-link-type="association" data-source-line="8" id="lnk12"><path codeLine="8" d="M376.26,76 C376.26,76 340.1,110.48 314.67,134.72" fill="none" id="A3-backto-B3" style="stroke:#181818;stroke-width:1;"/></g><!--reverse link A3 to C3--><g class="link" data-entity-1="ent0010" data-entity-2="ent0013" data-link-type="association" data-source-line="9" id="lnk14"><path codeLine="9" d="M376.26,76 C376.26,76 376.26,110.48 376.26,134.72" fill="none" id="A3-backto-C3" style="stroke:#181818;stroke-width:1;"/></g><!--reverse link A3 to D3--><g class="link" data-entity-1="ent0010" data-entity-2="ent0015" data-link-type="association" data-source-line="10" id="lnk16"><path codeLine="10" d="M376.26,76 C376.26,76 412.42,110.48 437.84,134.72" fill="none" id="A3-backto-D3" style="stroke:#181818;stroke-width:1;"/></g><!--reverse link A4 to B4--><g class="link" data-entity-1="ent0017" data-entity-2="ent0018" data-link-type="association" data-source-line="12" id="lnk19"><path codeLine="12" d="M677.26,76 C677.26,76 611.34,117.9 573.74,141.8" fill="none" id="A4-backto-B4" style="stroke:#181818;stroke-width:1;"/></g><!--reverse link A4 to C4--><g class="link" data-entity-1="ent0017" data-entity-2="ent0020" data-link-type="association" data-source-line="13" id="lnk21"><path codeLine="13" d="M677.26,76 C677.26,76 659.18,110.48 646.46,134.72" fill="none" id="A4-backto-C4" style="stroke:#181818;stroke-width:1;"/></g><!--reverse link A4 to D4--><g class="link" data-entity-1="ent0017" data-entity-2="ent0022" data-link-type="association" data-source-line="14" id="lnk23"><path codeLine="14" d="M677.26,76 C677.26,76 695.34,110.48 708.05,134.72" fill="none" id="A4-backto-D4" style="stroke:#181818;stroke-width:1;"/></g><!--reverse link A4 to E4--><g class="link" data-entity-1="ent0017" data-entity-2="ent0024" data-link-type="association" data-source-line="15" id="lnk25"><path codeLine="15" d="M677.26,76 C677.26,76 743.54,118.13 781.08,141.99" fill="none" id="A4-backto-E4" style="stroke:#181818;stroke-width:1;"/></g><?plantuml-src AyxEp2j8B4hCLKWloYyjyCpBI2tAB4dCIqvLCERYSZHKiAdHrLLmCWIoZQ1i8pZJsGWeR0mLDeOpdH5C5v0X9b0L9d2cCuBfWc2wcW00?></g></svg>