<svg xmlns="http://www.w3.org/2000/svg" xmlns:xlink="http://www.w3.org/1999/xlink" contentStyleType="text/css" data-diagram-type="CLASS" height="239px" preserveAspectRatio="none" style="width:404px;height:239px;background:#FFFFFF;" version="1.1" viewBox="0 0 404 239" width="404px" zoomAndPan="magnify"><?plantuml 1.2026.3beta5?><defs/><g><!--class Bar1--><g class="entity" data-qualified-name="Bar1" data-source-line="1" id="ent0002"><rect fill="#F1F1F1" height="48" rx="2.5" ry="2.5" style="stroke:#181818;stroke-width:0.5;" width="64.8467" x="165.71" y="176"/><ellipse cx="180.71" cy="192" fill="#ADD1B2" rx="11" ry="11" style="stroke:#181818;stroke-width:1;"/><path d="M183.6788,197.6406 Q183.1006,197.9375 182.46,198.0781 Q181.8194,198.2344 181.1163,198.2344 Q178.6163,198.2344 177.2881,196.5938 Q175.9756,194.9375 175.9756,191.8125 Q175.9756,188.6875 177.2881,187.0313 Q178.6163,185.375 181.1163,185.375 Q181.8194,185.375 182.46,185.5313 Q183.1163,185.6875 183.6788,185.9844 L183.6788,188.7031 Q183.0538,188.125 182.46,187.8594 Q181.8663,187.5781 181.2413,187.5781 Q179.8975,187.5781 179.21,188.6563 Q178.5225,189.7188 178.5225,191.8125 Q178.5225,193.9063 179.21,194.9844 Q179.8975,196.0469 181.2413,196.0469 Q181.8663,196.0469 182.46,195.7813 Q183.0538,195.5 183.6788,194.9219 L183.6788,197.6406 Z " fill="#000000"/><text fill="#000000" font-family="sans-serif" font-size="14" lengthAdjust="spacing" textLength="32.8467" x="194.71" y="196.8467">Bar1</text><line style="stroke:#181818;stroke-width:0.5;" x1="166.71" x2="229.5567" y1="208" y2="208"/><line style="stroke:#181818;stroke-width:0.5;" x1="166.71" x2="229.5567" y1="216" y2="216"/></g><!--class Bar2--><g class="entity" data-qualified-name="Bar2" data-source-line="2" id="ent0003"><rect fill="#F1F1F1" height="48" rx="2.5" ry="2.5" style="stroke:#181818;stroke-width:0.5;" width="64.8467" x="265.71" y="176"/><ellipse cx="280.71" cy="192" fill="#ADD1B2" rx="11" ry="11" style="stroke:#181818;stroke-width:1;"/><path d="M283.6788,197.6406 Q283.1006,197.9375 282.46,198.0781 Q281.8194,198.2344 281.1163,198.2344 Q278.6163,198.2344 277.2881,196.5938 Q275.9756,194.9375 275.9756,191.8125 Q275.9756,188.6875 277.2881,187.0313 Q278.6163,185.375 281.1163,185.375 Q281.8194,185.375 282.46,185.5313 Q283.1163,185.6875 283.6788,185.9844 L283.6788,188.7031 Q283.0538,188.125 282.46,187.8594 Q281.8663,187.5781 281.2413,187.5781 Q279.8975,187.5781 279.21,188.6563 Q278.5225,189.7188 278.5225,191.8125 Q278.5225,193.9063 279.21,194.9844 Q279.8975,196.0469 281.2413,196.0469 Q281.8663,196.0469 282.46,195.7813 Q283.0538,195.5 283.6788,194.9219 L283.6788,197.6406 Z " fill="#000000"/><text fill="#000000" font-family="sans-serif" font-size="14" lengthAdjust="spacing" textLength="32.8467" x="294.71" y="196.8467">Bar2</text><line style="stroke:#181818;stroke-width:0.5;" x1="266.71" x2="329.5567" y1="208" y2="208"/><line style="stroke:#181818;stroke-width:0.5;" x1="266.71" x2="329.5567" y1="216" y2="216"/></g><!--class Together1--><g class="entity" data-qualified-name="Together1" data-source-line="4" id="ent0004"><rect fill="#F1F1F1" height="48" rx="2.5" ry="2.5" style="stroke:#181818;stroke-width:0.5;" width="104.2559" x="7" y="7"/><ellipse cx="22" cy="23" fill="#ADD1B2" rx="11" ry="11" style="stroke:#181818;stroke-width:1;"/><path d="M24.9688,28.6406 Q24.3906,28.9375 23.75,29.0781 Q23.1094,29.2344 22.4063,29.2344 Q19.9063,29.2344 18.5781,27.5938 Q17.2656,25.9375 17.2656,22.8125 Q17.2656,19.6875 18.5781,18.0313 Q19.9063,16.375 22.4063,16.375 Q23.1094,16.375 23.75,16.5313 Q24.4063,16.6875 24.9688,16.9844 L24.9688,19.7031 Q24.3438,19.125 23.75,18.8594 Q23.1563,18.5781 22.5313,18.5781 Q21.1875,18.5781 20.5,19.6563 Q19.8125,20.7188 19.8125,22.8125 Q19.8125,24.9063 20.5,25.9844 Q21.1875,27.0469 22.5313,27.0469 Q23.1563,27.0469 23.75,26.7813 Q24.3438,26.5 24.9688,25.9219 L24.9688,28.6406 Z " fill="#000000"/><text fill="#000000" font-family="sans-serif" font-size="14" lengthAdjust="spacing" textLength="72.2559" x="36" y="27.8467">Together1</text><line style="stroke:#181818;stroke-width:0.5;" x1="8" x2="110.2559" y1="39" y2="39"/><line style="stroke:#181818;stroke-width:0.5;" x1="8" x2="110.2559" y1="47" y2="47"/></g><!--class Together2--><g class="entity" data-qualified-name="Together2" data-source-line="5" id="ent0005"><rect fill="#F1F1F1" height="48" rx="2.5" ry="2.5" style="stroke:#181818;stroke-width:0.5;" width="104.2559" x="146" y="7"/><ellipse cx="161" cy="23" fill="#ADD1B2" rx="11" ry="11" style="stroke:#181818;stroke-width:1;"/><path d="M163.9688,28.6406 Q163.3906,28.9375 162.75,29.0781 Q162.1094,29.2344 161.4063,29.2344 Q158.9063,29.2344 157.5781,27.5938 Q156.2656,25.9375 156.2656,22.8125 Q156.2656,19.6875 157.5781,18.0313 Q158.9063,16.375 161.4063,16.375 Q162.1094,16.375 162.75,16.5313 Q163.4063,16.6875 163.9688,16.9844 L163.9688,19.7031 Q163.3438,19.125 162.75,18.8594 Q162.1563,18.5781 161.5313,18.5781 Q160.1875,18.5781 159.5,19.6563 Q158.8125,20.7188 158.8125,22.8125 Q158.8125,24.9063 159.5,25.9844 Q160.1875,27.0469 161.5313,27.0469 Q162.1563,27.0469 162.75,26.7813 Q163.3438,26.5 163.9688,25.9219 L163.9688,28.6406 Z " fill="#000000"/><text fill="#000000" font-family="sans-serif" font-size="14" lengthAdjust="spacing" textLength="72.2559" x="175" y="27.8467">Together2</text><line style="stroke:#181818;stroke-width:0.5;" x1="147" x2="249.2559" y1="39" y2="39"/><line style="stroke:#181818;stroke-width:0.5;" x1="147" x2="249.2559" y1="47" y2="47"/></g><!--class Together3--><g class="entity" data-qualified-name="Together3" data-source-line="6" id="ent0006"><rect fill="#F1F1F1" height="48" rx="2.5" ry="2.5" style="stroke:#181818;stroke-width:0.5;" width="104.2559" x="285" y="7"/><ellipse cx="300" cy="23" fill="#ADD1B2" rx="11" ry="11" style="stroke:#181818;stroke-width:1;"/><path d="M302.9688,28.6406 Q302.3906,28.9375 301.75,29.0781 Q301.1094,29.2344 300.4063,29.2344 Q297.9063,29.2344 296.5781,27.5938 Q295.2656,25.9375 295.2656,22.8125 Q295.2656,19.6875 296.5781,18.0313 Q297.9063,16.375 300.4063,16.375 Q301.1094,16.375 301.75,16.5313 Q302.4063,16.6875 302.9688,16.9844 L302.9688,19.7031 Q302.3438,19.125 301.75,18.8594 Q301.1563,18.5781 300.5313,18.5781 Q299.1875,18.5781 298.5,19.6563 Q297.8125,20.7188 297.8125,22.8125 Q297.8125,24.9063 298.5,25.9844 Q299.1875,27.0469 300.5313,27.0469 Q301.1563,27.0469 301.75,26.7813 Q302.3438,26.5 302.9688,25.9219 L302.9688,28.6406 Z " fill="#000000"/><text fill="#000000" font-family="sans-serif" font-size="14" lengthAdjust="spacing" textLength="72.2559" x="314" y="27.8467">Together3</text><line style="stroke:#181818;stroke-width:0.5;" x1="286" x2="388.2559" y1="39" y2="39"/><line style="stroke:#181818;stroke-width:0.5;" x1="286" x2="388.2559" y1="47" y2="47"/></g><!--link Together1 to Together2--><g class="link" data-entity-1="ent0004" data-entity-2="ent0005" data-link-type="association" data-source-line="8" id="lnk7"><path codeLine="8" d="M111.53,31 C122.92,31 134.31,31 145.69,31" fill="none" id="Together1-Together2" style="stroke:#181818;stroke-width:1;"/></g><!--link Together2 to Together3--><g class="link" data-entity-1="ent0005" data-entity-2="ent0006" data-link-type="association" data-source-line="9" id="lnk8"><path codeLine="9" d="M250.53,31 C261.92,31 273.31,31 284.69,31" fill="none" id="Together2-Together3" style="stroke:#181818;stroke-width:1;"/></g><!--link Together2 to Bar1--><!--link Bar1 to Bar2--><?plantuml-src Iyv9B2vMS4eiCkHAXZ6Dk4hoqrDBCbAB5Agv51GWuY5G8KCC4ICC4MEkMYwuUWLT99Lm5fAeCR9eT4PcIafgNgokhXt4LI028GmMD080?></g></svg>