<svg xmlns="http://www.w3.org/2000/svg" xmlns:xlink="http://www.w3.org/1999/xlink" contentStyleType="text/css" data-diagram-type="CLASS" height="202px" preserveAspectRatio="none" style="width:271px;height:202px;background:#FFFFFF;" version="1.1" viewBox="0 0 271 202" width="271px" zoomAndPan="magnify"><?plantuml 1.2026.3beta5?><defs/><g><!--class Dummy1--><g class="entity" data-qualified-name="Dummy1" data-source-line="1" id="ent0002"><rect fill="#F1F1F1" height="56.2969" rx="2.5" ry="2.5" style="stroke:#181818;stroke-width:0.5;" width="118.6475" x="7" y="7"/><ellipse cx="32.1369" cy="23" fill="#ADD1B2" rx="11" ry="11" style="stroke:#181818;stroke-width:1;"/><path d="M35.1056,28.6406 Q34.5275,28.9375 33.8869,29.0781 Q33.2462,29.2344 32.5431,29.2344 Q30.0431,29.2344 28.715,27.5938 Q27.4025,25.9375 27.4025,22.8125 Q27.4025,19.6875 28.715,18.0313 Q30.0431,16.375 32.5431,16.375 Q33.2462,16.375 33.8869,16.5313 Q34.5431,16.6875 35.1056,16.9844 L35.1056,19.7031 Q34.4806,19.125 33.8869,18.8594 Q33.2931,18.5781 32.6681,18.5781 Q31.3244,18.5781 30.6369,19.6563 Q29.9494,20.7188 29.9494,22.8125 Q29.9494,24.9063 30.6369,25.9844 Q31.3244,27.0469 32.6681,27.0469 Q33.2931,27.0469 33.8869,26.7813 Q34.4806,26.5 35.1056,25.9219 L35.1056,28.6406 Z " fill="#000000"/><text fill="#000000" font-family="sans-serif" font-size="14" lengthAdjust="spacing" textLength="64.1211" x="48.3895" y="27.8467">Dummy1</text><line style="stroke:#181818;stroke-width:0.5;" x1="8" x2="124.6475" y1="39" y2="39"/><g data-visibility-modifier="PUBLIC_METHOD"><ellipse cx="18" cy="52.6484" fill="#84BE84" rx="3" ry="3" style="stroke:#038048;stroke-width:1;"/></g><text fill="#000000" font-family="sans-serif" font-size="14" lengthAdjust="spacing" textLength="92.6475" x="27" y="55.9951">myMethods()</text></g><!--class Dummy2--><g class="entity" data-qualified-name="Dummy2" data-source-line="5" id="ent0003"><rect fill="#F1F1F1" height="32" rx="2.5" ry="2.5" style="stroke:#181818;stroke-width:0.5;" width="96.1211" x="160.26" y="19.15"/><ellipse cx="175.26" cy="35.15" fill="#ADD1B2" rx="11" ry="11" style="stroke:#181818;stroke-width:1;"/><path d="M178.2288,40.7906 Q177.6506,41.0875 177.01,41.2281 Q176.3694,41.3844 175.6663,41.3844 Q173.1663,41.3844 171.8381,39.7438 Q170.5256,38.0875 170.5256,34.9625 Q170.5256,31.8375 171.8381,30.1813 Q173.1663,28.525 175.6663,28.525 Q176.3694,28.525 177.01,28.6813 Q177.6663,28.8375 178.2288,29.1344 L178.2288,31.8531 Q177.6038,31.275 177.01,31.0094 Q176.4163,30.7281 175.7913,30.7281 Q174.4475,30.7281 173.76,31.8063 Q173.0725,32.8688 173.0725,34.9625 Q173.0725,37.0563 173.76,38.1344 Q174.4475,39.1969 175.7913,39.1969 Q176.4163,39.1969 177.01,38.9313 Q177.6038,38.65 178.2288,38.0719 L178.2288,40.7906 Z " fill="#000000"/><text fill="#000000" font-family="sans-serif" font-size="14" lengthAdjust="spacing" textLength="64.1211" x="189.26" y="39.9967">Dummy2</text></g><!--class Dummy3--><g class="entity" data-qualified-name="Dummy3" data-source-line="9" id="ent0004"><rect fill="#F1F1F1" height="64.5625" rx="2.5" ry="2.5" style="stroke:#181818;stroke-width:0.5;" width="97.9346" x="17.36" y="123.3"/><text fill="#000000" font-family="sans-serif" font-size="12" font-style="italic" lengthAdjust="spacing" textLength="83.959" x="24.3478" y="139.4387">&#171;Serializable&#187;</text><text fill="#000000" font-family="sans-serif" font-size="14" lengthAdjust="spacing" textLength="64.1211" x="34.2667" y="155.2639">Dummy3</text><line style="stroke:#181818;stroke-width:0.5;" x1="18.36" x2="114.2946" y1="163.5656" y2="163.5656"/><text fill="#000000" font-family="sans-serif" font-size="14" lengthAdjust="spacing" textLength="85.9346" x="23.36" y="180.5607">String name</text></g><?plantuml-src POwn3i8m34HtVuL741EmLfrOcVe5QMA89JkLuYBK8lwT8WinPBpJUwUB4ipmyb1TZlW2n8CkLvhpb6otXpT0_0Cd1pAdHCMXXZbZrmrKEGYlOHJg-qqQvihbZYKeVV5jW519HwhceN4YroW4bgVdxvpwA-yQuSOaoJu0?></g></svg>