<svg xmlns="http://www.w3.org/2000/svg" xmlns:xlink="http://www.w3.org/1999/xlink" contentStyleType="text/css" data-diagram-type="CLASS" height="178px" preserveAspectRatio="none" style="width:157px;height:178px;background:#FFFFFF;" version="1.1" viewBox="0 0 157 178" width="157px" zoomAndPan="magnify"><?plantuml 1.2026.3beta5?><defs/><g><!--class C1--><g class="entity" data-qualified-name="C1" data-source-line="1" id="ent0002"><rect fill="#F1F1F1" height="48" rx="2.5" ry="2.5" style="stroke:#181818;stroke-width:0.5;" width="50.6826" x="7" y="7"/><ellipse cx="22" cy="23" fill="#ADD1B2" rx="11" ry="11" style="stroke:#181818;stroke-width:1;"/><path d="M24.9688,28.6406 Q24.3906,28.9375 23.75,29.0781 Q23.1094,29.2344 22.4063,29.2344 Q19.9063,29.2344 18.5781,27.5938 Q17.2656,25.9375 17.2656,22.8125 Q17.2656,19.6875 18.5781,18.0313 Q19.9063,16.375 22.4063,16.375 Q23.1094,16.375 23.75,16.5313 Q24.4063,16.6875 24.9688,16.9844 L24.9688,19.7031 Q24.3438,19.125 23.75,18.8594 Q23.1563,18.5781 22.5313,18.5781 Q21.1875,18.5781 20.5,19.6563 Q19.8125,20.7188 19.8125,22.8125 Q19.8125,24.9063 20.5,25.9844 Q21.1875,27.0469 22.5313,27.0469 Q23.1563,27.0469 23.75,26.7813 Q24.3438,26.5 24.9688,25.9219 L24.9688,28.6406 Z " fill="#000000"/><text fill="#000000" font-family="sans-serif" font-size="14" lengthAdjust="spacing" textLength="18.6826" x="36" y="27.8467">C1</text><line style="stroke:#181818;stroke-width:0.5;" x1="8" x2="56.6826" y1="39" y2="39"/><line style="stroke:#181818;stroke-width:0.5;" x1="8" x2="56.6826" y1="47" y2="47"/></g><!--class E1--><g class="entity" data-qualified-name="E1" data-source-line="2" id="ent0003"><rect fill="#F1F1F1" height="48" rx="2.5" ry="2.5" style="stroke:#181818;stroke-width:0.5;" width="49.7529" x="92.46" y="7"/><ellipse cx="107.46" cy="23" fill="#EB937F" rx="11" ry="11" style="stroke:#181818;stroke-width:1;"/><path d="M111.5694,29 L103.8506,29 L103.8506,16.6094 L111.5694,16.6094 L111.5694,18.7656 L106.3038,18.7656 L106.3038,21.4375 L111.0694,21.4375 L111.0694,23.5938 L106.3038,23.5938 L106.3038,26.8438 L111.5694,26.8438 L111.5694,29 Z " fill="#000000"/><text fill="#000000" font-family="sans-serif" font-size="14" lengthAdjust="spacing" textLength="17.7529" x="121.46" y="27.8467">E1</text><line style="stroke:#181818;stroke-width:0.5;" x1="93.46" x2="141.2129" y1="39" y2="39"/><line style="stroke:#181818;stroke-width:0.5;" x1="93.46" x2="141.2129" y1="47" y2="47"/></g><!--class I1--><g class="entity" data-qualified-name="I1" data-source-line="3" id="ent0004"><rect fill="#F1F1F1" height="48" rx="2.5" ry="2.5" style="stroke:#181818;stroke-width:0.5;" width="45.0361" x="9.82" y="115"/><ellipse cx="24.82" cy="131" fill="#B4A7E5" rx="11" ry="11" style="stroke:#181818;stroke-width:1;"/><path d="M20.7419,126.7656 L20.7419,124.6094 L28.1325,124.6094 L28.1325,126.7656 L25.6638,126.7656 L25.6638,134.8438 L28.1325,134.8438 L28.1325,137 L20.7419,137 L20.7419,134.8438 L23.2106,134.8438 L23.2106,126.7656 L20.7419,126.7656 Z " fill="#000000"/><text fill="#000000" font-family="sans-serif" font-size="14" font-style="italic" lengthAdjust="spacing" textLength="13.0361" x="38.82" y="135.8467">I1</text><line style="stroke:#181818;stroke-width:0.5;" x1="10.82" x2="53.8561" y1="147" y2="147"/><line style="stroke:#181818;stroke-width:0.5;" x1="10.82" x2="53.8561" y1="155" y2="155"/></g><!--link C1 to I1--><g class="link" data-entity-1="ent0002" data-entity-2="ent0004" data-link-type="association" data-source-line="4" id="lnk5"><path codeLine="4" d="M32.34,55.26 C32.34,72.94 32.34,97.13 32.34,114.79" fill="none" id="C1-I1" style="stroke:#181818;stroke-width:1;"/></g><?plantuml-src Iyv9B2vMS3PKK2b9J3SqvahDAyrLS3NaoimhIIrAIqnELV24om5LwUe2-G00?></g></svg>