<svg xmlns="http://www.w3.org/2000/svg" xmlns:xlink="http://www.w3.org/1999/xlink" contentStyleType="text/css" data-diagram-type="CLASS" height="248px" preserveAspectRatio="none" style="width:594px;height:248px;background:#FFFFFF;" version="1.1" viewBox="0 0 594 248" width="594px" zoomAndPan="magnify"><?plantuml 1.2026.3beta5?><defs/><g><g class="title" data-source-line="1"><text fill="#000000" font-family="sans-serif" font-size="14" font-weight="700" lengthAdjust="spacing" textLength="240.29" x="173.6944" y="22.9951">Bracketed line style with label</text></g><!--class foo--><g class="entity" data-qualified-name="foo" data-source-line="2" id="ent0002"><rect fill="#F1F1F1" height="48" rx="2.5" ry="2.5" style="stroke:#181818;stroke-width:0.5;" width="54.0596" x="259.58" y="44.2969"/><ellipse cx="274.58" cy="60.2969" fill="#ADD1B2" rx="11" ry="11" style="stroke:#181818;stroke-width:1;"/><path d="M277.5488,65.9375 Q276.9706,66.2344 276.33,66.375 Q275.6894,66.5313 274.9863,66.5313 Q272.4863,66.5313 271.1581,64.8906 Q269.8456,63.2344 269.8456,60.1094 Q269.8456,56.9844 271.1581,55.3281 Q272.4863,53.6719 274.9863,53.6719 Q275.6894,53.6719 276.33,53.8281 Q276.9863,53.9844 277.5488,54.2813 L277.5488,57 Q276.9238,56.4219 276.33,56.1563 Q275.7363,55.875 275.1113,55.875 Q273.7675,55.875 273.08,56.9531 Q272.3925,58.0156 272.3925,60.1094 Q272.3925,62.2031 273.08,63.2813 Q273.7675,64.3438 275.1113,64.3438 Q275.7363,64.3438 276.33,64.0781 Q276.9238,63.7969 277.5488,63.2188 L277.5488,65.9375 Z " fill="#000000"/><text fill="#000000" font-family="sans-serif" font-size="14" lengthAdjust="spacing" textLength="22.0596" x="288.58" y="65.1436">foo</text><line style="stroke:#181818;stroke-width:0.5;" x1="260.58" x2="312.6396" y1="76.2969" y2="76.2969"/><line style="stroke:#181818;stroke-width:0.5;" x1="260.58" x2="312.6396" y1="84.2969" y2="84.2969"/></g><!--class bar--><g class="entity" data-qualified-name="bar" data-source-line="3" id="ent0003"><rect fill="#F1F1F1" height="48" rx="2.5" ry="2.5" style="stroke:#181818;stroke-width:0.5;" width="55.2217" x="7" y="177.4469"/><ellipse cx="22" cy="193.4469" fill="#ADD1B2" rx="11" ry="11" style="stroke:#181818;stroke-width:1;"/><path d="M24.9688,199.0875 Q24.3906,199.3844 23.75,199.525 Q23.1094,199.6813 22.4063,199.6813 Q19.9063,199.6813 18.5781,198.0406 Q17.2656,196.3844 17.2656,193.2594 Q17.2656,190.1344 18.5781,188.4781 Q19.9063,186.8219 22.4063,186.8219 Q23.1094,186.8219 23.75,186.9781 Q24.4063,187.1344 24.9688,187.4313 L24.9688,190.15 Q24.3438,189.5719 23.75,189.3063 Q23.1563,189.025 22.5313,189.025 Q21.1875,189.025 20.5,190.1031 Q19.8125,191.1656 19.8125,193.2594 Q19.8125,195.3531 20.5,196.4313 Q21.1875,197.4938 22.5313,197.4938 Q23.1563,197.4938 23.75,197.2281 Q24.3438,196.9469 24.9688,196.3688 L24.9688,199.0875 Z " fill="#000000"/><text fill="#000000" font-family="sans-serif" font-size="14" lengthAdjust="spacing" textLength="23.2217" x="36" y="198.2936">bar</text><line style="stroke:#181818;stroke-width:0.5;" x1="8" x2="61.2217" y1="209.4469" y2="209.4469"/><line style="stroke:#181818;stroke-width:0.5;" x1="8" x2="61.2217" y1="217.4469" y2="217.4469"/></g><!--class bar1--><g class="entity" data-qualified-name="bar1" data-source-line="4" id="ent0004"><rect fill="#F1F1F1" height="64.2969" rx="2.5" ry="2.5" style="stroke:#181818;stroke-width:0.5;" width="64.1289" x="97.55" y="169.2969"/><ellipse cx="112.55" cy="185.2969" fill="#ADD1B2" rx="11" ry="11" style="stroke:#181818;stroke-width:1;"/><path d="M115.5188,190.9375 Q114.9406,191.2344 114.3,191.375 Q113.6594,191.5313 112.9563,191.5313 Q110.4563,191.5313 109.1281,189.8906 Q107.8156,188.2344 107.8156,185.1094 Q107.8156,181.9844 109.1281,180.3281 Q110.4563,178.6719 112.9563,178.6719 Q113.6594,178.6719 114.3,178.8281 Q114.9563,178.9844 115.5188,179.2813 L115.5188,182 Q114.8938,181.4219 114.3,181.1563 Q113.7063,180.875 113.0813,180.875 Q111.7375,180.875 111.05,181.9531 Q110.3625,183.0156 110.3625,185.1094 Q110.3625,187.2031 111.05,188.2813 Q111.7375,189.3438 113.0813,189.3438 Q113.7063,189.3438 114.3,189.0781 Q114.8938,188.7969 115.5188,188.2188 L115.5188,190.9375 Z " fill="#000000"/><text fill="#000000" font-family="sans-serif" font-size="14" lengthAdjust="spacing" textLength="32.1289" x="126.55" y="190.1436">bar1</text><line style="stroke:#181818;stroke-width:0.5;" x1="98.55" x2="160.6789" y1="201.2969" y2="201.2969"/><text fill="#000000" font-family="sans-serif" font-size="14" lengthAdjust="spacing" textLength="41.1523" x="103.55" y="218.292">[bold]</text><line style="stroke:#181818;stroke-width:0.5;" x1="98.55" x2="160.6789" y1="225.5938" y2="225.5938"/></g><!--class bar2--><g class="entity" data-qualified-name="bar2" data-source-line="5" id="ent0005"><rect fill="#F1F1F1" height="64.2969" rx="2.5" ry="2.5" style="stroke:#181818;stroke-width:0.5;" width="74.0566" x="196.58" y="169.2969"/><ellipse cx="216.0475" cy="185.2969" fill="#ADD1B2" rx="11" ry="11" style="stroke:#181818;stroke-width:1;"/><path d="M219.0162,190.9375 Q218.4381,191.2344 217.7975,191.375 Q217.1569,191.5313 216.4537,191.5313 Q213.9537,191.5313 212.6256,189.8906 Q211.3131,188.2344 211.3131,185.1094 Q211.3131,181.9844 212.6256,180.3281 Q213.9537,178.6719 216.4537,178.6719 Q217.1569,178.6719 217.7975,178.8281 Q218.4537,178.9844 219.0162,179.2813 L219.0162,182 Q218.3912,181.4219 217.7975,181.1563 Q217.2037,180.875 216.5787,180.875 Q215.235,180.875 214.5475,181.9531 Q213.86,183.0156 213.86,185.1094 Q213.86,187.2031 214.5475,188.2813 Q215.235,189.3438 216.5787,189.3438 Q217.2037,189.3438 217.7975,189.0781 Q218.3912,188.7969 219.0162,188.2188 L219.0162,190.9375 Z " fill="#000000"/><text fill="#000000" font-family="sans-serif" font-size="14" lengthAdjust="spacing" textLength="32.1289" x="231.0403" y="190.1436">bar2</text><line style="stroke:#181818;stroke-width:0.5;" x1="197.58" x2="269.6366" y1="201.2969" y2="201.2969"/><text fill="#000000" font-family="sans-serif" font-size="14" lengthAdjust="spacing" textLength="62.0566" x="202.58" y="218.292">[dashed]</text><line style="stroke:#181818;stroke-width:0.5;" x1="197.58" x2="269.6366" y1="225.5938" y2="225.5938"/></g><!--class bar3--><g class="entity" data-qualified-name="bar3" data-source-line="6" id="ent0006"><rect fill="#F1F1F1" height="64.2969" rx="2.5" ry="2.5" style="stroke:#181818;stroke-width:0.5;" width="68.8545" x="305.18" y="169.2969"/><ellipse cx="322.3065" cy="185.2969" fill="#ADD1B2" rx="11" ry="11" style="stroke:#181818;stroke-width:1;"/><path d="M325.2753,190.9375 Q324.6971,191.2344 324.0565,191.375 Q323.4159,191.5313 322.7128,191.5313 Q320.2128,191.5313 318.8846,189.8906 Q317.5721,188.2344 317.5721,185.1094 Q317.5721,181.9844 318.8846,180.3281 Q320.2128,178.6719 322.7128,178.6719 Q323.4159,178.6719 324.0565,178.8281 Q324.7128,178.9844 325.2753,179.2813 L325.2753,182 Q324.6503,181.4219 324.0565,181.1563 Q323.4628,180.875 322.8378,180.875 Q321.494,180.875 320.8065,181.9531 Q320.119,183.0156 320.119,185.1094 Q320.119,187.2031 320.8065,188.2813 Q321.494,189.3438 322.8378,189.3438 Q323.4628,189.3438 324.0565,189.0781 Q324.6503,188.7969 325.2753,188.2188 L325.2753,190.9375 Z " fill="#000000"/><text fill="#000000" font-family="sans-serif" font-size="14" lengthAdjust="spacing" textLength="32.1289" x="336.7791" y="190.1436">bar3</text><line style="stroke:#181818;stroke-width:0.5;" x1="306.18" x2="373.0345" y1="201.2969" y2="201.2969"/><text fill="#000000" font-family="sans-serif" font-size="14" lengthAdjust="spacing" textLength="56.8545" x="311.18" y="218.292">[dotted]</text><line style="stroke:#181818;stroke-width:0.5;" x1="306.18" x2="373.0345" y1="225.5938" y2="225.5938"/></g><!--class bar4--><g class="entity" data-qualified-name="bar4" data-source-line="7" id="ent0007"><rect fill="#F1F1F1" height="64.2969" rx="2.5" ry="2.5" style="stroke:#181818;stroke-width:0.5;" width="70.9463" x="409.14" y="169.2969"/><ellipse cx="427.2078" cy="185.2969" fill="#ADD1B2" rx="11" ry="11" style="stroke:#181818;stroke-width:1;"/><path d="M430.1766,190.9375 Q429.5984,191.2344 428.9578,191.375 Q428.3172,191.5313 427.6141,191.5313 Q425.1141,191.5313 423.7859,189.8906 Q422.4734,188.2344 422.4734,185.1094 Q422.4734,181.9844 423.7859,180.3281 Q425.1141,178.6719 427.6141,178.6719 Q428.3172,178.6719 428.9578,178.8281 Q429.6141,178.9844 430.1766,179.2813 L430.1766,182 Q429.5516,181.4219 428.9578,181.1563 Q428.3641,180.875 427.7391,180.875 Q426.3953,180.875 425.7078,181.9531 Q425.0203,183.0156 425.0203,185.1094 Q425.0203,187.2031 425.7078,188.2813 Q426.3953,189.3438 427.7391,189.3438 Q428.3641,189.3438 428.9578,189.0781 Q429.5516,188.7969 430.1766,188.2188 L430.1766,190.9375 Z " fill="#000000"/><text fill="#000000" font-family="sans-serif" font-size="14" lengthAdjust="spacing" textLength="32.1289" x="441.8896" y="190.1436">bar4</text><line style="stroke:#181818;stroke-width:0.5;" x1="410.14" x2="479.0863" y1="201.2969" y2="201.2969"/><text fill="#000000" font-family="sans-serif" font-size="14" lengthAdjust="spacing" textLength="58.9463" x="415.14" y="218.292">[hidden]</text><line style="stroke:#181818;stroke-width:0.5;" x1="410.14" x2="479.0863" y1="225.5938" y2="225.5938"/></g><!--class bar5--><g class="entity" data-qualified-name="bar5" data-source-line="8" id="ent0008"><rect fill="#F1F1F1" height="64.2969" rx="2.5" ry="2.5" style="stroke:#181818;stroke-width:0.5;" width="64.1289" x="515.55" y="169.2969"/><ellipse cx="530.55" cy="185.2969" fill="#ADD1B2" rx="11" ry="11" style="stroke:#181818;stroke-width:1;"/><path d="M533.5188,190.9375 Q532.9406,191.2344 532.3,191.375 Q531.6594,191.5313 530.9563,191.5313 Q528.4563,191.5313 527.1281,189.8906 Q525.8156,188.2344 525.8156,185.1094 Q525.8156,181.9844 527.1281,180.3281 Q528.4563,178.6719 530.9563,178.6719 Q531.6594,178.6719 532.3,178.8281 Q532.9563,178.9844 533.5188,179.2813 L533.5188,182 Q532.8938,181.4219 532.3,181.1563 Q531.7063,180.875 531.0813,180.875 Q529.7375,180.875 529.05,181.9531 Q528.3625,183.0156 528.3625,185.1094 Q528.3625,187.2031 529.05,188.2813 Q529.7375,189.3438 531.0813,189.3438 Q531.7063,189.3438 532.3,189.0781 Q532.8938,188.7969 533.5188,188.2188 L533.5188,190.9375 Z " fill="#000000"/><text fill="#000000" font-family="sans-serif" font-size="14" lengthAdjust="spacing" textLength="32.1289" x="544.55" y="190.1436">bar5</text><line style="stroke:#181818;stroke-width:0.5;" x1="516.55" x2="578.6789" y1="201.2969" y2="201.2969"/><text fill="#000000" font-family="sans-serif" font-size="14" lengthAdjust="spacing" textLength="45.042" x="521.55" y="218.292">[plain]</text><line style="stroke:#181818;stroke-width:0.5;" x1="516.55" x2="578.6789" y1="225.5938" y2="225.5938"/></g><!--link foo to bar--><g class="link" data-entity-1="ent0002" data-entity-2="ent0003" data-link-type="dependency" data-source-line="10" id="lnk9"><path codeLine="10" d="M259.09,77.7769 C230.64,87.0169 185.33,103.0769 148.61,122.2969 C115.74,139.5069 110.2,148.2969 79.61,169.2969 C74.13,173.0669 73.2147,173.6839 67.6047,177.5639" fill="none" id="foo-to-bar" style="stroke:#181818;stroke-width:1;"/><polygon fill="#181818" points="62.67,180.9769,72.3474,179.1472,66.7823,178.1327,67.7968,172.5676,62.67,180.9769" style="stroke:#181818;stroke-width:1;"/><text fill="#000000" font-family="sans-serif" font-size="13" lengthAdjust="spacing" textLength="11.3242" x="149.61" y="135.3638">&#8709;</text></g><!--link foo to bar1--><g class="link" data-entity-1="ent0002" data-entity-2="ent0004" data-link-type="dependency" data-source-line="11" id="lnk10"><path codeLine="11" d="M259.21,79.5469 C237.61,88.5469 207.57,103.1869 185.61,122.2969 C170.5,135.4469 160.4736,148.3864 150.6636,163.7864" fill="none" id="foo-to-bar1" style="stroke:#181818;stroke-width:2;"/><polygon fill="#181818" points="147.44,168.8469,155.649,163.4052,150.1263,164.6298,148.9017,159.1071,147.44,168.8469" style="stroke:#181818;stroke-width:2;"/><text fill="#000000" font-family="sans-serif" font-size="13" lengthAdjust="spacing" textLength="38.2129" x="186.61" y="135.3638">[bold]</text></g><!--link foo to bar2--><g class="link" data-entity-1="ent0002" data-entity-2="ent0005" data-link-type="dependency" data-source-line="12" id="lnk11"><path codeLine="12" d="M259.1,92.0169 C250.68,100.5669 242.38,110.9869 237.61,122.2969 C231.49,136.8269 229.9776,148.2281 230.2776,162.9281" fill="none" id="foo-to-bar2" style="stroke:#181818;stroke-width:1;stroke-dasharray:7,7;"/><polygon fill="#181818" points="230.4,168.9269,234.2155,159.8471,230.298,163.9279,226.2172,160.0104,230.4,168.9269" style="stroke:#181818;stroke-width:1;"/><text fill="#000000" font-family="sans-serif" font-size="13" lengthAdjust="spacing" textLength="57.624" x="238.61" y="135.3638">[dashed]</text></g><!--link foo to bar3--><g class="link" data-entity-1="ent0002" data-entity-2="ent0006" data-link-type="dependency" data-source-line="13" id="lnk12"><path codeLine="13" d="M296.09,92.7469 C304.66,113.9669 315.1124,139.8237 324.5824,163.2637" fill="none" id="foo-to-bar3" style="stroke:#181818;stroke-width:1;stroke-dasharray:1,3;"/><polygon fill="#181818" points="326.83,168.8269,327.1674,158.9838,324.957,164.1909,319.7499,161.9805,326.83,168.8269" style="stroke:#181818;stroke-width:1;"/><text fill="#000000" font-family="sans-serif" font-size="13" lengthAdjust="spacing" textLength="52.7935" x="316.61" y="135.3638">[dotted]</text></g><!--link foo to bar4--><!--link foo to bar5--><g class="link" data-entity-1="ent0002" data-entity-2="ent0008" data-link-type="dependency" data-source-line="15" id="lnk14"><path codeLine="15" d="M313.94,74.0269 C349.11,80.9069 411.29,95.8469 458.61,122.2969 C480.69,134.6369 497.8089,148.9733 514.0889,164.8833" fill="none" id="foo-to-bar5" style="stroke:#181818;stroke-width:1;"/><polygon fill="#181818" points="518.38,169.0769,514.739,159.9257,514.8041,165.5822,509.1476,165.6472,518.38,169.0769" style="stroke:#181818;stroke-width:1;"/><text fill="#000000" font-family="sans-serif" font-size="13" lengthAdjust="spacing" textLength="41.8247" x="483.61" y="135.3638">[plain]</text></g><?plantuml-src LOv12i8m44NtESM_G1TLk-d2XTUGBf9cfC6XaMP0F431SteIcqvG4WZavON9ao1Ck2nsl9EG1uUPaEIrNJw3J63hYCt8DYNSOYmdPnUpxHOzhYwo7u3CXypUfedyaFcuSnGfVCey1UzfthdB_60RvW76REFHDESy7B_Lu_DULUbF-g3TbTuKM_vLNvKKhntggpBrfKjzLQfUErLt-9T_0G00?></g></svg>