<svg xmlns="http://www.w3.org/2000/svg" xmlns:xlink="http://www.w3.org/1999/xlink" contentStyleType="text/css" data-diagram-type="CLASS" height="248px" preserveAspectRatio="none" style="width:387px;height:248px;background:#FFFFFF;" version="1.1" viewBox="0 0 387 248" width="387px" zoomAndPan="magnify"><?plantuml 1.2026.3beta5?><defs/><g><g class="title" data-source-line="1"><text fill="#000000" font-family="sans-serif" font-size="14" font-weight="700" lengthAdjust="spacing" textLength="158.3818" x="110.8426" y="22.9951">Bracketed line color</text></g><!--class foo--><g class="entity" data-qualified-name="foo" data-source-line="2" id="ent0002"><rect fill="#F1F1F1" height="48" rx="2.5" ry="2.5" style="stroke:#181818;stroke-width:0.5;" width="54.0596" x="154.58" y="44.2969"/><ellipse cx="169.58" cy="60.2969" fill="#ADD1B2" rx="11" ry="11" style="stroke:#181818;stroke-width:1;"/><path d="M172.5488,65.9375 Q171.9706,66.2344 171.33,66.375 Q170.6894,66.5313 169.9863,66.5313 Q167.4863,66.5313 166.1581,64.8906 Q164.8456,63.2344 164.8456,60.1094 Q164.8456,56.9844 166.1581,55.3281 Q167.4863,53.6719 169.9863,53.6719 Q170.6894,53.6719 171.33,53.8281 Q171.9863,53.9844 172.5488,54.2813 L172.5488,57 Q171.9238,56.4219 171.33,56.1563 Q170.7363,55.875 170.1113,55.875 Q168.7675,55.875 168.08,56.9531 Q167.3925,58.0156 167.3925,60.1094 Q167.3925,62.2031 168.08,63.2813 Q168.7675,64.3438 170.1113,64.3438 Q170.7363,64.3438 171.33,64.0781 Q171.9238,63.7969 172.5488,63.2188 L172.5488,65.9375 Z " fill="#000000"/><text fill="#000000" font-family="sans-serif" font-size="14" lengthAdjust="spacing" textLength="22.0596" x="183.58" y="65.1436">foo</text><line style="stroke:#181818;stroke-width:0.5;" x1="155.58" x2="207.6396" y1="76.2969" y2="76.2969"/><line style="stroke:#181818;stroke-width:0.5;" x1="155.58" x2="207.6396" y1="84.2969" y2="84.2969"/></g><!--class bar--><g class="entity" data-qualified-name="bar" data-source-line="3" id="ent0003"><rect fill="#F1F1F1" height="48" rx="2.5" ry="2.5" style="stroke:#181818;stroke-width:0.5;" width="55.2217" x="7" y="177.4469"/><ellipse cx="22" cy="193.4469" fill="#ADD1B2" rx="11" ry="11" style="stroke:#181818;stroke-width:1;"/><path d="M24.9688,199.0875 Q24.3906,199.3844 23.75,199.525 Q23.1094,199.6813 22.4063,199.6813 Q19.9063,199.6813 18.5781,198.0406 Q17.2656,196.3844 17.2656,193.2594 Q17.2656,190.1344 18.5781,188.4781 Q19.9063,186.8219 22.4063,186.8219 Q23.1094,186.8219 23.75,186.9781 Q24.4063,187.1344 24.9688,187.4313 L24.9688,190.15 Q24.3438,189.5719 23.75,189.3063 Q23.1563,189.025 22.5313,189.025 Q21.1875,189.025 20.5,190.1031 Q19.8125,191.1656 19.8125,193.2594 Q19.8125,195.3531 20.5,196.4313 Q21.1875,197.4938 22.5313,197.4938 Q23.1563,197.4938 23.75,197.2281 Q24.3438,196.9469 24.9688,196.3688 L24.9688,199.0875 Z " fill="#000000"/><text fill="#000000" font-family="sans-serif" font-size="14" lengthAdjust="spacing" textLength="23.2217" x="36" y="198.2936">bar</text><line style="stroke:#181818;stroke-width:0.5;" x1="8" x2="61.2217" y1="209.4469" y2="209.4469"/><line style="stroke:#181818;stroke-width:0.5;" x1="8" x2="61.2217" y1="217.4469" y2="217.4469"/></g><!--class bar1--><g class="entity" data-qualified-name="bar1" data-source-line="4" id="ent0004"><rect fill="#F1F1F1" height="64.2969" rx="2.5" ry="2.5" style="stroke:#181818;stroke-width:0.5;" width="64.1289" x="97.55" y="169.2969"/><ellipse cx="112.55" cy="185.2969" fill="#ADD1B2" rx="11" ry="11" style="stroke:#181818;stroke-width:1;"/><path d="M115.5188,190.9375 Q114.9406,191.2344 114.3,191.375 Q113.6594,191.5313 112.9563,191.5313 Q110.4563,191.5313 109.1281,189.8906 Q107.8156,188.2344 107.8156,185.1094 Q107.8156,181.9844 109.1281,180.3281 Q110.4563,178.6719 112.9563,178.6719 Q113.6594,178.6719 114.3,178.8281 Q114.9563,178.9844 115.5188,179.2813 L115.5188,182 Q114.8938,181.4219 114.3,181.1563 Q113.7063,180.875 113.0813,180.875 Q111.7375,180.875 111.05,181.9531 Q110.3625,183.0156 110.3625,185.1094 Q110.3625,187.2031 111.05,188.2813 Q111.7375,189.3438 113.0813,189.3438 Q113.7063,189.3438 114.3,189.0781 Q114.8938,188.7969 115.5188,188.2188 L115.5188,190.9375 Z " fill="#000000"/><text fill="#000000" font-family="sans-serif" font-size="14" lengthAdjust="spacing" textLength="32.1289" x="126.55" y="190.1436">bar1</text><line style="stroke:#181818;stroke-width:0.5;" x1="98.55" x2="160.6789" y1="201.2969" y2="201.2969"/><text fill="#000000" font-family="sans-serif" font-size="14" lengthAdjust="spacing" textLength="45.9102" x="103.55" y="218.292">[#red]</text><line style="stroke:#181818;stroke-width:0.5;" x1="98.55" x2="160.6789" y1="225.5938" y2="225.5938"/></g><!--class bar2--><g class="entity" data-qualified-name="bar2" data-source-line="5" id="ent0005"><rect fill="#F1F1F1" height="64.2969" rx="2.5" ry="2.5" style="stroke:#181818;stroke-width:0.5;" width="75.3965" x="196.91" y="169.2969"/><ellipse cx="216.9804" cy="185.2969" fill="#ADD1B2" rx="11" ry="11" style="stroke:#181818;stroke-width:1;"/><path d="M219.9492,190.9375 Q219.371,191.2344 218.7304,191.375 Q218.0898,191.5313 217.3867,191.5313 Q214.8867,191.5313 213.5585,189.8906 Q212.246,188.2344 212.246,185.1094 Q212.246,181.9844 213.5585,180.3281 Q214.8867,178.6719 217.3867,178.6719 Q218.0898,178.6719 218.7304,178.8281 Q219.3867,178.9844 219.9492,179.2813 L219.9492,182 Q219.3242,181.4219 218.7304,181.1563 Q218.1367,180.875 217.5117,180.875 Q216.1679,180.875 215.4804,181.9531 Q214.7929,183.0156 214.7929,185.1094 Q214.7929,187.2031 215.4804,188.2813 Q216.1679,189.3438 217.5117,189.3438 Q218.1367,189.3438 218.7304,189.0781 Q219.3242,188.7969 219.9492,188.2188 L219.9492,190.9375 Z " fill="#000000"/><text fill="#000000" font-family="sans-serif" font-size="14" lengthAdjust="spacing" textLength="32.1289" x="232.1072" y="190.1436">bar2</text><line style="stroke:#181818;stroke-width:0.5;" x1="197.91" x2="271.3065" y1="201.2969" y2="201.2969"/><text fill="#000000" font-family="sans-serif" font-size="14" lengthAdjust="spacing" textLength="63.3965" x="202.91" y="218.292">[#green]</text><line style="stroke:#181818;stroke-width:0.5;" x1="197.91" x2="271.3065" y1="225.5938" y2="225.5938"/></g><!--class bar3--><g class="entity" data-qualified-name="bar3" data-source-line="6" id="ent0006"><rect fill="#F1F1F1" height="64.2969" rx="2.5" ry="2.5" style="stroke:#181818;stroke-width:0.5;" width="64.917" x="307.15" y="169.2969"/><ellipse cx="322.5046" cy="185.2969" fill="#ADD1B2" rx="11" ry="11" style="stroke:#181818;stroke-width:1;"/><path d="M325.4734,190.9375 Q324.8953,191.2344 324.2546,191.375 Q323.614,191.5313 322.9109,191.5313 Q320.4109,191.5313 319.0828,189.8906 Q317.7703,188.2344 317.7703,185.1094 Q317.7703,181.9844 319.0828,180.3281 Q320.4109,178.6719 322.9109,178.6719 Q323.614,178.6719 324.2546,178.8281 Q324.9109,178.9844 325.4734,179.2813 L325.4734,182 Q324.8484,181.4219 324.2546,181.1563 Q323.6609,180.875 323.0359,180.875 Q321.6921,180.875 321.0046,181.9531 Q320.3171,183.0156 320.3171,185.1094 Q320.3171,187.2031 321.0046,188.2813 Q321.6921,189.3438 323.0359,189.3438 Q323.6609,189.3438 324.2546,189.0781 Q324.8484,188.7969 325.4734,188.2188 L325.4734,190.9375 Z " fill="#000000"/><text fill="#000000" font-family="sans-serif" font-size="14" lengthAdjust="spacing" textLength="32.1289" x="336.5834" y="190.1436">bar3</text><line style="stroke:#181818;stroke-width:0.5;" x1="308.15" x2="371.067" y1="201.2969" y2="201.2969"/><text fill="#000000" font-family="sans-serif" font-size="14" lengthAdjust="spacing" textLength="52.917" x="313.15" y="218.292">[#blue]</text><line style="stroke:#181818;stroke-width:0.5;" x1="308.15" x2="371.067" y1="225.5938" y2="225.5938"/></g><!--link foo to bar--><g class="link" data-entity-1="ent0002" data-entity-2="ent0003" data-link-type="dependency" data-source-line="8" id="lnk7"><path codeLine="8" d="M155.33,92.7469 C128.57,116.6169 91.8174,149.4128 65.1374,173.2128" fill="none" id="foo-to-bar" style="stroke:#181818;stroke-width:1;"/><polygon fill="#181818" points="60.66,177.2069,70.0388,174.2007,64.3912,173.8785,64.7134,168.2308,60.66,177.2069" style="stroke:#181818;stroke-width:1;"/></g><!--link foo to bar1--><g class="link" data-entity-1="ent0002" data-entity-2="ent0004" data-link-type="dependency" data-source-line="9" id="lnk8"><path codeLine="9" d="M164.2,92.6069 C158.21,101.5169 151.94,112.0269 147.61,122.2969 C141.4,137.0569 138.2816,148.4365 135.4616,162.9865" fill="none" id="foo-to-bar1" style="stroke:#FF0000;stroke-width:1;"/><polygon fill="#FF0000" points="134.32,168.8769,139.9594,160.8024,135.2714,163.9682,132.1055,159.2802,134.32,168.8769" style="stroke:#FF0000;stroke-width:1;"/><text fill="#000000" font-family="sans-serif" font-size="13" lengthAdjust="spacing" textLength="42.6309" x="148.61" y="135.3638">[#red]</text></g><!--link foo to bar2--><g class="link" data-entity-1="ent0002" data-entity-2="ent0005" data-link-type="dependency" data-source-line="10" id="lnk9"><path codeLine="10" d="M191.09,92.7469 C199.66,113.9669 210.1124,139.8237 219.5824,163.2637" fill="none" id="foo-to-bar2" style="stroke:#008000;stroke-width:1;"/><polygon fill="#008000" points="221.83,168.8269,222.1674,158.9838,219.957,164.1909,214.7499,161.9805,221.83,168.8269" style="stroke:#008000;stroke-width:1;"/><text fill="#000000" font-family="sans-serif" font-size="13" lengthAdjust="spacing" textLength="58.8682" x="211.61" y="135.3638">[#green]</text></g><!--link foo to bar3--><g class="link" data-entity-1="ent0002" data-entity-2="ent0006" data-link-type="dependency" data-source-line="11" id="lnk10"><path codeLine="11" d="M208.97,80.5869 C229.49,89.8769 257.55,104.4169 278.61,122.2969 C294.35,135.6669 305.2804,148.7747 316.1204,164.1347" fill="none" id="foo-to-bar3" style="stroke:#0000FF;stroke-width:1;"/><polygon fill="#0000FF" points="319.58,169.0369,317.6587,159.3772,316.697,164.9517,311.1225,163.99,319.58,169.0369" style="stroke:#0000FF;stroke-width:1;"/><text fill="#000000" font-family="sans-serif" font-size="13" lengthAdjust="spacing" textLength="49.1372" x="294.61" y="135.3638">[#blue]</text></g><?plantuml-src LOr12eD034NtSug0YwvSg5rLwABNA2x6CItIO21EaTw-cgHI0u7yvF-NF6P2k4bCBymu08qJGc9Y2OdYFCE3sQS-IbYxWWlS2y6XsrIjwYc8a-f6TKzlx49Oir2MLqtgR3dRLB3LplAxaSnH-ztfxb2s6PeVmVwT_XnjyK4YNje3yVm5?></g></svg>