<svg xmlns="http://www.w3.org/2000/svg" xmlns:xlink="http://www.w3.org/1999/xlink" contentStyleType="text/css" data-diagram-type="CLASS" height="242px" preserveAspectRatio="none" style="width:809px;height:242px;background:#FFFFFF;" version="1.1" viewBox="0 0 809 242" width="809px" zoomAndPan="magnify"><?plantuml 1.2026.3beta5?><defs/><g><g class="title" data-source-line="1"><text fill="#000000" font-family="sans-serif" font-size="14" font-weight="700" lengthAdjust="spacing" textLength="0" x="401.4548" y="10">Bracketed line thickness</text></g><!--class foo--><g class="entity" data-qualified-name="foo" data-source-line="2" id="ent0002"><rect fill="#F1F1F1" height="48" rx="2.5" ry="2.5" style="stroke:#181818;stroke-width:0.5;" width="54.0596" x="341.58" y="38"/><ellipse cx="356.58" cy="54" fill="#ADD1B2" rx="11" ry="11" style="stroke:#181818;stroke-width:1;"/><path d="M359.5488,59.6406 Q358.9706,59.9375 358.33,60.0781 Q357.6894,60.2344 356.9863,60.2344 Q354.4863,60.2344 353.1581,58.5938 Q351.8456,56.9375 351.8456,53.8125 Q351.8456,50.6875 353.1581,49.0313 Q354.4863,47.375 356.9863,47.375 Q357.6894,47.375 358.33,47.5313 Q358.9863,47.6875 359.5488,47.9844 L359.5488,50.7031 Q358.9238,50.125 358.33,49.8594 Q357.7363,49.5781 357.1113,49.5781 Q355.7675,49.5781 355.08,50.6563 Q354.3925,51.7188 354.3925,53.8125 Q354.3925,55.9063 355.08,56.9844 Q355.7675,58.0469 357.1113,58.0469 Q357.7363,58.0469 358.33,57.7813 Q358.9238,57.5 359.5488,56.9219 L359.5488,59.6406 Z " fill="#000000"/><text fill="#000000" font-family="sans-serif" font-size="14" lengthAdjust="spacing" textLength="22.0596" x="370.58" y="58.8467">foo</text><line style="stroke:#181818;stroke-width:0.5;" x1="342.58" x2="394.6396" y1="70" y2="70"/><line style="stroke:#181818;stroke-width:0.5;" x1="342.58" x2="394.6396" y1="78" y2="78"/></g><!--class bar--><g class="entity" data-qualified-name="bar" data-source-line="3" id="ent0003"><rect fill="#F1F1F1" height="48" rx="2.5" ry="2.5" style="stroke:#181818;stroke-width:0.5;" width="55.2217" x="7" y="171.15"/><ellipse cx="22" cy="187.15" fill="#ADD1B2" rx="11" ry="11" style="stroke:#181818;stroke-width:1;"/><path d="M24.9688,192.7906 Q24.3906,193.0875 23.75,193.2281 Q23.1094,193.3844 22.4063,193.3844 Q19.9063,193.3844 18.5781,191.7438 Q17.2656,190.0875 17.2656,186.9625 Q17.2656,183.8375 18.5781,182.1813 Q19.9063,180.525 22.4063,180.525 Q23.1094,180.525 23.75,180.6813 Q24.4063,180.8375 24.9688,181.1344 L24.9688,183.8531 Q24.3438,183.275 23.75,183.0094 Q23.1563,182.7281 22.5313,182.7281 Q21.1875,182.7281 20.5,183.8063 Q19.8125,184.8688 19.8125,186.9625 Q19.8125,189.0563 20.5,190.1344 Q21.1875,191.1969 22.5313,191.1969 Q23.1563,191.1969 23.75,190.9313 Q24.3438,190.65 24.9688,190.0719 L24.9688,192.7906 Z " fill="#000000"/><text fill="#000000" font-family="sans-serif" font-size="14" lengthAdjust="spacing" textLength="23.2217" x="36" y="191.9967">bar</text><line style="stroke:#181818;stroke-width:0.5;" x1="8" x2="61.2217" y1="203.15" y2="203.15"/><line style="stroke:#181818;stroke-width:0.5;" x1="8" x2="61.2217" y1="211.15" y2="211.15"/></g><!--class bar1--><g class="entity" data-qualified-name="bar1" data-source-line="4" id="ent0004"><rect fill="#F1F1F1" height="64.2969" rx="2.5" ry="2.5" style="stroke:#181818;stroke-width:0.5;" width="109.6924" x="96.76" y="163"/><ellipse cx="132.2636" cy="179" fill="#ADD1B2" rx="11" ry="11" style="stroke:#181818;stroke-width:1;"/><path d="M135.2323,184.6406 Q134.6542,184.9375 134.0136,185.0781 Q133.3729,185.2344 132.6698,185.2344 Q130.1698,185.2344 128.8417,183.5938 Q127.5292,181.9375 127.5292,178.8125 Q127.5292,175.6875 128.8417,174.0313 Q130.1698,172.375 132.6698,172.375 Q133.3729,172.375 134.0136,172.5313 Q134.6698,172.6875 135.2323,172.9844 L135.2323,175.7031 Q134.6073,175.125 134.0136,174.8594 Q133.4198,174.5781 132.7948,174.5781 Q131.4511,174.5781 130.7636,175.6563 Q130.0761,176.7188 130.0761,178.8125 Q130.0761,180.9063 130.7636,181.9844 Q131.4511,183.0469 132.7948,183.0469 Q133.4198,183.0469 134.0136,182.7813 Q134.6073,182.5 135.2323,181.9219 L135.2323,184.6406 Z " fill="#000000"/><text fill="#000000" font-family="sans-serif" font-size="14" lengthAdjust="spacing" textLength="32.1289" x="150.8199" y="183.8467">bar1</text><line style="stroke:#181818;stroke-width:0.5;" x1="97.76" x2="205.4524" y1="195" y2="195"/><text fill="#000000" font-family="sans-serif" font-size="14" lengthAdjust="spacing" textLength="97.6924" x="102.76" y="211.9951">[thickness=1]</text><line style="stroke:#181818;stroke-width:0.5;" x1="97.76" x2="205.4524" y1="219.2969" y2="219.2969"/></g><!--class bar2--><g class="entity" data-qualified-name="bar2" data-source-line="5" id="ent0005"><rect fill="#F1F1F1" height="64.2969" rx="2.5" ry="2.5" style="stroke:#181818;stroke-width:0.5;" width="109.6924" x="241.76" y="163"/><ellipse cx="277.2636" cy="179" fill="#ADD1B2" rx="11" ry="11" style="stroke:#181818;stroke-width:1;"/><path d="M280.2323,184.6406 Q279.6542,184.9375 279.0136,185.0781 Q278.3729,185.2344 277.6698,185.2344 Q275.1698,185.2344 273.8417,183.5938 Q272.5292,181.9375 272.5292,178.8125 Q272.5292,175.6875 273.8417,174.0313 Q275.1698,172.375 277.6698,172.375 Q278.3729,172.375 279.0136,172.5313 Q279.6698,172.6875 280.2323,172.9844 L280.2323,175.7031 Q279.6073,175.125 279.0136,174.8594 Q278.4198,174.5781 277.7948,174.5781 Q276.4511,174.5781 275.7636,175.6563 Q275.0761,176.7188 275.0761,178.8125 Q275.0761,180.9063 275.7636,181.9844 Q276.4511,183.0469 277.7948,183.0469 Q278.4198,183.0469 279.0136,182.7813 Q279.6073,182.5 280.2323,181.9219 L280.2323,184.6406 Z " fill="#000000"/><text fill="#000000" font-family="sans-serif" font-size="14" lengthAdjust="spacing" textLength="32.1289" x="295.8199" y="183.8467">bar2</text><line style="stroke:#181818;stroke-width:0.5;" x1="242.76" x2="350.4524" y1="195" y2="195"/><text fill="#000000" font-family="sans-serif" font-size="14" lengthAdjust="spacing" textLength="97.6924" x="247.76" y="211.9951">[thickness=2]</text><line style="stroke:#181818;stroke-width:0.5;" x1="242.76" x2="350.4524" y1="219.2969" y2="219.2969"/></g><!--class bar3--><g class="entity" data-qualified-name="bar3" data-source-line="6" id="ent0006"><rect fill="#F1F1F1" height="64.2969" rx="2.5" ry="2.5" style="stroke:#181818;stroke-width:0.5;" width="109.6924" x="386.76" y="163"/><ellipse cx="422.2636" cy="179" fill="#ADD1B2" rx="11" ry="11" style="stroke:#181818;stroke-width:1;"/><path d="M425.2323,184.6406 Q424.6542,184.9375 424.0136,185.0781 Q423.3729,185.2344 422.6698,185.2344 Q420.1698,185.2344 418.8417,183.5938 Q417.5292,181.9375 417.5292,178.8125 Q417.5292,175.6875 418.8417,174.0313 Q420.1698,172.375 422.6698,172.375 Q423.3729,172.375 424.0136,172.5313 Q424.6698,172.6875 425.2323,172.9844 L425.2323,175.7031 Q424.6073,175.125 424.0136,174.8594 Q423.4198,174.5781 422.7948,174.5781 Q421.4511,174.5781 420.7636,175.6563 Q420.0761,176.7188 420.0761,178.8125 Q420.0761,180.9063 420.7636,181.9844 Q421.4511,183.0469 422.7948,183.0469 Q423.4198,183.0469 424.0136,182.7813 Q424.6073,182.5 425.2323,181.9219 L425.2323,184.6406 Z " fill="#000000"/><text fill="#000000" font-family="sans-serif" font-size="14" lengthAdjust="spacing" textLength="32.1289" x="440.8199" y="183.8467">bar3</text><line style="stroke:#181818;stroke-width:0.5;" x1="387.76" x2="495.4524" y1="195" y2="195"/><text fill="#000000" font-family="sans-serif" font-size="14" lengthAdjust="spacing" textLength="97.6924" x="392.76" y="211.9951">[thickness=4]</text><line style="stroke:#181818;stroke-width:0.5;" x1="387.76" x2="495.4524" y1="219.2969" y2="219.2969"/></g><!--class bar4--><g class="entity" data-qualified-name="bar4" data-source-line="7" id="ent0007"><rect fill="#F1F1F1" height="64.2969" rx="2.5" ry="2.5" style="stroke:#181818;stroke-width:0.5;" width="109.6924" x="531.76" y="163"/><ellipse cx="567.2636" cy="179" fill="#ADD1B2" rx="11" ry="11" style="stroke:#181818;stroke-width:1;"/><path d="M570.2323,184.6406 Q569.6542,184.9375 569.0136,185.0781 Q568.3729,185.2344 567.6698,185.2344 Q565.1698,185.2344 563.8417,183.5938 Q562.5292,181.9375 562.5292,178.8125 Q562.5292,175.6875 563.8417,174.0313 Q565.1698,172.375 567.6698,172.375 Q568.3729,172.375 569.0136,172.5313 Q569.6698,172.6875 570.2323,172.9844 L570.2323,175.7031 Q569.6073,175.125 569.0136,174.8594 Q568.4198,174.5781 567.7948,174.5781 Q566.4511,174.5781 565.7636,175.6563 Q565.0761,176.7188 565.0761,178.8125 Q565.0761,180.9063 565.7636,181.9844 Q566.4511,183.0469 567.7948,183.0469 Q568.4198,183.0469 569.0136,182.7813 Q569.6073,182.5 570.2323,181.9219 L570.2323,184.6406 Z " fill="#000000"/><text fill="#000000" font-family="sans-serif" font-size="14" lengthAdjust="spacing" textLength="32.1289" x="585.8199" y="183.8467">bar4</text><line style="stroke:#181818;stroke-width:0.5;" x1="532.76" x2="640.4524" y1="195" y2="195"/><text fill="#000000" font-family="sans-serif" font-size="14" lengthAdjust="spacing" textLength="97.6924" x="537.76" y="211.9951">[thickness=8]</text><line style="stroke:#181818;stroke-width:0.5;" x1="532.76" x2="640.4524" y1="219.2969" y2="219.2969"/></g><!--class bar5--><g class="entity" data-qualified-name="bar5" data-source-line="8" id="ent0008"><rect fill="#F1F1F1" height="64.2969" rx="2.5" ry="2.5" style="stroke:#181818;stroke-width:0.5;" width="118.5996" x="676.31" y="163"/><ellipse cx="715.8218" cy="179" fill="#ADD1B2" rx="11" ry="11" style="stroke:#181818;stroke-width:1;"/><path d="M718.7906,184.6406 Q718.2124,184.9375 717.5718,185.0781 Q716.9312,185.2344 716.2281,185.2344 Q713.7281,185.2344 712.3999,183.5938 Q711.0874,181.9375 711.0874,178.8125 Q711.0874,175.6875 712.3999,174.0313 Q713.7281,172.375 716.2281,172.375 Q716.9312,172.375 717.5718,172.5313 Q718.2281,172.6875 718.7906,172.9844 L718.7906,175.7031 Q718.1656,175.125 717.5718,174.8594 Q716.9781,174.5781 716.3531,174.5781 Q715.0093,174.5781 714.3218,175.6563 Q713.6343,176.7188 713.6343,178.8125 Q713.6343,180.9063 714.3218,181.9844 Q715.0093,183.0469 716.3531,183.0469 Q716.9781,183.0469 717.5718,182.7813 Q718.1656,182.5 718.7906,181.9219 L718.7906,184.6406 Z " fill="#000000"/><text fill="#000000" font-family="sans-serif" font-size="14" lengthAdjust="spacing" textLength="32.1289" x="735.2689" y="183.8467">bar5</text><line style="stroke:#181818;stroke-width:0.5;" x1="677.31" x2="793.9096" y1="195" y2="195"/><text fill="#000000" font-family="sans-serif" font-size="14" lengthAdjust="spacing" textLength="106.5996" x="682.31" y="211.9951">[thickness=16]</text><line style="stroke:#181818;stroke-width:0.5;" x1="677.31" x2="793.9096" y1="219.2969" y2="219.2969"/></g><!--link foo to bar--><g class="link" data-entity-1="ent0002" data-entity-2="ent0003" data-link-type="dependency" data-source-line="10" id="lnk9"><path codeLine="10" d="M341.32,69.77 C288.85,83.36 171,116.66 79.61,163 C73.85,165.93 72.9665,166.1681 67.4465,169.8381" fill="none" id="foo-to-bar" style="stroke:#181818;stroke-width:1;"/><polygon fill="#181818" points="62.45,173.16,72.1593,171.5081,66.6137,170.3917,67.7301,164.8461,62.45,173.16" style="stroke:#181818;stroke-width:1;"/><text fill="#000000" font-family="sans-serif" font-size="13" lengthAdjust="spacing" textLength="11.3242" x="189.61" y="129.0669">&#8709;</text></g><!--link foo to bar1--><g class="link" data-entity-1="ent0002" data-entity-2="ent0004" data-link-type="dependency" data-source-line="11" id="lnk10"><path codeLine="11" d="M341.13,79.61 C306.69,100.43 252.0751,133.4366 208.8551,159.5566" fill="none" id="foo-to-bar1" style="stroke:#181818;stroke-width:1;"/><polygon fill="#181818" points="203.72,162.66,213.4915,161.4283,207.9992,160.0738,209.3537,154.5815,203.72,162.66" style="stroke:#181818;stroke-width:1;"/><text fill="#000000" font-family="sans-serif" font-size="13" lengthAdjust="spacing" textLength="18.4146" x="280.61" y="129.0669">[1]</text></g><!--link foo to bar2--><g class="link" data-entity-1="ent0002" data-entity-2="ent0005" data-link-type="dependency" data-source-line="12" id="lnk11"><path codeLine="12" d="M355.74,86.45 C344.09,107.67 329.7277,133.8306 316.8577,157.2706" fill="none" id="foo-to-bar2" style="stroke:#181818;stroke-width:2;"/><polygon fill="#181818" points="313.97,162.53,321.8078,156.5661,316.3764,158.1472,314.7953,152.7158,313.97,162.53" style="stroke:#181818;stroke-width:2;"/><text fill="#000000" font-family="sans-serif" font-size="13" lengthAdjust="spacing" textLength="18.4146" x="340.61" y="129.0669">[2]</text></g><!--link foo to bar3--><g class="link" data-entity-1="ent0002" data-entity-2="ent0006" data-link-type="dependency" data-source-line="13" id="lnk12"><path codeLine="13" d="M381.66,86.45 C393.47,107.67 408.0414,133.8477 421.0914,157.2877" fill="none" id="foo-to-bar3" style="stroke:#181818;stroke-width:4;"/><polygon fill="#181818" points="424.01,162.53,423.127,152.7208,421.5778,158.1614,416.1372,156.6123,424.01,162.53" style="stroke:#181818;stroke-width:4;"/><text fill="#000000" font-family="sans-serif" font-size="13" lengthAdjust="spacing" textLength="18.4146" x="408.61" y="129.0669">[4]</text></g><!--link foo to bar4--><g class="link" data-entity-1="ent0002" data-entity-2="ent0007" data-link-type="dependency" data-source-line="14" id="lnk13"><path codeLine="14" d="M395.78,79.35 C430.25,100.08 485.3088,133.2068 528.8888,159.4268" fill="none" id="foo-to-bar4" style="stroke:#181818;stroke-width:8;"/><polygon fill="#181818" points="534.03,162.52,528.3803,154.4527,529.7457,159.9423,524.256,161.3076,534.03,162.52" style="stroke:#181818;stroke-width:8;"/><text fill="#000000" font-family="sans-serif" font-size="13" lengthAdjust="spacing" textLength="18.4146" x="485.61" y="129.0669">[8]</text></g><!--link foo to bar5--><g class="link" data-entity-1="ent0002" data-entity-2="ent0008" data-link-type="dependency" data-source-line="15" id="lnk14"><path codeLine="15" d="M395.97,71.91 C447.61,88.83 562.85,127.15 658.61,163 C664.28,165.13 664.5835,165.2011 670.4535,167.5011" fill="none" id="foo-to-bar5" style="stroke:#181818;stroke-width:16;"/><polygon fill="#181818" points="676.04,169.69,669.1196,162.6823,671.3846,167.8659,666.201,170.131,676.04,169.69" style="stroke:#181818;stroke-width:16;"/><text fill="#000000" font-family="sans-serif" font-size="13" lengthAdjust="spacing" textLength="26.6855" x="572.61" y="129.0669">[16]</text></g><?plantuml-src PSv12iCW443HlQUO2sIXCK42xQBN22wCjLGY2KIlKEWvUv8QHmAg8CZduKommHbu74gl9fWdEBiP26-hryruJxHJtiDht_DhKGU9by84ywLkL9wHbP6bs9UHfyZBA58SgZz7IKWS35rtFyT2VIRuVJyeYbMGqoJck5ajM1OC1Mi5pw97mLiXik0eH2lY-aW6t6EKVm00?></g></svg>