<svg xmlns="http://www.w3.org/2000/svg" xmlns:xlink="http://www.w3.org/1999/xlink" contentStyleType="text/css" data-diagram-type="CLASS" height="70px" preserveAspectRatio="none" style="width:126px;height:70px;background:#FFFFFF;" version="1.1" viewBox="0 0 126 70" width="126px" zoomAndPan="magnify"><?plantuml 1.2026.3beta5?><defs/><g><!--class foo--><g class="entity" data-qualified-name="foo" data-source-line="1" id="ent0002"><rect fill="#F1F1F1" height="48" rx="2.5" ry="2.5" style="stroke:#181818;stroke-width:0.5;" width="54.0596" x="57.5808" y="7"/><ellipse cx="72.5808" cy="23" fill="#ADD1B2" rx="11" ry="11" style="stroke:#181818;stroke-width:1;"/><path d="M75.5496,28.6406 Q74.9715,28.9375 74.3308,29.0781 Q73.6902,29.2344 72.9871,29.2344 Q70.4871,29.2344 69.159,27.5938 Q67.8465,25.9375 67.8465,22.8125 Q67.8465,19.6875 69.159,18.0313 Q70.4871,16.375 72.9871,16.375 Q73.6902,16.375 74.3308,16.5313 Q74.9871,16.6875 75.5496,16.9844 L75.5496,19.7031 Q74.9246,19.125 74.3308,18.8594 Q73.7371,18.5781 73.1121,18.5781 Q71.7683,18.5781 71.0808,19.6563 Q70.3933,20.7188 70.3933,22.8125 Q70.3933,24.9063 71.0808,25.9844 Q71.7683,27.0469 73.1121,27.0469 Q73.7371,27.0469 74.3308,26.7813 Q74.9246,26.5 75.5496,25.9219 L75.5496,28.6406 Z " fill="#000000"/><text fill="#000000" font-family="sans-serif" font-size="14" lengthAdjust="spacing" textLength="22.0596" x="86.5808" y="27.8467">foo</text><line style="stroke:#181818;stroke-width:0.5;" x1="58.5808" x2="110.6404" y1="39" y2="39"/><line style="stroke:#181818;stroke-width:0.5;" x1="58.5808" x2="110.6404" y1="47" y2="47"/></g><g class="entity" data-qualified-name="foolol3" data-source-line="2" id="ent0004"><ellipse cx="17.6108" cy="31" fill="#F1F1F1" rx="5" ry="5" style="stroke:#181818;stroke-width:1.5;"/></g><text fill="#000000" font-family="sans-serif" font-size="14" lengthAdjust="spacing" textLength="23.2217" x="6" y="48.9951">bar</text><!--link foolol3 to foo--><g class="link" data-entity-1="ent0004" data-entity-2="ent0002" data-link-type="association" data-source-line="2" id="lnk5"><path d="M23.1108,31 C34.4808,31 45.8508,31 57.2208,31" fill="none" id="foolol3-foo" style="stroke:#181818;stroke-width:1;"/></g><?plantuml-src Iyv9B2vMIClFvqfAB5BGqDG5iG40?></g></svg>