<svg xmlns="http://www.w3.org/2000/svg" xmlns:xlink="http://www.w3.org/1999/xlink" contentStyleType="text/css" data-diagram-type="CLASS" height="70px" preserveAspectRatio="none" style="width:278px;height:70px;background:#FFFFFF;" version="1.1" viewBox="0 0 278 70" width="278px" zoomAndPan="magnify"><?plantuml 1.2026.3beta5?><defs/><g><!--class class1--><g class="entity" data-qualified-name="class1" data-source-line="1" id="ent0002"><rect fill="#F1F1F1" height="48" rx="2.5" ry="2.5" style="stroke:#181818;stroke-width:0.5;" width="75.6611" x="7" y="7"/><ellipse cx="22" cy="23" fill="#ADD1B2" rx="11" ry="11" style="stroke:#181818;stroke-width:1;"/><path d="M24.9688,28.6406 Q24.3906,28.9375 23.75,29.0781 Q23.1094,29.2344 22.4063,29.2344 Q19.9063,29.2344 18.5781,27.5938 Q17.2656,25.9375 17.2656,22.8125 Q17.2656,19.6875 18.5781,18.0313 Q19.9063,16.375 22.4063,16.375 Q23.1094,16.375 23.75,16.5313 Q24.4063,16.6875 24.9688,16.9844 L24.9688,19.7031 Q24.3438,19.125 23.75,18.8594 Q23.1563,18.5781 22.5313,18.5781 Q21.1875,18.5781 20.5,19.6563 Q19.8125,20.7188 19.8125,22.8125 Q19.8125,24.9063 20.5,25.9844 Q21.1875,27.0469 22.5313,27.0469 Q23.1563,27.0469 23.75,26.7813 Q24.3438,26.5 24.9688,25.9219 L24.9688,28.6406 Z " fill="#000000"/><text fill="#000000" font-family="sans-serif" font-size="14" lengthAdjust="spacing" textLength="43.6611" x="36" y="27.8467">class1</text><line style="stroke:#181818;stroke-width:0.5;" x1="8" x2="81.6611" y1="39" y2="39"/><line style="stroke:#181818;stroke-width:0.5;" x1="8" x2="81.6611" y1="47" y2="47"/></g><!--class class2--><g class="entity" data-qualified-name="class2" data-source-line="2" id="ent0003"><rect fill="#F1F1F1" height="48" rx="2.5" ry="2.5" style="stroke:#181818;stroke-width:0.5;" width="75.6611" x="188.17" y="7"/><ellipse cx="203.17" cy="23" fill="#ADD1B2" rx="11" ry="11" style="stroke:#181818;stroke-width:1;"/><path d="M206.1388,28.6406 Q205.5606,28.9375 204.92,29.0781 Q204.2794,29.2344 203.5763,29.2344 Q201.0763,29.2344 199.7481,27.5938 Q198.4356,25.9375 198.4356,22.8125 Q198.4356,19.6875 199.7481,18.0313 Q201.0763,16.375 203.5763,16.375 Q204.2794,16.375 204.92,16.5313 Q205.5763,16.6875 206.1388,16.9844 L206.1388,19.7031 Q205.5138,19.125 204.92,18.8594 Q204.3263,18.5781 203.7013,18.5781 Q202.3575,18.5781 201.67,19.6563 Q200.9825,20.7188 200.9825,22.8125 Q200.9825,24.9063 201.67,25.9844 Q202.3575,27.0469 203.7013,27.0469 Q204.3263,27.0469 204.92,26.7813 Q205.5138,26.5 206.1388,25.9219 L206.1388,28.6406 Z " fill="#000000"/><text fill="#000000" font-family="sans-serif" font-size="14" lengthAdjust="spacing" textLength="43.6611" x="217.17" y="27.8467">class2</text><line style="stroke:#181818;stroke-width:0.5;" x1="189.17" x2="262.8311" y1="39" y2="39"/><line style="stroke:#181818;stroke-width:0.5;" x1="189.17" x2="262.8311" y1="47" y2="47"/></g><!--link class1 to class2--><g class="link" data-entity-1="ent0002" data-entity-2="ent0003" data-link-type="association" data-source-line="4" id="lnk4"><path codeLine="4" d="M81.86,41.52 C112.82,44.48 156.85,44.49 187.88,41.55" fill="none" id="class1-class2" style="stroke:#181818;stroke-width:1;"/><rect fill="#F1F1F1" height="18.2969" style="stroke:#181818;stroke-width:0.5;" width="63.4385" x="81.86" y="32.3716"/><text fill="#000000" font-family="sans-serif" font-size="14" lengthAdjust="spacing" textLength="59.4385" x="83.86" y="46.3667">Qualifier</text></g><?plantuml-src Iyv9B2vMI0QHXbp928uH5uHdg10TM9gOavcMcLeKgw0BbGG0?></g></svg>