<svg xmlns="http://www.w3.org/2000/svg" xmlns:xlink="http://www.w3.org/1999/xlink" contentStyleType="text/css" data-diagram-type="CLASS" height="242px" preserveAspectRatio="none" style="width:1237px;height:242px;background:#FFFFFF;" version="1.1" viewBox="0 0 1237 242" width="1237px" zoomAndPan="magnify"><?plantuml 1.2026.3beta5?><defs/><g><g class="title" data-source-line="1"><text fill="#000000" font-family="sans-serif" font-size="14" font-weight="700" lengthAdjust="spacing" textLength="0" x="615.2107" y="10">Bracketed line style mix</text></g><!--class foo--><g class="entity" data-qualified-name="foo" data-source-line="2" id="ent0002"><rect fill="#F1F1F1" height="48" rx="2.5" ry="2.5" style="stroke:#181818;stroke-width:0.5;" width="54.0596" x="480.58" y="38"/><ellipse cx="495.58" cy="54" fill="#ADD1B2" rx="11" ry="11" style="stroke:#181818;stroke-width:1;"/><path d="M498.5488,59.6406 Q497.9706,59.9375 497.33,60.0781 Q496.6894,60.2344 495.9863,60.2344 Q493.4863,60.2344 492.1581,58.5938 Q490.8456,56.9375 490.8456,53.8125 Q490.8456,50.6875 492.1581,49.0313 Q493.4863,47.375 495.9863,47.375 Q496.6894,47.375 497.33,47.5313 Q497.9863,47.6875 498.5488,47.9844 L498.5488,50.7031 Q497.9238,50.125 497.33,49.8594 Q496.7363,49.5781 496.1113,49.5781 Q494.7675,49.5781 494.08,50.6563 Q493.3925,51.7188 493.3925,53.8125 Q493.3925,55.9063 494.08,56.9844 Q494.7675,58.0469 496.1113,58.0469 Q496.7363,58.0469 497.33,57.7813 Q497.9238,57.5 498.5488,56.9219 L498.5488,59.6406 Z " fill="#000000"/><text fill="#000000" font-family="sans-serif" font-size="14" lengthAdjust="spacing" textLength="22.0596" x="509.58" y="58.8467">foo</text><line style="stroke:#181818;stroke-width:0.5;" x1="481.58" x2="533.6396" y1="70" y2="70"/><line style="stroke:#181818;stroke-width:0.5;" x1="481.58" x2="533.6396" y1="78" y2="78"/></g><!--class bar--><g class="entity" data-qualified-name="bar" data-source-line="3" id="ent0003"><rect fill="#F1F1F1" height="48" rx="2.5" ry="2.5" style="stroke:#181818;stroke-width:0.5;" width="55.2217" x="7" y="171.15"/><ellipse cx="22" cy="187.15" fill="#ADD1B2" rx="11" ry="11" style="stroke:#181818;stroke-width:1;"/><path d="M24.9688,192.7906 Q24.3906,193.0875 23.75,193.2281 Q23.1094,193.3844 22.4063,193.3844 Q19.9063,193.3844 18.5781,191.7438 Q17.2656,190.0875 17.2656,186.9625 Q17.2656,183.8375 18.5781,182.1813 Q19.9063,180.525 22.4063,180.525 Q23.1094,180.525 23.75,180.6813 Q24.4063,180.8375 24.9688,181.1344 L24.9688,183.8531 Q24.3438,183.275 23.75,183.0094 Q23.1563,182.7281 22.5313,182.7281 Q21.1875,182.7281 20.5,183.8063 Q19.8125,184.8688 19.8125,186.9625 Q19.8125,189.0563 20.5,190.1344 Q21.1875,191.1969 22.5313,191.1969 Q23.1563,191.1969 23.75,190.9313 Q24.3438,190.65 24.9688,190.0719 L24.9688,192.7906 Z " fill="#000000"/><text fill="#000000" font-family="sans-serif" font-size="14" lengthAdjust="spacing" textLength="23.2217" x="36" y="191.9967">bar</text><line style="stroke:#181818;stroke-width:0.5;" x1="8" x2="61.2217" y1="203.15" y2="203.15"/><line style="stroke:#181818;stroke-width:0.5;" x1="8" x2="61.2217" y1="211.15" y2="211.15"/></g><!--class bar1--><g class="entity" data-qualified-name="bar1" data-source-line="4" id="ent0004"><rect fill="#F1F1F1" height="64.2969" rx="2.5" ry="2.5" style="stroke:#181818;stroke-width:0.5;" width="149.1289" x="97.05" y="163"/><ellipse cx="151.3" cy="179" fill="#ADD1B2" rx="11" ry="11" style="stroke:#181818;stroke-width:1;"/><path d="M154.2688,184.6406 Q153.6906,184.9375 153.05,185.0781 Q152.4094,185.2344 151.7063,185.2344 Q149.2063,185.2344 147.8781,183.5938 Q146.5656,181.9375 146.5656,178.8125 Q146.5656,175.6875 147.8781,174.0313 Q149.2063,172.375 151.7063,172.375 Q152.4094,172.375 153.05,172.5313 Q153.7063,172.6875 154.2688,172.9844 L154.2688,175.7031 Q153.6438,175.125 153.05,174.8594 Q152.4563,174.5781 151.8313,174.5781 Q150.4875,174.5781 149.8,175.6563 Q149.1125,176.7188 149.1125,178.8125 Q149.1125,180.9063 149.8,181.9844 Q150.4875,183.0469 151.8313,183.0469 Q152.4563,183.0469 153.05,182.7813 Q153.6438,182.5 154.2688,181.9219 L154.2688,184.6406 Z " fill="#000000"/><text fill="#000000" font-family="sans-serif" font-size="14" lengthAdjust="spacing" textLength="32.1289" x="171.8" y="183.8467">bar1</text><line style="stroke:#181818;stroke-width:0.5;" x1="98.05" x2="245.1789" y1="195" y2="195"/><text fill="#000000" font-family="sans-serif" font-size="14" lengthAdjust="spacing" textLength="137.1289" x="103.05" y="211.9951">[#red,thickness=1]</text><line style="stroke:#181818;stroke-width:0.5;" x1="98.05" x2="245.1789" y1="219.2969" y2="219.2969"/></g><!--class bar2--><g class="entity" data-qualified-name="bar2" data-source-line="5" id="ent0005"><rect fill="#F1F1F1" height="64.2969" rx="2.5" ry="2.5" style="stroke:#181818;stroke-width:0.5;" width="204.7119" x="281.25" y="163"/><ellipse cx="363.2915" cy="179" fill="#ADD1B2" rx="11" ry="11" style="stroke:#181818;stroke-width:1;"/><path d="M366.2603,184.6406 Q365.6821,184.9375 365.0415,185.0781 Q364.4009,185.2344 363.6978,185.2344 Q361.1978,185.2344 359.8696,183.5938 Q358.5571,181.9375 358.5571,178.8125 Q358.5571,175.6875 359.8696,174.0313 Q361.1978,172.375 363.6978,172.375 Q364.4009,172.375 365.0415,172.5313 Q365.6978,172.6875 366.2603,172.9844 L366.2603,175.7031 Q365.6353,175.125 365.0415,174.8594 Q364.4478,174.5781 363.8228,174.5781 Q362.479,174.5781 361.7915,175.6563 Q361.104,176.7188 361.104,178.8125 Q361.104,180.9063 361.7915,181.9844 Q362.479,183.0469 363.8228,183.0469 Q364.4478,183.0469 365.0415,182.7813 Q365.6353,182.5 366.2603,181.9219 L366.2603,184.6406 Z " fill="#000000"/><text fill="#000000" font-family="sans-serif" font-size="14" lengthAdjust="spacing" textLength="32.1289" x="383.7915" y="183.8467">bar2</text><line style="stroke:#181818;stroke-width:0.5;" x1="282.25" x2="484.9619" y1="195" y2="195"/><text fill="#000000" font-family="sans-serif" font-size="14" lengthAdjust="spacing" textLength="192.7119" x="287.25" y="211.9951">[#red,dashed,thickness=2]</text><line style="stroke:#181818;stroke-width:0.5;" x1="282.25" x2="484.9619" y1="219.2969" y2="219.2969"/></g><!--class bar3--><g class="entity" data-qualified-name="bar3" data-source-line="6" id="ent0006"><rect fill="#F1F1F1" height="64.2969" rx="2.5" ry="2.5" style="stroke:#181818;stroke-width:0.5;" width="222.1982" x="520.51" y="163"/><ellipse cx="611.2947" cy="179" fill="#ADD1B2" rx="11" ry="11" style="stroke:#181818;stroke-width:1;"/><path d="M614.2634,184.6406 Q613.6853,184.9375 613.0447,185.0781 Q612.404,185.2344 611.7009,185.2344 Q609.2009,185.2344 607.8728,183.5938 Q606.5603,181.9375 606.5603,178.8125 Q606.5603,175.6875 607.8728,174.0313 Q609.2009,172.375 611.7009,172.375 Q612.404,172.375 613.0447,172.5313 Q613.7009,172.6875 614.2634,172.9844 L614.2634,175.7031 Q613.6384,175.125 613.0447,174.8594 Q612.4509,174.5781 611.8259,174.5781 Q610.4822,174.5781 609.7947,175.6563 Q609.1072,176.7188 609.1072,178.8125 Q609.1072,180.9063 609.7947,181.9844 Q610.4822,183.0469 611.8259,183.0469 Q612.4509,183.0469 613.0447,182.7813 Q613.6384,182.5 614.2634,181.9219 L614.2634,184.6406 Z " fill="#000000"/><text fill="#000000" font-family="sans-serif" font-size="14" lengthAdjust="spacing" textLength="32.1289" x="631.7947" y="183.8467">bar3</text><line style="stroke:#181818;stroke-width:0.5;" x1="521.51" x2="741.7082" y1="195" y2="195"/><text fill="#000000" font-family="sans-serif" font-size="14" lengthAdjust="spacing" textLength="210.1982" x="526.51" y="211.9951">[#green,dashed,thickness=4]</text><line style="stroke:#181818;stroke-width:0.5;" x1="521.51" x2="741.7082" y1="219.2969" y2="219.2969"/></g><!--class bar4--><g class="entity" data-qualified-name="bar4" data-source-line="7" id="ent0007"><rect fill="#F1F1F1" height="64.2969" rx="2.5" ry="2.5" style="stroke:#181818;stroke-width:0.5;" width="206.5166" x="777.35" y="163"/><ellipse cx="860.2938" cy="179" fill="#ADD1B2" rx="11" ry="11" style="stroke:#181818;stroke-width:1;"/><path d="M863.2626,184.6406 Q862.6845,184.9375 862.0438,185.0781 Q861.4032,185.2344 860.7001,185.2344 Q858.2001,185.2344 856.872,183.5938 Q855.5595,181.9375 855.5595,178.8125 Q855.5595,175.6875 856.872,174.0313 Q858.2001,172.375 860.7001,172.375 Q861.4032,172.375 862.0438,172.5313 Q862.7001,172.6875 863.2626,172.9844 L863.2626,175.7031 Q862.6376,175.125 862.0438,174.8594 Q861.4501,174.5781 860.8251,174.5781 Q859.4813,174.5781 858.7938,175.6563 Q858.1063,176.7188 858.1063,178.8125 Q858.1063,180.9063 858.7938,181.9844 Q859.4813,183.0469 860.8251,183.0469 Q861.4501,183.0469 862.0438,182.7813 Q862.6376,182.5 863.2626,181.9219 L863.2626,184.6406 Z " fill="#000000"/><text fill="#000000" font-family="sans-serif" font-size="14" lengthAdjust="spacing" textLength="32.1289" x="880.7938" y="183.8467">bar4</text><line style="stroke:#181818;stroke-width:0.5;" x1="778.35" x2="982.8666" y1="195" y2="195"/><text fill="#000000" font-family="sans-serif" font-size="14" lengthAdjust="spacing" textLength="194.5166" x="783.35" y="211.9951">[#blue,dotted,thickness=8]</text><line style="stroke:#181818;stroke-width:0.5;" x1="778.35" x2="982.8666" y1="219.2969" y2="219.2969"/></g><!--class bar5--><g class="entity" data-qualified-name="bar5" data-source-line="8" id="ent0008"><rect fill="#F1F1F1" height="64.2969" rx="2.5" ry="2.5" style="stroke:#181818;stroke-width:0.5;" width="203.6113" x="1018.81" y="163"/><ellipse cx="1100.3012" cy="179" fill="#ADD1B2" rx="11" ry="11" style="stroke:#181818;stroke-width:1;"/><path d="M1103.27,184.6406 Q1102.6918,184.9375 1102.0512,185.0781 Q1101.4106,185.2344 1100.7075,185.2344 Q1098.2075,185.2344 1096.8793,183.5938 Q1095.5668,181.9375 1095.5668,178.8125 Q1095.5668,175.6875 1096.8793,174.0313 Q1098.2075,172.375 1100.7075,172.375 Q1101.4106,172.375 1102.0512,172.5313 Q1102.7075,172.6875 1103.27,172.9844 L1103.27,175.7031 Q1102.645,175.125 1102.0512,174.8594 Q1101.4575,174.5781 1100.8325,174.5781 Q1099.4887,174.5781 1098.8012,175.6563 Q1098.1137,176.7188 1098.1137,178.8125 Q1098.1137,180.9063 1098.8012,181.9844 Q1099.4887,183.0469 1100.8325,183.0469 Q1101.4575,183.0469 1102.0512,182.7813 Q1102.645,182.5 1103.27,181.9219 L1103.27,184.6406 Z " fill="#000000"/><text fill="#000000" font-family="sans-serif" font-size="14" lengthAdjust="spacing" textLength="32.1289" x="1120.8012" y="183.8467">bar5</text><line style="stroke:#181818;stroke-width:0.5;" x1="1019.81" x2="1221.4213" y1="195" y2="195"/><text fill="#000000" font-family="sans-serif" font-size="14" lengthAdjust="spacing" textLength="191.6113" x="1024.81" y="211.9951">[#blue,plain,thickness=16]</text><line style="stroke:#181818;stroke-width:0.5;" x1="1019.81" x2="1221.4213" y1="219.2969" y2="219.2969"/></g><!--link foo to bar--><g class="link" data-entity-1="ent0002" data-entity-2="ent0003" data-link-type="dependency" data-source-line="10" id="lnk9"><path codeLine="10" d="M480.19,65.81 C410.58,73.67 222.43,99.65 79.61,163 C73.88,165.55 73.1449,165.5866 67.7449,169.0866" fill="none" id="foo-to-bar" style="stroke:#181818;stroke-width:1;"/><polygon fill="#181818" points="62.71,172.35,72.438,170.8116,66.9058,169.6305,68.0868,164.0983,62.71,172.35" style="stroke:#181818;stroke-width:1;"/><text fill="#000000" font-family="sans-serif" font-size="13" lengthAdjust="spacing" textLength="11.3242" x="205.61" y="129.0669">&#8709;</text></g><!--link foo to bar1--><g class="link" data-entity-1="ent0002" data-entity-2="ent0004" data-link-type="dependency" data-source-line="11" id="lnk10"><path codeLine="11" d="M480.11,73.74 C429.57,93.46 325.8895,133.9389 251.9295,162.7989" fill="none" id="foo-to-bar1" style="stroke:#FF0000;stroke-width:1;"/><polygon fill="#FF0000" points="246.34,164.98,256.1784,165.4347,250.9979,163.1624,253.2702,157.982,246.34,164.98" style="stroke:#FF0000;stroke-width:1;"/><text fill="#000000" font-family="sans-serif" font-size="13" lengthAdjust="spacing" textLength="55.0342" x="371.61" y="129.0669">[#red,1]</text></g><!--link foo to bar2--><g class="link" data-entity-1="ent0002" data-entity-2="ent0005" data-link-type="dependency" data-source-line="12" id="lnk11"><path codeLine="12" d="M485.44,86.45 C465.38,107.67 439.7919,134.73 417.6319,158.17" fill="none" id="foo-to-bar2" style="stroke:#FF0000;stroke-width:2;stroke-dasharray:7,7;"/><polygon fill="#FF0000" points="413.51,162.53,422.5996,158.7379,416.9449,158.8967,416.7862,153.242,413.51,162.53" style="stroke:#FF0000;stroke-width:2;"/><text fill="#000000" font-family="sans-serif" font-size="13" lengthAdjust="spacing" textLength="106.647" x="458.61" y="129.0669">[#red,dashed,2]</text></g><!--link foo to bar3--><g class="link" data-entity-1="ent0002" data-entity-2="ent0006" data-link-type="dependency" data-source-line="13" id="lnk12"><path codeLine="13" d="M534.95,82.45 C547.38,91.9 561.89,103.83 573.61,116 C587.32,130.25 597.1697,142.8743 607.5697,157.7343" fill="none" id="foo-to-bar3" style="stroke:#008000;stroke-width:4;stroke-dasharray:7,7;"/><polygon fill="#008000" points="611.01,162.65,609.1266,152.9829,608.1431,158.5536,602.5724,157.57,611.01,162.65" style="stroke:#008000;stroke-width:4;"/><text fill="#000000" font-family="sans-serif" font-size="13" lengthAdjust="spacing" textLength="122.8843" x="589.61" y="129.0669">[#green,dashed,4]</text></g><!--link foo to bar4--><g class="link" data-entity-1="ent0002" data-entity-2="ent0007" data-link-type="dependency" data-source-line="14" id="lnk13"><path codeLine="14" d="M535.06,67.91 C576.16,75.68 655.8,92.41 720.61,116 C755.76,128.8 788.1079,144.1896 818.0579,159.7796" fill="none" id="foo-to-bar4" style="stroke:#0000FF;stroke-width:8;stroke-dasharray:1,3;"/><polygon fill="#0000FF" points="823.38,162.55,817.2437,154.8464,818.9449,160.2414,813.5499,161.9426,823.38,162.55" style="stroke:#0000FF;stroke-width:8;"/><text fill="#000000" font-family="sans-serif" font-size="13" lengthAdjust="spacing" textLength="97.4302" x="762.61" y="129.0669">[blue,dotted,8]</text></g><!--link foo to bar5--><g class="link" data-entity-1="ent0002" data-entity-2="ent0008" data-link-type="dependency" data-source-line="15" id="lnk14"><path codeLine="15" d="M535.05,65.56 C595.73,71.55 745.68,88.1 868.61,116 C923.22,128.4 977.445,144.8912 1025.145,160.7112" fill="none" id="foo-to-bar5" style="stroke:#0000FF;stroke-width:16;"/><polygon fill="#0000FF" points="1030.84,162.6,1023.5567,155.9702,1026.0942,161.026,1021.0384,163.5635,1030.84,162.6" style="stroke:#0000FF;stroke-width:16;"/><text fill="#000000" font-family="sans-serif" font-size="13" lengthAdjust="spacing" textLength="94.7324" x="933.61" y="129.0669">[blue,plain,16]</text></g><?plantuml-src VP3H2e8m58RlVOe3tUg5IqE4kkWrmekffnoj6Tk2Ue2Wv-n9cfleH6qm63lVnpddrqnpXAEarHKrri2PG53wPJvlx1bKd2e5vxRjNoMLWRanv73QIAn3tR3gAb2fVLnq5J9KQggQ2K0iiBN0HIAAEP9O9B58oHyOrgtM4oApH3eITqwPyCVO5K5W1eOeEdJZmh-Jm_VpTlHy7UV7FkqWiwcdBEpfJE8fFKG6SpK0vowab0pkMZ9EJMnNdyccva9Ypan7qp6cyWC0?></g></svg>