<svg xmlns="http://www.w3.org/2000/svg" xmlns:xlink="http://www.w3.org/1999/xlink" contentStyleType="text/css" data-diagram-type="CLASS" height="394px" preserveAspectRatio="none" style="width:646px;height:394px;background:#FFFFFF;" version="1.1" viewBox="0 0 646 394" width="646px" zoomAndPan="magnify"><?plantuml 1.2026.3beta5?><defs/><g><!--class Object--><g class="entity" data-qualified-name="Object" data-source-line="1" id="ent0002"><rect fill="#F1F1F1" height="56.2656" rx="2.5" ry="2.5" style="stroke:#181818;stroke-width:0.5;" width="88.293" x="319.11" y="115"/><ellipse cx="334.11" cy="135.1328" fill="#ADD1B2" rx="11" ry="11" style="stroke:#181818;stroke-width:1;"/><path d="M337.0788,140.7734 Q336.5006,141.0703 335.86,141.2109 Q335.2194,141.3672 334.5163,141.3672 Q332.0163,141.3672 330.6881,139.7266 Q329.3756,138.0703 329.3756,134.9453 Q329.3756,131.8203 330.6881,130.1641 Q332.0163,128.5078 334.5163,128.5078 Q335.2194,128.5078 335.86,128.6641 Q336.5163,128.8203 337.0788,129.1172 L337.0788,131.8359 Q336.4538,131.2578 335.86,130.9922 Q335.2663,130.7109 334.6413,130.7109 Q333.2975,130.7109 332.61,131.7891 Q331.9225,132.8516 331.9225,134.9453 Q331.9225,137.0391 332.61,138.1172 Q333.2975,139.1797 334.6413,139.1797 Q335.2663,139.1797 335.86,138.9141 Q336.4538,138.6328 337.0788,138.0547 L337.0788,140.7734 Z " fill="#000000"/><text fill="#000000" font-family="sans-serif" font-size="12" font-style="italic" lengthAdjust="spacing" textLength="60.293" x="346.11" y="131.1387">&#171;general&#187;</text><text fill="#000000" font-family="sans-serif" font-size="14" lengthAdjust="spacing" textLength="45.5957" x="353.4586" y="146.9639">Object</text><line style="stroke:#181818;stroke-width:0.5;" x1="320.11" x2="406.403" y1="155.2656" y2="155.2656"/><line style="stroke:#181818;stroke-width:0.5;" x1="320.11" x2="406.403" y1="163.2656" y2="163.2656"/></g><!--class ArrayList--><g class="entity" data-qualified-name="ArrayList" data-source-line="2" id="ent0003"><rect fill="#F1F1F1" height="48" rx="2.5" ry="2.5" style="stroke:#181818;stroke-width:0.5;" width="94.4258" x="316.05" y="331.53"/><ellipse cx="331.05" cy="347.53" fill="#ADD1B2" rx="11" ry="11" style="stroke:#181818;stroke-width:1;"/><path d="M334.0188,353.1706 Q333.4406,353.4675 332.8,353.6081 Q332.1594,353.7644 331.4563,353.7644 Q328.9563,353.7644 327.6281,352.1238 Q326.3156,350.4675 326.3156,347.3425 Q326.3156,344.2175 327.6281,342.5613 Q328.9563,340.905 331.4563,340.905 Q332.1594,340.905 332.8,341.0613 Q333.4563,341.2175 334.0188,341.5144 L334.0188,344.2331 Q333.3938,343.655 332.8,343.3894 Q332.2063,343.1081 331.5813,343.1081 Q330.2375,343.1081 329.55,344.1863 Q328.8625,345.2488 328.8625,347.3425 Q328.8625,349.4363 329.55,350.5144 Q330.2375,351.5769 331.5813,351.5769 Q332.2063,351.5769 332.8,351.3113 Q333.3938,351.03 334.0188,350.4519 L334.0188,353.1706 Z " fill="#000000"/><text fill="#000000" font-family="sans-serif" font-size="14" lengthAdjust="spacing" textLength="62.4258" x="345.05" y="352.3767">ArrayList</text><line style="stroke:#181818;stroke-width:0.5;" x1="317.05" x2="409.4758" y1="363.53" y2="363.53"/><line style="stroke:#181818;stroke-width:0.5;" x1="317.05" x2="409.4758" y1="371.53" y2="371.53"/></g><g class="entity" data-qualified-name="GMN5" data-source-line="4" id="ent0006"><path d="M290.34,10.87 L290.34,51.1356 A0,0 0 0 0 290.34,51.1356 L359.26,51.1356 L363.26,114.63 L367.26,51.1356 L436.1794,51.1356 A0,0 0 0 0 436.1794,51.1356 L436.1794,20.87 L426.1794,10.87 L290.34,10.87 A0,0 0 0 0 290.34,10.87" fill="#FEFFDD" style="stroke:#181818;stroke-width:0.5;"/><path d="M426.1794,10.87 L426.1794,20.87 L436.1794,20.87 L426.1794,10.87" fill="#FEFFDD" style="stroke:#181818;stroke-width:0.5;"/><text fill="#000000" font-family="sans-serif" font-size="13" lengthAdjust="spacing" textLength="124.8394" x="296.34" y="27.9369">In java, every class</text><text fill="#000000" font-family="sans-serif" font-size="13" lengthAdjust="spacing" textLength="112.3599" x="296.34" y="43.0697">extends this one.</text></g><g class="entity" data-qualified-name="N1" data-source-line="6" id="ent0008"><path d="M470.74,18.43 L470.74,43.5628 L631.782,43.5628 L631.782,28.43 L621.782,18.43 L470.74,18.43" fill="#FEFFDD" style="stroke:#181818;stroke-width:0.5;"/><path d="M621.782,18.43 L621.782,28.43 L631.782,28.43 L621.782,18.43" fill="#FEFFDD" style="stroke:#181818;stroke-width:1;"/><text fill="#000000" font-family="sans-serif" font-size="13" lengthAdjust="spacing" textLength="140.042" x="476.74" y="35.4969">This is a floating note</text></g><g class="entity" data-qualified-name="N2" data-source-line="7" id="ent0009"><path d="M348.4,231.26 L348.4,271.5256 L516.107,271.5256 L516.107,241.26 L506.107,231.26 L348.4,231.26" fill="#FEFFDD" style="stroke:#181818;stroke-width:0.5;"/><path d="M506.107,231.26 L506.107,241.26 L516.107,241.26 L506.107,231.26" fill="#FEFFDD" style="stroke:#181818;stroke-width:1;"/><text fill="#000000" font-family="sans-serif" font-size="13" lengthAdjust="spacing" textLength="146.707" x="354.4" y="248.3269">This note is connected</text><text fill="#000000" font-family="sans-serif" font-size="13" lengthAdjust="spacing" textLength="119.666" x="354.4" y="263.4597">to several objects.</text></g><!--class Foo--><g class="entity" data-qualified-name="Foo" data-source-line="11" id="ent0012"><rect fill="#F1F1F1" height="48" rx="2.5" ry="2.5" style="stroke:#181818;stroke-width:0.5;" width="57.1836" x="197.67" y="7"/><ellipse cx="212.67" cy="23" fill="#ADD1B2" rx="11" ry="11" style="stroke:#181818;stroke-width:1;"/><path d="M215.6388,28.6406 Q215.0606,28.9375 214.42,29.0781 Q213.7794,29.2344 213.0763,29.2344 Q210.5763,29.2344 209.2481,27.5938 Q207.9356,25.9375 207.9356,22.8125 Q207.9356,19.6875 209.2481,18.0313 Q210.5763,16.375 213.0763,16.375 Q213.7794,16.375 214.42,16.5313 Q215.0763,16.6875 215.6388,16.9844 L215.6388,19.7031 Q215.0138,19.125 214.42,18.8594 Q213.8263,18.5781 213.2013,18.5781 Q211.8575,18.5781 211.17,19.6563 Q210.4825,20.7188 210.4825,22.8125 Q210.4825,24.9063 211.17,25.9844 Q211.8575,27.0469 213.2013,27.0469 Q213.8263,27.0469 214.42,26.7813 Q215.0138,26.5 215.6388,25.9219 L215.6388,28.6406 Z " fill="#000000"/><text fill="#000000" font-family="sans-serif" font-size="14" lengthAdjust="spacing" textLength="25.1836" x="226.67" y="27.8467">Foo</text><line style="stroke:#181818;stroke-width:0.5;" x1="198.67" x2="253.8536" y1="39" y2="39"/><line style="stroke:#181818;stroke-width:0.5;" x1="198.67" x2="253.8536" y1="47" y2="47"/></g><g class="entity" data-qualified-name="GMN13" data-source-line="12" id="ent0014"><path d="M6,18.43 L6,43.5628 A0,0 0 0 0 6,43.5628 L162.5161,43.5628 A0,0 0 0 0 162.5161,43.5628 L162.5161,36.43 L197.48,31 L162.5161,28.43 L162.5161,28.43 L152.5161,18.43 L6,18.43 A0,0 0 0 0 6,18.43" fill="#FEFFDD" style="stroke:#181818;stroke-width:0.5;"/><path d="M152.5161,18.43 L152.5161,28.43 L162.5161,28.43 L152.5161,18.43" fill="#FEFFDD" style="stroke:#181818;stroke-width:0.5;"/><text fill="#000000" font-family="sans-serif" font-size="13" lengthAdjust="spacing" textLength="135.5161" x="12" y="35.4969">On last defined class</text></g><!--reverse link Object to ArrayList--><g class="link" data-entity-1="ent0002" data-entity-2="ent0003" data-link-type="extension" data-source-line="2" id="lnk4"><path codeLine="2" d="M341.9541,188.2139 C330.6141,213.8739 324.79,236.78 331.26,271.53 C335.16,292.48 344.15,314.96 351.61,331.24" fill="none" id="Object-backto-ArrayList" style="stroke:#181818;stroke-width:1;"/><polygon fill="none" points="349.23,171.75,336.4661,185.7886,347.442,190.6392,349.23,171.75" style="stroke:#181818;stroke-width:1;"/></g><!--link Object to N2--><g class="link" data-entity-1="ent0002" data-entity-2="ent0009" data-link-type="association" data-source-line="8" id="lnk10"><path codeLine="8" d="M381.03,171.5 C393.09,190.07 408.74,214.18 419.56,230.84" fill="none" id="Object-N2" style="stroke:#181818;stroke-width:1;stroke-dasharray:7,7;"/></g><!--link N2 to ArrayList--><g class="link" data-entity-1="ent0009" data-entity-2="ent0003" data-link-type="association" data-source-line="9" id="lnk11"><path codeLine="9" d="M419.28,271.61 C407.88,288.48 391.26,313.08 379.09,331.1" fill="none" id="N2-ArrayList" style="stroke:#181818;stroke-width:1;stroke-dasharray:7,7;"/></g><?plantuml-src JOx12eD034JlViNWkGhrA2BqKYWKlVJePQlHAf8KDqY5VdntjO8GI7QIsNdrQAn5-HoeLcGPEcAQp8Wy3tRn6qKHBjDabdjlDGXObA3oXhIxCSMDCPZPd40pJGjg_st5z57Yna9VlOKmnNzt-F22AuDs5ACzT_2B4CQYE1-Frj7rMfXT53KLgy3w68SfQxwDDsEoCyUnVnI97mxaAnMk8bl0IAscA1bELZJKzapDXlu3?></g></svg>