<svg xmlns="http://www.w3.org/2000/svg" xmlns:xlink="http://www.w3.org/1999/xlink" contentStyleType="text/css" data-diagram-type="CLASS" height="230px" preserveAspectRatio="none" style="width:489px;height:230px;background:#FFFFFF;" version="1.1" viewBox="0 0 489 230" width="489px" zoomAndPan="magnify"><?plantuml 1.2026.3beta5?><defs/><g><!--class Dummy--><g class="entity" data-qualified-name="Dummy" data-source-line="1" id="ent0002"><rect fill="#F1F1F1" height="48" rx="2.5" ry="2.5" style="stroke:#181818;stroke-width:0.5;" width="87.2139" x="76.98" y="7"/><ellipse cx="91.98" cy="23" fill="#ADD1B2" rx="11" ry="11" style="stroke:#181818;stroke-width:1;"/><path d="M94.9488,28.6406 Q94.3706,28.9375 93.73,29.0781 Q93.0894,29.2344 92.3863,29.2344 Q89.8863,29.2344 88.5581,27.5938 Q87.2456,25.9375 87.2456,22.8125 Q87.2456,19.6875 88.5581,18.0313 Q89.8863,16.375 92.3863,16.375 Q93.0894,16.375 93.73,16.5313 Q94.3863,16.6875 94.9488,16.9844 L94.9488,19.7031 Q94.3238,19.125 93.73,18.8594 Q93.1363,18.5781 92.5113,18.5781 Q91.1675,18.5781 90.48,19.6563 Q89.7925,20.7188 89.7925,22.8125 Q89.7925,24.9063 90.48,25.9844 Q91.1675,27.0469 92.5113,27.0469 Q93.1363,27.0469 93.73,26.7813 Q94.3238,26.5 94.9488,25.9219 L94.9488,28.6406 Z " fill="#000000"/><text fill="#000000" font-family="sans-serif" font-size="14" lengthAdjust="spacing" textLength="55.2139" x="105.98" y="27.8467">Dummy</text><line style="stroke:#181818;stroke-width:0.5;" x1="77.98" x2="163.1939" y1="39" y2="39"/><line style="stroke:#181818;stroke-width:0.5;" x1="77.98" x2="163.1939" y1="47" y2="47"/></g><!--class Foo--><g class="entity" data-qualified-name="Foo" data-source-line="2" id="ent0003"><rect fill="#F1F1F1" height="48" rx="2.5" ry="2.5" style="stroke:#181818;stroke-width:0.5;" width="57.1836" x="7" y="167"/><ellipse cx="22" cy="183" fill="#ADD1B2" rx="11" ry="11" style="stroke:#181818;stroke-width:1;"/><path d="M24.9688,188.6406 Q24.3906,188.9375 23.75,189.0781 Q23.1094,189.2344 22.4063,189.2344 Q19.9063,189.2344 18.5781,187.5938 Q17.2656,185.9375 17.2656,182.8125 Q17.2656,179.6875 18.5781,178.0313 Q19.9063,176.375 22.4063,176.375 Q23.1094,176.375 23.75,176.5313 Q24.4063,176.6875 24.9688,176.9844 L24.9688,179.7031 Q24.3438,179.125 23.75,178.8594 Q23.1563,178.5781 22.5313,178.5781 Q21.1875,178.5781 20.5,179.6563 Q19.8125,180.7188 19.8125,182.8125 Q19.8125,184.9063 20.5,185.9844 Q21.1875,187.0469 22.5313,187.0469 Q23.1563,187.0469 23.75,186.7813 Q24.3438,186.5 24.9688,185.9219 L24.9688,188.6406 Z " fill="#000000"/><text fill="#000000" font-family="sans-serif" font-size="14" lengthAdjust="spacing" textLength="25.1836" x="36" y="187.8467">Foo</text><line style="stroke:#181818;stroke-width:0.5;" x1="8" x2="63.1836" y1="199" y2="199"/><line style="stroke:#181818;stroke-width:0.5;" x1="8" x2="63.1836" y1="207" y2="207"/></g><!--class Foo2--><g class="entity" data-qualified-name="Foo2" data-source-line="5" id="ent0005"><rect fill="#F1F1F1" height="48" rx="2.5" ry="2.5" style="stroke:#181818;stroke-width:0.5;" width="66.0908" x="173.55" y="167"/><ellipse cx="188.55" cy="183" fill="#ADD1B2" rx="11" ry="11" style="stroke:#181818;stroke-width:1;"/><path d="M191.5188,188.6406 Q190.9406,188.9375 190.3,189.0781 Q189.6594,189.2344 188.9563,189.2344 Q186.4563,189.2344 185.1281,187.5938 Q183.8156,185.9375 183.8156,182.8125 Q183.8156,179.6875 185.1281,178.0313 Q186.4563,176.375 188.9563,176.375 Q189.6594,176.375 190.3,176.5313 Q190.9563,176.6875 191.5188,176.9844 L191.5188,179.7031 Q190.8938,179.125 190.3,178.8594 Q189.7063,178.5781 189.0813,178.5781 Q187.7375,178.5781 187.05,179.6563 Q186.3625,180.7188 186.3625,182.8125 Q186.3625,184.9063 187.05,185.9844 Q187.7375,187.0469 189.0813,187.0469 Q189.7063,187.0469 190.3,186.7813 Q190.8938,186.5 191.5188,185.9219 L191.5188,188.6406 Z " fill="#000000"/><text fill="#000000" font-family="sans-serif" font-size="14" lengthAdjust="spacing" textLength="34.0908" x="202.55" y="187.8467">Foo2</text><line style="stroke:#181818;stroke-width:0.5;" x1="174.55" x2="238.6408" y1="199" y2="199"/><line style="stroke:#181818;stroke-width:0.5;" x1="174.55" x2="238.6408" y1="207" y2="207"/></g><!--link Dummy to Foo--><g class="link" data-entity-1="ent0002" data-entity-2="ent0003" data-link-type="dependency" data-source-line="2" id="lnk4"><path codeLine="2" d="M76.79,47.39 C59.85,55.73 42.24,67.92 32.59,85 C18.42,110.09 21.4523,138.3723 26.9523,160.8223" fill="none" id="Dummy-to-Foo" style="stroke:#181818;stroke-width:1;"/><polygon fill="#181818" points="28.38,166.65,30.1235,156.9567,27.1902,161.7936,22.3533,158.8603,28.38,166.65" style="stroke:#181818;stroke-width:1;"/><text fill="#000000" font-family="sans-serif" font-size="13" lengthAdjust="spacing" textLength="36.0166" x="80.1139" y="98.0669">A link</text><path d="M37.59,107.1328 L37.59,132.1328 L158.59,132.1328 L158.59,117.1328 L148.59,107.1328 L37.59,107.1328" fill="#FF0000" style="stroke:#181818;stroke-width:0.5;"/><path d="M148.59,107.1328 L148.59,117.1328 L158.59,117.1328 L148.59,107.1328" fill="#FF0000" style="stroke:#181818;stroke-width:0.5;"/><text fill="#000000" font-family="sans-serif" font-size="13" lengthAdjust="spacing" textLength="100.0645" x="43.59" y="124.1997">note that is red</text></g><!--link Dummy to Foo2--><g class="link" data-entity-1="ent0002" data-entity-2="ent0005" data-link-type="dependency" data-source-line="5" id="lnk6"><path codeLine="5" d="M144.63,55.31 C152.71,64.06 161.26,74.46 167.59,85 C183.3,111.18 192.7755,138.9669 199.0155,161.0069" fill="none" id="Dummy-to-Foo2" style="stroke:#181818;stroke-width:1;"/><polygon fill="#181818" points="200.65,166.78,202.047,157.0307,199.2879,161.9691,194.3496,159.21,200.65,166.78" style="stroke:#181818;stroke-width:1;"/><text fill="#000000" font-family="sans-serif" font-size="13" lengthAdjust="spacing" textLength="78.8887" x="190.59" y="115.6333">Another link</text><path d="M275.4787,91 L275.4787,131 L474.4787,131 L474.4787,101 L464.4787,91 L275.4787,91" fill="#0000FF" style="stroke:#181818;stroke-width:0.5;"/><path d="M464.4787,91 L464.4787,101 L474.4787,101 L464.4787,91" fill="#0000FF" style="stroke:#181818;stroke-width:0.5;"/><text fill="#000000" font-family="sans-serif" font-size="13" lengthAdjust="spacing" textLength="178.2739" x="281.4787" y="108.0669">this is my note on right link</text><text fill="#000000" font-family="sans-serif" font-size="13" lengthAdjust="spacing" textLength="72.6743" x="281.4787" y="123.1997">and in blue</text></g><?plantuml-src LOt12eCm38RlVOeVFFVYqOCm4D-Zcy4MQmfjFEpj5oDZ4q98mlVzUUNG6gPZtz_EEhmVCPU20G_an9lZ8eJ2jg2hj0omayGWI0rwSNUtFsLb8jM_Y9hMAB-WPpx8ITG0BNM_RoxCjC0B4iD8qlb4FW00?></g></svg>