<svg xmlns="http://www.w3.org/2000/svg" xmlns:xlink="http://www.w3.org/1999/xlink" contentStyleType="text/css" data-diagram-type="CLASS" height="102px" preserveAspectRatio="none" style="width:546px;height:102px;background:#FFFFFF;" version="1.1" viewBox="0 0 546 102" width="546px" zoomAndPan="magnify"><?plantuml 1.2026.3beta5?><defs/><g><!--class A--><g class="entity" data-qualified-name="A" data-source-line="1" id="ent0002"><rect fill="#F1F1F1" height="80.5938" rx="2.5" ry="2.5" style="stroke:#181818;stroke-width:0.5;" width="180.8682" x="7" y="7"/><ellipse cx="88.3955" cy="23" fill="#ADD1B2" rx="11" ry="11" style="stroke:#181818;stroke-width:1;"/><path d="M91.3643,28.6406 Q90.7861,28.9375 90.1455,29.0781 Q89.5049,29.2344 88.8018,29.2344 Q86.3018,29.2344 84.9736,27.5938 Q83.6611,25.9375 83.6611,22.8125 Q83.6611,19.6875 84.9736,18.0313 Q86.3018,16.375 88.8018,16.375 Q89.5049,16.375 90.1455,16.5313 Q90.8018,16.6875 91.3643,16.9844 L91.3643,19.7031 Q90.7393,19.125 90.1455,18.8594 Q89.5518,18.5781 88.9268,18.5781 Q87.583,18.5781 86.8955,19.6563 Q86.208,20.7188 86.208,22.8125 Q86.208,24.9063 86.8955,25.9844 Q87.583,27.0469 88.9268,27.0469 Q89.5518,27.0469 90.1455,26.7813 Q90.7393,26.5 91.3643,25.9219 L91.3643,28.6406 Z " fill="#000000"/><text fill="#000000" font-family="sans-serif" font-size="14" lengthAdjust="spacing" textLength="9.5771" x="108.8955" y="27.8467">A</text><line style="stroke:#181818;stroke-width:0.5;" x1="8" x2="186.8682" y1="39" y2="39"/><text fill="#000000" font-family="sans-serif" font-size="14" lengthAdjust="spacing" text-decoration="underline" textLength="76.5693" x="13" y="55.9951">int counter</text><line style="stroke:#181818;stroke-width:0.5;" x1="8" x2="186.8682" y1="63.2969" y2="63.2969"/><g data-visibility-modifier="PUBLIC_METHOD"><ellipse cx="18" cy="76.9453" fill="#84BE84" rx="3" ry="3" style="stroke:#038048;stroke-width:1;"/></g><text fill="#000000" font-family="sans-serif" font-size="14" font-style="italic" lengthAdjust="spacing" textLength="154.8682" x="27" y="80.292">void start(int timeout)</text></g><path d="M223.06,12.16 L223.06,20.7264 L89.5693,51.1484 L223.06,28.7264 L223.06,37.2928 A0,0 0 0 0 223.06,37.2928 L415.1357,37.2928 A0,0 0 0 0 415.1357,37.2928 L415.1357,22.16 L405.1357,12.16 L223.06,12.16 A0,0 0 0 0 223.06,12.16" fill="#FEFFDD" style="stroke:#181818;stroke-width:0.5;"/><path d="M405.1357,12.16 L405.1357,22.16 L415.1357,22.16 L405.1357,12.16" fill="#FEFFDD" style="stroke:#181818;stroke-width:0.5;"/><text fill="#000000" font-family="sans-serif" font-size="13" lengthAdjust="spacing" textLength="171.0757" x="229.06" y="29.2269">This member is annotated</text><path d="M223.06,47.2928 L223.06,55.8592 L181.8682,75.4453 L223.06,63.8592 L223.06,72.4256 A0,0 0 0 0 223.06,72.4256 L531.7993,72.4256 A0,0 0 0 0 531.7993,72.4256 L531.7993,57.2928 L521.7993,47.2928 L223.06,47.2928 A0,0 0 0 0 223.06,47.2928" fill="#FEFFDD" style="stroke:#181818;stroke-width:0.5;"/><path d="M521.7993,47.2928 L521.7993,57.2928 L531.7993,57.2928 L521.7993,47.2928" fill="#FEFFDD" style="stroke:#181818;stroke-width:0.5;"/><text fill="#000000" font-family="sans-serif" font-size="13" lengthAdjust="spacing" textLength="287.7393" x="229.06" y="64.3597">This method is now explained in a UML note</text><?plantuml-src POqn3i9030JxUyMM87wGBZrqy03dpX1BYOtk742AydSke8Y2RhMQsOq3bO8MSvYBaqjS8Eg8Dgbp3eU7IS9CNV5CqHTKAFjkHLn6jidtOGbgpiXownrsHTiqcmwSUoaOUUmueoRIof9p2gm9g_SlVov-glUMLbNj2NxT1nBbMYW8bzFnkx6DlG40?></g></svg>