<svg xmlns="http://www.w3.org/2000/svg" xmlns:xlink="http://www.w3.org/1999/xlink" contentStyleType="text/css" data-diagram-type="CLASS" height="321px" preserveAspectRatio="none" style="width:239px;height:321px;background:#FFFFFF;" version="1.1" viewBox="0 0 239 321" width="239px" zoomAndPan="magnify"><?plantuml 1.2026.3beta5?><defs/><g><!--cluster A--><g class="cluster" data-qualified-name="A" data-source-line="1" id="ent0003"><path d="M8.5,6 L20.335,6 A3.75,3.75 0 0 1 22.835,8.5 L29.835,28.2969 L221.5,28.2969 A2.5,2.5 0 0 1 224,30.7969 L224,303.5 A2.5,2.5 0 0 1 221.5,306 L8.5,306 A2.5,2.5 0 0 1 6,303.5 L6,8.5 A2.5,2.5 0 0 1 8.5,6" fill="none" style="stroke:#000000;stroke-width:1.5;"/><line style="stroke:#000000;stroke-width:1.5;" x1="6" x2="29.835" y1="28.2969" y2="28.2969"/><text fill="#000000" font-family="sans-serif" font-size="14" font-weight="700" lengthAdjust="spacing" textLength="10.835" x="10" y="20.9951">A</text></g><!--cluster B--><g class="cluster" data-qualified-name="A.B" data-source-line="1" id="ent0004"><path d="M32.5,49 L44.1709,49 A3.75,3.75 0 0 1 46.6709,51.5 L53.6709,71.2969 L197.5,71.2969 A2.5,2.5 0 0 1 200,73.7969 L200,279.5 A2.5,2.5 0 0 1 197.5,282 L32.5,282 A2.5,2.5 0 0 1 30,279.5 L30,51.5 A2.5,2.5 0 0 1 32.5,49" fill="none" style="stroke:#000000;stroke-width:1.5;"/><line style="stroke:#000000;stroke-width:1.5;" x1="30" x2="53.6709" y1="71.2969" y2="71.2969"/><text fill="#000000" font-family="sans-serif" font-size="14" font-weight="700" lengthAdjust="spacing" textLength="10.6709" x="34" y="63.9951">B</text></g><!--cluster C--><g class="cluster" data-qualified-name="A.B.C" data-source-line="1" id="ent0005"><path d="M56.5,92 L67.7744,92 A3.75,3.75 0 0 1 70.2744,94.5 L77.2744,114.2969 L173.5,114.2969 A2.5,2.5 0 0 1 176,116.7969 L176,255.5 A2.5,2.5 0 0 1 173.5,258 L56.5,258 A2.5,2.5 0 0 1 54,255.5 L54,94.5 A2.5,2.5 0 0 1 56.5,92" fill="none" style="stroke:#000000;stroke-width:1.5;"/><line style="stroke:#000000;stroke-width:1.5;" x1="54" x2="77.2744" y1="114.2969" y2="114.2969"/><text fill="#000000" font-family="sans-serif" font-size="14" font-weight="700" lengthAdjust="spacing" textLength="10.2744" x="58" y="106.9951">C</text></g><!--cluster D--><g class="cluster" data-qualified-name="A.B.C.D" data-source-line="1" id="ent0006"><path d="M80.5,135 L93.1211,135 A3.75,3.75 0 0 1 95.6211,137.5 L102.6211,157.2969 L149.5,157.2969 A2.5,2.5 0 0 1 152,159.7969 L152,231.5 A2.5,2.5 0 0 1 149.5,234 L80.5,234 A2.5,2.5 0 0 1 78,231.5 L78,137.5 A2.5,2.5 0 0 1 80.5,135" fill="none" style="stroke:#000000;stroke-width:1.5;"/><line style="stroke:#000000;stroke-width:1.5;" x1="78" x2="102.6211" y1="157.2969" y2="157.2969"/><text fill="#000000" font-family="sans-serif" font-size="14" font-weight="700" lengthAdjust="spacing" textLength="11.6211" x="82" y="149.9951">D</text></g><!--class Z--><g class="entity" data-qualified-name="A.B.C.D.Z" data-source-line="1" id="ent0002"><rect fill="#F1F1F1" height="48" rx="2.5" ry="2.5" style="stroke:#181818;stroke-width:0.5;" width="41.5908" x="94.2" y="170"/><ellipse cx="109.2" cy="186" fill="#ADD1B2" rx="11" ry="11" style="stroke:#181818;stroke-width:1;"/><path d="M112.1688,191.6406 Q111.5906,191.9375 110.95,192.0781 Q110.3094,192.2344 109.6063,192.2344 Q107.1063,192.2344 105.7781,190.5938 Q104.4656,188.9375 104.4656,185.8125 Q104.4656,182.6875 105.7781,181.0313 Q107.1063,179.375 109.6063,179.375 Q110.3094,179.375 110.95,179.5313 Q111.6063,179.6875 112.1688,179.9844 L112.1688,182.7031 Q111.5438,182.125 110.95,181.8594 Q110.3563,181.5781 109.7313,181.5781 Q108.3875,181.5781 107.7,182.6563 Q107.0125,183.7188 107.0125,185.8125 Q107.0125,187.9063 107.7,188.9844 Q108.3875,190.0469 109.7313,190.0469 Q110.3563,190.0469 110.95,189.7813 Q111.5438,189.5 112.1688,188.9219 L112.1688,191.6406 Z " fill="#000000"/><text fill="#000000" font-family="sans-serif" font-size="14" lengthAdjust="spacing" textLength="9.5908" x="123.2" y="190.8467">Z</text><line style="stroke:#181818;stroke-width:0.5;" x1="95.2" x2="134.7908" y1="202" y2="202"/><line style="stroke:#181818;stroke-width:0.5;" x1="95.2" x2="134.7908" y1="210" y2="210"/></g><?plantuml-src Iyv9B2vMSDHpqdFMSz6BKgZcgWK0?></g></svg>