<svg xmlns="http://www.w3.org/2000/svg" xmlns:xlink="http://www.w3.org/1999/xlink" contentStyleType="text/css" data-diagram-type="CLASS" height="132.4604px" preserveAspectRatio="none" style="width:750px;height:132px;background:#FFFFFF;" version="1.1" viewBox="0 0 750 132" width="750.9135px" zoomAndPan="magnify"><?plantuml 1.2026.3beta5?><defs/><g><!--cluster foo1--><g class="cluster" data-qualified-name="foo1" data-source-line="2" id="ent0002"><polygon fill="none" points="14.6163,23.7515,23.7515,14.6163,116.0171,14.6163,116.0171,100.4872,106.8819,109.6224,14.6163,109.6224,14.6163,23.7515" style="stroke:#181818;stroke-width:0.9135;"/><line style="stroke:#181818;stroke-width:0.9135;" x1="106.8819" x2="116.0171" y1="23.7515" y2="14.6163"/><line style="stroke:#181818;stroke-width:0.9135;" x1="14.6163" x2="106.8819" y1="23.7515" y2="23.7515"/><line style="stroke:#181818;stroke-width:0.9135;" x1="106.8819" x2="106.8819" y1="23.7515" y2="109.6224"/><text fill="#000000" font-family="sans-serif" font-size="12.7893" font-weight="700" lengthAdjust="spacing" textLength="32.0357" x="45.6448" y="38.3634">foo1</text></g><!--cluster foo2--><g class="cluster" data-qualified-name="foo2" data-source-line="6" id="ent0004"><rect fill="none" height="90.4385" rx="2.2838" ry="2.2838" style="stroke:#181818;stroke-width:0.9135;" width="100.4872" x="137.9415" y="19.1839"/><text fill="#000000" font-family="sans-serif" font-size="12.7893" font-weight="700" lengthAdjust="spacing" textLength="32.0357" x="172.1673" y="32.8823">foo2</text></g><!--cluster foo3--><g class="cluster" data-qualified-name="foo3" data-source-line="10" id="ent0006"><path d="M262.637,19.1839 L295.5862,19.1839 A3.4257,3.4257 0 0 1 297.87,21.4677 L304.2646,39.5526 L358.5566,39.5526 A2.2838,2.2838 0 0 1 360.8404,41.8364 L360.8404,107.3386 A2.2838,2.2838 0 0 1 358.5566,109.6224 L262.637,109.6224 A2.2838,2.2838 0 0 1 260.3532,107.3386 L260.3532,21.4677 A2.2838,2.2838 0 0 1 262.637,19.1839" fill="none" style="stroke:#000000;stroke-width:1.3703;"/><line style="stroke:#000000;stroke-width:1.3703;" x1="260.3532" x2="304.2646" y1="39.5526" y2="39.5526"/><text fill="#000000" font-family="sans-serif" font-size="12.7893" font-weight="700" lengthAdjust="spacing" textLength="32.0357" x="264.0073" y="32.8823">foo3</text></g><!--cluster foo4--><g class="cluster" data-qualified-name="foo4" data-source-line="14" id="ent0008"><rect fill="none" height="90.4385" rx="2.2838" ry="2.2838" style="stroke:#181818;stroke-width:0.9135;" width="100.4872" x="382.7649" y="19.1839"/><path d="M423.9358,19.1839 L423.9358,27.6768 L414.8006,36.812 L382.7649,36.812" fill="none" style="stroke:#181818;stroke-width:0.9135;"/><text fill="#000000" font-family="sans-serif" font-size="12.7893" font-weight="700" lengthAdjust="spacing" textLength="32.0357" x="385.5055" y="31.9687">foo4</text></g><!--cluster foo5--><g class="cluster" data-qualified-name="foo5" data-source-line="18" id="ent0010"><path d="M513.4731,26.9718 C516.8008,21.5075 520.6498,22.4572 524.0158,26.9312 C527.0273,20.1137 530.761,20.3133 535.5058,25.2346 C537.9909,19.7859 541.4757,19.2726 545.7158,23.3544 C548.146,17.7782 552.8745,16.9749 556.4324,22.2396 C561.4494,17.1272 565.0615,17.6706 567.7411,24.4604 C571.8955,20.6967 575.5442,21.0523 578.3965,26.0449 C582.7308,20.429 586.0371,20.7982 589.3469,26.9947 C592.9257,22.7691 597.4875,22.7088 599.7535,28.3757 C605.6019,31.3152 607.8424,36.0712 601.7529,40.9143 C608.3103,43.4799 608.9112,46.9532 604.3349,52.0908 C611.9491,54.7398 613.5586,60.3382 607.8042,66.2604 C611.7378,70.1781 611.0894,75.2626 605.6264,77.3322 C610.8059,82.5576 610.7515,89.3 602.3952,91.4211 C607.505,96.4131 605.7577,102.6314 598.7474,104.1501 C595.2347,109.4713 592.0824,108.4431 588.5709,104.1488 C586.3331,109.3299 582.1357,110.6201 578.3508,105.7165 C575.7077,110.9333 571.1576,111.7767 567.1574,107.2805 C565.7181,113.0506 561.0172,114.2412 556.9137,110.009 C552.4889,114.6563 547.0894,113.4042 544.9042,107.4677 C541.5764,111.2818 538.1385,111.4837 535.2402,106.9692 C530.0478,111.9373 526.3099,111.1247 523.5079,104.5414 C519.3374,108.9681 516.0058,107.7374 514.1251,102.3518 C507.9113,99.0876 505.8187,95.1513 511.9861,89.7803 C507.1837,87.0265 506.7148,81.4902 511.4357,78.2806 C504.2021,74.3547 505.047,70.0567 510.0165,64.8421 C504.325,59.8479 503.7093,55.7428 511.0509,51.7808 C505.3337,48.3601 506.4445,43.1175 511.9667,40.619 C505.0632,35.5833 507.2795,30.5618 513.4731,26.9718" fill="none" style="stroke:#181818;stroke-width:0.9135;"/><text fill="#000000" font-family="sans-serif" font-size="12.7893" font-weight="700" lengthAdjust="spacing" textLength="32.0357" x="539.4024" y="42.931">foo5</text></g><!--cluster foo6--><g class="cluster" data-qualified-name="foo6" data-source-line="22" id="ent0012"><path d="M627.5883,14.6163 C627.5883,5.4811 677.8319,5.4811 677.8319,5.4811 C677.8319,5.4811 728.0755,5.4811 728.0755,14.6163 L728.0755,100.4872 C728.0755,109.6224 677.8319,109.6224 677.8319,109.6224 C677.8319,109.6224 627.5883,109.6224 627.5883,100.4872 L627.5883,14.6163" fill="none" style="stroke:#181818;stroke-width:0.9135;"/><path d="M627.5883,14.6163 C627.5883,23.7515 677.8319,23.7515 677.8319,23.7515 C677.8319,23.7515 728.0755,23.7515 728.0755,14.6163" fill="none" style="stroke:#181818;stroke-width:0.9135;"/><text fill="#000000" font-family="sans-serif" font-size="12.7893" font-weight="700" lengthAdjust="spacing" textLength="32.0357" x="661.8141" y="37.4499">foo6</text></g><!--class Class1--><g class="entity" data-qualified-name="foo1.Class1" data-source-line="3" id="ent0003"><rect fill="#F1F1F1" height="43.849" rx="2.2838" ry="2.2838" style="stroke:#181818;stroke-width:0.4568;" width="71.0164" x="29.3514" y="51.1571"/><ellipse cx="43.0542" cy="65.7734" fill="#ADD1B2" rx="10.0487" ry="10.0487" style="stroke:#181818;stroke-width:0.9135;"/><path d="M45.7662,70.9263 Q45.2381,71.1975 44.6529,71.3259 Q44.0676,71.4687 43.4253,71.4687 Q41.1415,71.4687 39.9283,69.9699 Q38.7293,68.4569 38.7293,65.6022 Q38.7293,62.7474 39.9283,61.2344 Q41.1415,59.7214 43.4253,59.7214 Q44.0676,59.7214 44.6529,59.8641 Q45.2524,60.0069 45.7662,60.2781 L45.7662,62.7617 Q45.1953,62.2336 44.6529,61.9909 Q44.1105,61.734 43.5395,61.734 Q42.312,61.734 41.6839,62.7189 Q41.0559,63.6895 41.0559,65.6022 Q41.0559,67.5148 41.6839,68.4997 Q42.312,69.4703 43.5395,69.4703 Q44.1105,69.4703 44.6529,69.2277 Q45.1953,68.9708 45.7662,68.4426 L45.7662,70.9263 Z " fill="#000000"/><text fill="#000000" font-family="sans-serif" font-size="12.7893" lengthAdjust="spacing" textLength="41.7837" x="55.8435" y="70.201">Class1</text><line style="stroke:#181818;stroke-width:0.4568;" x1="30.2649" x2="99.4543" y1="80.3898" y2="80.3898"/><line style="stroke:#181818;stroke-width:0.4568;" x1="30.2649" x2="99.4543" y1="87.6979" y2="87.6979"/></g><!--class Class2--><g class="entity" data-qualified-name="foo2.Class2" data-source-line="7" id="ent0005"><rect fill="#F1F1F1" height="43.849" rx="2.2838" ry="2.2838" style="stroke:#181818;stroke-width:0.4568;" width="71.0164" x="152.6766" y="51.1571"/><ellipse cx="166.3794" cy="65.7734" fill="#ADD1B2" rx="10.0487" ry="10.0487" style="stroke:#181818;stroke-width:0.9135;"/><path d="M169.0914,70.9263 Q168.5633,71.1975 167.9781,71.3259 Q167.3929,71.4687 166.7505,71.4687 Q164.4667,71.4687 163.2535,69.9699 Q162.0545,68.4569 162.0545,65.6022 Q162.0545,62.7474 163.2535,61.2344 Q164.4667,59.7214 166.7505,59.7214 Q167.3929,59.7214 167.9781,59.8641 Q168.5776,60.0069 169.0914,60.2781 L169.0914,62.7617 Q168.5205,62.2336 167.9781,61.9909 Q167.4357,61.734 166.8647,61.734 Q165.6372,61.734 165.0091,62.7189 Q164.3811,63.6895 164.3811,65.6022 Q164.3811,67.5148 165.0091,68.4997 Q165.6372,69.4703 166.8647,69.4703 Q167.4357,69.4703 167.9781,69.2277 Q168.5205,68.9708 169.0914,68.4426 L169.0914,70.9263 Z " fill="#000000"/><text fill="#000000" font-family="sans-serif" font-size="12.7893" lengthAdjust="spacing" textLength="41.7837" x="179.1687" y="70.201">Class2</text><line style="stroke:#181818;stroke-width:0.4568;" x1="153.5901" x2="222.7795" y1="80.3898" y2="80.3898"/><line style="stroke:#181818;stroke-width:0.4568;" x1="153.5901" x2="222.7795" y1="87.6979" y2="87.6979"/></g><!--class Class3--><g class="entity" data-qualified-name="foo3.Class3" data-source-line="11" id="ent0007"><rect fill="#F1F1F1" height="43.849" rx="2.2838" ry="2.2838" style="stroke:#181818;stroke-width:0.4568;" width="71.0164" x="275.0883" y="51.1571"/><ellipse cx="288.7911" cy="65.7734" fill="#ADD1B2" rx="10.0487" ry="10.0487" style="stroke:#181818;stroke-width:0.9135;"/><path d="M291.5031,70.9263 Q290.975,71.1975 290.3898,71.3259 Q289.8045,71.4687 289.1622,71.4687 Q286.8784,71.4687 285.6652,69.9699 Q284.4662,68.4569 284.4662,65.6022 Q284.4662,62.7474 285.6652,61.2344 Q286.8784,59.7214 289.1622,59.7214 Q289.8045,59.7214 290.3898,59.8641 Q290.9893,60.0069 291.5031,60.2781 L291.5031,62.7617 Q290.9322,62.2336 290.3898,61.9909 Q289.8474,61.734 289.2764,61.734 Q288.0489,61.734 287.4208,62.7189 Q286.7928,63.6895 286.7928,65.6022 Q286.7928,67.5148 287.4208,68.4997 Q288.0489,69.4703 289.2764,69.4703 Q289.8474,69.4703 290.3898,69.2277 Q290.9322,68.9708 291.5031,68.4426 L291.5031,70.9263 Z " fill="#000000"/><text fill="#000000" font-family="sans-serif" font-size="12.7893" lengthAdjust="spacing" textLength="41.7837" x="301.5804" y="70.201">Class3</text><line style="stroke:#181818;stroke-width:0.4568;" x1="276.0018" x2="345.1912" y1="80.3898" y2="80.3898"/><line style="stroke:#181818;stroke-width:0.4568;" x1="276.0018" x2="345.1912" y1="87.6979" y2="87.6979"/></g><!--class Class4--><g class="entity" data-qualified-name="foo4.Class4" data-source-line="15" id="ent0009"><rect fill="#F1F1F1" height="43.849" rx="2.2838" ry="2.2838" style="stroke:#181818;stroke-width:0.4568;" width="71.0164" x="397.5" y="51.1571"/><ellipse cx="411.2028" cy="65.7734" fill="#ADD1B2" rx="10.0487" ry="10.0487" style="stroke:#181818;stroke-width:0.9135;"/><path d="M413.9148,70.9263 Q413.3867,71.1975 412.8015,71.3259 Q412.2162,71.4687 411.5739,71.4687 Q409.2901,71.4687 408.0768,69.9699 Q406.8779,68.4569 406.8779,65.6022 Q406.8779,62.7474 408.0768,61.2344 Q409.2901,59.7214 411.5739,59.7214 Q412.2162,59.7214 412.8015,59.8641 Q413.401,60.0069 413.9148,60.2781 L413.9148,62.7617 Q413.3439,62.2336 412.8015,61.9909 Q412.2591,61.734 411.6881,61.734 Q410.4606,61.734 409.8325,62.7189 Q409.2045,63.6895 409.2045,65.6022 Q409.2045,67.5148 409.8325,68.4997 Q410.4606,69.4703 411.6881,69.4703 Q412.2591,69.4703 412.8015,69.2277 Q413.3439,68.9708 413.9148,68.4426 L413.9148,70.9263 Z " fill="#000000"/><text fill="#000000" font-family="sans-serif" font-size="12.7893" lengthAdjust="spacing" textLength="41.7837" x="423.9921" y="70.201">Class4</text><line style="stroke:#181818;stroke-width:0.4568;" x1="398.4135" x2="467.6029" y1="80.3898" y2="80.3898"/><line style="stroke:#181818;stroke-width:0.4568;" x1="398.4135" x2="467.6029" y1="87.6979" y2="87.6979"/></g><!--class Class5--><g class="entity" data-qualified-name="foo5.Class5" data-source-line="19" id="ent0011"><rect fill="#F1F1F1" height="43.849" rx="2.2838" ry="2.2838" style="stroke:#181818;stroke-width:0.4568;" width="71.0164" x="519.9117" y="51.1571"/><ellipse cx="533.6145" cy="65.7734" fill="#ADD1B2" rx="10.0487" ry="10.0487" style="stroke:#181818;stroke-width:0.9135;"/><path d="M536.3265,70.9263 Q535.7984,71.1975 535.2132,71.3259 Q534.6279,71.4687 533.9856,71.4687 Q531.7018,71.4687 530.4885,69.9699 Q529.2895,68.4569 529.2895,65.6022 Q529.2895,62.7474 530.4885,61.2344 Q531.7018,59.7214 533.9856,59.7214 Q534.6279,59.7214 535.2132,59.8641 Q535.8127,60.0069 536.3265,60.2781 L536.3265,62.7617 Q535.7556,62.2336 535.2132,61.9909 Q534.6708,61.734 534.0998,61.734 Q532.8723,61.734 532.2442,62.7189 Q531.6162,63.6895 531.6162,65.6022 Q531.6162,67.5148 532.2442,68.4997 Q532.8723,69.4703 534.0998,69.4703 Q534.6708,69.4703 535.2132,69.2277 Q535.7556,68.9708 536.3265,68.4426 L536.3265,70.9263 Z " fill="#000000"/><text fill="#000000" font-family="sans-serif" font-size="12.7893" lengthAdjust="spacing" textLength="41.7837" x="546.4038" y="70.201">Class5</text><line style="stroke:#181818;stroke-width:0.4568;" x1="520.8252" x2="590.0145" y1="80.3898" y2="80.3898"/><line style="stroke:#181818;stroke-width:0.4568;" x1="520.8252" x2="590.0145" y1="87.6979" y2="87.6979"/></g><!--class Class6--><g class="entity" data-qualified-name="foo6.Class6" data-source-line="23" id="ent0013"><rect fill="#F1F1F1" height="43.849" rx="2.2838" ry="2.2838" style="stroke:#181818;stroke-width:0.4568;" width="71.0164" x="642.3234" y="51.1571"/><ellipse cx="656.0262" cy="65.7734" fill="#ADD1B2" rx="10.0487" ry="10.0487" style="stroke:#181818;stroke-width:0.9135;"/><path d="M658.7382,70.9263 Q658.2101,71.1975 657.6248,71.3259 Q657.0396,71.4687 656.3973,71.4687 Q654.1135,71.4687 652.9002,69.9699 Q651.7012,68.4569 651.7012,65.6022 Q651.7012,62.7474 652.9002,61.2344 Q654.1135,59.7214 656.3973,59.7214 Q657.0396,59.7214 657.6248,59.8641 Q658.2243,60.0069 658.7382,60.2781 L658.7382,62.7617 Q658.1673,62.2336 657.6248,61.9909 Q657.0824,61.734 656.5115,61.734 Q655.284,61.734 654.6559,62.7189 Q654.0279,63.6895 654.0279,65.6022 Q654.0279,67.5148 654.6559,68.4997 Q655.284,69.4703 656.5115,69.4703 Q657.0824,69.4703 657.6248,69.2277 Q658.1673,68.9708 658.7382,68.4426 L658.7382,70.9263 Z " fill="#000000"/><text fill="#000000" font-family="sans-serif" font-size="12.7893" lengthAdjust="spacing" textLength="41.7837" x="668.8155" y="70.201">Class6</text><line style="stroke:#181818;stroke-width:0.4568;" x1="643.2369" x2="712.4262" y1="80.3898" y2="80.3898"/><line style="stroke:#181818;stroke-width:0.4568;" x1="643.2369" x2="712.4262" y1="87.6979" y2="87.6979"/></g><?plantuml-src RSmz3i8m343XtQVm4UXFob9rAM9au0OcCGLXSDMawe1wTz8DfLdUzEbvIy9uD0TSdYuyO2Jxee7nhbfWsrxKSTVX5n2jaFVORorWXNzPHdbb6-WpI8QN2QyYFwiudlQsIcozsOdUcMsTK1DfBpgxFJK9RI8zKQ0R-SouWVK7?></g></svg>