<svg xmlns="http://www.w3.org/2000/svg" xmlns:xlink="http://www.w3.org/1999/xlink" contentStyleType="text/css" data-diagram-type="CLASS" height="326px" preserveAspectRatio="none" style="width:310px;height:326px;background:#FFFFFF;" version="1.1" viewBox="0 0 310 326" width="310px" zoomAndPan="magnify"><?plantuml 1.2026.3beta5?><defs/><g><!--cluster foo1--><g class="cluster" data-qualified-name="foo1" data-source-line="7" id="ent0005"><rect fill="none" height="305.72" rx="2.5" ry="2.5" style="stroke:#000000;stroke-width:1.5;" width="289" x="7" y="7"/><text fill="#000000" font-family="sans-serif" font-size="14" font-weight="700" lengthAdjust="spacing" textLength="35.0684" x="133.9658" y="21.9951">foo1</text></g><!--cluster foo2--><g class="cluster" data-qualified-name="foo1.foo2" data-source-line="3" id="ent0002"><rect fill="none" height="222.72" rx="2.5" ry="2.5" style="stroke:#000000;stroke-width:1.5;" width="225" x="39" y="58"/><text fill="#000000" font-family="sans-serif" font-size="14" font-weight="700" lengthAdjust="spacing" textLength="35.0684" x="133.9658" y="72.9951">foo2</text></g><!--cluster foo3--><g class="cluster" data-qualified-name="foo1.foo2.foo3" data-source-line="6" id="ent0003"><rect fill="none" height="115" rx="2.5" ry="2.5" style="stroke:#000000;stroke-width:1.5;" width="145" x="79" y="125.72"/><text fill="#000000" font-family="sans-serif" font-size="14" font-weight="700" lengthAdjust="spacing" textLength="35.0684" x="133.9658" y="140.7151">foo3</text></g><!--class Object--><g class="entity" data-qualified-name="foo1.foo2.foo3.Object" data-source-line="7" id="ent0004"><rect fill="#F1F1F1" height="48" rx="2.5" ry="2.5" style="stroke:#181818;stroke-width:0.5;" width="77.5957" x="103.2" y="168.72"/><ellipse cx="118.2" cy="184.72" fill="#ADD1B2" rx="11" ry="11" style="stroke:#181818;stroke-width:1;"/><path d="M121.1688,190.3606 Q120.5906,190.6575 119.95,190.7981 Q119.3094,190.9544 118.6063,190.9544 Q116.1063,190.9544 114.7781,189.3138 Q113.4656,187.6575 113.4656,184.5325 Q113.4656,181.4075 114.7781,179.7513 Q116.1063,178.095 118.6063,178.095 Q119.3094,178.095 119.95,178.2513 Q120.6063,178.4075 121.1688,178.7044 L121.1688,181.4231 Q120.5438,180.845 119.95,180.5794 Q119.3563,180.2981 118.7313,180.2981 Q117.3875,180.2981 116.7,181.3763 Q116.0125,182.4388 116.0125,184.5325 Q116.0125,186.6263 116.7,187.7044 Q117.3875,188.7669 118.7313,188.7669 Q119.3563,188.7669 119.95,188.5013 Q120.5438,188.22 121.1688,187.6419 L121.1688,190.3606 Z " fill="#000000"/><text fill="#000000" font-family="sans-serif" font-size="14" lengthAdjust="spacing" textLength="45.5957" x="132.2" y="189.5667">Object</text><line style="stroke:#181818;stroke-width:0.5;" x1="104.2" x2="179.7957" y1="200.72" y2="200.72"/><line style="stroke:#181818;stroke-width:0.5;" x1="104.2" x2="179.7957" y1="208.72" y2="208.72"/></g><!--reverse link foo2 to foo3--><g class="link" data-entity-1="ent0002" data-entity-2="ent0003" data-link-type="nested" data-source-line="10" id="lnk6"><path codeLine="10" d="M216,102.02 C216,103.55 216,94.7281 216,104.6819 C216,109.6588 216,115.3295 216,121.3352 C216,122.0859 216,122.8418 216,123.6023 C216,123.9825 216,124.3639 216,124.7463 C216,124.9375 216,125.1289 216,125.3207" fill="none" id="foo2-backto-foo3" style="stroke:#181818;stroke-width:1;"/><ellipse cx="216" cy="94.02" fill="#FFFFFF" rx="8" ry="8" style="stroke:#181818;stroke-width:1;"/><line style="stroke:#181818;stroke-width:1;" x1="216" x2="216" y1="102.02" y2="86.02"/><line style="stroke:#181818;stroke-width:1;" x1="208" x2="224" y1="94.02" y2="94.02"/></g><?plantuml-src AyxEp2j8B4hCLIX8JCvEJ4yDBgdCILKeIaqkISnBpqdbueAAAwJbvnlg0GaZXMgkMYp28C8OAAUWa9oJM5oiu9-K1JG4f1IXKrjN5qq30000?></g></svg>