<svg xmlns="http://www.w3.org/2000/svg" xmlns:xlink="http://www.w3.org/1999/xlink" contentStyleType="text/css" data-diagram-type="CLASS" height="286px" preserveAspectRatio="none" style="width:486px;height:286px;background:#FFFFFF;" version="1.1" viewBox="0 0 486 286" width="486px" zoomAndPan="magnify"><?plantuml 1.2026.3beta5?><defs/><g><!--cluster Classic Collections--><g class="cluster" data-qualified-name="Classic Collections" data-source-line="1" id="ent0002"><path d="M8.5,6 L155.3516,6 A3.75,3.75 0 0 1 157.8516,8.5 L164.8516,28.2969 L164.5,28.2969 A2.5,2.5 0 0 1 167,30.7969 L167,244.5 A2.5,2.5 0 0 1 164.5,247 L8.5,247 A2.5,2.5 0 0 1 6,244.5 L6,8.5 A2.5,2.5 0 0 1 8.5,6" fill="#DDDDDD" style="stroke:#000000;stroke-width:1.5;"/><line style="stroke:#000000;stroke-width:1.5;" x1="6" x2="164.8516" y1="28.2969" y2="28.2969"/><text fill="#000000" font-family="sans-serif" font-size="14" font-weight="700" lengthAdjust="spacing" textLength="145.8516" x="10" y="20.9951">Classic Collections</text></g><!--cluster com--><g class="cluster" data-qualified-name="com" data-source-line="6" id="ent0008"><path d="M193.5,105 L227.0049,105 A3.75,3.75 0 0 1 229.5049,107.5 L236.5049,127.2969 L468.5,127.2969 A2.5,2.5 0 0 1 471,129.7969 L471,268.5 A2.5,2.5 0 0 1 468.5,271 L193.5,271 A2.5,2.5 0 0 1 191,268.5 L191,107.5 A2.5,2.5 0 0 1 193.5,105" fill="none" style="stroke:#000000;stroke-width:1.5;"/><line style="stroke:#000000;stroke-width:1.5;" x1="191" x2="236.5049" y1="127.2969" y2="127.2969"/><text fill="#000000" font-family="sans-serif" font-size="14" font-weight="700" lengthAdjust="spacing" textLength="32.5049" x="195" y="119.9951">com</text></g><!--cluster plantuml--><g class="cluster" data-qualified-name="com.plantuml" data-source-line="5" id="ent0006"><path d="M217.5,148 L288.7803,148 A3.75,3.75 0 0 1 291.2803,150.5 L298.2803,170.2969 L444.5,170.2969 A2.5,2.5 0 0 1 447,172.7969 L447,244.5 A2.5,2.5 0 0 1 444.5,247 L217.5,247 A2.5,2.5 0 0 1 215,244.5 L215,150.5 A2.5,2.5 0 0 1 217.5,148" fill="none" style="stroke:#000000;stroke-width:1.5;"/><line style="stroke:#000000;stroke-width:1.5;" x1="215" x2="298.2803" y1="170.2969" y2="170.2969"/><text fill="#000000" font-family="sans-serif" font-size="14" font-weight="700" lengthAdjust="spacing" textLength="70.2803" x="219" y="162.9951">plantuml</text></g><!--class Object--><g class="entity" data-qualified-name="Classic Collections.Object" data-source-line="2" id="ent0003"><rect fill="#F1F1F1" height="48" rx="2.5" ry="2.5" style="stroke:#181818;stroke-width:0.5;" width="77.5957" x="69.2" y="41"/><ellipse cx="84.2" cy="57" fill="#ADD1B2" rx="11" ry="11" style="stroke:#181818;stroke-width:1;"/><path d="M87.1688,62.6406 Q86.5906,62.9375 85.95,63.0781 Q85.3094,63.2344 84.6063,63.2344 Q82.1063,63.2344 80.7781,61.5938 Q79.4656,59.9375 79.4656,56.8125 Q79.4656,53.6875 80.7781,52.0313 Q82.1063,50.375 84.6063,50.375 Q85.3094,50.375 85.95,50.5313 Q86.6063,50.6875 87.1688,50.9844 L87.1688,53.7031 Q86.5438,53.125 85.95,52.8594 Q85.3563,52.5781 84.7313,52.5781 Q83.3875,52.5781 82.7,53.6563 Q82.0125,54.7188 82.0125,56.8125 Q82.0125,58.9063 82.7,59.9844 Q83.3875,61.0469 84.7313,61.0469 Q85.3563,61.0469 85.95,60.7813 Q86.5438,60.5 87.1688,59.9219 L87.1688,62.6406 Z " fill="#000000"/><text fill="#000000" font-family="sans-serif" font-size="14" lengthAdjust="spacing" textLength="45.5957" x="98.2" y="61.8467">Object</text><line style="stroke:#181818;stroke-width:0.5;" x1="70.2" x2="145.7957" y1="73" y2="73"/><line style="stroke:#181818;stroke-width:0.5;" x1="70.2" x2="145.7957" y1="81" y2="81"/></g><!--class ArrayList--><g class="entity" data-qualified-name="Classic Collections.ArrayList" data-source-line="2" id="ent0004"><rect fill="#F1F1F1" height="48" rx="2.5" ry="2.5" style="stroke:#181818;stroke-width:0.5;" width="94.4258" x="56.79" y="183"/><ellipse cx="71.79" cy="199" fill="#ADD1B2" rx="11" ry="11" style="stroke:#181818;stroke-width:1;"/><path d="M74.7588,204.6406 Q74.1806,204.9375 73.54,205.0781 Q72.8994,205.2344 72.1963,205.2344 Q69.6963,205.2344 68.3681,203.5938 Q67.0556,201.9375 67.0556,198.8125 Q67.0556,195.6875 68.3681,194.0313 Q69.6963,192.375 72.1963,192.375 Q72.8994,192.375 73.54,192.5313 Q74.1963,192.6875 74.7588,192.9844 L74.7588,195.7031 Q74.1338,195.125 73.54,194.8594 Q72.9463,194.5781 72.3213,194.5781 Q70.9775,194.5781 70.29,195.6563 Q69.6025,196.7188 69.6025,198.8125 Q69.6025,200.9063 70.29,201.9844 Q70.9775,203.0469 72.3213,203.0469 Q72.9463,203.0469 73.54,202.7813 Q74.1338,202.5 74.7588,201.9219 L74.7588,204.6406 Z " fill="#000000"/><text fill="#000000" font-family="sans-serif" font-size="14" lengthAdjust="spacing" textLength="62.4258" x="85.79" y="203.8467">ArrayList</text><line style="stroke:#181818;stroke-width:0.5;" x1="57.79" x2="150.2158" y1="215" y2="215"/><line style="stroke:#181818;stroke-width:0.5;" x1="57.79" x2="150.2158" y1="223" y2="223"/></g><!--class Demo1--><g class="entity" data-qualified-name="com.plantuml.Demo1" data-source-line="6" id="ent0007"><rect fill="#F1F1F1" height="48" rx="2.5" ry="2.5" style="stroke:#181818;stroke-width:0.5;" width="82.5039" x="230.75" y="183"/><ellipse cx="245.75" cy="199" fill="#ADD1B2" rx="11" ry="11" style="stroke:#181818;stroke-width:1;"/><path d="M248.7188,204.6406 Q248.1406,204.9375 247.5,205.0781 Q246.8594,205.2344 246.1563,205.2344 Q243.6563,205.2344 242.3281,203.5938 Q241.0156,201.9375 241.0156,198.8125 Q241.0156,195.6875 242.3281,194.0313 Q243.6563,192.375 246.1563,192.375 Q246.8594,192.375 247.5,192.5313 Q248.1563,192.6875 248.7188,192.9844 L248.7188,195.7031 Q248.0938,195.125 247.5,194.8594 Q246.9063,194.5781 246.2813,194.5781 Q244.9375,194.5781 244.25,195.6563 Q243.5625,196.7188 243.5625,198.8125 Q243.5625,200.9063 244.25,201.9844 Q244.9375,203.0469 246.2813,203.0469 Q246.9063,203.0469 247.5,202.7813 Q248.0938,202.5 248.7188,201.9219 L248.7188,204.6406 Z " fill="#000000"/><text fill="#000000" font-family="sans-serif" font-size="14" lengthAdjust="spacing" textLength="50.5039" x="259.75" y="203.8467">Demo1</text><line style="stroke:#181818;stroke-width:0.5;" x1="231.75" x2="312.2539" y1="215" y2="215"/><line style="stroke:#181818;stroke-width:0.5;" x1="231.75" x2="312.2539" y1="223" y2="223"/></g><!--class Demo2--><g class="entity" data-qualified-name="com.plantuml.Demo2" data-source-line="7" id="ent0010"><rect fill="#F1F1F1" height="48" rx="2.5" ry="2.5" style="stroke:#181818;stroke-width:0.5;" width="82.5039" x="348.75" y="183"/><ellipse cx="363.75" cy="199" fill="#ADD1B2" rx="11" ry="11" style="stroke:#181818;stroke-width:1;"/><path d="M366.7188,204.6406 Q366.1406,204.9375 365.5,205.0781 Q364.8594,205.2344 364.1563,205.2344 Q361.6563,205.2344 360.3281,203.5938 Q359.0156,201.9375 359.0156,198.8125 Q359.0156,195.6875 360.3281,194.0313 Q361.6563,192.375 364.1563,192.375 Q364.8594,192.375 365.5,192.5313 Q366.1563,192.6875 366.7188,192.9844 L366.7188,195.7031 Q366.0938,195.125 365.5,194.8594 Q364.9063,194.5781 364.2813,194.5781 Q362.9375,194.5781 362.25,195.6563 Q361.5625,196.7188 361.5625,198.8125 Q361.5625,200.9063 362.25,201.9844 Q362.9375,203.0469 364.2813,203.0469 Q364.9063,203.0469 365.5,202.7813 Q366.0938,202.5 366.7188,201.9219 L366.7188,204.6406 Z " fill="#000000"/><text fill="#000000" font-family="sans-serif" font-size="14" lengthAdjust="spacing" textLength="50.5039" x="377.75" y="203.8467">Demo2</text><line style="stroke:#181818;stroke-width:0.5;" x1="349.75" x2="430.2539" y1="215" y2="215"/><line style="stroke:#181818;stroke-width:0.5;" x1="349.75" x2="430.2539" y1="223" y2="223"/></g><!--reverse link Object to ArrayList--><g class="link" data-entity-1="ent0003" data-entity-2="ent0004" data-link-type="extension" data-source-line="2" id="lnk5"><path codeLine="2" d="M106.8179,107.4227 C106.0779,133.4227 105.4,157.12 104.66,182.96" fill="none" id="Object-backto-ArrayList" style="stroke:#181818;stroke-width:1;"/><polygon fill="none" points="107.33,89.43,100.8203,107.252,112.8155,107.5934,107.33,89.43" style="stroke:#181818;stroke-width:1;"/></g><!--reverse link Object to Demo1--><g class="link" data-entity-1="ent0003" data-entity-2="ent0007" data-link-type="extension" data-source-line="6" id="lnk9"><path codeLine="6" d="M162.871,93.0844 C169.721,96.9144 160.89,92.42 167,97 C200.83,122.4 233.64,158.96 253.33,182.6" fill="none" id="Object-backto-Demo1" style="stroke:#181818;stroke-width:1;"/><polygon fill="none" points="147.16,84.3,159.9428,98.3214,165.7991,87.8474,147.16,84.3" style="stroke:#181818;stroke-width:1;"/></g><!--reverse link Demo1 to Demo2--><g class="link" data-entity-1="ent0007" data-entity-2="ent0010" data-link-type="composition" data-source-line="7" id="lnk11"><path codeLine="7" d="M325.48,207 C337.14,207 336.8,207 348.45,207" fill="none" id="Demo1-backto-Demo2" style="stroke:#181818;stroke-width:1;"/><polygon fill="#181818" points="313.48,207,319.48,211,325.48,207,319.48,203,313.48,207" style="stroke:#181818;stroke-width:1;"/></g><?plantuml-src AqXCpavCJrLGSiv9B2xEJ5Pmpi_9IKqkoSpFArPIK7O10uLgBWK5_wGieBY2JOskhe9ZKL5YfKzcSGbNBHTN0TI8vFnSlOASnBoIqjmS31qkgRdvXa0nCAsW1H4muge50000?></g></svg>