<svg xmlns="http://www.w3.org/2000/svg" xmlns:xlink="http://www.w3.org/1999/xlink" contentStyleType="text/css" data-diagram-type="CLASS" height="178px" preserveAspectRatio="none" style="width:596px;height:178px;background:#FFFFFF;" version="1.1" viewBox="0 0 596 178" width="596px" zoomAndPan="magnify"><?plantuml 1.2026.3beta5?><defs/><g><!--class Class01--><g class="entity" data-qualified-name="Class01" data-source-line="1" id="ent0002"><rect fill="#F1F1F1" height="48" rx="2.5" ry="2.5" style="stroke:#181818;stroke-width:0.5;" width="86.6465" x="7" y="7"/><ellipse cx="22" cy="23" fill="#ADD1B2" rx="11" ry="11" style="stroke:#181818;stroke-width:1;"/><path d="M24.9688,28.6406 Q24.3906,28.9375 23.75,29.0781 Q23.1094,29.2344 22.4063,29.2344 Q19.9063,29.2344 18.5781,27.5938 Q17.2656,25.9375 17.2656,22.8125 Q17.2656,19.6875 18.5781,18.0313 Q19.9063,16.375 22.4063,16.375 Q23.1094,16.375 23.75,16.5313 Q24.4063,16.6875 24.9688,16.9844 L24.9688,19.7031 Q24.3438,19.125 23.75,18.8594 Q23.1563,18.5781 22.5313,18.5781 Q21.1875,18.5781 20.5,19.6563 Q19.8125,20.7188 19.8125,22.8125 Q19.8125,24.9063 20.5,25.9844 Q21.1875,27.0469 22.5313,27.0469 Q23.1563,27.0469 23.75,26.7813 Q24.3438,26.5 24.9688,25.9219 L24.9688,28.6406 Z " fill="#000000"/><text fill="#000000" font-family="sans-serif" font-size="14" lengthAdjust="spacing" textLength="54.6465" x="36" y="27.8467">Class01</text><line style="stroke:#181818;stroke-width:0.5;" x1="8" x2="92.6465" y1="39" y2="39"/><line style="stroke:#181818;stroke-width:0.5;" x1="8" x2="92.6465" y1="47" y2="47"/></g><!--class Class02--><g class="entity" data-qualified-name="Class02" data-source-line="1" id="ent0003"><rect fill="#F1F1F1" height="48" rx="2.5" ry="2.5" style="stroke:#181818;stroke-width:0.5;" width="86.6465" x="7" y="115"/><ellipse cx="22" cy="131" fill="#ADD1B2" rx="11" ry="11" style="stroke:#181818;stroke-width:1;"/><path d="M24.9688,136.6406 Q24.3906,136.9375 23.75,137.0781 Q23.1094,137.2344 22.4063,137.2344 Q19.9063,137.2344 18.5781,135.5938 Q17.2656,133.9375 17.2656,130.8125 Q17.2656,127.6875 18.5781,126.0313 Q19.9063,124.375 22.4063,124.375 Q23.1094,124.375 23.75,124.5313 Q24.4063,124.6875 24.9688,124.9844 L24.9688,127.7031 Q24.3438,127.125 23.75,126.8594 Q23.1563,126.5781 22.5313,126.5781 Q21.1875,126.5781 20.5,127.6563 Q19.8125,128.7188 19.8125,130.8125 Q19.8125,132.9063 20.5,133.9844 Q21.1875,135.0469 22.5313,135.0469 Q23.1563,135.0469 23.75,134.7813 Q24.3438,134.5 24.9688,133.9219 L24.9688,136.6406 Z " fill="#000000"/><text fill="#000000" font-family="sans-serif" font-size="14" lengthAdjust="spacing" textLength="54.6465" x="36" y="135.8467">Class02</text><line style="stroke:#181818;stroke-width:0.5;" x1="8" x2="92.6465" y1="147" y2="147"/><line style="stroke:#181818;stroke-width:0.5;" x1="8" x2="92.6465" y1="155" y2="155"/></g><!--class Class03--><g class="entity" data-qualified-name="Class03" data-source-line="2" id="ent0005"><rect fill="#F1F1F1" height="48" rx="2.5" ry="2.5" style="stroke:#181818;stroke-width:0.5;" width="86.6465" x="129" y="7"/><ellipse cx="144" cy="23" fill="#ADD1B2" rx="11" ry="11" style="stroke:#181818;stroke-width:1;"/><path d="M146.9688,28.6406 Q146.3906,28.9375 145.75,29.0781 Q145.1094,29.2344 144.4063,29.2344 Q141.9063,29.2344 140.5781,27.5938 Q139.2656,25.9375 139.2656,22.8125 Q139.2656,19.6875 140.5781,18.0313 Q141.9063,16.375 144.4063,16.375 Q145.1094,16.375 145.75,16.5313 Q146.4063,16.6875 146.9688,16.9844 L146.9688,19.7031 Q146.3438,19.125 145.75,18.8594 Q145.1563,18.5781 144.5313,18.5781 Q143.1875,18.5781 142.5,19.6563 Q141.8125,20.7188 141.8125,22.8125 Q141.8125,24.9063 142.5,25.9844 Q143.1875,27.0469 144.5313,27.0469 Q145.1563,27.0469 145.75,26.7813 Q146.3438,26.5 146.9688,25.9219 L146.9688,28.6406 Z " fill="#000000"/><text fill="#000000" font-family="sans-serif" font-size="14" lengthAdjust="spacing" textLength="54.6465" x="158" y="27.8467">Class03</text><line style="stroke:#181818;stroke-width:0.5;" x1="130" x2="214.6465" y1="39" y2="39"/><line style="stroke:#181818;stroke-width:0.5;" x1="130" x2="214.6465" y1="47" y2="47"/></g><!--class Class04--><g class="entity" data-qualified-name="Class04" data-source-line="2" id="ent0006"><rect fill="#F1F1F1" height="48" rx="2.5" ry="2.5" style="stroke:#181818;stroke-width:0.5;" width="86.6465" x="129" y="115"/><ellipse cx="144" cy="131" fill="#ADD1B2" rx="11" ry="11" style="stroke:#181818;stroke-width:1;"/><path d="M146.9688,136.6406 Q146.3906,136.9375 145.75,137.0781 Q145.1094,137.2344 144.4063,137.2344 Q141.9063,137.2344 140.5781,135.5938 Q139.2656,133.9375 139.2656,130.8125 Q139.2656,127.6875 140.5781,126.0313 Q141.9063,124.375 144.4063,124.375 Q145.1094,124.375 145.75,124.5313 Q146.4063,124.6875 146.9688,124.9844 L146.9688,127.7031 Q146.3438,127.125 145.75,126.8594 Q145.1563,126.5781 144.5313,126.5781 Q143.1875,126.5781 142.5,127.6563 Q141.8125,128.7188 141.8125,130.8125 Q141.8125,132.9063 142.5,133.9844 Q143.1875,135.0469 144.5313,135.0469 Q145.1563,135.0469 145.75,134.7813 Q146.3438,134.5 146.9688,133.9219 L146.9688,136.6406 Z " fill="#000000"/><text fill="#000000" font-family="sans-serif" font-size="14" lengthAdjust="spacing" textLength="54.6465" x="158" y="135.8467">Class04</text><line style="stroke:#181818;stroke-width:0.5;" x1="130" x2="214.6465" y1="147" y2="147"/><line style="stroke:#181818;stroke-width:0.5;" x1="130" x2="214.6465" y1="155" y2="155"/></g><!--class Class05--><g class="entity" data-qualified-name="Class05" data-source-line="3" id="ent0008"><rect fill="#F1F1F1" height="48" rx="2.5" ry="2.5" style="stroke:#181818;stroke-width:0.5;" width="86.6465" x="251" y="7"/><ellipse cx="266" cy="23" fill="#ADD1B2" rx="11" ry="11" style="stroke:#181818;stroke-width:1;"/><path d="M268.9688,28.6406 Q268.3906,28.9375 267.75,29.0781 Q267.1094,29.2344 266.4063,29.2344 Q263.9063,29.2344 262.5781,27.5938 Q261.2656,25.9375 261.2656,22.8125 Q261.2656,19.6875 262.5781,18.0313 Q263.9063,16.375 266.4063,16.375 Q267.1094,16.375 267.75,16.5313 Q268.4063,16.6875 268.9688,16.9844 L268.9688,19.7031 Q268.3438,19.125 267.75,18.8594 Q267.1563,18.5781 266.5313,18.5781 Q265.1875,18.5781 264.5,19.6563 Q263.8125,20.7188 263.8125,22.8125 Q263.8125,24.9063 264.5,25.9844 Q265.1875,27.0469 266.5313,27.0469 Q267.1563,27.0469 267.75,26.7813 Q268.3438,26.5 268.9688,25.9219 L268.9688,28.6406 Z " fill="#000000"/><text fill="#000000" font-family="sans-serif" font-size="14" lengthAdjust="spacing" textLength="54.6465" x="280" y="27.8467">Class05</text><line style="stroke:#181818;stroke-width:0.5;" x1="252" x2="336.6465" y1="39" y2="39"/><line style="stroke:#181818;stroke-width:0.5;" x1="252" x2="336.6465" y1="47" y2="47"/></g><!--class Class06--><g class="entity" data-qualified-name="Class06" data-source-line="3" id="ent0009"><rect fill="#F1F1F1" height="48" rx="2.5" ry="2.5" style="stroke:#181818;stroke-width:0.5;" width="86.6465" x="251" y="115"/><ellipse cx="266" cy="131" fill="#ADD1B2" rx="11" ry="11" style="stroke:#181818;stroke-width:1;"/><path d="M268.9688,136.6406 Q268.3906,136.9375 267.75,137.0781 Q267.1094,137.2344 266.4063,137.2344 Q263.9063,137.2344 262.5781,135.5938 Q261.2656,133.9375 261.2656,130.8125 Q261.2656,127.6875 262.5781,126.0313 Q263.9063,124.375 266.4063,124.375 Q267.1094,124.375 267.75,124.5313 Q268.4063,124.6875 268.9688,124.9844 L268.9688,127.7031 Q268.3438,127.125 267.75,126.8594 Q267.1563,126.5781 266.5313,126.5781 Q265.1875,126.5781 264.5,127.6563 Q263.8125,128.7188 263.8125,130.8125 Q263.8125,132.9063 264.5,133.9844 Q265.1875,135.0469 266.5313,135.0469 Q267.1563,135.0469 267.75,134.7813 Q268.3438,134.5 268.9688,133.9219 L268.9688,136.6406 Z " fill="#000000"/><text fill="#000000" font-family="sans-serif" font-size="14" lengthAdjust="spacing" textLength="54.6465" x="280" y="135.8467">Class06</text><line style="stroke:#181818;stroke-width:0.5;" x1="252" x2="336.6465" y1="147" y2="147"/><line style="stroke:#181818;stroke-width:0.5;" x1="252" x2="336.6465" y1="155" y2="155"/></g><!--class Class07--><g class="entity" data-qualified-name="Class07" data-source-line="4" id="ent0011"><rect fill="#F1F1F1" height="48" rx="2.5" ry="2.5" style="stroke:#181818;stroke-width:0.5;" width="86.6465" x="373" y="7"/><ellipse cx="388" cy="23" fill="#ADD1B2" rx="11" ry="11" style="stroke:#181818;stroke-width:1;"/><path d="M390.9688,28.6406 Q390.3906,28.9375 389.75,29.0781 Q389.1094,29.2344 388.4063,29.2344 Q385.9063,29.2344 384.5781,27.5938 Q383.2656,25.9375 383.2656,22.8125 Q383.2656,19.6875 384.5781,18.0313 Q385.9063,16.375 388.4063,16.375 Q389.1094,16.375 389.75,16.5313 Q390.4063,16.6875 390.9688,16.9844 L390.9688,19.7031 Q390.3438,19.125 389.75,18.8594 Q389.1563,18.5781 388.5313,18.5781 Q387.1875,18.5781 386.5,19.6563 Q385.8125,20.7188 385.8125,22.8125 Q385.8125,24.9063 386.5,25.9844 Q387.1875,27.0469 388.5313,27.0469 Q389.1563,27.0469 389.75,26.7813 Q390.3438,26.5 390.9688,25.9219 L390.9688,28.6406 Z " fill="#000000"/><text fill="#000000" font-family="sans-serif" font-size="14" lengthAdjust="spacing" textLength="54.6465" x="402" y="27.8467">Class07</text><line style="stroke:#181818;stroke-width:0.5;" x1="374" x2="458.6465" y1="39" y2="39"/><line style="stroke:#181818;stroke-width:0.5;" x1="374" x2="458.6465" y1="47" y2="47"/></g><!--class Class08--><g class="entity" data-qualified-name="Class08" data-source-line="4" id="ent0012"><rect fill="#F1F1F1" height="48" rx="2.5" ry="2.5" style="stroke:#181818;stroke-width:0.5;" width="86.6465" x="373" y="115"/><ellipse cx="388" cy="131" fill="#ADD1B2" rx="11" ry="11" style="stroke:#181818;stroke-width:1;"/><path d="M390.9688,136.6406 Q390.3906,136.9375 389.75,137.0781 Q389.1094,137.2344 388.4063,137.2344 Q385.9063,137.2344 384.5781,135.5938 Q383.2656,133.9375 383.2656,130.8125 Q383.2656,127.6875 384.5781,126.0313 Q385.9063,124.375 388.4063,124.375 Q389.1094,124.375 389.75,124.5313 Q390.4063,124.6875 390.9688,124.9844 L390.9688,127.7031 Q390.3438,127.125 389.75,126.8594 Q389.1563,126.5781 388.5313,126.5781 Q387.1875,126.5781 386.5,127.6563 Q385.8125,128.7188 385.8125,130.8125 Q385.8125,132.9063 386.5,133.9844 Q387.1875,135.0469 388.5313,135.0469 Q389.1563,135.0469 389.75,134.7813 Q390.3438,134.5 390.9688,133.9219 L390.9688,136.6406 Z " fill="#000000"/><text fill="#000000" font-family="sans-serif" font-size="14" lengthAdjust="spacing" textLength="54.6465" x="402" y="135.8467">Class08</text><line style="stroke:#181818;stroke-width:0.5;" x1="374" x2="458.6465" y1="147" y2="147"/><line style="stroke:#181818;stroke-width:0.5;" x1="374" x2="458.6465" y1="155" y2="155"/></g><!--class Class09--><g class="entity" data-qualified-name="Class09" data-source-line="5" id="ent0014"><rect fill="#F1F1F1" height="48" rx="2.5" ry="2.5" style="stroke:#181818;stroke-width:0.5;" width="86.6465" x="495" y="7"/><ellipse cx="510" cy="23" fill="#ADD1B2" rx="11" ry="11" style="stroke:#181818;stroke-width:1;"/><path d="M512.9688,28.6406 Q512.3906,28.9375 511.75,29.0781 Q511.1094,29.2344 510.4063,29.2344 Q507.9063,29.2344 506.5781,27.5938 Q505.2656,25.9375 505.2656,22.8125 Q505.2656,19.6875 506.5781,18.0313 Q507.9063,16.375 510.4063,16.375 Q511.1094,16.375 511.75,16.5313 Q512.4063,16.6875 512.9688,16.9844 L512.9688,19.7031 Q512.3438,19.125 511.75,18.8594 Q511.1563,18.5781 510.5313,18.5781 Q509.1875,18.5781 508.5,19.6563 Q507.8125,20.7188 507.8125,22.8125 Q507.8125,24.9063 508.5,25.9844 Q509.1875,27.0469 510.5313,27.0469 Q511.1563,27.0469 511.75,26.7813 Q512.3438,26.5 512.9688,25.9219 L512.9688,28.6406 Z " fill="#000000"/><text fill="#000000" font-family="sans-serif" font-size="14" lengthAdjust="spacing" textLength="54.6465" x="524" y="27.8467">Class09</text><line style="stroke:#181818;stroke-width:0.5;" x1="496" x2="580.6465" y1="39" y2="39"/><line style="stroke:#181818;stroke-width:0.5;" x1="496" x2="580.6465" y1="47" y2="47"/></g><!--class Class10--><g class="entity" data-qualified-name="Class10" data-source-line="5" id="ent0015"><rect fill="#F1F1F1" height="48" rx="2.5" ry="2.5" style="stroke:#181818;stroke-width:0.5;" width="86.6465" x="495" y="115"/><ellipse cx="510" cy="131" fill="#ADD1B2" rx="11" ry="11" style="stroke:#181818;stroke-width:1;"/><path d="M512.9688,136.6406 Q512.3906,136.9375 511.75,137.0781 Q511.1094,137.2344 510.4063,137.2344 Q507.9063,137.2344 506.5781,135.5938 Q505.2656,133.9375 505.2656,130.8125 Q505.2656,127.6875 506.5781,126.0313 Q507.9063,124.375 510.4063,124.375 Q511.1094,124.375 511.75,124.5313 Q512.4063,124.6875 512.9688,124.9844 L512.9688,127.7031 Q512.3438,127.125 511.75,126.8594 Q511.1563,126.5781 510.5313,126.5781 Q509.1875,126.5781 508.5,127.6563 Q507.8125,128.7188 507.8125,130.8125 Q507.8125,132.9063 508.5,133.9844 Q509.1875,135.0469 510.5313,135.0469 Q511.1563,135.0469 511.75,134.7813 Q512.3438,134.5 512.9688,133.9219 L512.9688,136.6406 Z " fill="#000000"/><text fill="#000000" font-family="sans-serif" font-size="14" lengthAdjust="spacing" textLength="54.6465" x="524" y="135.8467">Class10</text><line style="stroke:#181818;stroke-width:0.5;" x1="496" x2="580.6465" y1="147" y2="147"/><line style="stroke:#181818;stroke-width:0.5;" x1="496" x2="580.6465" y1="155" y2="155"/></g><!--reverse link Class01 to Class02--><g class="link" data-entity-1="ent0002" data-entity-2="ent0003" data-link-type="extension" data-source-line="1" id="lnk4"><path codeLine="1" d="M50.32,73.26 C50.32,90.94 50.32,97.13 50.32,114.79" fill="none" id="Class01-backto-Class02" style="stroke:#181818;stroke-width:1;"/><polygon fill="none" points="50.32,55.26,44.32,73.26,56.32,73.26,50.32,55.26" style="stroke:#181818;stroke-width:1;"/></g><!--reverse link Class03 to Class04--><g class="link" data-entity-1="ent0005" data-entity-2="ent0006" data-link-type="composition" data-source-line="2" id="lnk7"><path codeLine="2" d="M172.32,67.26 C172.32,84.94 172.32,97.13 172.32,114.79" fill="none" id="Class03-backto-Class04" style="stroke:#181818;stroke-width:1;"/><polygon fill="#181818" points="172.32,55.26,168.32,61.26,172.32,67.26,176.32,61.26,172.32,55.26" style="stroke:#181818;stroke-width:1;"/></g><!--reverse link Class05 to Class06--><g class="link" data-entity-1="ent0008" data-entity-2="ent0009" data-link-type="aggregation" data-source-line="3" id="lnk10"><path codeLine="3" d="M294.32,67.26 C294.32,84.94 294.32,97.13 294.32,114.79" fill="none" id="Class05-backto-Class06" style="stroke:#181818;stroke-width:1;"/><polygon fill="none" points="294.32,55.26,290.32,61.26,294.32,67.26,298.32,61.26,294.32,55.26" style="stroke:#181818;stroke-width:1;"/></g><!--link Class07 to Class08--><g class="link" data-entity-1="ent0011" data-entity-2="ent0012" data-link-type="association" data-source-line="4" id="lnk13"><path codeLine="4" d="M416.32,55.26 C416.32,72.94 416.32,97.13 416.32,114.79" fill="none" id="Class07-Class08" style="stroke:#181818;stroke-width:1;stroke-dasharray:7,7;"/></g><!--link Class09 to Class10--><g class="link" data-entity-1="ent0014" data-entity-2="ent0015" data-link-type="association" data-source-line="5" id="lnk16"><path codeLine="5" d="M538.32,55.26 C538.32,72.94 538.32,97.13 538.32,114.79" fill="none" id="Class09-Class10" style="stroke:#181818;stroke-width:1;"/></g><?plantuml-src Syv9B2usC5ImgT7LLN06Suou8BInWXPSp0GgPggG3nSpWugPA-ZfGOKie4AM2Z1LXWO0?></g></svg>