<svg xmlns="http://www.w3.org/2000/svg" width="800.0" height="700.0">
  <g stroke="#333333" fill="none" stroke-width="1.5">
    <line x1="125.0" y1="70.0" x2="425.0" y2="70.0" stroke="#333333"/>
    <line x1="725.0" y1="70.0" x2="125.0" y2="220.0" stroke="#333333"/>
    <line x1="425.0" y1="220.0" x2="725.0" y2="220.0" stroke="#333333"/>
    <line x1="125.0" y1="370.0" x2="425.0" y2="370.0" stroke="#333333" stroke-dasharray="5,5"/>
    <line x1="725.0" y1="370.0" x2="125.0" y2="520.0" stroke="#333333"/>
  </g>
  <g font-family="sans-serif" font-size="14">
    <rect x="50.0" y="50.0" width="150.0" height="40.0" fill="#f9f9ca" stroke="#a80036" stroke-width="1.5" rx="2" ry="2"/>
    <circle cx="68.0" cy="68.0" r="10" fill="#ADD1B2" stroke="#a80036" stroke-width="1"/>
    <text x="68.0" y="72.0" fill="#000000" font-size="12" font-weight="bold" font-style="italic" text-anchor="middle">C</text>
    <text x="125.0" y="65.0" fill="#000000" font-weight="bold" text-anchor="middle">Class01</text>
    <line x1="50.0" y1="75.0" x2="200.0" y2="75.0" stroke="#a80036" stroke-width="1.5"/>
    <rect x="350.0" y="50.0" width="150.0" height="40.0" fill="#f9f9ca" stroke="#a80036" stroke-width="1.5" rx="2" ry="2"/>
    <circle cx="368.0" cy="68.0" r="10" fill="#ADD1B2" stroke="#a80036" stroke-width="1"/>
    <text x="368.0" y="72.0" fill="#000000" font-size="12" font-weight="bold" font-style="italic" text-anchor="middle">C</text>
    <text x="425.0" y="65.0" fill="#000000" font-weight="bold" text-anchor="middle">Class02</text>
    <line x1="350.0" y1="75.0" x2="500.0" y2="75.0" stroke="#a80036" stroke-width="1.5"/>
    <rect x="650.0" y="50.0" width="150.0" height="40.0" fill="#f9f9ca" stroke="#a80036" stroke-width="1.5" rx="2" ry="2"/>
    <circle cx="668.0" cy="68.0" r="10" fill="#ADD1B2" stroke="#a80036" stroke-width="1"/>
    <text x="668.0" y="72.0" fill="#000000" font-size="12" font-weight="bold" font-style="italic" text-anchor="middle">C</text>
    <text x="725.0" y="65.0" fill="#000000" font-weight="bold" text-anchor="middle">Class03</text>
    <line x1="650.0" y1="75.0" x2="800.0" y2="75.0" stroke="#a80036" stroke-width="1.5"/>
    <rect x="50.0" y="200.0" width="150.0" height="40.0" fill="#f9f9ca" stroke="#a80036" stroke-width="1.5" rx="2" ry="2"/>
    <circle cx="68.0" cy="218.0" r="10" fill="#ADD1B2" stroke="#a80036" stroke-width="1"/>
    <text x="68.0" y="222.0" fill="#000000" font-size="12" font-weight="bold" font-style="italic" text-anchor="middle">C</text>
    <text x="125.0" y="215.0" fill="#000000" font-weight="bold" text-anchor="middle">Class04</text>
    <line x1="50.0" y1="225.0" x2="200.0" y2="225.0" stroke="#a80036" stroke-width="1.5"/>
    <rect x="350.0" y="200.0" width="150.0" height="40.0" fill="#f9f9ca" stroke="#a80036" stroke-width="1.5" rx="2" ry="2"/>
    <circle cx="368.0" cy="218.0" r="10" fill="#ADD1B2" stroke="#a80036" stroke-width="1"/>
    <text x="368.0" y="222.0" fill="#000000" font-size="12" font-weight="bold" font-style="italic" text-anchor="middle">C</text>
    <text x="425.0" y="215.0" fill="#000000" font-weight="bold" text-anchor="middle">Class05</text>
    <line x1="350.0" y1="225.0" x2="500.0" y2="225.0" stroke="#a80036" stroke-width="1.5"/>
    <rect x="650.0" y="200.0" width="150.0" height="40.0" fill="#f9f9ca" stroke="#a80036" stroke-width="1.5" rx="2" ry="2"/>
    <circle cx="668.0" cy="218.0" r="10" fill="#ADD1B2" stroke="#a80036" stroke-width="1"/>
    <text x="668.0" y="222.0" fill="#000000" font-size="12" font-weight="bold" font-style="italic" text-anchor="middle">C</text>
    <text x="725.0" y="215.0" fill="#000000" font-weight="bold" text-anchor="middle">Class06</text>
    <line x1="650.0" y1="225.0" x2="800.0" y2="225.0" stroke="#a80036" stroke-width="1.5"/>
    <rect x="50.0" y="350.0" width="150.0" height="40.0" fill="#f9f9ca" stroke="#a80036" stroke-width="1.5" rx="2" ry="2"/>
    <circle cx="68.0" cy="368.0" r="10" fill="#ADD1B2" stroke="#a80036" stroke-width="1"/>
    <text x="68.0" y="372.0" fill="#000000" font-size="12" font-weight="bold" font-style="italic" text-anchor="middle">C</text>
    <text x="125.0" y="365.0" fill="#000000" font-weight="bold" text-anchor="middle">Class07</text>
    <line x1="50.0" y1="375.0" x2="200.0" y2="375.0" stroke="#a80036" stroke-width="1.5"/>
    <rect x="350.0" y="350.0" width="150.0" height="40.0" fill="#f9f9ca" stroke="#a80036" stroke-width="1.5" rx="2" ry="2"/>
    <circle cx="368.0" cy="368.0" r="10" fill="#ADD1B2" stroke="#a80036" stroke-width="1"/>
    <text x="368.0" y="372.0" fill="#000000" font-size="12" font-weight="bold" font-style="italic" text-anchor="middle">C</text>
    <text x="425.0" y="365.0" fill="#000000" font-weight="bold" text-anchor="middle">Class08</text>
    <line x1="350.0" y1="375.0" x2="500.0" y2="375.0" stroke="#a80036" stroke-width="1.5"/>
    <rect x="650.0" y="350.0" width="150.0" height="40.0" fill="#f9f9ca" stroke="#a80036" stroke-width="1.5" rx="2" ry="2"/>
    <circle cx="668.0" cy="368.0" r="10" fill="#ADD1B2" stroke="#a80036" stroke-width="1"/>
    <text x="668.0" y="372.0" fill="#000000" font-size="12" font-weight="bold" font-style="italic" text-anchor="middle">C</text>
    <text x="725.0" y="365.0" fill="#000000" font-weight="bold" text-anchor="middle">Class09</text>
    <line x1="650.0" y1="375.0" x2="800.0" y2="375.0" stroke="#a80036" stroke-width="1.5"/>
    <rect x="50.0" y="500.0" width="150.0" height="40.0" fill="#f9f9ca" stroke="#a80036" stroke-width="1.5" rx="2" ry="2"/>
    <circle cx="68.0" cy="518.0" r="10" fill="#ADD1B2" stroke="#a80036" stroke-width="1"/>
    <text x="68.0" y="522.0" fill="#000000" font-size="12" font-weight="bold" font-style="italic" text-anchor="middle">C</text>
    <text x="125.0" y="515.0" fill="#000000" font-weight="bold" text-anchor="middle">Class10</text>
    <line x1="50.0" y1="525.0" x2="200.0" y2="525.0" stroke="#a80036" stroke-width="1.5"/>
  </g>
</svg>
