<svg xmlns="http://www.w3.org/2000/svg" xmlns:xlink="http://www.w3.org/1999/xlink" contentStyleType="text/css" data-diagram-type="CLASS" height="178px" preserveAspectRatio="none" style="width:239px;height:178px;background:#FFFFFF;" version="1.1" viewBox="0 0 239 178" width="239px" zoomAndPan="magnify"><?plantuml 1.2026.3beta5?><defs/><g><!--class User--><g class="entity" data-qualified-name="User" data-source-line="1" id="ent0002"><rect fill="#F1F1F1" height="48" rx="2.5" ry="2.5" style="stroke:#181818;stroke-width:0.5;" width="63.9102" x="154.5707" y="7"/><ellipse cx="169.5707" cy="23" fill="#ADD1B2" rx="11" ry="11" style="stroke:#181818;stroke-width:1;"/><path d="M172.5394,28.6406 Q171.9613,28.9375 171.3207,29.0781 Q170.6801,29.2344 169.9769,29.2344 Q167.4769,29.2344 166.1488,27.5938 Q164.8363,25.9375 164.8363,22.8125 Q164.8363,19.6875 166.1488,18.0313 Q167.4769,16.375 169.9769,16.375 Q170.6801,16.375 171.3207,16.5313 Q171.9769,16.6875 172.5394,16.9844 L172.5394,19.7031 Q171.9144,19.125 171.3207,18.8594 Q170.7269,18.5781 170.1019,18.5781 Q168.7582,18.5781 168.0707,19.6563 Q167.3832,20.7188 167.3832,22.8125 Q167.3832,24.9063 168.0707,25.9844 Q168.7582,27.0469 170.1019,27.0469 Q170.7269,27.0469 171.3207,26.7813 Q171.9144,26.5 172.5394,25.9219 L172.5394,28.6406 Z " fill="#000000"/><text fill="#000000" font-family="sans-serif" font-size="14" lengthAdjust="spacing" textLength="31.9102" x="183.5707" y="27.8467">User</text><line style="stroke:#181818;stroke-width:0.5;" x1="155.5707" x2="217.4809" y1="39" y2="39"/><line style="stroke:#181818;stroke-width:0.5;" x1="155.5707" x2="217.4809" y1="47" y2="47"/></g><!--class Item--><g class="entity" data-qualified-name="Item" data-source-line="2" id="ent0003"><rect fill="#F1F1F1" height="48" rx="2.5" ry="2.5" style="stroke:#181818;stroke-width:0.5;" width="63.8691" x="154.6007" y="115"/><ellipse cx="169.6007" cy="131" fill="#ADD1B2" rx="11" ry="11" style="stroke:#181818;stroke-width:1;"/><path d="M172.5694,136.6406 Q171.9913,136.9375 171.3507,137.0781 Q170.7101,137.2344 170.0069,137.2344 Q167.5069,137.2344 166.1788,135.5938 Q164.8663,133.9375 164.8663,130.8125 Q164.8663,127.6875 166.1788,126.0313 Q167.5069,124.375 170.0069,124.375 Q170.7101,124.375 171.3507,124.5313 Q172.0069,124.6875 172.5694,124.9844 L172.5694,127.7031 Q171.9444,127.125 171.3507,126.8594 Q170.7569,126.5781 170.1319,126.5781 Q168.7882,126.5781 168.1007,127.6563 Q167.4132,128.7188 167.4132,130.8125 Q167.4132,132.9063 168.1007,133.9844 Q168.7882,135.0469 170.1319,135.0469 Q170.7569,135.0469 171.3507,134.7813 Q171.9444,134.5 172.5694,133.9219 L172.5694,136.6406 Z " fill="#000000"/><text fill="#000000" font-family="sans-serif" font-size="14" lengthAdjust="spacing" textLength="31.8691" x="183.6007" y="135.8467">Item</text><line style="stroke:#181818;stroke-width:0.5;" x1="155.6007" x2="217.4698" y1="147" y2="147"/><line style="stroke:#181818;stroke-width:0.5;" x1="155.6007" x2="217.4698" y1="155" y2="155"/></g><!--link User to Item--><g class="link" data-entity-1="ent0002" data-entity-2="ent0003" data-link-type="association" data-source-line="3" id="lnk4"><path codeLine="3" d="M186.5307,55.26 C186.5307,72.94 186.5307,97.13 186.5307,114.79" fill="none" id="User-Item" style="stroke:#181818;stroke-width:1;"/><text fill="#000000" font-family="sans-serif" font-size="13" lengthAdjust="spacing" textLength="161.7383" x="6" y="75.0846">owner which is very long</text><text fill="#000000" font-family="sans-serif" font-size="13" lengthAdjust="spacing" textLength="8.271" x="188.5307" y="75.0846">1</text><text fill="#000000" font-family="sans-serif" font-size="13" lengthAdjust="spacing" textLength="24.7749" x="159.5538" y="103.7482">0..n</text><text fill="#000000" font-family="sans-serif" font-size="13" lengthAdjust="spacing" textLength="36.1436" x="188.5307" y="103.7482">items</text></g><?plantuml-src Iyv9B2vM22rEBU9A1ZCzIr9pkK1y1QNyyZmWLPwHcPoXa5ciK9PQLAcGav-NhgHlgA2hgw1aeAUNfwIV2TG0qGO0?></g></svg>