<svg xmlns="http://www.w3.org/2000/svg" xmlns:xlink="http://www.w3.org/1999/xlink" contentStyleType="text/css" data-diagram-type="CLASS" height="203px" preserveAspectRatio="none" style="width:268px;height:203px;background:#FFFFFF;" version="1.1" viewBox="0 0 268 203" width="268px" zoomAndPan="magnify"><?plantuml 1.2026.3beta5?><defs/><g><!--class Class01--><g class="entity" data-qualified-name="Class01" data-source-line="11" id="ent0002"><rect fill="#F5DEB3" height="56.2656" rx="2.5" ry="2.5" style="stroke:#FF6347;stroke-width:0.5;" width="86.6465" x="7" y="7"/><ellipse cx="22" cy="27.1328" fill="#9ACD32" rx="11" ry="11" style="stroke:#181818;stroke-width:1;"/><path d="M24.9688,32.7734 Q24.3906,33.0703 23.75,33.2109 Q23.1094,33.3672 22.4063,33.3672 Q19.9063,33.3672 18.5781,31.7266 Q17.2656,30.0703 17.2656,26.9453 Q17.2656,23.8203 18.5781,22.1641 Q19.9063,20.5078 22.4063,20.5078 Q23.1094,20.5078 23.75,20.6641 Q24.4063,20.8203 24.9688,21.1172 L24.9688,23.8359 Q24.3438,23.2578 23.75,22.9922 Q23.1563,22.7109 22.5313,22.7109 Q21.1875,22.7109 20.5,23.7891 Q19.8125,24.8516 19.8125,26.9453 Q19.8125,29.0391 20.5,30.1172 Q21.1875,31.1797 22.5313,31.1797 Q23.1563,31.1797 23.75,30.9141 Q24.3438,30.6328 24.9688,30.0547 L24.9688,32.7734 Z " fill="#000000"/><text fill="#000000" font-family="sans-serif" font-size="12" font-style="italic" lengthAdjust="spacing" textLength="36.2695" x="45.1885" y="23.1387">&#171;Foo&#187;</text><text fill="#000000" font-family="sans-serif" font-size="14" lengthAdjust="spacing" textLength="54.6465" x="36" y="38.9639">Class01</text><line style="stroke:#FF6347;stroke-width:0.5;" x1="8" x2="92.6465" y1="47.2656" y2="47.2656"/><line style="stroke:#FF6347;stroke-width:0.5;" x1="8" x2="92.6465" y1="55.2656" y2="55.2656"/></g><!--class Class03--><g class="entity" data-qualified-name="Class03" data-source-line="12" id="ent0003"><rect fill="#F5DEB3" height="56.2656" rx="2.5" ry="2.5" style="stroke:#FF6347;stroke-width:0.5;" width="86.6465" x="129" y="7"/><ellipse cx="144" cy="27.1328" fill="#9ACD32" rx="11" ry="11" style="stroke:#181818;stroke-width:1;"/><path d="M146.9688,32.7734 Q146.3906,33.0703 145.75,33.2109 Q145.1094,33.3672 144.4063,33.3672 Q141.9063,33.3672 140.5781,31.7266 Q139.2656,30.0703 139.2656,26.9453 Q139.2656,23.8203 140.5781,22.1641 Q141.9063,20.5078 144.4063,20.5078 Q145.1094,20.5078 145.75,20.6641 Q146.4063,20.8203 146.9688,21.1172 L146.9688,23.8359 Q146.3438,23.2578 145.75,22.9922 Q145.1563,22.7109 144.5313,22.7109 Q143.1875,22.7109 142.5,23.7891 Q141.8125,24.8516 141.8125,26.9453 Q141.8125,29.0391 142.5,30.1172 Q143.1875,31.1797 144.5313,31.1797 Q145.1563,31.1797 145.75,30.9141 Q146.3438,30.6328 146.9688,30.0547 L146.9688,32.7734 Z " fill="#000000"/><text fill="#000000" font-family="sans-serif" font-size="12" font-style="italic" lengthAdjust="spacing" textLength="36.2695" x="167.1885" y="23.1387">&#171;Foo&#187;</text><text fill="#000000" font-family="sans-serif" font-size="14" lengthAdjust="spacing" textLength="54.6465" x="158" y="38.9639">Class03</text><line style="stroke:#FF6347;stroke-width:0.5;" x1="130" x2="214.6465" y1="47.2656" y2="47.2656"/><line style="stroke:#FF6347;stroke-width:0.5;" x1="130" x2="214.6465" y1="55.2656" y2="55.2656"/></g><!--class Class02--><g class="entity" data-qualified-name="Class02" data-source-line="13" id="ent0004"><rect fill="#98FB98" height="48" rx="2.5" ry="2.5" style="stroke:#00FF7F;stroke-width:0.5;" width="86.6465" x="7" y="140.27"/><ellipse cx="22" cy="156.27" fill="#9ACD32" rx="11" ry="11" style="stroke:#181818;stroke-width:1;"/><path d="M24.9688,161.9106 Q24.3906,162.2075 23.75,162.3481 Q23.1094,162.5044 22.4063,162.5044 Q19.9063,162.5044 18.5781,160.8638 Q17.2656,159.2075 17.2656,156.0825 Q17.2656,152.9575 18.5781,151.3013 Q19.9063,149.645 22.4063,149.645 Q23.1094,149.645 23.75,149.8013 Q24.4063,149.9575 24.9688,150.2544 L24.9688,152.9731 Q24.3438,152.395 23.75,152.1294 Q23.1563,151.8481 22.5313,151.8481 Q21.1875,151.8481 20.5,152.9263 Q19.8125,153.9888 19.8125,156.0825 Q19.8125,158.1763 20.5,159.2544 Q21.1875,160.3169 22.5313,160.3169 Q23.1563,160.3169 23.75,160.0513 Q24.3438,159.77 24.9688,159.1919 L24.9688,161.9106 Z " fill="#000000"/><text fill="#000000" font-family="sans-serif" font-size="14" lengthAdjust="spacing" textLength="54.6465" x="36" y="161.1167">Class02</text><line style="stroke:#00FF7F;stroke-width:0.5;" x1="8" x2="92.6465" y1="172.27" y2="172.27"/><line style="stroke:#00FF7F;stroke-width:0.5;" x1="8" x2="92.6465" y1="180.27" y2="180.27"/></g><!--class Class04--><g class="entity" data-qualified-name="Class04" data-source-line="15" id="ent0006"><rect fill="#98FB98" height="48" rx="2.5" ry="2.5" style="stroke:#00FF7F;stroke-width:0.5;" width="86.6465" x="129" y="140.27"/><ellipse cx="144" cy="156.27" fill="#9ACD32" rx="11" ry="11" style="stroke:#181818;stroke-width:1;"/><path d="M146.9688,161.9106 Q146.3906,162.2075 145.75,162.3481 Q145.1094,162.5044 144.4063,162.5044 Q141.9063,162.5044 140.5781,160.8638 Q139.2656,159.2075 139.2656,156.0825 Q139.2656,152.9575 140.5781,151.3013 Q141.9063,149.645 144.4063,149.645 Q145.1094,149.645 145.75,149.8013 Q146.4063,149.9575 146.9688,150.2544 L146.9688,152.9731 Q146.3438,152.395 145.75,152.1294 Q145.1563,151.8481 144.5313,151.8481 Q143.1875,151.8481 142.5,152.9263 Q141.8125,153.9888 141.8125,156.0825 Q141.8125,158.1763 142.5,159.2544 Q143.1875,160.3169 144.5313,160.3169 Q145.1563,160.3169 145.75,160.0513 Q146.3438,159.77 146.9688,159.1919 L146.9688,161.9106 Z " fill="#000000"/><text fill="#000000" font-family="sans-serif" font-size="14" lengthAdjust="spacing" textLength="54.6465" x="158" y="161.1167">Class04</text><line style="stroke:#00FF7F;stroke-width:0.5;" x1="130" x2="214.6465" y1="172.27" y2="172.27"/><line style="stroke:#00FF7F;stroke-width:0.5;" x1="130" x2="214.6465" y1="180.27" y2="180.27"/></g><!--reverse link Class01 to Class02--><g class="link" data-entity-1="ent0002" data-entity-2="ent0004" data-link-type="composition" data-source-line="13" id="lnk5"><path codeLine="13" d="M50.32,75.72 C50.32,98.51 50.32,118.49 50.32,140" fill="none" id="Class01-backto-Class02" style="stroke:#2E8B57;stroke-width:1;"/><polygon fill="#2E8B57" points="50.32,63.72,46.32,69.72,50.32,75.72,54.32,69.72,50.32,63.72" style="stroke:#2E8B57;stroke-width:1;"/><text fill="#000000" font-family="sans-serif" font-size="13" lengthAdjust="spacing" textLength="55.0278" x="51.32" y="106.3369">contains</text><text fill="#000000" font-family="sans-serif" font-size="13" lengthAdjust="spacing" textLength="8.271" x="41.5223" y="83.2436">1</text><text fill="#000000" font-family="sans-serif" font-size="13" lengthAdjust="spacing" textLength="36.5625" x="10.0003" y="129.3391">many</text></g><!--reverse link Class03 to Class04--><g class="link" data-entity-1="ent0003" data-entity-2="ent0006" data-link-type="aggregation" data-source-line="15" id="lnk7"><path codeLine="15" d="M172.32,75.72 C172.32,98.51 172.32,118.49 172.32,140" fill="none" id="Class03-backto-Class04" style="stroke:#2E8B57;stroke-width:1;"/><polygon fill="none" points="172.32,63.72,168.32,69.72,172.32,75.72,176.32,69.72,172.32,63.72" style="stroke:#2E8B57;stroke-width:1;"/><text fill="#000000" font-family="sans-serif" font-size="13" lengthAdjust="spacing" textLength="78.9331" x="173.32" y="106.3369">aggregation</text></g><?plantuml-src ZO_D2i8m48JlUOgbHw7WtqcAe1Mz2WhYSQbB34spPHEH8hwxbRHYFNbPmhSpEnDV6bUZO0M5HU_XeTPOb5huvYuvMnROewMT43cr4k5xX0V2oDOi5v8ErcASxlZmIfPjcPTBE5q9mxUfNnovmi3ggVoda0yanA6fAV_jT2Ph-HwJ_Z5a6RGnqEPiJBKJR9IAtytVSpo1hiQ0pZwqLoMJ14Pf2ac5haawsHGMKB0BQ9nNghToAullURj7hOKq1iFk1G00?></g></svg>