<svg xmlns="http://www.w3.org/2000/svg" xmlns:xlink="http://www.w3.org/1999/xlink" contentStyleType="text/css" data-diagram-type="CLASS" height="195px" preserveAspectRatio="none" style="width:268px;height:195px;background:#FFFFFF;" version="1.1" viewBox="0 0 268 195" width="268px" zoomAndPan="magnify"><?plantuml 1.2026.3beta5?><defs/><g><!--class Class01--><g class="entity" data-qualified-name="Class01" data-source-line="8" id="ent0002"><rect fill="#98FB98" height="48" rx="2.5" ry="2.5" style="stroke:#00FF7F;stroke-width:0.5;" width="86.6465" x="7" y="7"/><ellipse cx="22" cy="23" fill="#9ACD32" rx="11" ry="11" style="stroke:#181818;stroke-width:1;"/><path d="M24.9688,28.6406 Q24.3906,28.9375 23.75,29.0781 Q23.1094,29.2344 22.4063,29.2344 Q19.9063,29.2344 18.5781,27.5938 Q17.2656,25.9375 17.2656,22.8125 Q17.2656,19.6875 18.5781,18.0313 Q19.9063,16.375 22.4063,16.375 Q23.1094,16.375 23.75,16.5313 Q24.4063,16.6875 24.9688,16.9844 L24.9688,19.7031 Q24.3438,19.125 23.75,18.8594 Q23.1563,18.5781 22.5313,18.5781 Q21.1875,18.5781 20.5,19.6563 Q19.8125,20.7188 19.8125,22.8125 Q19.8125,24.9063 20.5,25.9844 Q21.1875,27.0469 22.5313,27.0469 Q23.1563,27.0469 23.75,26.7813 Q24.3438,26.5 24.9688,25.9219 L24.9688,28.6406 Z " fill="#000000"/><text fill="#000000" font-family="sans-serif" font-size="14" lengthAdjust="spacing" textLength="54.6465" x="36" y="27.8467">Class01</text><line style="stroke:#00FF7F;stroke-width:0.5;" x1="8" x2="92.6465" y1="39" y2="39"/><line style="stroke:#00FF7F;stroke-width:0.5;" x1="8" x2="92.6465" y1="47" y2="47"/></g><!--class Class02--><g class="entity" data-qualified-name="Class02" data-source-line="8" id="ent0003"><rect fill="#98FB98" height="48" rx="2.5" ry="2.5" style="stroke:#00FF7F;stroke-width:0.5;" width="86.6465" x="7" y="132"/><ellipse cx="22" cy="148" fill="#9ACD32" rx="11" ry="11" style="stroke:#181818;stroke-width:1;"/><path d="M24.9688,153.6406 Q24.3906,153.9375 23.75,154.0781 Q23.1094,154.2344 22.4063,154.2344 Q19.9063,154.2344 18.5781,152.5938 Q17.2656,150.9375 17.2656,147.8125 Q17.2656,144.6875 18.5781,143.0313 Q19.9063,141.375 22.4063,141.375 Q23.1094,141.375 23.75,141.5313 Q24.4063,141.6875 24.9688,141.9844 L24.9688,144.7031 Q24.3438,144.125 23.75,143.8594 Q23.1563,143.5781 22.5313,143.5781 Q21.1875,143.5781 20.5,144.6563 Q19.8125,145.7188 19.8125,147.8125 Q19.8125,149.9063 20.5,150.9844 Q21.1875,152.0469 22.5313,152.0469 Q23.1563,152.0469 23.75,151.7813 Q24.3438,151.5 24.9688,150.9219 L24.9688,153.6406 Z " fill="#000000"/><text fill="#000000" font-family="sans-serif" font-size="14" lengthAdjust="spacing" textLength="54.6465" x="36" y="152.8467">Class02</text><line style="stroke:#00FF7F;stroke-width:0.5;" x1="8" x2="92.6465" y1="164" y2="164"/><line style="stroke:#00FF7F;stroke-width:0.5;" x1="8" x2="92.6465" y1="172" y2="172"/></g><!--class Class03--><g class="entity" data-qualified-name="Class03" data-source-line="10" id="ent0005"><rect fill="#98FB98" height="48" rx="2.5" ry="2.5" style="stroke:#00FF7F;stroke-width:0.5;" width="86.6465" x="129" y="7"/><ellipse cx="144" cy="23" fill="#9ACD32" rx="11" ry="11" style="stroke:#181818;stroke-width:1;"/><path d="M146.9688,28.6406 Q146.3906,28.9375 145.75,29.0781 Q145.1094,29.2344 144.4063,29.2344 Q141.9063,29.2344 140.5781,27.5938 Q139.2656,25.9375 139.2656,22.8125 Q139.2656,19.6875 140.5781,18.0313 Q141.9063,16.375 144.4063,16.375 Q145.1094,16.375 145.75,16.5313 Q146.4063,16.6875 146.9688,16.9844 L146.9688,19.7031 Q146.3438,19.125 145.75,18.8594 Q145.1563,18.5781 144.5313,18.5781 Q143.1875,18.5781 142.5,19.6563 Q141.8125,20.7188 141.8125,22.8125 Q141.8125,24.9063 142.5,25.9844 Q143.1875,27.0469 144.5313,27.0469 Q145.1563,27.0469 145.75,26.7813 Q146.3438,26.5 146.9688,25.9219 L146.9688,28.6406 Z " fill="#000000"/><text fill="#000000" font-family="sans-serif" font-size="14" lengthAdjust="spacing" textLength="54.6465" x="158" y="27.8467">Class03</text><line style="stroke:#00FF7F;stroke-width:0.5;" x1="130" x2="214.6465" y1="39" y2="39"/><line style="stroke:#00FF7F;stroke-width:0.5;" x1="130" x2="214.6465" y1="47" y2="47"/></g><!--class Class04--><g class="entity" data-qualified-name="Class04" data-source-line="10" id="ent0006"><rect fill="#98FB98" height="48" rx="2.5" ry="2.5" style="stroke:#00FF7F;stroke-width:0.5;" width="86.6465" x="129" y="132"/><ellipse cx="144" cy="148" fill="#9ACD32" rx="11" ry="11" style="stroke:#181818;stroke-width:1;"/><path d="M146.9688,153.6406 Q146.3906,153.9375 145.75,154.0781 Q145.1094,154.2344 144.4063,154.2344 Q141.9063,154.2344 140.5781,152.5938 Q139.2656,150.9375 139.2656,147.8125 Q139.2656,144.6875 140.5781,143.0313 Q141.9063,141.375 144.4063,141.375 Q145.1094,141.375 145.75,141.5313 Q146.4063,141.6875 146.9688,141.9844 L146.9688,144.7031 Q146.3438,144.125 145.75,143.8594 Q145.1563,143.5781 144.5313,143.5781 Q143.1875,143.5781 142.5,144.6563 Q141.8125,145.7188 141.8125,147.8125 Q141.8125,149.9063 142.5,150.9844 Q143.1875,152.0469 144.5313,152.0469 Q145.1563,152.0469 145.75,151.7813 Q146.3438,151.5 146.9688,150.9219 L146.9688,153.6406 Z " fill="#000000"/><text fill="#000000" font-family="sans-serif" font-size="14" lengthAdjust="spacing" textLength="54.6465" x="158" y="152.8467">Class04</text><line style="stroke:#00FF7F;stroke-width:0.5;" x1="130" x2="214.6465" y1="164" y2="164"/><line style="stroke:#00FF7F;stroke-width:0.5;" x1="130" x2="214.6465" y1="172" y2="172"/></g><!--reverse link Class01 to Class02--><g class="link" data-entity-1="ent0002" data-entity-2="ent0003" data-link-type="composition" data-source-line="8" id="lnk4"><path codeLine="8" d="M50.32,67.42 C50.32,89.31 50.32,109.8 50.32,131.66" fill="none" id="Class01-backto-Class02" style="stroke:#2E8B57;stroke-width:1;"/><polygon fill="#2E8B57" points="50.32,55.42,46.32,61.42,50.32,67.42,54.32,61.42,50.32,55.42" style="stroke:#2E8B57;stroke-width:1;"/><text fill="#000000" font-family="sans-serif" font-size="13" lengthAdjust="spacing" textLength="55.0278" x="51.32" y="98.0669">contains</text><text fill="#000000" font-family="sans-serif" font-size="13" lengthAdjust="spacing" textLength="8.271" x="41.4256" y="74.8838">1</text><text fill="#000000" font-family="sans-serif" font-size="13" lengthAdjust="spacing" textLength="36.5625" x="10.0003" y="120.9821">many</text></g><!--reverse link Class03 to Class04--><g class="link" data-entity-1="ent0005" data-entity-2="ent0006" data-link-type="aggregation" data-source-line="10" id="lnk7"><path codeLine="10" d="M172.32,67.42 C172.32,89.31 172.32,109.8 172.32,131.66" fill="none" id="Class03-backto-Class04" style="stroke:#2E8B57;stroke-width:1;"/><polygon fill="none" points="172.32,55.42,168.32,61.42,172.32,67.42,176.32,61.42,172.32,55.42" style="stroke:#2E8B57;stroke-width:1;"/><text fill="#000000" font-family="sans-serif" font-size="13" lengthAdjust="spacing" textLength="78.9331" x="173.32" y="98.0669">aggregation</text></g><?plantuml-src NSwn2W8n30RWlKyHEWe7dZgvUHrS1IV7q0kbN2yvqifnYE_kITN1BNpvyvCyH9vGSGIVC6Tuc0xz45Jkt3j9ed31H6SbOdDIbRdYbR1Q9zgJVd3IoA7wq-HVSowa96MPoFsNtoWbcUk9SUyFjYtOriAcQS2Eo8k5oZiuWXSk63b_etkGDLRdmxh749G2bYZy0W00?></g></svg>