<svg xmlns="http://www.w3.org/2000/svg" xmlns:xlink="http://www.w3.org/1999/xlink" contentStyleType="text/css" data-diagram-type="CLASS" height="78px" preserveAspectRatio="none" style="width:221px;height:78px;background:#FFFFFF;" version="1.1" viewBox="0 0 221 78" width="221px" zoomAndPan="magnify"><?plantuml 1.2026.3beta5?><defs/><g><!--class System--><g class="entity" data-qualified-name="System" data-source-line="1" id="ent0002"><rect fill="#F1F1F1" height="56.2656" rx="2.5" ry="2.5" style="stroke:#181818;stroke-width:0.5;" width="99.2266" x="7" y="7"/><ellipse cx="22" cy="27.1328" fill="#FF7700" rx="11" ry="11" style="stroke:#181818;stroke-width:1;"/><path d="M21.4844,27.6953 Q19.625,26.9922 18.9688,26.2266 Q18.3281,25.4453 18.3281,24.1328 Q18.3281,22.4453 19.4063,21.4766 Q20.4844,20.5078 22.3594,20.5078 Q23.2188,20.5078 24.0625,20.7109 Q24.9219,20.8984 25.7656,21.2891 L25.7656,23.6797 Q24.9844,23.1172 24.1563,22.8359 Q23.3438,22.5391 22.5469,22.5391 Q21.6719,22.5391 21.1875,22.8984 Q20.7188,23.2578 20.7188,23.9141 Q20.7188,24.4297 21.0625,24.7734 Q21.4063,25.1016 22.5,25.5078 L23.5625,25.9141 Q25.0469,26.4609 25.75,27.3672 Q26.4688,28.2734 26.4688,29.6484 Q26.4688,31.5234 25.3594,32.4453 Q24.25,33.3672 22,33.3672 Q21.0781,33.3672 20.1563,33.1484 Q19.2344,32.9297 18.375,32.5078 L18.375,29.9766 Q19.3438,30.6641 20.2656,31.0078 Q21.1875,31.3516 22.0781,31.3516 Q22.9844,31.3516 23.4844,30.9453 Q23.9844,30.5234 23.9844,29.7891 Q23.9844,29.2266 23.6406,28.8203 Q23.3125,28.3984 22.6875,28.1484 L21.4844,27.6953 Z " fill="#000000"/><text fill="#000000" font-family="sans-serif" font-size="12" font-style="italic" lengthAdjust="spacing" textLength="71.2266" x="34" y="23.1387">&#171;Singleton&#187;</text><text fill="#000000" font-family="sans-serif" font-size="14" lengthAdjust="spacing" textLength="52.2061" x="43.5103" y="38.9639">System</text><line style="stroke:#181818;stroke-width:0.5;" x1="8" x2="105.2266" y1="47.2656" y2="47.2656"/><line style="stroke:#181818;stroke-width:0.5;" x1="8" x2="105.2266" y1="55.2656" y2="55.2656"/></g><!--class Date--><g class="entity" data-qualified-name="Date" data-source-line="2" id="ent0003"><rect fill="#F1F1F1" height="48" rx="2.5" ry="2.5" style="stroke:#181818;stroke-width:0.5;" width="65.4619" x="140.88" y="11.14"/><ellipse cx="155.88" cy="27.14" fill="#DA70D6" rx="11" ry="11" style="stroke:#181818;stroke-width:1;"/><path d="M155.4738,22.9525 L155.4738,30.9369 L156.13,30.9369 Q157.5675,30.9369 158.1769,30.0306 Q158.8019,29.1088 158.8019,26.9369 Q158.8019,24.765 158.1769,23.8588 Q157.5675,22.9525 156.13,22.9525 L155.4738,22.9525 Z M153.0206,20.7494 L155.6456,20.7494 Q158.6769,20.7494 160.005,22.2025 Q161.3488,23.64 161.3488,26.9369 Q161.3488,30.2338 160.005,31.6869 Q158.6769,33.14 155.6456,33.14 L153.0206,33.14 L153.0206,20.7494 Z " fill="#000000"/><text fill="#000000" font-family="sans-serif" font-size="14" lengthAdjust="spacing" textLength="33.4619" x="169.88" y="31.9867">Date</text><line style="stroke:#181818;stroke-width:0.5;" x1="141.88" x2="205.3419" y1="43.14" y2="43.14"/><line style="stroke:#181818;stroke-width:0.5;" x1="141.88" x2="205.3419" y1="51.14" y2="51.14"/></g><?plantuml-src Iyv9B2vM2AuiBadDLR2nKT08rb5sSpCtDp3GL0ZEp4lFIIt9prEmi-DA1YjqIIn91IjpqSalIix8JD44oW40?></g></svg>