<svg xmlns="http://www.w3.org/2000/svg" xmlns:xlink="http://www.w3.org/1999/xlink" contentStyleType="text/css" data-diagram-type="CLASS" height="362px" preserveAspectRatio="none" style="width:496px;height:362px;background:#FFFFFF;" version="1.1" viewBox="0 0 496 362" width="496px" zoomAndPan="magnify"><?plantuml 1.2026.3beta5?><defs/><g><!--cluster net--><g class="cluster" data-qualified-name="net" data-source-line="10" id="ent0005"><path d="M8.5,71 L35.6543,71 A3.75,3.75 0 0 1 38.1543,73.5 L45.1543,93.2969 L373.5,93.2969 A2.5,2.5 0 0 1 376,95.7969 L376,344.8 A2.5,2.5 0 0 1 373.5,347.3 L8.5,347.3 A2.5,2.5 0 0 1 6,344.8 L6,73.5 A2.5,2.5 0 0 1 8.5,71" fill="none" style="stroke:#000000;stroke-width:1.5;"/><line style="stroke:#000000;stroke-width:1.5;" x1="6" x2="45.1543" y1="93.2969" y2="93.2969"/><text fill="#000000" font-family="sans-serif" font-size="14" font-weight="700" lengthAdjust="spacing" textLength="26.1543" x="10" y="85.9951">net</text></g><!--cluster dummy--><g class="cluster" data-qualified-name="net.dummy" data-source-line="9" id="ent0003"><path d="M32.5,114 L91.79,114 A3.75,3.75 0 0 1 94.29,116.5 L101.29,136.2969 L157.5,136.2969 A2.5,2.5 0 0 1 160,138.7969 L160,320.8 A2.5,2.5 0 0 1 157.5,323.3 L32.5,323.3 A2.5,2.5 0 0 1 30,320.8 L30,116.5 A2.5,2.5 0 0 1 32.5,114" fill="#DDDDDD" style="stroke:#000000;stroke-width:1.5;"/><line style="stroke:#000000;stroke-width:1.5;" x1="30" x2="101.29" y1="136.2969" y2="136.2969"/><text fill="#000000" font-family="sans-serif" font-size="14" font-weight="700" lengthAdjust="spacing" textLength="58.29" x="34" y="128.9951">dummy</text></g><!--cluster unused--><g class="cluster" data-qualified-name="net.unused" data-source-line="24" id="ent0015"><path d="M186.5,114 L245.25,114 A3.75,3.75 0 0 1 247.75,116.5 L254.75,136.2969 L293.5,136.2969 A2.5,2.5 0 0 1 296,138.7969 L296,210.5 A2.5,2.5 0 0 1 293.5,213 L186.5,213 A2.5,2.5 0 0 1 184,210.5 L184,116.5 A2.5,2.5 0 0 1 186.5,114" fill="none" style="stroke:#000000;stroke-width:1.5;"/><line style="stroke:#000000;stroke-width:1.5;" x1="184" x2="254.75" y1="136.2969" y2="136.2969"/><text fill="#000000" font-family="sans-serif" font-size="14" font-weight="700" lengthAdjust="spacing" textLength="57.75" x="188" y="128.9951">unused</text></g><!--class Person--><g class="entity" data-qualified-name="net.dummy.Person" data-source-line="10" id="ent0004"><rect fill="#F1F1F1" height="48" rx="2.5" ry="2.5" style="stroke:#181818;stroke-width:0.5;" width="79.5439" x="46.23" y="259.3"/><ellipse cx="61.23" cy="275.3" fill="#ADD1B2" rx="11" ry="11" style="stroke:#181818;stroke-width:1;"/><path d="M64.1987,280.9406 Q63.6206,281.2375 62.98,281.3781 Q62.3394,281.5344 61.6363,281.5344 Q59.1363,281.5344 57.8081,279.8938 Q56.4956,278.2375 56.4956,275.1125 Q56.4956,271.9875 57.8081,270.3313 Q59.1363,268.675 61.6363,268.675 Q62.3394,268.675 62.98,268.8313 Q63.6363,268.9875 64.1987,269.2844 L64.1987,272.0031 Q63.5738,271.425 62.98,271.1594 Q62.3863,270.8781 61.7613,270.8781 Q60.4175,270.8781 59.73,271.9563 Q59.0425,273.0188 59.0425,275.1125 Q59.0425,277.2063 59.73,278.2844 Q60.4175,279.3469 61.7613,279.3469 Q62.3863,279.3469 62.98,279.0813 Q63.5738,278.8 64.1987,278.2219 L64.1987,280.9406 Z " fill="#000000"/><text fill="#000000" font-family="sans-serif" font-size="14" lengthAdjust="spacing" textLength="47.5439" x="75.23" y="280.1467">Person</text><line style="stroke:#181818;stroke-width:0.5;" x1="47.23" x2="124.7739" y1="291.3" y2="291.3"/><line style="stroke:#181818;stroke-width:0.5;" x1="47.23" x2="124.7739" y1="299.3" y2="299.3"/></g><!--class Meeting--><g class="entity" data-qualified-name="net.dummy.Meeting" data-source-line="11" id="ent0007"><rect fill="#F1F1F1" height="48" rx="2.5" ry="2.5" style="stroke:#181818;stroke-width:0.5;" width="88.4443" x="45.78" y="149"/><ellipse cx="60.78" cy="165" fill="#ADD1B2" rx="11" ry="11" style="stroke:#181818;stroke-width:1;"/><path d="M63.7488,170.6406 Q63.1706,170.9375 62.53,171.0781 Q61.8894,171.2344 61.1863,171.2344 Q58.6863,171.2344 57.3581,169.5938 Q56.0456,167.9375 56.0456,164.8125 Q56.0456,161.6875 57.3581,160.0313 Q58.6863,158.375 61.1863,158.375 Q61.8894,158.375 62.53,158.5313 Q63.1863,158.6875 63.7488,158.9844 L63.7488,161.7031 Q63.1238,161.125 62.53,160.8594 Q61.9363,160.5781 61.3113,160.5781 Q59.9675,160.5781 59.28,161.6563 Q58.5925,162.7188 58.5925,164.8125 Q58.5925,166.9063 59.28,167.9844 Q59.9675,169.0469 61.3113,169.0469 Q61.9363,169.0469 62.53,168.7813 Q63.1238,168.5 63.7488,167.9219 L63.7488,170.6406 Z " fill="#000000"/><text fill="#000000" font-family="sans-serif" font-size="14" lengthAdjust="spacing" textLength="56.4443" x="74.78" y="169.8467">Meeting</text><line style="stroke:#181818;stroke-width:0.5;" x1="46.78" x2="133.2243" y1="181" y2="181"/><line style="stroke:#181818;stroke-width:0.5;" x1="46.78" x2="133.2243" y1="189" y2="189"/></g><path d="M316.84,146.71 L343.1671,146.71 A3.75,3.75 0 0 1 345.6671,149.21 L352.6671,169.0069 L357.1671,169.0069 A2.5,2.5 0 0 1 359.6671,171.5069 L359.6671,196.8038 A2.5,2.5 0 0 1 357.1671,199.3038 L316.84,199.3038 A2.5,2.5 0 0 1 314.34,196.8038 L314.34,149.21 A2.5,2.5 0 0 1 316.84,146.71" fill="#F1F1F1" style="stroke:#181818;stroke-width:0.5;"/><line style="stroke:#181818;stroke-width:0.5;" x1="314.34" x2="352.6671" y1="169.0069" y2="169.0069"/><text fill="#000000" font-family="sans-serif" font-size="14" font-weight="700" lengthAdjust="spacing" textLength="25.3271" x="318.34" y="161.7051">foo</text><!--class Person--><g class="entity" data-qualified-name="net.unused.Person" data-source-line="24" id="ent0014"><rect fill="#F1F1F1" height="48" rx="2.5" ry="2.5" style="stroke:#181818;stroke-width:0.5;" width="79.5439" x="200.23" y="149"/><ellipse cx="215.23" cy="165" fill="#ADD1B2" rx="11" ry="11" style="stroke:#181818;stroke-width:1;"/><path d="M218.1988,170.6406 Q217.6206,170.9375 216.98,171.0781 Q216.3394,171.2344 215.6363,171.2344 Q213.1363,171.2344 211.8081,169.5938 Q210.4956,167.9375 210.4956,164.8125 Q210.4956,161.6875 211.8081,160.0313 Q213.1363,158.375 215.6363,158.375 Q216.3394,158.375 216.98,158.5313 Q217.6363,158.6875 218.1988,158.9844 L218.1988,161.7031 Q217.5738,161.125 216.98,160.8594 Q216.3863,160.5781 215.7613,160.5781 Q214.4175,160.5781 213.73,161.6563 Q213.0425,162.7188 213.0425,164.8125 Q213.0425,166.9063 213.73,167.9844 Q214.4175,169.0469 215.7613,169.0469 Q216.3863,169.0469 216.98,168.7813 Q217.5738,168.5 218.1988,167.9219 L218.1988,170.6406 Z " fill="#000000"/><text fill="#000000" font-family="sans-serif" font-size="14" lengthAdjust="spacing" textLength="47.5439" x="229.23" y="169.8467">Person</text><line style="stroke:#181818;stroke-width:0.5;" x1="201.23" x2="278.7739" y1="181" y2="181"/><line style="stroke:#181818;stroke-width:0.5;" x1="201.23" x2="278.7739" y1="189" y2="189"/></g><!--class BaseClass--><g class="entity" data-qualified-name="BaseClass" data-source-line="7" id="ent0002"><rect fill="#F1F1F1" height="48" rx="2.5" ry="2.5" style="stroke:#181818;stroke-width:0.5;" width="102.9229" x="378.54" y="7"/><ellipse cx="393.54" cy="23" fill="#ADD1B2" rx="11" ry="11" style="stroke:#181818;stroke-width:1;"/><path d="M396.5088,28.6406 Q395.9306,28.9375 395.29,29.0781 Q394.6494,29.2344 393.9463,29.2344 Q391.4463,29.2344 390.1181,27.5938 Q388.8056,25.9375 388.8056,22.8125 Q388.8056,19.6875 390.1181,18.0313 Q391.4463,16.375 393.9463,16.375 Q394.6494,16.375 395.29,16.5313 Q395.9463,16.6875 396.5088,16.9844 L396.5088,19.7031 Q395.8838,19.125 395.29,18.8594 Q394.6963,18.5781 394.0713,18.5781 Q392.7275,18.5781 392.04,19.6563 Q391.3525,20.7188 391.3525,22.8125 Q391.3525,24.9063 392.04,25.9844 Q392.7275,27.0469 394.0713,27.0469 Q394.6963,27.0469 395.29,26.7813 Q395.8838,26.5 396.5088,25.9219 L396.5088,28.6406 Z " fill="#000000"/><text fill="#000000" font-family="sans-serif" font-size="14" lengthAdjust="spacing" textLength="70.9229" x="407.54" y="27.8467">BaseClass</text><line style="stroke:#181818;stroke-width:0.5;" x1="379.54" x2="480.4629" y1="39" y2="39"/><line style="stroke:#181818;stroke-width:0.5;" x1="379.54" x2="480.4629" y1="47" y2="47"/></g><!--reverse link BaseClass to Person--><g class="link" data-entity-1="ent0002" data-entity-2="ent0004" data-link-type="extension" data-source-line="10" id="lnk6"><path codeLine="10" d="M417.123,73.0538 C409.893,113.1138 406.05,177.14 359,221 C324.89,252.81 193.71,270.3 126.05,277.81" fill="none" id="BaseClass-backto-Person" style="stroke:#181818;stroke-width:1;"/><polygon fill="none" points="420.32,55.34,411.2184,71.9882,423.0276,74.1195,420.32,55.34" style="stroke:#181818;stroke-width:1;"/></g><!--reverse link BaseClass to Person--><g class="link" data-entity-1="ent0002" data-entity-2="ent0004" data-link-type="extension" data-source-line="19" id="lnk12"><path codeLine="19" d="M444.3308,73.0898 C451.0808,113.1498 441.05,177.14 394,221 C356.46,256.01 201.31,273.68 126.14,279.78" fill="none" id="BaseClass-backto-Person-1" style="stroke:#181818;stroke-width:1;"/><polygon fill="none" points="441.34,55.34,438.4142,74.0867,450.2474,72.0929,441.34,55.34" style="stroke:#181818;stroke-width:1;"/></g><!--reverse link Meeting to Person--><g class="link" data-entity-1="ent0007" data-entity-2="ent0004" data-link-type="aggregation" data-source-line="11" id="lnk8"><path codeLine="11" d="M76.2154,209.2976 C72.8354,227.4676 74.11,240.69 76.15,258.85" fill="none" id="Meeting-backto-Person" style="stroke:#181818;stroke-width:1;"/><polygon fill="none" points="78.41,197.5,73.3802,202.6673,76.2154,209.2976,81.2452,204.1303,78.41,197.5" style="stroke:#181818;stroke-width:1;"/></g><!--reverse link Meeting to Person--><g class="link" data-entity-1="ent0007" data-entity-2="ent0004" data-link-type="aggregation" data-source-line="21" id="lnk13"><path codeLine="21" d="M101.9259,209.4138 C104.1159,227.5838 101.75,240.69 98.22,258.85" fill="none" id="Meeting-backto-Person-1" style="stroke:#181818;stroke-width:1;"/><polygon fill="none" points="100.49,197.5,97.2367,203.9355,101.9259,209.4138,105.1792,202.9782,100.49,197.5" style="stroke:#181818;stroke-width:1;"/></g><!--reverse link BaseClass to Meeting--><g class="link" data-entity-1="ent0002" data-entity-2="ent0007" data-link-type="extension" data-source-line="13" id="lnk9"><path codeLine="13" d="M360.2164,35.1637 C298.1964,38.5237 216.58,45.53 184,63 C147.22,82.73 118.43,123.1 102.85,148.79" fill="none" id="BaseClass-backto-Meeting" style="stroke:#181818;stroke-width:1;"/><polygon fill="none" points="378.19,34.19,359.8918,29.1725,360.5409,41.155,378.19,34.19" style="stroke:#181818;stroke-width:1;"/></g><!--reverse link Person to Person--><g class="link" data-entity-1="ent0004" data-entity-2="ent0004" data-link-type="extension" data-source-line="18" id="lnk11"><path codeLine="18" d="M143.8737,260.9017 C162.4337,258.6917 160.77,267.57 160.77,283.3 C160.77,299.03 144.56,305.78 126,303.57" fill="none" id="Person-backto-Person" style="stroke:#181818;stroke-width:1;"/><polygon fill="none" points="126,263.03,144.5832,266.8596,143.1643,254.9438,126,263.03" style="stroke:#181818;stroke-width:1;"/></g><!--reverse link BaseClass to Person--><g class="link" data-entity-1="ent0002" data-entity-2="ent0014" data-link-type="extension" data-source-line="24" id="lnk16"><path codeLine="24" d="M360.2406,40.302 C324.2506,45.292 298.19,51.09 284,63 C258.21,84.65 247.38,123.67 242.95,148.68" fill="none" id="BaseClass-backto-Person-2" style="stroke:#181818;stroke-width:1;"/><polygon fill="none" points="378.07,37.83,359.4165,34.3589,361.0646,46.2452,378.07,37.83" style="stroke:#181818;stroke-width:1;"/></g><?plantuml-src TOxF2i8m3CRlUOg01qyE5O-U_7CK19yWRh6KTMbfEr3KTzTLdLXc3Y7a-xxyCiQ3CpgYbcXnWOuK1-Wwpizp2BKMHvwQ9Ep8AoqucsRxxJco5p9hQwn7vUcI6LRML-nVyj5GMGEKXaB05GLUTnE0KCF1KSae78kgRPeBZZQfy0huhA9tu_8scU2UVR2If1rprABGVjS3aOyDu9xpJjOcIiykNcSmvNhIdnT-WWE_F75PiBEtqWQktg07?></g></svg>