<svg xmlns="http://www.w3.org/2000/svg" xmlns:xlink="http://www.w3.org/1999/xlink" contentStyleType="text/css" data-diagram-type="CLASS" height="89px" preserveAspectRatio="none" style="width:319px;height:89px;background:#FFFFFF;" version="1.1" viewBox="0 0 319 89" width="319px" zoomAndPan="magnify"><?plantuml 1.2026.3beta5?><defs/><g><!--class Foo--><g class="entity" data-qualified-name="Foo" data-source-line="1" id="ent0002"><rect fill="#F1F1F1" height="64.2969" rx="2.5" ry="2.5" style="stroke:#181818;stroke-width:0.5;" width="172.9102" x="7" y="10"/><ellipse cx="22" cy="26" fill="#ADD1B2" rx="11" ry="11" style="stroke:#181818;stroke-width:1;"/><path d="M24.9688,31.6406 Q24.3906,31.9375 23.75,32.0781 Q23.1094,32.2344 22.4063,32.2344 Q19.9063,32.2344 18.5781,30.5938 Q17.2656,28.9375 17.2656,25.8125 Q17.2656,22.6875 18.5781,21.0313 Q19.9063,19.375 22.4063,19.375 Q23.1094,19.375 23.75,19.5313 Q24.4063,19.6875 24.9688,19.9844 L24.9688,22.7031 Q24.3438,22.125 23.75,21.8594 Q23.1563,21.5781 22.5313,21.5781 Q21.1875,21.5781 20.5,22.6563 Q19.8125,23.7188 19.8125,25.8125 Q19.8125,27.9063 20.5,28.9844 Q21.1875,30.0469 22.5313,30.0469 Q23.1563,30.0469 23.75,29.7813 Q24.3438,29.5 24.9688,28.9219 L24.9688,31.6406 Z " fill="#000000"/><text fill="#000000" font-family="sans-serif" font-size="14" lengthAdjust="spacing" textLength="25.1836" x="36" y="30.8467">Foo</text><rect fill="#FFFFFF" height="15.9688" style="stroke:#181818;stroke-width:1;stroke-dasharray:2,2;" width="113.7266" x="69.1836" y="7"/><text fill="#000000" font-family="sans-serif" font-size="12" font-style="italic" lengthAdjust="spacing" textLength="111.7266" x="70.1836" y="19.1387">? extends Element</text><line style="stroke:#181818;stroke-width:0.5;" x1="8" x2="178.9102" y1="42" y2="42"/><line style="stroke:#181818;stroke-width:0.5;" x1="8" x2="178.9102" y1="50" y2="50"/><text fill="#000000" font-family="sans-serif" font-size="14" lengthAdjust="spacing" textLength="60.7715" x="13" y="66.9951">int size()</text></g><!--class Element--><g class="entity" data-qualified-name="Element" data-source-line="4" id="ent0003"><rect fill="#F1F1F1" height="48" rx="2.5" ry="2.5" style="stroke:#181818;stroke-width:0.5;" width="89.9619" x="214.47" y="18.15"/><ellipse cx="229.47" cy="34.15" fill="#ADD1B2" rx="11" ry="11" style="stroke:#181818;stroke-width:1;"/><path d="M232.4388,39.7906 Q231.8606,40.0875 231.22,40.2281 Q230.5794,40.3844 229.8763,40.3844 Q227.3763,40.3844 226.0481,38.7438 Q224.7356,37.0875 224.7356,33.9625 Q224.7356,30.8375 226.0481,29.1813 Q227.3763,27.525 229.8763,27.525 Q230.5794,27.525 231.22,27.6813 Q231.8763,27.8375 232.4388,28.1344 L232.4388,30.8531 Q231.8138,30.275 231.22,30.0094 Q230.6263,29.7281 230.0013,29.7281 Q228.6575,29.7281 227.97,30.8063 Q227.2825,31.8688 227.2825,33.9625 Q227.2825,36.0563 227.97,37.1344 Q228.6575,38.1969 230.0013,38.1969 Q230.6263,38.1969 231.22,37.9313 Q231.8138,37.65 232.4388,37.0719 L232.4388,39.7906 Z " fill="#000000"/><text fill="#000000" font-family="sans-serif" font-size="14" lengthAdjust="spacing" textLength="57.9619" x="243.47" y="38.9967">Element</text><line style="stroke:#181818;stroke-width:0.5;" x1="215.47" x2="303.4319" y1="50.15" y2="50.15"/><line style="stroke:#181818;stroke-width:0.5;" x1="215.47" x2="303.4319" y1="58.15" y2="58.15"/></g><!--reverse link Foo to Element--><g class="link" data-entity-1="ent0002" data-entity-2="ent0003" data-link-type="composition" data-source-line="4" id="lnk4"><path codeLine="4" d="M192.35,42.15 C203.57,42.15 202.8,42.15 214.03,42.15" fill="none" id="Foo-backto-Element" style="stroke:#181818;stroke-width:1;"/><polygon fill="#181818" points="180.35,42.15,186.35,46.15,192.35,42.15,186.35,38.15,180.35,42.15" style="stroke:#181818;stroke-width:1;"/></g><?plantuml-src Iyv9B2vMSClFjx5NIAqeISrBALPmpKdDJSqhiLEevb9GoCmhKIZEh4hLqEIgvGAgKz3IXIa00000?></g></svg>