<svg xmlns="http://www.w3.org/2000/svg" xmlns:xlink="http://www.w3.org/1999/xlink" contentStyleType="text/css" data-diagram-type="CLASS" height="195px" preserveAspectRatio="none" style="width:375px;height:195px;background:#FFFFFF;" version="1.1" viewBox="0 0 375 195" width="375px" zoomAndPan="magnify"><?plantuml 1.2026.3beta5?><defs/><g><!--class class1--><g class="entity" data-qualified-name="class1" data-source-line="1" id="ent0002"><rect fill="#F1F1F1" height="48" rx="2.5" ry="2.5" style="stroke:#181818;stroke-width:0.5;" width="141.8193" x="7" y="7"/><ellipse cx="22" cy="23" fill="#ADD1B2" rx="11" ry="11" style="stroke:#181818;stroke-width:1;"/><path d="M24.9688,28.6406 Q24.3906,28.9375 23.75,29.0781 Q23.1094,29.2344 22.4063,29.2344 Q19.9063,29.2344 18.5781,27.5938 Q17.2656,25.9375 17.2656,22.8125 Q17.2656,19.6875 18.5781,18.0313 Q19.9063,16.375 22.4063,16.375 Q23.1094,16.375 23.75,16.5313 Q24.4063,16.6875 24.9688,16.9844 L24.9688,19.7031 Q24.3438,19.125 23.75,18.8594 Q23.1563,18.5781 22.5313,18.5781 Q21.1875,18.5781 20.5,19.6563 Q19.8125,20.7188 19.8125,22.8125 Q19.8125,24.9063 20.5,25.9844 Q21.1875,27.0469 22.5313,27.0469 Q23.1563,27.0469 23.75,26.7813 Q24.3438,26.5 24.9688,25.9219 L24.9688,28.6406 Z " fill="#000000"/><text fill="#000000" font-family="sans-serif" font-size="14" lengthAdjust="spacing" textLength="109.8193" x="36" y="27.8467">This is my class</text><line style="stroke:#181818;stroke-width:0.5;" x1="8" x2="147.8193" y1="39" y2="39"/><line style="stroke:#181818;stroke-width:0.5;" x1="8" x2="147.8193" y1="47" y2="47"/></g><!--class class2--><g class="entity" data-qualified-name="class2" data-source-line="2" id="ent0003"><rect fill="#F1F1F1" height="48" rx="2.5" ry="2.5" style="stroke:#181818;stroke-width:0.5;" width="177.0723" x="183.37" y="7"/><ellipse cx="198.37" cy="23" fill="#ADD1B2" rx="11" ry="11" style="stroke:#181818;stroke-width:1;"/><path d="M201.3388,28.6406 Q200.7606,28.9375 200.12,29.0781 Q199.4794,29.2344 198.7763,29.2344 Q196.2763,29.2344 194.9481,27.5938 Q193.6356,25.9375 193.6356,22.8125 Q193.6356,19.6875 194.9481,18.0313 Q196.2763,16.375 198.7763,16.375 Q199.4794,16.375 200.12,16.5313 Q200.7763,16.6875 201.3388,16.9844 L201.3388,19.7031 Q200.7138,19.125 200.12,18.8594 Q199.5263,18.5781 198.9013,18.5781 Q197.5575,18.5781 196.87,19.6563 Q196.1825,20.7188 196.1825,22.8125 Q196.1825,24.9063 196.87,25.9844 Q197.5575,27.0469 198.9013,27.0469 Q199.5263,27.0469 200.12,26.7813 Q200.7138,26.5 201.3388,25.9219 L201.3388,28.6406 Z " fill="#000000"/><text fill="#000000" font-family="sans-serif" font-size="14" lengthAdjust="spacing" textLength="145.0723" x="212.37" y="27.8467">It works this way too</text><line style="stroke:#181818;stroke-width:0.5;" x1="184.37" x2="359.4423" y1="39" y2="39"/><line style="stroke:#181818;stroke-width:0.5;" x1="184.37" x2="359.4423" y1="47" y2="47"/></g><!--class foo/dummy--><g class="entity" data-qualified-name="foo.dummy" data-source-line="4" id="ent0004"><rect fill="#F1F1F1" height="48" rx="2.5" ry="2.5" style="stroke:#181818;stroke-width:0.5;" width="112.0967" x="215.86" y="132"/><ellipse cx="230.86" cy="148" fill="#ADD1B2" rx="11" ry="11" style="stroke:#181818;stroke-width:1;"/><path d="M233.8288,153.6406 Q233.2506,153.9375 232.61,154.0781 Q231.9694,154.2344 231.2663,154.2344 Q228.7663,154.2344 227.4381,152.5938 Q226.1256,150.9375 226.1256,147.8125 Q226.1256,144.6875 227.4381,143.0313 Q228.7663,141.375 231.2663,141.375 Q231.9694,141.375 232.61,141.5313 Q233.2663,141.6875 233.8288,141.9844 L233.8288,144.7031 Q233.2038,144.125 232.61,143.8594 Q232.0163,143.5781 231.3913,143.5781 Q230.0475,143.5781 229.36,144.6563 Q228.6725,145.7188 228.6725,147.8125 Q228.6725,149.9063 229.36,150.9844 Q230.0475,152.0469 231.3913,152.0469 Q232.0163,152.0469 232.61,151.7813 Q233.2038,151.5 233.8288,150.9219 L233.8288,153.6406 Z " fill="#000000"/><text fill="#000000" font-family="sans-serif" font-size="14" lengthAdjust="spacing" textLength="80.0967" x="244.86" y="152.8467">foo/dummy</text><line style="stroke:#181818;stroke-width:0.5;" x1="216.86" x2="326.9567" y1="164" y2="164"/><line style="stroke:#181818;stroke-width:0.5;" x1="216.86" x2="326.9567" y1="172" y2="172"/></g><!--reverse link class2 to foo/dummy--><g class="link" data-entity-1="ent0003" data-entity-2="ent0004" data-link-type="composition" data-source-line="4" id="lnk5"><path codeLine="4" d="M271.91,67.42 C271.91,89.31 271.91,109.8 271.91,131.66" fill="none" id="class2-backto-foo/dummy" style="stroke:#181818;stroke-width:1;"/><polygon fill="#181818" points="271.91,55.42,267.91,61.42,271.91,67.42,275.91,61.42,271.91,55.42" style="stroke:#181818;stroke-width:1;"/><text fill="#000000" font-family="sans-serif" font-size="13" lengthAdjust="spacing" textLength="23.0103" x="272.91" y="98.0669">use</text></g><?plantuml-src Iyv9B2vMK0h9o2nM0ABSIeLaa8YIGc8nX6N81QOW72EGi99dYK9vVb5siK89I5TvOgL2INw-4XSNL8cMhgw2Kbf-ldvAQMvkfPA2bK9fSIe0?></g></svg>