<svg xmlns="http://www.w3.org/2000/svg" xmlns:xlink="http://www.w3.org/1999/xlink" contentStyleType="text/css" data-diagram-type="CLASS" height="116px" preserveAspectRatio="none" style="width:109px;height:116px;background:#FFFFFF;" version="1.1" viewBox="0 0 109 116" width="109px" zoomAndPan="magnify"><?plantuml 1.2026.3beta5?><defs/><g><!--class Dummy--><g class="entity" data-qualified-name="Dummy" data-source-line="1" id="ent0002"><rect fill="#F1F1F1" height="96.8906" rx="2.5" ry="2.5" style="stroke:#181818;stroke-width:0.5;" width="89.8682" x="7" y="7"/><ellipse cx="23.1944" cy="23" fill="#ADD1B2" rx="11" ry="11" style="stroke:#181818;stroke-width:1;"/><path d="M26.1632,28.6406 Q25.5851,28.9375 24.9444,29.0781 Q24.3038,29.2344 23.6007,29.2344 Q21.1007,29.2344 19.7726,27.5938 Q18.4601,25.9375 18.4601,22.8125 Q18.4601,19.6875 19.7726,18.0313 Q21.1007,16.375 23.6007,16.375 Q24.3038,16.375 24.9444,16.5313 Q25.6007,16.6875 26.1632,16.9844 L26.1632,19.7031 Q25.5382,19.125 24.9444,18.8594 Q24.3507,18.5781 23.7257,18.5781 Q22.3819,18.5781 21.6944,19.6563 Q21.0069,20.7188 21.0069,22.8125 Q21.0069,24.9063 21.6944,25.9844 Q22.3819,27.0469 23.7257,27.0469 Q24.3507,27.0469 24.9444,26.7813 Q25.5382,26.5 26.1632,25.9219 L26.1632,28.6406 Z " fill="#000000"/><text fill="#000000" font-family="sans-serif" font-size="14" lengthAdjust="spacing" textLength="55.2139" x="37.4599" y="27.8467">Dummy</text><line style="stroke:#181818;stroke-width:0.5;" x1="8" x2="95.8682" y1="39" y2="39"/><text fill="#000000" font-family="sans-serif" font-size="14" lengthAdjust="spacing" textLength="39.1152" x="13" y="55.9951">field1</text><line style="stroke:#181818;stroke-width:0.5;" x1="8" x2="95.8682" y1="63.2969" y2="63.2969"/><text fill="#000000" font-family="sans-serif" font-size="14" lengthAdjust="spacing" textLength="77.8682" x="13" y="80.292">~Dummy()</text><text fill="#000000" font-family="sans-serif" font-size="14" lengthAdjust="spacing" textLength="73.8965" x="13" y="96.5889">method1()</text></g><?plantuml-src Iyv9B2vMS2dDpQrKgEPIICjCpKanv5A8gGCBQMXoAUIcbcJafnW2cRK0?></g></svg>