<svg xmlns="http://www.w3.org/2000/svg" xmlns:xlink="http://www.w3.org/1999/xlink" contentStyleType="text/css" data-diagram-type="CLASS" height="133px" preserveAspectRatio="none" style="width:119px;height:133px;background:#FFFFFF;" version="1.1" viewBox="0 0 119 133" width="119px" zoomAndPan="magnify"><?plantuml 1.2026.3beta5?><defs/><g><!--class Dummy--><g class="entity" data-qualified-name="Dummy" data-source-line="1" id="ent0002"><rect fill="#F1F1F1" height="113.1875" rx="2.5" ry="2.5" style="stroke:#181818;stroke-width:0.5;" width="99.8965" x="7" y="7"/><ellipse cx="27.7072" cy="23" fill="#ADD1B2" rx="11" ry="11" style="stroke:#181818;stroke-width:1;"/><path d="M30.6759,28.6406 Q30.0978,28.9375 29.4572,29.0781 Q28.8166,29.2344 28.1134,29.2344 Q25.6134,29.2344 24.2853,27.5938 Q22.9728,25.9375 22.9728,22.8125 Q22.9728,19.6875 24.2853,18.0313 Q25.6134,16.375 28.1134,16.375 Q28.8166,16.375 29.4572,16.5313 Q30.1134,16.6875 30.6759,16.9844 L30.6759,19.7031 Q30.0509,19.125 29.4572,18.8594 Q28.8634,18.5781 28.2384,18.5781 Q26.8947,18.5781 26.2072,19.6563 Q25.5197,20.7188 25.5197,22.8125 Q25.5197,24.9063 26.2072,25.9844 Q26.8947,27.0469 28.2384,27.0469 Q28.8634,27.0469 29.4572,26.7813 Q30.0509,26.5 30.6759,25.9219 L30.6759,28.6406 Z " fill="#000000"/><text fill="#000000" font-family="sans-serif" font-size="14" lengthAdjust="spacing" textLength="55.2139" x="42.9754" y="27.8467">Dummy</text><line style="stroke:#181818;stroke-width:0.5;" x1="8" x2="105.8965" y1="39" y2="39"/><g data-visibility-modifier="PRIVATE_FIELD"><rect fill="none" height="6" style="stroke:#C82930;stroke-width:1;" width="6" x="15" y="49.6484"/></g><text fill="#000000" font-family="sans-serif" font-size="14" lengthAdjust="spacing" textLength="39.1152" x="27" y="55.9951">field1</text><g data-visibility-modifier="PROTECTED_FIELD"><polygon fill="none" points="18,63.9453,22,67.9453,18,71.9453,14,67.9453" style="stroke:#B38D22;stroke-width:1;"/></g><text fill="#000000" font-family="sans-serif" font-size="14" lengthAdjust="spacing" textLength="39.1152" x="27" y="72.292">field2</text><line style="stroke:#181818;stroke-width:0.5;" x1="8" x2="105.8965" y1="79.5938" y2="79.5938"/><g data-visibility-modifier="PACKAGE_PRIVATE_METHOD"><polygon fill="#4177AF" points="18,89.2422,14,95.2422,22,95.2422" style="stroke:#1963A0;stroke-width:1;"/></g><text fill="#000000" font-family="sans-serif" font-size="14" lengthAdjust="spacing" textLength="73.8965" x="27" y="96.5889">method1()</text><g data-visibility-modifier="PUBLIC_METHOD"><ellipse cx="18" cy="109.5391" fill="#84BE84" rx="3" ry="3" style="stroke:#038048;stroke-width:1;"/></g><text fill="#000000" font-family="sans-serif" font-size="14" lengthAdjust="spacing" textLength="73.8965" x="27" y="112.8857">method2()</text></g><?plantuml-src Iyv9B2vMS2dDpQrKgEPIq4tBJCr9CUHIK0OpZBWKwd9JIpBoKmmrDBaKj25i8o2x5W00?></g></svg>