<svg xmlns="http://www.w3.org/2000/svg" xmlns:xlink="http://www.w3.org/1999/xlink" contentStyleType="text/css" data-diagram-type="CLASS" height="133px" preserveAspectRatio="none" style="width:117px;height:133px;background:#FFFFFF;" version="1.1" viewBox="0 0 117 133" width="117px" zoomAndPan="magnify"><?plantuml 1.2026.3beta5?><defs/><g><!--class Dummy--><g class="entity" data-qualified-name="Dummy" data-source-line="2" id="ent0002"><rect fill="#F1F1F1" height="113.1875" rx="2.5" ry="2.5" style="stroke:#181818;stroke-width:0.5;" width="97.627" x="7" y="7"/><ellipse cx="26.6859" cy="23" fill="#ADD1B2" rx="11" ry="11" style="stroke:#181818;stroke-width:1;"/><path d="M29.6546,28.6406 Q29.0765,28.9375 28.4359,29.0781 Q27.7953,29.2344 27.0921,29.2344 Q24.5921,29.2344 23.264,27.5938 Q21.9515,25.9375 21.9515,22.8125 Q21.9515,19.6875 23.264,18.0313 Q24.5921,16.375 27.0921,16.375 Q27.7953,16.375 28.4359,16.5313 Q29.0921,16.6875 29.6546,16.9844 L29.6546,19.7031 Q29.0296,19.125 28.4359,18.8594 Q27.8421,18.5781 27.2171,18.5781 Q25.8734,18.5781 25.1859,19.6563 Q24.4984,20.7188 24.4984,22.8125 Q24.4984,24.9063 25.1859,25.9844 Q25.8734,27.0469 27.2171,27.0469 Q27.8421,27.0469 28.4359,26.7813 Q29.0296,26.5 29.6546,25.9219 L29.6546,28.6406 Z " fill="#000000"/><text fill="#000000" font-family="sans-serif" font-size="14" lengthAdjust="spacing" textLength="55.2139" x="41.7272" y="27.8467">Dummy</text><line style="stroke:#181818;stroke-width:0.5;" x1="8" x2="103.627" y1="39" y2="39"/><text fill="#000000" font-family="sans-serif" font-size="14" lengthAdjust="spacing" textLength="44.167" x="13" y="55.9951">-field1</text><text fill="#000000" font-family="sans-serif" font-size="14" lengthAdjust="spacing" textLength="50.8457" x="13" y="72.292">#field2</text><line style="stroke:#181818;stroke-width:0.5;" x1="8" x2="103.627" y1="79.5938" y2="79.5938"/><text fill="#000000" font-family="sans-serif" font-size="14" lengthAdjust="spacing" textLength="85.627" x="13" y="96.5889">~method1()</text><text fill="#000000" font-family="sans-serif" font-size="14" lengthAdjust="spacing" textLength="85.627" x="13" y="112.8857">+method2()</text></g><?plantuml-src AyxEp2j8B4hCLKZEIImkTYmfASfCAYr9zKpEpmlEh4fLCE02IoYubERcLYfKSodefcMcvgGOSYaeWnb6N0frkQab6VafXXgQN0hQ4BOHa5qB0000?></g></svg>