<svg xmlns="http://www.w3.org/2000/svg" xmlns:xlink="http://www.w3.org/1999/xlink" contentStyleType="text/css" data-diagram-type="CLASS" height="178px" preserveAspectRatio="none" style="width:380px;height:178px;background:#FFFFFF;" version="1.1" viewBox="0 0 380 178" width="380px" zoomAndPan="magnify"><?plantuml 1.2026.3beta5?><defs/><g><!--class private Class--><g class="entity" data-qualified-name="private Class" data-source-line="1" id="ent0002"><rect fill="#F1F1F1" height="48" rx="2.5" ry="2.5" style="stroke:#181818;stroke-width:0.5;" width="133.7813" x="38.9" y="7"/><ellipse cx="53.9" cy="23" fill="#ADD1B2" rx="11" ry="11" style="stroke:#181818;stroke-width:1;"/><path d="M56.8688,28.6406 Q56.2906,28.9375 55.65,29.0781 Q55.0094,29.2344 54.3063,29.2344 Q51.8063,29.2344 50.4781,27.5938 Q49.1656,25.9375 49.1656,22.8125 Q49.1656,19.6875 50.4781,18.0313 Q51.8063,16.375 54.3063,16.375 Q55.0094,16.375 55.65,16.5313 Q56.3063,16.6875 56.8688,16.9844 L56.8688,19.7031 Q56.2438,19.125 55.65,18.8594 Q55.0563,18.5781 54.4313,18.5781 Q53.0875,18.5781 52.4,19.6563 Q51.7125,20.7188 51.7125,22.8125 Q51.7125,24.9063 52.4,25.9844 Q53.0875,27.0469 54.4313,27.0469 Q55.0563,27.0469 55.65,26.7813 Q56.2438,26.5 56.8688,25.9219 L56.8688,28.6406 Z " fill="#000000"/><g data-visibility-modifier="PRIVATE_METHOD"><rect fill="#F24D5C" height="6" style="stroke:#C82930;stroke-width:1;" width="6" x="69.9" y="21.5"/></g><text fill="#000000" font-family="sans-serif" font-size="14" lengthAdjust="spacing" textLength="90.7813" x="78.9" y="27.8467">private Class</text><line style="stroke:#181818;stroke-width:0.5;" x1="39.9" x2="171.6813" y1="39" y2="39"/><line style="stroke:#181818;stroke-width:0.5;" x1="39.9" x2="171.6813" y1="47" y2="47"/></g><!--class protected Class--><g class="entity" data-qualified-name="protected Class" data-source-line="4" id="ent0003"><rect fill="#F1F1F1" height="48" rx="2.5" ry="2.5" style="stroke:#181818;stroke-width:0.5;" width="152.2793" x="207.65" y="7"/><ellipse cx="222.65" cy="23" fill="#ADD1B2" rx="11" ry="11" style="stroke:#181818;stroke-width:1;"/><path d="M225.6188,28.6406 Q225.0406,28.9375 224.4,29.0781 Q223.7594,29.2344 223.0563,29.2344 Q220.5563,29.2344 219.2281,27.5938 Q217.9156,25.9375 217.9156,22.8125 Q217.9156,19.6875 219.2281,18.0313 Q220.5563,16.375 223.0563,16.375 Q223.7594,16.375 224.4,16.5313 Q225.0563,16.6875 225.6188,16.9844 L225.6188,19.7031 Q224.9938,19.125 224.4,18.8594 Q223.8063,18.5781 223.1813,18.5781 Q221.8375,18.5781 221.15,19.6563 Q220.4625,20.7188 220.4625,22.8125 Q220.4625,24.9063 221.15,25.9844 Q221.8375,27.0469 223.1813,27.0469 Q223.8063,27.0469 224.4,26.7813 Q224.9938,26.5 225.6188,25.9219 L225.6188,28.6406 Z " fill="#000000"/><g data-visibility-modifier="PROTECTED_METHOD"><polygon fill="#FFFF44" points="241.65,19.5,245.65,23.5,241.65,27.5,237.65,23.5" style="stroke:#B38D22;stroke-width:1;"/></g><text fill="#000000" font-family="sans-serif" font-size="14" lengthAdjust="spacing" textLength="109.2793" x="247.65" y="27.8467">protected Class</text><line style="stroke:#181818;stroke-width:0.5;" x1="208.65" x2="358.9293" y1="39" y2="39"/><line style="stroke:#181818;stroke-width:0.5;" x1="208.65" x2="358.9293" y1="47" y2="47"/></g><!--class package private Class--><g class="entity" data-qualified-name="package private Class" data-source-line="7" id="ent0004"><rect fill="#F1F1F1" height="48" rx="2.5" ry="2.5" style="stroke:#181818;stroke-width:0.5;" width="197.5811" x="7" y="115"/><ellipse cx="22" cy="131" fill="#ADD1B2" rx="11" ry="11" style="stroke:#181818;stroke-width:1;"/><path d="M24.9688,136.6406 Q24.3906,136.9375 23.75,137.0781 Q23.1094,137.2344 22.4063,137.2344 Q19.9063,137.2344 18.5781,135.5938 Q17.2656,133.9375 17.2656,130.8125 Q17.2656,127.6875 18.5781,126.0313 Q19.9063,124.375 22.4063,124.375 Q23.1094,124.375 23.75,124.5313 Q24.4063,124.6875 24.9688,124.9844 L24.9688,127.7031 Q24.3438,127.125 23.75,126.8594 Q23.1563,126.5781 22.5313,126.5781 Q21.1875,126.5781 20.5,127.6563 Q19.8125,128.7188 19.8125,130.8125 Q19.8125,132.9063 20.5,133.9844 Q21.1875,135.0469 22.5313,135.0469 Q23.1563,135.0469 23.75,134.7813 Q24.3438,134.5 24.9688,133.9219 L24.9688,136.6406 Z " fill="#000000"/><g data-visibility-modifier="PACKAGE_PRIVATE_METHOD"><polygon fill="#4177AF" points="41,128.5,37,134.5,45,134.5" style="stroke:#1963A0;stroke-width:1;"/></g><text fill="#000000" font-family="sans-serif" font-size="14" lengthAdjust="spacing" textLength="154.5811" x="47" y="135.8467">package private Class</text><line style="stroke:#181818;stroke-width:0.5;" x1="8" x2="203.5811" y1="147" y2="147"/><line style="stroke:#181818;stroke-width:0.5;" x1="8" x2="203.5811" y1="155" y2="155"/></g><!--class public Class--><g class="entity" data-qualified-name="public Class" data-source-line="10" id="ent0005"><rect fill="#F1F1F1" height="48" rx="2.5" ry="2.5" style="stroke:#181818;stroke-width:0.5;" width="126.4053" x="239.59" y="115"/><ellipse cx="254.59" cy="131" fill="#ADD1B2" rx="11" ry="11" style="stroke:#181818;stroke-width:1;"/><path d="M257.5588,136.6406 Q256.9806,136.9375 256.34,137.0781 Q255.6994,137.2344 254.9963,137.2344 Q252.4963,137.2344 251.1681,135.5938 Q249.8556,133.9375 249.8556,130.8125 Q249.8556,127.6875 251.1681,126.0313 Q252.4963,124.375 254.9963,124.375 Q255.6994,124.375 256.34,124.5313 Q256.9963,124.6875 257.5588,124.9844 L257.5588,127.7031 Q256.9338,127.125 256.34,126.8594 Q255.7463,126.5781 255.1213,126.5781 Q253.7775,126.5781 253.09,127.6563 Q252.4025,128.7188 252.4025,130.8125 Q252.4025,132.9063 253.09,133.9844 Q253.7775,135.0469 255.1213,135.0469 Q255.7463,135.0469 256.34,134.7813 Q256.9338,134.5 257.5588,133.9219 L257.5588,136.6406 Z " fill="#000000"/><g data-visibility-modifier="PUBLIC_METHOD"><ellipse cx="273.59" cy="132.5" fill="#84BE84" rx="3" ry="3" style="stroke:#038048;stroke-width:1;"/></g><text fill="#000000" font-family="sans-serif" font-size="14" lengthAdjust="spacing" textLength="83.4053" x="279.59" y="135.8467">public Class</text><line style="stroke:#181818;stroke-width:0.5;" x1="240.59" x2="364.9953" y1="147" y2="147"/><line style="stroke:#181818;stroke-width:0.5;" x1="240.59" x2="364.9953" y1="155" y2="155"/></g><?plantuml-src qqtEIImkLb0gACeiIon9LN06SPKKghbgkRYKuNBv9Qd99QafAB9rCDd4vEp4z5G5R2PemzIK9kLa9YD90G00?></g></svg>