<svg xmlns="http://www.w3.org/2000/svg" xmlns:xlink="http://www.w3.org/1999/xlink" contentStyleType="text/css" data-diagram-type="CLASS" height="292px" preserveAspectRatio="none" style="width:349px;height:292px;background:#FFFFFF;" version="1.1" viewBox="0 0 349 292" width="349px" zoomAndPan="magnify"><?plantuml 1.2026.3beta5?><defs/><g><!--class Aaa--><g class="entity" data-qualified-name="Aaa" data-source-line="1" id="ent0002"><rect fill="#F1F1F1" height="129.4844" rx="2.5" ry="2.5" style="stroke:#181818;stroke-width:0.5;" width="226.3818" x="67.1" y="7"/><ellipse cx="162.6732" cy="23" fill="#ADD1B2" rx="11" ry="11" style="stroke:#181818;stroke-width:1;"/><path d="M165.642,28.6406 Q165.0639,28.9375 164.4232,29.0781 Q163.7826,29.2344 163.0795,29.2344 Q160.5795,29.2344 159.2514,27.5938 Q157.9389,25.9375 157.9389,22.8125 Q157.9389,19.6875 159.2514,18.0313 Q160.5795,16.375 163.0795,16.375 Q163.7826,16.375 164.4232,16.5313 Q165.0795,16.6875 165.642,16.9844 L165.642,19.7031 Q165.017,19.125 164.4232,18.8594 Q163.8295,18.5781 163.2045,18.5781 Q161.8607,18.5781 161.1732,19.6563 Q160.4857,20.7188 160.4857,22.8125 Q160.4857,24.9063 161.1732,25.9844 Q161.8607,27.0469 163.2045,27.0469 Q163.8295,27.0469 164.4232,26.7813 Q165.017,26.5 165.642,25.9219 L165.642,28.6406 Z " fill="#000000"/><text fill="#000000" font-family="sans-serif" font-size="14" lengthAdjust="spacing" textLength="26.7354" x="183.1732" y="27.8467">Aaa</text><line style="stroke:#181818;stroke-width:0.5;" x1="68.1" x2="292.4818" y1="39" y2="39"/><g data-visibility-modifier="PRIVATE_FIELD"><rect fill="none" height="6" style="stroke:#C82930;stroke-width:1;" width="6" x="75.1" y="49.6484"/></g><text fill="#000000" font-family="sans-serif" font-size="14" lengthAdjust="spacing" textLength="58.5293" x="87.1" y="55.9951">bbb : int</text><g data-visibility-modifier="PUBLIC_FIELD"><ellipse cx="78.1" cy="68.9453" fill="none" rx="3" ry="3" style="stroke:#038048;stroke-width:1;"/></g><text fill="#000000" font-family="sans-serif" font-size="14" lengthAdjust="spacing" textLength="76.8975" x="87.1" y="72.292">ccc : string</text><g data-visibility-modifier="PROTECTED_FIELD"><polygon fill="none" points="78.1,80.2422,82.1,84.2422,78.1,88.2422,74.1,84.2422" style="stroke:#B38D22;stroke-width:1;"/></g><text fill="#000000" font-family="sans-serif" font-size="14" lengthAdjust="spacing" textLength="62.2275" x="87.1" y="88.5889">aa : float</text><line style="stroke:#181818;stroke-width:0.5;" x1="68.1" x2="292.4818" y1="95.8906" y2="95.8906"/><g data-visibility-modifier="PUBLIC_METHOD"><ellipse cx="78.1" cy="109.5391" fill="#84BE84" rx="3" ry="3" style="stroke:#038048;stroke-width:1;"/></g><text fill="#000000" font-family="sans-serif" font-size="14" lengthAdjust="spacing" textLength="200.3818" x="87.1" y="112.8857">void addEntry(mmm : Entry)</text><g data-visibility-modifier="PUBLIC_METHOD"><ellipse cx="78.1" cy="125.8359" fill="#84BE84" rx="3" ry="3" style="stroke:#038048;stroke-width:1;"/></g><text fill="#000000" font-family="sans-serif" font-size="14" lengthAdjust="spacing" textLength="187.9131" x="87.1" y="129.1826">int setFactory(ddd : string)</text></g><!--class Factory--><g class="entity" data-qualified-name="Factory" data-source-line="8" id="ent0003"><rect fill="#F1F1F1" height="64.2969" rx="2.5" ry="2.5" style="stroke:#181818;stroke-width:0.5;" width="94.5918" x="9" y="213.48"/><ellipse cx="28.5751" cy="229.48" fill="#ADD1B2" rx="11" ry="11" style="stroke:#181818;stroke-width:1;"/><path d="M31.5439,235.1206 Q30.9658,235.4175 30.3251,235.5581 Q29.6845,235.7144 28.9814,235.7144 Q26.4814,235.7144 25.1533,234.0737 Q23.8408,232.4175 23.8408,229.2925 Q23.8408,226.1675 25.1533,224.5112 Q26.4814,222.855 28.9814,222.855 Q29.6845,222.855 30.3251,223.0112 Q30.9814,223.1675 31.5439,223.4644 L31.5439,226.1831 Q30.9189,225.605 30.3251,225.3394 Q29.7314,225.0581 29.1064,225.0581 Q27.7626,225.0581 27.0751,226.1362 Q26.3876,227.1987 26.3876,229.2925 Q26.3876,231.3862 27.0751,232.4644 Q27.7626,233.5269 29.1064,233.5269 Q29.7314,233.5269 30.3251,233.2612 Q30.9189,232.98 31.5439,232.4019 L31.5439,235.1206 Z " fill="#000000"/><text fill="#000000" font-family="sans-serif" font-size="14" lengthAdjust="spacing" textLength="52.4248" x="43.5918" y="234.3267">Factory</text><line style="stroke:#181818;stroke-width:0.5;" x1="10" x2="102.5918" y1="245.48" y2="245.48"/><g data-visibility-modifier="PROTECTED_FIELD"><polygon fill="none" points="20,254.1284,24,258.1284,20,262.1284,16,258.1284" style="stroke:#B38D22;stroke-width:1;"/></g><text fill="#000000" font-family="sans-serif" font-size="14" lengthAdjust="spacing" textLength="68.5918" x="29" y="262.4751">fff : string</text><line style="stroke:#181818;stroke-width:0.5;" x1="10" x2="102.5918" y1="269.7769" y2="269.7769"/></g><!--class Entry--><g class="entity" data-qualified-name="Entry" data-source-line="11" id="ent0004"><rect fill="#F1F1F1" height="64.2969" rx="2.5" ry="2.5" style="stroke:#181818;stroke-width:0.5;" width="82.7246" x="138.93" y="213.48"/><ellipse cx="159.994" cy="229.48" fill="#ADD1B2" rx="11" ry="11" style="stroke:#181818;stroke-width:1;"/><path d="M162.9628,235.1206 Q162.3846,235.4175 161.744,235.5581 Q161.1034,235.7144 160.4003,235.7144 Q157.9003,235.7144 156.5721,234.0737 Q155.2596,232.4175 155.2596,229.2925 Q155.2596,226.1675 156.5721,224.5112 Q157.9003,222.855 160.4003,222.855 Q161.1034,222.855 161.744,223.0112 Q162.4003,223.1675 162.9628,223.4644 L162.9628,226.1831 Q162.3378,225.605 161.744,225.3394 Q161.1503,225.0581 160.5253,225.0581 Q159.1815,225.0581 158.494,226.1362 Q157.8065,227.1987 157.8065,229.2925 Q157.8065,231.3862 158.494,232.4644 Q159.1815,233.5269 160.5253,233.5269 Q161.1503,233.5269 161.744,233.2612 Q162.3378,232.98 162.9628,232.4019 L162.9628,235.1206 Z " fill="#000000"/><text fill="#000000" font-family="sans-serif" font-size="14" lengthAdjust="spacing" textLength="37.249" x="175.3416" y="234.3267">Entry</text><line style="stroke:#181818;stroke-width:0.5;" x1="139.93" x2="220.6546" y1="245.48" y2="245.48"/><g data-visibility-modifier="PRIVATE_FIELD"><rect fill="none" height="6" style="stroke:#C82930;stroke-width:1;" width="6" x="146.93" y="256.1284"/></g><text fill="#000000" font-family="sans-serif" font-size="14" lengthAdjust="spacing" textLength="56.7246" x="158.93" y="262.4751">yyy : int</text><line style="stroke:#181818;stroke-width:0.5;" x1="139.93" x2="220.6546" y1="269.7769" y2="269.7769"/></g><!--class Parent--><g class="entity" data-qualified-name="Parent" data-source-line="14" id="ent0005"><rect fill="#F1F1F1" height="48" rx="2.5" ry="2.5" style="stroke:#181818;stroke-width:0.5;" width="77.7529" x="256.42" y="221.63"/><ellipse cx="271.42" cy="237.63" fill="#ADD1B2" rx="11" ry="11" style="stroke:#181818;stroke-width:1;"/><path d="M274.3887,243.2706 Q273.8106,243.5675 273.17,243.7081 Q272.5294,243.8644 271.8262,243.8644 Q269.3262,243.8644 267.9981,242.2237 Q266.6856,240.5675 266.6856,237.4425 Q266.6856,234.3175 267.9981,232.6612 Q269.3262,231.005 271.8262,231.005 Q272.5294,231.005 273.17,231.1612 Q273.8262,231.3175 274.3887,231.6144 L274.3887,234.3331 Q273.7637,233.755 273.17,233.4894 Q272.5762,233.2081 271.9512,233.2081 Q270.6075,233.2081 269.92,234.2862 Q269.2325,235.3487 269.2325,237.4425 Q269.2325,239.5362 269.92,240.6144 Q270.6075,241.6769 271.9512,241.6769 Q272.5762,241.6769 273.17,241.4112 Q273.7637,241.13 274.3887,240.5519 L274.3887,243.2706 Z " fill="#000000"/><text fill="#000000" font-family="sans-serif" font-size="14" lengthAdjust="spacing" textLength="45.7529" x="285.42" y="242.4767">Parent</text><line style="stroke:#181818;stroke-width:0.5;" x1="257.42" x2="333.1729" y1="253.63" y2="253.63"/><line style="stroke:#181818;stroke-width:0.5;" x1="257.42" x2="333.1729" y1="261.63" y2="261.63"/></g><!--link Aaa to Entry--><g class="link" data-entity-1="ent0002" data-entity-2="ent0004" data-link-type="composition" data-source-line="16" id="lnk6"><path codeLine="16" d="M180.3,148.75 C180.3,174.9 180.3,185.96 180.3,207.32" fill="none" id="Aaa-Entry" style="stroke:#181818;stroke-width:1;"/><polygon fill="#181818" points="180.3,136.75,176.3,142.75,180.3,148.75,184.3,142.75,180.3,136.75" style="stroke:#181818;stroke-width:1;"/><polygon fill="#181818" points="180.3,213.32,184.3,204.32,180.3,208.32,176.3,204.32,180.3,213.32" style="stroke:#181818;stroke-width:1;"/><g data-visibility-modifier="PRIVATE_METHOD"><rect fill="none" height="6" style="stroke:#C82930;stroke-width:1;" width="6" x="183.3" y="172.5464"/></g><text fill="#000000" font-family="sans-serif" font-size="13" lengthAdjust="spacing" textLength="45.062" x="193.3" y="179.5469">entries</text><text fill="#000000" font-family="sans-serif" font-size="13" lengthAdjust="spacing" textLength="41.3486" x="135.1094" y="202.1901">1..100</text></g><!--link Aaa to Factory--><g class="link" data-entity-1="ent0002" data-entity-2="ent0003" data-link-type="aggregation" data-source-line="17" id="lnk7"><path codeLine="17" d="M127.1005,146.4828 C108.2405,172.6328 97.8004,187.0941 82.3904,208.4541" fill="none" id="Aaa-Factory" style="stroke:#181818;stroke-width:1;"/><polygon fill="none" points="134.12,136.75,127.366,139.2765,127.1005,146.4828,133.8545,143.9562,134.12,136.75" style="stroke:#181818;stroke-width:1;"/><polygon fill="#181818" points="78.88,213.32,87.3896,208.3615,81.8054,209.2651,80.9018,203.6809,78.88,213.32" style="stroke:#181818;stroke-width:1;"/><g data-visibility-modifier="PROTECTED_METHOD"><polygon fill="none" points="117.3,170.5464,121.3,174.5464,117.3,178.5464,113.3,174.5464" style="stroke:#B38D22;stroke-width:1;"/></g><text fill="#000000" font-family="sans-serif" font-size="13" lengthAdjust="spacing" textLength="45.7793" x="124.3" y="179.5469">factory</text></g><!--link Aaa to Parent--><g class="link" data-entity-1="ent0002" data-entity-2="ent0005" data-link-type="aggregation" data-source-line="18" id="lnk8"><path codeLine="18" d="M233.931,146.6972 C240.841,156.5272 240.88,156.81 247.3,166.48 C259.35,184.66 269.1703,200.6107 278.5603,216.3107" fill="none" id="Aaa-Parent" style="stroke:#181818;stroke-width:1;"/><polygon fill="none" points="227.03,136.88,227.2081,144.0889,233.931,146.6972,233.7529,139.4883,227.03,136.88" style="stroke:#181818;stroke-width:1;"/><polygon fill="#181818" points="281.64,221.46,280.4533,211.6829,279.0736,217.1689,273.5875,215.7892,281.64,221.46" style="stroke:#181818;stroke-width:1;"/><g data-visibility-modifier="PUBLIC_METHOD"><ellipse cx="263.3" cy="175.5464" fill="none" rx="3" ry="3" style="stroke:#038048;stroke-width:1;"/></g><text fill="#000000" font-family="sans-serif" font-size="13" lengthAdjust="spacing" textLength="42.8975" x="270.3" y="179.5469">parent</text></g><?plantuml-src HO_13eCW44JlViL6BxK6erSEJNgmv_u2WZGaAWsG9iJqtxkkK3ajEu-PGSx2UxWB0Li1UDWuZi31h86kZPGIhpuuixveKo7AGSzM9E9ZZGAXrB065o_Big1CStteQ0L-2WyXWqL0AVKth8jl8Qb0KbE9IcjzfcQ6J7FD66EgcUMdS1D6RRZOltDbx0PbtxPzrvNfBGU6Y3EJ9yJkI4xcc7gCfvOiEJHlcdu0?></g></svg>