<svg xmlns="http://www.w3.org/2000/svg" xmlns:xlink="http://www.w3.org/1999/xlink" contentStyleType="text/css" data-diagram-type="CLASS" height="1135px" preserveAspectRatio="none" style="width:275px;height:1135px;background:#FFFFFF;" version="1.1" viewBox="0 0 275 1135" width="275px" zoomAndPan="magnify"><?plantuml 1.2026.3beta5?><defs/><g><!--cluster A--><g class="cluster" data-qualified-name="A" data-source-line="4" id="ent0004"><path d="M8.65,649 L20.485,649 A3.75,3.75 0 0 1 22.985,651.5 L29.985,671.2969 L257.52,671.2969 A2.5,2.5 0 0 1 260.02,673.7969 L260.02,1117.5 A2.5,2.5 0 0 1 257.52,1120 L8.65,1120 A2.5,2.5 0 0 1 6.15,1117.5 L6.15,651.5 A2.5,2.5 0 0 1 8.65,649" fill="none" style="stroke:#000000;stroke-width:1.5;"/><line style="stroke:#000000;stroke-width:1.5;" x1="6.15" x2="29.985" y1="671.2969" y2="671.2969"/><text fill="#000000" font-family="sans-serif" font-size="14" font-weight="700" lengthAdjust="spacing" textLength="10.835" x="10.15" y="663.9951">A</text></g><!--cluster sub_a--><g class="cluster" data-qualified-name="A.sub_a" data-source-line="10" id="ent0010"><path d="M32.65,914 L78.4186,914 A3.75,3.75 0 0 1 80.9186,916.5 L87.9186,936.2969 L233.52,936.2969 A2.5,2.5 0 0 1 236.02,938.7969 L236.02,1093.5 A2.5,2.5 0 0 1 233.52,1096 L32.65,1096 A2.5,2.5 0 0 1 30.15,1093.5 L30.15,916.5 A2.5,2.5 0 0 1 32.65,914" fill="none" style="stroke:#000000;stroke-width:1.5;"/><line style="stroke:#000000;stroke-width:1.5;" x1="30.15" x2="87.9186" y1="936.2969" y2="936.2969"/><text fill="#000000" font-family="sans-serif" font-size="14" font-weight="700" lengthAdjust="spacing" textLength="44.7686" x="34.15" y="928.9951">sub_a</text></g><!--cluster B--><g class="cluster" data-qualified-name="B" data-source-line="17" id="ent0014"><path d="M8.5,154 L20.1709,154 A3.75,3.75 0 0 1 22.6709,156.5 L29.6709,176.2969 L257.68,176.2969 A2.5,2.5 0 0 1 260.18,178.7969 L260.18,622.5 A2.5,2.5 0 0 1 257.68,625 L8.5,625 A2.5,2.5 0 0 1 6,622.5 L6,156.5 A2.5,2.5 0 0 1 8.5,154" fill="none" style="stroke:#000000;stroke-width:1.5;"/><line style="stroke:#000000;stroke-width:1.5;" x1="6" x2="29.6709" y1="176.2969" y2="176.2969"/><text fill="#000000" font-family="sans-serif" font-size="14" font-weight="700" lengthAdjust="spacing" textLength="10.6709" x="10" y="168.9951">B</text></g><!--cluster sub_b--><g class="cluster" data-qualified-name="B.sub_b" data-source-line="23" id="ent0020"><path d="M32.5,419 L78.8428,419 A3.75,3.75 0 0 1 81.3428,421.5 L88.3428,441.2969 L233.68,441.2969 A2.5,2.5 0 0 1 236.18,443.7969 L236.18,598.5 A2.5,2.5 0 0 1 233.68,601 L32.5,601 A2.5,2.5 0 0 1 30,598.5 L30,421.5 A2.5,2.5 0 0 1 32.5,419" fill="none" style="stroke:#000000;stroke-width:1.5;"/><line style="stroke:#000000;stroke-width:1.5;" x1="30" x2="88.3428" y1="441.2969" y2="441.2969"/><text fill="#000000" font-family="sans-serif" font-size="14" font-weight="700" lengthAdjust="spacing" textLength="45.3428" x="34" y="433.9951">sub_b</text></g><!--class a1--><g class="entity" data-qualified-name="A.a1" data-source-line="5" id="ent0005"><rect fill="#F1F1F1" height="48" rx="2.5" ry="2.5" style="stroke:#181818;stroke-width:0.5;" width="49.4863" x="49.8" y="850"/><ellipse cx="64.8" cy="866" fill="#ADD1B2" rx="11" ry="11" style="stroke:#181818;stroke-width:1;"/><path d="M67.7688,871.6406 Q67.1906,871.9375 66.55,872.0781 Q65.9094,872.2344 65.2063,872.2344 Q62.7063,872.2344 61.3781,870.5938 Q60.0656,868.9375 60.0656,865.8125 Q60.0656,862.6875 61.3781,861.0313 Q62.7063,859.375 65.2063,859.375 Q65.9094,859.375 66.55,859.5313 Q67.2063,859.6875 67.7688,859.9844 L67.7688,862.7031 Q67.1438,862.125 66.55,861.8594 Q65.9563,861.5781 65.3313,861.5781 Q63.9875,861.5781 63.3,862.6563 Q62.6125,863.7188 62.6125,865.8125 Q62.6125,867.9063 63.3,868.9844 Q63.9875,870.0469 65.3313,870.0469 Q65.9563,870.0469 66.55,869.7813 Q67.1438,869.5 67.7688,868.9219 L67.7688,871.6406 Z " fill="#000000"/><text fill="#000000" font-family="sans-serif" font-size="14" lengthAdjust="spacing" textLength="17.4863" x="78.8" y="870.8467">a1</text><line style="stroke:#181818;stroke-width:0.5;" x1="50.8" x2="98.2863" y1="882" y2="882"/><line style="stroke:#181818;stroke-width:0.5;" x1="50.8" x2="98.2863" y1="890" y2="890"/></g><!--class a2--><g class="entity" data-qualified-name="A.a2" data-source-line="6" id="ent0006"><rect fill="#F1F1F1" height="48" rx="2.5" ry="2.5" style="stroke:#181818;stroke-width:0.5;" width="49.4863" x="49.8" y="767"/><ellipse cx="64.8" cy="783" fill="#ADD1B2" rx="11" ry="11" style="stroke:#181818;stroke-width:1;"/><path d="M67.7688,788.6406 Q67.1906,788.9375 66.55,789.0781 Q65.9094,789.2344 65.2063,789.2344 Q62.7063,789.2344 61.3781,787.5938 Q60.0656,785.9375 60.0656,782.8125 Q60.0656,779.6875 61.3781,778.0313 Q62.7063,776.375 65.2063,776.375 Q65.9094,776.375 66.55,776.5313 Q67.2063,776.6875 67.7688,776.9844 L67.7688,779.7031 Q67.1438,779.125 66.55,778.8594 Q65.9563,778.5781 65.3313,778.5781 Q63.9875,778.5781 63.3,779.6563 Q62.6125,780.7188 62.6125,782.8125 Q62.6125,784.9063 63.3,785.9844 Q63.9875,787.0469 65.3313,787.0469 Q65.9563,787.0469 66.55,786.7813 Q67.1438,786.5 67.7688,785.9219 L67.7688,788.6406 Z " fill="#000000"/><text fill="#000000" font-family="sans-serif" font-size="14" lengthAdjust="spacing" textLength="17.4863" x="78.8" y="787.8467">a2</text><line style="stroke:#181818;stroke-width:0.5;" x1="50.8" x2="98.2863" y1="799" y2="799"/><line style="stroke:#181818;stroke-width:0.5;" x1="50.8" x2="98.2863" y1="807" y2="807"/></g><!--class a3--><g class="entity" data-qualified-name="A.a3" data-source-line="7" id="ent0007"><rect fill="#F1F1F1" height="48" rx="2.5" ry="2.5" style="stroke:#181818;stroke-width:0.5;" width="49.4863" x="49.8" y="684"/><ellipse cx="64.8" cy="700" fill="#ADD1B2" rx="11" ry="11" style="stroke:#181818;stroke-width:1;"/><path d="M67.7688,705.6406 Q67.1906,705.9375 66.55,706.0781 Q65.9094,706.2344 65.2063,706.2344 Q62.7063,706.2344 61.3781,704.5938 Q60.0656,702.9375 60.0656,699.8125 Q60.0656,696.6875 61.3781,695.0313 Q62.7063,693.375 65.2063,693.375 Q65.9094,693.375 66.55,693.5313 Q67.2063,693.6875 67.7688,693.9844 L67.7688,696.7031 Q67.1438,696.125 66.55,695.8594 Q65.9563,695.5781 65.3313,695.5781 Q63.9875,695.5781 63.3,696.6563 Q62.6125,697.7188 62.6125,699.8125 Q62.6125,701.9063 63.3,702.9844 Q63.9875,704.0469 65.3313,704.0469 Q65.9563,704.0469 66.55,703.7813 Q67.1438,703.5 67.7688,702.9219 L67.7688,705.6406 Z " fill="#000000"/><text fill="#000000" font-family="sans-serif" font-size="14" lengthAdjust="spacing" textLength="17.4863" x="78.8" y="704.8467">a3</text><line style="stroke:#181818;stroke-width:0.5;" x1="50.8" x2="98.2863" y1="716" y2="716"/><line style="stroke:#181818;stroke-width:0.5;" x1="50.8" x2="98.2863" y1="724" y2="724"/></g><!--class a4--><g class="entity" data-qualified-name="A.a4" data-source-line="8" id="ent0008"><rect fill="#F1F1F1" height="48" rx="2.5" ry="2.5" style="stroke:#181818;stroke-width:0.5;" width="49.4863" x="166.89" y="850"/><ellipse cx="181.89" cy="866" fill="#ADD1B2" rx="11" ry="11" style="stroke:#181818;stroke-width:1;"/><path d="M184.8588,871.6406 Q184.2806,871.9375 183.64,872.0781 Q182.9994,872.2344 182.2963,872.2344 Q179.7963,872.2344 178.4681,870.5938 Q177.1556,868.9375 177.1556,865.8125 Q177.1556,862.6875 178.4681,861.0313 Q179.7963,859.375 182.2963,859.375 Q182.9994,859.375 183.64,859.5313 Q184.2963,859.6875 184.8588,859.9844 L184.8588,862.7031 Q184.2338,862.125 183.64,861.8594 Q183.0463,861.5781 182.4213,861.5781 Q181.0775,861.5781 180.39,862.6563 Q179.7025,863.7188 179.7025,865.8125 Q179.7025,867.9063 180.39,868.9844 Q181.0775,870.0469 182.4213,870.0469 Q183.0463,870.0469 183.64,869.7813 Q184.2338,869.5 184.8588,868.9219 L184.8588,871.6406 Z " fill="#000000"/><text fill="#000000" font-family="sans-serif" font-size="14" lengthAdjust="spacing" textLength="17.4863" x="195.89" y="870.8467">a4</text><line style="stroke:#181818;stroke-width:0.5;" x1="167.89" x2="215.3763" y1="882" y2="882"/><line style="stroke:#181818;stroke-width:0.5;" x1="167.89" x2="215.3763" y1="890" y2="890"/></g><!--class a5--><g class="entity" data-qualified-name="A.a5" data-source-line="9" id="ent0009"><rect fill="#F1F1F1" height="48" rx="2.5" ry="2.5" style="stroke:#181818;stroke-width:0.5;" width="49.4863" x="166.89" y="767"/><ellipse cx="181.89" cy="783" fill="#ADD1B2" rx="11" ry="11" style="stroke:#181818;stroke-width:1;"/><path d="M184.8588,788.6406 Q184.2806,788.9375 183.64,789.0781 Q182.9994,789.2344 182.2963,789.2344 Q179.7963,789.2344 178.4681,787.5938 Q177.1556,785.9375 177.1556,782.8125 Q177.1556,779.6875 178.4681,778.0313 Q179.7963,776.375 182.2963,776.375 Q182.9994,776.375 183.64,776.5313 Q184.2963,776.6875 184.8588,776.9844 L184.8588,779.7031 Q184.2338,779.125 183.64,778.8594 Q183.0463,778.5781 182.4213,778.5781 Q181.0775,778.5781 180.39,779.6563 Q179.7025,780.7188 179.7025,782.8125 Q179.7025,784.9063 180.39,785.9844 Q181.0775,787.0469 182.4213,787.0469 Q183.0463,787.0469 183.64,786.7813 Q184.2338,786.5 184.8588,785.9219 L184.8588,788.6406 Z " fill="#000000"/><text fill="#000000" font-family="sans-serif" font-size="14" lengthAdjust="spacing" textLength="17.4863" x="195.89" y="787.8467">a5</text><line style="stroke:#181818;stroke-width:0.5;" x1="167.89" x2="215.3763" y1="799" y2="799"/><line style="stroke:#181818;stroke-width:0.5;" x1="167.89" x2="215.3763" y1="807" y2="807"/></g><!--class sa1--><g class="entity" data-qualified-name="A.sub_a.sa1" data-source-line="11" id="ent0011"><rect fill="#F1F1F1" height="48" rx="2.5" ry="2.5" style="stroke:#181818;stroke-width:0.5;" width="56.7803" x="46.15" y="1032"/><ellipse cx="61.15" cy="1048" fill="#ADD1B2" rx="11" ry="11" style="stroke:#181818;stroke-width:1;"/><path d="M64.1188,1053.6406 Q63.5406,1053.9375 62.9,1054.0781 Q62.2594,1054.2344 61.5563,1054.2344 Q59.0563,1054.2344 57.7281,1052.5938 Q56.4156,1050.9375 56.4156,1047.8125 Q56.4156,1044.6875 57.7281,1043.0313 Q59.0563,1041.375 61.5563,1041.375 Q62.2594,1041.375 62.9,1041.5313 Q63.5563,1041.6875 64.1188,1041.9844 L64.1188,1044.7031 Q63.4938,1044.125 62.9,1043.8594 Q62.3063,1043.5781 61.6813,1043.5781 Q60.3375,1043.5781 59.65,1044.6563 Q58.9625,1045.7188 58.9625,1047.8125 Q58.9625,1049.9063 59.65,1050.9844 Q60.3375,1052.0469 61.6813,1052.0469 Q62.3063,1052.0469 62.9,1051.7813 Q63.4938,1051.5 64.1188,1050.9219 L64.1188,1053.6406 Z " fill="#000000"/><text fill="#000000" font-family="sans-serif" font-size="14" lengthAdjust="spacing" textLength="24.7803" x="75.15" y="1052.8467">sa1</text><line style="stroke:#181818;stroke-width:0.5;" x1="47.15" x2="101.9303" y1="1064" y2="1064"/><line style="stroke:#181818;stroke-width:0.5;" x1="47.15" x2="101.9303" y1="1072" y2="1072"/></g><!--class sa2--><g class="entity" data-qualified-name="A.sub_a.sa2" data-source-line="12" id="ent0012"><rect fill="#F1F1F1" height="48" rx="2.5" ry="2.5" style="stroke:#181818;stroke-width:0.5;" width="56.7803" x="46.15" y="949"/><ellipse cx="61.15" cy="965" fill="#ADD1B2" rx="11" ry="11" style="stroke:#181818;stroke-width:1;"/><path d="M64.1188,970.6406 Q63.5406,970.9375 62.9,971.0781 Q62.2594,971.2344 61.5563,971.2344 Q59.0563,971.2344 57.7281,969.5938 Q56.4156,967.9375 56.4156,964.8125 Q56.4156,961.6875 57.7281,960.0313 Q59.0563,958.375 61.5563,958.375 Q62.2594,958.375 62.9,958.5313 Q63.5563,958.6875 64.1188,958.9844 L64.1188,961.7031 Q63.4938,961.125 62.9,960.8594 Q62.3063,960.5781 61.6813,960.5781 Q60.3375,960.5781 59.65,961.6563 Q58.9625,962.7188 58.9625,964.8125 Q58.9625,966.9063 59.65,967.9844 Q60.3375,969.0469 61.6813,969.0469 Q62.3063,969.0469 62.9,968.7813 Q63.4938,968.5 64.1188,967.9219 L64.1188,970.6406 Z " fill="#000000"/><text fill="#000000" font-family="sans-serif" font-size="14" lengthAdjust="spacing" textLength="24.7803" x="75.15" y="969.8467">sa2</text><line style="stroke:#181818;stroke-width:0.5;" x1="47.15" x2="101.9303" y1="981" y2="981"/><line style="stroke:#181818;stroke-width:0.5;" x1="47.15" x2="101.9303" y1="989" y2="989"/></g><!--class sa3--><g class="entity" data-qualified-name="A.sub_a.sa3" data-source-line="13" id="ent0013"><rect fill="#F1F1F1" height="48" rx="2.5" ry="2.5" style="stroke:#181818;stroke-width:0.5;" width="56.7803" x="163.24" y="1032"/><ellipse cx="178.24" cy="1048" fill="#ADD1B2" rx="11" ry="11" style="stroke:#181818;stroke-width:1;"/><path d="M181.2088,1053.6406 Q180.6306,1053.9375 179.99,1054.0781 Q179.3494,1054.2344 178.6463,1054.2344 Q176.1463,1054.2344 174.8181,1052.5938 Q173.5056,1050.9375 173.5056,1047.8125 Q173.5056,1044.6875 174.8181,1043.0313 Q176.1463,1041.375 178.6463,1041.375 Q179.3494,1041.375 179.99,1041.5313 Q180.6463,1041.6875 181.2088,1041.9844 L181.2088,1044.7031 Q180.5838,1044.125 179.99,1043.8594 Q179.3963,1043.5781 178.7713,1043.5781 Q177.4275,1043.5781 176.74,1044.6563 Q176.0525,1045.7188 176.0525,1047.8125 Q176.0525,1049.9063 176.74,1050.9844 Q177.4275,1052.0469 178.7713,1052.0469 Q179.3963,1052.0469 179.99,1051.7813 Q180.5838,1051.5 181.2088,1050.9219 L181.2088,1053.6406 Z " fill="#000000"/><text fill="#000000" font-family="sans-serif" font-size="14" lengthAdjust="spacing" textLength="24.7803" x="192.24" y="1052.8467">sa3</text><line style="stroke:#181818;stroke-width:0.5;" x1="164.24" x2="219.0203" y1="1064" y2="1064"/><line style="stroke:#181818;stroke-width:0.5;" x1="164.24" x2="219.0203" y1="1072" y2="1072"/></g><!--class b1--><g class="entity" data-qualified-name="B.b1" data-source-line="18" id="ent0015"><rect fill="#F1F1F1" height="48" rx="2.5" ry="2.5" style="stroke:#181818;stroke-width:0.5;" width="49.7939" x="49.65" y="355"/><ellipse cx="64.65" cy="371" fill="#ADD1B2" rx="11" ry="11" style="stroke:#181818;stroke-width:1;"/><path d="M67.6188,376.6406 Q67.0406,376.9375 66.4,377.0781 Q65.7594,377.2344 65.0563,377.2344 Q62.5563,377.2344 61.2281,375.5938 Q59.9156,373.9375 59.9156,370.8125 Q59.9156,367.6875 61.2281,366.0313 Q62.5563,364.375 65.0563,364.375 Q65.7594,364.375 66.4,364.5313 Q67.0563,364.6875 67.6188,364.9844 L67.6188,367.7031 Q66.9938,367.125 66.4,366.8594 Q65.8063,366.5781 65.1813,366.5781 Q63.8375,366.5781 63.15,367.6563 Q62.4625,368.7188 62.4625,370.8125 Q62.4625,372.9063 63.15,373.9844 Q63.8375,375.0469 65.1813,375.0469 Q65.8063,375.0469 66.4,374.7813 Q66.9938,374.5 67.6188,373.9219 L67.6188,376.6406 Z " fill="#000000"/><text fill="#000000" font-family="sans-serif" font-size="14" lengthAdjust="spacing" textLength="17.7939" x="78.65" y="375.8467">b1</text><line style="stroke:#181818;stroke-width:0.5;" x1="50.65" x2="98.4439" y1="387" y2="387"/><line style="stroke:#181818;stroke-width:0.5;" x1="50.65" x2="98.4439" y1="395" y2="395"/></g><!--class b2--><g class="entity" data-qualified-name="B.b2" data-source-line="19" id="ent0016"><rect fill="#F1F1F1" height="48" rx="2.5" ry="2.5" style="stroke:#181818;stroke-width:0.5;" width="49.7939" x="49.65" y="272"/><ellipse cx="64.65" cy="288" fill="#ADD1B2" rx="11" ry="11" style="stroke:#181818;stroke-width:1;"/><path d="M67.6188,293.6406 Q67.0406,293.9375 66.4,294.0781 Q65.7594,294.2344 65.0563,294.2344 Q62.5563,294.2344 61.2281,292.5938 Q59.9156,290.9375 59.9156,287.8125 Q59.9156,284.6875 61.2281,283.0313 Q62.5563,281.375 65.0563,281.375 Q65.7594,281.375 66.4,281.5313 Q67.0563,281.6875 67.6188,281.9844 L67.6188,284.7031 Q66.9938,284.125 66.4,283.8594 Q65.8063,283.5781 65.1813,283.5781 Q63.8375,283.5781 63.15,284.6563 Q62.4625,285.7188 62.4625,287.8125 Q62.4625,289.9063 63.15,290.9844 Q63.8375,292.0469 65.1813,292.0469 Q65.8063,292.0469 66.4,291.7813 Q66.9938,291.5 67.6188,290.9219 L67.6188,293.6406 Z " fill="#000000"/><text fill="#000000" font-family="sans-serif" font-size="14" lengthAdjust="spacing" textLength="17.7939" x="78.65" y="292.8467">b2</text><line style="stroke:#181818;stroke-width:0.5;" x1="50.65" x2="98.4439" y1="304" y2="304"/><line style="stroke:#181818;stroke-width:0.5;" x1="50.65" x2="98.4439" y1="312" y2="312"/></g><!--class b3--><g class="entity" data-qualified-name="B.b3" data-source-line="20" id="ent0017"><rect fill="#F1F1F1" height="48" rx="2.5" ry="2.5" style="stroke:#181818;stroke-width:0.5;" width="49.7939" x="49.65" y="189"/><ellipse cx="64.65" cy="205" fill="#ADD1B2" rx="11" ry="11" style="stroke:#181818;stroke-width:1;"/><path d="M67.6188,210.6406 Q67.0406,210.9375 66.4,211.0781 Q65.7594,211.2344 65.0563,211.2344 Q62.5563,211.2344 61.2281,209.5938 Q59.9156,207.9375 59.9156,204.8125 Q59.9156,201.6875 61.2281,200.0313 Q62.5563,198.375 65.0563,198.375 Q65.7594,198.375 66.4,198.5313 Q67.0563,198.6875 67.6188,198.9844 L67.6188,201.7031 Q66.9938,201.125 66.4,200.8594 Q65.8063,200.5781 65.1813,200.5781 Q63.8375,200.5781 63.15,201.6563 Q62.4625,202.7188 62.4625,204.8125 Q62.4625,206.9063 63.15,207.9844 Q63.8375,209.0469 65.1813,209.0469 Q65.8063,209.0469 66.4,208.7813 Q66.9938,208.5 67.6188,207.9219 L67.6188,210.6406 Z " fill="#000000"/><text fill="#000000" font-family="sans-serif" font-size="14" lengthAdjust="spacing" textLength="17.7939" x="78.65" y="209.8467">b3</text><line style="stroke:#181818;stroke-width:0.5;" x1="50.65" x2="98.4439" y1="221" y2="221"/><line style="stroke:#181818;stroke-width:0.5;" x1="50.65" x2="98.4439" y1="229" y2="229"/></g><!--class b4--><g class="entity" data-qualified-name="B.b4" data-source-line="21" id="ent0018"><rect fill="#F1F1F1" height="48" rx="2.5" ry="2.5" style="stroke:#181818;stroke-width:0.5;" width="49.7939" x="166.73" y="355"/><ellipse cx="181.73" cy="371" fill="#ADD1B2" rx="11" ry="11" style="stroke:#181818;stroke-width:1;"/><path d="M184.6988,376.6406 Q184.1206,376.9375 183.48,377.0781 Q182.8394,377.2344 182.1363,377.2344 Q179.6363,377.2344 178.3081,375.5938 Q176.9956,373.9375 176.9956,370.8125 Q176.9956,367.6875 178.3081,366.0313 Q179.6363,364.375 182.1363,364.375 Q182.8394,364.375 183.48,364.5313 Q184.1363,364.6875 184.6988,364.9844 L184.6988,367.7031 Q184.0738,367.125 183.48,366.8594 Q182.8863,366.5781 182.2613,366.5781 Q180.9175,366.5781 180.23,367.6563 Q179.5425,368.7188 179.5425,370.8125 Q179.5425,372.9063 180.23,373.9844 Q180.9175,375.0469 182.2613,375.0469 Q182.8863,375.0469 183.48,374.7813 Q184.0738,374.5 184.6988,373.9219 L184.6988,376.6406 Z " fill="#000000"/><text fill="#000000" font-family="sans-serif" font-size="14" lengthAdjust="spacing" textLength="17.7939" x="195.73" y="375.8467">b4</text><line style="stroke:#181818;stroke-width:0.5;" x1="167.73" x2="215.5239" y1="387" y2="387"/><line style="stroke:#181818;stroke-width:0.5;" x1="167.73" x2="215.5239" y1="395" y2="395"/></g><!--class b5--><g class="entity" data-qualified-name="B.b5" data-source-line="22" id="ent0019"><rect fill="#F1F1F1" height="48" rx="2.5" ry="2.5" style="stroke:#181818;stroke-width:0.5;" width="49.7939" x="166.73" y="272"/><ellipse cx="181.73" cy="288" fill="#ADD1B2" rx="11" ry="11" style="stroke:#181818;stroke-width:1;"/><path d="M184.6988,293.6406 Q184.1206,293.9375 183.48,294.0781 Q182.8394,294.2344 182.1363,294.2344 Q179.6363,294.2344 178.3081,292.5938 Q176.9956,290.9375 176.9956,287.8125 Q176.9956,284.6875 178.3081,283.0313 Q179.6363,281.375 182.1363,281.375 Q182.8394,281.375 183.48,281.5313 Q184.1363,281.6875 184.6988,281.9844 L184.6988,284.7031 Q184.0738,284.125 183.48,283.8594 Q182.8863,283.5781 182.2613,283.5781 Q180.9175,283.5781 180.23,284.6563 Q179.5425,285.7188 179.5425,287.8125 Q179.5425,289.9063 180.23,290.9844 Q180.9175,292.0469 182.2613,292.0469 Q182.8863,292.0469 183.48,291.7813 Q184.0738,291.5 184.6988,290.9219 L184.6988,293.6406 Z " fill="#000000"/><text fill="#000000" font-family="sans-serif" font-size="14" lengthAdjust="spacing" textLength="17.7939" x="195.73" y="292.8467">b5</text><line style="stroke:#181818;stroke-width:0.5;" x1="167.73" x2="215.5239" y1="304" y2="304"/><line style="stroke:#181818;stroke-width:0.5;" x1="167.73" x2="215.5239" y1="312" y2="312"/></g><!--class sb1--><g class="entity" data-qualified-name="B.sub_b.sb1" data-source-line="24" id="ent0021"><rect fill="#F1F1F1" height="48" rx="2.5" ry="2.5" style="stroke:#181818;stroke-width:0.5;" width="57.0879" x="46" y="537"/><ellipse cx="61" cy="553" fill="#ADD1B2" rx="11" ry="11" style="stroke:#181818;stroke-width:1;"/><path d="M63.9688,558.6406 Q63.3906,558.9375 62.75,559.0781 Q62.1094,559.2344 61.4063,559.2344 Q58.9063,559.2344 57.5781,557.5938 Q56.2656,555.9375 56.2656,552.8125 Q56.2656,549.6875 57.5781,548.0313 Q58.9063,546.375 61.4063,546.375 Q62.1094,546.375 62.75,546.5313 Q63.4063,546.6875 63.9688,546.9844 L63.9688,549.7031 Q63.3438,549.125 62.75,548.8594 Q62.1563,548.5781 61.5313,548.5781 Q60.1875,548.5781 59.5,549.6563 Q58.8125,550.7188 58.8125,552.8125 Q58.8125,554.9063 59.5,555.9844 Q60.1875,557.0469 61.5313,557.0469 Q62.1563,557.0469 62.75,556.7813 Q63.3438,556.5 63.9688,555.9219 L63.9688,558.6406 Z " fill="#000000"/><text fill="#000000" font-family="sans-serif" font-size="14" lengthAdjust="spacing" textLength="25.0879" x="75" y="557.8467">sb1</text><line style="stroke:#181818;stroke-width:0.5;" x1="47" x2="102.0879" y1="569" y2="569"/><line style="stroke:#181818;stroke-width:0.5;" x1="47" x2="102.0879" y1="577" y2="577"/></g><!--class sb2--><g class="entity" data-qualified-name="B.sub_b.sb2" data-source-line="25" id="ent0022"><rect fill="#F1F1F1" height="48" rx="2.5" ry="2.5" style="stroke:#181818;stroke-width:0.5;" width="57.0879" x="46" y="454"/><ellipse cx="61" cy="470" fill="#ADD1B2" rx="11" ry="11" style="stroke:#181818;stroke-width:1;"/><path d="M63.9688,475.6406 Q63.3906,475.9375 62.75,476.0781 Q62.1094,476.2344 61.4063,476.2344 Q58.9063,476.2344 57.5781,474.5938 Q56.2656,472.9375 56.2656,469.8125 Q56.2656,466.6875 57.5781,465.0313 Q58.9063,463.375 61.4063,463.375 Q62.1094,463.375 62.75,463.5313 Q63.4063,463.6875 63.9688,463.9844 L63.9688,466.7031 Q63.3438,466.125 62.75,465.8594 Q62.1563,465.5781 61.5313,465.5781 Q60.1875,465.5781 59.5,466.6563 Q58.8125,467.7188 58.8125,469.8125 Q58.8125,471.9063 59.5,472.9844 Q60.1875,474.0469 61.5313,474.0469 Q62.1563,474.0469 62.75,473.7813 Q63.3438,473.5 63.9688,472.9219 L63.9688,475.6406 Z " fill="#000000"/><text fill="#000000" font-family="sans-serif" font-size="14" lengthAdjust="spacing" textLength="25.0879" x="75" y="474.8467">sb2</text><line style="stroke:#181818;stroke-width:0.5;" x1="47" x2="102.0879" y1="486" y2="486"/><line style="stroke:#181818;stroke-width:0.5;" x1="47" x2="102.0879" y1="494" y2="494"/></g><!--class sb3--><g class="entity" data-qualified-name="B.sub_b.sb3" data-source-line="26" id="ent0023"><rect fill="#F1F1F1" height="48" rx="2.5" ry="2.5" style="stroke:#181818;stroke-width:0.5;" width="57.0879" x="163.09" y="537"/><ellipse cx="178.09" cy="553" fill="#ADD1B2" rx="11" ry="11" style="stroke:#181818;stroke-width:1;"/><path d="M181.0588,558.6406 Q180.4806,558.9375 179.84,559.0781 Q179.1994,559.2344 178.4963,559.2344 Q175.9963,559.2344 174.6681,557.5938 Q173.3556,555.9375 173.3556,552.8125 Q173.3556,549.6875 174.6681,548.0313 Q175.9963,546.375 178.4963,546.375 Q179.1994,546.375 179.84,546.5313 Q180.4963,546.6875 181.0588,546.9844 L181.0588,549.7031 Q180.4338,549.125 179.84,548.8594 Q179.2463,548.5781 178.6213,548.5781 Q177.2775,548.5781 176.59,549.6563 Q175.9025,550.7188 175.9025,552.8125 Q175.9025,554.9063 176.59,555.9844 Q177.2775,557.0469 178.6213,557.0469 Q179.2463,557.0469 179.84,556.7813 Q180.4338,556.5 181.0588,555.9219 L181.0588,558.6406 Z " fill="#000000"/><text fill="#000000" font-family="sans-serif" font-size="14" lengthAdjust="spacing" textLength="25.0879" x="192.09" y="557.8467">sb3</text><line style="stroke:#181818;stroke-width:0.5;" x1="164.09" x2="219.1779" y1="569" y2="569"/><line style="stroke:#181818;stroke-width:0.5;" x1="164.09" x2="219.1779" y1="577" y2="577"/></g><!--class a--><g class="entity" data-qualified-name="a" data-source-line="2" id="ent0002"><rect fill="#F1F1F1" height="48" rx="2.5" ry="2.5" style="stroke:#181818;stroke-width:0.5;" width="40.5791" x="54.25" y="90"/><ellipse cx="69.25" cy="106" fill="#ADD1B2" rx="11" ry="11" style="stroke:#181818;stroke-width:1;"/><path d="M72.2188,111.6406 Q71.6406,111.9375 71,112.0781 Q70.3594,112.2344 69.6563,112.2344 Q67.1563,112.2344 65.8281,110.5938 Q64.5156,108.9375 64.5156,105.8125 Q64.5156,102.6875 65.8281,101.0313 Q67.1563,99.375 69.6563,99.375 Q70.3594,99.375 71,99.5313 Q71.6563,99.6875 72.2188,99.9844 L72.2188,102.7031 Q71.5938,102.125 71,101.8594 Q70.4063,101.5781 69.7813,101.5781 Q68.4375,101.5781 67.75,102.6563 Q67.0625,103.7188 67.0625,105.8125 Q67.0625,107.9063 67.75,108.9844 Q68.4375,110.0469 69.7813,110.0469 Q70.4063,110.0469 71,109.7813 Q71.5938,109.5 72.2188,108.9219 L72.2188,111.6406 Z " fill="#000000"/><text fill="#000000" font-family="sans-serif" font-size="14" lengthAdjust="spacing" textLength="8.5791" x="83.25" y="110.8467">a</text><line style="stroke:#181818;stroke-width:0.5;" x1="55.25" x2="93.8291" y1="122" y2="122"/><line style="stroke:#181818;stroke-width:0.5;" x1="55.25" x2="93.8291" y1="130" y2="130"/></g><!--class b--><g class="entity" data-qualified-name="b" data-source-line="3" id="ent0003"><rect fill="#F1F1F1" height="48" rx="2.5" ry="2.5" style="stroke:#181818;stroke-width:0.5;" width="40.8867" x="54.1" y="7"/><ellipse cx="69.1" cy="23" fill="#ADD1B2" rx="11" ry="11" style="stroke:#181818;stroke-width:1;"/><path d="M72.0688,28.6406 Q71.4906,28.9375 70.85,29.0781 Q70.2094,29.2344 69.5063,29.2344 Q67.0063,29.2344 65.6781,27.5938 Q64.3656,25.9375 64.3656,22.8125 Q64.3656,19.6875 65.6781,18.0313 Q67.0063,16.375 69.5063,16.375 Q70.2094,16.375 70.85,16.5313 Q71.5063,16.6875 72.0688,16.9844 L72.0688,19.7031 Q71.4438,19.125 70.85,18.8594 Q70.2563,18.5781 69.6313,18.5781 Q68.2875,18.5781 67.6,19.6563 Q66.9125,20.7188 66.9125,22.8125 Q66.9125,24.9063 67.6,25.9844 Q68.2875,27.0469 69.6313,27.0469 Q70.2563,27.0469 70.85,26.7813 Q71.4438,26.5 72.0688,25.9219 L72.0688,28.6406 Z " fill="#000000"/><text fill="#000000" font-family="sans-serif" font-size="14" lengthAdjust="spacing" textLength="8.8867" x="83.1" y="27.8467">b</text><line style="stroke:#181818;stroke-width:0.5;" x1="55.1" x2="93.9867" y1="39" y2="39"/><line style="stroke:#181818;stroke-width:0.5;" x1="55.1" x2="93.9867" y1="47" y2="47"/></g><?plantuml-src NSx13OCm30NGUwRm2eHsWB98vHy2H8sW8k64s9s0KfnoiRzbwUjvsqMA4ysk7oArRhOckcbKndC8n7b3VTbykBVqebKHvMybKKki9JuaFbFybOG5RpwByZUSLTUXo-EeszIMveLe2WG40K504104xWZy8L0YK2AG4Ji0?></g></svg>