<svg xmlns="http://www.w3.org/2000/svg" xmlns:xlink="http://www.w3.org/1999/xlink" contentStyleType="text/css" data-diagram-type="CLASS" height="816px" preserveAspectRatio="none" style="width:204px;height:816px;background:#FFFFFF;" version="1.1" viewBox="0 0 204 816" width="204px" zoomAndPan="magnify"><?plantuml 1.2026.3beta5?><defs/><g><!--cluster A--><g class="cluster" data-qualified-name="A" data-source-line="5" id="ent0004"><path d="M16.5,356 L57,356 A3.75,3.75 0 0 1 59.5,358.5 L66.5,366 L193.5,366 A2.5,2.5 0 0 1 196,368.5 L196,689.5 A2.5,2.5 0 0 1 193.5,692 L16.5,692 A2.5,2.5 0 0 1 14,689.5 L14,358.5 A2.5,2.5 0 0 1 16.5,356" fill="none" style="stroke:#000000;stroke-width:1.5;"/><line style="stroke:#000000;stroke-width:1.5;" x1="14" x2="66.5" y1="366" y2="366"/><text fill="#000000" font-family="sans-serif" font-size="14" font-weight="700" lengthAdjust="spacing" textLength="0" x="18" y="358">A</text></g><!--cluster sub_a--><g class="cluster" data-qualified-name="A.sub_a" data-source-line="11" id="ent0010"><path d="M24.5,364 L61,364 A3.75,3.75 0 0 1 63.5,366.5 L70.5,374 L185.5,374 A2.5,2.5 0 0 1 188,376.5 L188,491.5 A2.5,2.5 0 0 1 185.5,494 L24.5,494 A2.5,2.5 0 0 1 22,491.5 L22,366.5 A2.5,2.5 0 0 1 24.5,364" fill="none" style="stroke:#000000;stroke-width:1.5;"/><line style="stroke:#000000;stroke-width:1.5;" x1="22" x2="70.5" y1="374" y2="374"/><text fill="#000000" font-family="sans-serif" font-size="14" font-weight="700" lengthAdjust="spacing" textLength="0" x="26" y="366">sub_a</text></g><!--cluster B--><g class="cluster" data-qualified-name="B" data-source-line="18" id="ent0014"><path d="M16.5,12 L57,12 A3.75,3.75 0 0 1 59.5,14.5 L66.5,22 L193.5,22 A2.5,2.5 0 0 1 196,24.5 L196,345.5 A2.5,2.5 0 0 1 193.5,348 L16.5,348 A2.5,2.5 0 0 1 14,345.5 L14,14.5 A2.5,2.5 0 0 1 16.5,12" fill="none" style="stroke:#000000;stroke-width:1.5;"/><line style="stroke:#000000;stroke-width:1.5;" x1="14" x2="66.5" y1="22" y2="22"/><text fill="#000000" font-family="sans-serif" font-size="14" font-weight="700" lengthAdjust="spacing" textLength="0" x="18" y="14">B</text></g><!--cluster sub_b--><g class="cluster" data-qualified-name="B.sub_b" data-source-line="24" id="ent0020"><path d="M24.5,20 L61,20 A3.75,3.75 0 0 1 63.5,22.5 L70.5,30 L185.5,30 A2.5,2.5 0 0 1 188,32.5 L188,147.5 A2.5,2.5 0 0 1 185.5,150 L24.5,150 A2.5,2.5 0 0 1 22,147.5 L22,22.5 A2.5,2.5 0 0 1 24.5,20" fill="none" style="stroke:#000000;stroke-width:1.5;"/><line style="stroke:#000000;stroke-width:1.5;" x1="22" x2="70.5" y1="30" y2="30"/><text fill="#000000" font-family="sans-serif" font-size="14" font-weight="700" lengthAdjust="spacing" textLength="0" x="26" y="22">sub_b</text></g><!--class a--><g class="entity" data-qualified-name="a" data-source-line="3" id="ent0002"><rect fill="#F1F1F1" height="48" rx="2.5" ry="2.5" style="stroke:#181818;stroke-width:0.5;" width="40.5791" x="38" y="768"/><ellipse cx="53" cy="784" fill="#ADD1B2" rx="11" ry="11" style="stroke:#181818;stroke-width:1;"/><path d="M55.9688,789.6406 Q55.3906,789.9375 54.75,790.0781 Q54.1094,790.2344 53.4063,790.2344 Q50.9063,790.2344 49.5781,788.5938 Q48.2656,786.9375 48.2656,783.8125 Q48.2656,780.6875 49.5781,779.0313 Q50.9063,777.375 53.4063,777.375 Q54.1094,777.375 54.75,777.5313 Q55.4063,777.6875 55.9688,777.9844 L55.9688,780.7031 Q55.3438,780.125 54.75,779.8594 Q54.1563,779.5781 53.5313,779.5781 Q52.1875,779.5781 51.5,780.6563 Q50.8125,781.7188 50.8125,783.8125 Q50.8125,785.9063 51.5,786.9844 Q52.1875,788.0469 53.5313,788.0469 Q54.1563,788.0469 54.75,787.7813 Q55.3438,787.5 55.9688,786.9219 L55.9688,789.6406 Z " fill="#000000"/><text fill="#000000" font-family="sans-serif" font-size="14" lengthAdjust="spacing" textLength="8.5791" x="67" y="788.8467">a</text><line style="stroke:#181818;stroke-width:0.5;" x1="39" x2="77.5791" y1="800" y2="800"/><line style="stroke:#181818;stroke-width:0.5;" x1="39" x2="77.5791" y1="808" y2="808"/></g><!--class b--><g class="entity" data-qualified-name="b" data-source-line="4" id="ent0003"><rect fill="#F1F1F1" height="48" rx="2.5" ry="2.5" style="stroke:#181818;stroke-width:0.5;" width="40.8867" x="38" y="702"/><ellipse cx="53" cy="718" fill="#ADD1B2" rx="11" ry="11" style="stroke:#181818;stroke-width:1;"/><path d="M55.9688,723.6406 Q55.3906,723.9375 54.75,724.0781 Q54.1094,724.2344 53.4063,724.2344 Q50.9063,724.2344 49.5781,722.5938 Q48.2656,720.9375 48.2656,717.8125 Q48.2656,714.6875 49.5781,713.0313 Q50.9063,711.375 53.4063,711.375 Q54.1094,711.375 54.75,711.5313 Q55.4063,711.6875 55.9688,711.9844 L55.9688,714.7031 Q55.3438,714.125 54.75,713.8594 Q54.1563,713.5781 53.5313,713.5781 Q52.1875,713.5781 51.5,714.6563 Q50.8125,715.7188 50.8125,717.8125 Q50.8125,719.9063 51.5,720.9844 Q52.1875,722.0469 53.5313,722.0469 Q54.1563,722.0469 54.75,721.7813 Q55.3438,721.5 55.9688,720.9219 L55.9688,723.6406 Z " fill="#000000"/><text fill="#000000" font-family="sans-serif" font-size="14" lengthAdjust="spacing" textLength="8.8867" x="67" y="722.8467">b</text><line style="stroke:#181818;stroke-width:0.5;" x1="39" x2="77.8867" y1="734" y2="734"/><line style="stroke:#181818;stroke-width:0.5;" x1="39" x2="77.8867" y1="742" y2="742"/></g><!--class a1--><g class="entity" data-qualified-name="A.a1" data-source-line="6" id="ent0005"><rect fill="#F1F1F1" height="48" rx="2.5" ry="2.5" style="stroke:#181818;stroke-width:0.5;" width="49.4863" x="34" y="636"/><ellipse cx="49" cy="652" fill="#ADD1B2" rx="11" ry="11" style="stroke:#181818;stroke-width:1;"/><path d="M51.9688,657.6406 Q51.3906,657.9375 50.75,658.0781 Q50.1094,658.2344 49.4063,658.2344 Q46.9063,658.2344 45.5781,656.5938 Q44.2656,654.9375 44.2656,651.8125 Q44.2656,648.6875 45.5781,647.0313 Q46.9063,645.375 49.4063,645.375 Q50.1094,645.375 50.75,645.5313 Q51.4063,645.6875 51.9688,645.9844 L51.9688,648.7031 Q51.3438,648.125 50.75,647.8594 Q50.1563,647.5781 49.5313,647.5781 Q48.1875,647.5781 47.5,648.6563 Q46.8125,649.7188 46.8125,651.8125 Q46.8125,653.9063 47.5,654.9844 Q48.1875,656.0469 49.5313,656.0469 Q50.1563,656.0469 50.75,655.7813 Q51.3438,655.5 51.9688,654.9219 L51.9688,657.6406 Z " fill="#000000"/><text fill="#000000" font-family="sans-serif" font-size="14" lengthAdjust="spacing" textLength="17.4863" x="63" y="656.8467">a1</text><line style="stroke:#181818;stroke-width:0.5;" x1="35" x2="82.4863" y1="668" y2="668"/><line style="stroke:#181818;stroke-width:0.5;" x1="35" x2="82.4863" y1="676" y2="676"/></g><!--class a2--><g class="entity" data-qualified-name="A.a2" data-source-line="7" id="ent0006"><rect fill="#F1F1F1" height="48" rx="2.5" ry="2.5" style="stroke:#181818;stroke-width:0.5;" width="49.4863" x="34" y="570"/><ellipse cx="49" cy="586" fill="#ADD1B2" rx="11" ry="11" style="stroke:#181818;stroke-width:1;"/><path d="M51.9688,591.6406 Q51.3906,591.9375 50.75,592.0781 Q50.1094,592.2344 49.4063,592.2344 Q46.9063,592.2344 45.5781,590.5938 Q44.2656,588.9375 44.2656,585.8125 Q44.2656,582.6875 45.5781,581.0313 Q46.9063,579.375 49.4063,579.375 Q50.1094,579.375 50.75,579.5313 Q51.4063,579.6875 51.9688,579.9844 L51.9688,582.7031 Q51.3438,582.125 50.75,581.8594 Q50.1563,581.5781 49.5313,581.5781 Q48.1875,581.5781 47.5,582.6563 Q46.8125,583.7188 46.8125,585.8125 Q46.8125,587.9063 47.5,588.9844 Q48.1875,590.0469 49.5313,590.0469 Q50.1563,590.0469 50.75,589.7813 Q51.3438,589.5 51.9688,588.9219 L51.9688,591.6406 Z " fill="#000000"/><text fill="#000000" font-family="sans-serif" font-size="14" lengthAdjust="spacing" textLength="17.4863" x="63" y="590.8467">a2</text><line style="stroke:#181818;stroke-width:0.5;" x1="35" x2="82.4863" y1="602" y2="602"/><line style="stroke:#181818;stroke-width:0.5;" x1="35" x2="82.4863" y1="610" y2="610"/></g><!--class a3--><g class="entity" data-qualified-name="A.a3" data-source-line="8" id="ent0007"><rect fill="#F1F1F1" height="48" rx="2.5" ry="2.5" style="stroke:#181818;stroke-width:0.5;" width="49.4863" x="34" y="504"/><ellipse cx="49" cy="520" fill="#ADD1B2" rx="11" ry="11" style="stroke:#181818;stroke-width:1;"/><path d="M51.9688,525.6406 Q51.3906,525.9375 50.75,526.0781 Q50.1094,526.2344 49.4063,526.2344 Q46.9063,526.2344 45.5781,524.5938 Q44.2656,522.9375 44.2656,519.8125 Q44.2656,516.6875 45.5781,515.0313 Q46.9063,513.375 49.4063,513.375 Q50.1094,513.375 50.75,513.5313 Q51.4063,513.6875 51.9688,513.9844 L51.9688,516.7031 Q51.3438,516.125 50.75,515.8594 Q50.1563,515.5781 49.5313,515.5781 Q48.1875,515.5781 47.5,516.6563 Q46.8125,517.7188 46.8125,519.8125 Q46.8125,521.9063 47.5,522.9844 Q48.1875,524.0469 49.5313,524.0469 Q50.1563,524.0469 50.75,523.7813 Q51.3438,523.5 51.9688,522.9219 L51.9688,525.6406 Z " fill="#000000"/><text fill="#000000" font-family="sans-serif" font-size="14" lengthAdjust="spacing" textLength="17.4863" x="63" y="524.8467">a3</text><line style="stroke:#181818;stroke-width:0.5;" x1="35" x2="82.4863" y1="536" y2="536"/><line style="stroke:#181818;stroke-width:0.5;" x1="35" x2="82.4863" y1="544" y2="544"/></g><!--class a4--><g class="entity" data-qualified-name="A.a4" data-source-line="9" id="ent0008"><rect fill="#F1F1F1" height="48" rx="2.5" ry="2.5" style="stroke:#181818;stroke-width:0.5;" width="49.4863" x="127" y="636"/><ellipse cx="142" cy="652" fill="#ADD1B2" rx="11" ry="11" style="stroke:#181818;stroke-width:1;"/><path d="M144.9688,657.6406 Q144.3906,657.9375 143.75,658.0781 Q143.1094,658.2344 142.4063,658.2344 Q139.9063,658.2344 138.5781,656.5938 Q137.2656,654.9375 137.2656,651.8125 Q137.2656,648.6875 138.5781,647.0313 Q139.9063,645.375 142.4063,645.375 Q143.1094,645.375 143.75,645.5313 Q144.4063,645.6875 144.9688,645.9844 L144.9688,648.7031 Q144.3438,648.125 143.75,647.8594 Q143.1563,647.5781 142.5313,647.5781 Q141.1875,647.5781 140.5,648.6563 Q139.8125,649.7188 139.8125,651.8125 Q139.8125,653.9063 140.5,654.9844 Q141.1875,656.0469 142.5313,656.0469 Q143.1563,656.0469 143.75,655.7813 Q144.3438,655.5 144.9688,654.9219 L144.9688,657.6406 Z " fill="#000000"/><text fill="#000000" font-family="sans-serif" font-size="14" lengthAdjust="spacing" textLength="17.4863" x="156" y="656.8467">a4</text><line style="stroke:#181818;stroke-width:0.5;" x1="128" x2="175.4863" y1="668" y2="668"/><line style="stroke:#181818;stroke-width:0.5;" x1="128" x2="175.4863" y1="676" y2="676"/></g><!--class a5--><g class="entity" data-qualified-name="A.a5" data-source-line="10" id="ent0009"><rect fill="#F1F1F1" height="48" rx="2.5" ry="2.5" style="stroke:#181818;stroke-width:0.5;" width="49.4863" x="127" y="570"/><ellipse cx="142" cy="586" fill="#ADD1B2" rx="11" ry="11" style="stroke:#181818;stroke-width:1;"/><path d="M144.9688,591.6406 Q144.3906,591.9375 143.75,592.0781 Q143.1094,592.2344 142.4063,592.2344 Q139.9063,592.2344 138.5781,590.5938 Q137.2656,588.9375 137.2656,585.8125 Q137.2656,582.6875 138.5781,581.0313 Q139.9063,579.375 142.4063,579.375 Q143.1094,579.375 143.75,579.5313 Q144.4063,579.6875 144.9688,579.9844 L144.9688,582.7031 Q144.3438,582.125 143.75,581.8594 Q143.1563,581.5781 142.5313,581.5781 Q141.1875,581.5781 140.5,582.6563 Q139.8125,583.7188 139.8125,585.8125 Q139.8125,587.9063 140.5,588.9844 Q141.1875,590.0469 142.5313,590.0469 Q143.1563,590.0469 143.75,589.7813 Q144.3438,589.5 144.9688,588.9219 L144.9688,591.6406 Z " fill="#000000"/><text fill="#000000" font-family="sans-serif" font-size="14" lengthAdjust="spacing" textLength="17.4863" x="156" y="590.8467">a5</text><line style="stroke:#181818;stroke-width:0.5;" x1="128" x2="175.4863" y1="602" y2="602"/><line style="stroke:#181818;stroke-width:0.5;" x1="128" x2="175.4863" y1="610" y2="610"/></g><!--class sa1--><g class="entity" data-qualified-name="A.sub_a.sa1" data-source-line="12" id="ent0011"><rect fill="#F1F1F1" height="48" rx="2.5" ry="2.5" style="stroke:#181818;stroke-width:0.5;" width="56.7803" x="30" y="438"/><ellipse cx="45" cy="454" fill="#ADD1B2" rx="11" ry="11" style="stroke:#181818;stroke-width:1;"/><path d="M47.9688,459.6406 Q47.3906,459.9375 46.75,460.0781 Q46.1094,460.2344 45.4063,460.2344 Q42.9063,460.2344 41.5781,458.5938 Q40.2656,456.9375 40.2656,453.8125 Q40.2656,450.6875 41.5781,449.0313 Q42.9063,447.375 45.4063,447.375 Q46.1094,447.375 46.75,447.5313 Q47.4063,447.6875 47.9688,447.9844 L47.9688,450.7031 Q47.3438,450.125 46.75,449.8594 Q46.1563,449.5781 45.5313,449.5781 Q44.1875,449.5781 43.5,450.6563 Q42.8125,451.7188 42.8125,453.8125 Q42.8125,455.9063 43.5,456.9844 Q44.1875,458.0469 45.5313,458.0469 Q46.1563,458.0469 46.75,457.7813 Q47.3438,457.5 47.9688,456.9219 L47.9688,459.6406 Z " fill="#000000"/><text fill="#000000" font-family="sans-serif" font-size="14" lengthAdjust="spacing" textLength="24.7803" x="59" y="458.8467">sa1</text><line style="stroke:#181818;stroke-width:0.5;" x1="31" x2="85.7803" y1="470" y2="470"/><line style="stroke:#181818;stroke-width:0.5;" x1="31" x2="85.7803" y1="478" y2="478"/></g><!--class sa2--><g class="entity" data-qualified-name="A.sub_a.sa2" data-source-line="13" id="ent0012"><rect fill="#F1F1F1" height="48" rx="2.5" ry="2.5" style="stroke:#181818;stroke-width:0.5;" width="56.7803" x="30" y="372"/><ellipse cx="45" cy="388" fill="#ADD1B2" rx="11" ry="11" style="stroke:#181818;stroke-width:1;"/><path d="M47.9688,393.6406 Q47.3906,393.9375 46.75,394.0781 Q46.1094,394.2344 45.4063,394.2344 Q42.9063,394.2344 41.5781,392.5938 Q40.2656,390.9375 40.2656,387.8125 Q40.2656,384.6875 41.5781,383.0313 Q42.9063,381.375 45.4063,381.375 Q46.1094,381.375 46.75,381.5313 Q47.4063,381.6875 47.9688,381.9844 L47.9688,384.7031 Q47.3438,384.125 46.75,383.8594 Q46.1563,383.5781 45.5313,383.5781 Q44.1875,383.5781 43.5,384.6563 Q42.8125,385.7188 42.8125,387.8125 Q42.8125,389.9063 43.5,390.9844 Q44.1875,392.0469 45.5313,392.0469 Q46.1563,392.0469 46.75,391.7813 Q47.3438,391.5 47.9688,390.9219 L47.9688,393.6406 Z " fill="#000000"/><text fill="#000000" font-family="sans-serif" font-size="14" lengthAdjust="spacing" textLength="24.7803" x="59" y="392.8467">sa2</text><line style="stroke:#181818;stroke-width:0.5;" x1="31" x2="85.7803" y1="404" y2="404"/><line style="stroke:#181818;stroke-width:0.5;" x1="31" x2="85.7803" y1="412" y2="412"/></g><!--class sa3--><g class="entity" data-qualified-name="A.sub_a.sa3" data-source-line="14" id="ent0013"><rect fill="#F1F1F1" height="48" rx="2.5" ry="2.5" style="stroke:#181818;stroke-width:0.5;" width="56.7803" x="123" y="438"/><ellipse cx="138" cy="454" fill="#ADD1B2" rx="11" ry="11" style="stroke:#181818;stroke-width:1;"/><path d="M140.9688,459.6406 Q140.3906,459.9375 139.75,460.0781 Q139.1094,460.2344 138.4063,460.2344 Q135.9063,460.2344 134.5781,458.5938 Q133.2656,456.9375 133.2656,453.8125 Q133.2656,450.6875 134.5781,449.0313 Q135.9063,447.375 138.4063,447.375 Q139.1094,447.375 139.75,447.5313 Q140.4063,447.6875 140.9688,447.9844 L140.9688,450.7031 Q140.3438,450.125 139.75,449.8594 Q139.1563,449.5781 138.5313,449.5781 Q137.1875,449.5781 136.5,450.6563 Q135.8125,451.7188 135.8125,453.8125 Q135.8125,455.9063 136.5,456.9844 Q137.1875,458.0469 138.5313,458.0469 Q139.1563,458.0469 139.75,457.7813 Q140.3438,457.5 140.9688,456.9219 L140.9688,459.6406 Z " fill="#000000"/><text fill="#000000" font-family="sans-serif" font-size="14" lengthAdjust="spacing" textLength="24.7803" x="152" y="458.8467">sa3</text><line style="stroke:#181818;stroke-width:0.5;" x1="124" x2="178.7803" y1="470" y2="470"/><line style="stroke:#181818;stroke-width:0.5;" x1="124" x2="178.7803" y1="478" y2="478"/></g><!--class b1--><g class="entity" data-qualified-name="B.b1" data-source-line="19" id="ent0015"><rect fill="#F1F1F1" height="48" rx="2.5" ry="2.5" style="stroke:#181818;stroke-width:0.5;" width="49.7939" x="33.5" y="292"/><ellipse cx="48.5" cy="308" fill="#ADD1B2" rx="11" ry="11" style="stroke:#181818;stroke-width:1;"/><path d="M51.4688,313.6406 Q50.8906,313.9375 50.25,314.0781 Q49.6094,314.2344 48.9063,314.2344 Q46.4063,314.2344 45.0781,312.5938 Q43.7656,310.9375 43.7656,307.8125 Q43.7656,304.6875 45.0781,303.0313 Q46.4063,301.375 48.9063,301.375 Q49.6094,301.375 50.25,301.5313 Q50.9063,301.6875 51.4688,301.9844 L51.4688,304.7031 Q50.8438,304.125 50.25,303.8594 Q49.6563,303.5781 49.0313,303.5781 Q47.6875,303.5781 47,304.6563 Q46.3125,305.7188 46.3125,307.8125 Q46.3125,309.9063 47,310.9844 Q47.6875,312.0469 49.0313,312.0469 Q49.6563,312.0469 50.25,311.7813 Q50.8438,311.5 51.4688,310.9219 L51.4688,313.6406 Z " fill="#000000"/><text fill="#000000" font-family="sans-serif" font-size="14" lengthAdjust="spacing" textLength="17.7939" x="62.5" y="312.8467">b1</text><line style="stroke:#181818;stroke-width:0.5;" x1="34.5" x2="82.2939" y1="324" y2="324"/><line style="stroke:#181818;stroke-width:0.5;" x1="34.5" x2="82.2939" y1="332" y2="332"/></g><!--class b2--><g class="entity" data-qualified-name="B.b2" data-source-line="20" id="ent0016"><rect fill="#F1F1F1" height="48" rx="2.5" ry="2.5" style="stroke:#181818;stroke-width:0.5;" width="49.7939" x="33.5" y="226"/><ellipse cx="48.5" cy="242" fill="#ADD1B2" rx="11" ry="11" style="stroke:#181818;stroke-width:1;"/><path d="M51.4688,247.6406 Q50.8906,247.9375 50.25,248.0781 Q49.6094,248.2344 48.9063,248.2344 Q46.4063,248.2344 45.0781,246.5938 Q43.7656,244.9375 43.7656,241.8125 Q43.7656,238.6875 45.0781,237.0313 Q46.4063,235.375 48.9063,235.375 Q49.6094,235.375 50.25,235.5313 Q50.9063,235.6875 51.4688,235.9844 L51.4688,238.7031 Q50.8438,238.125 50.25,237.8594 Q49.6563,237.5781 49.0313,237.5781 Q47.6875,237.5781 47,238.6563 Q46.3125,239.7188 46.3125,241.8125 Q46.3125,243.9063 47,244.9844 Q47.6875,246.0469 49.0313,246.0469 Q49.6563,246.0469 50.25,245.7813 Q50.8438,245.5 51.4688,244.9219 L51.4688,247.6406 Z " fill="#000000"/><text fill="#000000" font-family="sans-serif" font-size="14" lengthAdjust="spacing" textLength="17.7939" x="62.5" y="246.8467">b2</text><line style="stroke:#181818;stroke-width:0.5;" x1="34.5" x2="82.2939" y1="258" y2="258"/><line style="stroke:#181818;stroke-width:0.5;" x1="34.5" x2="82.2939" y1="266" y2="266"/></g><!--class b3--><g class="entity" data-qualified-name="B.b3" data-source-line="21" id="ent0017"><rect fill="#F1F1F1" height="48" rx="2.5" ry="2.5" style="stroke:#181818;stroke-width:0.5;" width="49.7939" x="33.5" y="160"/><ellipse cx="48.5" cy="176" fill="#ADD1B2" rx="11" ry="11" style="stroke:#181818;stroke-width:1;"/><path d="M51.4688,181.6406 Q50.8906,181.9375 50.25,182.0781 Q49.6094,182.2344 48.9063,182.2344 Q46.4063,182.2344 45.0781,180.5938 Q43.7656,178.9375 43.7656,175.8125 Q43.7656,172.6875 45.0781,171.0313 Q46.4063,169.375 48.9063,169.375 Q49.6094,169.375 50.25,169.5313 Q50.9063,169.6875 51.4688,169.9844 L51.4688,172.7031 Q50.8438,172.125 50.25,171.8594 Q49.6563,171.5781 49.0313,171.5781 Q47.6875,171.5781 47,172.6563 Q46.3125,173.7188 46.3125,175.8125 Q46.3125,177.9063 47,178.9844 Q47.6875,180.0469 49.0313,180.0469 Q49.6563,180.0469 50.25,179.7813 Q50.8438,179.5 51.4688,178.9219 L51.4688,181.6406 Z " fill="#000000"/><text fill="#000000" font-family="sans-serif" font-size="14" lengthAdjust="spacing" textLength="17.7939" x="62.5" y="180.8467">b3</text><line style="stroke:#181818;stroke-width:0.5;" x1="34.5" x2="82.2939" y1="192" y2="192"/><line style="stroke:#181818;stroke-width:0.5;" x1="34.5" x2="82.2939" y1="200" y2="200"/></g><!--class b4--><g class="entity" data-qualified-name="B.b4" data-source-line="22" id="ent0018"><rect fill="#F1F1F1" height="48" rx="2.5" ry="2.5" style="stroke:#181818;stroke-width:0.5;" width="49.7939" x="126.5" y="292"/><ellipse cx="141.5" cy="308" fill="#ADD1B2" rx="11" ry="11" style="stroke:#181818;stroke-width:1;"/><path d="M144.4688,313.6406 Q143.8906,313.9375 143.25,314.0781 Q142.6094,314.2344 141.9063,314.2344 Q139.4063,314.2344 138.0781,312.5938 Q136.7656,310.9375 136.7656,307.8125 Q136.7656,304.6875 138.0781,303.0313 Q139.4063,301.375 141.9063,301.375 Q142.6094,301.375 143.25,301.5313 Q143.9063,301.6875 144.4688,301.9844 L144.4688,304.7031 Q143.8438,304.125 143.25,303.8594 Q142.6563,303.5781 142.0313,303.5781 Q140.6875,303.5781 140,304.6563 Q139.3125,305.7188 139.3125,307.8125 Q139.3125,309.9063 140,310.9844 Q140.6875,312.0469 142.0313,312.0469 Q142.6563,312.0469 143.25,311.7813 Q143.8438,311.5 144.4688,310.9219 L144.4688,313.6406 Z " fill="#000000"/><text fill="#000000" font-family="sans-serif" font-size="14" lengthAdjust="spacing" textLength="17.7939" x="155.5" y="312.8467">b4</text><line style="stroke:#181818;stroke-width:0.5;" x1="127.5" x2="175.2939" y1="324" y2="324"/><line style="stroke:#181818;stroke-width:0.5;" x1="127.5" x2="175.2939" y1="332" y2="332"/></g><!--class b5--><g class="entity" data-qualified-name="B.b5" data-source-line="23" id="ent0019"><rect fill="#F1F1F1" height="48" rx="2.5" ry="2.5" style="stroke:#181818;stroke-width:0.5;" width="49.7939" x="126.5" y="226"/><ellipse cx="141.5" cy="242" fill="#ADD1B2" rx="11" ry="11" style="stroke:#181818;stroke-width:1;"/><path d="M144.4688,247.6406 Q143.8906,247.9375 143.25,248.0781 Q142.6094,248.2344 141.9063,248.2344 Q139.4063,248.2344 138.0781,246.5938 Q136.7656,244.9375 136.7656,241.8125 Q136.7656,238.6875 138.0781,237.0313 Q139.4063,235.375 141.9063,235.375 Q142.6094,235.375 143.25,235.5313 Q143.9063,235.6875 144.4688,235.9844 L144.4688,238.7031 Q143.8438,238.125 143.25,237.8594 Q142.6563,237.5781 142.0313,237.5781 Q140.6875,237.5781 140,238.6563 Q139.3125,239.7188 139.3125,241.8125 Q139.3125,243.9063 140,244.9844 Q140.6875,246.0469 142.0313,246.0469 Q142.6563,246.0469 143.25,245.7813 Q143.8438,245.5 144.4688,244.9219 L144.4688,247.6406 Z " fill="#000000"/><text fill="#000000" font-family="sans-serif" font-size="14" lengthAdjust="spacing" textLength="17.7939" x="155.5" y="246.8467">b5</text><line style="stroke:#181818;stroke-width:0.5;" x1="127.5" x2="175.2939" y1="258" y2="258"/><line style="stroke:#181818;stroke-width:0.5;" x1="127.5" x2="175.2939" y1="266" y2="266"/></g><!--class sb1--><g class="entity" data-qualified-name="B.sub_b.sb1" data-source-line="25" id="ent0021"><rect fill="#F1F1F1" height="48" rx="2.5" ry="2.5" style="stroke:#181818;stroke-width:0.5;" width="57.0879" x="30" y="94"/><ellipse cx="45" cy="110" fill="#ADD1B2" rx="11" ry="11" style="stroke:#181818;stroke-width:1;"/><path d="M47.9688,115.6406 Q47.3906,115.9375 46.75,116.0781 Q46.1094,116.2344 45.4063,116.2344 Q42.9063,116.2344 41.5781,114.5938 Q40.2656,112.9375 40.2656,109.8125 Q40.2656,106.6875 41.5781,105.0313 Q42.9063,103.375 45.4063,103.375 Q46.1094,103.375 46.75,103.5313 Q47.4063,103.6875 47.9688,103.9844 L47.9688,106.7031 Q47.3438,106.125 46.75,105.8594 Q46.1563,105.5781 45.5313,105.5781 Q44.1875,105.5781 43.5,106.6563 Q42.8125,107.7188 42.8125,109.8125 Q42.8125,111.9063 43.5,112.9844 Q44.1875,114.0469 45.5313,114.0469 Q46.1563,114.0469 46.75,113.7813 Q47.3438,113.5 47.9688,112.9219 L47.9688,115.6406 Z " fill="#000000"/><text fill="#000000" font-family="sans-serif" font-size="14" lengthAdjust="spacing" textLength="25.0879" x="59" y="114.8467">sb1</text><line style="stroke:#181818;stroke-width:0.5;" x1="31" x2="86.0879" y1="126" y2="126"/><line style="stroke:#181818;stroke-width:0.5;" x1="31" x2="86.0879" y1="134" y2="134"/></g><!--class sb2--><g class="entity" data-qualified-name="B.sub_b.sb2" data-source-line="26" id="ent0022"><rect fill="#F1F1F1" height="48" rx="2.5" ry="2.5" style="stroke:#181818;stroke-width:0.5;" width="57.0879" x="30" y="28"/><ellipse cx="45" cy="44" fill="#ADD1B2" rx="11" ry="11" style="stroke:#181818;stroke-width:1;"/><path d="M47.9688,49.6406 Q47.3906,49.9375 46.75,50.0781 Q46.1094,50.2344 45.4063,50.2344 Q42.9063,50.2344 41.5781,48.5938 Q40.2656,46.9375 40.2656,43.8125 Q40.2656,40.6875 41.5781,39.0313 Q42.9063,37.375 45.4063,37.375 Q46.1094,37.375 46.75,37.5313 Q47.4063,37.6875 47.9688,37.9844 L47.9688,40.7031 Q47.3438,40.125 46.75,39.8594 Q46.1563,39.5781 45.5313,39.5781 Q44.1875,39.5781 43.5,40.6563 Q42.8125,41.7188 42.8125,43.8125 Q42.8125,45.9063 43.5,46.9844 Q44.1875,48.0469 45.5313,48.0469 Q46.1563,48.0469 46.75,47.7813 Q47.3438,47.5 47.9688,46.9219 L47.9688,49.6406 Z " fill="#000000"/><text fill="#000000" font-family="sans-serif" font-size="14" lengthAdjust="spacing" textLength="25.0879" x="59" y="48.8467">sb2</text><line style="stroke:#181818;stroke-width:0.5;" x1="31" x2="86.0879" y1="60" y2="60"/><line style="stroke:#181818;stroke-width:0.5;" x1="31" x2="86.0879" y1="68" y2="68"/></g><!--class sb3--><g class="entity" data-qualified-name="B.sub_b.sb3" data-source-line="27" id="ent0023"><rect fill="#F1F1F1" height="48" rx="2.5" ry="2.5" style="stroke:#181818;stroke-width:0.5;" width="57.0879" x="123" y="94"/><ellipse cx="138" cy="110" fill="#ADD1B2" rx="11" ry="11" style="stroke:#181818;stroke-width:1;"/><path d="M140.9688,115.6406 Q140.3906,115.9375 139.75,116.0781 Q139.1094,116.2344 138.4063,116.2344 Q135.9063,116.2344 134.5781,114.5938 Q133.2656,112.9375 133.2656,109.8125 Q133.2656,106.6875 134.5781,105.0313 Q135.9063,103.375 138.4063,103.375 Q139.1094,103.375 139.75,103.5313 Q140.4063,103.6875 140.9688,103.9844 L140.9688,106.7031 Q140.3438,106.125 139.75,105.8594 Q139.1563,105.5781 138.5313,105.5781 Q137.1875,105.5781 136.5,106.6563 Q135.8125,107.7188 135.8125,109.8125 Q135.8125,111.9063 136.5,112.9844 Q137.1875,114.0469 138.5313,114.0469 Q139.1563,114.0469 139.75,113.7813 Q140.3438,113.5 140.9688,112.9219 L140.9688,115.6406 Z " fill="#000000"/><text fill="#000000" font-family="sans-serif" font-size="14" lengthAdjust="spacing" textLength="25.0879" x="152" y="114.8467">sb3</text><line style="stroke:#181818;stroke-width:0.5;" x1="124" x2="179.0879" y1="126" y2="126"/><line style="stroke:#181818;stroke-width:0.5;" x1="124" x2="179.0879" y1="134" y2="134"/></g><?plantuml-src NSx13S8m30NGUwOm8r1W05W4-OSG8jgcIjm3ghexfGfru69_ozBNsms9VSVKyYkEGhbpmZsRrjs5958A_Y5q2ybP2R4tjkMSYSk66TW-sJiwqsI8odUliT5uq7ZKU5hYjoIFkF9QLBvvhTgEfZu-TREPbxaXBXK2Ye0Ye0We0ly8_21G8r0ZK11l?></g></svg>