<svg xmlns="http://www.w3.org/2000/svg" xmlns:xlink="http://www.w3.org/1999/xlink" contentStyleType="text/css" data-diagram-type="CLASS" height="214px" preserveAspectRatio="none" style="width:858px;height:214px;background:#FFFFFF;" version="1.1" viewBox="0 0 858 214" width="858px" zoomAndPan="magnify"><?plantuml 1.2026.3beta5?><defs/><g><!--cluster A--><g class="cluster" data-qualified-name="A" data-source-line="4" id="ent0004"><path d="M118,4 L129.835,4 A3.75,3.75 0 0 1 132.335,6.5 L139.335,26.2969 L471,26.2969 A2.5,2.5 0 0 1 473.5,28.7969 L473.5,203.5 A2.5,2.5 0 0 1 471,206 L118,206 A2.5,2.5 0 0 1 115.5,203.5 L115.5,6.5 A2.5,2.5 0 0 1 118,4" fill="none" style="stroke:#000000;stroke-width:1.5;"/><line style="stroke:#000000;stroke-width:1.5;" x1="115.5" x2="139.335" y1="26.2969" y2="26.2969"/><text fill="#000000" font-family="sans-serif" font-size="14" font-weight="700" lengthAdjust="spacing" textLength="10.835" x="119.5" y="18.9951">A</text></g><!--cluster sub_a--><g class="cluster" data-qualified-name="A.sub_a" data-source-line="10" id="ent0010"><path d="M319,31 L364.7686,31 A3.75,3.75 0 0 1 367.2686,33.5 L374.2686,53.2969 L463,53.2969 A2.5,2.5 0 0 1 465.5,55.7969 L465.5,195.5 A2.5,2.5 0 0 1 463,198 L319,198 A2.5,2.5 0 0 1 316.5,195.5 L316.5,33.5 A2.5,2.5 0 0 1 319,31" fill="none" style="stroke:#000000;stroke-width:1.5;"/><line style="stroke:#000000;stroke-width:1.5;" x1="316.5" x2="374.2686" y1="53.2969" y2="53.2969"/><text fill="#000000" font-family="sans-serif" font-size="14" font-weight="700" lengthAdjust="spacing" textLength="44.7686" x="320.5" y="45.9951">sub_a</text></g><!--cluster B--><g class="cluster" data-qualified-name="B" data-source-line="17" id="ent0014"><path d="M484,4 L495.6709,4 A3.75,3.75 0 0 1 498.1709,6.5 L505.1709,26.2969 L840,26.2969 A2.5,2.5 0 0 1 842.5,28.7969 L842.5,203.5 A2.5,2.5 0 0 1 840,206 L484,206 A2.5,2.5 0 0 1 481.5,203.5 L481.5,6.5 A2.5,2.5 0 0 1 484,4" fill="none" style="stroke:#000000;stroke-width:1.5;"/><line style="stroke:#000000;stroke-width:1.5;" x1="481.5" x2="505.1709" y1="26.2969" y2="26.2969"/><text fill="#000000" font-family="sans-serif" font-size="14" font-weight="700" lengthAdjust="spacing" textLength="10.6709" x="485.5" y="18.9951">B</text></g><!--cluster sub_b--><g class="cluster" data-qualified-name="B.sub_b" data-source-line="23" id="ent0020"><path d="M688,31 L734.3428,31 A3.75,3.75 0 0 1 736.8428,33.5 L743.8428,53.2969 L832,53.2969 A2.5,2.5 0 0 1 834.5,55.7969 L834.5,195.5 A2.5,2.5 0 0 1 832,198 L688,198 A2.5,2.5 0 0 1 685.5,195.5 L685.5,33.5 A2.5,2.5 0 0 1 688,31" fill="none" style="stroke:#000000;stroke-width:1.5;"/><line style="stroke:#000000;stroke-width:1.5;" x1="685.5" x2="743.8428" y1="53.2969" y2="53.2969"/><text fill="#000000" font-family="sans-serif" font-size="14" font-weight="700" lengthAdjust="spacing" textLength="45.3428" x="689.5" y="45.9951">sub_b</text></g><!--class a--><g class="entity" data-qualified-name="a" data-source-line="2" id="ent0002"><rect fill="#F1F1F1" height="48" rx="2.5" ry="2.5" style="stroke:#181818;stroke-width:0.5;" width="40.5791" x="6" y="58"/><ellipse cx="21" cy="74" fill="#ADD1B2" rx="11" ry="11" style="stroke:#181818;stroke-width:1;"/><path d="M23.9688,79.6406 Q23.3906,79.9375 22.75,80.0781 Q22.1094,80.2344 21.4063,80.2344 Q18.9063,80.2344 17.5781,78.5938 Q16.2656,76.9375 16.2656,73.8125 Q16.2656,70.6875 17.5781,69.0313 Q18.9063,67.375 21.4063,67.375 Q22.1094,67.375 22.75,67.5313 Q23.4063,67.6875 23.9688,67.9844 L23.9688,70.7031 Q23.3438,70.125 22.75,69.8594 Q22.1563,69.5781 21.5313,69.5781 Q20.1875,69.5781 19.5,70.6563 Q18.8125,71.7188 18.8125,73.8125 Q18.8125,75.9063 19.5,76.9844 Q20.1875,78.0469 21.5313,78.0469 Q22.1563,78.0469 22.75,77.7813 Q23.3438,77.5 23.9688,76.9219 L23.9688,79.6406 Z " fill="#000000"/><text fill="#000000" font-family="sans-serif" font-size="14" lengthAdjust="spacing" textLength="8.5791" x="35" y="78.8467">a</text><line style="stroke:#181818;stroke-width:0.5;" x1="7" x2="45.5791" y1="90" y2="90"/><line style="stroke:#181818;stroke-width:0.5;" x1="7" x2="45.5791" y1="98" y2="98"/></g><!--class b--><g class="entity" data-qualified-name="b" data-source-line="3" id="ent0003"><rect fill="#F1F1F1" height="48" rx="2.5" ry="2.5" style="stroke:#181818;stroke-width:0.5;" width="40.8867" x="65" y="58"/><ellipse cx="80" cy="74" fill="#ADD1B2" rx="11" ry="11" style="stroke:#181818;stroke-width:1;"/><path d="M82.9688,79.6406 Q82.3906,79.9375 81.75,80.0781 Q81.1094,80.2344 80.4063,80.2344 Q77.9063,80.2344 76.5781,78.5938 Q75.2656,76.9375 75.2656,73.8125 Q75.2656,70.6875 76.5781,69.0313 Q77.9063,67.375 80.4063,67.375 Q81.1094,67.375 81.75,67.5313 Q82.4063,67.6875 82.9688,67.9844 L82.9688,70.7031 Q82.3438,70.125 81.75,69.8594 Q81.1563,69.5781 80.5313,69.5781 Q79.1875,69.5781 78.5,70.6563 Q77.8125,71.7188 77.8125,73.8125 Q77.8125,75.9063 78.5,76.9844 Q79.1875,78.0469 80.5313,78.0469 Q81.1563,78.0469 81.75,77.7813 Q82.3438,77.5 82.9688,76.9219 L82.9688,79.6406 Z " fill="#000000"/><text fill="#000000" font-family="sans-serif" font-size="14" lengthAdjust="spacing" textLength="8.8867" x="94" y="78.8467">b</text><line style="stroke:#181818;stroke-width:0.5;" x1="66" x2="104.8867" y1="90" y2="90"/><line style="stroke:#181818;stroke-width:0.5;" x1="66" x2="104.8867" y1="98" y2="98"/></g><!--class a1--><g class="entity" data-qualified-name="A.a1" data-source-line="5" id="ent0005"><rect fill="#F1F1F1" height="48" rx="2.5" ry="2.5" style="stroke:#181818;stroke-width:0.5;" width="49.4863" x="124" y="58"/><ellipse cx="139" cy="74" fill="#ADD1B2" rx="11" ry="11" style="stroke:#181818;stroke-width:1;"/><path d="M141.9688,79.6406 Q141.3906,79.9375 140.75,80.0781 Q140.1094,80.2344 139.4063,80.2344 Q136.9063,80.2344 135.5781,78.5938 Q134.2656,76.9375 134.2656,73.8125 Q134.2656,70.6875 135.5781,69.0313 Q136.9063,67.375 139.4063,67.375 Q140.1094,67.375 140.75,67.5313 Q141.4063,67.6875 141.9688,67.9844 L141.9688,70.7031 Q141.3438,70.125 140.75,69.8594 Q140.1563,69.5781 139.5313,69.5781 Q138.1875,69.5781 137.5,70.6563 Q136.8125,71.7188 136.8125,73.8125 Q136.8125,75.9063 137.5,76.9844 Q138.1875,78.0469 139.5313,78.0469 Q140.1563,78.0469 140.75,77.7813 Q141.3438,77.5 141.9688,76.9219 L141.9688,79.6406 Z " fill="#000000"/><text fill="#000000" font-family="sans-serif" font-size="14" lengthAdjust="spacing" textLength="17.4863" x="153" y="78.8467">a1</text><line style="stroke:#181818;stroke-width:0.5;" x1="125" x2="172.4863" y1="90" y2="90"/><line style="stroke:#181818;stroke-width:0.5;" x1="125" x2="172.4863" y1="98" y2="98"/></g><!--class a2--><g class="entity" data-qualified-name="A.a2" data-source-line="6" id="ent0006"><rect fill="#F1F1F1" height="48" rx="2.5" ry="2.5" style="stroke:#181818;stroke-width:0.5;" width="49.4863" x="191" y="58"/><ellipse cx="206" cy="74" fill="#ADD1B2" rx="11" ry="11" style="stroke:#181818;stroke-width:1;"/><path d="M208.9688,79.6406 Q208.3906,79.9375 207.75,80.0781 Q207.1094,80.2344 206.4063,80.2344 Q203.9063,80.2344 202.5781,78.5938 Q201.2656,76.9375 201.2656,73.8125 Q201.2656,70.6875 202.5781,69.0313 Q203.9063,67.375 206.4063,67.375 Q207.1094,67.375 207.75,67.5313 Q208.4063,67.6875 208.9688,67.9844 L208.9688,70.7031 Q208.3438,70.125 207.75,69.8594 Q207.1563,69.5781 206.5313,69.5781 Q205.1875,69.5781 204.5,70.6563 Q203.8125,71.7188 203.8125,73.8125 Q203.8125,75.9063 204.5,76.9844 Q205.1875,78.0469 206.5313,78.0469 Q207.1563,78.0469 207.75,77.7813 Q208.3438,77.5 208.9688,76.9219 L208.9688,79.6406 Z " fill="#000000"/><text fill="#000000" font-family="sans-serif" font-size="14" lengthAdjust="spacing" textLength="17.4863" x="220" y="78.8467">a2</text><line style="stroke:#181818;stroke-width:0.5;" x1="192" x2="239.4863" y1="90" y2="90"/><line style="stroke:#181818;stroke-width:0.5;" x1="192" x2="239.4863" y1="98" y2="98"/></g><!--class a3--><g class="entity" data-qualified-name="A.a3" data-source-line="7" id="ent0007"><rect fill="#F1F1F1" height="48" rx="2.5" ry="2.5" style="stroke:#181818;stroke-width:0.5;" width="49.4863" x="258" y="58"/><ellipse cx="273" cy="74" fill="#ADD1B2" rx="11" ry="11" style="stroke:#181818;stroke-width:1;"/><path d="M275.9688,79.6406 Q275.3906,79.9375 274.75,80.0781 Q274.1094,80.2344 273.4063,80.2344 Q270.9063,80.2344 269.5781,78.5938 Q268.2656,76.9375 268.2656,73.8125 Q268.2656,70.6875 269.5781,69.0313 Q270.9063,67.375 273.4063,67.375 Q274.1094,67.375 274.75,67.5313 Q275.4063,67.6875 275.9688,67.9844 L275.9688,70.7031 Q275.3438,70.125 274.75,69.8594 Q274.1563,69.5781 273.5313,69.5781 Q272.1875,69.5781 271.5,70.6563 Q270.8125,71.7188 270.8125,73.8125 Q270.8125,75.9063 271.5,76.9844 Q272.1875,78.0469 273.5313,78.0469 Q274.1563,78.0469 274.75,77.7813 Q275.3438,77.5 275.9688,76.9219 L275.9688,79.6406 Z " fill="#000000"/><text fill="#000000" font-family="sans-serif" font-size="14" lengthAdjust="spacing" textLength="17.4863" x="287" y="78.8467">a3</text><line style="stroke:#181818;stroke-width:0.5;" x1="259" x2="306.4863" y1="90" y2="90"/><line style="stroke:#181818;stroke-width:0.5;" x1="259" x2="306.4863" y1="98" y2="98"/></g><!--class a4--><g class="entity" data-qualified-name="A.a4" data-source-line="8" id="ent0008"><rect fill="#F1F1F1" height="48" rx="2.5" ry="2.5" style="stroke:#181818;stroke-width:0.5;" width="49.4863" x="124" y="142"/><ellipse cx="139" cy="158" fill="#ADD1B2" rx="11" ry="11" style="stroke:#181818;stroke-width:1;"/><path d="M141.9688,163.6406 Q141.3906,163.9375 140.75,164.0781 Q140.1094,164.2344 139.4063,164.2344 Q136.9063,164.2344 135.5781,162.5938 Q134.2656,160.9375 134.2656,157.8125 Q134.2656,154.6875 135.5781,153.0313 Q136.9063,151.375 139.4063,151.375 Q140.1094,151.375 140.75,151.5313 Q141.4063,151.6875 141.9688,151.9844 L141.9688,154.7031 Q141.3438,154.125 140.75,153.8594 Q140.1563,153.5781 139.5313,153.5781 Q138.1875,153.5781 137.5,154.6563 Q136.8125,155.7188 136.8125,157.8125 Q136.8125,159.9063 137.5,160.9844 Q138.1875,162.0469 139.5313,162.0469 Q140.1563,162.0469 140.75,161.7813 Q141.3438,161.5 141.9688,160.9219 L141.9688,163.6406 Z " fill="#000000"/><text fill="#000000" font-family="sans-serif" font-size="14" lengthAdjust="spacing" textLength="17.4863" x="153" y="162.8467">a4</text><line style="stroke:#181818;stroke-width:0.5;" x1="125" x2="172.4863" y1="174" y2="174"/><line style="stroke:#181818;stroke-width:0.5;" x1="125" x2="172.4863" y1="182" y2="182"/></g><!--class a5--><g class="entity" data-qualified-name="A.a5" data-source-line="9" id="ent0009"><rect fill="#F1F1F1" height="48" rx="2.5" ry="2.5" style="stroke:#181818;stroke-width:0.5;" width="49.4863" x="191" y="142"/><ellipse cx="206" cy="158" fill="#ADD1B2" rx="11" ry="11" style="stroke:#181818;stroke-width:1;"/><path d="M208.9688,163.6406 Q208.3906,163.9375 207.75,164.0781 Q207.1094,164.2344 206.4063,164.2344 Q203.9063,164.2344 202.5781,162.5938 Q201.2656,160.9375 201.2656,157.8125 Q201.2656,154.6875 202.5781,153.0313 Q203.9063,151.375 206.4063,151.375 Q207.1094,151.375 207.75,151.5313 Q208.4063,151.6875 208.9688,151.9844 L208.9688,154.7031 Q208.3438,154.125 207.75,153.8594 Q207.1563,153.5781 206.5313,153.5781 Q205.1875,153.5781 204.5,154.6563 Q203.8125,155.7188 203.8125,157.8125 Q203.8125,159.9063 204.5,160.9844 Q205.1875,162.0469 206.5313,162.0469 Q207.1563,162.0469 207.75,161.7813 Q208.3438,161.5 208.9688,160.9219 L208.9688,163.6406 Z " fill="#000000"/><text fill="#000000" font-family="sans-serif" font-size="14" lengthAdjust="spacing" textLength="17.4863" x="220" y="162.8467">a5</text><line style="stroke:#181818;stroke-width:0.5;" x1="192" x2="239.4863" y1="174" y2="174"/><line style="stroke:#181818;stroke-width:0.5;" x1="192" x2="239.4863" y1="182" y2="182"/></g><!--class sa1--><g class="entity" data-qualified-name="A.sub_a.sa1" data-source-line="11" id="ent0011"><rect fill="#F1F1F1" height="48" rx="2.5" ry="2.5" style="stroke:#181818;stroke-width:0.5;" width="56.7803" x="325" y="58"/><ellipse cx="340" cy="74" fill="#ADD1B2" rx="11" ry="11" style="stroke:#181818;stroke-width:1;"/><path d="M342.9688,79.6406 Q342.3906,79.9375 341.75,80.0781 Q341.1094,80.2344 340.4063,80.2344 Q337.9063,80.2344 336.5781,78.5938 Q335.2656,76.9375 335.2656,73.8125 Q335.2656,70.6875 336.5781,69.0313 Q337.9063,67.375 340.4063,67.375 Q341.1094,67.375 341.75,67.5313 Q342.4063,67.6875 342.9688,67.9844 L342.9688,70.7031 Q342.3438,70.125 341.75,69.8594 Q341.1563,69.5781 340.5313,69.5781 Q339.1875,69.5781 338.5,70.6563 Q337.8125,71.7188 337.8125,73.8125 Q337.8125,75.9063 338.5,76.9844 Q339.1875,78.0469 340.5313,78.0469 Q341.1563,78.0469 341.75,77.7813 Q342.3438,77.5 342.9688,76.9219 L342.9688,79.6406 Z " fill="#000000"/><text fill="#000000" font-family="sans-serif" font-size="14" lengthAdjust="spacing" textLength="24.7803" x="354" y="78.8467">sa1</text><line style="stroke:#181818;stroke-width:0.5;" x1="326" x2="380.7803" y1="90" y2="90"/><line style="stroke:#181818;stroke-width:0.5;" x1="326" x2="380.7803" y1="98" y2="98"/></g><!--class sa2--><g class="entity" data-qualified-name="A.sub_a.sa2" data-source-line="12" id="ent0012"><rect fill="#F1F1F1" height="48" rx="2.5" ry="2.5" style="stroke:#181818;stroke-width:0.5;" width="56.7803" x="400" y="58"/><ellipse cx="415" cy="74" fill="#ADD1B2" rx="11" ry="11" style="stroke:#181818;stroke-width:1;"/><path d="M417.9688,79.6406 Q417.3906,79.9375 416.75,80.0781 Q416.1094,80.2344 415.4063,80.2344 Q412.9063,80.2344 411.5781,78.5938 Q410.2656,76.9375 410.2656,73.8125 Q410.2656,70.6875 411.5781,69.0313 Q412.9063,67.375 415.4063,67.375 Q416.1094,67.375 416.75,67.5313 Q417.4063,67.6875 417.9688,67.9844 L417.9688,70.7031 Q417.3438,70.125 416.75,69.8594 Q416.1563,69.5781 415.5313,69.5781 Q414.1875,69.5781 413.5,70.6563 Q412.8125,71.7188 412.8125,73.8125 Q412.8125,75.9063 413.5,76.9844 Q414.1875,78.0469 415.5313,78.0469 Q416.1563,78.0469 416.75,77.7813 Q417.3438,77.5 417.9688,76.9219 L417.9688,79.6406 Z " fill="#000000"/><text fill="#000000" font-family="sans-serif" font-size="14" lengthAdjust="spacing" textLength="24.7803" x="429" y="78.8467">sa2</text><line style="stroke:#181818;stroke-width:0.5;" x1="401" x2="455.7803" y1="90" y2="90"/><line style="stroke:#181818;stroke-width:0.5;" x1="401" x2="455.7803" y1="98" y2="98"/></g><!--class sa3--><g class="entity" data-qualified-name="A.sub_a.sa3" data-source-line="13" id="ent0013"><rect fill="#F1F1F1" height="48" rx="2.5" ry="2.5" style="stroke:#181818;stroke-width:0.5;" width="56.7803" x="325" y="142"/><ellipse cx="340" cy="158" fill="#ADD1B2" rx="11" ry="11" style="stroke:#181818;stroke-width:1;"/><path d="M342.9688,163.6406 Q342.3906,163.9375 341.75,164.0781 Q341.1094,164.2344 340.4063,164.2344 Q337.9063,164.2344 336.5781,162.5938 Q335.2656,160.9375 335.2656,157.8125 Q335.2656,154.6875 336.5781,153.0313 Q337.9063,151.375 340.4063,151.375 Q341.1094,151.375 341.75,151.5313 Q342.4063,151.6875 342.9688,151.9844 L342.9688,154.7031 Q342.3438,154.125 341.75,153.8594 Q341.1563,153.5781 340.5313,153.5781 Q339.1875,153.5781 338.5,154.6563 Q337.8125,155.7188 337.8125,157.8125 Q337.8125,159.9063 338.5,160.9844 Q339.1875,162.0469 340.5313,162.0469 Q341.1563,162.0469 341.75,161.7813 Q342.3438,161.5 342.9688,160.9219 L342.9688,163.6406 Z " fill="#000000"/><text fill="#000000" font-family="sans-serif" font-size="14" lengthAdjust="spacing" textLength="24.7803" x="354" y="162.8467">sa3</text><line style="stroke:#181818;stroke-width:0.5;" x1="326" x2="380.7803" y1="174" y2="174"/><line style="stroke:#181818;stroke-width:0.5;" x1="326" x2="380.7803" y1="182" y2="182"/></g><!--class b1--><g class="entity" data-qualified-name="B.b1" data-source-line="18" id="ent0015"><rect fill="#F1F1F1" height="48" rx="2.5" ry="2.5" style="stroke:#181818;stroke-width:0.5;" width="49.7939" x="489.5" y="58"/><ellipse cx="504.5" cy="74" fill="#ADD1B2" rx="11" ry="11" style="stroke:#181818;stroke-width:1;"/><path d="M507.4688,79.6406 Q506.8906,79.9375 506.25,80.0781 Q505.6094,80.2344 504.9063,80.2344 Q502.4063,80.2344 501.0781,78.5938 Q499.7656,76.9375 499.7656,73.8125 Q499.7656,70.6875 501.0781,69.0313 Q502.4063,67.375 504.9063,67.375 Q505.6094,67.375 506.25,67.5313 Q506.9063,67.6875 507.4688,67.9844 L507.4688,70.7031 Q506.8438,70.125 506.25,69.8594 Q505.6563,69.5781 505.0313,69.5781 Q503.6875,69.5781 503,70.6563 Q502.3125,71.7188 502.3125,73.8125 Q502.3125,75.9063 503,76.9844 Q503.6875,78.0469 505.0313,78.0469 Q505.6563,78.0469 506.25,77.7813 Q506.8438,77.5 507.4688,76.9219 L507.4688,79.6406 Z " fill="#000000"/><text fill="#000000" font-family="sans-serif" font-size="14" lengthAdjust="spacing" textLength="17.7939" x="518.5" y="78.8467">b1</text><line style="stroke:#181818;stroke-width:0.5;" x1="490.5" x2="538.2939" y1="90" y2="90"/><line style="stroke:#181818;stroke-width:0.5;" x1="490.5" x2="538.2939" y1="98" y2="98"/></g><!--class b2--><g class="entity" data-qualified-name="B.b2" data-source-line="19" id="ent0016"><rect fill="#F1F1F1" height="48" rx="2.5" ry="2.5" style="stroke:#181818;stroke-width:0.5;" width="49.7939" x="557.5" y="58"/><ellipse cx="572.5" cy="74" fill="#ADD1B2" rx="11" ry="11" style="stroke:#181818;stroke-width:1;"/><path d="M575.4688,79.6406 Q574.8906,79.9375 574.25,80.0781 Q573.6094,80.2344 572.9063,80.2344 Q570.4063,80.2344 569.0781,78.5938 Q567.7656,76.9375 567.7656,73.8125 Q567.7656,70.6875 569.0781,69.0313 Q570.4063,67.375 572.9063,67.375 Q573.6094,67.375 574.25,67.5313 Q574.9063,67.6875 575.4688,67.9844 L575.4688,70.7031 Q574.8438,70.125 574.25,69.8594 Q573.6563,69.5781 573.0313,69.5781 Q571.6875,69.5781 571,70.6563 Q570.3125,71.7188 570.3125,73.8125 Q570.3125,75.9063 571,76.9844 Q571.6875,78.0469 573.0313,78.0469 Q573.6563,78.0469 574.25,77.7813 Q574.8438,77.5 575.4688,76.9219 L575.4688,79.6406 Z " fill="#000000"/><text fill="#000000" font-family="sans-serif" font-size="14" lengthAdjust="spacing" textLength="17.7939" x="586.5" y="78.8467">b2</text><line style="stroke:#181818;stroke-width:0.5;" x1="558.5" x2="606.2939" y1="90" y2="90"/><line style="stroke:#181818;stroke-width:0.5;" x1="558.5" x2="606.2939" y1="98" y2="98"/></g><!--class b3--><g class="entity" data-qualified-name="B.b3" data-source-line="20" id="ent0017"><rect fill="#F1F1F1" height="48" rx="2.5" ry="2.5" style="stroke:#181818;stroke-width:0.5;" width="49.7939" x="625.5" y="58"/><ellipse cx="640.5" cy="74" fill="#ADD1B2" rx="11" ry="11" style="stroke:#181818;stroke-width:1;"/><path d="M643.4688,79.6406 Q642.8906,79.9375 642.25,80.0781 Q641.6094,80.2344 640.9063,80.2344 Q638.4063,80.2344 637.0781,78.5938 Q635.7656,76.9375 635.7656,73.8125 Q635.7656,70.6875 637.0781,69.0313 Q638.4063,67.375 640.9063,67.375 Q641.6094,67.375 642.25,67.5313 Q642.9063,67.6875 643.4688,67.9844 L643.4688,70.7031 Q642.8438,70.125 642.25,69.8594 Q641.6563,69.5781 641.0313,69.5781 Q639.6875,69.5781 639,70.6563 Q638.3125,71.7188 638.3125,73.8125 Q638.3125,75.9063 639,76.9844 Q639.6875,78.0469 641.0313,78.0469 Q641.6563,78.0469 642.25,77.7813 Q642.8438,77.5 643.4688,76.9219 L643.4688,79.6406 Z " fill="#000000"/><text fill="#000000" font-family="sans-serif" font-size="14" lengthAdjust="spacing" textLength="17.7939" x="654.5" y="78.8467">b3</text><line style="stroke:#181818;stroke-width:0.5;" x1="626.5" x2="674.2939" y1="90" y2="90"/><line style="stroke:#181818;stroke-width:0.5;" x1="626.5" x2="674.2939" y1="98" y2="98"/></g><!--class b4--><g class="entity" data-qualified-name="B.b4" data-source-line="21" id="ent0018"><rect fill="#F1F1F1" height="48" rx="2.5" ry="2.5" style="stroke:#181818;stroke-width:0.5;" width="49.7939" x="489.5" y="142"/><ellipse cx="504.5" cy="158" fill="#ADD1B2" rx="11" ry="11" style="stroke:#181818;stroke-width:1;"/><path d="M507.4688,163.6406 Q506.8906,163.9375 506.25,164.0781 Q505.6094,164.2344 504.9063,164.2344 Q502.4063,164.2344 501.0781,162.5938 Q499.7656,160.9375 499.7656,157.8125 Q499.7656,154.6875 501.0781,153.0313 Q502.4063,151.375 504.9063,151.375 Q505.6094,151.375 506.25,151.5313 Q506.9063,151.6875 507.4688,151.9844 L507.4688,154.7031 Q506.8438,154.125 506.25,153.8594 Q505.6563,153.5781 505.0313,153.5781 Q503.6875,153.5781 503,154.6563 Q502.3125,155.7188 502.3125,157.8125 Q502.3125,159.9063 503,160.9844 Q503.6875,162.0469 505.0313,162.0469 Q505.6563,162.0469 506.25,161.7813 Q506.8438,161.5 507.4688,160.9219 L507.4688,163.6406 Z " fill="#000000"/><text fill="#000000" font-family="sans-serif" font-size="14" lengthAdjust="spacing" textLength="17.7939" x="518.5" y="162.8467">b4</text><line style="stroke:#181818;stroke-width:0.5;" x1="490.5" x2="538.2939" y1="174" y2="174"/><line style="stroke:#181818;stroke-width:0.5;" x1="490.5" x2="538.2939" y1="182" y2="182"/></g><!--class b5--><g class="entity" data-qualified-name="B.b5" data-source-line="22" id="ent0019"><rect fill="#F1F1F1" height="48" rx="2.5" ry="2.5" style="stroke:#181818;stroke-width:0.5;" width="49.7939" x="557.5" y="142"/><ellipse cx="572.5" cy="158" fill="#ADD1B2" rx="11" ry="11" style="stroke:#181818;stroke-width:1;"/><path d="M575.4688,163.6406 Q574.8906,163.9375 574.25,164.0781 Q573.6094,164.2344 572.9063,164.2344 Q570.4063,164.2344 569.0781,162.5938 Q567.7656,160.9375 567.7656,157.8125 Q567.7656,154.6875 569.0781,153.0313 Q570.4063,151.375 572.9063,151.375 Q573.6094,151.375 574.25,151.5313 Q574.9063,151.6875 575.4688,151.9844 L575.4688,154.7031 Q574.8438,154.125 574.25,153.8594 Q573.6563,153.5781 573.0313,153.5781 Q571.6875,153.5781 571,154.6563 Q570.3125,155.7188 570.3125,157.8125 Q570.3125,159.9063 571,160.9844 Q571.6875,162.0469 573.0313,162.0469 Q573.6563,162.0469 574.25,161.7813 Q574.8438,161.5 575.4688,160.9219 L575.4688,163.6406 Z " fill="#000000"/><text fill="#000000" font-family="sans-serif" font-size="14" lengthAdjust="spacing" textLength="17.7939" x="586.5" y="162.8467">b5</text><line style="stroke:#181818;stroke-width:0.5;" x1="558.5" x2="606.2939" y1="174" y2="174"/><line style="stroke:#181818;stroke-width:0.5;" x1="558.5" x2="606.2939" y1="182" y2="182"/></g><!--class sb1--><g class="entity" data-qualified-name="B.sub_b.sb1" data-source-line="24" id="ent0021"><rect fill="#F1F1F1" height="48" rx="2.5" ry="2.5" style="stroke:#181818;stroke-width:0.5;" width="57.0879" x="694" y="58"/><ellipse cx="709" cy="74" fill="#ADD1B2" rx="11" ry="11" style="stroke:#181818;stroke-width:1;"/><path d="M711.9688,79.6406 Q711.3906,79.9375 710.75,80.0781 Q710.1094,80.2344 709.4063,80.2344 Q706.9063,80.2344 705.5781,78.5938 Q704.2656,76.9375 704.2656,73.8125 Q704.2656,70.6875 705.5781,69.0313 Q706.9063,67.375 709.4063,67.375 Q710.1094,67.375 710.75,67.5313 Q711.4063,67.6875 711.9688,67.9844 L711.9688,70.7031 Q711.3438,70.125 710.75,69.8594 Q710.1563,69.5781 709.5313,69.5781 Q708.1875,69.5781 707.5,70.6563 Q706.8125,71.7188 706.8125,73.8125 Q706.8125,75.9063 707.5,76.9844 Q708.1875,78.0469 709.5313,78.0469 Q710.1563,78.0469 710.75,77.7813 Q711.3438,77.5 711.9688,76.9219 L711.9688,79.6406 Z " fill="#000000"/><text fill="#000000" font-family="sans-serif" font-size="14" lengthAdjust="spacing" textLength="25.0879" x="723" y="78.8467">sb1</text><line style="stroke:#181818;stroke-width:0.5;" x1="695" x2="750.0879" y1="90" y2="90"/><line style="stroke:#181818;stroke-width:0.5;" x1="695" x2="750.0879" y1="98" y2="98"/></g><!--class sb2--><g class="entity" data-qualified-name="B.sub_b.sb2" data-source-line="25" id="ent0022"><rect fill="#F1F1F1" height="48" rx="2.5" ry="2.5" style="stroke:#181818;stroke-width:0.5;" width="57.0879" x="769" y="58"/><ellipse cx="784" cy="74" fill="#ADD1B2" rx="11" ry="11" style="stroke:#181818;stroke-width:1;"/><path d="M786.9688,79.6406 Q786.3906,79.9375 785.75,80.0781 Q785.1094,80.2344 784.4063,80.2344 Q781.9063,80.2344 780.5781,78.5938 Q779.2656,76.9375 779.2656,73.8125 Q779.2656,70.6875 780.5781,69.0313 Q781.9063,67.375 784.4063,67.375 Q785.1094,67.375 785.75,67.5313 Q786.4063,67.6875 786.9688,67.9844 L786.9688,70.7031 Q786.3438,70.125 785.75,69.8594 Q785.1563,69.5781 784.5313,69.5781 Q783.1875,69.5781 782.5,70.6563 Q781.8125,71.7188 781.8125,73.8125 Q781.8125,75.9063 782.5,76.9844 Q783.1875,78.0469 784.5313,78.0469 Q785.1563,78.0469 785.75,77.7813 Q786.3438,77.5 786.9688,76.9219 L786.9688,79.6406 Z " fill="#000000"/><text fill="#000000" font-family="sans-serif" font-size="14" lengthAdjust="spacing" textLength="25.0879" x="798" y="78.8467">sb2</text><line style="stroke:#181818;stroke-width:0.5;" x1="770" x2="825.0879" y1="90" y2="90"/><line style="stroke:#181818;stroke-width:0.5;" x1="770" x2="825.0879" y1="98" y2="98"/></g><!--class sb3--><g class="entity" data-qualified-name="B.sub_b.sb3" data-source-line="26" id="ent0023"><rect fill="#F1F1F1" height="48" rx="2.5" ry="2.5" style="stroke:#181818;stroke-width:0.5;" width="57.0879" x="694" y="142"/><ellipse cx="709" cy="158" fill="#ADD1B2" rx="11" ry="11" style="stroke:#181818;stroke-width:1;"/><path d="M711.9688,163.6406 Q711.3906,163.9375 710.75,164.0781 Q710.1094,164.2344 709.4063,164.2344 Q706.9063,164.2344 705.5781,162.5938 Q704.2656,160.9375 704.2656,157.8125 Q704.2656,154.6875 705.5781,153.0313 Q706.9063,151.375 709.4063,151.375 Q710.1094,151.375 710.75,151.5313 Q711.4063,151.6875 711.9688,151.9844 L711.9688,154.7031 Q711.3438,154.125 710.75,153.8594 Q710.1563,153.5781 709.5313,153.5781 Q708.1875,153.5781 707.5,154.6563 Q706.8125,155.7188 706.8125,157.8125 Q706.8125,159.9063 707.5,160.9844 Q708.1875,162.0469 709.5313,162.0469 Q710.1563,162.0469 710.75,161.7813 Q711.3438,161.5 711.9688,160.9219 L711.9688,163.6406 Z " fill="#000000"/><text fill="#000000" font-family="sans-serif" font-size="14" lengthAdjust="spacing" textLength="25.0879" x="723" y="162.8467">sb3</text><line style="stroke:#181818;stroke-width:0.5;" x1="695" x2="750.0879" y1="174" y2="174"/><line style="stroke:#181818;stroke-width:0.5;" x1="695" x2="750.0879" y1="182" y2="182"/></g><?plantuml-src NSxB3OD030JG-rRXb0091K0ZQ0OX3k6pmd104Rs7e6Mzv6AFPMdq7dv6Dq1wRDEwY0xjWX6kwQ4grwRpQDxeMYdbuqJ2DxEOMtnQV5aiZdYLwCeQPr7uwbaLZpmzVdMxsuyP4LM2e25e21g2Xk0_WZS4KmHJ10FY2m00?></g></svg>