<svg xmlns="http://www.w3.org/2000/svg" xmlns:xlink="http://www.w3.org/1999/xlink" contentStyleType="text/css" data-diagram-type="CLASS" height="295px" preserveAspectRatio="none" style="width:1097px;height:295px;background:#FFFFFF;" version="1.1" viewBox="0 0 1097 295" width="1097px" zoomAndPan="magnify"><?plantuml 1.2026.3beta5?><defs/><g><!--cluster A--><g class="cluster" data-qualified-name="A" data-source-line="3" id="ent0004"><path d="M8.5,6 L20.335,6 A3.75,3.75 0 0 1 22.835,8.5 L29.835,28.2969 L460.5,28.2969 A2.5,2.5 0 0 1 463,30.7969 L463,277.5 A2.5,2.5 0 0 1 460.5,280 L8.5,280 A2.5,2.5 0 0 1 6,277.5 L6,8.5 A2.5,2.5 0 0 1 8.5,6" fill="none" style="stroke:#000000;stroke-width:1.5;"/><line style="stroke:#000000;stroke-width:1.5;" x1="6" x2="29.835" y1="28.2969" y2="28.2969"/><text fill="#000000" font-family="sans-serif" font-size="14" font-weight="700" lengthAdjust="spacing" textLength="10.835" x="10" y="20.9951">A</text></g><!--cluster sub_a--><g class="cluster" data-qualified-name="A.sub_a" data-source-line="9" id="ent0010"><path d="M32.5,49 L78.2686,49 A3.75,3.75 0 0 1 80.7686,51.5 L87.7686,71.2969 L207.5,71.2969 A2.5,2.5 0 0 1 210,73.7969 L210,253.5 A2.5,2.5 0 0 1 207.5,256 L32.5,256 A2.5,2.5 0 0 1 30,253.5 L30,51.5 A2.5,2.5 0 0 1 32.5,49" fill="none" style="stroke:#000000;stroke-width:1.5;"/><line style="stroke:#000000;stroke-width:1.5;" x1="30" x2="87.7686" y1="71.2969" y2="71.2969"/><text fill="#000000" font-family="sans-serif" font-size="14" font-weight="700" lengthAdjust="spacing" textLength="44.7686" x="34" y="63.9951">sub_a</text></g><!--cluster B--><g class="cluster" data-qualified-name="B" data-source-line="16" id="ent0014"><path d="M489.5,6 L501.1709,6 A3.75,3.75 0 0 1 503.6709,8.5 L510.6709,28.2969 L944.5,28.2969 A2.5,2.5 0 0 1 947,30.7969 L947,277.5 A2.5,2.5 0 0 1 944.5,280 L489.5,280 A2.5,2.5 0 0 1 487,277.5 L487,8.5 A2.5,2.5 0 0 1 489.5,6" fill="none" style="stroke:#000000;stroke-width:1.5;"/><line style="stroke:#000000;stroke-width:1.5;" x1="487" x2="510.6709" y1="28.2969" y2="28.2969"/><text fill="#000000" font-family="sans-serif" font-size="14" font-weight="700" lengthAdjust="spacing" textLength="10.6709" x="491" y="20.9951">B</text></g><!--cluster sub_b--><g class="cluster" data-qualified-name="B.sub_b" data-source-line="22" id="ent0020"><path d="M513.5,49 L559.8428,49 A3.75,3.75 0 0 1 562.3428,51.5 L569.3428,71.2969 L690.5,71.2969 A2.5,2.5 0 0 1 693,73.7969 L693,253.5 A2.5,2.5 0 0 1 690.5,256 L513.5,256 A2.5,2.5 0 0 1 511,253.5 L511,51.5 A2.5,2.5 0 0 1 513.5,49" fill="none" style="stroke:#000000;stroke-width:1.5;"/><line style="stroke:#000000;stroke-width:1.5;" x1="511" x2="569.3428" y1="71.2969" y2="71.2969"/><text fill="#000000" font-family="sans-serif" font-size="14" font-weight="700" lengthAdjust="spacing" textLength="45.3428" x="515" y="63.9951">sub_b</text></g><!--class a1--><g class="entity" data-qualified-name="A.a1" data-source-line="4" id="ent0005"><rect fill="#F1F1F1" height="48" rx="2.5" ry="2.5" style="stroke:#181818;stroke-width:0.5;" width="49.4863" x="229.26" y="84"/><ellipse cx="244.26" cy="100" fill="#ADD1B2" rx="11" ry="11" style="stroke:#181818;stroke-width:1;"/><path d="M247.2288,105.6406 Q246.6506,105.9375 246.01,106.0781 Q245.3694,106.2344 244.6663,106.2344 Q242.1663,106.2344 240.8381,104.5938 Q239.5256,102.9375 239.5256,99.8125 Q239.5256,96.6875 240.8381,95.0313 Q242.1663,93.375 244.6663,93.375 Q245.3694,93.375 246.01,93.5313 Q246.6663,93.6875 247.2288,93.9844 L247.2288,96.7031 Q246.6038,96.125 246.01,95.8594 Q245.4163,95.5781 244.7913,95.5781 Q243.4475,95.5781 242.76,96.6563 Q242.0725,97.7188 242.0725,99.8125 Q242.0725,101.9063 242.76,102.9844 Q243.4475,104.0469 244.7913,104.0469 Q245.4163,104.0469 246.01,103.7813 Q246.6038,103.5 247.2288,102.9219 L247.2288,105.6406 Z " fill="#000000"/><text fill="#000000" font-family="sans-serif" font-size="14" lengthAdjust="spacing" textLength="17.4863" x="258.26" y="104.8467">a1</text><line style="stroke:#181818;stroke-width:0.5;" x1="230.26" x2="277.7463" y1="116" y2="116"/><line style="stroke:#181818;stroke-width:0.5;" x1="230.26" x2="277.7463" y1="124" y2="124"/></g><!--class a2--><g class="entity" data-qualified-name="A.a2" data-source-line="5" id="ent0006"><rect fill="#F1F1F1" height="48" rx="2.5" ry="2.5" style="stroke:#181818;stroke-width:0.5;" width="49.4863" x="313.26" y="84"/><ellipse cx="328.26" cy="100" fill="#ADD1B2" rx="11" ry="11" style="stroke:#181818;stroke-width:1;"/><path d="M331.2288,105.6406 Q330.6506,105.9375 330.01,106.0781 Q329.3694,106.2344 328.6663,106.2344 Q326.1663,106.2344 324.8381,104.5938 Q323.5256,102.9375 323.5256,99.8125 Q323.5256,96.6875 324.8381,95.0313 Q326.1663,93.375 328.6663,93.375 Q329.3694,93.375 330.01,93.5313 Q330.6663,93.6875 331.2288,93.9844 L331.2288,96.7031 Q330.6038,96.125 330.01,95.8594 Q329.4163,95.5781 328.7913,95.5781 Q327.4475,95.5781 326.76,96.6563 Q326.0725,97.7188 326.0725,99.8125 Q326.0725,101.9063 326.76,102.9844 Q327.4475,104.0469 328.7913,104.0469 Q329.4163,104.0469 330.01,103.7813 Q330.6038,103.5 331.2288,102.9219 L331.2288,105.6406 Z " fill="#000000"/><text fill="#000000" font-family="sans-serif" font-size="14" lengthAdjust="spacing" textLength="17.4863" x="342.26" y="104.8467">a2</text><line style="stroke:#181818;stroke-width:0.5;" x1="314.26" x2="361.7463" y1="116" y2="116"/><line style="stroke:#181818;stroke-width:0.5;" x1="314.26" x2="361.7463" y1="124" y2="124"/></g><!--class a3--><g class="entity" data-qualified-name="A.a3" data-source-line="6" id="ent0007"><rect fill="#F1F1F1" height="48" rx="2.5" ry="2.5" style="stroke:#181818;stroke-width:0.5;" width="49.4863" x="397.26" y="84"/><ellipse cx="412.26" cy="100" fill="#ADD1B2" rx="11" ry="11" style="stroke:#181818;stroke-width:1;"/><path d="M415.2288,105.6406 Q414.6506,105.9375 414.01,106.0781 Q413.3694,106.2344 412.6663,106.2344 Q410.1663,106.2344 408.8381,104.5938 Q407.5256,102.9375 407.5256,99.8125 Q407.5256,96.6875 408.8381,95.0313 Q410.1663,93.375 412.6663,93.375 Q413.3694,93.375 414.01,93.5313 Q414.6663,93.6875 415.2288,93.9844 L415.2288,96.7031 Q414.6038,96.125 414.01,95.8594 Q413.4163,95.5781 412.7913,95.5781 Q411.4475,95.5781 410.76,96.6563 Q410.0725,97.7188 410.0725,99.8125 Q410.0725,101.9063 410.76,102.9844 Q411.4475,104.0469 412.7913,104.0469 Q413.4163,104.0469 414.01,103.7813 Q414.6038,103.5 415.2288,102.9219 L415.2288,105.6406 Z " fill="#000000"/><text fill="#000000" font-family="sans-serif" font-size="14" lengthAdjust="spacing" textLength="17.4863" x="426.26" y="104.8467">a3</text><line style="stroke:#181818;stroke-width:0.5;" x1="398.26" x2="445.7463" y1="116" y2="116"/><line style="stroke:#181818;stroke-width:0.5;" x1="398.26" x2="445.7463" y1="124" y2="124"/></g><!--class a4--><g class="entity" data-qualified-name="A.a4" data-source-line="7" id="ent0008"><rect fill="#F1F1F1" height="48" rx="2.5" ry="2.5" style="stroke:#181818;stroke-width:0.5;" width="49.4863" x="229.26" y="192"/><ellipse cx="244.26" cy="208" fill="#ADD1B2" rx="11" ry="11" style="stroke:#181818;stroke-width:1;"/><path d="M247.2288,213.6406 Q246.6506,213.9375 246.01,214.0781 Q245.3694,214.2344 244.6663,214.2344 Q242.1663,214.2344 240.8381,212.5938 Q239.5256,210.9375 239.5256,207.8125 Q239.5256,204.6875 240.8381,203.0313 Q242.1663,201.375 244.6663,201.375 Q245.3694,201.375 246.01,201.5313 Q246.6663,201.6875 247.2288,201.9844 L247.2288,204.7031 Q246.6038,204.125 246.01,203.8594 Q245.4163,203.5781 244.7913,203.5781 Q243.4475,203.5781 242.76,204.6563 Q242.0725,205.7188 242.0725,207.8125 Q242.0725,209.9063 242.76,210.9844 Q243.4475,212.0469 244.7913,212.0469 Q245.4163,212.0469 246.01,211.7813 Q246.6038,211.5 247.2288,210.9219 L247.2288,213.6406 Z " fill="#000000"/><text fill="#000000" font-family="sans-serif" font-size="14" lengthAdjust="spacing" textLength="17.4863" x="258.26" y="212.8467">a4</text><line style="stroke:#181818;stroke-width:0.5;" x1="230.26" x2="277.7463" y1="224" y2="224"/><line style="stroke:#181818;stroke-width:0.5;" x1="230.26" x2="277.7463" y1="232" y2="232"/></g><!--class a5--><g class="entity" data-qualified-name="A.a5" data-source-line="8" id="ent0009"><rect fill="#F1F1F1" height="48" rx="2.5" ry="2.5" style="stroke:#181818;stroke-width:0.5;" width="49.4863" x="313.26" y="192"/><ellipse cx="328.26" cy="208" fill="#ADD1B2" rx="11" ry="11" style="stroke:#181818;stroke-width:1;"/><path d="M331.2288,213.6406 Q330.6506,213.9375 330.01,214.0781 Q329.3694,214.2344 328.6663,214.2344 Q326.1663,214.2344 324.8381,212.5938 Q323.5256,210.9375 323.5256,207.8125 Q323.5256,204.6875 324.8381,203.0313 Q326.1663,201.375 328.6663,201.375 Q329.3694,201.375 330.01,201.5313 Q330.6663,201.6875 331.2288,201.9844 L331.2288,204.7031 Q330.6038,204.125 330.01,203.8594 Q329.4163,203.5781 328.7913,203.5781 Q327.4475,203.5781 326.76,204.6563 Q326.0725,205.7188 326.0725,207.8125 Q326.0725,209.9063 326.76,210.9844 Q327.4475,212.0469 328.7913,212.0469 Q329.4163,212.0469 330.01,211.7813 Q330.6038,211.5 331.2288,210.9219 L331.2288,213.6406 Z " fill="#000000"/><text fill="#000000" font-family="sans-serif" font-size="14" lengthAdjust="spacing" textLength="17.4863" x="342.26" y="212.8467">a5</text><line style="stroke:#181818;stroke-width:0.5;" x1="314.26" x2="361.7463" y1="224" y2="224"/><line style="stroke:#181818;stroke-width:0.5;" x1="314.26" x2="361.7463" y1="232" y2="232"/></g><!--class sa1--><g class="entity" data-qualified-name="A.sub_a.sa1" data-source-line="10" id="ent0011"><rect fill="#F1F1F1" height="48" rx="2.5" ry="2.5" style="stroke:#181818;stroke-width:0.5;" width="56.7803" x="45.61" y="84"/><ellipse cx="60.61" cy="100" fill="#ADD1B2" rx="11" ry="11" style="stroke:#181818;stroke-width:1;"/><path d="M63.5788,105.6406 Q63.0006,105.9375 62.36,106.0781 Q61.7194,106.2344 61.0163,106.2344 Q58.5163,106.2344 57.1881,104.5938 Q55.8756,102.9375 55.8756,99.8125 Q55.8756,96.6875 57.1881,95.0313 Q58.5163,93.375 61.0163,93.375 Q61.7194,93.375 62.36,93.5313 Q63.0163,93.6875 63.5788,93.9844 L63.5788,96.7031 Q62.9538,96.125 62.36,95.8594 Q61.7663,95.5781 61.1413,95.5781 Q59.7975,95.5781 59.11,96.6563 Q58.4225,97.7188 58.4225,99.8125 Q58.4225,101.9063 59.11,102.9844 Q59.7975,104.0469 61.1413,104.0469 Q61.7663,104.0469 62.36,103.7813 Q62.9538,103.5 63.5788,102.9219 L63.5788,105.6406 Z " fill="#000000"/><text fill="#000000" font-family="sans-serif" font-size="14" lengthAdjust="spacing" textLength="24.7803" x="74.61" y="104.8467">sa1</text><line style="stroke:#181818;stroke-width:0.5;" x1="46.61" x2="101.3903" y1="116" y2="116"/><line style="stroke:#181818;stroke-width:0.5;" x1="46.61" x2="101.3903" y1="124" y2="124"/></g><!--class sa2--><g class="entity" data-qualified-name="A.sub_a.sa2" data-source-line="11" id="ent0012"><rect fill="#F1F1F1" height="48" rx="2.5" ry="2.5" style="stroke:#181818;stroke-width:0.5;" width="56.7803" x="137.61" y="84"/><ellipse cx="152.61" cy="100" fill="#ADD1B2" rx="11" ry="11" style="stroke:#181818;stroke-width:1;"/><path d="M155.5788,105.6406 Q155.0006,105.9375 154.36,106.0781 Q153.7194,106.2344 153.0163,106.2344 Q150.5163,106.2344 149.1881,104.5938 Q147.8756,102.9375 147.8756,99.8125 Q147.8756,96.6875 149.1881,95.0313 Q150.5163,93.375 153.0163,93.375 Q153.7194,93.375 154.36,93.5313 Q155.0163,93.6875 155.5788,93.9844 L155.5788,96.7031 Q154.9538,96.125 154.36,95.8594 Q153.7663,95.5781 153.1413,95.5781 Q151.7975,95.5781 151.11,96.6563 Q150.4225,97.7188 150.4225,99.8125 Q150.4225,101.9063 151.11,102.9844 Q151.7975,104.0469 153.1413,104.0469 Q153.7663,104.0469 154.36,103.7813 Q154.9538,103.5 155.5788,102.9219 L155.5788,105.6406 Z " fill="#000000"/><text fill="#000000" font-family="sans-serif" font-size="14" lengthAdjust="spacing" textLength="24.7803" x="166.61" y="104.8467">sa2</text><line style="stroke:#181818;stroke-width:0.5;" x1="138.61" x2="193.3903" y1="116" y2="116"/><line style="stroke:#181818;stroke-width:0.5;" x1="138.61" x2="193.3903" y1="124" y2="124"/></g><!--class sa3--><g class="entity" data-qualified-name="A.sub_a.sa3" data-source-line="12" id="ent0013"><rect fill="#F1F1F1" height="48" rx="2.5" ry="2.5" style="stroke:#181818;stroke-width:0.5;" width="56.7803" x="45.61" y="192"/><ellipse cx="60.61" cy="208" fill="#ADD1B2" rx="11" ry="11" style="stroke:#181818;stroke-width:1;"/><path d="M63.5788,213.6406 Q63.0006,213.9375 62.36,214.0781 Q61.7194,214.2344 61.0163,214.2344 Q58.5163,214.2344 57.1881,212.5938 Q55.8756,210.9375 55.8756,207.8125 Q55.8756,204.6875 57.1881,203.0313 Q58.5163,201.375 61.0163,201.375 Q61.7194,201.375 62.36,201.5313 Q63.0163,201.6875 63.5788,201.9844 L63.5788,204.7031 Q62.9538,204.125 62.36,203.8594 Q61.7663,203.5781 61.1413,203.5781 Q59.7975,203.5781 59.11,204.6563 Q58.4225,205.7188 58.4225,207.8125 Q58.4225,209.9063 59.11,210.9844 Q59.7975,212.0469 61.1413,212.0469 Q61.7663,212.0469 62.36,211.7813 Q62.9538,211.5 63.5788,210.9219 L63.5788,213.6406 Z " fill="#000000"/><text fill="#000000" font-family="sans-serif" font-size="14" lengthAdjust="spacing" textLength="24.7803" x="74.61" y="212.8467">sa3</text><line style="stroke:#181818;stroke-width:0.5;" x1="46.61" x2="101.3903" y1="224" y2="224"/><line style="stroke:#181818;stroke-width:0.5;" x1="46.61" x2="101.3903" y1="232" y2="232"/></g><!--class b1--><g class="entity" data-qualified-name="B.b1" data-source-line="17" id="ent0015"><rect fill="#F1F1F1" height="48" rx="2.5" ry="2.5" style="stroke:#181818;stroke-width:0.5;" width="49.7939" x="711.1" y="84"/><ellipse cx="726.1" cy="100" fill="#ADD1B2" rx="11" ry="11" style="stroke:#181818;stroke-width:1;"/><path d="M729.0688,105.6406 Q728.4906,105.9375 727.85,106.0781 Q727.2094,106.2344 726.5063,106.2344 Q724.0063,106.2344 722.6781,104.5938 Q721.3656,102.9375 721.3656,99.8125 Q721.3656,96.6875 722.6781,95.0313 Q724.0063,93.375 726.5063,93.375 Q727.2094,93.375 727.85,93.5313 Q728.5063,93.6875 729.0688,93.9844 L729.0688,96.7031 Q728.4438,96.125 727.85,95.8594 Q727.2563,95.5781 726.6313,95.5781 Q725.2875,95.5781 724.6,96.6563 Q723.9125,97.7188 723.9125,99.8125 Q723.9125,101.9063 724.6,102.9844 Q725.2875,104.0469 726.6313,104.0469 Q727.2563,104.0469 727.85,103.7813 Q728.4438,103.5 729.0688,102.9219 L729.0688,105.6406 Z " fill="#000000"/><text fill="#000000" font-family="sans-serif" font-size="14" lengthAdjust="spacing" textLength="17.7939" x="740.1" y="104.8467">b1</text><line style="stroke:#181818;stroke-width:0.5;" x1="712.1" x2="759.8939" y1="116" y2="116"/><line style="stroke:#181818;stroke-width:0.5;" x1="712.1" x2="759.8939" y1="124" y2="124"/></g><!--class b2--><g class="entity" data-qualified-name="B.b2" data-source-line="18" id="ent0016"><rect fill="#F1F1F1" height="48" rx="2.5" ry="2.5" style="stroke:#181818;stroke-width:0.5;" width="49.7939" x="796.1" y="84"/><ellipse cx="811.1" cy="100" fill="#ADD1B2" rx="11" ry="11" style="stroke:#181818;stroke-width:1;"/><path d="M814.0688,105.6406 Q813.4906,105.9375 812.85,106.0781 Q812.2094,106.2344 811.5063,106.2344 Q809.0063,106.2344 807.6781,104.5938 Q806.3656,102.9375 806.3656,99.8125 Q806.3656,96.6875 807.6781,95.0313 Q809.0063,93.375 811.5063,93.375 Q812.2094,93.375 812.85,93.5313 Q813.5063,93.6875 814.0688,93.9844 L814.0688,96.7031 Q813.4438,96.125 812.85,95.8594 Q812.2563,95.5781 811.6313,95.5781 Q810.2875,95.5781 809.6,96.6563 Q808.9125,97.7188 808.9125,99.8125 Q808.9125,101.9063 809.6,102.9844 Q810.2875,104.0469 811.6313,104.0469 Q812.2563,104.0469 812.85,103.7813 Q813.4438,103.5 814.0688,102.9219 L814.0688,105.6406 Z " fill="#000000"/><text fill="#000000" font-family="sans-serif" font-size="14" lengthAdjust="spacing" textLength="17.7939" x="825.1" y="104.8467">b2</text><line style="stroke:#181818;stroke-width:0.5;" x1="797.1" x2="844.8939" y1="116" y2="116"/><line style="stroke:#181818;stroke-width:0.5;" x1="797.1" x2="844.8939" y1="124" y2="124"/></g><!--class b3--><g class="entity" data-qualified-name="B.b3" data-source-line="19" id="ent0017"><rect fill="#F1F1F1" height="48" rx="2.5" ry="2.5" style="stroke:#181818;stroke-width:0.5;" width="49.7939" x="881.1" y="84"/><ellipse cx="896.1" cy="100" fill="#ADD1B2" rx="11" ry="11" style="stroke:#181818;stroke-width:1;"/><path d="M899.0688,105.6406 Q898.4906,105.9375 897.85,106.0781 Q897.2094,106.2344 896.5063,106.2344 Q894.0063,106.2344 892.6781,104.5938 Q891.3656,102.9375 891.3656,99.8125 Q891.3656,96.6875 892.6781,95.0313 Q894.0063,93.375 896.5063,93.375 Q897.2094,93.375 897.85,93.5313 Q898.5063,93.6875 899.0688,93.9844 L899.0688,96.7031 Q898.4438,96.125 897.85,95.8594 Q897.2563,95.5781 896.6313,95.5781 Q895.2875,95.5781 894.6,96.6563 Q893.9125,97.7188 893.9125,99.8125 Q893.9125,101.9063 894.6,102.9844 Q895.2875,104.0469 896.6313,104.0469 Q897.2563,104.0469 897.85,103.7813 Q898.4438,103.5 899.0688,102.9219 L899.0688,105.6406 Z " fill="#000000"/><text fill="#000000" font-family="sans-serif" font-size="14" lengthAdjust="spacing" textLength="17.7939" x="910.1" y="104.8467">b3</text><line style="stroke:#181818;stroke-width:0.5;" x1="882.1" x2="929.8939" y1="116" y2="116"/><line style="stroke:#181818;stroke-width:0.5;" x1="882.1" x2="929.8939" y1="124" y2="124"/></g><!--class b4--><g class="entity" data-qualified-name="B.b4" data-source-line="20" id="ent0018"><rect fill="#F1F1F1" height="48" rx="2.5" ry="2.5" style="stroke:#181818;stroke-width:0.5;" width="49.7939" x="711.1" y="192"/><ellipse cx="726.1" cy="208" fill="#ADD1B2" rx="11" ry="11" style="stroke:#181818;stroke-width:1;"/><path d="M729.0688,213.6406 Q728.4906,213.9375 727.85,214.0781 Q727.2094,214.2344 726.5063,214.2344 Q724.0063,214.2344 722.6781,212.5938 Q721.3656,210.9375 721.3656,207.8125 Q721.3656,204.6875 722.6781,203.0313 Q724.0063,201.375 726.5063,201.375 Q727.2094,201.375 727.85,201.5313 Q728.5063,201.6875 729.0688,201.9844 L729.0688,204.7031 Q728.4438,204.125 727.85,203.8594 Q727.2563,203.5781 726.6313,203.5781 Q725.2875,203.5781 724.6,204.6563 Q723.9125,205.7188 723.9125,207.8125 Q723.9125,209.9063 724.6,210.9844 Q725.2875,212.0469 726.6313,212.0469 Q727.2563,212.0469 727.85,211.7813 Q728.4438,211.5 729.0688,210.9219 L729.0688,213.6406 Z " fill="#000000"/><text fill="#000000" font-family="sans-serif" font-size="14" lengthAdjust="spacing" textLength="17.7939" x="740.1" y="212.8467">b4</text><line style="stroke:#181818;stroke-width:0.5;" x1="712.1" x2="759.8939" y1="224" y2="224"/><line style="stroke:#181818;stroke-width:0.5;" x1="712.1" x2="759.8939" y1="232" y2="232"/></g><!--class b5--><g class="entity" data-qualified-name="B.b5" data-source-line="21" id="ent0019"><rect fill="#F1F1F1" height="48" rx="2.5" ry="2.5" style="stroke:#181818;stroke-width:0.5;" width="49.7939" x="796.1" y="192"/><ellipse cx="811.1" cy="208" fill="#ADD1B2" rx="11" ry="11" style="stroke:#181818;stroke-width:1;"/><path d="M814.0688,213.6406 Q813.4906,213.9375 812.85,214.0781 Q812.2094,214.2344 811.5063,214.2344 Q809.0063,214.2344 807.6781,212.5938 Q806.3656,210.9375 806.3656,207.8125 Q806.3656,204.6875 807.6781,203.0313 Q809.0063,201.375 811.5063,201.375 Q812.2094,201.375 812.85,201.5313 Q813.5063,201.6875 814.0688,201.9844 L814.0688,204.7031 Q813.4438,204.125 812.85,203.8594 Q812.2563,203.5781 811.6313,203.5781 Q810.2875,203.5781 809.6,204.6563 Q808.9125,205.7188 808.9125,207.8125 Q808.9125,209.9063 809.6,210.9844 Q810.2875,212.0469 811.6313,212.0469 Q812.2563,212.0469 812.85,211.7813 Q813.4438,211.5 814.0688,210.9219 L814.0688,213.6406 Z " fill="#000000"/><text fill="#000000" font-family="sans-serif" font-size="14" lengthAdjust="spacing" textLength="17.7939" x="825.1" y="212.8467">b5</text><line style="stroke:#181818;stroke-width:0.5;" x1="797.1" x2="844.8939" y1="224" y2="224"/><line style="stroke:#181818;stroke-width:0.5;" x1="797.1" x2="844.8939" y1="232" y2="232"/></g><!--class sb1--><g class="entity" data-qualified-name="B.sub_b.sb1" data-source-line="23" id="ent0021"><rect fill="#F1F1F1" height="48" rx="2.5" ry="2.5" style="stroke:#181818;stroke-width:0.5;" width="57.0879" x="527.46" y="84"/><ellipse cx="542.46" cy="100" fill="#ADD1B2" rx="11" ry="11" style="stroke:#181818;stroke-width:1;"/><path d="M545.4288,105.6406 Q544.8506,105.9375 544.21,106.0781 Q543.5694,106.2344 542.8663,106.2344 Q540.3663,106.2344 539.0381,104.5938 Q537.7256,102.9375 537.7256,99.8125 Q537.7256,96.6875 539.0381,95.0313 Q540.3663,93.375 542.8663,93.375 Q543.5694,93.375 544.21,93.5313 Q544.8663,93.6875 545.4288,93.9844 L545.4288,96.7031 Q544.8038,96.125 544.21,95.8594 Q543.6163,95.5781 542.9913,95.5781 Q541.6475,95.5781 540.96,96.6563 Q540.2725,97.7188 540.2725,99.8125 Q540.2725,101.9063 540.96,102.9844 Q541.6475,104.0469 542.9913,104.0469 Q543.6163,104.0469 544.21,103.7813 Q544.8038,103.5 545.4288,102.9219 L545.4288,105.6406 Z " fill="#000000"/><text fill="#000000" font-family="sans-serif" font-size="14" lengthAdjust="spacing" textLength="25.0879" x="556.46" y="104.8467">sb1</text><line style="stroke:#181818;stroke-width:0.5;" x1="528.46" x2="583.5479" y1="116" y2="116"/><line style="stroke:#181818;stroke-width:0.5;" x1="528.46" x2="583.5479" y1="124" y2="124"/></g><!--class sb2--><g class="entity" data-qualified-name="B.sub_b.sb2" data-source-line="24" id="ent0022"><rect fill="#F1F1F1" height="48" rx="2.5" ry="2.5" style="stroke:#181818;stroke-width:0.5;" width="57.0879" x="619.46" y="84"/><ellipse cx="634.46" cy="100" fill="#ADD1B2" rx="11" ry="11" style="stroke:#181818;stroke-width:1;"/><path d="M637.4288,105.6406 Q636.8506,105.9375 636.21,106.0781 Q635.5694,106.2344 634.8663,106.2344 Q632.3663,106.2344 631.0381,104.5938 Q629.7256,102.9375 629.7256,99.8125 Q629.7256,96.6875 631.0381,95.0313 Q632.3663,93.375 634.8663,93.375 Q635.5694,93.375 636.21,93.5313 Q636.8663,93.6875 637.4288,93.9844 L637.4288,96.7031 Q636.8038,96.125 636.21,95.8594 Q635.6163,95.5781 634.9913,95.5781 Q633.6475,95.5781 632.96,96.6563 Q632.2725,97.7188 632.2725,99.8125 Q632.2725,101.9063 632.96,102.9844 Q633.6475,104.0469 634.9913,104.0469 Q635.6163,104.0469 636.21,103.7813 Q636.8038,103.5 637.4288,102.9219 L637.4288,105.6406 Z " fill="#000000"/><text fill="#000000" font-family="sans-serif" font-size="14" lengthAdjust="spacing" textLength="25.0879" x="648.46" y="104.8467">sb2</text><line style="stroke:#181818;stroke-width:0.5;" x1="620.46" x2="675.5479" y1="116" y2="116"/><line style="stroke:#181818;stroke-width:0.5;" x1="620.46" x2="675.5479" y1="124" y2="124"/></g><!--class sb3--><g class="entity" data-qualified-name="B.sub_b.sb3" data-source-line="25" id="ent0023"><rect fill="#F1F1F1" height="48" rx="2.5" ry="2.5" style="stroke:#181818;stroke-width:0.5;" width="57.0879" x="527.46" y="192"/><ellipse cx="542.46" cy="208" fill="#ADD1B2" rx="11" ry="11" style="stroke:#181818;stroke-width:1;"/><path d="M545.4288,213.6406 Q544.8506,213.9375 544.21,214.0781 Q543.5694,214.2344 542.8663,214.2344 Q540.3663,214.2344 539.0381,212.5938 Q537.7256,210.9375 537.7256,207.8125 Q537.7256,204.6875 539.0381,203.0313 Q540.3663,201.375 542.8663,201.375 Q543.5694,201.375 544.21,201.5313 Q544.8663,201.6875 545.4288,201.9844 L545.4288,204.7031 Q544.8038,204.125 544.21,203.8594 Q543.6163,203.5781 542.9913,203.5781 Q541.6475,203.5781 540.96,204.6563 Q540.2725,205.7188 540.2725,207.8125 Q540.2725,209.9063 540.96,210.9844 Q541.6475,212.0469 542.9913,212.0469 Q543.6163,212.0469 544.21,211.7813 Q544.8038,211.5 545.4288,210.9219 L545.4288,213.6406 Z " fill="#000000"/><text fill="#000000" font-family="sans-serif" font-size="14" lengthAdjust="spacing" textLength="25.0879" x="556.46" y="212.8467">sb3</text><line style="stroke:#181818;stroke-width:0.5;" x1="528.46" x2="583.5479" y1="224" y2="224"/><line style="stroke:#181818;stroke-width:0.5;" x1="528.46" x2="583.5479" y1="232" y2="232"/></g><!--class a--><g class="entity" data-qualified-name="a" data-source-line="1" id="ent0002"><rect fill="#F1F1F1" height="48" rx="2.5" ry="2.5" style="stroke:#181818;stroke-width:0.5;" width="40.5791" x="965.71" y="84"/><ellipse cx="980.71" cy="100" fill="#ADD1B2" rx="11" ry="11" style="stroke:#181818;stroke-width:1;"/><path d="M983.6788,105.6406 Q983.1006,105.9375 982.46,106.0781 Q981.8194,106.2344 981.1163,106.2344 Q978.6163,106.2344 977.2881,104.5938 Q975.9756,102.9375 975.9756,99.8125 Q975.9756,96.6875 977.2881,95.0313 Q978.6163,93.375 981.1163,93.375 Q981.8194,93.375 982.46,93.5313 Q983.1163,93.6875 983.6788,93.9844 L983.6788,96.7031 Q983.0538,96.125 982.46,95.8594 Q981.8663,95.5781 981.2413,95.5781 Q979.8975,95.5781 979.21,96.6563 Q978.5225,97.7188 978.5225,99.8125 Q978.5225,101.9063 979.21,102.9844 Q979.8975,104.0469 981.2413,104.0469 Q981.8663,104.0469 982.46,103.7813 Q983.0538,103.5 983.6788,102.9219 L983.6788,105.6406 Z " fill="#000000"/><text fill="#000000" font-family="sans-serif" font-size="14" lengthAdjust="spacing" textLength="8.5791" x="994.71" y="104.8467">a</text><line style="stroke:#181818;stroke-width:0.5;" x1="966.71" x2="1005.2891" y1="116" y2="116"/><line style="stroke:#181818;stroke-width:0.5;" x1="966.71" x2="1005.2891" y1="124" y2="124"/></g><!--class b--><g class="entity" data-qualified-name="b" data-source-line="2" id="ent0003"><rect fill="#F1F1F1" height="48" rx="2.5" ry="2.5" style="stroke:#181818;stroke-width:0.5;" width="40.8867" x="1041.56" y="84"/><ellipse cx="1056.56" cy="100" fill="#ADD1B2" rx="11" ry="11" style="stroke:#181818;stroke-width:1;"/><path d="M1059.5288,105.6406 Q1058.9506,105.9375 1058.31,106.0781 Q1057.6694,106.2344 1056.9663,106.2344 Q1054.4663,106.2344 1053.1381,104.5938 Q1051.8256,102.9375 1051.8256,99.8125 Q1051.8256,96.6875 1053.1381,95.0313 Q1054.4663,93.375 1056.9663,93.375 Q1057.6694,93.375 1058.31,93.5313 Q1058.9663,93.6875 1059.5288,93.9844 L1059.5288,96.7031 Q1058.9038,96.125 1058.31,95.8594 Q1057.7163,95.5781 1057.0913,95.5781 Q1055.7475,95.5781 1055.06,96.6563 Q1054.3725,97.7188 1054.3725,99.8125 Q1054.3725,101.9063 1055.06,102.9844 Q1055.7475,104.0469 1057.0913,104.0469 Q1057.7163,104.0469 1058.31,103.7813 Q1058.9038,103.5 1059.5288,102.9219 L1059.5288,105.6406 Z " fill="#000000"/><text fill="#000000" font-family="sans-serif" font-size="14" lengthAdjust="spacing" textLength="8.8867" x="1070.56" y="104.8467">b</text><line style="stroke:#181818;stroke-width:0.5;" x1="1042.56" x2="1081.4467" y1="116" y2="116"/><line style="stroke:#181818;stroke-width:0.5;" x1="1042.56" x2="1081.4467" y1="124" y2="124"/></g><?plantuml-src NSx13O0W30NGUwVe2g8Ee8kOVc8ywC6ayMJONKIawANyqkJd-KrKMSYd5xIBNsMPUU2Jc9zVQImwYwt5pc8VurkY1oP9HVcggQeihbxkka0Xpe8OAmGC0KF04304_WXy4AWHg178Y0i0?></g></svg>