<svg xmlns="http://www.w3.org/2000/svg" xmlns:xlink="http://www.w3.org/1999/xlink" contentStyleType="text/css" data-diagram-type="DESCRIPTION" height="188px" preserveAspectRatio="none" style="width:223px;height:188px;background:#FFFFFF;" version="1.1" viewBox="0 0 223 188" width="223px" zoomAndPan="magnify"><?plantuml 1.2026.3beta5?><defs/><g><!--entity Component--><g class="entity" data-qualified-name="Component" data-source-line="1" id="ent0002"><rect fill="#F1F1F1" height="46.2969" rx="2.5" ry="2.5" style="stroke:#181818;stroke-width:0.5;" width="121.2793" x="7" y="7"/><rect fill="#F1F1F1" height="10" style="stroke:#181818;stroke-width:0.5;" width="15" x="108.2793" y="12"/><rect fill="#F1F1F1" height="2" style="stroke:#181818;stroke-width:0.5;" width="4" x="106.2793" y="14"/><rect fill="#F1F1F1" height="2" style="stroke:#181818;stroke-width:0.5;" width="4" x="106.2793" y="18"/><text fill="#000000" font-family="sans-serif" font-size="14" lengthAdjust="spacing" textLength="81.2793" x="22" y="39.9951">Component</text></g><!--entity Interface1--><g class="entity" data-qualified-name="Interface1" data-source-line="1" id="ent0003"><ellipse cx="67.64" cy="142.3" fill="#F1F1F1" rx="8" ry="8" style="stroke:#181818;stroke-width:0.5;"/><text fill="#000000" font-family="sans-serif" font-size="14" lengthAdjust="spacing" textLength="71.5859" x="31.847" y="172.2951">Interface1</text></g><!--entity Interface2--><g class="entity" data-qualified-name="Interface2" data-source-line="2" id="ent0005"><ellipse cx="172.64" cy="30.15" fill="#F1F1F1" rx="8" ry="8" style="stroke:#181818;stroke-width:0.5;"/><text fill="#000000" font-family="sans-serif" font-size="14" lengthAdjust="spacing" textLength="71.5859" x="136.847" y="60.1451">Interface2</text></g><!--link Component to Interface1--><g class="link" data-entity-1="ent0002" data-entity-2="ent0003" data-link-type="dependency" data-source-line="1" id="lnk4"><path d="M67.64,53.71 C67.64,78.51 67.64,111.01 67.64,127.44" fill="none" id="Component-to-Interface1" style="stroke:#181818;stroke-width:1;"/><polygon fill="#181818" points="67.64,133.44,71.64,124.44,67.64,128.44,63.64,124.44,67.64,133.44" style="stroke:#181818;stroke-width:1;"/></g><!--link Component to Interface2--><g class="link" data-entity-1="ent0002" data-entity-2="ent0005" data-link-type="dependency" data-source-line="2" id="lnk6"><path d="M128.75,30.15 C140.3,30.15 145.84,30.15 157.38,30.15" fill="none" id="Component-to-Interface2" style="stroke:#181818;stroke-width:1;"/><polygon fill="#181818" points="163.38,30.15,154.38,26.15,158.38,30.15,154.38,34.15,163.38,30.15" style="stroke:#181818;stroke-width:1;"/></g><?plantuml-src YtREpot8pqlDAubLqDMrK_3CAqajIajCJZNaYaQMGf8n0W00?></g></svg>