<svg xmlns="http://www.w3.org/2000/svg" xmlns:xlink="http://www.w3.org/1999/xlink" contentStyleType="text/css" data-diagram-type="DESCRIPTION" height="284px" preserveAspectRatio="none" style="width:258px;height:284px;background:#FFFFFF;" version="1.1" viewBox="0 0 258 284" width="258px" zoomAndPan="magnify"><?plantuml 1.2026.3beta5?><defs/><g><!--entity Component--><g class="entity" data-qualified-name="Component" data-source-line="1" id="ent0002"><rect fill="#F1F1F1" height="46.2969" rx="2.5" ry="2.5" style="stroke:#181818;stroke-width:0.5;" width="121.2793" x="61.8204" y="103"/><rect fill="#F1F1F1" height="10" style="stroke:#181818;stroke-width:0.5;" width="15" x="163.0997" y="108"/><rect fill="#F1F1F1" height="2" style="stroke:#181818;stroke-width:0.5;" width="4" x="161.0997" y="110"/><rect fill="#F1F1F1" height="2" style="stroke:#181818;stroke-width:0.5;" width="4" x="161.0997" y="114"/><text fill="#000000" font-family="sans-serif" font-size="14" lengthAdjust="spacing" textLength="81.2793" x="76.8204" y="135.9951">Component</text></g><!--entity left--><g class="entity" data-qualified-name="left" data-source-line="1" id="ent0003"><ellipse cx="17.4604" cy="126.15" fill="#F1F1F1" rx="8" ry="8" style="stroke:#181818;stroke-width:0.5;"/><text fill="#000000" font-family="sans-serif" font-size="14" lengthAdjust="spacing" textLength="22.9209" x="6" y="156.1451">left</text></g><!--entity right--><g class="entity" data-qualified-name="right" data-source-line="2" id="ent0006"><ellipse cx="227.4604" cy="126.15" fill="#F1F1F1" rx="8" ry="8" style="stroke:#181818;stroke-width:0.5;"/><text fill="#000000" font-family="sans-serif" font-size="14" lengthAdjust="spacing" textLength="32.8945" x="211.0132" y="156.1451">right</text></g><!--entity up--><g class="entity" data-qualified-name="up" data-source-line="3" id="ent0008"><ellipse cx="122.4604" cy="14" fill="#F1F1F1" rx="8" ry="8" style="stroke:#181818;stroke-width:0.5;"/><text fill="#000000" font-family="sans-serif" font-size="14" lengthAdjust="spacing" textLength="17.7598" x="113.5806" y="43.9951">up</text></g><!--entity down--><g class="entity" data-qualified-name="down" data-source-line="4" id="ent0011"><ellipse cx="122.4604" cy="238.3" fill="#F1F1F1" rx="8" ry="8" style="stroke:#181818;stroke-width:0.5;"/><text fill="#000000" font-family="sans-serif" font-size="14" lengthAdjust="spacing" textLength="37.7754" x="103.5728" y="268.2951">down</text></g><!--reverse link left to Component--><g class="link" data-entity-1="ent0003" data-entity-2="ent0002" data-link-type="dependency" data-source-line="1" id="lnk5"><path d="M32.8904,126.15 C44.4704,126.15 50.0404,126.15 61.6104,126.15" fill="none" id="left-backto-Component" style="stroke:#181818;stroke-width:1;"/><polygon fill="#181818" points="26.8904,126.15,35.8904,130.15,31.8904,126.15,35.8904,122.15,26.8904,126.15" style="stroke:#181818;stroke-width:1;"/></g><!--link Component to right--><g class="link" data-entity-1="ent0002" data-entity-2="ent0006" data-link-type="dependency" data-source-line="2" id="lnk7"><path d="M183.5704,126.15 C195.1204,126.15 200.6604,126.15 212.2004,126.15" fill="none" id="Component-to-right" style="stroke:#181818;stroke-width:1;"/><polygon fill="#181818" points="218.2004,126.15,209.2004,122.15,213.2004,126.15,209.2004,130.15,218.2004,126.15" style="stroke:#181818;stroke-width:1;"/></g><!--reverse link up to Component--><g class="link" data-entity-1="ent0008" data-entity-2="ent0002" data-link-type="dependency" data-source-line="3" id="lnk10"><path d="M122.4604,28.92 C122.4604,45.4 122.4604,77.88 122.4604,102.65" fill="none" id="up-backto-Component" style="stroke:#181818;stroke-width:1;"/><polygon fill="#181818" points="122.4604,22.92,118.4604,31.92,122.4604,27.92,126.4604,31.92,122.4604,22.92" style="stroke:#181818;stroke-width:1;"/></g><!--link Component to down--><g class="link" data-entity-1="ent0002" data-entity-2="ent0011" data-link-type="dependency" data-source-line="4" id="lnk12"><path d="M122.4604,149.71 C122.4604,174.51 122.4604,207.01 122.4604,223.44" fill="none" id="Component-to-down" style="stroke:#181818;stroke-width:1;"/><polygon fill="#181818" points="122.4604,229.44,126.4604,220.44,122.4604,224.44,118.4604,220.44,122.4604,229.44" style="stroke:#181818;stroke-width:1;"/></g><?plantuml-src YtREpot8pqlDAubLqCr9JIlHjLC0KLpHo195cUaP81amZIfLMW0KBor05Kp9Byy32eCe0000?></g></svg>