<svg xmlns="http://www.w3.org/2000/svg" xmlns:xlink="http://www.w3.org/1999/xlink" contentStyleType="text/css" data-diagram-type="DESCRIPTION" height="172px" preserveAspectRatio="none" style="width:221px;height:172px;background:#FFFFFF;" version="1.1" viewBox="0 0 221 172" width="221px" zoomAndPan="magnify"><?plantuml 1.2026.3beta5?><defs/><g><!--entity Interface1--><g class="entity" data-qualified-name="Interface1" data-source-line="1" id="ent0002"><ellipse cx="146.793" cy="14" fill="#F1F1F1" rx="8" ry="8" style="stroke:#181818;stroke-width:0.5;"/><text fill="#000000" font-family="sans-serif" font-size="14" lengthAdjust="spacing" textLength="71.5859" x="111" y="43.9951">Interface1</text></g><!--entity Component--><g class="entity" data-qualified-name="Component" data-source-line="1" id="ent0003"><rect fill="#F1F1F1" height="46.2969" rx="2.5" ry="2.5" style="stroke:#181818;stroke-width:0.5;" width="121.2793" x="86.153" y="103"/><rect fill="#F1F1F1" height="10" style="stroke:#181818;stroke-width:0.5;" width="15" x="187.4323" y="108"/><rect fill="#F1F1F1" height="2" style="stroke:#181818;stroke-width:0.5;" width="4" x="185.4323" y="110"/><rect fill="#F1F1F1" height="2" style="stroke:#181818;stroke-width:0.5;" width="4" x="185.4323" y="114"/><text fill="#000000" font-family="sans-serif" font-size="14" lengthAdjust="spacing" textLength="81.2793" x="101.153" y="135.9951">Component</text></g><!--entity Interface2--><g class="entity" data-qualified-name="Interface2" data-source-line="2" id="ent0005"><ellipse cx="41.793" cy="126.15" fill="#F1F1F1" rx="8" ry="8" style="stroke:#181818;stroke-width:0.5;"/><text fill="#000000" font-family="sans-serif" font-size="14" lengthAdjust="spacing" textLength="71.5859" x="6" y="156.1451">Interface2</text></g><!--reverse link Interface1 to Component--><g class="link" data-entity-1="ent0002" data-entity-2="ent0003" data-link-type="dependency" data-source-line="1" id="lnk4"><path d="M146.793,28.92 C146.793,45.4 146.793,77.88 146.793,102.65" fill="none" id="Interface1-backto-Component" style="stroke:#181818;stroke-width:1;"/><polygon fill="#181818" points="146.793,22.92,142.793,31.92,146.793,27.92,150.793,31.92,146.793,22.92" style="stroke:#181818;stroke-width:1;"/></g><!--reverse link Interface2 to Component--><g class="link" data-entity-1="ent0005" data-entity-2="ent0003" data-link-type="dependency" data-source-line="2" id="lnk6"><path d="M57.223,126.15 C68.803,126.15 74.373,126.15 85.943,126.15" fill="none" id="Interface2-backto-Component" style="stroke:#181818;stroke-width:1;"/><polygon fill="#181818" points="51.223,126.15,60.223,130.15,56.223,126.15,60.223,122.15,51.223,126.15" style="stroke:#181818;stroke-width:1;"/></g><?plantuml-src yymhIIrAIqnEDLImqTLLY7REpot8pqlDAudbyeH96G6ba6K0?></g></svg>