<svg xmlns="http://www.w3.org/2000/svg" xmlns:xlink="http://www.w3.org/1999/xlink" contentStyleType="text/css" data-diagram-type="DESCRIPTION" height="194px" preserveAspectRatio="none" style="width:344px;height:194px;background:#FFFFFF;" version="1.1" viewBox="0 0 344 194" width="344px" zoomAndPan="magnify"><?plantuml 1.2026.3beta5?><defs/><g><!--entity Component--><g class="entity" data-qualified-name="Component" data-source-line="2" id="ent0002"><rect fill="#F1F1F1" height="46.2969" rx="2.5" ry="2.5" style="stroke:#181818;stroke-width:0.5;" width="121.2793" x="101.8799" y="57.85"/><rect fill="#F1F1F1" height="10" style="stroke:#181818;stroke-width:0.5;" width="15" x="203.1592" y="62.85"/><rect fill="#F1F1F1" height="2" style="stroke:#181818;stroke-width:0.5;" width="4" x="201.1592" y="64.85"/><rect fill="#F1F1F1" height="2" style="stroke:#181818;stroke-width:0.5;" width="4" x="201.1592" y="68.85"/><text fill="#000000" font-family="sans-serif" font-size="14" lengthAdjust="spacing" textLength="81.2793" x="116.8799" y="90.8451">Component</text></g><!--entity left--><g class="entity" data-qualified-name="left" data-source-line="2" id="ent0003"><ellipse cx="162.5199" cy="14" fill="#F1F1F1" rx="8" ry="8" style="stroke:#181818;stroke-width:0.5;"/><text fill="#000000" font-family="sans-serif" font-size="14" lengthAdjust="spacing" textLength="22.9209" x="151.0594" y="43.9951">left</text></g><!--entity right--><g class="entity" data-qualified-name="right" data-source-line="3" id="ent0006"><ellipse cx="162.5199" cy="148" fill="#F1F1F1" rx="8" ry="8" style="stroke:#181818;stroke-width:0.5;"/><text fill="#000000" font-family="sans-serif" font-size="14" lengthAdjust="spacing" textLength="32.8945" x="146.0726" y="177.9951">right</text></g><!--entity up--><g class="entity" data-qualified-name="up" data-source-line="4" id="ent0008"><ellipse cx="14.8799" cy="81" fill="#F1F1F1" rx="8" ry="8" style="stroke:#181818;stroke-width:0.5;"/><text fill="#000000" font-family="sans-serif" font-size="14" lengthAdjust="spacing" textLength="17.7598" x="6" y="110.9951">up</text></g><!--entity down--><g class="entity" data-qualified-name="down" data-source-line="5" id="ent0011"><ellipse cx="310.1599" cy="81" fill="#F1F1F1" rx="8" ry="8" style="stroke:#181818;stroke-width:0.5;"/><text fill="#000000" font-family="sans-serif" font-size="14" lengthAdjust="spacing" textLength="37.7754" x="291.2722" y="110.9951">down</text></g><!--reverse link left to Component--><g class="link" data-entity-1="ent0003" data-entity-2="ent0002" data-link-type="dependency" data-source-line="2" id="lnk5"><path d="M162.5199,29.16 C162.5199,40.59 162.5199,46.02 162.5199,57.45" fill="none" id="left-backto-Component" style="stroke:#181818;stroke-width:1;"/><polygon fill="#181818" points="162.5199,23.16,158.5199,32.16,162.5199,28.16,166.5199,32.16,162.5199,23.16" style="stroke:#181818;stroke-width:1;"/></g><!--link Component to right--><g class="link" data-entity-1="ent0002" data-entity-2="ent0006" data-link-type="dependency" data-source-line="3" id="lnk7"><path d="M162.5199,104.39 C162.5199,115.79 162.5199,121.18 162.5199,132.58" fill="none" id="Component-to-right" style="stroke:#181818;stroke-width:1;"/><polygon fill="#181818" points="162.5199,138.58,166.5199,129.58,162.5199,133.58,158.5199,129.58,162.5199,138.58" style="stroke:#181818;stroke-width:1;"/></g><!--reverse link up to Component--><g class="link" data-entity-1="ent0008" data-entity-2="ent0002" data-link-type="dependency" data-source-line="4" id="lnk10"><path d="M29.7099,81 C44.4199,81 71.4199,81 101.4399,81" fill="none" id="up-backto-Component" style="stroke:#181818;stroke-width:1;"/><polygon fill="#181818" points="23.7099,81,32.7099,85,28.7099,81,32.7099,77,23.7099,81" style="stroke:#181818;stroke-width:1;"/></g><!--link Component to down--><g class="link" data-entity-1="ent0002" data-entity-2="ent0011" data-link-type="dependency" data-source-line="5" id="lnk12"><path d="M223.5999,81 C253.6899,81 280.7699,81 295.4299,81" fill="none" id="Component-to-down" style="stroke:#181818;stroke-width:1;"/><polygon fill="#181818" points="301.4299,81,292.4299,77,296.4299,81,292.4299,85,301.4299,81" style="stroke:#181818;stroke-width:1;"/></g><?plantuml-src oqbDAr4eoLSeoapFA558oInAJIx9pC_ZYdREpot8pqlDAubLqCq1AjArKm1Hg19WNK0PC8qgLLe052yjG1LCoI_F0mg3A000?></g></svg>