<svg xmlns="http://www.w3.org/2000/svg" xmlns:xlink="http://www.w3.org/1999/xlink" contentStyleType="text/css" data-diagram-type="DESCRIPTION" height="267px" preserveAspectRatio="none" style="width:590px;height:267px;" version="1.1" viewBox="0 0 590 267" width="590px" zoomAndPan="magnify"><?plantuml 1.2026.3beta5?><defs/><g><!--cluster A--><g class="cluster" data-qualified-name="A" data-source-line="3" id="ent0002"><rect fill="none" height="246.59" rx="2.5" ry="2.5" style="stroke:#181818;stroke-width:1;" width="421" x="155.29" y="7"/><rect fill="none" height="10" style="stroke:#181818;stroke-width:1;" width="15" x="556.29" y="12"/><rect fill="none" height="2" style="stroke:#181818;stroke-width:1;" width="4" x="554.29" y="14"/><rect fill="none" height="2" style="stroke:#181818;stroke-width:1;" width="4" x="554.29" y="18"/><text fill="#000000" font-family="sans-serif" font-size="14" font-weight="700" lengthAdjust="spacing" textLength="10.835" x="360.3725" y="32.9951">A</text></g><!--cluster A.44--><g class="cluster" data-qualified-name="A.A.44" data-source-line="6" id="ent0004"><rect fill="none" height="97.29" rx="2.5" ry="2.5" style="stroke:#181818;stroke-width:1;" width="104" x="179.29" y="50"/><rect fill="none" height="10" style="stroke:#181818;stroke-width:1;" width="15" x="263.29" y="55"/><rect fill="none" height="2" style="stroke:#181818;stroke-width:1;" width="4" x="261.29" y="57"/><rect fill="none" height="2" style="stroke:#181818;stroke-width:1;" width="4" x="261.29" y="61"/><text fill="#000000" font-family="sans-serif" font-size="14" font-weight="700" lengthAdjust="spacing" textLength="35.6357" x="213.4721" y="75.9951">A.44</text></g><!--entity A.2--><g class="entity" data-qualified-name="A.A.2" data-source-line="9" id="ent0006"><rect fill="#F1F1F1" height="46.2969" rx="2.5" ry="2.5" style="stroke:#181818;stroke-width:0.5;" width="62.9346" x="301.82" y="85"/><rect fill="#F1F1F1" height="10" style="stroke:#181818;stroke-width:0.5;" width="15" x="344.7546" y="90"/><rect fill="#F1F1F1" height="2" style="stroke:#181818;stroke-width:0.5;" width="4" x="342.7546" y="92"/><rect fill="#F1F1F1" height="2" style="stroke:#181818;stroke-width:0.5;" width="4" x="342.7546" y="96"/><text fill="#000000" font-family="sans-serif" font-size="14" lengthAdjust="spacing" textLength="22.9346" x="316.82" y="117.9951">A.2</text></g><!--entity A.3--><g class="entity" data-qualified-name="A.A.3" data-source-line="10" id="ent0007"><rect fill="#F1F1F1" height="46.2969" rx="2.5" ry="2.5" style="stroke:#181818;stroke-width:0.5;" width="62.9346" x="399.82" y="85"/><rect fill="#F1F1F1" height="10" style="stroke:#181818;stroke-width:0.5;" width="15" x="442.7546" y="90"/><rect fill="#F1F1F1" height="2" style="stroke:#181818;stroke-width:0.5;" width="4" x="440.7546" y="92"/><rect fill="#F1F1F1" height="2" style="stroke:#181818;stroke-width:0.5;" width="4" x="440.7546" y="96"/><text fill="#000000" font-family="sans-serif" font-size="14" lengthAdjust="spacing" textLength="22.9346" x="414.82" y="117.9951">A.3</text></g><!--entity A.5--><g class="entity" data-qualified-name="A.A.5" data-source-line="11" id="ent0008"><rect fill="#F1F1F1" height="46.2969" rx="2.5" ry="2.5" style="stroke:#181818;stroke-width:0.5;" width="62.9346" x="301.82" y="191.29"/><rect fill="#F1F1F1" height="10" style="stroke:#181818;stroke-width:0.5;" width="15" x="344.7546" y="196.29"/><rect fill="#F1F1F1" height="2" style="stroke:#181818;stroke-width:0.5;" width="4" x="342.7546" y="198.29"/><rect fill="#F1F1F1" height="2" style="stroke:#181818;stroke-width:0.5;" width="4" x="342.7546" y="202.29"/><text fill="#000000" font-family="sans-serif" font-size="14" lengthAdjust="spacing" textLength="22.9346" x="316.82" y="224.2851">A.5</text></g><!--entity A.6--><g class="entity" data-qualified-name="A.A.6" data-source-line="13" id="ent0009"><rect fill="#F1F1F1" height="30" rx="2.5" ry="2.5" style="stroke:#181818;stroke-width:0.5;" width="40" x="399.29" y="199.44"/><rect fill="#F1F1F1" height="10" style="stroke:#181818;stroke-width:0.5;" width="15" x="419.29" y="204.44"/><rect fill="#F1F1F1" height="2" style="stroke:#181818;stroke-width:0.5;" width="4" x="417.29" y="206.44"/><rect fill="#F1F1F1" height="2" style="stroke:#181818;stroke-width:0.5;" width="4" x="417.29" y="210.44"/></g><!--entity A.1--><g class="entity" data-qualified-name="A.A.1" data-source-line="4" id="ent0003"><rect fill="#F1F1F1" height="46.2969" rx="2.5" ry="2.5" style="stroke:#181818;stroke-width:0.5;" width="62.9346" x="497.82" y="85"/><rect fill="#F1F1F1" height="10" style="stroke:#181818;stroke-width:0.5;" width="15" x="540.7546" y="90"/><rect fill="#F1F1F1" height="2" style="stroke:#181818;stroke-width:0.5;" width="4" x="538.7546" y="92"/><rect fill="#F1F1F1" height="2" style="stroke:#181818;stroke-width:0.5;" width="4" x="538.7546" y="96"/><text fill="#000000" font-family="sans-serif" font-size="14" lengthAdjust="spacing" textLength="22.9346" x="512.82" y="117.9951">A.1</text></g><!--entity A4.1--><g class="entity" data-qualified-name="A.A.44.A4.1" data-source-line="7" id="ent0005"><rect fill="#F1F1F1" height="46.2969" rx="2.5" ry="2.5" style="stroke:#181818;stroke-width:0.5;" width="71.8418" x="195.37" y="85"/><rect fill="#F1F1F1" height="10" style="stroke:#181818;stroke-width:0.5;" width="15" x="247.2118" y="90"/><rect fill="#F1F1F1" height="2" style="stroke:#181818;stroke-width:0.5;" width="4" x="245.2118" y="92"/><rect fill="#F1F1F1" height="2" style="stroke:#181818;stroke-width:0.5;" width="4" x="245.2118" y="96"/><text fill="#000000" font-family="sans-serif" font-size="14" lengthAdjust="spacing" textLength="31.8418" x="210.37" y="117.9951">A4.1</text></g><!--entity a--><g class="entity" data-qualified-name="a" data-source-line="16" id="ent0010"><rect fill="#F1F1F1" height="46.2969" rx="2.5" ry="2.5" style="stroke:#181818;stroke-width:0.5;" width="48.5791" x="7" y="85"/><rect fill="#F1F1F1" height="10" style="stroke:#181818;stroke-width:0.5;" width="15" x="35.5791" y="90"/><rect fill="#F1F1F1" height="2" style="stroke:#181818;stroke-width:0.5;" width="4" x="33.5791" y="92"/><rect fill="#F1F1F1" height="2" style="stroke:#181818;stroke-width:0.5;" width="4" x="33.5791" y="96"/><text fill="#000000" font-family="sans-serif" font-size="14" lengthAdjust="spacing" textLength="8.5791" x="22" y="117.9951">a</text></g><!--entity b--><g class="entity" data-qualified-name="b" data-source-line="16" id="ent0011"><rect fill="#F1F1F1" height="46.2969" rx="2.5" ry="2.5" style="stroke:#181818;stroke-width:0.5;" width="48.8867" x="90.85" y="85"/><rect fill="#F1F1F1" height="10" style="stroke:#181818;stroke-width:0.5;" width="15" x="119.7367" y="90"/><rect fill="#F1F1F1" height="2" style="stroke:#181818;stroke-width:0.5;" width="4" x="117.7367" y="92"/><rect fill="#F1F1F1" height="2" style="stroke:#181818;stroke-width:0.5;" width="4" x="117.7367" y="96"/><text fill="#000000" font-family="sans-serif" font-size="14" lengthAdjust="spacing" textLength="8.8867" x="105.85" y="117.9951">b</text></g><!--link a to b--><g class="link" data-entity-1="ent0010" data-entity-2="ent0011" data-link-type="dependency" data-source-line="16" id="lnk12"><path d="M55.9,108.14 C67.5,108.14 73.1,108.14 84.7,108.14" fill="none" id="a-to-b" style="stroke:#181818;stroke-width:1;"/><polygon fill="#181818" points="90.7,108.14,81.7,104.14,85.7,108.14,81.7,112.14,90.7,108.14" style="stroke:#181818;stroke-width:1;"/></g><?plantuml-src NOp12i8m343l_OhGkuNDwb6eViAEfOSwXyZQPBJTGSR-tQWmiJdayDvBylZ0oISVuUpxyPvenjk50YKeoMDcDM0HUQjwYXCXiwuymm1p3AtO61XO1C0l0cbK8nck_zWehRyfZpLQDQvE-BALugFLtjNd1x22juDQ75cyVrdlTYTxTIy0?></g></svg>