<svg xmlns="http://www.w3.org/2000/svg" xmlns:xlink="http://www.w3.org/1999/xlink" contentStyleType="text/css" data-diagram-type="DESCRIPTION" height="423px" preserveAspectRatio="none" style="width:166px;height:423px;background:#FFFFFF;" version="1.1" viewBox="0 0 166 423" width="166px" zoomAndPan="magnify"><?plantuml 1.2026.3beta5?><defs/><g><!--cluster C--><g class="cluster" data-qualified-name="C" data-source-line="2" id="ent0003"><rect fill="none" height="178.29" rx="2.5" ry="2.5" style="stroke:#181818;stroke-width:1;" width="145" x="7" y="119.3"/><rect fill="none" height="10" style="stroke:#181818;stroke-width:1;" width="15" x="132" y="124.3"/><rect fill="none" height="2" style="stroke:#181818;stroke-width:1;" width="4" x="130" y="126.3"/><rect fill="none" height="2" style="stroke:#181818;stroke-width:1;" width="4" x="130" y="130.3"/><text fill="#000000" font-family="sans-serif" font-size="14" font-weight="700" lengthAdjust="spacing" textLength="10.2744" x="74.3628" y="145.2951">C</text></g><g class="entity" data-qualified-name="C.p1" data-source-line="3" id="ent0004"><text fill="#000000" font-family="sans-serif" font-size="14" lengthAdjust="spacing" textLength="17.7939" x="24.103" y="97.9982">p1</text><rect fill="#F1F1F1" height="12" style="stroke:#181818;stroke-width:1.5;" width="12" x="27" y="113.3"/></g><g class="entity" data-qualified-name="C.p2" data-source-line="4" id="ent0005"><text fill="#000000" font-family="sans-serif" font-size="14" lengthAdjust="spacing" textLength="17.7939" x="71.103" y="97.9982">p2</text><rect fill="#F1F1F1" height="12" style="stroke:#181818;stroke-width:1.5;" width="12" x="74" y="113.3"/></g><g class="entity" data-qualified-name="C.p3" data-source-line="5" id="ent0006"><text fill="#000000" font-family="sans-serif" font-size="14" lengthAdjust="spacing" textLength="17.7939" x="118.103" y="97.9982">p3</text><rect fill="#F1F1F1" height="12" style="stroke:#181818;stroke-width:1.5;" width="12" x="121" y="113.3"/></g><g class="entity" data-qualified-name="C.po1" data-source-line="6" id="ent0007"><text fill="#000000" font-family="sans-serif" font-size="14" lengthAdjust="spacing" textLength="26.3594" x="26.8203" y="316.5851">po1</text><rect fill="#F1F1F1" height="12" style="stroke:#181818;stroke-width:1.5;" width="12" x="34" y="291.59"/></g><g class="entity" data-qualified-name="C.po2" data-source-line="7" id="ent0008"><text fill="#000000" font-family="sans-serif" font-size="14" lengthAdjust="spacing" textLength="26.3594" x="73.8203" y="316.5851">po2</text><rect fill="#F1F1F1" height="12" style="stroke:#181818;stroke-width:1.5;" width="12" x="81" y="291.59"/></g><g class="entity" data-qualified-name="C.po3" data-source-line="8" id="ent0009"><text fill="#000000" font-family="sans-serif" font-size="14" lengthAdjust="spacing" textLength="26.3594" x="120.8203" y="316.5851">po3</text><rect fill="#F1F1F1" height="12" style="stroke:#181818;stroke-width:1.5;" width="12" x="128" y="291.59"/></g><!--entity c1--><g class="entity" data-qualified-name="C.c1" data-source-line="9" id="ent0010"><rect fill="#F1F1F1" height="46.2969" rx="2.5" ry="2.5" style="stroke:#181818;stroke-width:0.5;" width="56.6045" x="22.7" y="185.3"/><rect fill="#F1F1F1" height="10" style="stroke:#181818;stroke-width:0.5;" width="15" x="59.3045" y="190.3"/><rect fill="#F1F1F1" height="2" style="stroke:#181818;stroke-width:0.5;" width="4" x="57.3045" y="192.3"/><rect fill="#F1F1F1" height="2" style="stroke:#181818;stroke-width:0.5;" width="4" x="57.3045" y="196.3"/><text fill="#000000" font-family="sans-serif" font-size="14" lengthAdjust="spacing" textLength="16.6045" x="37.7" y="218.2951">c1</text></g><!--entity i--><g class="entity" data-qualified-name="i" data-source-line="1" id="ent0002"><rect fill="#F1F1F1" height="46.2969" rx="2.5" ry="2.5" style="stroke:#181818;stroke-width:0.5;" width="43.8896" x="58.06" y="7"/><rect fill="#F1F1F1" height="10" style="stroke:#181818;stroke-width:0.5;" width="15" x="81.9496" y="12"/><rect fill="#F1F1F1" height="2" style="stroke:#181818;stroke-width:0.5;" width="4" x="79.9496" y="14"/><rect fill="#F1F1F1" height="2" style="stroke:#181818;stroke-width:0.5;" width="4" x="79.9496" y="18"/><text fill="#000000" font-family="sans-serif" font-size="14" lengthAdjust="spacing" textLength="3.8896" x="73.06" y="39.9951">i</text></g><!--entity o--><g class="entity" data-qualified-name="o" data-source-line="11" id="ent0011"><rect fill="#F1F1F1" height="46.2969" rx="2.5" ry="2.5" style="stroke:#181818;stroke-width:0.5;" width="48.5654" x="62.72" y="363.59"/><rect fill="#F1F1F1" height="10" style="stroke:#181818;stroke-width:0.5;" width="15" x="91.2854" y="368.59"/><rect fill="#F1F1F1" height="2" style="stroke:#181818;stroke-width:0.5;" width="4" x="89.2854" y="370.59"/><rect fill="#F1F1F1" height="2" style="stroke:#181818;stroke-width:0.5;" width="4" x="89.2854" y="374.59"/><text fill="#000000" font-family="sans-serif" font-size="14" lengthAdjust="spacing" textLength="8.5654" x="77.72" y="396.5851">o</text></g><!--link i to p1--><g class="link" data-entity-1="ent0002" data-entity-2="ent0004" data-link-type="dependency" data-source-line="13" id="lnk12"><path d="M67.9,53.59 C57.13,73.56 44.99,96.0701 38.75,107.6301" fill="none" id="i-to-p1" style="stroke:#181818;stroke-width:1;"/><polygon fill="#181818" points="35.9,112.91,43.695,106.8902,38.275,108.5101,36.6551,103.0901,35.9,112.91" style="stroke:#181818;stroke-width:1;"/></g><!--link i to p2--><g class="link" data-entity-1="ent0002" data-entity-2="ent0005" data-link-type="dependency" data-source-line="14" id="lnk13"><path d="M80,53.59 C80,73.56 80,95.35 80,106.91" fill="none" id="i-to-p2" style="stroke:#181818;stroke-width:1;"/><polygon fill="#181818" points="80,112.91,84,103.91,80,107.91,76,103.91,80,112.91" style="stroke:#181818;stroke-width:1;"/></g><!--link i to p3--><g class="link" data-entity-1="ent0002" data-entity-2="ent0006" data-link-type="dependency" data-source-line="15" id="lnk14"><path d="M92.1,53.59 C102.87,73.56 115.01,96.0701 121.25,107.6301" fill="none" id="i-to-p3" style="stroke:#181818;stroke-width:1;"/><polygon fill="#181818" points="124.1,112.91,123.3449,103.0901,121.725,108.5101,116.305,106.8902,124.1,112.91" style="stroke:#181818;stroke-width:1;"/></g><!--link p1 to c1--><g class="link" data-entity-1="ent0004" data-entity-2="ent0010" data-link-type="dependency" data-source-line="16" id="lnk15"><path d="M34.13,125.75 C36.53,137.37 41.0559,159.2941 45.1759,179.2341" fill="none" id="p1-to-c1" style="stroke:#181818;stroke-width:1;"/><polygon fill="#181818" points="46.39,185.11,48.4861,175.4868,45.3783,180.2134,40.6516,177.1056,46.39,185.11" style="stroke:#181818;stroke-width:1;"/></g><!--link p2 to c1--><g class="link" data-entity-1="ent0005" data-entity-2="ent0010" data-link-type="dependency" data-source-line="17" id="lnk16"><path d="M78.19,125.75 C74.32,137.37 66.9657,159.4773 60.3257,179.4173" fill="none" id="p2-to-c1" style="stroke:#181818;stroke-width:1;"/><polygon fill="#181818" points="58.43,185.11,65.0686,177.8348,60.0097,180.3661,57.4784,175.3072,58.43,185.11" style="stroke:#181818;stroke-width:1;"/></g><!--link po1 to o--><g class="link" data-entity-1="ent0007" data-entity-2="ent0011" data-link-type="dependency" data-source-line="18" id="lnk17"><path d="M42.94,304.04 C49.21,315.67 61.3527,338.1786 72.1027,358.1186" fill="none" id="po1-to-o" style="stroke:#181818;stroke-width:1;"/><polygon fill="#181818" points="74.95,363.4,74.2,353.5797,72.5773,358.9988,67.1582,357.3761,74.95,363.4" style="stroke:#181818;stroke-width:1;"/></g><!--link po2 to o--><g class="link" data-entity-1="ent0008" data-entity-2="ent0011" data-link-type="dependency" data-source-line="19" id="lnk18"><path d="M87,304.04 C87,315.67 87,337.46 87,357.4" fill="none" id="po2-to-o" style="stroke:#181818;stroke-width:1;"/><polygon fill="#181818" points="87,363.4,91,354.4,87,358.4,83,354.4,87,363.4" style="stroke:#181818;stroke-width:1;"/></g><!--link po3 to o--><g class="link" data-entity-1="ent0009" data-entity-2="ent0011" data-link-type="dependency" data-source-line="20" id="lnk19"><path d="M131.06,304.04 C124.79,315.67 112.6473,338.1786 101.8973,358.1186" fill="none" id="po3-to-o" style="stroke:#181818;stroke-width:1;"/><polygon fill="#181818" points="99.05,363.4,106.8418,357.3761,101.4227,358.9988,99.8,353.5797,99.05,363.4" style="stroke:#181818;stroke-width:1;"/></g><!--link c1 to po1--><g class="link" data-entity-1="ent0010" data-entity-2="ent0007" data-link-type="dependency" data-source-line="21" id="lnk20"><path d="M48.17,231.89 C45.65,251.86 42.8912,273.6872 41.4312,285.2572" fill="none" id="c1-to-po1" style="stroke:#181818;stroke-width:1;"/><polygon fill="#181818" points="40.68,291.21,45.7753,282.7816,41.306,286.2493,37.8382,281.78,40.68,291.21" style="stroke:#181818;stroke-width:1;"/></g><?plantuml-src LSqn3e0W30NGlQVe1HWekul784p4WK7Q69oCTnS44QQ-jZ-j3Guyxy9nYmbNl01H-4WXekZ1DDWqyvborLD7KrUI_tMluGRB3Y2WKajvq40V38X-bRD2NLo7d4LTfidNPGuz?></g></svg>