<svg xmlns="http://www.w3.org/2000/svg" xmlns:xlink="http://www.w3.org/1999/xlink" contentStyleType="text/css" data-diagram-type="DESCRIPTION" height="261px" preserveAspectRatio="none" style="width:166px;height:261px;background:#FFFFFF;" version="1.1" viewBox="0 0 166 261" width="166px" zoomAndPan="magnify"><?plantuml 1.2026.3beta5?><defs/><g><!--cluster C--><g class="cluster" data-qualified-name="C" data-source-line="1" id="ent0002"><rect fill="none" height="128.29" rx="2.5" ry="2.5" style="stroke:#181818;stroke-width:1;" width="145" x="7" y="7"/><rect fill="none" height="10" style="stroke:#181818;stroke-width:1;" width="15" x="132" y="12"/><rect fill="none" height="2" style="stroke:#181818;stroke-width:1;" width="4" x="130" y="14"/><rect fill="none" height="2" style="stroke:#181818;stroke-width:1;" width="4" x="130" y="18"/><text fill="#000000" font-family="sans-serif" font-size="14" font-weight="700" lengthAdjust="spacing" textLength="10.2744" x="74.3628" y="32.9951">C</text></g><g class="entity" data-qualified-name="C.p1" data-source-line="2" id="ent0003"><text fill="#000000" font-family="sans-serif" font-size="14" lengthAdjust="spacing" textLength="17.7939" x="31.103" y="154.2851">p1</text><rect fill="#F1F1F1" height="12" style="stroke:#181818;stroke-width:1.5;" width="12" x="34" y="129.29"/></g><g class="entity" data-qualified-name="C.p2" data-source-line="3" id="ent0004"><text fill="#000000" font-family="sans-serif" font-size="14" lengthAdjust="spacing" textLength="17.7939" x="78.103" y="154.2851">p2</text><rect fill="#F1F1F1" height="12" style="stroke:#181818;stroke-width:1.5;" width="12" x="81" y="129.29"/></g><g class="entity" data-qualified-name="C.p3" data-source-line="4" id="ent0005"><text fill="#000000" font-family="sans-serif" font-size="14" lengthAdjust="spacing" textLength="17.7939" x="125.103" y="154.2851">p3</text><rect fill="#F1F1F1" height="12" style="stroke:#181818;stroke-width:1.5;" width="12" x="128" y="129.29"/></g><!--entity c1--><g class="entity" data-qualified-name="C.c1" data-source-line="5" id="ent0006"><rect fill="#F1F1F1" height="46.2969" rx="2.5" ry="2.5" style="stroke:#181818;stroke-width:0.5;" width="56.6045" x="22.7" y="23"/><rect fill="#F1F1F1" height="10" style="stroke:#181818;stroke-width:0.5;" width="15" x="59.3045" y="28"/><rect fill="#F1F1F1" height="2" style="stroke:#181818;stroke-width:0.5;" width="4" x="57.3045" y="30"/><rect fill="#F1F1F1" height="2" style="stroke:#181818;stroke-width:0.5;" width="4" x="57.3045" y="34"/><text fill="#000000" font-family="sans-serif" font-size="14" lengthAdjust="spacing" textLength="16.6045" x="37.7" y="55.9951">c1</text></g><!--entity o--><g class="entity" data-qualified-name="o" data-source-line="7" id="ent0007"><rect fill="#F1F1F1" height="46.2969" rx="2.5" ry="2.5" style="stroke:#181818;stroke-width:0.5;" width="48.5654" x="62.72" y="201.29"/><rect fill="#F1F1F1" height="10" style="stroke:#181818;stroke-width:0.5;" width="15" x="91.2854" y="206.29"/><rect fill="#F1F1F1" height="2" style="stroke:#181818;stroke-width:0.5;" width="4" x="89.2854" y="208.29"/><rect fill="#F1F1F1" height="2" style="stroke:#181818;stroke-width:0.5;" width="4" x="89.2854" y="212.29"/><text fill="#000000" font-family="sans-serif" font-size="14" lengthAdjust="spacing" textLength="8.5654" x="77.72" y="234.2851">o</text></g><!--link p1 to o--><g class="link" data-entity-1="ent0003" data-entity-2="ent0007" data-link-type="dependency" data-source-line="8" id="lnk8"><path d="M42.94,141.74 C49.21,153.37 61.3527,175.8786 72.1027,195.8186" fill="none" id="p1-to-o" style="stroke:#181818;stroke-width:1;"/><polygon fill="#181818" points="74.95,201.1,74.2,191.2797,72.5773,196.6988,67.1582,195.0761,74.95,201.1" style="stroke:#181818;stroke-width:1;"/></g><!--link p2 to o--><g class="link" data-entity-1="ent0004" data-entity-2="ent0007" data-link-type="dependency" data-source-line="9" id="lnk9"><path d="M87,141.74 C87,153.37 87,175.16 87,195.1" fill="none" id="p2-to-o" style="stroke:#181818;stroke-width:1;"/><polygon fill="#181818" points="87,201.1,91,192.1,87,196.1,83,192.1,87,201.1" style="stroke:#181818;stroke-width:1;"/></g><!--link p3 to o--><g class="link" data-entity-1="ent0005" data-entity-2="ent0007" data-link-type="dependency" data-source-line="10" id="lnk10"><path d="M131.06,141.74 C124.79,153.37 112.6473,175.8786 101.8973,195.8186" fill="none" id="p3-to-o" style="stroke:#181818;stroke-width:1;"/><polygon fill="#181818" points="99.05,201.1,106.8418,195.0761,101.4227,196.6988,99.8,191.2797,99.05,201.1" style="stroke:#181818;stroke-width:1;"/></g><!--link c1 to p1--><g class="link" data-entity-1="ent0006" data-entity-2="ent0003" data-link-type="dependency" data-source-line="11" id="lnk11"><path d="M48.17,69.59 C45.65,89.56 42.8912,111.3872 41.4312,122.9572" fill="none" id="c1-to-p1" style="stroke:#181818;stroke-width:1;"/><polygon fill="#181818" points="40.68,128.91,45.7753,120.4816,41.306,123.9493,37.8382,119.48,40.68,128.91" style="stroke:#181818;stroke-width:1;"/></g><?plantuml-src IyxFBSZFIyqhKN1MgEPIK2Z8Boh9BorHA314vXWXSuo1d6IujcH3hbgkwFnOhW931LrTEuLyhW8Z6CCOoaY6I1KO0W00?></g></svg>