<svg xmlns="http://www.w3.org/2000/svg" xmlns:xlink="http://www.w3.org/1999/xlink" contentStyleType="text/css" data-diagram-type="DESCRIPTION" height="261px" preserveAspectRatio="none" style="width:159px;height:261px;background:#FFFFFF;" version="1.1" viewBox="0 0 159 261" width="159px" zoomAndPan="magnify"><?plantuml 1.2026.3beta5?><defs/><g><!--cluster C--><g class="cluster" data-qualified-name="C" data-source-line="2" id="ent0003"><rect fill="none" height="128.3" rx="2.5" ry="2.5" style="stroke:#181818;stroke-width:1;" width="138" x="7" y="119.29"/><rect fill="none" height="10" style="stroke:#181818;stroke-width:1;" width="15" x="125" y="124.29"/><rect fill="none" height="2" style="stroke:#181818;stroke-width:1;" width="4" x="123" y="126.29"/><rect fill="none" height="2" style="stroke:#181818;stroke-width:1;" width="4" x="123" y="130.29"/><text fill="#000000" font-family="sans-serif" font-size="14" font-weight="700" lengthAdjust="spacing" textLength="10.2744" x="70.8628" y="145.2851">C</text></g><g class="entity" data-qualified-name="C.p1" data-source-line="3" id="ent0004"><text fill="#000000" font-family="sans-serif" font-size="14" lengthAdjust="spacing" textLength="17.7939" x="24.103" y="97.9882">p1</text><rect fill="#F1F1F1" height="12" style="stroke:#181818;stroke-width:1.5;" width="12" x="27" y="113.29"/></g><g class="entity" data-qualified-name="C.p2" data-source-line="4" id="ent0005"><text fill="#000000" font-family="sans-serif" font-size="14" lengthAdjust="spacing" textLength="17.7939" x="71.103" y="97.9882">p2</text><rect fill="#F1F1F1" height="12" style="stroke:#181818;stroke-width:1.5;" width="12" x="74" y="113.29"/></g><g class="entity" data-qualified-name="C.p3" data-source-line="5" id="ent0006"><text fill="#000000" font-family="sans-serif" font-size="14" lengthAdjust="spacing" textLength="17.7939" x="118.103" y="97.9882">p3</text><rect fill="#F1F1F1" height="12" style="stroke:#181818;stroke-width:1.5;" width="12" x="121" y="113.29"/></g><!--entity c1--><g class="entity" data-qualified-name="C.c1" data-source-line="6" id="ent0007"><rect fill="#F1F1F1" height="46.2969" rx="2.5" ry="2.5" style="stroke:#181818;stroke-width:0.5;" width="56.6045" x="22.7" y="185.29"/><rect fill="#F1F1F1" height="10" style="stroke:#181818;stroke-width:0.5;" width="15" x="59.3045" y="190.29"/><rect fill="#F1F1F1" height="2" style="stroke:#181818;stroke-width:0.5;" width="4" x="57.3045" y="192.29"/><rect fill="#F1F1F1" height="2" style="stroke:#181818;stroke-width:0.5;" width="4" x="57.3045" y="196.29"/><text fill="#000000" font-family="sans-serif" font-size="14" lengthAdjust="spacing" textLength="16.6045" x="37.7" y="218.2851">c1</text></g><!--entity c--><g class="entity" data-qualified-name="c" data-source-line="1" id="ent0002"><rect fill="#F1F1F1" height="46.2969" rx="2.5" ry="2.5" style="stroke:#181818;stroke-width:0.5;" width="47.6973" x="56.15" y="7"/><rect fill="#F1F1F1" height="10" style="stroke:#181818;stroke-width:0.5;" width="15" x="83.8473" y="12"/><rect fill="#F1F1F1" height="2" style="stroke:#181818;stroke-width:0.5;" width="4" x="81.8473" y="14"/><rect fill="#F1F1F1" height="2" style="stroke:#181818;stroke-width:0.5;" width="4" x="81.8473" y="18"/><text fill="#000000" font-family="sans-serif" font-size="14" lengthAdjust="spacing" textLength="7.6973" x="71.15" y="39.9951">c</text></g><!--link c to p1--><g class="link" data-entity-1="ent0002" data-entity-2="ent0004" data-link-type="dependency" data-source-line="9" id="lnk8"><path d="M67.9,53.59 C57.13,73.56 44.9881,96.0591 38.7481,107.6291" fill="none" id="c-to-p1" style="stroke:#181818;stroke-width:1;"/><polygon fill="#181818" points="35.9,112.91,43.6928,106.8874,38.2734,108.5092,36.6516,103.0899,35.9,112.91" style="stroke:#181818;stroke-width:1;"/></g><!--link c to p2--><g class="link" data-entity-1="ent0002" data-entity-2="ent0005" data-link-type="dependency" data-source-line="10" id="lnk9"><path d="M80,53.59 C80,73.56 80,95.34 80,106.91" fill="none" id="c-to-p2" style="stroke:#181818;stroke-width:1;"/><polygon fill="#181818" points="80,112.91,84,103.91,80,107.91,76,103.91,80,112.91" style="stroke:#181818;stroke-width:1;"/></g><!--link c to p3--><g class="link" data-entity-1="ent0002" data-entity-2="ent0006" data-link-type="dependency" data-source-line="11" id="lnk10"><path d="M92.1,53.59 C102.87,73.56 115.0119,96.0591 121.2519,107.6291" fill="none" id="c-to-p3" style="stroke:#181818;stroke-width:1;"/><polygon fill="#181818" points="124.1,112.91,123.3484,103.0899,121.7266,108.5092,116.3072,106.8874,124.1,112.91" style="stroke:#181818;stroke-width:1;"/></g><!--link p1 to c1--><g class="link" data-entity-1="ent0004" data-entity-2="ent0007" data-link-type="dependency" data-source-line="12" id="lnk11"><path d="M34.13,125.74 C36.53,137.37 41.0559,159.2841 45.1759,179.2241" fill="none" id="p1-to-c1" style="stroke:#181818;stroke-width:1;"/><polygon fill="#181818" points="46.39,185.1,48.4861,175.4768,45.3783,180.2034,40.6516,177.0956,46.39,185.1" style="stroke:#181818;stroke-width:1;"/></g><!--link p2 to c1--><g class="link" data-entity-1="ent0005" data-entity-2="ent0007" data-link-type="dependency" data-source-line="13" id="lnk12"><path d="M78.19,125.74 C74.32,137.37 66.9657,159.4673 60.3257,179.4073" fill="none" id="p2-to-c1" style="stroke:#181818;stroke-width:1;"/><polygon fill="#181818" points="58.43,185.1,65.0686,177.8248,60.0097,180.3561,57.4784,175.2972,58.43,185.1" style="stroke:#181818;stroke-width:1;"/></g><?plantuml-src YqwEvKhEpot8pqlDAr5mLgZcKb0eo2ygoSnJA314OXiXiOs1R8IUP4EkMYwkP0LTNJkG5YZ32COmvYem1BE0wWgCe2m0?></g></svg>