<svg xmlns="http://www.w3.org/2000/svg" xmlns:xlink="http://www.w3.org/1999/xlink" contentStyleType="text/css" data-diagram-type="DESCRIPTION" height="189px" preserveAspectRatio="none" style="width:455px;height:189px;background:#FFFFFF;" version="1.1" viewBox="0 0 455 189" width="455px" zoomAndPan="magnify"><?plantuml 1.2026.3beta5?><defs/><g><!--entity DA--><g class="entity" data-qualified-name="DA" data-source-line="1" id="ent0002"><ellipse cx="61.96" cy="30.15" fill="#F1F1F1" rx="8" ry="8" style="stroke:#181818;stroke-width:0.5;"/><text fill="#000000" font-family="sans-serif" font-size="14" lengthAdjust="spacing" textLength="86.0508" x="18.9346" y="60.1451">Data Access</text></g><!--entity First Component--><g class="entity" data-qualified-name="First Component" data-source-line="3" id="ent0003"><rect fill="#F1F1F1" height="46.2969" rx="2.5" ry="2.5" style="stroke:#181818;stroke-width:0.5;" width="156.2109" x="105.85" y="7"/><rect fill="#F1F1F1" height="10" style="stroke:#181818;stroke-width:0.5;" width="15" x="242.0609" y="12"/><rect fill="#F1F1F1" height="2" style="stroke:#181818;stroke-width:0.5;" width="4" x="240.0609" y="14"/><rect fill="#F1F1F1" height="2" style="stroke:#181818;stroke-width:0.5;" width="4" x="240.0609" y="18"/><text fill="#000000" font-family="sans-serif" font-size="14" lengthAdjust="spacing" textLength="116.2109" x="120.85" y="39.9951">First Component</text></g><!--entity HTTP--><g class="entity" data-qualified-name="HTTP" data-source-line="4" id="ent0005"><ellipse cx="183.96" cy="142.86" fill="#F1F1F1" rx="8" ry="8" style="stroke:#181818;stroke-width:0.5;"/><text fill="#000000" font-family="sans-serif" font-size="14" lengthAdjust="spacing" textLength="36.0732" x="165.9234" y="172.8551">HTTP</text></g><g class="entity" data-qualified-name="GMN7" data-source-line="6" id="ent0008"><path d="M6,130.3 L6,155.4328 A0,0 0 0 0 6,155.4328 L139.9121,155.4328 A0,0 0 0 0 139.9121,155.4328 L139.9121,148.3 L174.72,142.86 L139.9121,140.3 L139.9121,140.3 L129.9121,130.3 L6,130.3 A0,0 0 0 0 6,130.3" fill="#FEFFDD" style="stroke:#181818;stroke-width:0.5;"/><path d="M129.9121,130.3 L129.9121,140.3 L139.9121,140.3 L129.9121,130.3" fill="#FEFFDD" style="stroke:#181818;stroke-width:0.5;"/><text fill="#000000" font-family="sans-serif" font-size="13" lengthAdjust="spacing" textLength="112.9121" x="12" y="147.3669">Web Service only</text></g><g class="entity" data-qualified-name="GMN10" data-source-line="9" id="ent0011"><path d="M297.23,10.02 L297.23,26.15 L262.36,30.15 L297.23,34.15 L297.23,50.2856 A0,0 0 0 0 297.23,50.2856 L440.689,50.2856 A0,0 0 0 0 440.689,50.2856 L440.689,20.02 L430.689,10.02 L297.23,10.02 A0,0 0 0 0 297.23,10.02" fill="#FEFFDD" style="stroke:#181818;stroke-width:0.5;"/><path d="M430.689,10.02 L430.689,20.02 L440.689,20.02 L430.689,10.02" fill="#FEFFDD" style="stroke:#181818;stroke-width:0.5;"/><text fill="#000000" font-family="sans-serif" font-size="13" lengthAdjust="spacing" textLength="100.2358" x="303.23" y="27.0869">A note can also</text><text fill="#000000" font-family="sans-serif" font-size="13" lengthAdjust="spacing" textLength="122.459" x="303.23" y="42.2197">be on several lines</text></g><!--link DA to First Component--><g class="link" data-entity-1="ent0002" data-entity-2="ent0003" data-link-type="association" data-source-line="3" id="lnk4"><path d="M71.01,30.15 C82.48,30.15 93.95,30.15 105.42,30.15" fill="none" id="DA-First Component" style="stroke:#181818;stroke-width:1;"/></g><!--link First Component to HTTP--><g class="link" data-entity-1="ent0003" data-entity-2="ent0005" data-link-type="dependency" data-source-line="4" id="lnk6"><path d="M183.96,53.55 C183.96,78.2 183.96,110.54 183.96,127.41" fill="none" id="First Component-to-HTTP" style="stroke:#181818;stroke-width:1;stroke-dasharray:7,7;"/><polygon fill="#181818" points="183.96,133.41,187.96,124.41,183.96,128.41,179.96,124.41,183.96,133.41" style="stroke:#181818;stroke-width:1;"/><text fill="#000000" font-family="sans-serif" font-size="13" lengthAdjust="spacing" textLength="23.0103" x="184.96" y="96.3669">use</text></g><?plantuml-src POqn2W8n44NxdEAplNi02o4On59mmK8iPkD40t4YcRZWxLs3Ljk-_pulIkKIo3CwHvLWlMVL3gHmrXXdiS9v5ujMRFFZcOMbNio2eEyts0_30Mkyb8sHN1c9GqKE_-748uvSfZZNigJtpohnTc_QiWDODCUJW9BccOpVCvGdBfIGeh0QbclpFW00?></g></svg>