<svg xmlns="http://www.w3.org/2000/svg" xmlns:xlink="http://www.w3.org/1999/xlink" contentStyleType="text/css" data-diagram-type="DESCRIPTION" height="168px" preserveAspectRatio="none" style="width:195px;height:168px;background:#FFFFFF;" version="1.1" viewBox="0 0 195 168" width="195px" zoomAndPan="magnify"><?plantuml 1.2026.3beta5?><defs/><g><!--entity C--><g class="entity" data-qualified-name="C" data-source-line="1" id="ent0002"><rect fill="#F1F1F1" height="46.2969" rx="2.5" ry="2.5" style="stroke:#181818;stroke-width:0.5;" width="121.2793" x="32.7" y="7"/><rect fill="#F1F1F1" height="10" style="stroke:#181818;stroke-width:0.5;" width="15" x="133.9793" y="12"/><rect fill="#F1F1F1" height="2" style="stroke:#181818;stroke-width:0.5;" width="4" x="131.9793" y="14"/><rect fill="#F1F1F1" height="2" style="stroke:#181818;stroke-width:0.5;" width="4" x="131.9793" y="18"/><text fill="#000000" font-family="sans-serif" font-size="14" lengthAdjust="spacing" textLength="81.2793" x="47.7" y="39.9951">Component</text></g><g class="entity" data-qualified-name="N" data-source-line="4" id="ent0003"><path d="M6,113.29 L6,153.5556 A0,0 0 0 0 6,153.5556 L180.6768,153.5556 A0,0 0 0 0 180.6768,153.5556 L180.6768,123.29 L170.6768,113.29 L97.34,113.29 L93.34,53.62 L89.34,113.29 L6,113.29 A0,0 0 0 0 6,113.29" fill="#FEFFDD" style="stroke:#181818;stroke-width:0.5;"/><path d="M170.6768,113.29 L170.6768,123.29 L180.6768,123.29 L170.6768,113.29" fill="#FEFFDD" style="stroke:#181818;stroke-width:0.5;"/><text fill="#000000" font-family="sans-serif" font-size="13" lengthAdjust="spacing" textLength="153.6768" x="12" y="130.3569">A floating note can also</text><text fill="#000000" font-family="sans-serif" font-size="13" lengthAdjust="spacing" textLength="122.459" x="12" y="145.4897">be on several lines</text></g><?plantuml-src 7Oh13O0m3CJ-cU8cO0VKVnT0F084LAbS4AcO7-ZFiZqbFo-diStGG1AXD_in2p1Yhwwjy43Ngn9Qmx-q69m8U-pMYbfe8SQjVo89mu3y0W00?></g></svg>