<svg xmlns="http://www.w3.org/2000/svg" xmlns:xlink="http://www.w3.org/1999/xlink" contentStyleType="text/css" data-diagram-type="DESCRIPTION" height="252px" preserveAspectRatio="none" style="width:457px;height:252px;background:#FFFFFF;" version="1.1" viewBox="0 0 457 252" width="457px" zoomAndPan="magnify"><?plantuml 1.2026.3beta5?><defs/><g><!--entity C--><g class="entity" data-qualified-name="C" data-source-line="1" id="ent0002"><rect fill="#F1F1F1" height="46.2969" rx="2.5" ry="2.5" style="stroke:#181818;stroke-width:0.5;" width="121.2793" x="187.69" y="91.14"/><rect fill="#F1F1F1" height="10" style="stroke:#181818;stroke-width:0.5;" width="15" x="288.9693" y="96.14"/><rect fill="#F1F1F1" height="2" style="stroke:#181818;stroke-width:0.5;" width="4" x="286.9693" y="98.14"/><rect fill="#F1F1F1" height="2" style="stroke:#181818;stroke-width:0.5;" width="4" x="286.9693" y="102.14"/><text fill="#000000" font-family="sans-serif" font-size="14" lengthAdjust="spacing" textLength="81.2793" x="202.69" y="124.1351">Component</text></g><g class="entity" data-qualified-name="GMN3" data-source-line="3" id="ent0004"><path d="M203.95,6 L203.95,31.1328 A0,0 0 0 0 203.95,31.1328 L244.33,31.1328 L248.33,90.78 L252.33,31.1328 L292.6985,31.1328 A0,0 0 0 0 292.6985,31.1328 L292.6985,16 L282.6985,6 L203.95,6 A0,0 0 0 0 203.95,6" fill="#FEFFDD" style="stroke:#181818;stroke-width:0.5;"/><path d="M282.6985,6 L282.6985,16 L292.6985,16 L282.6985,6" fill="#FEFFDD" style="stroke:#181818;stroke-width:0.5;"/><text fill="#000000" font-family="sans-serif" font-size="13" lengthAdjust="spacing" textLength="67.7485" x="209.95" y="23.0669">A top note</text></g><g class="entity" data-qualified-name="GMN6" data-source-line="6" id="ent0007"><path d="M162.13,197.43 L162.13,237.6956 A0,0 0 0 0 162.13,237.6956 L334.5153,237.6956 A0,0 0 0 0 334.5153,237.6956 L334.5153,207.43 L324.5153,197.43 L252.33,197.43 L248.33,137.76 L244.33,197.43 L162.13,197.43 A0,0 0 0 0 162.13,197.43" fill="#FEFFDD" style="stroke:#181818;stroke-width:0.5;"/><path d="M324.5153,197.43 L324.5153,207.43 L334.5153,207.43 L324.5153,197.43" fill="#FEFFDD" style="stroke:#181818;stroke-width:0.5;"/><text fill="#000000" font-family="sans-serif" font-size="13" lengthAdjust="spacing" textLength="151.3853" x="168.13" y="214.4969">A bottom note can also</text><text fill="#000000" font-family="sans-serif" font-size="13" lengthAdjust="spacing" textLength="122.459" x="168.13" y="229.6297">be on several lines</text></g><g class="entity" data-qualified-name="GMN9" data-source-line="11" id="ent0010"><path d="M6,94.15 L6,134.4156 A0,0 0 0 0 6,134.4156 L152.6519,134.4156 A0,0 0 0 0 152.6519,134.4156 L152.6519,118.29 L187.22,114.29 L152.6519,110.29 L152.6519,104.15 L142.6519,94.15 L6,94.15 A0,0 0 0 0 6,94.15" fill="#FEFFDD" style="stroke:#181818;stroke-width:0.5;"/><path d="M142.6519,94.15 L142.6519,104.15 L152.6519,104.15 L142.6519,94.15" fill="#FEFFDD" style="stroke:#181818;stroke-width:0.5;"/><text fill="#000000" font-family="sans-serif" font-size="13" lengthAdjust="spacing" textLength="125.6519" x="12" y="111.2169">A left note can also</text><text fill="#000000" font-family="sans-serif" font-size="13" lengthAdjust="spacing" textLength="122.459" x="12" y="126.3497">be on several lines</text></g><g class="entity" data-qualified-name="GMN12" data-source-line="15" id="ent0013"><path d="M344.33,101.72 L344.33,110.29 L309.21,114.29 L344.33,118.29 L344.33,126.8528 A0,0 0 0 0 344.33,126.8528 L442.3207,126.8528 A0,0 0 0 0 442.3207,126.8528 L442.3207,111.72 L432.3207,101.72 L344.33,101.72 A0,0 0 0 0 344.33,101.72" fill="#FEFFDD" style="stroke:#181818;stroke-width:0.5;"/><path d="M432.3207,101.72 L432.3207,111.72 L442.3207,111.72 L432.3207,101.72" fill="#FEFFDD" style="stroke:#181818;stroke-width:0.5;"/><text fill="#000000" font-family="sans-serif" font-size="13" lengthAdjust="spacing" textLength="76.9907" x="350.33" y="118.7869">A right note</text></g><?plantuml-src dOux2e0m40NxdEATmqvo3B68kduWxXEpU7urYbhRxRo1OIlFUQ6AMesGu9rJci2uW3ryWJBVvtYhXcQSitKuzCtPjK4HOk8X6W4LIJPPGqISL98JxRwbABszdKm_AkiqZFOyUz4fTW00?></g></svg>