<svg xmlns="http://www.w3.org/2000/svg" xmlns:xlink="http://www.w3.org/1999/xlink" contentStyleType="text/css" data-diagram-type="DESCRIPTION" height="100px" preserveAspectRatio="none" style="width:537px;height:100px;background:#FFFFFF;" version="1.1" viewBox="0 0 537 100" width="537px" zoomAndPan="magnify"><?plantuml 1.2026.3beta5?><defs/><g><!--cluster f--><g class="cluster" data-qualified-name="f" data-source-line="6" id="ent0004"><path d="M239.29,9.5 L239.29,82.8 A2.5,2.5 0 0 0 241.79,85.3 L416.79,85.3 A2.5,2.5 0 0 0 419.29,82.8 L419.29,17 L409.29,7 L241.79,7 A2.5,2.5 0 0 0 239.29,9.5" fill="#98FB98" style="stroke:#008000;stroke-width:1;stroke-dasharray:7,7;"/><path d="M409.29,7 L409.29,14.5 A2.5,2.5 0 0 0 411.79,17 L419.29,17" fill="#98FB98" style="stroke:#008000;stroke-width:1;stroke-dasharray:7,7;"/><text fill="#008000" font-family="sans-serif" font-size="14" font-weight="700" lengthAdjust="spacing" textLength="0" x="329.29" y="9">f</text></g><!--cluster frame--><g class="cluster" data-qualified-name="frame" data-source-line="10" id="ent0007"><rect fill="none" height="78.3" rx="2.5" ry="2.5" style="stroke:#181818;stroke-width:1;" width="80" x="443.29" y="7"/><path d="M469.9567,7 L469.9567,12 L462.9567,19 L443.29,19" fill="none" style="stroke:#181818;stroke-width:1;"/><text fill="#000000" font-family="sans-serif" font-size="14" font-weight="700" lengthAdjust="spacing" textLength="0" x="446.29" y="8">frame</text></g><!--entity c1--><g class="entity" data-qualified-name="f.c1" data-source-line="7" id="ent0005"><rect fill="#F1F1F1" height="46.2969" rx="2.5" ry="2.5" style="stroke:#181818;stroke-width:0.5;" width="56.6045" x="254.99" y="23"/><rect fill="#F1F1F1" height="10" style="stroke:#181818;stroke-width:0.5;" width="15" x="291.5945" y="28"/><rect fill="#F1F1F1" height="2" style="stroke:#181818;stroke-width:0.5;" width="4" x="289.5945" y="30"/><rect fill="#F1F1F1" height="2" style="stroke:#181818;stroke-width:0.5;" width="4" x="289.5945" y="34"/><text fill="#000000" font-family="sans-serif" font-size="14" lengthAdjust="spacing" textLength="16.6045" x="269.99" y="55.9951">c1</text></g><!--entity c2--><g class="entity" data-qualified-name="f.c2" data-source-line="8" id="ent0006"><rect fill="#F1F1F1" height="46.2969" rx="2.5" ry="2.5" style="stroke:#181818;stroke-width:0.5;" width="56.6045" x="346.99" y="23"/><rect fill="#F1F1F1" height="10" style="stroke:#181818;stroke-width:0.5;" width="15" x="383.5945" y="28"/><rect fill="#F1F1F1" height="2" style="stroke:#181818;stroke-width:0.5;" width="4" x="381.5945" y="30"/><rect fill="#F1F1F1" height="2" style="stroke:#181818;stroke-width:0.5;" width="4" x="381.5945" y="34"/><text fill="#000000" font-family="sans-serif" font-size="14" lengthAdjust="spacing" textLength="16.6045" x="361.99" y="55.9951">c2</text></g><!--entity n--><g class="entity" data-qualified-name="frame.n" data-source-line="11" id="ent0008"><polygon fill="#F0F8FF" points="458.85,33,468.85,23,507.723,23,507.723,59.2969,497.723,69.2969,458.85,69.2969,458.85,33" style="stroke:#0000FF;stroke-width:1;stroke-dasharray:1,3;"/><line style="stroke:#0000FF;stroke-width:1;stroke-dasharray:1,3;" x1="497.723" x2="507.723" y1="33" y2="23"/><line style="stroke:#0000FF;stroke-width:1;stroke-dasharray:1,3;" x1="458.85" x2="497.723" y1="33" y2="33"/><line style="stroke:#0000FF;stroke-width:1;stroke-dasharray:1,3;" x1="497.723" x2="497.723" y1="33" y2="69.2969"/><text fill="#0000FF" font-family="sans-serif" font-size="14" lengthAdjust="spacing" textLength="8.873" x="473.85" y="55.9951">n</text></g><!--entity a--><g class="entity" data-qualified-name="a" data-source-line="1" id="ent0002"><rect fill="#F1F1F1" height="36.2969" rx="2.5" ry="2.5" style="stroke:#181818;stroke-width:0.5;" width="28.5791" x="7" y="28"/><text fill="#000000" font-family="sans-serif" font-size="14" lengthAdjust="spacing" textLength="8.5791" x="17" y="50.9951">a</text></g><!--entity c--><g class="entity" data-qualified-name="c" data-source-line="2" id="ent0003"><path d="M80.1359,24.0255 C83.6787,18.9709 86.8785,18.9058 90.3933,24.0536 C93.5343,18.4985 97.4216,19.6597 100.7466,23.8583 C103.4022,17.7022 108.57,16.7265 112.5916,22.5021 C116.1735,17.7382 120.0352,18.1737 123.532,22.6034 C126.7458,16.7896 130.9346,17.1095 134.8298,21.8757 C139.4048,15.9156 144.1866,16.1246 147.4288,23.1671 C149.7007,18.3444 153.4891,17.1371 157.1635,21.7147 C161.4615,16.0296 165.6712,17.1847 168.4866,23.155 C170.9019,18.2365 176.0064,17.28 179.3324,22.1455 C183.6354,17.8349 187.6918,17.6661 190.7072,23.5782 C194.7342,17.5755 200.2003,17.54 203.3366,24.4495 C206.0736,19.362 210.0732,19.596 213.1824,24.0661 C219.5842,26.8947 220.0557,30.7064 215.5498,35.7459 C222.5104,36.1544 224.3296,41.5286 219.936,46.5476 C224.7398,52.5229 222.494,56.8657 215.9024,59.2114 C221.0259,63.7329 219.9301,68.3937 214.0192,71.1788 C210.3861,75.5793 205.8265,76.1973 203.2224,70.1186 C199.9852,75.4615 196.0949,75.6118 191.8181,71.3534 C187.9135,76.7728 183.4106,77.7612 179.3147,71.5592 C176.7746,76.1522 172.4636,77.5253 169.23,72.2693 C164.6367,78.6907 160.5124,77.4673 156.9338,71.2798 C153.9692,75.8872 150.903,76.8768 146.9089,72.4182 C141.9857,78.3964 138.5289,76.9979 135.0926,70.9565 C131.8272,76.7911 127.1785,75.9139 123.7289,71.1541 C121.1142,76.23 116.963,76.8776 113.8028,71.6811 C110.1796,77.1996 105.5112,76.7468 102.6685,70.9155 C100.0178,76.6731 94.512,77.0099 91.2623,71.5231 C86.0295,77.8769 81.8006,76.3675 78.3098,69.7797 C72.768,68.5066 71.0591,64.2514 75.2685,59.9587 C68.1211,58.2252 66.0717,53.756 71.1725,47.8717 C66.7285,42.6325 67.9754,36.4428 75.1566,34.7271 C71.1708,28.546 73.7546,25.3828 80.1359,24.0255" fill="#FFC0CB" style="stroke:#FF0000;stroke-width:2;"/><text fill="#FF0000" font-family="sans-serif" font-size="14" lengthAdjust="spacing" textLength="7.6973" x="85.19" y="42.8451">c</text><text fill="#FF0000" font-family="sans-serif" font-size="14" lengthAdjust="spacing" textLength="120.2031" x="85.19" y="59.142">cloud description</text></g><?plantuml-src HOnB2eD040NtVOe6zqAoZ4SH5-FqqmpfzCWuGa2ykzyacqTHFChriCoElCP9s7Cn17jL6WoF13cWRADAbV79k-AQ_FKMZ3w58OTer50N5CpTLd2AFW5sPlvOYXkVk5A7vfbgVskskJUqK9VS6tpkJ1Pb2neNJeD7gnFEu8zAYJb_UxkbPGK0?></g></svg>