<svg xmlns="http://www.w3.org/2000/svg" xmlns:xlink="http://www.w3.org/1999/xlink" contentStyleType="text/css" data-diagram-type="DESCRIPTION" height="181px" preserveAspectRatio="none" style="width:142px;height:181px;background:#FFFFFF;" version="1.1" viewBox="0 0 142 181" width="142px" zoomAndPan="magnify"><?plantuml 1.2026.3beta5?><defs/><g><!--entity a--><g class="entity" data-qualified-name="a" data-source-line="1" id="ent0002"><rect fill="#F1F1F1" height="36.2969" rx="2.5" ry="2.5" style="stroke:#181818;stroke-width:0.5;" width="28.5791" x="7" y="9.0678"/><text fill="#000000" font-family="sans-serif" font-size="14" lengthAdjust="spacing" textLength="8.5791" x="17" y="32.0629">a</text></g><!--entity c--><g class="entity" data-qualified-name="c" data-source-line="2" id="ent0003"><path d="M78.972,13.776 C81.0227,7.0636 86.3188,6 91.1715,10.8092 C95.8253,6.7161 98.5506,8.3346 100.4989,13.5269 C110.187,14.134 111.8522,20.8893 107.0721,28.0463 C113.2742,35.6343 111.3039,41.5075 101.834,43.9259 C99.0738,49.6496 94.676,49.7622 90.4475,45.6207 C86.1174,50.6393 81.9452,50.1527 78.946,44.2226 C70.5106,41.8795 66.35,37.4329 72.1149,28.8 C67.727,20.5634 68.906,15.4158 78.972,13.776" fill="#FFC0CB" style="stroke:#FF0000;stroke-width:2;"/><text fill="#FF0000" font-family="sans-serif" font-size="14" lengthAdjust="spacing" textLength="7.6973" x="85.44" y="32.0629">c</text></g><!--entity f--><g class="entity" data-qualified-name="f" data-source-line="3" id="ent0004"><path d="M8.83,117.8578 L8.83,149.1546 A2.5,2.5 0 0 0 11.33,151.6546 L31.2587,151.6546 A2.5,2.5 0 0 0 33.7587,149.1546 L33.7587,125.3578 L23.7587,115.3578 L11.33,115.3578 A2.5,2.5 0 0 0 8.83,117.8578" fill="#98FB98" style="stroke:#008000;stroke-width:1;stroke-dasharray:7,7;"/><path d="M23.7587,115.3578 L23.7587,122.8578 A2.5,2.5 0 0 0 26.2587,125.3578 L33.7587,125.3578" fill="#98FB98" style="stroke:#008000;stroke-width:1;stroke-dasharray:7,7;"/><text fill="#008000" font-family="sans-serif" font-size="14" lengthAdjust="spacing" textLength="4.9287" x="18.83" y="138.3529">f</text></g><!--entity n--><g class="entity" data-qualified-name="n" data-source-line="4" id="ent0005"><polygon fill="#F0F8FF" points="68.85,120.3578,78.85,110.3578,117.723,110.3578,117.723,146.6546,107.723,156.6546,68.85,156.6546,68.85,120.3578" style="stroke:#0000FF;stroke-width:1;stroke-dasharray:1,3;"/><line style="stroke:#0000FF;stroke-width:1;stroke-dasharray:1,3;" x1="107.723" x2="117.723" y1="120.3578" y2="110.3578"/><line style="stroke:#0000FF;stroke-width:1;stroke-dasharray:1,3;" x1="68.85" x2="107.723" y1="120.3578" y2="120.3578"/><line style="stroke:#0000FF;stroke-width:1;stroke-dasharray:1,3;" x1="107.723" x2="107.723" y1="120.3578" y2="156.6546"/><text fill="#0000FF" font-family="sans-serif" font-size="14" lengthAdjust="spacing" textLength="8.873" x="83.85" y="143.3529">n</text></g><?plantuml-src HOjB2e0m30NtFKN0VG-WfudDKuiX5OtWyVthRXXck8SvSKXQLg54rPHjR3GRwXboGMoBIkFO_5IXomgYxYXPqS-0tVcFKNWPy2oN3bRac8mgrfpGwefx-YXASN-Vq-u0?></g></svg>