<svg xmlns="http://www.w3.org/2000/svg" xmlns:xlink="http://www.w3.org/1999/xlink" contentStyleType="text/css" data-diagram-type="DESCRIPTION" height="204px" preserveAspectRatio="none" style="width:386px;height:204px;background:#FFFFFF;" version="1.1" viewBox="0 0 386 204" width="386px" zoomAndPan="magnify"><?plantuml 1.2026.3beta5?><defs/><g><!--entity foo--><g class="entity" data-qualified-name="foo" data-source-line="1" id="ent0002"><polygon fill="#F1F1F1" points="123.1992,16,133.1992,6,185.2588,6,185.2588,42.2969,175.2588,52.2969,123.1992,52.2969,123.1992,16" style="stroke:#181818;stroke-width:0.5;"/><line style="stroke:#181818;stroke-width:0.5;" x1="175.2588" x2="185.2588" y1="16" y2="6"/><line style="stroke:#181818;stroke-width:0.5;" x1="123.1992" x2="175.2588" y1="16" y2="16"/><line style="stroke:#181818;stroke-width:0.5;" x1="175.2588" x2="175.2588" y1="16" y2="52.2969"/><text fill="#000000" font-family="sans-serif" font-size="14" lengthAdjust="spacing" textLength="22.0596" x="138.1992" y="38.9951">foo</text></g><!--entity bar--><g class="entity" data-qualified-name="bar" data-source-line="2" id="ent0003"><ellipse cx="18.2292" cy="158.3" fill="#F1F1F1" rx="8" ry="8" style="stroke:#181818;stroke-width:0.5;"/><text fill="#000000" font-family="sans-serif" font-size="14" lengthAdjust="spacing" textLength="23.2217" x="6.6183" y="188.2951">bar</text></g><!--entity bar1--><g class="entity" data-qualified-name="bar1" data-source-line="3" id="ent0005"><ellipse cx="107.2292" cy="158.3" fill="#F1F1F1" rx="8" ry="8" style="stroke:#181818;stroke-width:0.5;"/><text fill="#000000" font-family="sans-serif" font-size="14" lengthAdjust="spacing" textLength="32.1289" x="91.1647" y="188.2951">bar1</text></g><!--entity bar2--><g class="entity" data-qualified-name="bar2" data-source-line="4" id="ent0007"><ellipse cx="202.2292" cy="158.3" fill="#F1F1F1" rx="8" ry="8" style="stroke:#181818;stroke-width:0.5;"/><text fill="#000000" font-family="sans-serif" font-size="14" lengthAdjust="spacing" textLength="32.1289" x="186.1647" y="188.2951">bar2</text></g><!--entity bar3--><g class="entity" data-qualified-name="bar3" data-source-line="5" id="ent0009"><ellipse cx="333.2292" cy="158.3" fill="#F1F1F1" rx="8" ry="8" style="stroke:#181818;stroke-width:0.5;"/><text fill="#000000" font-family="sans-serif" font-size="14" lengthAdjust="spacing" textLength="32.1289" x="317.1647" y="188.2951">bar3</text></g><!--link foo to bar--><g class="link" data-entity-1="ent0002" data-entity-2="ent0003" data-link-type="dependency" data-source-line="2" id="lnk4"><path d="M122.9192,37.81 C98.3892,45.31 65.0392,59.09 44.2292,82.3 C26.3792,102.21 21.3451,129.0505 19.6251,143.7805" fill="none" id="foo-to-bar" style="stroke:#181818;stroke-width:1;"/><polygon fill="#181818" points="18.9292,149.74,23.946,141.2647,19.5091,144.7737,16,140.3368,18.9292,149.74" style="stroke:#181818;stroke-width:1;"/><text fill="#000000" font-family="sans-serif" font-size="13" lengthAdjust="spacing" textLength="45.7793" x="45.2292" y="95.3669">normal</text></g><!--link foo to bar1--><g class="link" data-entity-1="ent0002" data-entity-2="ent0005" data-link-type="dependency" data-source-line="3" id="lnk6"><path d="M125.3092,52.71 C116.8692,61 108.7192,71.13 104.2292,82.3 C94.9992,105.27 99.5632,129.6653 103.3332,143.7053" fill="none" id="foo-to-bar1" style="stroke:#FF0000;stroke-width:2;"/><polygon fill="#FF0000" points="104.8892,149.5,106.4183,139.7706,103.5925,144.6711,98.692,141.8452,104.8892,149.5" style="stroke:#FF0000;stroke-width:2;"/><text fill="#FF0000" font-family="sans-serif" font-size="13" lengthAdjust="spacing" textLength="53.7964" x="105.2292" y="95.3669">red bold</text></g><!--link foo to bar2--><g class="link" data-entity-1="ent0002" data-entity-2="ent0007" data-link-type="dependency" data-source-line="4" id="lnk8"><path d="M162.6992,52.59 C173.6292,81.54 189.9608,124.8064 197.1308,143.8064" fill="none" id="foo-to-bar2" style="stroke:#008000;stroke-width:1;stroke-dasharray:7,7;"/><polygon fill="#008000" points="199.2492,149.42,199.814,139.5874,197.4839,144.742,192.3292,142.4119,199.2492,149.42" style="stroke:#008000;stroke-width:1;"/><text fill="#008000" font-family="sans-serif" font-size="13" lengthAdjust="spacing" textLength="89.4448" x="180.2292" y="95.3669">green dashed</text></g><!--link foo to bar3--><g class="link" data-entity-1="ent0002" data-entity-2="ent0009" data-link-type="dependency" data-source-line="5" id="lnk10"><path d="M185.7292,38.25 C212.3792,46.24 250.5492,60.45 278.2292,82.3 C302.8192,101.7 318.9688,129.4427 326.6788,144.3227" fill="none" id="foo-to-bar3" style="stroke:#0000FF;stroke-width:1;stroke-dasharray:1,3;"/><polygon fill="#0000FF" points="329.4392,149.65,328.8502,139.8188,327.1389,145.2106,321.7471,143.4992,329.4392,149.65" style="stroke:#0000FF;stroke-width:1;"/><text fill="#0000FF" font-family="sans-serif" font-size="13" lengthAdjust="spacing" textLength="74.8833" x="295.2292" y="95.3669">blue dotted</text></g><?plantuml-src JOtD2e0W48JlFSM0PuFgLj2xA6u_O2wOGO-VcmKUbXc-uMC3EyB2tEI3rZEiYHWHE1x6rx23ydkWCPARfBIMlPiItKaGiYCXiBPwg3KIXQ8uSsxqII_ELicoe5O7AEil-anEwJU5GXw-fImF?></g></svg>