<svg xmlns="http://www.w3.org/2000/svg" xmlns:xlink="http://www.w3.org/1999/xlink" contentStyleType="text/css" data-diagram-type="CLASS" height="320px" preserveAspectRatio="none" style="width:666px;height:320px;background:#FFFFFF;" version="1.1" viewBox="0 0 666 320" width="666px" zoomAndPan="magnify"><?plantuml 1.2026.3beta5?><defs/><g><!--entity folder--><g class="entity" data-qualified-name="folder" data-source-line="1" id="ent0002"><path d="M12.72,6 L53.72,6 A3.75,3.75 0 0 1 56.22,8.5 L63.22,27 L194.5091,27 A2.5,2.5 0 0 1 197.0091,29.5 L197.0091,130.6875 A2.5,2.5 0 0 1 194.5091,133.1875 L12.72,133.1875 A2.5,2.5 0 0 1 10.22,130.6875 L10.22,8.5 A2.5,2.5 0 0 1 12.72,6" fill="#F1F1F1" style="stroke:#181818;stroke-width:0.5;"/><line style="stroke:#181818;stroke-width:0.5;" x1="10.22" x2="63.22" y1="27" y2="27"/><text fill="#000000" font-family="sans-serif" font-size="14" lengthAdjust="spacing" textLength="57.2715" x="20.22" y="46.9951">This is a</text><text fill="#000000" font-family="sans-serif" font-size="14" font-weight="700" lengthAdjust="spacing" textLength="46.9287" x="81.9417" y="46.9951">folder</text><line style="stroke:#181818;stroke-width:1;" x1="11.22" x2="196.0091" y1="50.2969" y2="50.2969"/><text fill="#000000" font-family="sans-serif" font-size="14" lengthAdjust="spacing" textLength="156.7891" x="20.22" y="67.292">You can use separator</text><line style="stroke:#181818;stroke-width:1;" x1="11.22" x2="196.0091" y1="74.5938" y2="74.5938"/><line style="stroke:#181818;stroke-width:1;" x1="11.22" x2="196.0091" y1="76.5938" y2="76.5938"/><text fill="#000000" font-family="sans-serif" font-size="14" lengthAdjust="spacing" textLength="112.1299" x="20.22" y="91.5889">of different kind</text><line style="stroke:#181818;stroke-width:1;stroke-dasharray:1,2;" x1="11.22" x2="196.0091" y1="98.8906" y2="98.8906"/><text fill="#000000" font-family="sans-serif" font-size="14" lengthAdjust="spacing" textLength="64.3604" x="20.22" y="115.8857">and style</text></g><!--entity node--><g class="entity" data-qualified-name="node" data-source-line="11" id="ent0003"><polygon fill="#F1F1F1" points="232.22,20,242.22,10,429.0091,10,429.0091,119.1875,419.0091,129.1875,232.22,129.1875,232.22,20" style="stroke:#181818;stroke-width:0.5;"/><line style="stroke:#181818;stroke-width:0.5;" x1="419.0091" x2="429.0091" y1="20" y2="10"/><line style="stroke:#181818;stroke-width:0.5;" x1="232.22" x2="419.0091" y1="20" y2="20"/><line style="stroke:#181818;stroke-width:0.5;" x1="419.0091" x2="419.0091" y1="20" y2="129.1875"/><text fill="#000000" font-family="sans-serif" font-size="14" lengthAdjust="spacing" textLength="57.2715" x="247.22" y="42.9951">This is a</text><text fill="#000000" font-family="sans-serif" font-size="14" font-weight="700" lengthAdjust="spacing" textLength="39.1016" x="308.9417" y="42.9951">node</text><line style="stroke:#181818;stroke-width:1;" x1="232.22" x2="419.0091" y1="46.2969" y2="46.2969"/><line style="stroke:#181818;stroke-width:1;" x1="419.0091" x2="429.0091" y1="46.2969" y2="36.2969"/><text fill="#000000" font-family="sans-serif" font-size="14" lengthAdjust="spacing" textLength="156.7891" x="247.22" y="63.292">You can use separator</text><line style="stroke:#181818;stroke-width:1;" x1="232.22" x2="419.0091" y1="70.5938" y2="70.5938"/><line style="stroke:#181818;stroke-width:1;" x1="419.0091" x2="429.0091" y1="70.5938" y2="60.5938"/><line style="stroke:#181818;stroke-width:1;" x1="232.22" x2="419.0091" y1="72.5938" y2="72.5938"/><line style="stroke:#181818;stroke-width:1;" x1="419.0091" x2="429.0091" y1="72.5938" y2="62.5938"/><text fill="#000000" font-family="sans-serif" font-size="14" lengthAdjust="spacing" textLength="112.1299" x="247.22" y="87.5889">of different kind</text><line style="stroke:#181818;stroke-width:1;stroke-dasharray:1,2;" x1="232.22" x2="419.0091" y1="94.8906" y2="94.8906"/><line style="stroke:#181818;stroke-width:1;stroke-dasharray:1,2;" x1="419.0091" x2="429.0091" y1="94.8906" y2="84.8906"/><text fill="#000000" font-family="sans-serif" font-size="14" lengthAdjust="spacing" textLength="64.3604" x="247.22" y="111.8857">and style</text></g><!--entity database--><g class="entity" data-qualified-name="database" data-source-line="21" id="ent0004"><path d="M464.22,20.5 C464.22,10.5 552.6145,10.5 552.6145,10.5 C552.6145,10.5 641.0091,10.5 641.0091,20.5 L641.0091,118.6875 C641.0091,128.6875 552.6145,128.6875 552.6145,128.6875 C552.6145,128.6875 464.22,128.6875 464.22,118.6875 L464.22,20.5" fill="#F1F1F1" style="stroke:#181818;stroke-width:0.5;"/><path d="M464.22,20.5 C464.22,30.5 552.6145,30.5 552.6145,30.5 C552.6145,30.5 641.0091,30.5 641.0091,20.5" fill="none" style="stroke:#181818;stroke-width:0.5;"/><text fill="#000000" font-family="sans-serif" font-size="14" lengthAdjust="spacing" textLength="57.2715" x="474.22" y="47.4951">This is a</text><text fill="#000000" font-family="sans-serif" font-size="14" font-weight="700" lengthAdjust="spacing" textLength="72.9053" x="535.9417" y="47.4951">database</text><path d="M464.22,45.7969 C464.22,55.7969 552.6145,55.7969 552.6145,55.7969 C552.6145,55.7969 641.0091,55.7969 641.0091,45.7969" fill="none" style="stroke:#181818;stroke-width:1;"/><text fill="#000000" font-family="sans-serif" font-size="14" lengthAdjust="spacing" textLength="156.7891" x="474.22" y="67.792">You can use separator</text><path d="M464.22,70.0938 C464.22,80.0938 552.6145,80.0938 552.6145,80.0938 C552.6145,80.0938 641.0091,80.0938 641.0091,70.0938" fill="none" style="stroke:#181818;stroke-width:1;"/><path d="M464.22,72.0938 C464.22,82.0938 552.6145,82.0938 552.6145,82.0938 C552.6145,82.0938 641.0091,82.0938 641.0091,72.0938" fill="none" style="stroke:#181818;stroke-width:1;"/><text fill="#000000" font-family="sans-serif" font-size="14" lengthAdjust="spacing" textLength="112.1299" x="474.22" y="92.0889">of different kind</text><path d="M464.22,94.3906 C464.22,104.3906 552.6145,104.3906 552.6145,104.3906 C552.6145,104.3906 641.0091,104.3906 641.0091,94.3906" fill="none" style="stroke:#181818;stroke-width:1;stroke-dasharray:1,2;"/><text fill="#000000" font-family="sans-serif" font-size="14" lengthAdjust="spacing" textLength="64.3604" x="474.22" y="116.3857">and style</text></g><!--entity usecase--><g class="entity" data-qualified-name="usecase" data-source-line="31" id="ent0005"><ellipse cx="103.6103" cy="249.9979" fill="#F1F1F1" rx="97.6103" ry="56.8179" style="stroke:#181818;stroke-width:0.5;"/><text fill="#000000" font-family="sans-serif" font-size="14" lengthAdjust="spacing" textLength="57.2715" x="41.0649" y="222.4146">This is a</text><text fill="#000000" font-family="sans-serif" font-size="14" font-weight="700" lengthAdjust="spacing" textLength="63.3691" x="102.7866" y="222.4146">usecase</text><line style="stroke:#181818;stroke-width:1;" x1="16.3625" x2="190.8581" y1="225.7163" y2="225.7163"/><text fill="#000000" font-family="sans-serif" font-size="14" lengthAdjust="spacing" textLength="156.7891" x="25.2158" y="242.7115">You can use separator</text><line style="stroke:#181818;stroke-width:1;" x1="7" x2="200.2206" y1="250.0132" y2="250.0132"/><line style="stroke:#181818;stroke-width:1;" x1="7.0614" x2="200.1591" y1="252.0132" y2="252.0132"/><text fill="#000000" font-family="sans-serif" font-size="14" lengthAdjust="spacing" textLength="112.1299" x="47.5453" y="267.0083">of different kind</text><line style="stroke:#181818;stroke-width:1;stroke-dasharray:1,2;" x1="16.3874" x2="190.8331" y1="274.3101" y2="274.3101"/><text fill="#000000" font-family="sans-serif" font-size="14" lengthAdjust="spacing" textLength="64.3604" x="71.4301" y="291.3052">and style</text></g><!--entity card--><g class="entity" data-qualified-name="card" data-source-line="41" id="ent0006"><rect fill="#F1F1F1" height="111.4844" rx="2.5" ry="2.5" style="stroke:#181818;stroke-width:0.5;" width="176.7891" x="236.22" y="194.26"/><text fill="#000000" font-family="sans-serif" font-size="14" lengthAdjust="spacing" textLength="57.2715" x="246.22" y="210.2551">This is a</text><text fill="#000000" font-family="sans-serif" font-size="14" font-weight="700" lengthAdjust="spacing" textLength="34.6719" x="307.9417" y="210.2551">card</text><line style="stroke:#181818;stroke-width:1;" x1="237.22" x2="412.0091" y1="213.5569" y2="213.5569"/><text fill="#000000" font-family="sans-serif" font-size="14" lengthAdjust="spacing" textLength="156.7891" x="246.22" y="230.552">You can use separator</text><line style="stroke:#181818;stroke-width:1;" x1="237.22" x2="412.0091" y1="237.8538" y2="237.8538"/><line style="stroke:#181818;stroke-width:1;" x1="237.22" x2="412.0091" y1="239.8538" y2="239.8538"/><text fill="#000000" font-family="sans-serif" font-size="14" lengthAdjust="spacing" textLength="112.1299" x="246.22" y="254.8489">of different kind</text><line style="stroke:#181818;stroke-width:1;stroke-dasharray:1,2;" x1="237.22" x2="412.0091" y1="262.1506" y2="262.1506"/><text fill="#000000" font-family="sans-serif" font-size="14" lengthAdjust="spacing" textLength="64.3604" x="246.22" y="279.1457">and style</text><text fill="#0000FF" font-family="sans-serif" font-size="14" font-style="italic" lengthAdjust="spacing" textLength="150.9854" x="246.22" y="295.4426">(add from V1.2020.7)</text></g><?plantuml-src hOt12i8m38RlUOeSzU0sTn6azYb44DaXQreipbRQxU3RsstEGw_k9oJX8-4plcCTqCpZ1kUxZPYAKBHofh1BWQiVK9738MgC-aM1UX_Wb0BU85jZTD2knuTr34KAa6EC_RlJq00upngdbZb6jeg1gQUMqkzloKmBNyMMtjJeM6Rc-k9LL8e2uzGooSZ-DmWhXVAT3yUs6xJS43EQu9zusHTrLLV5OIlAwK2AqafeFW00?></g></svg>