<svg xmlns="http://www.w3.org/2000/svg" xmlns:xlink="http://www.w3.org/1999/xlink" contentStyleType="text/css" data-diagram-type="DESCRIPTION" height="543px" preserveAspectRatio="none" style="width:721px;height:543px;background:#FFFFFF;" version="1.1" viewBox="0 0 721 543" width="721px" zoomAndPan="magnify"><?plantuml 1.2026.3beta5?><defs/><g><!--entity action--><g class="entity" data-qualified-name="action" data-source-line="1" id="ent0002"><polygon fill="#F1F1F1" points="16,25.5,79.0938,25.5,89.0938,43.6484,79.0938,61.7969,16,61.7969" style="stroke:#181818;stroke-width:0.5;"/><text fill="#000000" font-family="sans-serif" font-size="14" lengthAdjust="spacing" textLength="43.0938" x="26" y="48.4951">action</text></g><!--entity actor--><g class="entity" data-qualified-name="actor" data-source-line="2" id="ent0003"><ellipse cx="142.5435" cy="14" fill="#F1F1F1" rx="8" ry="8" style="stroke:#181818;stroke-width:0.5;"/><path d="M142.5435,22 L142.5435,49 M129.5435,30 L155.5435,30 M142.5435,49 L129.5435,64 M142.5435,49 L155.5435,64" fill="none" style="stroke:#181818;stroke-width:0.5;"/><text fill="#000000" font-family="sans-serif" font-size="14" lengthAdjust="spacing" textLength="36.0869" x="124.5" y="78.4951">actor</text></g><!--entity actor/--><g class="entity" data-qualified-name="actor." data-source-line="3" id="ent0004"><ellipse cx="215.5419" cy="14" fill="#F1F1F1" rx="8" ry="8" style="stroke:#181818;stroke-width:0.5;"/><line style="stroke:#181818;stroke-width:0.5;" x1="213.598" x2="223.3021" y1="21.7603" y2="12.0562"/><path d="M215.5419,22 L215.5419,49 M202.5419,30 L228.5419,30 M215.5419,49 L202.5419,64 M215.5419,49 L228.5419,64" fill="none" style="stroke:#181818;stroke-width:0.5;"/><text fill="#000000" font-family="sans-serif" font-size="14" lengthAdjust="spacing" textLength="40.8037" x="195.14" y="78.4951">actor/</text></g><!--entity agent--><g class="entity" data-qualified-name="agent" data-source-line="4" id="ent0005"><rect fill="#F1F1F1" height="36.2969" rx="2.5" ry="2.5" style="stroke:#181818;stroke-width:0.5;" width="60.4414" x="271.32" y="25.5"/><text fill="#000000" font-family="sans-serif" font-size="14" lengthAdjust="spacing" textLength="40.4414" x="281.32" y="48.4951">agent</text></g><!--entity artifact--><g class="entity" data-qualified-name="artifact" data-source-line="5" id="ent0006"><rect fill="#F1F1F1" height="39.2969" rx="2.5" ry="2.5" style="stroke:#181818;stroke-width:0.5;" width="80.4082" x="366.34" y="24"/><polygon fill="#F1F1F1" points="429.7482,29,429.7482,43,441.7482,43,441.7482,35,435.7482,29,429.7482,29" style="stroke:#181818;stroke-width:0.5;"/><line style="stroke:#181818;stroke-width:0.5;" x1="435.7482" x2="435.7482" y1="29" y2="35"/><line style="stroke:#181818;stroke-width:0.5;" x1="441.7482" x2="435.7482" y1="35" y2="35"/><text fill="#000000" font-family="sans-serif" font-size="14" lengthAdjust="spacing" textLength="50.4082" x="376.34" y="49.9951">artifact</text></g><!--entity boundary--><g class="entity" data-qualified-name="boundary" data-source-line="6" id="ent0007"><path d="M495.0425,23.5 L495.0425,47.5 M495.0425,35.5 L512.0425,35.5" fill="none" style="stroke:#181818;stroke-width:0.5;"/><ellipse cx="524.0425" cy="35.5" fill="#F1F1F1" rx="12" ry="12" style="stroke:#181818;stroke-width:0.5;"/><text fill="#000000" font-family="sans-serif" font-size="14" lengthAdjust="spacing" textLength="66.7051" x="482.19" y="64.4951">boundary</text></g><!--entity card--><g class="entity" data-qualified-name="card" data-source-line="7" id="ent0008"><rect fill="#F1F1F1" height="22.2969" rx="2.5" ry="2.5" style="stroke:#181818;stroke-width:0.5;" width="50.9189" x="27.08" y="159.65"/><text fill="#000000" font-family="sans-serif" font-size="14" lengthAdjust="spacing" textLength="30.9189" x="37.08" y="175.6451">card</text></g><!--entity circle--><g class="entity" data-qualified-name="circle" data-source-line="8" id="ent0009"><ellipse cx="139.54" cy="170.8" fill="#F1F1F1" rx="8" ry="8" style="stroke:#181818;stroke-width:0.5;"/><text fill="#000000" font-family="sans-serif" font-size="14" lengthAdjust="spacing" textLength="37.543" x="120.7685" y="200.7951">circle</text></g><!--entity cloud--><g class="entity" data-qualified-name="cloud" data-source-line="9" id="ent0010"><path d="M209.6039,156.0165 C213.2623,148.5083 218.9996,148.6373 223.5654,155.1104 C226.8703,148.3464 232.4984,147.3466 236.6675,154.2839 C240.6133,148.0078 245.676,149.6886 248.819,155.1173 C252.7159,148.539 259.3884,150.0525 262.3701,156.0996 C271.287,159.3024 273.6686,165.9916 266.1668,172.904 C270.7508,179.5087 270.6356,183.9645 261.8271,186.197 C260.4287,192.3914 255.1122,194.6915 250.5457,189.2753 C246.4634,196.8261 241.6599,197.2881 235.716,191.3169 C231.0648,196.2848 225.8116,194.5369 223.3405,188.7972 C218.849,194.5198 213.6948,194.4831 210.5374,187.4574 C201.3114,186.6105 198.3111,180.3786 203.5425,172.6857 C197.4682,164.1534 199.4678,158.6542 209.6039,156.0165" fill="#F1F1F1" style="stroke:#181818;stroke-width:0.5;"/><text fill="#000000" font-family="sans-serif" font-size="14" lengthAdjust="spacing" textLength="37.9121" x="216.59" y="175.6451">cloud</text></g><!--entity collections--><g class="entity" data-qualified-name="collections" data-source-line="10" id="ent0011"><rect fill="#F1F1F1" height="32.2969" rx="2.5" ry="2.5" style="stroke:#181818;stroke-width:0.5;" width="90.4639" x="308.31" y="156.65"/><rect fill="#F1F1F1" height="32.2969" rx="2.5" ry="2.5" style="stroke:#181818;stroke-width:0.5;" width="90.4639" x="304.31" y="152.65"/><text fill="#000000" font-family="sans-serif" font-size="14" lengthAdjust="spacing" textLength="74.4639" x="312.31" y="173.6451">collections</text></g><!--entity component--><g class="entity" data-qualified-name="component" data-source-line="11" id="ent0012"><rect fill="#F1F1F1" height="46.2969" rx="2.5" ry="2.5" style="stroke:#181818;stroke-width:0.5;" width="119.2012" x="433.94" y="147.65"/><rect fill="#F1F1F1" height="10" style="stroke:#181818;stroke-width:0.5;" width="15" x="533.1412" y="152.65"/><rect fill="#F1F1F1" height="2" style="stroke:#181818;stroke-width:0.5;" width="4" x="531.1412" y="154.65"/><rect fill="#F1F1F1" height="2" style="stroke:#181818;stroke-width:0.5;" width="4" x="531.1412" y="158.65"/><text fill="#000000" font-family="sans-serif" font-size="14" lengthAdjust="spacing" textLength="79.2012" x="448.94" y="180.6451">component</text></g><!--entity control--><g class="entity" data-qualified-name="control" data-source-line="12" id="ent0013"><ellipse cx="612.548" cy="162.65" fill="#F1F1F1" rx="12" ry="12" style="stroke:#181818;stroke-width:0.5;"/><polygon fill="#181818" points="608.548,150.65,614.548,145.65,612.548,150.65,614.548,155.65,608.548,150.65" style="stroke:#181818;stroke-width:1;"/><text fill="#000000" font-family="sans-serif" font-size="14" lengthAdjust="spacing" textLength="48.8359" x="588.13" y="191.6451">control</text></g><!--entity database--><g class="entity" data-qualified-name="database" data-source-line="13" id="ent0014"><path d="M10.09,274.3 C10.09,264.3 52.5436,264.3 52.5436,264.3 C52.5436,264.3 94.9972,264.3 94.9972,274.3 L94.9972,299.5969 C94.9972,309.5969 52.5436,309.5969 52.5436,309.5969 C52.5436,309.5969 10.09,309.5969 10.09,299.5969 L10.09,274.3" fill="#F1F1F1" style="stroke:#181818;stroke-width:0.5;"/><path d="M10.09,274.3 C10.09,284.3 52.5436,284.3 52.5436,284.3 C52.5436,284.3 94.9972,284.3 94.9972,274.3" fill="none" style="stroke:#181818;stroke-width:0.5;"/><text fill="#000000" font-family="sans-serif" font-size="14" lengthAdjust="spacing" textLength="64.9072" x="20.09" y="301.2951">database</text></g><!--entity entity--><g class="entity" data-qualified-name="entity" data-source-line="14" id="ent0015"><ellipse cx="150.5398" cy="278.8" fill="#F1F1F1" rx="12" ry="12" style="stroke:#181818;stroke-width:0.5;"/><line style="stroke:#181818;stroke-width:0.5;" x1="138.5398" x2="162.5398" y1="292.8" y2="292.8"/><text fill="#000000" font-family="sans-serif" font-size="14" lengthAdjust="spacing" textLength="40.6396" x="130.22" y="307.7951">entity</text></g><!--entity file--><g class="entity" data-qualified-name="file" data-source-line="15" id="ent0016"><path d="M205.88,271.3 L205.88,302.5969 A2.5,2.5 0 0 0 208.38,305.0969 L244.7013,305.0969 A2.5,2.5 0 0 0 247.2013,302.5969 L247.2013,278.8 L237.2013,268.8 L208.38,268.8 A2.5,2.5 0 0 0 205.88,271.3" fill="#F1F1F1" style="stroke:#181818;stroke-width:0.5;"/><path d="M237.2013,268.8 L237.2013,276.3 A2.5,2.5 0 0 0 239.7013,278.8 L247.2013,278.8" fill="#F1F1F1" style="stroke:#181818;stroke-width:0.5;"/><text fill="#000000" font-family="sans-serif" font-size="14" lengthAdjust="spacing" textLength="21.3213" x="215.88" y="291.7951">file</text></g><!--entity folder--><g class="entity" data-qualified-name="folder" data-source-line="16" id="ent0017"><path d="M284.72,259.8 L325.72,259.8 A3.75,3.75 0 0 1 328.22,262.3 L335.22,280.8 L350.3596,280.8 A2.5,2.5 0 0 1 352.8596,283.3 L352.8596,311.5969 A2.5,2.5 0 0 1 350.3596,314.0969 L284.72,314.0969 A2.5,2.5 0 0 1 282.22,311.5969 L282.22,262.3 A2.5,2.5 0 0 1 284.72,259.8" fill="#F1F1F1" style="stroke:#181818;stroke-width:0.5;"/><line style="stroke:#181818;stroke-width:0.5;" x1="282.22" x2="335.22" y1="280.8" y2="280.8"/><text fill="#000000" font-family="sans-serif" font-size="14" lengthAdjust="spacing" textLength="40.6396" x="292.22" y="300.7951">folder</text></g><!--entity frame--><g class="entity" data-qualified-name="frame" data-source-line="17" id="ent0018"><rect fill="#F1F1F1" height="46.2969" rx="2.5" ry="2.5" style="stroke:#181818;stroke-width:0.5;" width="81.5146" x="387.79" y="263.8"/><path d="M414.9615,263.8 L414.9615,268.8 L407.9615,275.8 L387.79,275.8" fill="none" style="stroke:#181818;stroke-width:0.5;"/><text fill="#000000" font-family="sans-serif" font-size="14" lengthAdjust="spacing" textLength="41.5146" x="402.79" y="296.7951">frame</text></g><!--entity hexagon--><g class="entity" data-qualified-name="hexagon" data-source-line="18" id="ent0019"><polygon fill="#F1F1F1" points="625.22,286.94,594.88,273.8,534.21,273.8,503.87,286.94,534.21,300.09,594.88,300.09,625.22,286.94" style="stroke:#181818;stroke-width:0.5;"/><text fill="#000000" font-family="sans-serif" font-size="14" lengthAdjust="spacing" textLength="60.6758" x="534.2079" y="291.7951">hexagon</text></g><!--entity interface--><g class="entity" data-qualified-name="interface" data-source-line="19" id="ent0020"><ellipse cx="52.54" cy="403.09" fill="#F1F1F1" rx="8" ry="8" style="stroke:#181818;stroke-width:0.5;"/><text fill="#000000" font-family="sans-serif" font-size="14" lengthAdjust="spacing" textLength="62.4395" x="21.3203" y="433.0851">interface</text></g><!--entity label--><g class="entity" data-qualified-name="label" data-source-line="20" id="ent0021"><text fill="#000000" font-family="sans-serif" font-size="14" lengthAdjust="spacing" textLength="33.8584" x="136.61" y="407.9351">label</text></g><!--entity node--><g class="entity" data-qualified-name="node" data-source-line="21" id="ent0022"><polygon fill="#F1F1F1" points="215.07,389.94,225.07,379.94,290.0085,379.94,290.0085,416.2369,280.0085,426.2369,215.07,426.2369,215.07,389.94" style="stroke:#181818;stroke-width:0.5;"/><line style="stroke:#181818;stroke-width:0.5;" x1="280.0085" x2="290.0085" y1="389.94" y2="379.94"/><line style="stroke:#181818;stroke-width:0.5;" x1="215.07" x2="280.0085" y1="389.94" y2="389.94"/><line style="stroke:#181818;stroke-width:0.5;" x1="280.0085" x2="280.0085" y1="389.94" y2="426.2369"/><text fill="#000000" font-family="sans-serif" font-size="14" lengthAdjust="spacing" textLength="34.9385" x="230.07" y="412.9351">node</text></g><!--entity package--><g class="entity" data-qualified-name="package" data-source-line="22" id="ent0023"><path d="M327.02,383.44 L406.062,383.44 A3.75,3.75 0 0 1 408.562,385.94 L415.562,405.7369 L430.062,405.7369 A2.5,2.5 0 0 1 432.562,408.2369 L432.562,420.2369 A2.5,2.5 0 0 1 430.062,422.7369 L327.02,422.7369 A2.5,2.5 0 0 1 324.52,420.2369 L324.52,385.94 A2.5,2.5 0 0 1 327.02,383.44" fill="#F1F1F1" style="stroke:#181818;stroke-width:0.5;"/><line style="stroke:#181818;stroke-width:0.5;" x1="324.52" x2="415.562" y1="405.7369" y2="405.7369"/><text fill="#000000" font-family="sans-serif" font-size="14" font-weight="700" lengthAdjust="spacing" textLength="66.042" x="334.52" y="399.4351">package</text></g><!--entity person--><g class="entity" data-qualified-name="person" data-source-line="23" id="ent0024"><ellipse cx="501.5441" cy="384.9421" fill="#F1F1F1" rx="10.4321" ry="10.4321" style="stroke:#181818;stroke-width:0.5;"/><rect fill="#F1F1F1" height="36.2969" rx="10.4321" ry="10.4321" style="stroke:#181818;stroke-width:0.5;" width="67.9883" x="467.55" y="395.3742"/><text fill="#000000" font-family="sans-serif" font-size="14" lengthAdjust="spacing" textLength="47.9883" x="477.55" y="418.3693">person</text></g><!--entity process--><g class="entity" data-qualified-name="process" data-source-line="24" id="ent0025"><polygon fill="#F1F1F1" points="570.49,384.94,654.5964,384.94,664.5964,403.0884,654.5964,421.2369,570.49,421.2369,580.49,403.0884" style="stroke:#181818;stroke-width:0.5;"/><text fill="#000000" font-family="sans-serif" font-size="14" lengthAdjust="spacing" textLength="54.1064" x="590.49" y="407.9351">process</text></g><!--entity queue--><g class="entity" data-qualified-name="queue" data-source-line="25" id="ent0026"><path d="M25.61,497.09 L79.4694,497.09 C84.4694,497.09 84.4694,510.2384 84.4694,510.2384 C84.4694,510.2384 84.4694,523.3869 79.4694,523.3869 L25.61,523.3869 C20.61,523.3869 20.61,510.2384 20.61,510.2384 C20.61,510.2384 20.61,497.09 25.61,497.09" fill="#F1F1F1" style="stroke:#181818;stroke-width:0.5;"/><path d="M79.4694,497.09 C74.4694,497.09 74.4694,510.2384 74.4694,510.2384 C74.4694,523.3869 79.4694,523.3869 79.4694,523.3869" fill="none" style="stroke:#181818;stroke-width:0.5;"/><text fill="#000000" font-family="sans-serif" font-size="14" lengthAdjust="spacing" textLength="43.8594" x="25.61" y="515.0851">queue</text></g><!--entity rectangle--><g class="entity" data-qualified-name="rectangle" data-source-line="26" id="ent0027"><rect fill="#F1F1F1" height="36.2969" rx="2.5" ry="2.5" style="stroke:#181818;stroke-width:0.5;" width="86.3975" x="119.34" y="492.09"/><text fill="#000000" font-family="sans-serif" font-size="14" lengthAdjust="spacing" textLength="66.3975" x="129.34" y="515.0851">rectangle</text></g><!--entity stack--><g class="entity" data-qualified-name="stack" data-source-line="27" id="ent0028"><rect fill="#F1F1F1" height="36.2969" rx="2.5" ry="2.5" style="stroke:none;stroke-width:0.5;" width="57.167" x="255.96" y="492.09"/><path d="M240.96,492.09 L253.46,492.09 A2.5,2.5 0 0 1 255.96,494.59 L255.96,525.8869 A2.5,2.5 0 0 0 258.46,528.3869 L310.627,528.3869 A2.5,2.5 0 0 0 313.127,525.8869 L313.127,494.59 A2.5,2.5 0 0 1 315.627,492.09 L328.127,492.09" fill="none" style="stroke:#181818;stroke-width:0.5;"/><text fill="#000000" font-family="sans-serif" font-size="14" lengthAdjust="spacing" textLength="37.167" x="265.96" y="515.0851">stack</text></g><!--entity storage--><g class="entity" data-qualified-name="storage" data-source-line="28" id="ent0029"><rect fill="#F1F1F1" height="36.2969" rx="35" ry="35" style="stroke:#181818;stroke-width:0.5;" width="73.1836" x="362.95" y="492.09"/><text fill="#000000" font-family="sans-serif" font-size="14" lengthAdjust="spacing" textLength="53.1836" x="372.95" y="515.0851">storage</text></g><!--entity usecase--><g class="entity" data-qualified-name="usecase" data-source-line="29" id="ent0030"><ellipse cx="514.5395" cy="510.2436" fill="#F1F1F1" rx="43.2795" ry="14.5236" style="stroke:#181818;stroke-width:0.5;"/><text fill="#000000" font-family="sans-serif" font-size="14" lengthAdjust="spacing" textLength="56.9639" x="486.0576" y="514.8921">usecase</text></g><!--entity usecase/--><g class="entity" data-qualified-name="usecase." data-source-line="30" id="ent0031"><ellipse cx="650.5403" cy="510.2364" fill="#F1F1F1" rx="57.2703" ry="14.6864" style="stroke:#181818;stroke-width:0.5;"/><text fill="#000000" font-family="sans-serif" font-size="14" lengthAdjust="spacing" textLength="61.6807" x="616.2" y="513.984">usecase/</text><line style="stroke:#181818;stroke-width:0.5;" x1="703.2459" x2="687.339" y1="505.1167" y2="521.0237"/></g><?plantuml-src JP5RReGm34N_xoeiDj0rcM1er4nCdI1rTb_d0PgVSsvYP6FWKADcuYwurAXpv2zQXXVm8RbI9zXgtBr0Ty2gLzxOtdG71BQD6X2YXIGqX93qya8ZWgOaVNIXZ-pthrDpc_SalylLDD4qDgwySX6w0_ofMDyqX3twp0RicZOn6i9k_F928xxbZmzVVnenLp7VH-X9IBnAeavatOGQS7BuyMz1qpZ5YZSQmcaQf1IQnkybbr0dp9VaVFZBFGcbUXlgzApMEa_ZAXBQcjFtsV_CdPP_?></g></svg>