<svg xmlns="http://www.w3.org/2000/svg" xmlns:xlink="http://www.w3.org/1999/xlink" contentStyleType="text/css" data-diagram-type="DESCRIPTION" height="533px" preserveAspectRatio="none" style="width:823px;height:533px;background:#FFFFFF;" version="1.1" viewBox="0 0 823 533" width="823px" zoomAndPan="magnify"><?plantuml 1.2026.3beta5?><defs/><g><!--entity actorVeryLOOOOOOOOOOOOOOOOOOOg--><g class="entity" data-qualified-name="actorVeryLOOOOOOOOOOOOOOOOOOOg" data-source-line="1" id="ent0002"><ellipse cx="44.0852" cy="14" fill="#F1F1F1" rx="8" ry="8" style="stroke:#181818;stroke-width:0.5;"/><path d="M44.0852,22 L44.0852,49 M31.0852,30 L57.0852,30 M44.0852,49 L31.0852,64 M44.0852,49 L57.0852,64" fill="none" style="stroke:#181818;stroke-width:0.5;"/><text fill="#000000" font-family="sans-serif" font-size="14" lengthAdjust="spacing" textLength="36.0869" x="26.0418" y="78.4951">actor</text></g><!--entity agentVeryLOOOOOOOOOOOOOOOOOOOg--><g class="entity" data-qualified-name="agentVeryLOOOOOOOOOOOOOOOOOOOg" data-source-line="2" id="ent0003"><rect fill="#F1F1F1" height="36.2969" rx="2.5" ry="2.5" style="stroke:#181818;stroke-width:0.5;" width="60.4414" x="96.8618" y="25.5"/><text fill="#000000" font-family="sans-serif" font-size="14" lengthAdjust="spacing" textLength="40.4414" x="106.8618" y="48.4951">agent</text></g><!--entity artifactVeryLOOOOOOOOOOOOOOOOOOOg--><g class="entity" data-qualified-name="artifactVeryLOOOOOOOOOOOOOOOOOOOg" data-source-line="3" id="ent0004"><rect fill="#F1F1F1" height="39.2969" rx="2.5" ry="2.5" style="stroke:#181818;stroke-width:0.5;" width="80.4082" x="191.8818" y="24"/><polygon fill="#F1F1F1" points="255.29,29,255.29,43,267.29,43,267.29,35,261.29,29,255.29,29" style="stroke:#181818;stroke-width:0.5;"/><line style="stroke:#181818;stroke-width:0.5;" x1="261.29" x2="261.29" y1="29" y2="35"/><line style="stroke:#181818;stroke-width:0.5;" x1="267.29" x2="261.29" y1="35" y2="35"/><text fill="#000000" font-family="sans-serif" font-size="14" lengthAdjust="spacing" textLength="50.4082" x="201.8818" y="49.9951">artifact</text></g><!--entity boundaryVeryLOOOOOOOOOOOOOOOOOOOg--><g class="entity" data-qualified-name="boundaryVeryLOOOOOOOOOOOOOOOOOOOg" data-source-line="4" id="ent0005"><path d="M320.5843,23.5 L320.5843,47.5 M320.5843,35.5 L337.5843,35.5" fill="none" style="stroke:#181818;stroke-width:0.5;"/><ellipse cx="349.5843" cy="35.5" fill="#F1F1F1" rx="12" ry="12" style="stroke:#181818;stroke-width:0.5;"/><text fill="#000000" font-family="sans-serif" font-size="14" lengthAdjust="spacing" textLength="66.7051" x="307.7318" y="64.4951">boundary</text></g><!--entity cardVeryLOOOOOOOOOOOOOOOOOOOg--><g class="entity" data-qualified-name="cardVeryLOOOOOOOOOOOOOOOOOOOg" data-source-line="5" id="ent0006"><rect fill="#F1F1F1" height="22.2969" rx="2.5" ry="2.5" style="stroke:#181818;stroke-width:0.5;" width="50.9189" x="409.6218" y="32.5"/><text fill="#000000" font-family="sans-serif" font-size="14" lengthAdjust="spacing" textLength="30.9189" x="419.6218" y="48.4951">card</text></g><!--entity cloudVeryLOOOOOOOOOOOOOOOOOOOg--><g class="entity" data-qualified-name="cloudVeryLOOOOOOOOOOOOOOOOOOOg" data-source-line="6" id="ent0007"><path d="M18.1357,151.1665 C21.7941,143.6583 27.5313,143.7873 32.0972,150.2604 C35.402,143.4964 41.0302,142.4966 45.1993,149.4339 C49.145,143.1578 54.2078,144.8386 57.3508,150.2673 C61.2477,143.689 67.9202,145.2025 70.9018,151.2496 C79.8188,154.4524 82.2004,161.1416 74.6986,168.054 C79.2825,174.6587 79.1673,179.1145 70.3588,181.347 C68.9605,187.5414 63.644,189.8415 59.0775,184.4253 C54.9952,191.9761 50.1917,192.4381 44.2477,186.4669 C39.5966,191.4348 34.3433,189.6869 31.8723,183.9472 C27.3807,189.6698 22.2266,189.6331 19.0692,182.6074 C9.8431,181.7605 6.8428,175.5286 12.0743,167.8357 C6,159.3034 7.9995,153.8042 18.1357,151.1665" fill="#F1F1F1" style="stroke:#181818;stroke-width:0.5;"/><text fill="#000000" font-family="sans-serif" font-size="14" lengthAdjust="spacing" textLength="37.9121" x="25.1218" y="170.7951">cloud</text></g><!--entity collectionsVeryLOOOOOOOOOOOOOOOOOOOg--><g class="entity" data-qualified-name="collectionsVeryLOOOOOOOOOOOOOOOOOOOg" data-source-line="7" id="ent0008"><rect fill="#F1F1F1" height="32.2969" rx="2.5" ry="2.5" style="stroke:#181818;stroke-width:0.5;" width="90.4639" x="116.8518" y="151.8"/><rect fill="#F1F1F1" height="32.2969" rx="2.5" ry="2.5" style="stroke:#181818;stroke-width:0.5;" width="90.4639" x="112.8518" y="147.8"/><text fill="#000000" font-family="sans-serif" font-size="14" lengthAdjust="spacing" textLength="74.4639" x="120.8518" y="168.7951">collections</text></g><!--entity componentVeryLOOOOOOOOOOOOOOOOOOOg--><g class="entity" data-qualified-name="componentVeryLOOOOOOOOOOOOOOOOOOOg" data-source-line="8" id="ent0009"><rect fill="#F1F1F1" height="46.2969" rx="2.5" ry="2.5" style="stroke:#181818;stroke-width:0.5;" width="119.2012" x="242.4818" y="142.8"/><rect fill="#F1F1F1" height="10" style="stroke:#181818;stroke-width:0.5;" width="15" x="341.6829" y="147.8"/><rect fill="#F1F1F1" height="2" style="stroke:#181818;stroke-width:0.5;" width="4" x="339.6829" y="149.8"/><rect fill="#F1F1F1" height="2" style="stroke:#181818;stroke-width:0.5;" width="4" x="339.6829" y="153.8"/><text fill="#000000" font-family="sans-serif" font-size="14" lengthAdjust="spacing" textLength="79.2012" x="257.4818" y="175.7951">component</text></g><!--entity controlVeryLOOOOOOOOOOOOOOOOOOOg--><g class="entity" data-qualified-name="controlVeryLOOOOOOOOOOOOOOOOOOOg" data-source-line="9" id="ent0010"><ellipse cx="421.0797" cy="157.8" fill="#F1F1F1" rx="12" ry="12" style="stroke:#181818;stroke-width:0.5;"/><polygon fill="#181818" points="417.0797,145.8,423.0797,140.8,421.0797,145.8,423.0797,150.8,417.0797,145.8" style="stroke:#181818;stroke-width:1;"/><text fill="#000000" font-family="sans-serif" font-size="14" lengthAdjust="spacing" textLength="48.8359" x="396.6618" y="186.7951">control</text></g><!--entity databaseVeryLOOOOOOOOOOOOOOOOOOOg--><g class="entity" data-qualified-name="databaseVeryLOOOOOOOOOOOOOOOOOOOg" data-source-line="10" id="ent0011"><path d="M480.6318,153.3 C480.6318,143.3 523.0854,143.3 523.0854,143.3 C523.0854,143.3 565.539,143.3 565.539,153.3 L565.539,178.5969 C565.539,188.5969 523.0854,188.5969 523.0854,188.5969 C523.0854,188.5969 480.6318,188.5969 480.6318,178.5969 L480.6318,153.3" fill="#F1F1F1" style="stroke:#181818;stroke-width:0.5;"/><path d="M480.6318,153.3 C480.6318,163.3 523.0854,163.3 523.0854,163.3 C523.0854,163.3 565.539,163.3 565.539,153.3" fill="none" style="stroke:#181818;stroke-width:0.5;"/><text fill="#000000" font-family="sans-serif" font-size="14" lengthAdjust="spacing" textLength="64.9072" x="490.6318" y="180.2951">database</text></g><!--entity entityVeryLOOOOOOOOOOOOOOOOOOOg--><g class="entity" data-qualified-name="entityVeryLOOOOOOOOOOOOOOOOOOOg" data-source-line="11" id="ent0012"><ellipse cx="44.0816" cy="269.1" fill="#F1F1F1" rx="12" ry="12" style="stroke:#181818;stroke-width:0.5;"/><line style="stroke:#181818;stroke-width:0.5;" x1="32.0816" x2="56.0816" y1="283.1" y2="283.1"/><text fill="#000000" font-family="sans-serif" font-size="14" lengthAdjust="spacing" textLength="40.6396" x="23.7618" y="298.0951">entity</text></g><!--entity fileVeryLOOOOOOOOOOOOOOOOOOOg--><g class="entity" data-qualified-name="fileVeryLOOOOOOOOOOOOOOOOOOOg" data-source-line="12" id="ent0013"><path d="M99.4218,261.6 L99.4218,292.8969 A2.5,2.5 0 0 0 101.9218,295.3969 L138.2431,295.3969 A2.5,2.5 0 0 0 140.7431,292.8969 L140.7431,269.1 L130.7431,259.1 L101.9218,259.1 A2.5,2.5 0 0 0 99.4218,261.6" fill="#F1F1F1" style="stroke:#181818;stroke-width:0.5;"/><path d="M130.7431,259.1 L130.7431,266.6 A2.5,2.5 0 0 0 133.2431,269.1 L140.7431,269.1" fill="#F1F1F1" style="stroke:#181818;stroke-width:0.5;"/><text fill="#000000" font-family="sans-serif" font-size="14" lengthAdjust="spacing" textLength="21.3213" x="109.4218" y="282.0951">file</text></g><!--entity folderVeryLOOOOOOOOOOOOOOOOOOOg--><g class="entity" data-qualified-name="folderVeryLOOOOOOOOOOOOOOOOOOOg" data-source-line="13" id="ent0014"><path d="M178.2618,250.1 L219.2618,250.1 A3.75,3.75 0 0 1 221.7618,252.6 L228.7618,271.1 L243.9014,271.1 A2.5,2.5 0 0 1 246.4014,273.6 L246.4014,301.8969 A2.5,2.5 0 0 1 243.9014,304.3969 L178.2618,304.3969 A2.5,2.5 0 0 1 175.7618,301.8969 L175.7618,252.6 A2.5,2.5 0 0 1 178.2618,250.1" fill="#F1F1F1" style="stroke:#181818;stroke-width:0.5;"/><line style="stroke:#181818;stroke-width:0.5;" x1="175.7618" x2="228.7618" y1="271.1" y2="271.1"/><text fill="#000000" font-family="sans-serif" font-size="14" lengthAdjust="spacing" textLength="40.6396" x="185.7618" y="291.0951">folder</text></g><!--entity frameVeryLOOOOOOOOOOOOOOOOOOOg--><g class="entity" data-qualified-name="frameVeryLOOOOOOOOOOOOOOOOOOOg" data-source-line="14" id="ent0015"><rect fill="#F1F1F1" height="46.2969" rx="2.5" ry="2.5" style="stroke:#181818;stroke-width:0.5;" width="81.5146" x="281.3218" y="254.1"/><path d="M308.4933,254.1 L308.4933,259.1 L301.4933,266.1 L281.3218,266.1" fill="none" style="stroke:#181818;stroke-width:0.5;"/><text fill="#000000" font-family="sans-serif" font-size="14" lengthAdjust="spacing" textLength="41.5146" x="296.3218" y="287.0951">frame</text></g><!--entity hexagonVeryLOOOOOOOOOOOOOOOOOOOg--><g class="entity" data-qualified-name="hexagonVeryLOOOOOOOOOOOOOOOOOOOg" data-source-line="15" id="ent0016"><polygon fill="#F1F1F1" points="518.7618,277.24,488.4218,264.1,427.7418,264.1,397.4018,277.24,427.7418,290.39,488.4218,290.39,518.7618,277.24" style="stroke:#181818;stroke-width:0.5;"/><text fill="#000000" font-family="sans-serif" font-size="14" lengthAdjust="spacing" textLength="60.6758" x="427.7397" y="282.0951">hexagon</text></g><!--entity interfaceVeryLOOOOOOOOOOOOOOOOOOOg--><g class="entity" data-qualified-name="interfaceVeryLOOOOOOOOOOOOOOOOOOOg" data-source-line="16" id="ent0017"><ellipse cx="44.0818" cy="393.39" fill="#F1F1F1" rx="8" ry="8" style="stroke:#181818;stroke-width:0.5;"/><text fill="#000000" font-family="sans-serif" font-size="14" lengthAdjust="spacing" textLength="62.4395" x="12.862" y="423.3851">interface</text></g><!--entity labelVeryLOOOOOOOOOOOOOOOOOOOg--><g class="entity" data-qualified-name="labelVeryLOOOOOOOOOOOOOOOOOOOg" data-source-line="17" id="ent0018"><text fill="#000000" font-family="sans-serif" font-size="14" lengthAdjust="spacing" textLength="33.8584" x="128.1518" y="398.2351">label</text></g><!--entity nodeVeryLOOOOOOOOOOOOOOOOOOOg--><g class="entity" data-qualified-name="nodeVeryLOOOOOOOOOOOOOOOOOOOg" data-source-line="18" id="ent0019"><polygon fill="#F1F1F1" points="206.6118,380.24,216.6118,370.24,281.5502,370.24,281.5502,406.5369,271.5502,416.5369,206.6118,416.5369,206.6118,380.24" style="stroke:#181818;stroke-width:0.5;"/><line style="stroke:#181818;stroke-width:0.5;" x1="271.5502" x2="281.5502" y1="380.24" y2="370.24"/><line style="stroke:#181818;stroke-width:0.5;" x1="206.6118" x2="271.5502" y1="380.24" y2="380.24"/><line style="stroke:#181818;stroke-width:0.5;" x1="271.5502" x2="271.5502" y1="380.24" y2="416.5369"/><text fill="#000000" font-family="sans-serif" font-size="14" lengthAdjust="spacing" textLength="34.9385" x="221.6118" y="403.2351">node</text></g><!--entity packageVeryLOOOOOOOOOOOOOOOOOOOg--><g class="entity" data-qualified-name="packageVeryLOOOOOOOOOOOOOOOOOOOg" data-source-line="19" id="ent0020"><path d="M318.8418,365.6 L679.3125,365.6 A3.75,3.75 0 0 1 681.8125,368.1 L688.8125,387.8969 L703.3125,387.8969 A2.5,2.5 0 0 1 705.8125,390.3969 L705.8125,418.6938 A2.5,2.5 0 0 1 703.3125,421.1938 L318.8418,421.1938 A2.5,2.5 0 0 1 316.3418,418.6938 L316.3418,368.1 A2.5,2.5 0 0 1 318.8418,365.6" fill="#F1F1F1" style="stroke:#181818;stroke-width:0.5;"/><line style="stroke:#181818;stroke-width:0.5;" x1="316.3418" x2="688.8125" y1="387.8969" y2="387.8969"/><text fill="#000000" font-family="sans-serif" font-size="14" font-weight="700" lengthAdjust="spacing" textLength="347.4707" x="326.3418" y="381.5951">packageVeryLOOOOOOOOOOOOOOOOOOOg</text><text fill="#000000" font-family="sans-serif" font-size="14" lengthAdjust="spacing" textLength="59.3496" x="326.3418" y="407.892">package</text></g><!--entity personVeryLOOOOOOOOOOOOOOOOOOOg--><g class="entity" data-qualified-name="personVeryLOOOOOOOOOOOOOOOOOOOg" data-source-line="20" id="ent0021"><ellipse cx="775.0859" cy="375.2421" fill="#F1F1F1" rx="10.4321" ry="10.4321" style="stroke:#181818;stroke-width:0.5;"/><rect fill="#F1F1F1" height="36.2969" rx="10.4321" ry="10.4321" style="stroke:#181818;stroke-width:0.5;" width="67.9883" x="741.0918" y="385.6742"/><text fill="#000000" font-family="sans-serif" font-size="14" lengthAdjust="spacing" textLength="47.9883" x="751.0918" y="408.6693">person</text></g><!--entity queueVeryLOOOOOOOOOOOOOOOOOOOg--><g class="entity" data-qualified-name="queueVeryLOOOOOOOOOOOOOOOOOOOg" data-source-line="21" id="ent0022"><path d="M17.1518,487.39 L71.0111,487.39 C76.0111,487.39 76.0111,500.5384 76.0111,500.5384 C76.0111,500.5384 76.0111,513.6869 71.0111,513.6869 L17.1518,513.6869 C12.1518,513.6869 12.1518,500.5384 12.1518,500.5384 C12.1518,500.5384 12.1518,487.39 17.1518,487.39" fill="#F1F1F1" style="stroke:#181818;stroke-width:0.5;"/><path d="M71.0111,487.39 C66.0111,487.39 66.0111,500.5384 66.0111,500.5384 C66.0111,513.6869 71.0111,513.6869 71.0111,513.6869" fill="none" style="stroke:#181818;stroke-width:0.5;"/><text fill="#000000" font-family="sans-serif" font-size="14" lengthAdjust="spacing" textLength="43.8594" x="17.1518" y="505.3851">queue</text></g><!--entity stackVeryLOOOOOOOOOOOOOOOOOOOg--><g class="entity" data-qualified-name="stackVeryLOOOOOOOOOOOOOOOOOOOg" data-source-line="22" id="ent0023"><rect fill="#F1F1F1" height="36.2969" rx="2.5" ry="2.5" style="stroke:none;stroke-width:0.5;" width="57.167" x="126.5018" y="482.39"/><path d="M111.5018,482.39 L124.0018,482.39 A2.5,2.5 0 0 1 126.5018,484.89 L126.5018,516.1869 A2.5,2.5 0 0 0 129.0018,518.6869 L181.1688,518.6869 A2.5,2.5 0 0 0 183.6688,516.1869 L183.6688,484.89 A2.5,2.5 0 0 1 186.1688,482.39 L198.6688,482.39" fill="none" style="stroke:#181818;stroke-width:0.5;"/><text fill="#000000" font-family="sans-serif" font-size="14" lengthAdjust="spacing" textLength="37.167" x="136.5018" y="505.3851">stack</text></g><!--entity rectangleVeryLOOOOOOOOOOOOOOOOOOOg--><g class="entity" data-qualified-name="rectangleVeryLOOOOOOOOOOOOOOOOOOOg" data-source-line="23" id="ent0024"><rect fill="#F1F1F1" height="36.2969" rx="2.5" ry="2.5" style="stroke:#181818;stroke-width:0.5;" width="86.3975" x="233.8818" y="482.39"/><text fill="#000000" font-family="sans-serif" font-size="14" lengthAdjust="spacing" textLength="66.3975" x="243.8818" y="505.3851">rectangle</text></g><!--entity storageVeryLOOOOOOOOOOOOOOOOOOOg--><g class="entity" data-qualified-name="storageVeryLOOOOOOOOOOOOOOOOOOOg" data-source-line="24" id="ent0025"><rect fill="#F1F1F1" height="36.2969" rx="35" ry="35" style="stroke:#181818;stroke-width:0.5;" width="73.1836" x="355.4918" y="482.39"/><text fill="#000000" font-family="sans-serif" font-size="14" lengthAdjust="spacing" textLength="53.1836" x="365.4918" y="505.3851">storage</text></g><!--entity usecaseVeryLOOOOOOOOOOOOOOOOOOOg--><g class="entity" data-qualified-name="usecaseVeryLOOOOOOOOOOOOOOOOOOOg" data-source-line="25" id="ent0026"><ellipse cx="507.0813" cy="500.5436" fill="#F1F1F1" rx="43.2795" ry="14.5236" style="stroke:#181818;stroke-width:0.5;"/><text fill="#000000" font-family="sans-serif" font-size="14" lengthAdjust="spacing" textLength="56.9639" x="478.5994" y="505.1921">usecase</text></g><?plantuml-src VTJ1RiCW383X-vuYudacxRQxcxXPD0eT8TBwziF66AJ9vFOT_W2cAQmvfaKU1oGdWdDXVs9wlN_yV_Ots37a7fF6c3o9KpxkPG69HQx5Ohk_nIjia5wrRsfzizslaBP5DqzgUwUUF6bzlBRUaeQ3ioTnz1xNVCHmKjpbEEwUlUBnZ466xrHErc-UlI3a57qxG9NJ0rJR-GOPRd1YpPlQx9ljlkpjoAyslogdywksw_lXiTySQRmvygIDViEaBQklN3sf4pomhqmQxfrjnr_u2tiC4ejqvc8xFqB6L3u9Nj-fvCxLzWiytD3hvbd3vjbs7E8sp9mqpfnijqzOlykVWRGYFRXuacCwszXApkfNLctNFnTU_SfOmwdPTdpciZcDMKFCjkDKFcC8U_sjEfLSc7gsUanzRYBNLsVR-NNYshxHnOaq5vlv7m00?></g></svg>