<svg xmlns="http://www.w3.org/2000/svg" xmlns:xlink="http://www.w3.org/1999/xlink" contentStyleType="text/css" data-diagram-type="CLASS" height="1133px" preserveAspectRatio="none" style="width:867px;height:1133px;background:#FFFFFF;" version="1.1" viewBox="0 0 867 1133" width="867px" zoomAndPan="magnify"><?plantuml 1.2026.3beta5?><defs/><g><!--cluster action--><g class="cluster" data-qualified-name="action" data-source-line="1" id="ent0002"><polygon fill="none" points="16,6,832,6,842,562.15,832,1118.3,16,1118.3" style="stroke:#181818;stroke-width:1;"/><text fill="#000000" font-family="sans-serif" font-size="14" font-weight="700" lengthAdjust="spacing" textLength="48.8223" x="404.5889" y="20.9951">action</text></g><!--cluster artifact--><g class="cluster" data-qualified-name="action.artifact" data-source-line="2" id="ent0003"><rect fill="none" height="1045.3" rx="2.5" ry="2.5" style="stroke:#181818;stroke-width:1;" width="778" x="40" y="49"/><polygon fill="none" points="801,54,801,68,813,68,813,60,807,54,801,54" style="stroke:#181818;stroke-width:1;"/><line style="stroke:#181818;stroke-width:1;" x1="807" x2="807" y1="54" y2="60"/><line style="stroke:#181818;stroke-width:1;" x1="813" x2="807" y1="60" y2="60"/><text fill="#000000" font-family="sans-serif" font-size="14" font-weight="700" lengthAdjust="spacing" textLength="58.3721" x="399.814" y="63.9951">artifact</text></g><!--cluster card--><g class="cluster" data-qualified-name="action.artifact.card" data-source-line="3" id="ent0004"><rect fill="none" height="978.3" rx="2.5" ry="2.5" style="stroke:#181818;stroke-width:1;" width="730" x="64" y="92"/><line style="stroke:#181818;stroke-width:1;" x1="64" x2="794" y1="112.2969" y2="112.2969"/><text fill="#000000" font-family="sans-serif" font-size="14" font-weight="700" lengthAdjust="spacing" textLength="34.6719" x="411.6641" y="106.9951">card</text></g><!--cluster cloud--><g class="cluster" data-qualified-name="action.artifact.card.cloud" data-source-line="4" id="ent0005"><path d="M104.6007,144.9795 C124.5158,115.1573 158.6319,109.2328 175.5686,148.0586 C190.9702,120.077 223.3496,115.1152 241.8978,144.415 C262.297,114.9374 288.3896,108.309 308.7181,144.4869 C328.0424,108.0934 348.6653,112.1721 373.722,138.5507 C386.9131,113.7918 413.7618,109.9159 430.3168,134.7086 C454.4166,100.0932 481.6158,105.8406 500.7406,139.8164 C522.9205,110.0156 549.0075,113.807 569.0939,142.2722 C587.9326,115.8933 609.4809,115.43 628.2777,142.3188 C650.3725,111.1158 675.1293,111.7208 695.6202,144.0196 C717.1903,111.0114 746.7158,113.2374 762,150 C764.4975,148.4291 766.1253,149.6222 766.3393,152.3208 C795.2178,172.984 801.0814,200.8667 766.2927,221.4869 C793.1983,236.2847 797.398,263.3501 768.4763,280.2232 C799.4718,296.1112 800.189,324.1472 770.137,341.6848 C802.468,361.8883 800.8111,381.7164 770.4562,402.2503 C805.7952,420.2728 805.8894,446.4698 773.8505,467.9722 C799.5749,488.8242 803.8534,511.5807 770.8207,529.5412 C801.9805,547.0278 801.3887,572.8949 775.6404,594.5975 C800.7424,616.227 800.2844,636.1307 772.2852,654.801 C800.9334,677.3687 800.9121,700.3957 772.8739,723.4496 C796.4695,742.5743 798.6502,759.5529 774.1418,779.7606 C811.2897,800.0098 804.7342,833.7747 770.966,850.8561 C799.4706,870.5627 803.6285,890.7058 774.4278,913.5964 C804.8683,935.407 802.1835,962.0274 767.8397,977.1191 C790.5902,1000.0401 786.1487,1026.6906 755,1038.3 C761.4206,1034.0592 765.2281,1036.4257 766.2371,1043.6186 C745.4101,1074.6595 722.3391,1072.8388 699.3567,1046.114 C677.3844,1080.1807 646.3987,1081.2682 626.3611,1044.1306 C613.2496,1068.7676 587.4406,1074.5347 570.7319,1048.0446 C552.2234,1078.1667 521.4149,1082.5288 500.0166,1051.3798 C483.8472,1082.3958 454.3108,1074.4325 440.2992,1049.0933 C414.8093,1087.3145 388.7902,1083.6269 366.7376,1045.7697 C347.7855,1071.4126 321.7089,1076.5946 304.6089,1043.8006 C287.6976,1075.4103 259.3102,1073.0472 243.7165,1042.5096 C221.6991,1074.3034 195.4992,1079.5767 174.2074,1041.7848 C143.7402,1074.2431 117.2793,1067.375 96,1031.3 C103.2715,1030.266 108.075,1033.3905 106.2948,1041.496 C76.7729,1020.3773 77.6692,991.8267 106.6818,971.0295 C76.539,954.3187 79.9487,931.073 104.4404,912.2779 C78.5187,890.4439 73.35,869.5021 105.0797,848.2437 C75.4607,832.4546 63.4974,803.2493 98.3646,781.0188 C67.2377,768.2285 68.4026,741.4312 92.8686,723.3433 C61.1594,704.2718 64.8034,671.8652 94.2056,653.9716 C62.2239,637.7103 65.3726,609.3013 94.6336,593.4733 C69.5523,570.7892 69.9494,551.6625 102.5468,537.0706 C73.6735,521.8111 73.3294,493.9262 98.6623,475.2602 C66.5873,457.4411 71.4734,425.8099 98.6883,408.0138 C68.7322,385.7154 65.5161,365.1563 100.8011,345.047 C65.8986,322.0687 67.1301,298.6571 101.1715,276.0489 C76.0868,260.7511 76.5847,237.2141 100.1159,220.9843 C62.3682,199.5681 61.8711,161.4991 103,143 C104.421,142.6704 105.2658,143.6222 104.6007,144.9795" fill="none" style="stroke:#181818;stroke-width:1;"/><text fill="#000000" font-family="sans-serif" font-size="14" font-weight="700" lengthAdjust="spacing" textLength="42.7041" x="407.6479" y="160.9951">cloud</text></g><!--cluster component--><g class="cluster" data-qualified-name="action.artifact.card.cloud.component" data-source-line="5" id="ent0006"><rect fill="none" height="844.3" rx="2.5" ry="2.5" style="stroke:#181818;stroke-width:1;" width="634" x="112" y="178"/><rect fill="none" height="10" style="stroke:#181818;stroke-width:1;" width="15" x="726" y="183"/><rect fill="none" height="2" style="stroke:#181818;stroke-width:1;" width="4" x="724" y="185"/><rect fill="none" height="2" style="stroke:#181818;stroke-width:1;" width="4" x="724" y="189"/><text fill="#000000" font-family="sans-serif" font-size="14" font-weight="700" lengthAdjust="spacing" textLength="88.2656" x="384.8672" y="203.9951">component</text></g><!--cluster database--><g class="cluster" data-qualified-name="action.artifact.card.cloud.component.database" data-source-line="6" id="ent0007"><path d="M136,231 C136,221 429,221 429,221 C429,221 722,221 722,231 L722,988.3 C722,998.3 429,998.3 429,998.3 C429,998.3 136,998.3 136,988.3 L136,231" fill="none" style="stroke:#181818;stroke-width:1;"/><path d="M136,231 C136,241 429,241 429,241 C429,241 722,241 722,231" fill="none" style="stroke:#181818;stroke-width:1;"/><text fill="#000000" font-family="sans-serif" font-size="14" font-weight="700" lengthAdjust="spacing" textLength="72.9053" x="392.5474" y="255.9951">database</text></g><!--cluster file--><g class="cluster" data-qualified-name="action.artifact.card.cloud.component.database.file" data-source-line="7" id="ent0008"><path d="M160,281.5 L160,971.8 A2.5,2.5 0 0 0 162.5,974.3 L695.5,974.3 A2.5,2.5 0 0 0 698,971.8 L698,289 L688,279 L162.5,279 A2.5,2.5 0 0 0 160,281.5" fill="none" style="stroke:#181818;stroke-width:1;"/><path d="M688,279 L688,286.5 A2.5,2.5 0 0 0 690.5,289 L698,289" fill="none" style="stroke:#181818;stroke-width:1;"/><text fill="#000000" font-family="sans-serif" font-size="14" font-weight="700" lengthAdjust="spacing" textLength="25.1836" x="416.4082" y="293.9951">file</text></g><!--cluster folder--><g class="cluster" data-qualified-name="action.artifact.card.cloud.component.database.file.folder" data-source-line="8" id="ent0009"><path d="M186.5,322 L234.4287,322 A3.75,3.75 0 0 1 236.9287,324.5 L243.9287,344.2969 L671.5,344.2969 A2.5,2.5 0 0 1 674,346.7969 L674,947.8 A2.5,2.5 0 0 1 671.5,950.3 L186.5,950.3 A2.5,2.5 0 0 1 184,947.8 L184,324.5 A2.5,2.5 0 0 1 186.5,322" fill="none" style="stroke:#000000;stroke-width:1.5;"/><line style="stroke:#000000;stroke-width:1.5;" x1="184" x2="243.9287" y1="344.2969" y2="344.2969"/><text fill="#000000" font-family="sans-serif" font-size="14" font-weight="700" lengthAdjust="spacing" textLength="46.9287" x="188" y="336.9951">folder</text></g><!--cluster frame--><g class="cluster" data-qualified-name="action.artifact.card.cloud.component.database.file.folder.frame" data-source-line="9" id="ent0010"><rect fill="none" height="561.3" rx="2.5" ry="2.5" style="stroke:#181818;stroke-width:1;" width="442" x="208" y="365"/><path d="M264.5254,365 L264.5254,374.2969 L254.5254,384.2969 L208,384.2969" fill="none" style="stroke:#181818;stroke-width:1;"/><text fill="#000000" font-family="sans-serif" font-size="14" font-weight="700" lengthAdjust="spacing" textLength="46.5254" x="211" y="378.9951">frame</text></g><!--cluster hexagon--><g class="cluster" data-qualified-name="action.artifact.card.cloud.component.database.file.folder.frame.hexagon" data-source-line="10" id="ent0011"><path d="M232,655.15 L281.25,408 L576.75,408 L626,655.15 L576.75,902.3 L281.25,902.3 L232,655.15" fill="none" style="stroke:#181818;stroke-width:1;"/><text fill="#000000" font-family="sans-serif" font-size="14" font-weight="700" lengthAdjust="spacing" textLength="67.5459" x="395.2271" y="422.9951">hexagon</text></g><!--cluster node--><g class="cluster" data-qualified-name="action.artifact.card.cloud.component.database.file.folder.frame.hexagon.node" data-source-line="11" id="ent0012"><polygon fill="none" points="256,461,266,451,602,451,602,868.3,592,878.3,256,878.3,256,461" style="stroke:#181818;stroke-width:1;"/><line style="stroke:#181818;stroke-width:1;" x1="592" x2="602" y1="461" y2="451"/><line style="stroke:#181818;stroke-width:1;" x1="256" x2="592" y1="461" y2="461"/><line style="stroke:#181818;stroke-width:1;" x1="592" x2="592" y1="461" y2="878.3"/><text fill="#000000" font-family="sans-serif" font-size="14" font-weight="700" lengthAdjust="spacing" textLength="39.1016" x="405.4492" y="476.9951">node</text></g><!--cluster package--><g class="cluster" data-qualified-name="action.artifact.card.cloud.component.database.file.folder.frame.hexagon.node.package" data-source-line="12" id="ent0013"><path d="M282.5,499 L349.542,499 A3.75,3.75 0 0 1 352.042,501.5 L359.042,521.2969 L575.5,521.2969 A2.5,2.5 0 0 1 578,523.7969 L578,851.8 A2.5,2.5 0 0 1 575.5,854.3 L282.5,854.3 A2.5,2.5 0 0 1 280,851.8 L280,501.5 A2.5,2.5 0 0 1 282.5,499" fill="none" style="stroke:#000000;stroke-width:1.5;"/><line style="stroke:#000000;stroke-width:1.5;" x1="280" x2="359.042" y1="521.2969" y2="521.2969"/><text fill="#000000" font-family="sans-serif" font-size="14" font-weight="700" lengthAdjust="spacing" textLength="66.042" x="284" y="513.9951">package</text></g><!--cluster process--><g class="cluster" data-qualified-name="action.artifact.card.cloud.component.database.file.folder.frame.hexagon.node.package.process" data-source-line="13" id="ent0014"><polygon fill="none" points="304,542,544,542,554,686.15,544,830.3,304,830.3,314,686.15" style="stroke:#181818;stroke-width:1;"/><text fill="#000000" font-family="sans-serif" font-size="14" font-weight="700" lengthAdjust="spacing" textLength="61.0039" x="398.498" y="556.9951">process</text></g><!--cluster queue--><g class="cluster" data-qualified-name="action.artifact.card.cloud.component.database.file.folder.frame.hexagon.node.package.process.queue" data-source-line="14" id="ent0015"><path d="M333,585 L525,585 C530,585 530,695.65 530,695.65 C530,695.65 530,806.3 525,806.3 L333,806.3 C328,806.3 328,695.65 328,695.65 C328,695.65 328,585 333,585" fill="none" style="stroke:#181818;stroke-width:1;"/><path d="M525,585 C520,585 520,695.65 520,695.65 C520,806.3 525,806.3 525,806.3" fill="none" style="stroke:#181818;stroke-width:1;"/><text fill="#000000" font-family="sans-serif" font-size="14" font-weight="700" lengthAdjust="spacing" textLength="48.9453" x="404.5273" y="599.9951">queue</text></g><!--cluster rectangle--><g class="cluster" data-qualified-name="action.artifact.card.cloud.component.database.file.folder.frame.hexagon.node.package.process.queue.rectangle" data-source-line="15" id="ent0016"><rect fill="none" height="154.3" rx="2.5" ry="2.5" style="stroke:#181818;stroke-width:1;" width="154" x="352" y="628"/><text fill="#000000" font-family="sans-serif" font-size="14" font-weight="700" lengthAdjust="spacing" textLength="75.1201" x="391.4399" y="642.9951">rectangle</text></g><!--cluster stack--><g class="cluster" data-qualified-name="action.artifact.card.cloud.component.database.file.folder.frame.hexagon.node.package.process.queue.rectangle.stack" data-source-line="16" id="ent0017"><rect fill="none" height="87.3" rx="2.5" ry="2.5" style="stroke:none;stroke-width:1;" width="76" x="391" y="671"/><path d="M376,671 L388.5,671 A2.5,2.5 0 0 1 391,673.5 L391,755.8 A2.5,2.5 0 0 0 393.5,758.3 L464.5,758.3 A2.5,2.5 0 0 0 467,755.8 L467,673.5 A2.5,2.5 0 0 1 469.5,671 L482,671" fill="none" style="stroke:#181818;stroke-width:1;"/><text fill="#000000" font-family="sans-serif" font-size="14" font-weight="700" lengthAdjust="spacing" textLength="42.082" x="407.959" y="696.9951">stack</text></g><!--entity storage--><g class="entity" data-qualified-name="action.artifact.card.cloud.component.database.file.folder.frame.hexagon.node.package.process.queue.rectangle.stack.storage" data-source-line="17" id="ent0018"><rect fill="#F1F1F1" height="36.2969" rx="35" ry="35" style="stroke:#181818;stroke-width:0.5;" width="73.1836" x="392.41" y="706"/><text fill="#000000" font-family="sans-serif" font-size="14" lengthAdjust="spacing" textLength="53.1836" x="402.41" y="728.9951">storage</text></g><?plantuml-src XOxH2iCW34NVynNvjKpJJcPD5oqCmlvzgPtjOn7EFLSXaK9BKf2EC21jQVA6fnW4qeWTxbasBvtUP5cbS6bucK6aHW-gZASOJ2apThXBZgpu3-zAYpzs6ZpvGxF_PQH1aSZOOR1IUD7CED9lL0BNYYCDtXjlZ0SDb4EZCllcomngym5uS6-Y-xIH1j-xymC0?></g></svg>