<svg xmlns="http://www.w3.org/2000/svg" xmlns:xlink="http://www.w3.org/1999/xlink" contentStyleType="text/css" data-diagram-type="CLASS" height="1133px" preserveAspectRatio="none" style="width:847px;height:1133px;background:#FFFFFF;" version="1.1" viewBox="0 0 847 1133" width="847px" zoomAndPan="magnify"><?plantuml 1.2026.3beta5?><defs/><g><!--cluster storage--><g class="cluster" data-qualified-name="storage" data-source-line="1" id="ent0002"><rect fill="none" height="1112.3" rx="35" ry="35" style="stroke:#181818;stroke-width:1;" width="826" x="7" y="7"/><text fill="#000000" font-family="sans-serif" font-size="14" font-weight="700" lengthAdjust="spacing" textLength="60.5117" x="389.7441" y="26.9951">storage</text></g><!--cluster stack--><g class="cluster" data-qualified-name="storage.stack" data-source-line="2" id="ent0003"><rect fill="none" height="1045.3" rx="2.5" ry="2.5" style="stroke:none;stroke-width:1;" width="748" x="46" y="50"/><path d="M31,50 L43.5,50 A2.5,2.5 0 0 1 46,52.5 L46,1092.8 A2.5,2.5 0 0 0 48.5,1095.3 L791.5,1095.3 A2.5,2.5 0 0 0 794,1092.8 L794,52.5 A2.5,2.5 0 0 1 796.5,50 L809,50" fill="none" style="stroke:#181818;stroke-width:1;"/><text fill="#000000" font-family="sans-serif" font-size="14" font-weight="700" lengthAdjust="spacing" textLength="42.082" x="398.959" y="75.9951">stack</text></g><!--cluster rectangle--><g class="cluster" data-qualified-name="storage.stack.rectangle" data-source-line="3" id="ent0004"><rect fill="none" height="978.3" rx="2.5" ry="2.5" style="stroke:#181818;stroke-width:1;" width="730" x="55" y="93"/><text fill="#000000" font-family="sans-serif" font-size="14" font-weight="700" lengthAdjust="spacing" textLength="75.1201" x="382.4399" y="107.9951">rectangle</text></g><!--cluster queue--><g class="cluster" data-qualified-name="storage.stack.rectangle.queue" data-source-line="4" id="ent0005"><path d="M84,136 L756,136 C761,136 761,591.65 761,591.65 C761,591.65 761,1047.3 756,1047.3 L84,1047.3 C79,1047.3 79,591.65 79,591.65 C79,591.65 79,136 84,136" fill="none" style="stroke:#181818;stroke-width:1;"/><path d="M756,136 C751,136 751,591.65 751,591.65 C751,1047.3 756,1047.3 756,1047.3" fill="none" style="stroke:#181818;stroke-width:1;"/><text fill="#000000" font-family="sans-serif" font-size="14" font-weight="700" lengthAdjust="spacing" textLength="48.9453" x="395.5273" y="150.9951">queue</text></g><!--cluster process--><g class="cluster" data-qualified-name="storage.stack.rectangle.queue.process" data-source-line="5" id="ent0006"><polygon fill="none" points="103,179,727,179,737,601.15,727,1023.3,103,1023.3,113,601.15" style="stroke:#181818;stroke-width:1;"/><text fill="#000000" font-family="sans-serif" font-size="14" font-weight="700" lengthAdjust="spacing" textLength="61.0039" x="389.498" y="193.9951">process</text></g><!--cluster package--><g class="cluster" data-qualified-name="storage.stack.rectangle.queue.process.package" data-source-line="6" id="ent0007"><path d="M129.5,222 L196.542,222 A3.75,3.75 0 0 1 199.042,224.5 L206.042,244.2969 L710.5,244.2969 A2.5,2.5 0 0 1 713,246.7969 L713,996.8 A2.5,2.5 0 0 1 710.5,999.3 L129.5,999.3 A2.5,2.5 0 0 1 127,996.8 L127,224.5 A2.5,2.5 0 0 1 129.5,222" fill="none" style="stroke:#000000;stroke-width:1.5;"/><line style="stroke:#000000;stroke-width:1.5;" x1="127" x2="206.042" y1="244.2969" y2="244.2969"/><text fill="#000000" font-family="sans-serif" font-size="14" font-weight="700" lengthAdjust="spacing" textLength="66.042" x="131" y="236.9951">package</text></g><!--cluster node--><g class="cluster" data-qualified-name="storage.stack.rectangle.queue.process.package.node" data-source-line="7" id="ent0008"><polygon fill="none" points="151,275,161,265,689,265,689,965.3,679,975.3,151,975.3,151,275" style="stroke:#181818;stroke-width:1;"/><line style="stroke:#181818;stroke-width:1;" x1="679" x2="689" y1="275" y2="265"/><line style="stroke:#181818;stroke-width:1;" x1="151" x2="679" y1="275" y2="275"/><line style="stroke:#181818;stroke-width:1;" x1="679" x2="679" y1="275" y2="975.3"/><text fill="#000000" font-family="sans-serif" font-size="14" font-weight="700" lengthAdjust="spacing" textLength="39.1016" x="396.4492" y="290.9951">node</text></g><!--cluster hexagon--><g class="cluster" data-qualified-name="storage.stack.rectangle.queue.process.package.node.hexagon" data-source-line="8" id="ent0009"><path d="M175,632.15 L236.25,313 L603.75,313 L665,632.15 L603.75,951.3 L236.25,951.3 L175,632.15" fill="none" style="stroke:#181818;stroke-width:1;"/><text fill="#000000" font-family="sans-serif" font-size="14" font-weight="700" lengthAdjust="spacing" textLength="67.5459" x="386.2271" y="327.9951">hexagon</text></g><!--cluster frame--><g class="cluster" data-qualified-name="storage.stack.rectangle.queue.process.package.node.hexagon.frame" data-source-line="9" id="ent0010"><rect fill="none" height="571.3" rx="2.5" ry="2.5" style="stroke:#181818;stroke-width:1;" width="442" x="199" y="356"/><path d="M255.5254,356 L255.5254,365.2969 L245.5254,375.2969 L199,375.2969" fill="none" style="stroke:#181818;stroke-width:1;"/><text fill="#000000" font-family="sans-serif" font-size="14" font-weight="700" lengthAdjust="spacing" textLength="46.5254" x="202" y="369.9951">frame</text></g><!--cluster folder--><g class="cluster" data-qualified-name="storage.stack.rectangle.queue.process.package.node.hexagon.frame.folder" data-source-line="10" id="ent0011"><path d="M225.5,399 L273.4287,399 A3.75,3.75 0 0 1 275.9287,401.5 L282.9287,421.2969 L614.5,421.2969 A2.5,2.5 0 0 1 617,423.7969 L617,900.8 A2.5,2.5 0 0 1 614.5,903.3 L225.5,903.3 A2.5,2.5 0 0 1 223,900.8 L223,401.5 A2.5,2.5 0 0 1 225.5,399" fill="none" style="stroke:#000000;stroke-width:1.5;"/><line style="stroke:#000000;stroke-width:1.5;" x1="223" x2="282.9287" y1="421.2969" y2="421.2969"/><text fill="#000000" font-family="sans-serif" font-size="14" font-weight="700" lengthAdjust="spacing" textLength="46.9287" x="227" y="413.9951">folder</text></g><!--cluster file--><g class="cluster" data-qualified-name="storage.stack.rectangle.queue.process.package.node.hexagon.frame.folder.file" data-source-line="11" id="ent0012"><path d="M247,444.5 L247,876.8 A2.5,2.5 0 0 0 249.5,879.3 L590.5,879.3 A2.5,2.5 0 0 0 593,876.8 L593,452 L583,442 L249.5,442 A2.5,2.5 0 0 0 247,444.5" fill="none" style="stroke:#181818;stroke-width:1;"/><path d="M583,442 L583,449.5 A2.5,2.5 0 0 0 585.5,452 L593,452" fill="none" style="stroke:#181818;stroke-width:1;"/><text fill="#000000" font-family="sans-serif" font-size="14" font-weight="700" lengthAdjust="spacing" textLength="25.1836" x="407.4082" y="456.9951">file</text></g><!--cluster database--><g class="cluster" data-qualified-name="storage.stack.rectangle.queue.process.package.node.hexagon.frame.folder.file.database" data-source-line="12" id="ent0013"><path d="M271,495 C271,485 420,485 420,485 C420,485 569,485 569,495 L569,845.3 C569,855.3 420,855.3 420,855.3 C420,855.3 271,855.3 271,845.3 L271,495" fill="none" style="stroke:#181818;stroke-width:1;"/><path d="M271,495 C271,505 420,505 420,505 C420,505 569,505 569,495" fill="none" style="stroke:#181818;stroke-width:1;"/><text fill="#000000" font-family="sans-serif" font-size="14" font-weight="700" lengthAdjust="spacing" textLength="72.9053" x="383.5474" y="519.9951">database</text></g><!--cluster component--><g class="cluster" data-qualified-name="storage.stack.rectangle.queue.process.package.node.hexagon.frame.folder.file.database.component" data-source-line="13" id="ent0014"><rect fill="none" height="288.3" rx="2.5" ry="2.5" style="stroke:#181818;stroke-width:1;" width="250" x="295" y="543"/><rect fill="none" height="10" style="stroke:#181818;stroke-width:1;" width="15" x="525" y="548"/><rect fill="none" height="2" style="stroke:#181818;stroke-width:1;" width="4" x="523" y="550"/><rect fill="none" height="2" style="stroke:#181818;stroke-width:1;" width="4" x="523" y="554"/><text fill="#000000" font-family="sans-serif" font-size="14" font-weight="700" lengthAdjust="spacing" textLength="88.2656" x="375.8672" y="568.9951">component</text></g><!--cluster cloud--><g class="cluster" data-qualified-name="storage.stack.rectangle.queue.process.package.node.hexagon.frame.folder.file.database.component.cloud" data-source-line="14" id="ent0015"><path d="M335.1371,594.6665 C339.4813,585.8904 345.6597,587.3501 350.8782,593.7603 C355.5401,586.2034 361.0948,587.774 365.1377,594.3835 C368.4643,588.4398 374.2229,588.783 377.3959,594.5443 C382.0402,587.5111 387.7542,588.9635 391.4701,595.5067 C395.3452,588.7261 400.8428,588.0683 406.297,593.6061 C410.8093,587.3463 415.5796,586.6369 420.8341,592.7329 C424.9149,586.2653 431.5833,586.3975 435.6953,592.6967 C441.648,586.4588 446.3218,588.4578 450.073,595.1455 C453.4384,587.8981 458.93,588.2798 463.55,593.8236 C469.4767,588.1335 474.1382,587.7566 477.7712,596.1411 C481.7818,588.9866 487.947,586.3896 493.5518,594.4923 C502.2672,586.6929 510.4707,590.3123 513,601 C514.2616,600.7156 515.0509,601.4271 514.6058,602.7284 C521.6405,607.0163 522.2728,614.8154 514.8157,619.287 C521.9551,623.6855 523.9204,628.804 516.9546,635.1093 C525.2682,638.9442 524.1835,644.9998 517.9688,649.8352 C526.6534,654.7031 528.5049,659.9879 520.3761,667.1883 C528.6242,671.3566 528.1637,678.7746 520.1597,682.7164 C527.4294,686.3783 527.3149,693.8183 520.6482,697.9278 C528.2294,702.1952 528.2581,709.0643 520.9619,713.629 C528.2934,718.7865 528.2118,726.7262 519.9995,731.0236 C526.4307,736.4509 523.4788,741.7024 517.226,744.5239 C525.6975,750.6201 524.2393,756.3493 516.4234,761.6837 C523.7042,766.6425 524.1886,772.7298 516.9869,778.1833 C525.0527,789.928 520.5425,799.3182 506,799.3 C506.8766,798.5476 507.804,798.6279 508.1093,799.8963 C504.0843,808.9012 498.7477,808.672 492.148,802.6269 C487.7907,808.6617 483.4857,810.315 478.62,803.1478 C473.2545,809.4363 468.4812,810.5912 463.4512,802.7866 C459.2672,808.0688 455.5665,808.3822 451.1017,803.1153 C445.717,809.3803 441.0695,810.5687 436.1984,802.5784 C432.9185,810.6363 425.8304,811.3886 421.242,803.8317 C416.763,812.4934 411.0202,810.6877 405.7067,804.7177 C401.1947,810.2463 396.4407,811.3623 392.4415,804.1824 C387.6851,810.0203 382.5905,810.7769 378.4217,803.5517 C373.773,808.6706 368.9572,809.6749 365.1839,802.6012 C359.9921,809.8551 353.1009,809.1941 349.9618,800.6263 C338.0178,809.2852 330.6238,806.5861 327,792.3 C328.407,792.657 328.4509,793.8257 327.5263,794.6951 C319.0002,790.685 317.237,782.1954 326.3615,777.0219 C319.2477,772.1666 319.2671,766.7104 326.1569,761.6686 C319.856,756.2532 319.9174,751.3636 326.7455,746.4563 C317.4275,742.6994 317.6068,736.7953 323.968,730.3368 C316.2234,726.4374 316.7069,719.5905 322.7885,714.6514 C314.9148,710.2002 316.2748,702.2915 323.1885,698.1998 C315.6778,693.9166 316.7882,687.0482 323.7697,683.3315 C314.5741,677.43 316.4854,668.9307 325.5739,664.8104 C317.859,659.3424 318.832,654.0007 326.2588,649.197 C318.228,644.0136 317.8758,639.3195 325.8817,633.7448 C318.5633,627.8867 319.3975,622.8674 327.0991,618.1846 C316.3956,607.9223 320.5653,597.3746 334,594 C334.6758,593.7281 335.0393,593.9524 335.1371,594.6665" fill="none" style="stroke:#181818;stroke-width:1;"/><text fill="#000000" font-family="sans-serif" font-size="14" font-weight="700" lengthAdjust="spacing" textLength="42.7041" x="398.6479" y="611.9951">cloud</text></g><!--cluster card--><g class="cluster" data-qualified-name="storage.stack.rectangle.queue.process.package.node.hexagon.frame.folder.file.database.component.cloud.card" data-source-line="15" id="ent0016"><rect fill="none" height="154.3" rx="2.5" ry="2.5" style="stroke:#181818;stroke-width:1;" width="154" x="343" y="629"/><line style="stroke:#181818;stroke-width:1;" x1="343" x2="497" y1="649.2969" y2="649.2969"/><text fill="#000000" font-family="sans-serif" font-size="14" font-weight="700" lengthAdjust="spacing" textLength="34.6719" x="402.6641" y="643.9951">card</text></g><!--cluster artifact--><g class="cluster" data-qualified-name="storage.stack.rectangle.queue.process.package.node.hexagon.frame.folder.file.database.component.cloud.card.artifact" data-source-line="16" id="ent0017"><rect fill="none" height="87.3" rx="2.5" ry="2.5" style="stroke:#181818;stroke-width:1;" width="106" x="367" y="672"/><polygon fill="none" points="456,677,456,691,468,691,468,683,462,677,456,677" style="stroke:#181818;stroke-width:1;"/><line style="stroke:#181818;stroke-width:1;" x1="462" x2="462" y1="677" y2="683"/><line style="stroke:#181818;stroke-width:1;" x1="468" x2="462" y1="683" y2="683"/><text fill="#000000" font-family="sans-serif" font-size="14" font-weight="700" lengthAdjust="spacing" textLength="58.3721" x="390.814" y="686.9951">artifact</text></g><!--entity action--><g class="entity" data-qualified-name="storage.stack.rectangle.queue.process.package.node.hexagon.frame.folder.file.database.component.cloud.card.artifact.action" data-source-line="17" id="ent0018"><polygon fill="#F1F1F1" points="383.45,707,446.5438,707,456.5438,725.1484,446.5438,743.2969,383.45,743.2969" style="stroke:#181818;stroke-width:0.5;"/><text fill="#000000" font-family="sans-serif" font-size="14" lengthAdjust="spacing" textLength="43.0938" x="393.45" y="729.9951">action</text></g><?plantuml-src XOxT2iCm24RlVGfVpIKsAsjZPomCPEy-s_JdSWJE-JuX9ir4gJ2smmxDABsmqq4v6TKoCTx9uRtoojZfiAWaRWrFnoGkRzjEErJ9Z3iSdloX8XLFEmnACsDdD9aoAnwAFiQZEnmo6JseCLx18ScyIELgUAUOJh9cx8n66cM30wcD0oN3AyGisHXVEUJm_NT-?></g></svg>