<svg xmlns="http://www.w3.org/2000/svg" xmlns:xlink="http://www.w3.org/1999/xlink" contentStyleType="text/css" data-diagram-type="DESCRIPTION" height="546px" preserveAspectRatio="none" style="width:692px;height:546px;background:#FFFFFF;" version="1.1" viewBox="0 0 692 546" width="692px" zoomAndPan="magnify"><?plantuml 1.2026.3beta5?><defs/><g><!--entity actor--><g class="entity" data-qualified-name="actor" data-source-line="11" id="ent0002"><ellipse cx="49.5835" cy="14" fill="#98FB98" rx="8" ry="8" style="stroke:#FF0000;stroke-width:1;"/><path d="M49.5835,22 L49.5835,49 M36.5835,30 L62.5835,30 M49.5835,49 L36.5835,64 M49.5835,49 L62.5835,64" fill="none" style="stroke:#FF0000;stroke-width:1;"/><text fill="#000000" font-family="sans-serif" font-size="14" lengthAdjust="spacing" textLength="36.0869" x="31.54" y="78.9951">actor</text></g><!--entity actor/--><g class="entity" data-qualified-name="actor." data-source-line="12" id="ent0003"><ellipse cx="122.5819" cy="14" fill="#98FB98" rx="8" ry="8" style="stroke:#FF0000;stroke-width:1;"/><line style="stroke:#FF0000;stroke-width:1;" x1="120.638" x2="130.3421" y1="21.7603" y2="12.0562"/><path d="M122.5819,22 L122.5819,49 M109.5819,30 L135.5819,30 M122.5819,49 L109.5819,64 M122.5819,49 L135.5819,64" fill="none" style="stroke:#FF0000;stroke-width:1;"/><text fill="#000000" font-family="sans-serif" font-size="14" lengthAdjust="spacing" textLength="40.8037" x="102.18" y="78.9951">actor/</text></g><!--entity agent--><g class="entity" data-qualified-name="agent" data-source-line="13" id="ent0004"><rect fill="#98FB98" height="36.2969" rx="2.5" ry="2.5" style="stroke:#FF0000;stroke-width:1;" width="60.4414" x="178.36" y="25.5"/><text fill="#000000" font-family="sans-serif" font-size="14" lengthAdjust="spacing" textLength="40.4414" x="188.36" y="48.4951">agent</text></g><!--entity artifact--><g class="entity" data-qualified-name="artifact" data-source-line="14" id="ent0005"><rect fill="#98FB98" height="39.2969" rx="2.5" ry="2.5" style="stroke:#FF0000;stroke-width:1;" width="80.4082" x="273.38" y="24"/><polygon fill="#98FB98" points="336.7882,29,336.7882,43,348.7882,43,348.7882,35,342.7882,29,336.7882,29" style="stroke:#FF0000;stroke-width:1;"/><line style="stroke:#FF0000;stroke-width:1;" x1="342.7882" x2="342.7882" y1="29" y2="35"/><line style="stroke:#FF0000;stroke-width:1;" x1="348.7882" x2="342.7882" y1="35" y2="35"/><text fill="#000000" font-family="sans-serif" font-size="14" lengthAdjust="spacing" textLength="50.4082" x="283.38" y="49.9951">artifact</text></g><!--entity boundary--><g class="entity" data-qualified-name="boundary" data-source-line="15" id="ent0006"><path d="M402.0825,23.5 L402.0825,47.5 M402.0825,35.5 L419.0825,35.5" fill="none" style="stroke:#FF0000;stroke-width:1;"/><ellipse cx="431.0825" cy="35.5" fill="#98FB98" rx="12" ry="12" style="stroke:#FF0000;stroke-width:1;"/><text fill="#000000" font-family="sans-serif" font-size="14" lengthAdjust="spacing" textLength="66.7051" x="389.23" y="64.4951">boundary</text></g><!--entity card--><g class="entity" data-qualified-name="card" data-source-line="16" id="ent0007"><rect fill="#98FB98" height="22.2969" rx="2.5" ry="2.5" style="stroke:#FF0000;stroke-width:1;" width="50.9189" x="491.12" y="32.5"/><text fill="#000000" font-family="sans-serif" font-size="14" lengthAdjust="spacing" textLength="30.9189" x="501.12" y="48.4951">card</text></g><!--entity circle--><g class="entity" data-qualified-name="circle" data-source-line="17" id="ent0008"><ellipse cx="49.58" cy="171.29" fill="#98FB98" rx="8" ry="8" style="stroke:#FF0000;stroke-width:1;"/><text fill="#000000" font-family="sans-serif" font-size="14" lengthAdjust="spacing" textLength="37.543" x="30.8085" y="201.2851">circle</text></g><!--entity cloud--><g class="entity" data-qualified-name="cloud" data-source-line="18" id="ent0009"><path d="M119.6439,156.5065 C123.3023,148.9983 129.0396,149.1273 133.6054,155.6004 C136.9103,148.8364 142.5384,147.8366 146.7075,154.7739 C150.6533,148.4978 155.716,150.1786 158.859,155.6073 C162.7559,149.029 169.4284,150.5425 172.4101,156.5896 C181.327,159.7924 183.7086,166.4816 176.2068,173.394 C180.7908,179.9987 180.6756,184.4545 171.8671,186.687 C170.4687,192.8814 165.1522,195.1815 160.5857,189.7653 C156.5034,197.3161 151.6999,197.7781 145.756,191.8069 C141.1048,196.7748 135.8516,195.0269 133.3805,189.2872 C128.889,195.0098 123.7348,194.9731 120.5774,187.9474 C111.3514,187.1005 108.3511,180.8686 113.5825,173.1757 C107.5082,164.6434 109.5078,159.1442 119.6439,156.5065" fill="#98FB98" style="stroke:#FF0000;stroke-width:1;"/><text fill="#000000" font-family="sans-serif" font-size="14" lengthAdjust="spacing" textLength="37.9121" x="126.63" y="176.1351">cloud</text></g><!--entity collections--><g class="entity" data-qualified-name="collections" data-source-line="19" id="ent0010"><rect fill="#98FB98" height="32.2969" rx="2.5" ry="2.5" style="stroke:#FF0000;stroke-width:1;" width="90.4639" x="218.35" y="157.14"/><rect fill="#98FB98" height="32.2969" rx="2.5" ry="2.5" style="stroke:#FF0000;stroke-width:1;" width="90.4639" x="214.35" y="153.14"/><text fill="#000000" font-family="sans-serif" font-size="14" lengthAdjust="spacing" textLength="74.4639" x="222.35" y="174.1351">collections</text></g><!--entity component--><g class="entity" data-qualified-name="component" data-source-line="20" id="ent0011"><rect fill="#98FB98" height="46.2969" rx="2.5" ry="2.5" style="stroke:#FF0000;stroke-width:1;" width="119.2012" x="343.98" y="148.14"/><rect fill="#98FB98" height="10" style="stroke:#FF0000;stroke-width:1;" width="15" x="443.1812" y="153.14"/><rect fill="#98FB98" height="2" style="stroke:#FF0000;stroke-width:1;" width="4" x="441.1812" y="155.14"/><rect fill="#98FB98" height="2" style="stroke:#FF0000;stroke-width:1;" width="4" x="441.1812" y="159.14"/><text fill="#000000" font-family="sans-serif" font-size="14" lengthAdjust="spacing" textLength="79.2012" x="358.98" y="181.1351">component</text></g><!--entity control--><g class="entity" data-qualified-name="control" data-source-line="21" id="ent0012"><ellipse cx="522.588" cy="163.14" fill="#98FB98" rx="12" ry="12" style="stroke:#FF0000;stroke-width:1;"/><polygon fill="#FF0000" points="518.588,151.14,524.588,146.14,522.588,151.14,524.588,156.14,518.588,151.14" style="stroke:#FF0000;stroke-width:1;"/><text fill="#000000" font-family="sans-serif" font-size="14" lengthAdjust="spacing" textLength="48.8359" x="498.17" y="192.1351">control</text></g><!--entity database--><g class="entity" data-qualified-name="database" data-source-line="22" id="ent0013"><path d="M582.13,158.64 C582.13,148.64 624.5836,148.64 624.5836,148.64 C624.5836,148.64 667.0372,148.64 667.0372,158.64 L667.0372,183.9369 C667.0372,193.9369 624.5836,193.9369 624.5836,193.9369 C624.5836,193.9369 582.13,193.9369 582.13,183.9369 L582.13,158.64" fill="#98FB98" style="stroke:#FF0000;stroke-width:1;"/><path d="M582.13,158.64 C582.13,168.64 624.5836,168.64 624.5836,168.64 C624.5836,168.64 667.0372,168.64 667.0372,158.64" fill="none" style="stroke:#FF0000;stroke-width:1;"/><text fill="#000000" font-family="sans-serif" font-size="14" lengthAdjust="spacing" textLength="64.9072" x="592.13" y="185.6351">database</text></g><!--entity entity--><g class="entity" data-qualified-name="entity" data-source-line="23" id="ent0014"><ellipse cx="49.5798" cy="281.14" fill="#98FB98" rx="12" ry="12" style="stroke:#FF0000;stroke-width:1;"/><line style="stroke:#FF0000;stroke-width:1;" x1="37.5798" x2="61.5798" y1="295.14" y2="295.14"/><text fill="#000000" font-family="sans-serif" font-size="14" lengthAdjust="spacing" textLength="40.6396" x="29.26" y="310.1351">entity</text></g><!--entity file--><g class="entity" data-qualified-name="file" data-source-line="24" id="ent0015"><path d="M104.92,273.64 L104.92,304.9369 A2.5,2.5 0 0 0 107.42,307.4369 L143.7413,307.4369 A2.5,2.5 0 0 0 146.2413,304.9369 L146.2413,281.14 L136.2413,271.14 L107.42,271.14 A2.5,2.5 0 0 0 104.92,273.64" fill="#98FB98" style="stroke:#FF0000;stroke-width:1;"/><path d="M136.2413,271.14 L136.2413,278.64 A2.5,2.5 0 0 0 138.7413,281.14 L146.2413,281.14" fill="#98FB98" style="stroke:#FF0000;stroke-width:1;"/><text fill="#000000" font-family="sans-serif" font-size="14" lengthAdjust="spacing" textLength="21.3213" x="114.92" y="294.1351">file</text></g><!--entity folder--><g class="entity" data-qualified-name="folder" data-source-line="25" id="ent0016"><path d="M183.76,262.14 L224.76,262.14 A3.75,3.75 0 0 1 227.26,264.64 L234.26,283.14 L249.3996,283.14 A2.5,2.5 0 0 1 251.8996,285.64 L251.8996,313.9369 A2.5,2.5 0 0 1 249.3996,316.4369 L183.76,316.4369 A2.5,2.5 0 0 1 181.26,313.9369 L181.26,264.64 A2.5,2.5 0 0 1 183.76,262.14" fill="#98FB98" style="stroke:#FF0000;stroke-width:1;"/><line style="stroke:#FF0000;stroke-width:1;" x1="181.26" x2="234.26" y1="283.14" y2="283.14"/><text fill="#000000" font-family="sans-serif" font-size="14" lengthAdjust="spacing" textLength="40.6396" x="191.26" y="303.1351">folder</text></g><!--entity frame--><g class="entity" data-qualified-name="frame" data-source-line="26" id="ent0017"><rect fill="#98FB98" height="46.2969" rx="2.5" ry="2.5" style="stroke:#FF0000;stroke-width:1;" width="81.5146" x="286.83" y="266.14"/><path d="M314.0015,266.14 L314.0015,271.14 L307.0015,278.14 L286.83,278.14" fill="none" style="stroke:#FF0000;stroke-width:1;"/><text fill="#000000" font-family="sans-serif" font-size="14" lengthAdjust="spacing" textLength="41.5146" x="301.83" y="299.1351">frame</text></g><!--entity hexagon--><g class="entity" data-qualified-name="hexagon" data-source-line="27" id="ent0018"><polygon fill="#98FB98" points="524.26,289.29,493.92,276.14,433.25,276.14,402.91,289.29,433.25,302.44,493.92,302.44,524.26,289.29" style="stroke:#FF0000;stroke-width:1;"/><text fill="#000000" font-family="sans-serif" font-size="14" lengthAdjust="spacing" textLength="60.6758" x="433.2479" y="294.1351">hexagon</text></g><!--entity interface--><g class="entity" data-qualified-name="interface" data-source-line="28" id="ent0019"><ellipse cx="598.58" cy="289.29" fill="#98FB98" rx="8" ry="8" style="stroke:#FF0000;stroke-width:1;"/><text fill="#000000" font-family="sans-serif" font-size="14" lengthAdjust="spacing" textLength="62.4395" x="567.3603" y="319.2851">interface</text></g><!--entity label--><g class="entity" data-qualified-name="label" data-source-line="29" id="ent0020"><text fill="#000000" font-family="sans-serif" font-size="14" lengthAdjust="spacing" textLength="33.8584" x="32.65" y="411.7151">label</text></g><!--entity node--><g class="entity" data-qualified-name="node" data-source-line="30" id="ent0021"><polygon fill="#98FB98" points="111.11,393.72,121.11,383.72,186.0485,383.72,186.0485,420.0169,176.0485,430.0169,111.11,430.0169,111.11,393.72" style="stroke:#FF0000;stroke-width:1;"/><line style="stroke:#FF0000;stroke-width:1;" x1="176.0485" x2="186.0485" y1="393.72" y2="383.72"/><line style="stroke:#FF0000;stroke-width:1;" x1="111.11" x2="176.0485" y1="393.72" y2="393.72"/><line style="stroke:#FF0000;stroke-width:1;" x1="176.0485" x2="176.0485" y1="393.72" y2="430.0169"/><text fill="#000000" font-family="sans-serif" font-size="14" lengthAdjust="spacing" textLength="34.9385" x="126.11" y="416.7151">node</text></g><!--entity package--><g class="entity" data-qualified-name="package" data-source-line="31" id="ent0022"><path d="M223.06,387.22 L302.102,387.22 A3.75,3.75 0 0 1 304.602,389.72 L311.602,409.5169 L326.102,409.5169 A2.5,2.5 0 0 1 328.602,412.0169 L328.602,424.0169 A2.5,2.5 0 0 1 326.102,426.5169 L223.06,426.5169 A2.5,2.5 0 0 1 220.56,424.0169 L220.56,389.72 A2.5,2.5 0 0 1 223.06,387.22" fill="#98FB98" style="stroke:#FF0000;stroke-width:1;"/><line style="stroke:#FF0000;stroke-width:1;" x1="220.56" x2="311.602" y1="409.5169" y2="409.5169"/><text fill="#000000" font-family="sans-serif" font-size="14" font-weight="700" lengthAdjust="spacing" textLength="66.042" x="230.56" y="403.2151">package</text></g><!--entity person--><g class="entity" data-qualified-name="person" data-source-line="32" id="ent0023"><ellipse cx="397.5841" cy="388.7221" fill="#98FB98" rx="10.4321" ry="10.4321" style="stroke:#FF0000;stroke-width:1;"/><rect fill="#98FB98" height="36.2969" rx="10.4321" ry="10.4321" style="stroke:#FF0000;stroke-width:1;" width="67.9883" x="363.59" y="399.1542"/><text fill="#000000" font-family="sans-serif" font-size="14" lengthAdjust="spacing" textLength="47.9883" x="373.59" y="422.1493">person</text></g><!--entity queue--><g class="entity" data-qualified-name="queue" data-source-line="33" id="ent0024"><path d="M471.65,393.72 L525.5094,393.72 C530.5094,393.72 530.5094,406.8684 530.5094,406.8684 C530.5094,406.8684 530.5094,420.0169 525.5094,420.0169 L471.65,420.0169 C466.65,420.0169 466.65,406.8684 466.65,406.8684 C466.65,406.8684 466.65,393.72 471.65,393.72" fill="#98FB98" style="stroke:#FF0000;stroke-width:1;"/><path d="M525.5094,393.72 C520.5094,393.72 520.5094,406.8684 520.5094,406.8684 C520.5094,420.0169 525.5094,420.0169 525.5094,420.0169" fill="none" style="stroke:#FF0000;stroke-width:1;"/><text fill="#000000" font-family="sans-serif" font-size="14" lengthAdjust="spacing" textLength="43.8594" x="471.65" y="411.7151">queue</text></g><!--entity rectangle--><g class="entity" data-qualified-name="rectangle" data-source-line="34" id="ent0025"><rect fill="#98FB98" height="36.2969" rx="2.5" ry="2.5" style="stroke:#FF0000;stroke-width:1;" width="86.3975" x="565.38" y="388.72"/><text fill="#000000" font-family="sans-serif" font-size="14" lengthAdjust="spacing" textLength="66.3975" x="575.38" y="411.7151">rectangle</text></g><!--entity stack--><g class="entity" data-qualified-name="stack" data-source-line="35" id="ent0026"><rect fill="#98FB98" height="36.2969" rx="2.5" ry="2.5" style="stroke:none;stroke-width:1;" width="57.167" x="21" y="495.45"/><path d="M6,495.45 L18.5,495.45 A2.5,2.5 0 0 1 21,497.95 L21,529.2469 A2.5,2.5 0 0 0 23.5,531.7469 L75.667,531.7469 A2.5,2.5 0 0 0 78.167,529.2469 L78.167,497.95 A2.5,2.5 0 0 1 80.667,495.45 L93.167,495.45" fill="none" style="stroke:#FF0000;stroke-width:1;"/><text fill="#000000" font-family="sans-serif" font-size="14" lengthAdjust="spacing" textLength="37.167" x="31" y="518.4451">stack</text></g><!--entity storage--><g class="entity" data-qualified-name="storage" data-source-line="36" id="ent0027"><rect fill="#98FB98" height="36.2969" rx="35" ry="35" style="stroke:#FF0000;stroke-width:1;" width="73.1836" x="127.99" y="495.45"/><text fill="#000000" font-family="sans-serif" font-size="14" lengthAdjust="spacing" textLength="53.1836" x="137.99" y="518.4451">storage</text></g><!--entity usecase--><g class="entity" data-qualified-name="usecase" data-source-line="37" id="ent0028"><ellipse cx="279.5795" cy="513.6036" fill="#98FB98" rx="43.2795" ry="14.5236" style="stroke:#FF0000;stroke-width:1;"/><text fill="#000000" font-family="sans-serif" font-size="14" lengthAdjust="spacing" textLength="56.9639" x="251.0976" y="518.2521">usecase</text></g><!--entity usecase/--><g class="entity" data-qualified-name="usecase." data-source-line="38" id="ent0029"><ellipse cx="415.5803" cy="513.5964" fill="#98FB98" rx="57.2703" ry="14.6864" style="stroke:#FF0000;stroke-width:1;"/><text fill="#000000" font-family="sans-serif" font-size="14" lengthAdjust="spacing" textLength="61.6807" x="381.24" y="517.344">usecase/</text><line style="stroke:#FF0000;stroke-width:1;" x1="468.2859" x2="452.379" y1="508.4767" y2="524.3837"/></g><?plantuml-src RP51JiGm34NtFeKr5nYn7x4093OikO0dSJlHf75nKWqZnDrnchImOFF-hvt-nkufbtlaHt0opP8ubPT0ezA4Nu3uHExwgh8a_onH56UAF2fpijvRIFn-2UwQE6Tyw9LsJjd3DtXnosI9_qRTBg6m7JeT-mN85IklRFw8XwO7eB76h0JI4WPhu6RWN5D9xxWPSAGUAy05TP6n2RWeYpKgRU0OsPKWAUCV_xi8t9tLKb69s1Ky5JfJPjmCsAbGxjW4Xc3Vh811ecV59Z3OOgrH2HV-f54ITeMG2glDmxWxY7JcY2iXYMUiWDbMQRl0hZ2pPWjg0XyBBumhGMqeIgDTPdUGYxs6AysBrgIki6HsTQoksxFzYSqTVW00?></g></svg>