<svg xmlns="http://www.w3.org/2000/svg" xmlns:xlink="http://www.w3.org/1999/xlink" contentStyleType="text/css" data-diagram-type="DESCRIPTION" height="242px" preserveAspectRatio="none" style="width:493px;height:242px;background:#FFFFFF;" version="1.1" viewBox="0 0 493 242" width="493px" zoomAndPan="magnify"><?plantuml 1.2026.3beta5?><defs/><g><g class="title" data-source-line="1"><text fill="#000000" font-family="sans-serif" font-size="14" font-weight="700" lengthAdjust="spacing" textLength="194.3389" x="146.1682" y="22.9951">Bracketed line thickness</text></g><!--entity foo--><g class="entity" data-qualified-name="foo" data-source-line="2" id="ent0002"><polygon fill="#F1F1F1" points="208.5808,53.2969,218.5808,43.2969,270.6404,43.2969,270.6404,79.5938,260.6404,89.5938,208.5808,89.5938,208.5808,53.2969" style="stroke:#181818;stroke-width:0.5;"/><line style="stroke:#181818;stroke-width:0.5;" x1="260.6404" x2="270.6404" y1="53.2969" y2="43.2969"/><line style="stroke:#181818;stroke-width:0.5;" x1="208.5808" x2="260.6404" y1="53.2969" y2="53.2969"/><line style="stroke:#181818;stroke-width:0.5;" x1="260.6404" x2="260.6404" y1="53.2969" y2="89.5938"/><text fill="#000000" font-family="sans-serif" font-size="14" lengthAdjust="spacing" textLength="22.0596" x="223.5808" y="76.292">foo</text></g><!--entity bar--><g class="entity" data-qualified-name="bar" data-source-line="3" id="ent0003"><ellipse cx="17.6108" cy="195.5969" fill="#F1F1F1" rx="8" ry="8" style="stroke:#181818;stroke-width:0.5;"/><text fill="#000000" font-family="sans-serif" font-size="14" lengthAdjust="spacing" textLength="23.2217" x="6" y="225.592">bar</text></g><!--entity bar1--><g class="entity" data-qualified-name="bar1" data-source-line="4" id="ent0005"><ellipse cx="106.6108" cy="195.5969" fill="#F1F1F1" rx="8" ry="8" style="stroke:#181818;stroke-width:0.5;"/><text fill="#000000" font-family="sans-serif" font-size="14" lengthAdjust="spacing" textLength="32.1289" x="90.5464" y="225.592">bar1</text></g><!--entity bar2--><g class="entity" data-qualified-name="bar2" data-source-line="5" id="ent0007"><ellipse cx="195.6108" cy="195.5969" fill="#F1F1F1" rx="8" ry="8" style="stroke:#181818;stroke-width:0.5;"/><text fill="#000000" font-family="sans-serif" font-size="14" lengthAdjust="spacing" textLength="32.1289" x="179.5464" y="225.592">bar2</text></g><!--entity bar3--><g class="entity" data-qualified-name="bar3" data-source-line="6" id="ent0009"><ellipse cx="284.6108" cy="195.5969" fill="#F1F1F1" rx="8" ry="8" style="stroke:#181818;stroke-width:0.5;"/><text fill="#000000" font-family="sans-serif" font-size="14" lengthAdjust="spacing" textLength="32.1289" x="268.5464" y="225.592">bar3</text></g><!--entity bar4--><g class="entity" data-qualified-name="bar4" data-source-line="7" id="ent0011"><ellipse cx="373.6108" cy="195.5969" fill="#F1F1F1" rx="8" ry="8" style="stroke:#181818;stroke-width:0.5;"/><text fill="#000000" font-family="sans-serif" font-size="14" lengthAdjust="spacing" textLength="32.1289" x="357.5464" y="225.592">bar4</text></g><!--entity bar5--><g class="entity" data-qualified-name="bar5" data-source-line="8" id="ent0013"><ellipse cx="462.6108" cy="195.5969" fill="#F1F1F1" rx="8" ry="8" style="stroke:#181818;stroke-width:0.5;"/><text fill="#000000" font-family="sans-serif" font-size="14" lengthAdjust="spacing" textLength="32.1289" x="446.5464" y="225.592">bar5</text></g><!--link foo to bar--><g class="link" data-entity-1="ent0002" data-entity-2="ent0003" data-link-type="dependency" data-source-line="3" id="lnk4"><path d="M208.1008,84.2769 C172.2808,103.5769 112.2008,136.4469 61.6108,166.5969 C49.1708,174.0169 40.1101,179.8095 31.3001,185.5795" fill="none" id="foo-to-bar" style="stroke:#181818;stroke-width:1;"/><polygon fill="#181818" points="26.2808,188.8669,36.0014,187.2821,30.4636,186.1274,31.6182,180.5897,26.2808,188.8669" style="stroke:#181818;stroke-width:1;"/><text fill="#000000" font-family="sans-serif" font-size="13" lengthAdjust="spacing" textLength="11.3242" x="140.6108" y="132.6638">&#8709;</text></g><!--link foo to bar1--><g class="link" data-entity-1="ent0002" data-entity-2="ent0005" data-link-type="dependency" data-source-line="4" id="lnk6"><path d="M216.1408,89.8869 C185.8608,118.8369 139.0674,163.5702 119.1974,182.5702" fill="none" id="foo-to-bar1" style="stroke:#181818;stroke-width:1;"/><polygon fill="#181818" points="114.8608,186.7169,124.13,183.3879,118.4746,183.2613,118.6012,177.6059,114.8608,186.7169" style="stroke:#181818;stroke-width:1;"/><text fill="#000000" font-family="sans-serif" font-size="13" lengthAdjust="spacing" textLength="18.4146" x="185.6108" y="132.6638">[1]</text></g><!--link foo to bar2--><g class="link" data-entity-1="ent0002" data-entity-2="ent0007" data-link-type="dependency" data-source-line="5" id="lnk8"><path d="M231.8408,89.8869 C221.8308,118.8369 206.8717,162.0463 200.3017,181.0463" fill="none" id="foo-to-bar2" style="stroke:#181818;stroke-width:2;"/><polygon fill="#181818" points="198.3408,186.7169,205.0624,179.5183,199.9749,181.9914,197.5017,176.9038,198.3408,186.7169" style="stroke:#181818;stroke-width:2;"/><text fill="#000000" font-family="sans-serif" font-size="13" lengthAdjust="spacing" textLength="18.4146" x="221.6108" y="132.6638">[2]</text></g><!--link foo to bar3--><g class="link" data-entity-1="ent0002" data-entity-2="ent0009" data-link-type="dependency" data-source-line="6" id="lnk10"><path d="M247.5508,89.8869 C257.8008,118.8369 273.1002,162.0603 279.8202,181.0603" fill="none" id="foo-to-bar3" style="stroke:#181818;stroke-width:4;"/><polygon fill="#181818" points="281.8208,186.7169,282.5909,176.8982,280.1536,182.003,275.0488,179.5657,281.8208,186.7169" style="stroke:#181818;stroke-width:4;"/><text fill="#000000" font-family="sans-serif" font-size="13" lengthAdjust="spacing" textLength="18.4146" x="263.6108" y="132.6638">[4]</text></g><!--link foo to bar4--><g class="link" data-entity-1="ent0002" data-entity-2="ent0011" data-link-type="dependency" data-source-line="7" id="lnk12"><path d="M263.2608,89.8869 C293.7608,118.8369 340.9288,163.5865 360.9488,182.5865" fill="none" id="foo-to-bar4" style="stroke:#181818;stroke-width:8;"/><polygon fill="#181818" points="365.3008,186.7169,361.5263,177.62,361.6741,183.2749,356.0192,183.4228,365.3008,186.7169" style="stroke:#181818;stroke-width:8;"/><text fill="#000000" font-family="sans-serif" font-size="13" lengthAdjust="spacing" textLength="18.4146" x="311.6108" y="132.6638">[8]</text></g><!--link foo to bar5--><g class="link" data-entity-1="ent0002" data-entity-2="ent0013" data-link-type="dependency" data-source-line="8" id="lnk14"><path d="M271.0208,83.5169 C290.5808,93.6469 316.2108,107.1269 338.6108,119.5969 C374.6408,139.6569 383.4308,145.0769 418.6108,166.5969 C430.9708,174.1569 440.0351,179.9448 448.8651,185.6648" fill="none" id="foo-to-bar5" style="stroke:#181818;stroke-width:16;"/><polygon fill="#181818" points="453.9008,188.9269,448.522,180.6766,449.7044,186.2085,444.1725,187.3909,453.9008,188.9269" style="stroke:#181818;stroke-width:16;"/><text fill="#000000" font-family="sans-serif" font-size="13" lengthAdjust="spacing" textLength="26.6855" x="368.6108" y="132.6638">[16]</text></g><?plantuml-src AyaioKbLS2fAJCvEBKbDKSZ9p4jLACd8JCxEIoqkvihBJqbLIClFvm9Y1LrTEuMan285T62byAYZ5Q8Y6gxLrZ0MejmGh2BQC1P3XH5KXH54XH6c2XEe2cE82XDC5HPG5IOG5HQOAWpDe4fC8UumYmK0?></g></svg>