<svg xmlns="http://www.w3.org/2000/svg" xmlns:xlink="http://www.w3.org/1999/xlink" contentStyleType="text/css" data-diagram-type="DESCRIPTION" height="235px" preserveAspectRatio="none" style="width:510px;height:235px;background:#FFFFFF;" version="1.1" viewBox="0 0 510 235" width="510px" zoomAndPan="magnify"><?plantuml 1.2026.3beta5?><defs/><g><g class="title" data-source-line="1"><text fill="#000000" font-family="sans-serif" font-size="14" font-weight="700" lengthAdjust="spacing" textLength="0" x="251.8376" y="10">Bracketed line style with label</text></g><!--entity foo--><g class="entity" data-qualified-name="foo" data-source-line="2" id="ent0002"><polygon fill="#F1F1F1" points="208.5808,47,218.5808,37,270.6404,37,270.6404,73.2969,260.6404,83.2969,208.5808,83.2969,208.5808,47" style="stroke:#181818;stroke-width:0.5;"/><line style="stroke:#181818;stroke-width:0.5;" x1="260.6404" x2="270.6404" y1="47" y2="37"/><line style="stroke:#181818;stroke-width:0.5;" x1="208.5808" x2="260.6404" y1="47" y2="47"/><line style="stroke:#181818;stroke-width:0.5;" x1="260.6404" x2="260.6404" y1="47" y2="83.2969"/><text fill="#000000" font-family="sans-serif" font-size="14" lengthAdjust="spacing" textLength="22.0596" x="223.5808" y="69.9951">foo</text></g><!--entity bar--><g class="entity" data-qualified-name="bar" data-source-line="3" id="ent0003"><ellipse cx="17.6108" cy="189.3" fill="#F1F1F1" rx="8" ry="8" style="stroke:#181818;stroke-width:0.5;"/><text fill="#000000" font-family="sans-serif" font-size="14" lengthAdjust="spacing" textLength="23.2217" x="6" y="219.2951">bar</text></g><!--entity bar1--><g class="entity" data-qualified-name="bar1" data-source-line="4" id="ent0005"><ellipse cx="106.6108" cy="189.3" fill="#F1F1F1" rx="8" ry="8" style="stroke:#181818;stroke-width:0.5;"/><text fill="#000000" font-family="sans-serif" font-size="14" lengthAdjust="spacing" textLength="32.1289" x="90.5464" y="219.2951">bar1</text></g><!--entity bar2--><g class="entity" data-qualified-name="bar2" data-source-line="5" id="ent0007"><ellipse cx="195.6108" cy="189.3" fill="#F1F1F1" rx="8" ry="8" style="stroke:#181818;stroke-width:0.5;"/><text fill="#000000" font-family="sans-serif" font-size="14" lengthAdjust="spacing" textLength="32.1289" x="179.5464" y="219.2951">bar2</text></g><!--entity bar3--><g class="entity" data-qualified-name="bar3" data-source-line="6" id="ent0009"><ellipse cx="289.6108" cy="189.3" fill="#F1F1F1" rx="8" ry="8" style="stroke:#181818;stroke-width:0.5;"/><text fill="#000000" font-family="sans-serif" font-size="14" lengthAdjust="spacing" textLength="32.1289" x="273.5464" y="219.2951">bar3</text></g><!--entity bar4--><g class="entity" data-qualified-name="bar4" data-source-line="7" id="ent0011"><ellipse cx="383.6108" cy="189.3" fill="#F1F1F1" rx="8" ry="8" style="stroke:#181818;stroke-width:0.5;"/><text fill="#000000" font-family="sans-serif" font-size="14" lengthAdjust="spacing" textLength="32.1289" x="367.5464" y="219.2951">bar4</text></g><!--entity bar5--><g class="entity" data-qualified-name="bar5" data-source-line="8" id="ent0013"><ellipse cx="479.6108" cy="189.3" fill="#F1F1F1" rx="8" ry="8" style="stroke:#181818;stroke-width:0.5;"/><text fill="#000000" font-family="sans-serif" font-size="14" lengthAdjust="spacing" textLength="32.1289" x="463.5464" y="219.2951">bar5</text></g><!--link foo to bar--><g class="link" data-entity-1="ent0002" data-entity-2="ent0003" data-link-type="dependency" data-source-line="3" id="lnk4"><path d="M208.2308,69.57 C179.4808,78.09 136.3808,92.91 102.6108,113.3 C69.9308,133.04 42.0287,161.5103 28.4587,176.2903" fill="none" id="foo-to-bar" style="stroke:#181818;stroke-width:1;"/><polygon fill="#181818" points="24.4008,180.71,33.4341,176.7857,27.7824,177.0269,27.5412,171.3752,24.4008,180.71" style="stroke:#181818;stroke-width:1;"/><text fill="#000000" font-family="sans-serif" font-size="13" lengthAdjust="spacing" textLength="11.3242" x="103.6108" y="126.3669">&#8709;</text></g><!--link foo to bar1--><g class="link" data-entity-1="ent0002" data-entity-2="ent0005" data-link-type="dependency" data-source-line="4" id="lnk6"><path d="M208.5408,70 C185.6308,77.96 155.1708,91.77 135.6108,113.3 C117.5908,133.14 111.2959,159.4948 108.7659,174.3848" fill="none" id="foo-to-bar1" style="stroke:#181818;stroke-width:2;"/><polygon fill="#181818" points="107.7608,180.3,113.2119,172.0972,108.5984,175.3706,105.325,170.7571,107.7608,180.3" style="stroke:#181818;stroke-width:2;"/><text fill="#000000" font-family="sans-serif" font-size="13" lengthAdjust="spacing" textLength="38.2129" x="136.6108" y="126.3669">[bold]</text></g><!--link foo to bar2--><g class="link" data-entity-1="ent0002" data-entity-2="ent0007" data-link-type="dependency" data-source-line="5" id="lnk8"><path d="M209.2808,83.77 C200.6108,92 192.2508,102.08 187.6108,113.3 C178.1108,136.29 185.011,160.8532 190.281,174.8832" fill="none" id="foo-to-bar2" style="stroke:#181818;stroke-width:1;stroke-dasharray:7,7;"/><polygon fill="#181818" points="192.3908,180.5,192.9707,170.6682,190.6327,175.8193,185.4816,173.4813,192.3908,180.5" style="stroke:#181818;stroke-width:1;"/><text fill="#000000" font-family="sans-serif" font-size="13" lengthAdjust="spacing" textLength="57.624" x="188.6108" y="126.3669">[dashed]</text></g><!--link foo to bar3--><g class="link" data-entity-1="ent0002" data-entity-2="ent0009" data-link-type="dependency" data-source-line="6" id="lnk10"><path d="M248.4308,83.59 C259.8208,112.54 276.8455,155.8361 284.3155,174.8361" fill="none" id="foo-to-bar3" style="stroke:#181818;stroke-width:1;stroke-dasharray:1,3;"/><polygon fill="#181818" points="286.5108,180.42,286.9404,170.5805,284.6814,175.7667,279.4952,173.5077,286.5108,180.42" style="stroke:#181818;stroke-width:1;"/><text fill="#000000" font-family="sans-serif" font-size="13" lengthAdjust="spacing" textLength="52.7935" x="266.6108" y="126.3669">[dotted]</text></g><!--link foo to bar4--><!--link foo to bar5--><g class="link" data-entity-1="ent0002" data-entity-2="ent0013" data-link-type="dependency" data-source-line="8" id="lnk14"><path d="M270.9908,66.02 C306.3008,72.55 364.3508,86.58 407.6108,113.3 C437.4008,131.7 459.904,160.4072 470.744,175.5872" fill="none" id="foo-to-bar5" style="stroke:#181818;stroke-width:1;"/><polygon fill="#181818" points="474.2308,180.47,472.2558,170.8212,471.3252,176.401,465.7454,175.4703,474.2308,180.47" style="stroke:#181818;stroke-width:1;"/><text fill="#000000" font-family="sans-serif" font-size="13" lengthAdjust="spacing" textLength="41.8247" x="428.6108" y="126.3669">[plain]</text></g><?plantuml-src FSqx3i8m383XlQVm1JhmwCB0m3KGWuED4c4bgBM4E00Iv-GaRMEdbhpydoLhKc6uZ7X_iZA1fCmmwMU9xwGH10DBbminF4hfbeM-FqF04ROvmV_tDRg68dIpWrqbAww4K-Jc-rMzD2-gcn-gMt6FYOYp-t5rB-ulmTHugD-jp000?></g></svg>