<svg xmlns="http://www.w3.org/2000/svg" xmlns:xlink="http://www.w3.org/1999/xlink" contentStyleType="text/css" data-diagram-type="DESCRIPTION" height="242px" preserveAspectRatio="none" style="width:412px;height:242px;background:#FFFFFF;" version="1.1" viewBox="0 0 412 242" width="412px" zoomAndPan="magnify"><?plantuml 1.2026.3beta5?><defs/><g><g class="title" data-source-line="1"><text fill="#000000" font-family="sans-serif" font-size="14" font-weight="700" lengthAdjust="spacing" textLength="158.3818" x="123.6467" y="22.9951">Bracketed line color</text></g><!--entity foo--><g class="entity" data-qualified-name="foo" data-source-line="2" id="ent0002"><polygon fill="#F1F1F1" points="161.5808,53.2969,171.5808,43.2969,223.6404,43.2969,223.6404,79.5938,213.6404,89.5938,161.5808,89.5938,161.5808,53.2969" style="stroke:#181818;stroke-width:0.5;"/><line style="stroke:#181818;stroke-width:0.5;" x1="213.6404" x2="223.6404" y1="53.2969" y2="43.2969"/><line style="stroke:#181818;stroke-width:0.5;" x1="161.5808" x2="213.6404" y1="53.2969" y2="53.2969"/><line style="stroke:#181818;stroke-width:0.5;" x1="213.6404" x2="213.6404" y1="53.2969" y2="89.5938"/><text fill="#000000" font-family="sans-serif" font-size="14" lengthAdjust="spacing" textLength="22.0596" x="176.5808" y="76.292">foo</text></g><!--entity bar--><g class="entity" data-qualified-name="bar" data-source-line="3" id="ent0003"><ellipse cx="17.6108" cy="195.5969" fill="#F1F1F1" rx="8" ry="8" style="stroke:#181818;stroke-width:0.5;"/><text fill="#000000" font-family="sans-serif" font-size="14" lengthAdjust="spacing" textLength="23.2217" x="6" y="225.592">bar</text></g><!--entity bar1--><g class="entity" data-qualified-name="bar1" data-source-line="4" id="ent0005"><ellipse cx="106.6108" cy="195.5969" fill="#F1F1F1" rx="8" ry="8" style="stroke:#181818;stroke-width:0.5;"/><text fill="#000000" font-family="sans-serif" font-size="14" lengthAdjust="spacing" textLength="32.1289" x="90.5464" y="225.592">bar1</text></g><!--entity bar2--><g class="entity" data-qualified-name="bar2" data-source-line="5" id="ent0007"><ellipse cx="195.6108" cy="195.5969" fill="#F1F1F1" rx="8" ry="8" style="stroke:#181818;stroke-width:0.5;"/><text fill="#000000" font-family="sans-serif" font-size="14" lengthAdjust="spacing" textLength="32.1289" x="179.5464" y="225.592">bar2</text></g><!--entity bar3--><g class="entity" data-qualified-name="bar3" data-source-line="6" id="ent0009"><ellipse cx="292.6108" cy="195.5969" fill="#F1F1F1" rx="8" ry="8" style="stroke:#181818;stroke-width:0.5;"/><text fill="#000000" font-family="sans-serif" font-size="14" lengthAdjust="spacing" textLength="32.1289" x="276.5464" y="225.592">bar3</text></g><!--entity bar4--><g class="entity" data-qualified-name="bar4" data-source-line="7" id="ent0011"><ellipse cx="381.6108" cy="195.5969" fill="#F1F1F1" rx="8" ry="8" style="stroke:#181818;stroke-width:0.5;"/><text fill="#000000" font-family="sans-serif" font-size="14" lengthAdjust="spacing" textLength="32.1289" x="365.5464" y="225.592">bar4</text></g><!--link foo to bar--><g class="link" data-entity-1="ent0002" data-entity-2="ent0003" data-link-type="dependency" data-source-line="3" id="lnk4"><path d="M161.2808,89.6869 C148.3508,98.8969 133.2308,109.7269 119.6108,119.5969 C85.0808,144.6169 49.13,171.2126 31.4,184.3626" fill="none" id="foo-to-bar" style="stroke:#181818;stroke-width:1;"/><polygon fill="#181818" points="26.5808,187.9369,36.1925,185.7882,30.5968,184.9583,31.4267,179.3627,26.5808,187.9369" style="stroke:#181818;stroke-width:1;"/></g><!--link foo to bar1--><g class="link" data-entity-1="ent0002" data-entity-2="ent0005" data-link-type="dependency" data-source-line="4" id="lnk6"><path d="M163.6508,89.9869 C154.1008,98.4869 144.0408,108.7469 136.6108,119.5969 C121.3908,141.8069 113.63,167.0798 109.95,181.2398" fill="none" id="foo-to-bar1" style="stroke:#FF0000;stroke-width:1;"/><polygon fill="#FF0000" points="108.4408,187.0469,114.576,179.3424,109.6985,182.2076,106.8332,177.3301,108.4408,187.0469" style="stroke:#FF0000;stroke-width:1;"/><text fill="#000000" font-family="sans-serif" font-size="13" lengthAdjust="spacing" textLength="42.6309" x="137.6108" y="132.6638">[#red]</text></g><!--link foo to bar2--><g class="link" data-entity-1="ent0002" data-entity-2="ent0007" data-link-type="dependency" data-source-line="5" id="lnk8"><path d="M191.0308,90.0269 C190.4608,99.1969 189.8908,109.8969 189.6108,119.5969 C189.3908,127.1469 189.2208,129.0469 189.6108,136.5969 C190.5408,154.5969 192.3005,169.6578 193.7605,180.7878" fill="none" id="foo-to-bar2" style="stroke:#008000;stroke-width:1;"/><polygon fill="#008000" points="194.5408,186.7369,197.3363,177.2931,193.8905,181.7793,189.4043,178.3336,194.5408,186.7369" style="stroke:#008000;stroke-width:1;"/><text fill="#000000" font-family="sans-serif" font-size="13" lengthAdjust="spacing" textLength="58.8682" x="190.6108" y="132.6638">[#green]</text></g><!--link foo to bar3--><g class="link" data-entity-1="ent0002" data-entity-2="ent0009" data-link-type="dependency" data-source-line="6" id="lnk10"><path d="M223.6108,90.0469 C233.9608,98.5569 245.0308,108.7969 253.6108,119.5969 C271.1408,141.6569 282.1472,167.2206 287.6372,181.4206" fill="none" id="foo-to-bar3" style="stroke:#0000FF;stroke-width:1;"/><polygon fill="#0000FF" points="289.8008,187.0169,290.2862,177.18,287.9978,182.3533,282.8245,180.0648,289.8008,187.0169" style="stroke:#0000FF;stroke-width:1;"/><text fill="#000000" font-family="sans-serif" font-size="13" lengthAdjust="spacing" textLength="49.1372" x="264.6108" y="132.6638">[#blue]</text></g><!--link foo to bar4--><g class="link" data-entity-1="ent0002" data-entity-2="ent0011" data-link-type="dependency" data-source-line="7" id="lnk12"><path d="M224.0708,75.0669 C251.9508,82.9269 292.7308,97.2169 322.6108,119.5969 C348.3308,138.8669 365.9861,166.7805 374.4661,181.7005" fill="none" id="foo-to-bar4" style="stroke:#0000FF;stroke-width:1;"/><polygon fill="#0000FF" points="377.4308,186.9169,376.4612,177.1159,374.9602,182.5699,369.5061,181.0689,377.4308,186.9169" style="stroke:#0000FF;stroke-width:1;"/><path d="M226.0708,77.0669 C253.9508,84.9269 294.7308,99.2169 324.6108,121.5969 C350.3308,140.8669 367.9861,168.7805 376.4661,183.7005" fill="none" id="foo-to-bar4" style="stroke:#FFFF00;stroke-width:1;"/><path d="M228.0708,79.0669 C255.9508,86.9269 296.7308,101.2169 326.6108,123.5969 C352.3308,142.8669 369.9861,170.7805 378.4661,185.7005" fill="none" id="foo-to-bar4" style="stroke:#008000;stroke-width:1;"/></g><?plantuml-src AyaioKbLS2fAJCvEBKbDKSZ9p4jLICxFoI_YoijFILLGIClFvm9Y1LrTEuMan288ErgvA3Kb5Y9Yg002LWeGCPXyUb5gQXvKXH5K7Y86Kv6KKveALM0CCm4iXgp0MhaoDISdlzmQnK0J0000?></g></svg>