<svg xmlns="http://www.w3.org/2000/svg" xmlns:xlink="http://www.w3.org/1999/xlink" contentStyleType="text/css" data-diagram-type="DESCRIPTION" height="225px" preserveAspectRatio="none" style="width:493px;height:225px;background:#FFFFFF;" version="1.1" viewBox="0 0 493 225" width="493px" zoomAndPan="magnify"><?plantuml 1.2026.3beta5?><defs/><g><g class="title" data-source-line="2"><text fill="#000000" font-family="sans-serif" font-size="14" font-weight="700" lengthAdjust="spacing" textLength="266.5674" x="110.054" y="22.9951">Bracketed line style without label</text></g><!--entity foo--><g class="entity" data-qualified-name="foo" data-source-line="1" id="ent0002"><polygon fill="#F1F1F1" points="208.5808,53.2969,218.5808,43.2969,270.6404,43.2969,270.6404,79.5938,260.6404,89.5938,208.5808,89.5938,208.5808,53.2969" style="stroke:#181818;stroke-width:0.5;"/><line style="stroke:#181818;stroke-width:0.5;" x1="260.6404" x2="270.6404" y1="53.2969" y2="43.2969"/><line style="stroke:#181818;stroke-width:0.5;" x1="208.5808" x2="260.6404" y1="53.2969" y2="53.2969"/><line style="stroke:#181818;stroke-width:0.5;" x1="260.6404" x2="260.6404" y1="53.2969" y2="89.5938"/><text fill="#000000" font-family="sans-serif" font-size="14" lengthAdjust="spacing" textLength="22.0596" x="223.5808" y="76.292">foo</text></g><!--entity bar--><g class="entity" data-qualified-name="bar" data-source-line="3" id="ent0003"><ellipse cx="17.6108" cy="178.5969" fill="#F1F1F1" rx="8" ry="8" style="stroke:#181818;stroke-width:0.5;"/><text fill="#000000" font-family="sans-serif" font-size="14" lengthAdjust="spacing" textLength="23.2217" x="6" y="208.592">bar</text></g><!--entity bar1--><g class="entity" data-qualified-name="bar1" data-source-line="4" id="ent0005"><ellipse cx="106.6108" cy="178.5969" fill="#F1F1F1" rx="8" ry="8" style="stroke:#181818;stroke-width:0.5;"/><text fill="#000000" font-family="sans-serif" font-size="14" lengthAdjust="spacing" textLength="32.1289" x="90.5464" y="208.592">bar1</text></g><!--entity bar2--><g class="entity" data-qualified-name="bar2" data-source-line="5" id="ent0007"><ellipse cx="195.6108" cy="178.5969" fill="#F1F1F1" rx="8" ry="8" style="stroke:#181818;stroke-width:0.5;"/><text fill="#000000" font-family="sans-serif" font-size="14" lengthAdjust="spacing" textLength="32.1289" x="179.5464" y="208.592">bar2</text></g><!--entity bar3--><g class="entity" data-qualified-name="bar3" data-source-line="6" id="ent0009"><ellipse cx="284.6108" cy="178.5969" fill="#F1F1F1" rx="8" ry="8" style="stroke:#181818;stroke-width:0.5;"/><text fill="#000000" font-family="sans-serif" font-size="14" lengthAdjust="spacing" textLength="32.1289" x="268.5464" y="208.592">bar3</text></g><!--entity bar4--><g class="entity" data-qualified-name="bar4" data-source-line="7" id="ent0011"><ellipse cx="373.6108" cy="178.5969" fill="#F1F1F1" rx="8" ry="8" style="stroke:#181818;stroke-width:0.5;"/><text fill="#000000" font-family="sans-serif" font-size="14" lengthAdjust="spacing" textLength="32.1289" x="357.5464" y="208.592">bar4</text></g><!--entity bar5--><g class="entity" data-qualified-name="bar5" data-source-line="8" id="ent0013"><ellipse cx="462.6108" cy="178.5969" fill="#F1F1F1" rx="8" ry="8" style="stroke:#181818;stroke-width:0.5;"/><text fill="#000000" font-family="sans-serif" font-size="14" lengthAdjust="spacing" textLength="32.1289" x="446.5464" y="208.592">bar5</text></g><!--link foo to bar--><g class="link" data-entity-1="ent0002" data-entity-2="ent0003" data-link-type="dependency" data-source-line="3" id="lnk4"><path d="M208.1208,80.4569 C172.0508,95.7069 111.5008,122.3669 61.6108,149.5969 C49.0508,156.4469 40.1941,162.1355 31.4641,168.0655" fill="none" id="foo-to-bar" style="stroke:#181818;stroke-width:1;"/><polygon fill="#181818" points="26.5008,171.4369,36.1933,169.6887,30.6369,168.6274,31.6981,163.071,26.5008,171.4369" style="stroke:#181818;stroke-width:1;"/></g><!--link foo to bar1--><g class="link" data-entity-1="ent0002" data-entity-2="ent0005" data-link-type="dependency" data-source-line="4" id="lnk6"><path d="M212.3708,90.0069 C182.1308,115.0569 139.622,150.26 120.132,166.4" fill="none" id="foo-to-bar1" style="stroke:#181818;stroke-width:2;"/><polygon fill="#181818" points="115.5108,170.2269,124.9938,167.5674,119.3618,167.0378,119.8913,161.4058,115.5108,170.2269" style="stroke:#181818;stroke-width:2;"/></g><!--link foo to bar2--><g class="link" data-entity-1="ent0002" data-entity-2="ent0007" data-link-type="dependency" data-source-line="5" id="lnk8"><path d="M230.6008,90.0069 C220.6908,114.8069 207.5357,147.7346 200.9757,164.1646" fill="none" id="foo-to-bar2" style="stroke:#181818;stroke-width:1;stroke-dasharray:7,7;"/><polygon fill="#181818" points="198.7508,169.7369,205.8029,162.8617,200.6049,165.0933,198.3733,159.8953,198.7508,169.7369" style="stroke:#181818;stroke-width:1;"/></g><!--link foo to bar3--><g class="link" data-entity-1="ent0002" data-entity-2="ent0009" data-link-type="dependency" data-source-line="6" id="lnk10"><path d="M248.8308,90.0069 C258.9608,114.8069 272.4223,147.7522 279.1323,164.1822" fill="none" id="foo-to-bar3" style="stroke:#181818;stroke-width:1;stroke-dasharray:1,3;"/><polygon fill="#181818" points="281.4008,169.7369,281.7012,159.8926,279.5104,165.108,274.295,162.9173,281.4008,169.7369" style="stroke:#181818;stroke-width:1;"/></g><!--link foo to bar4--><!--link foo to bar5--><g class="link" data-entity-1="ent0002" data-entity-2="ent0013" data-link-type="dependency" data-source-line="8" id="lnk14"><path d="M270.9608,80.2969 C307.2008,95.4969 368.3108,122.2169 418.6108,149.5969 C431.1808,156.4369 440.0284,162.1243 448.7684,168.0643" fill="none" id="foo-to-bar5" style="stroke:#181818;stroke-width:1;"/><polygon fill="#181818" points="453.7308,171.4369,448.5356,163.0697,449.5955,168.6264,444.0388,169.6862,453.7308,171.4369" style="stroke:#181818;stroke-width:1;"/></g><?plantuml-src FSen3eCm343HdLFu0Wn0MJlq6XM3KxkAXHMZn0ZrzY2HTFjw-ic8uMlMkRWol39-LdOcK4aCnNyN7kBHTWV5mDfTC_Jz4mBckz_1b9PRXag49NB3iQ6v_t6g68M8KyL7nKrHciqd?></g></svg>