<svg xmlns="http://www.w3.org/2000/svg" xmlns:xlink="http://www.w3.org/1999/xlink" contentStyleType="text/css" data-diagram-type="DESCRIPTION" height="159px" preserveAspectRatio="none" style="width:1117px;height:159px;background:#FFFFFF;" version="1.1" viewBox="0 0 1117 159" width="1117px" zoomAndPan="magnify"><?plantuml 1.2026.3beta5?><defs/><g><!--entity artifact1--><g class="entity" data-qualified-name="artifact1" data-source-line="1" id="ent0002"><rect fill="#F1F1F1" height="39.2969" rx="2.5" ry="2.5" style="stroke:#181818;stroke-width:0.5;" width="89.3154" x="503" y="7"/><polygon fill="#F1F1F1" points="575.3154,12,575.3154,26,587.3154,26,587.3154,18,581.3154,12,575.3154,12" style="stroke:#181818;stroke-width:0.5;"/><line style="stroke:#181818;stroke-width:0.5;" x1="581.3154" x2="581.3154" y1="12" y2="18"/><line style="stroke:#181818;stroke-width:0.5;" x1="587.3154" x2="581.3154" y1="18" y2="18"/><text fill="#000000" font-family="sans-serif" font-size="14" lengthAdjust="spacing" textLength="59.3154" x="513" y="32.9951">artifact1</text></g><!--entity artifact2--><g class="entity" data-qualified-name="artifact2" data-source-line="2" id="ent0003"><rect fill="#F1F1F1" height="39.2969" rx="2.5" ry="2.5" style="stroke:#181818;stroke-width:0.5;" width="89.3154" x="7" y="106.29"/><polygon fill="#F1F1F1" points="79.3154,111.29,79.3154,125.29,91.3154,125.29,91.3154,117.29,85.3154,111.29,79.3154,111.29" style="stroke:#181818;stroke-width:0.5;"/><line style="stroke:#181818;stroke-width:0.5;" x1="85.3154" x2="85.3154" y1="111.29" y2="117.29"/><line style="stroke:#181818;stroke-width:0.5;" x1="91.3154" x2="85.3154" y1="117.29" y2="117.29"/><text fill="#000000" font-family="sans-serif" font-size="14" lengthAdjust="spacing" textLength="59.3154" x="17" y="132.2851">artifact2</text></g><!--entity artifact3--><g class="entity" data-qualified-name="artifact3" data-source-line="3" id="ent0004"><rect fill="#F1F1F1" height="39.2969" rx="2.5" ry="2.5" style="stroke:#181818;stroke-width:0.5;" width="89.3154" x="131" y="106.29"/><polygon fill="#F1F1F1" points="203.3154,111.29,203.3154,125.29,215.3154,125.29,215.3154,117.29,209.3154,111.29,203.3154,111.29" style="stroke:#181818;stroke-width:0.5;"/><line style="stroke:#181818;stroke-width:0.5;" x1="209.3154" x2="209.3154" y1="111.29" y2="117.29"/><line style="stroke:#181818;stroke-width:0.5;" x1="215.3154" x2="209.3154" y1="117.29" y2="117.29"/><text fill="#000000" font-family="sans-serif" font-size="14" lengthAdjust="spacing" textLength="59.3154" x="141" y="132.2851">artifact3</text></g><!--entity artifact4--><g class="entity" data-qualified-name="artifact4" data-source-line="4" id="ent0005"><rect fill="#F1F1F1" height="39.2969" rx="2.5" ry="2.5" style="stroke:#181818;stroke-width:0.5;" width="89.3154" x="255" y="106.29"/><polygon fill="#F1F1F1" points="327.3154,111.29,327.3154,125.29,339.3154,125.29,339.3154,117.29,333.3154,111.29,327.3154,111.29" style="stroke:#181818;stroke-width:0.5;"/><line style="stroke:#181818;stroke-width:0.5;" x1="333.3154" x2="333.3154" y1="111.29" y2="117.29"/><line style="stroke:#181818;stroke-width:0.5;" x1="339.3154" x2="333.3154" y1="117.29" y2="117.29"/><text fill="#000000" font-family="sans-serif" font-size="14" lengthAdjust="spacing" textLength="59.3154" x="265" y="132.2851">artifact4</text></g><!--entity artifact5--><g class="entity" data-qualified-name="artifact5" data-source-line="5" id="ent0006"><rect fill="#F1F1F1" height="39.2969" rx="2.5" ry="2.5" style="stroke:#181818;stroke-width:0.5;" width="89.3154" x="379" y="106.29"/><polygon fill="#F1F1F1" points="451.3154,111.29,451.3154,125.29,463.3154,125.29,463.3154,117.29,457.3154,111.29,451.3154,111.29" style="stroke:#181818;stroke-width:0.5;"/><line style="stroke:#181818;stroke-width:0.5;" x1="457.3154" x2="457.3154" y1="111.29" y2="117.29"/><line style="stroke:#181818;stroke-width:0.5;" x1="463.3154" x2="457.3154" y1="117.29" y2="117.29"/><text fill="#000000" font-family="sans-serif" font-size="14" lengthAdjust="spacing" textLength="59.3154" x="389" y="132.2851">artifact5</text></g><!--entity artifact6--><g class="entity" data-qualified-name="artifact6" data-source-line="6" id="ent0007"><rect fill="#F1F1F1" height="39.2969" rx="2.5" ry="2.5" style="stroke:#181818;stroke-width:0.5;" width="89.3154" x="503" y="106.29"/><polygon fill="#F1F1F1" points="575.3154,111.29,575.3154,125.29,587.3154,125.29,587.3154,117.29,581.3154,111.29,575.3154,111.29" style="stroke:#181818;stroke-width:0.5;"/><line style="stroke:#181818;stroke-width:0.5;" x1="581.3154" x2="581.3154" y1="111.29" y2="117.29"/><line style="stroke:#181818;stroke-width:0.5;" x1="587.3154" x2="581.3154" y1="117.29" y2="117.29"/><text fill="#000000" font-family="sans-serif" font-size="14" lengthAdjust="spacing" textLength="59.3154" x="513" y="132.2851">artifact6</text></g><!--entity artifact7--><g class="entity" data-qualified-name="artifact7" data-source-line="7" id="ent0008"><rect fill="#F1F1F1" height="39.2969" rx="2.5" ry="2.5" style="stroke:#181818;stroke-width:0.5;" width="89.3154" x="627" y="106.29"/><polygon fill="#F1F1F1" points="699.3154,111.29,699.3154,125.29,711.3154,125.29,711.3154,117.29,705.3154,111.29,699.3154,111.29" style="stroke:#181818;stroke-width:0.5;"/><line style="stroke:#181818;stroke-width:0.5;" x1="705.3154" x2="705.3154" y1="111.29" y2="117.29"/><line style="stroke:#181818;stroke-width:0.5;" x1="711.3154" x2="705.3154" y1="117.29" y2="117.29"/><text fill="#000000" font-family="sans-serif" font-size="14" lengthAdjust="spacing" textLength="59.3154" x="637" y="132.2851">artifact7</text></g><!--entity artifact8--><g class="entity" data-qualified-name="artifact8" data-source-line="8" id="ent0009"><rect fill="#F1F1F1" height="39.2969" rx="2.5" ry="2.5" style="stroke:#181818;stroke-width:0.5;" width="89.3154" x="751" y="106.29"/><polygon fill="#F1F1F1" points="823.3154,111.29,823.3154,125.29,835.3154,125.29,835.3154,117.29,829.3154,111.29,823.3154,111.29" style="stroke:#181818;stroke-width:0.5;"/><line style="stroke:#181818;stroke-width:0.5;" x1="829.3154" x2="829.3154" y1="111.29" y2="117.29"/><line style="stroke:#181818;stroke-width:0.5;" x1="835.3154" x2="829.3154" y1="117.29" y2="117.29"/><text fill="#000000" font-family="sans-serif" font-size="14" lengthAdjust="spacing" textLength="59.3154" x="761" y="132.2851">artifact8</text></g><!--entity artifact9--><g class="entity" data-qualified-name="artifact9" data-source-line="9" id="ent0010"><rect fill="#F1F1F1" height="39.2969" rx="2.5" ry="2.5" style="stroke:#181818;stroke-width:0.5;" width="89.3154" x="875" y="106.29"/><polygon fill="#F1F1F1" points="947.3154,111.29,947.3154,125.29,959.3154,125.29,959.3154,117.29,953.3154,111.29,947.3154,111.29" style="stroke:#181818;stroke-width:0.5;"/><line style="stroke:#181818;stroke-width:0.5;" x1="953.3154" x2="953.3154" y1="111.29" y2="117.29"/><line style="stroke:#181818;stroke-width:0.5;" x1="959.3154" x2="953.3154" y1="117.29" y2="117.29"/><text fill="#000000" font-family="sans-serif" font-size="14" lengthAdjust="spacing" textLength="59.3154" x="885" y="132.2851">artifact9</text></g><!--entity artifact10--><g class="entity" data-qualified-name="artifact10" data-source-line="10" id="ent0011"><rect fill="#F1F1F1" height="39.2969" rx="2.5" ry="2.5" style="stroke:#181818;stroke-width:0.5;" width="98.2227" x="999.55" y="106.29"/><polygon fill="#F1F1F1" points="1080.7727,111.29,1080.7727,125.29,1092.7727,125.29,1092.7727,117.29,1086.7727,111.29,1080.7727,111.29" style="stroke:#181818;stroke-width:0.5;"/><line style="stroke:#181818;stroke-width:0.5;" x1="1086.7727" x2="1086.7727" y1="111.29" y2="117.29"/><line style="stroke:#181818;stroke-width:0.5;" x1="1092.7727" x2="1086.7727" y1="117.29" y2="117.29"/><text fill="#000000" font-family="sans-serif" font-size="14" lengthAdjust="spacing" textLength="68.2227" x="1009.55" y="132.2851">artifact10</text></g><!--link artifact1 to artifact2--><g class="link" data-entity-1="ent0002" data-entity-2="ent0003" data-link-type="dependency" data-source-line="11" id="lnk12"><path d="M502.64,34.09 C423.42,45.8 254.19,72.54 113.66,106.29 C108.08,107.63 108.0471,107.5596 102.3071,109.1696" fill="none" id="artifact1-to-artifact2" style="stroke:#181818;stroke-width:1;"/><polygon fill="#181818" points="96.53,110.79,106.2758,112.2108,101.3442,109.4397,104.1153,104.508,96.53,110.79" style="stroke:#181818;stroke-width:1;"/></g><!--link artifact1 to artifact3--><g class="link" data-entity-1="ent0002" data-entity-2="ent0004" data-link-type="composition" data-source-line="12" id="lnk13"><path d="M502.57,38.43 C442.09,53.04 331.43,80.31 237.66,106.29 C232.13,107.82 237.8637,106.0984 232.1437,107.7784" fill="none" id="artifact1-to-artifact3" style="stroke:#181818;stroke-width:1;"/><polygon fill="#181818" points="220.63,111.16,227.514,113.3071,232.1437,107.7784,225.2596,105.6313,220.63,111.16" style="stroke:#181818;stroke-width:1;"/></g><!--link artifact1 to artifact4--><g class="link" data-entity-1="ent0002" data-entity-2="ent0005" data-link-type="aggregation" data-source-line="13" id="lnk14"><path d="M502.75,45.26 C457.94,62.84 400.6612,85.3177 355.8212,102.9077" fill="none" id="artifact1-to-artifact4" style="stroke:#181818;stroke-width:1;"/><polygon fill="none" points="344.65,107.29,351.6964,108.8226,355.8212,102.9077,348.7748,101.3751,344.65,107.29" style="stroke:#181818;stroke-width:1;"/></g><!--link artifact1 to artifact5--><g class="link" data-entity-1="ent0002" data-entity-2="ent0006" data-link-type="nested" data-source-line="14" id="lnk15"><path d="M523.45,46.64 C501.61,63.78 482.2173,78.9928 460.3873,96.1228" fill="none" id="artifact1-to-artifact5" style="stroke:#181818;stroke-width:1;"/><ellipse cx="454.0936" cy="101.0614" fill="#FFFFFF" rx="8" ry="8" style="stroke:#181818;stroke-width:1;"/><line style="stroke:#181818;stroke-width:1;" x1="460.3873" x2="447.8" y1="96.1228" y2="106"/><line style="stroke:#181818;stroke-width:1;" x1="459.0323" x2="449.155" y1="107.355" y2="94.7677"/></g><!--link artifact1 to artifact6--><g class="link" data-entity-1="ent0002" data-entity-2="ent0007" data-source-line="15" id="lnk16"><path d="M547.66,46.4 C547.66,63.52 547.66,83.7 547.66,100.91" fill="none" id="artifact1-to-artifact6" style="stroke:#181818;stroke-width:1;"/><rect fill="#FFFFFF" height="10" style="stroke:#181818;stroke-width:1.5;" width="10" x="542.66" y="100.91"/></g><!--link artifact1 to artifact7--><g class="link" data-entity-1="ent0002" data-entity-2="ent0008" data-link-type="dependency" data-source-line="16" id="lnk17"><path d="M571.86,46.64 C593.71,63.78 619.3964,83.9314 641.2264,101.0614" fill="none" id="artifact1-to-artifact7" style="stroke:#181818;stroke-width:1;"/><polygon fill="#181818" points="647.52,106,643.0783,98.7013,639.3744,103.4215,647.52,106" style="stroke:#181818;stroke-width:1;"/></g><!--link artifact1 to artifact8--><g class="link" data-entity-1="ent0002" data-entity-2="ent0009" data-source-line="17" id="lnk18"><path d="M592.57,45.26 C637.37,62.84 694.6591,85.3169 739.4891,102.9069" fill="none" id="artifact1-to-artifact8" style="stroke:#181818;stroke-width:1;"/><ellipse cx="745.0746" cy="105.0984" fill="#FFFFFF" rx="6" ry="6" style="stroke:#181818;stroke-width:1.5;"/></g><!--link artifact1 to artifact9--><g class="link" data-entity-1="ent0002" data-entity-2="ent0010" data-link-type="extension" data-source-line="18" id="lnk19"><path d="M592.74,38.43 C653.22,53.04 763.88,80.31 857.66,106.29 C863.18,107.82 851.6995,104.4075 857.4195,106.0875" fill="none" id="artifact1-to-artifact9" style="stroke:#181818;stroke-width:1;"/><polygon fill="none" points="874.69,111.16,859.1103,100.3307,855.7287,111.8444,874.69,111.16" style="stroke:#181818;stroke-width:1;"/></g><!--link artifact1 to artifact10--><g class="link" data-entity-1="ent0002" data-entity-2="ent0011" data-source-line="19" id="lnk20"><path d="M592.61,34.39 C671.71,46.57 840.78,73.99 981.66,106.29 C987.42,107.62 983.7669,106.5739 989.7169,108.1339" fill="none" id="artifact1-to-artifact10" style="stroke:#181818;stroke-width:1;"/><ellipse cx="999.39" cy="110.67" fill="#FFFFFF" rx="6" ry="6" style="stroke:#181818;stroke-width:1.5;"/><path d="M994.3434,102.0368 A10,10 0 0 0 990.7568 115.7166" fill="#FFFFFF" style="stroke:#181818;stroke-width:1.5;"/></g><?plantuml-src IomgoKnBJ2vHI8Go3BaIqOMCC8MCCOLCC8LCCONCC8NCCOKiC8KiCOKC3U1YXWgwkdPO70mIryBYQf1uFXQdWyIriRWV9AwCnHDWU-smU0KaOO35Fo3nE2oU0ebh621v3G00?></g></svg>