<svg xmlns="http://www.w3.org/2000/svg" xmlns:xlink="http://www.w3.org/1999/xlink" contentStyleType="text/css" data-diagram-type="DESCRIPTION" height="177px" preserveAspectRatio="none" style="width:440px;height:177px;background:#FFFFFF;" version="1.1" viewBox="0 0 440 177" width="440px" zoomAndPan="magnify"><?plantuml 1.2026.3beta5?><defs/><g><!--entity cloud1--><g class="entity" data-qualified-name="cloud1" data-source-line="1" id="ent0002"><path d="M188.4357,14.471 C192.502,7.6851 197.6141,6.5568 202.5642,13.5659 C207.3963,6.4767 213.4486,6.3579 218.8899,12.8327 C225.0559,6 229.8067,6.323 234.1716,14.6486 C238.3693,7.5702 243.6682,7.7286 247.3886,15.0857 C255.3859,18.363 256.4627,23.7751 251.2796,30.401 C257.462,36.4541 257.6945,44.1081 247.7677,46.6876 C243.4778,53.2337 238.0169,52.783 233.4406,47.021 C230.5406,54.1527 224.545,56.461 218.9344,49.8906 C213.6321,56.5019 206.8635,55.5771 203.8321,47.5481 C197.9333,55.6667 190.3022,53.6074 186.6978,45.173 C178.2124,43.217 174,37.7732 180.4554,29.7643 C175.17,20.6447 178.8719,15.842 188.4357,14.471" fill="#F1F1F1" style="stroke:#181818;stroke-width:0.5;"/><text fill="#000000" font-family="sans-serif" font-size="14" lengthAdjust="spacing" textLength="46.8193" x="193.5569" y="34.4263">cloud1</text></g><!--entity cloud2--><g class="entity" data-qualified-name="cloud2" data-source-line="2" id="ent0003"><path d="M20.4357,120.761 C24.502,113.9751 29.6141,112.8468 34.5642,119.8559 C39.3963,112.7667 45.4486,112.6479 50.8899,119.1227 C57.0559,112.29 61.8067,112.613 66.1716,120.9386 C70.3693,113.8602 75.6682,114.0186 79.3886,121.3757 C87.3859,124.653 88.4627,130.0651 83.2796,136.691 C89.462,142.7441 89.6945,150.3981 79.7677,152.9776 C75.4778,159.5237 70.0169,159.073 65.4406,153.311 C62.5406,160.4427 56.545,162.751 50.9344,156.1806 C45.6321,162.7919 38.8635,161.8671 35.8321,153.8381 C29.9333,161.9567 22.3022,159.8974 18.6978,151.463 C10.2124,149.507 6,144.0632 12.4554,136.0543 C7.17,126.9347 10.8719,122.132 20.4357,120.761" fill="#F1F1F1" style="stroke:#181818;stroke-width:0.5;"/><text fill="#000000" font-family="sans-serif" font-size="14" lengthAdjust="spacing" textLength="46.8193" x="25.5569" y="140.7163">cloud2</text></g><!--entity cloud3--><g class="entity" data-qualified-name="cloud3" data-source-line="3" id="ent0004"><path d="M132.4357,120.761 C136.502,113.9751 141.6141,112.8468 146.5642,119.8559 C151.3963,112.7667 157.4486,112.6479 162.8899,119.1227 C169.0559,112.29 173.8067,112.613 178.1716,120.9386 C182.3693,113.8602 187.6682,114.0186 191.3886,121.3757 C199.3859,124.653 200.4627,130.0651 195.2796,136.691 C201.462,142.7441 201.6945,150.3981 191.7677,152.9776 C187.4778,159.5237 182.0169,159.073 177.4406,153.311 C174.5406,160.4427 168.545,162.751 162.9344,156.1806 C157.6321,162.7919 150.8635,161.8671 147.8321,153.8381 C141.9333,161.9567 134.3022,159.8974 130.6978,151.463 C122.2124,149.507 118,144.0632 124.4554,136.0543 C119.17,126.9347 122.8719,122.132 132.4357,120.761" fill="#F1F1F1" style="stroke:#181818;stroke-width:0.5;"/><text fill="#000000" font-family="sans-serif" font-size="14" lengthAdjust="spacing" textLength="46.8193" x="137.5569" y="140.7163">cloud3</text></g><!--entity cloud4--><g class="entity" data-qualified-name="cloud4" data-source-line="4" id="ent0005"><path d="M244.4357,120.761 C248.502,113.9751 253.6141,112.8468 258.5642,119.8559 C263.3963,112.7667 269.4486,112.6479 274.8899,119.1227 C281.0559,112.29 285.8067,112.613 290.1716,120.9386 C294.3693,113.8602 299.6682,114.0186 303.3886,121.3757 C311.3859,124.653 312.4627,130.0651 307.2796,136.691 C313.462,142.7441 313.6945,150.3981 303.7677,152.9776 C299.4778,159.5237 294.0169,159.073 289.4406,153.311 C286.5406,160.4427 280.545,162.751 274.9344,156.1806 C269.6321,162.7919 262.8635,161.8671 259.8321,153.8381 C253.9333,161.9567 246.3022,159.8974 242.6978,151.463 C234.2124,149.507 230,144.0632 236.4554,136.0543 C231.17,126.9347 234.8719,122.132 244.4357,120.761" fill="#F1F1F1" style="stroke:#181818;stroke-width:0.5;"/><text fill="#000000" font-family="sans-serif" font-size="14" lengthAdjust="spacing" textLength="46.8193" x="249.5569" y="140.7163">cloud4</text></g><!--entity cloud5--><g class="entity" data-qualified-name="cloud5" data-source-line="5" id="ent0006"><path d="M356.4357,120.761 C360.502,113.9751 365.6141,112.8468 370.5642,119.8559 C375.3963,112.7667 381.4486,112.6479 386.8899,119.1227 C393.0559,112.29 397.8067,112.613 402.1716,120.9386 C406.3693,113.8602 411.6682,114.0186 415.3886,121.3757 C423.3859,124.653 424.4627,130.0651 419.2796,136.691 C425.462,142.7441 425.6945,150.3981 415.7677,152.9776 C411.4778,159.5237 406.0169,159.073 401.4406,153.311 C398.5406,160.4427 392.545,162.751 386.9344,156.1806 C381.6321,162.7919 374.8635,161.8671 371.8321,153.8381 C365.9333,161.9567 358.3022,159.8974 354.6978,151.463 C346.2124,149.507 342,144.0632 348.4554,136.0543 C343.17,126.9347 346.8719,122.132 356.4357,120.761" fill="#F1F1F1" style="stroke:#181818;stroke-width:0.5;"/><text fill="#000000" font-family="sans-serif" font-size="14" lengthAdjust="spacing" textLength="46.8193" x="361.5569" y="140.7163">cloud5</text></g><!--link cloud1 to cloud2--><g class="link" data-entity-1="ent0002" data-entity-2="ent0003" data-link-type="association" data-source-line="6" id="lnk7"><path d="M180.5169,53.2112 C152.3369,70.7012 113.5069,94.8012 85.3469,112.2812" fill="none" id="cloud1-cloud2" style="stroke:#181818;stroke-width:1;"/><ellipse cx="132.9244" cy="82.75" fill="#FFFFFF" rx="6" ry="6" style="stroke:#181818;stroke-width:1.5;"/></g><!--link cloud1 to cloud3--><g class="link" data-entity-1="ent0002" data-entity-2="ent0004" data-link-type="association" data-source-line="7" id="lnk8"><path d="M204.8169,53.2112 C195.4269,70.7012 182.4769,94.8012 173.0969,112.2812" fill="none" id="cloud1-cloud3" style="stroke:#181818;stroke-width:1;"/><path d="M179.3779,85.6336 A10,10 0 0 0 191.8368 92.3252" fill="none" style="stroke:#181818;stroke-width:1.5;"/><ellipse cx="188.9531" cy="82.75" fill="#FFFFFF" rx="6" ry="6" style="stroke:#181818;stroke-width:1.5;"/></g><!--link cloud1 to cloud4--><g class="link" data-entity-1="ent0002" data-entity-2="ent0005" data-link-type="association" data-source-line="8" id="lnk9"><path d="M229.1169,53.2112 C238.5069,70.7012 251.4569,94.8012 260.8369,112.2812" fill="none" id="cloud1-cloud4" style="stroke:#181818;stroke-width:1;"/><path d="M247.8643,73.1748 A10,10 0 0 0 235.4054 79.8663" fill="none" style="stroke:#181818;stroke-width:1.5;"/><ellipse cx="244.9806" cy="82.75" fill="#FFFFFF" rx="6" ry="6" style="stroke:#181818;stroke-width:1.5;"/></g><!--link cloud1 to cloud5--><g class="link" data-entity-1="ent0002" data-entity-2="ent0006" data-link-type="association" data-source-line="9" id="lnk10"><path d="M253.4169,53.2112 C281.5969,70.7012 320.4269,94.8012 348.5869,112.2812" fill="none" id="cloud1-cloud5" style="stroke:#181818;stroke-width:1;"/><ellipse cx="301.0094" cy="82.75" fill="#FFFFFF" rx="10" ry="10" style="stroke:#FFFFFF;stroke-width:1;"/><path d="M303.2883,92.4868 A10,10 0 0 0 310.7462 80.471" fill="none" style="stroke:#181818;stroke-width:1.5;"/><path d="M298.7304,73.0131 A10,10 0 0 0 291.2725 85.0289" fill="none" style="stroke:#181818;stroke-width:1.5;"/><ellipse cx="301.0094" cy="82.75" fill="#FFFFFF" rx="6" ry="6" style="stroke:#181818;stroke-width:1.5;"/></g><?plantuml-src Iyx9BqrHI0QHXbp928uHCiSOcME2p365S0mLT0rqKJI2H3HrKRG3XJHWgaoGX63AJ040?></g></svg>