<svg xmlns="http://www.w3.org/2000/svg" xmlns:xlink="http://www.w3.org/1999/xlink" contentStyleType="text/css" data-diagram-type="DESCRIPTION" height="367px" preserveAspectRatio="none" style="width:1478px;height:367px;background:#FFFFFF;" version="1.1" viewBox="0 0 1478 367" width="1478px" zoomAndPan="magnify"><?plantuml 1.2026.3beta5?><defs/><g><!--entity foo1--><g class="entity" data-qualified-name="foo1" data-source-line="1" id="ent0002"><ellipse cx="382.9134" cy="14" fill="#F1F1F1" rx="8" ry="8" style="stroke:#181818;stroke-width:0.5;"/><path d="M382.9134,22 L382.9134,49 M369.9134,30 L395.9134,30 M382.9134,49 L369.9134,64 M382.9134,49 L395.9134,64" fill="none" style="stroke:#181818;stroke-width:0.5;"/><text fill="#000000" font-family="sans-serif" font-size="14" lengthAdjust="spacing" textLength="30.9668" x="367.43" y="78.4951">foo1</text></g><!--entity foo2--><g class="entity" data-qualified-name="foo2" data-source-line="2" id="ent0003"><ellipse cx="382.9134" cy="150.3" fill="#F1F1F1" rx="8" ry="8" style="stroke:#181818;stroke-width:0.5;"/><path d="M382.9134,158.3 L382.9134,185.3 M369.9134,166.3 L395.9134,166.3 M382.9134,185.3 L369.9134,200.3 M382.9134,185.3 L395.9134,200.3" fill="none" style="stroke:#181818;stroke-width:0.5;"/><text fill="#000000" font-family="sans-serif" font-size="14" lengthAdjust="spacing" textLength="30.9668" x="367.43" y="214.7951">foo2</text></g><!--entity ac1--><g class="entity" data-qualified-name="ac1" data-source-line="6" id="ent0006"><ellipse cx="93.9075" cy="179.9436" fill="#F1F1F1" rx="20.8075" ry="14.5236" style="stroke:#181818;stroke-width:0.5;"/><text fill="#000000" font-family="sans-serif" font-size="14" lengthAdjust="spacing" textLength="25.1836" x="81.3157" y="184.5921">ac1</text></g><!--entity left1--><g class="entity" data-qualified-name="left1" data-source-line="6" id="ent0007"><ellipse cx="21.9141" cy="150.3" fill="#F1F1F1" rx="8" ry="8" style="stroke:#181818;stroke-width:0.5;"/><path d="M21.9141,158.3 L21.9141,185.3 M8.9141,166.3 L34.9141,166.3 M21.9141,185.3 L8.9141,200.3 M21.9141,185.3 L34.9141,200.3" fill="none" style="stroke:#181818;stroke-width:0.5;"/><text fill="#000000" font-family="sans-serif" font-size="14" lengthAdjust="spacing" textLength="31.8281" x="6" y="214.7951">left1</text></g><!--entity right1--><g class="entity" data-qualified-name="right1" data-source-line="7" id="ent0010"><ellipse cx="170.9109" cy="150.3" fill="#F1F1F1" rx="8" ry="8" style="stroke:#181818;stroke-width:0.5;"/><path d="M170.9109,158.3 L170.9109,185.3 M157.9109,166.3 L183.9109,166.3 M170.9109,185.3 L157.9109,200.3 M170.9109,185.3 L183.9109,200.3" fill="none" style="stroke:#181818;stroke-width:0.5;"/><text fill="#000000" font-family="sans-serif" font-size="14" lengthAdjust="spacing" textLength="41.8018" x="150.01" y="214.7951">right1</text></g><!--entity up1--><g class="entity" data-qualified-name="up1" data-source-line="8" id="ent0012"><ellipse cx="124.91" cy="14" fill="#F1F1F1" rx="8" ry="8" style="stroke:#181818;stroke-width:0.5;"/><path d="M124.91,22 L124.91,49 M111.91,30 L137.91,30 M124.91,49 L111.91,64 M124.91,49 L137.91,64" fill="none" style="stroke:#181818;stroke-width:0.5;"/><text fill="#000000" font-family="sans-serif" font-size="14" lengthAdjust="spacing" textLength="26.667" x="111.5765" y="78.4951">up1</text></g><!--entity up2--><g class="entity" data-qualified-name="up2" data-source-line="9" id="ent0015"><ellipse cx="62.91" cy="14" fill="#F1F1F1" rx="8" ry="8" style="stroke:#181818;stroke-width:0.5;"/><path d="M62.91,22 L62.91,49 M49.91,30 L75.91,30 M62.91,49 L49.91,64 M62.91,49 L75.91,64" fill="none" style="stroke:#181818;stroke-width:0.5;"/><text fill="#000000" font-family="sans-serif" font-size="14" lengthAdjust="spacing" textLength="26.667" x="49.5765" y="78.4951">up2</text></g><!--entity down1--><g class="entity" data-qualified-name="down1" data-source-line="10" id="ent0018"><ellipse cx="52.9113" cy="286.59" fill="#F1F1F1" rx="8" ry="8" style="stroke:#181818;stroke-width:0.5;"/><path d="M52.9113,294.59 L52.9113,321.59 M39.9113,302.59 L65.9113,302.59 M52.9113,321.59 L39.9113,336.59 M52.9113,321.59 L65.9113,336.59" fill="none" style="stroke:#181818;stroke-width:0.5;"/><text fill="#000000" font-family="sans-serif" font-size="14" lengthAdjust="spacing" textLength="46.6826" x="29.57" y="351.0851">down1</text></g><!--entity down2--><g class="entity" data-qualified-name="down2" data-source-line="11" id="ent0020"><ellipse cx="134.9113" cy="286.59" fill="#F1F1F1" rx="8" ry="8" style="stroke:#181818;stroke-width:0.5;"/><path d="M134.9113,294.59 L134.9113,321.59 M121.9113,302.59 L147.9113,302.59 M134.9113,321.59 L121.9113,336.59 M134.9113,321.59 L147.9113,336.59" fill="none" style="stroke:#181818;stroke-width:0.5;"/><text fill="#000000" font-family="sans-serif" font-size="14" lengthAdjust="spacing" textLength="46.6826" x="111.57" y="351.0851">down2</text></g><!--entity actor1--><g class="entity" data-qualified-name="actor1" data-source-line="13" id="ent0022"><ellipse cx="455.9171" cy="14" fill="#F1F1F1" rx="8" ry="8" style="stroke:#181818;stroke-width:0.5;"/><path d="M455.9171,22 L455.9171,49 M442.9171,30 L468.9171,30 M455.9171,49 L442.9171,64 M455.9171,49 L468.9171,64" fill="none" style="stroke:#181818;stroke-width:0.5;"/><text fill="#000000" font-family="sans-serif" font-size="14" lengthAdjust="spacing" textLength="44.9941" x="433.42" y="78.4951">actor1</text></g><!--entity actor2--><g class="entity" data-qualified-name="actor2" data-source-line="13" id="ent0023"><ellipse cx="455.9171" cy="150.3" fill="#F1F1F1" rx="8" ry="8" style="stroke:#181818;stroke-width:0.5;"/><path d="M455.9171,158.3 L455.9171,185.3 M442.9171,166.3 L468.9171,166.3 M455.9171,185.3 L442.9171,200.3 M455.9171,185.3 L468.9171,200.3" fill="none" style="stroke:#181818;stroke-width:0.5;"/><text fill="#000000" font-family="sans-serif" font-size="14" lengthAdjust="spacing" textLength="44.9941" x="433.42" y="214.7951">actor2</text></g><!--entity comp1--><g class="entity" data-qualified-name="comp1" data-source-line="15" id="ent0025"><rect fill="#F1F1F1" height="46.2969" rx="2.5" ry="2.5" style="stroke:#181818;stroke-width:0.5;" width="87.6943" x="592.07" y="20.5"/><rect fill="#F1F1F1" height="10" style="stroke:#181818;stroke-width:0.5;" width="15" x="659.7643" y="25.5"/><rect fill="#F1F1F1" height="2" style="stroke:#181818;stroke-width:0.5;" width="4" x="657.7643" y="27.5"/><rect fill="#F1F1F1" height="2" style="stroke:#181818;stroke-width:0.5;" width="4" x="657.7643" y="31.5"/><text fill="#000000" font-family="sans-serif" font-size="14" lengthAdjust="spacing" textLength="47.6943" x="607.07" y="53.4951">comp1</text></g><!--entity comp2--><g class="entity" data-qualified-name="comp2" data-source-line="16" id="ent0026"><rect fill="#F1F1F1" height="46.2969" rx="2.5" ry="2.5" style="stroke:#181818;stroke-width:0.5;" width="87.6943" x="513.07" y="156.8"/><rect fill="#F1F1F1" height="10" style="stroke:#181818;stroke-width:0.5;" width="15" x="580.7643" y="161.8"/><rect fill="#F1F1F1" height="2" style="stroke:#181818;stroke-width:0.5;" width="4" x="578.7643" y="163.8"/><rect fill="#F1F1F1" height="2" style="stroke:#181818;stroke-width:0.5;" width="4" x="578.7643" y="167.8"/><text fill="#000000" font-family="sans-serif" font-size="14" lengthAdjust="spacing" textLength="47.6943" x="528.07" y="189.7951">comp2</text></g><!--entity comp3--><g class="entity" data-qualified-name="comp3" data-source-line="18" id="ent0028"><rect fill="#F1F1F1" height="46.2969" rx="2.5" ry="2.5" style="stroke:#181818;stroke-width:0.5;" width="87.6943" x="763.07" y="20.5"/><rect fill="#F1F1F1" height="10" style="stroke:#181818;stroke-width:0.5;" width="15" x="830.7643" y="25.5"/><rect fill="#F1F1F1" height="2" style="stroke:#181818;stroke-width:0.5;" width="4" x="828.7643" y="27.5"/><rect fill="#F1F1F1" height="2" style="stroke:#181818;stroke-width:0.5;" width="4" x="828.7643" y="31.5"/><text fill="#000000" font-family="sans-serif" font-size="14" lengthAdjust="spacing" textLength="47.6943" x="778.07" y="53.4951">comp3</text></g><!--entity comp4--><g class="entity" data-qualified-name="comp4" data-source-line="18" id="ent0029"><rect fill="#F1F1F1" height="46.2969" rx="2.5" ry="2.5" style="stroke:#181818;stroke-width:0.5;" width="87.6943" x="763.07" y="156.8"/><rect fill="#F1F1F1" height="10" style="stroke:#181818;stroke-width:0.5;" width="15" x="830.7643" y="161.8"/><rect fill="#F1F1F1" height="2" style="stroke:#181818;stroke-width:0.5;" width="4" x="828.7643" y="163.8"/><rect fill="#F1F1F1" height="2" style="stroke:#181818;stroke-width:0.5;" width="4" x="828.7643" y="167.8"/><text fill="#000000" font-family="sans-serif" font-size="14" lengthAdjust="spacing" textLength="47.6943" x="778.07" y="189.7951">comp4</text></g><!--entity b1--><g class="entity" data-qualified-name="b1" data-source-line="20" id="ent0031"><path d="M889.41,23.5 L889.41,47.5 M889.41,35.5 L906.41,35.5" fill="none" style="stroke:#181818;stroke-width:0.5;"/><ellipse cx="918.41" cy="35.5" fill="#F1F1F1" rx="12" ry="12" style="stroke:#181818;stroke-width:0.5;"/><text fill="#000000" font-family="sans-serif" font-size="14" lengthAdjust="spacing" textLength="17.7939" x="901.013" y="64.4951">b1</text></g><!--entity c1--><g class="entity" data-qualified-name="c1" data-source-line="21" id="ent0032"><ellipse cx="909.91" cy="171.8" fill="#F1F1F1" rx="12" ry="12" style="stroke:#181818;stroke-width:0.5;"/><polygon fill="#181818" points="905.91,159.8,911.91,154.8,909.91,159.8,911.91,164.8,905.91,159.8" style="stroke:#181818;stroke-width:1;"/><text fill="#000000" font-family="sans-serif" font-size="14" lengthAdjust="spacing" textLength="16.6045" x="901.6078" y="200.7951">c1</text></g><!--entity interf1--><g class="entity" data-qualified-name="interf1" data-source-line="25" id="ent0034"><ellipse cx="666.91" cy="179.94" fill="#F1F1F1" rx="8" ry="8" style="stroke:#181818;stroke-width:0.5;"/><text fill="#000000" font-family="sans-serif" font-size="14" lengthAdjust="spacing" textLength="46.457" x="643.6815" y="209.9351">interf1</text></g><!--entity mode1actor--><g class="entity" data-qualified-name="mode1actor" data-source-line="28" id="ent0036"><ellipse cx="1011.9186" cy="14" fill="#F1F1F1" rx="8" ry="8" style="stroke:#181818;stroke-width:0.5;"/><path d="M1011.9186,22 L1011.9186,49 M998.9186,30 L1024.9186,30 M1011.9186,49 L998.9186,64 M1011.9186,49 L1024.9186,64" fill="none" style="stroke:#181818;stroke-width:0.5;"/><text fill="#000000" font-family="sans-serif" font-size="14" lengthAdjust="spacing" textLength="84.6973" x="969.57" y="78.4951">mode1actor</text></g><!--entity fooa1--><g class="entity" data-qualified-name="fooa1" data-source-line="28" id="ent0037"><ellipse cx="1011.9129" cy="150.3" fill="#F1F1F1" rx="8" ry="8" style="stroke:#181818;stroke-width:0.5;"/><path d="M1011.9129,158.3 L1011.9129,185.3 M998.9129,166.3 L1024.9129,166.3 M1011.9129,185.3 L998.9129,200.3 M1011.9129,185.3 L1024.9129,200.3" fill="none" style="stroke:#181818;stroke-width:0.5;"/><text fill="#000000" font-family="sans-serif" font-size="14" lengthAdjust="spacing" textLength="39.5459" x="992.14" y="214.7951">fooa1</text></g><!--entity mode1actorl--><g class="entity" data-qualified-name="mode1actorl" data-source-line="29" id="ent0039"><ellipse cx="217.9135" cy="14" fill="#F1F1F1" rx="8" ry="8" style="stroke:#181818;stroke-width:0.5;"/><path d="M217.9135,22 L217.9135,49 M204.9135,30 L230.9135,30 M217.9135,49 L204.9135,64 M217.9135,49 L230.9135,64" fill="none" style="stroke:#181818;stroke-width:0.5;"/><text fill="#000000" font-family="sans-serif" font-size="14" lengthAdjust="spacing" textLength="88.5869" x="173.62" y="78.4951">mode1actorl</text></g><!--entity foo1l--><g class="entity" data-qualified-name="foo1l" data-source-line="29" id="ent0040"><ellipse cx="314.9182" cy="14" fill="#F1F1F1" rx="8" ry="8" style="stroke:#181818;stroke-width:0.5;"/><path d="M314.9182,22 L314.9182,49 M301.9182,30 L327.9182,30 M314.9182,49 L301.9182,64 M314.9182,49 L327.9182,64" fill="none" style="stroke:#181818;stroke-width:0.5;"/><text fill="#000000" font-family="sans-serif" font-size="14" lengthAdjust="spacing" textLength="34.8564" x="297.49" y="78.4951">foo1l</text></g><!--entity component1--><g class="entity" data-qualified-name="component1" data-source-line="31" id="ent0042"><rect fill="#F1F1F1" height="46.2969" rx="2.5" ry="2.5" style="stroke:#181818;stroke-width:0.5;" width="128.1084" x="1088.86" y="20.5"/><rect fill="#F1F1F1" height="10" style="stroke:#181818;stroke-width:0.5;" width="15" x="1196.9684" y="25.5"/><rect fill="#F1F1F1" height="2" style="stroke:#181818;stroke-width:0.5;" width="4" x="1194.9684" y="27.5"/><rect fill="#F1F1F1" height="2" style="stroke:#181818;stroke-width:0.5;" width="4" x="1194.9684" y="31.5"/><text fill="#000000" font-family="sans-serif" font-size="14" lengthAdjust="spacing" textLength="88.1084" x="1103.86" y="53.4951">component1</text></g><!--entity componentC--><g class="entity" data-qualified-name="componentC" data-source-line="31" id="ent0043"><rect fill="#F1F1F1" height="46.2969" rx="2.5" ry="2.5" style="stroke:#181818;stroke-width:0.5;" width="128.9766" x="1157.43" y="156.8"/><rect fill="#F1F1F1" height="10" style="stroke:#181818;stroke-width:0.5;" width="15" x="1266.4066" y="161.8"/><rect fill="#F1F1F1" height="2" style="stroke:#181818;stroke-width:0.5;" width="4" x="1264.4066" y="163.8"/><rect fill="#F1F1F1" height="2" style="stroke:#181818;stroke-width:0.5;" width="4" x="1264.4066" y="167.8"/><text fill="#000000" font-family="sans-serif" font-size="14" lengthAdjust="spacing" textLength="88.9766" x="1172.43" y="189.7951">componentC</text></g><!--entity component3--><g class="entity" data-qualified-name="component3" data-source-line="32" id="ent0045"><ellipse cx="1303.91" cy="43.65" fill="#F1F1F1" rx="8" ry="8" style="stroke:#181818;stroke-width:0.5;"/><text fill="#000000" font-family="sans-serif" font-size="14" lengthAdjust="spacing" textLength="88.1084" x="1259.8558" y="73.6451">component3</text></g><!--entity aze1--><g class="entity" data-qualified-name="aze1" data-source-line="34" id="ent0047"><rect fill="#F1F1F1" height="46.2969" rx="2.5" ry="2.5" style="stroke:#181818;stroke-width:0.5;" width="73.4482" x="1391.19" y="20.5"/><rect fill="#F1F1F1" height="10" style="stroke:#181818;stroke-width:0.5;" width="15" x="1444.6382" y="25.5"/><rect fill="#F1F1F1" height="2" style="stroke:#181818;stroke-width:0.5;" width="4" x="1442.6382" y="27.5"/><rect fill="#F1F1F1" height="2" style="stroke:#181818;stroke-width:0.5;" width="4" x="1442.6382" y="31.5"/><text fill="#000000" font-family="sans-serif" font-size="14" lengthAdjust="spacing" textLength="33.4482" x="1406.19" y="53.4951">aze1</text></g><!--entity aze2--><g class="entity" data-qualified-name="aze2" data-source-line="34" id="ent0048"><rect fill="#F1F1F1" height="46.2969" rx="2.5" ry="2.5" style="stroke:#181818;stroke-width:0.5;" width="73.4482" x="1391.19" y="156.8"/><rect fill="#F1F1F1" height="10" style="stroke:#181818;stroke-width:0.5;" width="15" x="1444.6382" y="161.8"/><rect fill="#F1F1F1" height="2" style="stroke:#181818;stroke-width:0.5;" width="4" x="1442.6382" y="163.8"/><rect fill="#F1F1F1" height="2" style="stroke:#181818;stroke-width:0.5;" width="4" x="1442.6382" y="167.8"/><text fill="#000000" font-family="sans-serif" font-size="14" lengthAdjust="spacing" textLength="33.4482" x="1406.19" y="189.7951">aze2</text></g><!--link foo1 to foo2--><g class="link" data-entity-1="ent0002" data-entity-2="ent0003" data-link-type="dependency" data-source-line="3" id="lnk4"><path d="M370.8395,88.0382 C369.2495,106.6582 369.259,117.1618 370.849,135.7618" fill="none" id="foo1-foo2" style="stroke:#181818;stroke-width:1;"/><polygon fill="#181818" points="371.35,82.06,366.5988,90.687,370.9246,87.0419,374.5698,91.3677,371.35,82.06" style="stroke:#181818;stroke-width:1;"/><polygon fill="#181818" points="371.36,141.74,374.5789,132.432,370.9341,136.7582,366.608,133.1134,371.36,141.74" style="stroke:#181818;stroke-width:1;"/><ellipse cx="369.6517" cy="111.9075" fill="#FFFFFF" rx="6" ry="6" style="stroke:#181818;stroke-width:1.5;"/></g><!--link foo1 to foo2--><g class="link" data-entity-1="ent0002" data-entity-2="ent0003" data-link-type="dependency" data-source-line="4" id="lnk5"><path d="M395.6992,88.0357 C397.3792,106.6557 397.3729,117.1646 395.6829,135.7646" fill="none" id="foo1-foo2-1" style="stroke:#181818;stroke-width:1;"/><polygon fill="#181818" points="395.16,82.06,391.9849,91.383,395.6093,87.0398,399.9526,90.6641,395.16,82.06" style="stroke:#181818;stroke-width:1;"/><polygon fill="#181818" points="395.14,141.74,399.938,133.1389,395.5924,136.7605,391.9708,132.415,395.14,141.74" style="stroke:#181818;stroke-width:1;"/><ellipse cx="396.9548" cy="111.9077" fill="#FFFFFF" rx="10" ry="10" style="stroke:#FFFFFF;stroke-width:1;"/><path d="M389.881,118.976 A10,10 0 0 0 404.0231 118.9815" fill="none" style="stroke:#181818;stroke-width:1.5;"/><path d="M404.0286,104.8393 A10,10 0 0 0 389.8865 104.8339" fill="none" style="stroke:#181818;stroke-width:1.5;"/><ellipse cx="396.9548" cy="111.9077" fill="#FFFFFF" rx="6" ry="6" style="stroke:#181818;stroke-width:1.5;"/></g><!--reverse link left1 to ac1--><g class="link" data-entity-1="ent0007" data-entity-2="ent0006" data-link-type="dependency" data-source-line="6" id="lnk9"><path d="M44.23,179.94 C55.83,179.94 61.43,179.94 73.03,179.94" fill="none" id="left1-backto-ac1" style="stroke:#181818;stroke-width:1;"/><polygon fill="#181818" points="38.23,179.94,47.23,183.94,43.23,179.94,47.23,175.94,38.23,179.94" style="stroke:#181818;stroke-width:1;"/><ellipse cx="58.63" cy="179.94" fill="#FFFFFF" rx="10" ry="10" style="stroke:#FFFFFF;stroke-width:1;"/><path d="M65.7011,187.0111 A10,10 0 0 0 65.7011 172.8689" fill="none" style="stroke:#181818;stroke-width:1.5;"/><path d="M51.5589,172.8689 A10,10 0 0 0 51.5589 187.0111" fill="none" style="stroke:#181818;stroke-width:1.5;"/><ellipse cx="58.63" cy="179.94" fill="#FFFFFF" rx="6" ry="6" style="stroke:#181818;stroke-width:1.5;"/></g><!--link ac1 to right1--><g class="link" data-entity-1="ent0006" data-entity-2="ent0010" data-link-type="dependency" data-source-line="7" id="lnk11"><path d="M114.97,179.94 C126.62,179.94 132.28,179.94 143.93,179.94" fill="none" id="ac1-to-right1" style="stroke:#181818;stroke-width:1;"/><polygon fill="#181818" points="149.93,179.94,140.93,175.94,144.93,179.94,140.93,183.94,149.93,179.94" style="stroke:#181818;stroke-width:1;"/><ellipse cx="129.45" cy="179.94" fill="#FFFFFF" rx="10" ry="10" style="stroke:#FFFFFF;stroke-width:1;"/><path d="M136.5211,187.0111 A10,10 0 0 0 136.5211 172.8689" fill="none" style="stroke:#181818;stroke-width:1.5;"/><path d="M122.3789,172.8689 A10,10 0 0 0 122.3789 187.0111" fill="none" style="stroke:#181818;stroke-width:1.5;"/><ellipse cx="129.45" cy="179.94" fill="#FFFFFF" rx="6" ry="6" style="stroke:#181818;stroke-width:1.5;"/></g><!--reverse link up1 to ac1--><g class="link" data-entity-1="ent0012" data-entity-2="ent0006" data-link-type="dependency" data-source-line="8" id="lnk14"><path d="M114.9301,87.9062 C108.5501,115.5362 101.58,145.74 97.1,165.14" fill="none" id="up1-backto-ac1" style="stroke:#181818;stroke-width:1;stroke-dasharray:7,7;"/><polygon fill="#181818" points="116.28,82.06,110.3577,89.9293,115.1551,86.9318,118.1526,91.7292,116.28,82.06" style="stroke:#181818;stroke-width:1;"/><ellipse cx="105.3025" cy="129.6093" fill="#FFFFFF" rx="10" ry="10" style="stroke:#FFFFFF;stroke-width:1;"/><path d="M96.8222,134.9088 A10,10 0 0 0 110.602 138.0896" fill="none" style="stroke:#181818;stroke-width:1.5;"/><path d="M113.7828,124.3099 A10,10 0 0 0 100.0031 121.129" fill="none" style="stroke:#181818;stroke-width:1.5;"/><ellipse cx="105.3025" cy="129.6093" fill="#FFFFFF" rx="6" ry="6" style="stroke:#181818;stroke-width:1.5;"/></g><!--reverse link up2 to ac1--><g class="link" data-entity-1="ent0015" data-entity-2="ent0006" data-link-type="dependency" data-source-line="9" id="lnk17"><path d="M72.8999,87.9062 C79.2799,115.5362 86.25,145.74 90.73,165.14" fill="none" id="up2-backto-ac1" style="stroke:#181818;stroke-width:1;stroke-dasharray:1,3;"/><polygon fill="#181818" points="71.55,82.06,69.6774,91.7292,72.6749,86.9318,77.4723,89.9293,71.55,82.06" style="stroke:#181818;stroke-width:1;"/><ellipse cx="82.5275" cy="129.6093" fill="#FFFFFF" rx="10" ry="10" style="stroke:#FFFFFF;stroke-width:1;"/><path d="M77.228,138.0896 A10,10 0 0 0 91.0078 134.9088" fill="none" style="stroke:#181818;stroke-width:1.5;"/><path d="M87.8269,121.129 A10,10 0 0 0 74.0472 124.3099" fill="none" style="stroke:#181818;stroke-width:1.5;"/><ellipse cx="82.5275" cy="129.6093" fill="#FFFFFF" rx="6" ry="6" style="stroke:#181818;stroke-width:1.5;"/></g><!--link ac1 to down1--><g class="link" data-entity-1="ent0006" data-entity-2="ent0018" data-link-type="dependency" data-source-line="10" id="lnk19"><path d="M89.83,194.31 C83.96,213.55 74.6419,244.0515 66.1519,271.8615" fill="none" id="ac1-to-down1" style="stroke:#181818;stroke-width:1;"/><polygon fill="#181818" points="64.4,277.6,70.8535,270.1601,65.8599,272.8179,63.2021,267.8243,64.4,277.6" style="stroke:#181818;stroke-width:1;"/><ellipse cx="78.9734" cy="229.872" fill="#FFFFFF" rx="10" ry="10" style="stroke:#FFFFFF;stroke-width:1;"/><path d="M70.1455,234.5696 A10,10 0 0 0 83.6711 238.6999" fill="none" style="stroke:#181818;stroke-width:1.5;"/><path d="M87.8014,225.1744 A10,10 0 0 0 74.2758 221.044" fill="none" style="stroke:#181818;stroke-width:1.5;"/><ellipse cx="78.9734" cy="229.872" fill="#FFFFFF" rx="6" ry="6" style="stroke:#181818;stroke-width:1.5;"/></g><!--link ac1 to down2--><g class="link" data-entity-1="ent0006" data-entity-2="ent0020" data-link-type="dependency" data-source-line="11" id="lnk21"><path d="M98,194.31 C103.87,213.55 113.1781,244.0515 121.6681,271.8615" fill="none" id="ac1-to-down2" style="stroke:#181818;stroke-width:1;"/><polygon fill="#181818" points="123.42,277.6,124.6179,267.8243,121.9601,272.8179,116.9665,270.1601,123.42,277.6" style="stroke:#181818;stroke-width:1;"/><ellipse cx="108.8516" cy="229.872" fill="#FFFFFF" rx="10" ry="10" style="stroke:#FFFFFF;stroke-width:1;"/><path d="M104.1524,238.6991 A10,10 0 0 0 117.6787 234.5711" fill="none" style="stroke:#181818;stroke-width:1.5;"/><path d="M113.5507,221.0448 A10,10 0 0 0 100.0244 225.1729" fill="none" style="stroke:#181818;stroke-width:1.5;"/><ellipse cx="108.8516" cy="229.872" fill="#FFFFFF" rx="6" ry="6" style="stroke:#181818;stroke-width:1.5;"/></g><!--link actor1 to actor2--><g class="link" data-entity-1="ent0022" data-entity-2="ent0023" data-link-type="association" data-source-line="13" id="lnk24"><path d="M455.91,82.06 C455.91,100.68 455.91,123.14 455.91,141.74" fill="none" id="actor1-actor2" style="stroke:#181818;stroke-width:1;"/><path d="M448.8389,118.9786 A10,10 0 0 0 462.9811 118.9786" fill="none" style="stroke:#181818;stroke-width:1.5;"/><ellipse cx="455.91" cy="111.9075" fill="#FFFFFF" rx="6" ry="6" style="stroke:#181818;stroke-width:1.5;"/></g><!--link comp1 to comp2--><g class="link" data-entity-1="ent0025" data-entity-2="ent0026" data-link-type="composition" data-source-line="17" id="lnk27"><path d="M616.6065,77.4736 C602.0265,102.2636 592.8923,117.7791 578.2923,142.5991" fill="none" id="comp1-comp2" style="stroke:#181818;stroke-width:1;"/><polygon fill="#181818" points="622.69,67.13,616.2004,70.274,616.6065,77.4736,623.0961,74.3297,622.69,67.13" style="stroke:#181818;stroke-width:1;"/><ellipse cx="574.2362" cy="149.4945" fill="#FFFFFF" rx="8" ry="8" style="stroke:#181818;stroke-width:1;"/><line style="stroke:#181818;stroke-width:1;" x1="578.2923" x2="570.18" y1="142.5991" y2="156.39"/><line style="stroke:#181818;stroke-width:1;" x1="581.1316" x2="567.3407" y1="153.5507" y2="145.4384"/><path d="M587.7766,112.5336 A10,10 0 0 0 599.9654 119.7054" fill="none" style="stroke:#181818;stroke-width:1.5;"/><ellipse cx="597.4569" cy="110.0251" fill="#FFFFFF" rx="6" ry="6" style="stroke:#181818;stroke-width:1.5;"/></g><!--link comp3 to comp4--><g class="link" data-entity-1="ent0028" data-entity-2="ent0029" data-link-type="dependency" data-source-line="18" id="lnk30"><path d="M806.91,73.13 C806.91,97.92 806.91,123.57 806.91,148.39" fill="none" id="comp3-comp4" style="stroke:#181818;stroke-width:1;"/><polygon fill="#181818" points="806.91,67.13,802.91,76.13,806.91,72.13,810.91,76.13,806.91,67.13" style="stroke:#181818;stroke-width:1;"/><polygon fill="#181818" points="806.91,156.39,809.91,148.39,803.91,148.39,806.91,156.39" style="stroke:#181818;stroke-width:1;"/></g><!--link b1 to c1--><g class="link" data-entity-1="ent0031" data-entity-2="ent0032" data-link-type="association" data-source-line="22" id="lnk33"><path d="M909.91,68.04 C909.91,92.54 909.91,130.8 909.91,155.37" fill="none" id="b1-c1" style="stroke:#181818;stroke-width:1;"/><ellipse cx="909.91" cy="111.6787" fill="#FFFFFF" rx="10" ry="10" style="stroke:#FFFFFF;stroke-width:1;"/><path d="M902.8389,118.7498 A10,10 0 0 0 916.9811 118.7498" fill="none" style="stroke:#181818;stroke-width:1.5;"/><path d="M916.9811,104.6077 A10,10 0 0 0 902.8389 104.6077" fill="none" style="stroke:#181818;stroke-width:1.5;"/><ellipse cx="909.91" cy="111.6787" fill="#FFFFFF" rx="6" ry="6" style="stroke:#181818;stroke-width:1.5;"/></g><!--link comp1 to interf1--><g class="link" data-entity-1="ent0025" data-entity-2="ent0034" data-source-line="26" id="lnk35"><path d="M642.2252,72.0017 C649.2952,102.6117 658.2203,141.2863 662.8403,161.2963" fill="none" id="comp1-interf1" style="stroke:#181818;stroke-width:1;stroke-dasharray:1,3;"/><rect fill="#FFFFFF" height="10" style="stroke:#181818;stroke-width:1.5;" width="10" x="636.1" y="62.13"/><path d="M672.638,166.1381 A9,9 0 0 0 656.1571 169.9433" fill="none" style="stroke:#181818;stroke-width:1.5;"/></g><!--link mode1actor to fooa1--><g class="link" data-entity-1="ent0036" data-entity-2="ent0037" data-link-type="association" data-source-line="28" id="lnk38"><path d="M1011.91,82.06 C1011.91,100.68 1011.91,123.14 1011.91,141.74" fill="none" id="mode1actor-fooa1" style="stroke:#181818;stroke-width:1;"/><path d="M1004.8389,118.9786 A10,10 0 0 0 1018.9811 118.9786" fill="none" style="stroke:#181818;stroke-width:1.5;"/><ellipse cx="1011.91" cy="111.9075" fill="#FFFFFF" rx="6" ry="6" style="stroke:#181818;stroke-width:1.5;"/></g><!--link mode1actorl to foo1l--><g class="link" data-entity-1="ent0039" data-entity-2="ent0040" data-link-type="association" data-source-line="29" id="lnk41"><path d="M262.62,43.65 C274.2,43.65 285.77,43.65 297.35,43.65" fill="none" id="mode1actorl-foo1l" style="stroke:#181818;stroke-width:1;"/><path d="M287.0561,50.7211 A10,10 0 0 0 287.0561 36.5789" fill="none" style="stroke:#181818;stroke-width:1.5;"/><ellipse cx="279.985" cy="43.65" fill="#FFFFFF" rx="6" ry="6" style="stroke:#181818;stroke-width:1.5;"/></g><!--link component1 to componentC--><g class="link" data-entity-1="ent0042" data-entity-2="ent0043" data-source-line="31" id="lnk44"><path d="M1169.0309,76.0242 C1181.7709,100.8142 1193.0107,122.675 1205.7607,147.495" fill="none" id="component1-componentC" style="stroke:#181818;stroke-width:1;"/><ellipse cx="1164.46" cy="67.13" fill="#FFFFFF" rx="6" ry="6" style="stroke:#181818;stroke-width:1.5;"/><path d="M1161.4029,76.6513 A10,10 0 0 0 1173.9813 70.1871" fill="#FFFFFF" style="stroke:#181818;stroke-width:1.5;"/><ellipse cx="1210.33" cy="156.39" fill="#FFFFFF" rx="6" ry="6" style="stroke:#181818;stroke-width:1.5;"/><path d="M1213.3887,146.8693 A10,10 0 0 0 1200.8093 153.3313" fill="#FFFFFF" style="stroke:#181818;stroke-width:1.5;"/><path d="M1190.4487,102.227 A10,10 0 0 0 1177.8706 108.6917" fill="none" style="stroke:#181818;stroke-width:1.5;"/><ellipse cx="1187.392" cy="111.7484" fill="#FFFFFF" rx="6" ry="6" style="stroke:#181818;stroke-width:1.5;"/></g><!--link component3 to componentC--><g class="link" data-entity-1="ent0045" data-entity-2="ent0043" data-source-line="32" id="lnk46"><path d="M1293.8196,61.1853 C1281.5496,81.2853 1259.4826,117.426 1240.8226,147.976" fill="none" id="component3-componentC" style="stroke:#181818;stroke-width:1;"/><path d="M1290.2076,50.8708 A9,9 0 0 0 1304.6447 59.6839" fill="none" style="stroke:#181818;stroke-width:1.5;"/><ellipse cx="1235.61" cy="156.51" fill="#FFFFFF" rx="6" ry="6" style="stroke:#181818;stroke-width:1.5;"/><path d="M1245.3303,154.1614 A10,10 0 0 0 1233.2614 146.7897" fill="#FFFFFF" style="stroke:#181818;stroke-width:1.5;"/><text fill="#000000" font-family="sans-serif" font-size="13" lengthAdjust="spacing" textLength="20.4839" x="1216.618" y="145.6659">foo</text><ellipse cx="1269.7174" cy="100.6619" fill="#FFFFFF" rx="6" ry="6" style="stroke:#181818;stroke-width:1.5;"/></g><!--link aze1 to aze2--><g class="link" data-entity-1="ent0047" data-entity-2="ent0048" data-link-type="dependency" data-source-line="34" id="lnk49"><path d="M1427.91,72.13 C1427.91,96.92 1427.91,123.57 1427.91,148.39" fill="none" id="aze1-aze2" style="stroke:#181818;stroke-width:1;"/><rect fill="#FFFFFF" height="10" style="stroke:#181818;stroke-width:1.5;" width="10" x="1422.91" y="62.13"/><polygon fill="#181818" points="1427.91,156.39,1430.91,148.39,1424.91,148.39,1427.91,156.39" style="stroke:#181818;stroke-width:1;"/></g><?plantuml-src PP11RiCW44Ntd6AKREnMH1wdAwlofiU8M60RjvO8M0YhIXO-UsV0IPj6GcB-Wvd_GVVH1nYzHw5lPIrOmxkiPFkWYwgy4H25xh44QKscreoHPo38C6KKfi-lZHsMcTYXXMNEO4rWPL3dhi7dhi5_Etn6R9aI4YS8gMRO-_FidN4HkC9_kauQuOMRNZTquksew4MoRI6fDoL4vnStw721ZgUu6Bo57aL7Zfo3woUtoKKJHjqRo1LkVljrBUv8D6S_64oHcnoVFb7ZNsuR_hZj2At88PCLAY1ULBJWbtueKPHmbqSePRgne_xTuprnqbT3K_RvlIHgzGC0?></g></svg>