<svg xmlns="http://www.w3.org/2000/svg" xmlns:xlink="http://www.w3.org/1999/xlink" contentStyleType="text/css" data-diagram-type="DESCRIPTION" height="200px" preserveAspectRatio="none" style="width:481px;height:200px;background:#FFFFFF;" version="1.1" viewBox="0 0 481 200" width="481px" zoomAndPan="magnify"><?plantuml 1.2026.3beta5?><defs/><g><!--entity node1--><g class="entity" data-qualified-name="node1" data-source-line="1" id="ent0002"><polygon fill="#F1F1F1" points="194,16,204,6,277.8457,6,277.8457,42.2969,267.8457,52.2969,194,52.2969,194,16" style="stroke:#181818;stroke-width:0.5;"/><line style="stroke:#181818;stroke-width:0.5;" x1="267.8457" x2="277.8457" y1="16" y2="6"/><line style="stroke:#181818;stroke-width:0.5;" x1="194" x2="267.8457" y1="16" y2="16"/><line style="stroke:#181818;stroke-width:0.5;" x1="267.8457" x2="267.8457" y1="16" y2="52.2969"/><text fill="#000000" font-family="sans-serif" font-size="14" lengthAdjust="spacing" textLength="43.8457" x="209" y="38.9951">node1</text></g><!--entity node2--><g class="entity" data-qualified-name="node2" data-source-line="2" id="ent0003"><polygon fill="#F1F1F1" points="16,139.29,26,129.29,99.8457,129.29,99.8457,165.5869,89.8457,175.5869,16,175.5869,16,139.29" style="stroke:#181818;stroke-width:0.5;"/><line style="stroke:#181818;stroke-width:0.5;" x1="89.8457" x2="99.8457" y1="139.29" y2="129.29"/><line style="stroke:#181818;stroke-width:0.5;" x1="16" x2="89.8457" y1="139.29" y2="139.29"/><line style="stroke:#181818;stroke-width:0.5;" x1="89.8457" x2="89.8457" y1="139.29" y2="175.5869"/><text fill="#000000" font-family="sans-serif" font-size="14" lengthAdjust="spacing" textLength="43.8457" x="31" y="162.2851">node2</text></g><!--entity node3--><g class="entity" data-qualified-name="node3" data-source-line="3" id="ent0004"><polygon fill="#F1F1F1" points="135,139.29,145,129.29,218.8457,129.29,218.8457,165.5869,208.8457,175.5869,135,175.5869,135,139.29" style="stroke:#181818;stroke-width:0.5;"/><line style="stroke:#181818;stroke-width:0.5;" x1="208.8457" x2="218.8457" y1="139.29" y2="129.29"/><line style="stroke:#181818;stroke-width:0.5;" x1="135" x2="208.8457" y1="139.29" y2="139.29"/><line style="stroke:#181818;stroke-width:0.5;" x1="208.8457" x2="208.8457" y1="139.29" y2="175.5869"/><text fill="#000000" font-family="sans-serif" font-size="14" lengthAdjust="spacing" textLength="43.8457" x="150" y="162.2851">node3</text></g><!--entity node4--><g class="entity" data-qualified-name="node4" data-source-line="4" id="ent0005"><polygon fill="#F1F1F1" points="254,139.29,264,129.29,337.8457,129.29,337.8457,165.5869,327.8457,175.5869,254,175.5869,254,139.29" style="stroke:#181818;stroke-width:0.5;"/><line style="stroke:#181818;stroke-width:0.5;" x1="327.8457" x2="337.8457" y1="139.29" y2="129.29"/><line style="stroke:#181818;stroke-width:0.5;" x1="254" x2="327.8457" y1="139.29" y2="139.29"/><line style="stroke:#181818;stroke-width:0.5;" x1="327.8457" x2="327.8457" y1="139.29" y2="175.5869"/><text fill="#000000" font-family="sans-serif" font-size="14" lengthAdjust="spacing" textLength="43.8457" x="269" y="162.2851">node4</text></g><!--entity node5--><g class="entity" data-qualified-name="node5" data-source-line="5" id="ent0006"><polygon fill="#F1F1F1" points="373,139.29,383,129.29,456.8457,129.29,456.8457,165.5869,446.8457,175.5869,373,175.5869,373,139.29" style="stroke:#181818;stroke-width:0.5;"/><line style="stroke:#181818;stroke-width:0.5;" x1="446.8457" x2="456.8457" y1="139.29" y2="129.29"/><line style="stroke:#181818;stroke-width:0.5;" x1="373" x2="446.8457" y1="139.29" y2="139.29"/><line style="stroke:#181818;stroke-width:0.5;" x1="446.8457" x2="446.8457" y1="139.29" y2="175.5869"/><text fill="#000000" font-family="sans-serif" font-size="14" lengthAdjust="spacing" textLength="43.8457" x="388" y="162.2851">node5</text></g><!--link node1 to node2--><g class="link" data-entity-1="ent0002" data-entity-2="ent0003" data-link-type="association" data-source-line="6" id="lnk7"><path d="M199.71,52.55 C185.33,61.6 168.73,72.26 153.92,82.29 C131.64,97.38 107.03,115.14 88.3,128.88" fill="none" id="node1-node2" style="stroke:#181818;stroke-width:1;"/><text fill="#000000" font-family="sans-serif" font-size="13" lengthAdjust="spacing" textLength="39.7109" x="154.92" y="95.3569">label1</text></g><!--link node1 to node3--><g class="link" data-entity-1="ent0002" data-entity-2="ent0004" data-link-type="association" data-source-line="7" id="lnk8"><path d="M224.96,52.68 C214.37,74.46 198.4,107.29 187.82,129.03" fill="none" id="node1-node3" style="stroke:#181818;stroke-width:1;stroke-dasharray:7,7;"/><text fill="#000000" font-family="sans-serif" font-size="13" lengthAdjust="spacing" textLength="39.7109" x="211.92" y="95.3569">label2</text></g><!--link node1 to node4--><g class="link" data-entity-1="ent0002" data-entity-2="ent0005" data-link-type="association" data-source-line="8" id="lnk9"><path d="M247.07,52.68 C257.84,74.46 274.08,107.29 284.84,129.03" fill="none" id="node1-node4" style="stroke:#181818;stroke-width:1;stroke-dasharray:1,3;"/><text fill="#000000" font-family="sans-serif" font-size="13" lengthAdjust="spacing" textLength="39.7109" x="270.92" y="95.3569">label3</text></g><!--link node1 to node5--><g class="link" data-entity-1="ent0002" data-entity-2="ent0006" data-link-type="association" data-source-line="9" id="lnk10"><path d="M273.02,52.75 C287.47,61.75 304.1,72.31 318.92,82.29 C341.24,97.32 365.86,115.08 384.57,128.83" fill="none" id="node1-node5" style="stroke:#181818;stroke-width:2;"/></g><?plantuml-src oyjFILN80nA6N7amfX62QOnWcY2Ofc2ceOAkBaIzWfL2Jc9IQeuXL5nF3w8P9cu45Q-hWvW44pU6YjlQGem50000?></g></svg>