<svg xmlns="http://www.w3.org/2000/svg" xmlns:xlink="http://www.w3.org/1999/xlink" contentStyleType="text/css" data-diagram-type="DESCRIPTION" height="242px" preserveAspectRatio="none" style="width:904px;height:242px;background:#FFFFFF;" version="1.1" viewBox="0 0 904 242" width="904px" zoomAndPan="magnify"><?plantuml 1.2026.3beta5?><defs/><g><g class="title" data-source-line="1"><text fill="#000000" font-family="sans-serif" font-size="14" font-weight="700" lengthAdjust="spacing" textLength="190.8799" x="353.1018" y="22.9951">Bracketed line style mix</text></g><!--entity foo--><g class="entity" data-qualified-name="foo" data-source-line="2" id="ent0002"><polygon fill="#F1F1F1" points="320.5808,53.2969,330.5808,43.2969,382.6404,43.2969,382.6404,79.5938,372.6404,89.5938,320.5808,89.5938,320.5808,53.2969" style="stroke:#181818;stroke-width:0.5;"/><line style="stroke:#181818;stroke-width:0.5;" x1="372.6404" x2="382.6404" y1="53.2969" y2="43.2969"/><line style="stroke:#181818;stroke-width:0.5;" x1="320.5808" x2="372.6404" y1="53.2969" y2="53.2969"/><line style="stroke:#181818;stroke-width:0.5;" x1="372.6404" x2="372.6404" y1="53.2969" y2="89.5938"/><text fill="#000000" font-family="sans-serif" font-size="14" lengthAdjust="spacing" textLength="22.0596" x="335.5808" y="76.292">foo</text></g><!--entity bar--><g class="entity" data-qualified-name="bar" data-source-line="3" id="ent0003"><ellipse cx="17.6108" cy="195.5969" fill="#F1F1F1" rx="8" ry="8" style="stroke:#181818;stroke-width:0.5;"/><text fill="#000000" font-family="sans-serif" font-size="14" lengthAdjust="spacing" textLength="23.2217" x="6" y="225.592">bar</text></g><!--entity bar1--><g class="entity" data-qualified-name="bar1" data-source-line="4" id="ent0005"><ellipse cx="106.6108" cy="195.5969" fill="#F1F1F1" rx="8" ry="8" style="stroke:#181818;stroke-width:0.5;"/><text fill="#000000" font-family="sans-serif" font-size="14" lengthAdjust="spacing" textLength="32.1289" x="90.5464" y="225.592">bar1</text></g><!--entity bar2--><g class="entity" data-qualified-name="bar2" data-source-line="5" id="ent0007"><ellipse cx="203.6108" cy="195.5969" fill="#F1F1F1" rx="8" ry="8" style="stroke:#181818;stroke-width:0.5;"/><text fill="#000000" font-family="sans-serif" font-size="14" lengthAdjust="spacing" textLength="32.1289" x="187.5464" y="225.592">bar2</text></g><!--entity bar3--><g class="entity" data-qualified-name="bar3" data-source-line="6" id="ent0009"><ellipse cx="351.6108" cy="195.5969" fill="#F1F1F1" rx="8" ry="8" style="stroke:#181818;stroke-width:0.5;"/><text fill="#000000" font-family="sans-serif" font-size="14" lengthAdjust="spacing" textLength="32.1289" x="335.5464" y="225.592">bar3</text></g><!--entity bar4--><g class="entity" data-qualified-name="bar4" data-source-line="7" id="ent0011"><ellipse cx="515.6108" cy="195.5969" fill="#F1F1F1" rx="8" ry="8" style="stroke:#181818;stroke-width:0.5;"/><text fill="#000000" font-family="sans-serif" font-size="14" lengthAdjust="spacing" textLength="32.1289" x="499.5464" y="225.592">bar4</text></g><!--entity bar5--><g class="entity" data-qualified-name="bar5" data-source-line="8" id="ent0013"><ellipse cx="654.6108" cy="195.5969" fill="#F1F1F1" rx="8" ry="8" style="stroke:#181818;stroke-width:0.5;"/><text fill="#000000" font-family="sans-serif" font-size="14" lengthAdjust="spacing" textLength="32.1289" x="638.5464" y="225.592">bar5</text></g><!--entity bar6--><g class="entity" data-qualified-name="bar6" data-source-line="9" id="ent0015"><ellipse cx="790.6108" cy="195.5969" fill="#F1F1F1" rx="8" ry="8" style="stroke:#181818;stroke-width:0.5;"/><text fill="#000000" font-family="sans-serif" font-size="14" lengthAdjust="spacing" textLength="32.1289" x="774.5464" y="225.592">bar6</text></g><!--link foo to bar--><g class="link" data-entity-1="ent0002" data-entity-2="ent0003" data-link-type="dependency" data-source-line="3" id="lnk4"><path d="M320.3608,70.1869 C274.1908,75.1469 185.8508,88.1869 117.6108,119.5969 C79.3708,137.1969 45.9823,167.0346 29.9623,182.4646" fill="none" id="foo-to-bar" style="stroke:#181818;stroke-width:1;"/><polygon fill="#181818" points="25.6408,186.6269,34.8979,183.2644,29.2421,183.1583,29.3482,177.5024,25.6408,186.6269" style="stroke:#181818;stroke-width:1;"/><text fill="#000000" font-family="sans-serif" font-size="13" lengthAdjust="spacing" textLength="11.3242" x="118.6108" y="132.6638">&#8709;</text></g><!--link foo to bar1--><g class="link" data-entity-1="ent0002" data-entity-2="ent0005" data-link-type="dependency" data-source-line="4" id="lnk6"><path d="M320.1608,68.9669 C278.8008,72.3769 205.5408,83.4869 155.6108,119.5969 C131.1608,137.2769 117.8361,165.6468 111.7461,181.0568" fill="none" id="foo-to-bar1" style="stroke:#FF0000;stroke-width:1;"/><polygon fill="#FF0000" points="109.5408,186.6369,116.5687,179.7369,111.3785,181.9868,109.1286,176.7966,109.5408,186.6369" style="stroke:#FF0000;stroke-width:1;"/><text fill="#000000" font-family="sans-serif" font-size="13" lengthAdjust="spacing" textLength="55.0342" x="156.6108" y="132.6638">[#red,1]</text></g><!--link foo to bar2--><g class="link" data-entity-1="ent0002" data-entity-2="ent0007" data-link-type="dependency" data-source-line="5" id="lnk8"><path d="M320.3208,73.8069 C293.4708,80.7669 255.4508,94.4669 231.6108,119.5969 C213.0508,139.1569 207.3664,166.2039 205.3064,181.0339" fill="none" id="foo-to-bar2" style="stroke:#FF0000;stroke-width:2;stroke-dasharray:7,7;"/><polygon fill="#FF0000" points="204.4808,186.9769,209.6811,178.6128,205.1688,182.0244,201.7572,177.5121,204.4808,186.9769" style="stroke:#FF0000;stroke-width:2;"/><text fill="#000000" font-family="sans-serif" font-size="13" lengthAdjust="spacing" textLength="106.647" x="232.6108" y="132.6638">[#red,dashed,2]</text></g><!--link foo to bar3--><g class="link" data-entity-1="ent0002" data-entity-2="ent0009" data-link-type="dependency" data-source-line="6" id="lnk10"><path d="M350.0308,90.0269 C349.4608,99.1969 348.8908,109.8969 348.6108,119.5969 C347.9108,144.0869 349.3736,167.0759 350.4636,180.7359" fill="none" id="foo-to-bar3" style="stroke:#008000;stroke-width:4;stroke-dasharray:7,7;"/><polygon fill="#008000" points="350.9408,186.7169,354.2123,177.4272,350.5431,181.7327,346.2376,178.0636,350.9408,186.7169" style="stroke:#008000;stroke-width:4;"/><text fill="#000000" font-family="sans-serif" font-size="13" lengthAdjust="spacing" textLength="122.8843" x="349.6108" y="132.6638">[#green,dashed,4]</text></g><!--link foo to bar4--><g class="link" data-entity-1="ent0002" data-entity-2="ent0011" data-link-type="dependency" data-source-line="7" id="lnk12"><path d="M382.9008,74.0869 C410.3908,81.2869 450.0308,95.1769 476.6108,119.5969 C497.5708,138.8669 507.4708,166.2398 511.8508,181.1598" fill="none" id="foo-to-bar4" style="stroke:#0000FF;stroke-width:8;stroke-dasharray:1,3;"/><polygon fill="#0000FF" points="513.5408,186.9169,514.8438,177.1546,512.1324,182.1193,507.1677,179.408,513.5408,186.9169" style="stroke:#0000FF;stroke-width:8;"/><text fill="#000000" font-family="sans-serif" font-size="13" lengthAdjust="spacing" textLength="97.4302" x="490.6108" y="132.6638">[blue,dotted,8]</text></g><!--link foo to bar5--><g class="link" data-entity-1="ent0002" data-entity-2="ent0013" data-link-type="dependency" data-source-line="8" id="lnk14"><path d="M382.7708,67.3969 C431.9308,68.7069 528.8608,77.0169 596.6108,119.5969 C623.9208,136.7669 640.7429,166.2327 648.3829,181.6227" fill="none" id="foo-to-bar5" style="stroke:#0000FF;stroke-width:16;"/><polygon fill="#0000FF" points="651.0508,186.9969,650.6318,177.1569,648.8276,182.5184,643.4662,180.7141,651.0508,186.9969" style="stroke:#0000FF;stroke-width:16;"/><text fill="#000000" font-family="sans-serif" font-size="13" lengthAdjust="spacing" textLength="94.7324" x="616.6108" y="132.6638">[blue,plain,16]</text></g><!--link foo to bar6--><g class="link" data-entity-1="ent0002" data-entity-2="ent0015" data-link-type="dependency" data-source-line="9" id="lnk16"><path d="M382.8908,69.2369 C460.7108,74.0969 660.9208,89.2769 719.6108,119.5969 C750.8308,135.7269 772.6344,166.0582 782.6544,181.7682" fill="none" id="foo-to-bar6" style="stroke:#0000FF;stroke-width:4;stroke-dasharray:7,7;"/><polygon fill="#0000FF" points="785.8808,186.8269,784.4136,177.0879,783.1921,182.6113,777.6687,181.3899,785.8808,186.8269" style="stroke:#0000FF;stroke-width:4;"/><path d="M384.8908,71.2369 C462.7108,76.0969 662.9208,91.2769 721.6108,121.5969 C752.8308,137.7269 774.6344,168.0582 784.6544,183.7682" fill="none" id="foo-to-bar6" style="stroke:#008000;stroke-width:4;stroke-dasharray:7,7;"/><text fill="#000000" font-family="sans-serif" font-size="13" lengthAdjust="spacing" textLength="144.4727" x="743.6108" y="132.6638">[blue;green,dashed,4]</text></g><?plantuml-src XS_F2i8W7C3n-vxY1rstmvQDqQX3hn4xkFchoKn33Ue1Wfwp9sbCMLfGWXVzVlnZkHK8Eqsx0Iqo45mY67iR5q_ycaZ540vA9UE4BDj2IpNy6cjuFkwktYyqijJsl1ia6hF96-Vpi7PHteI4KTD7il2o28YFYbaUDQByjiJRvIIZYCos5HTCcR8sefMdPBerRAfOdWNbClnfwUNgBLqpxeIo_lVgSZwW_dZw2m00?></g></svg>