<svg xmlns="http://www.w3.org/2000/svg" xmlns:xlink="http://www.w3.org/1999/xlink" contentStyleType="text/css" data-diagram-type="DESCRIPTION" height="413px" preserveAspectRatio="none" style="width:193px;height:413px;background:#FFFFFF;" version="1.1" viewBox="0 0 193 413" width="193px" zoomAndPan="magnify"><?plantuml 1.2026.3beta5?><defs/><g><!--cluster node--><g class="cluster" data-qualified-name="node" data-source-line="2" id="ent0003"><polygon fill="none" points="16,129.3,26,119.3,168,119.3,168,277.59,158,287.59,16,287.59,16,129.3" style="stroke:#181818;stroke-width:1;"/><line style="stroke:#181818;stroke-width:1;" x1="158" x2="168" y1="129.3" y2="119.3"/><line style="stroke:#181818;stroke-width:1;" x1="16" x2="158" y1="129.3" y2="129.3"/><line style="stroke:#181818;stroke-width:1;" x1="158" x2="158" y1="129.3" y2="287.59"/><text fill="#000000" font-family="sans-serif" font-size="14" font-weight="700" lengthAdjust="spacing" textLength="39.1016" x="68.4492" y="145.2951">node</text></g><g class="entity" data-qualified-name="node.p1" data-source-line="3" id="ent0004"><text fill="#000000" font-family="sans-serif" font-size="14" lengthAdjust="spacing" textLength="17.7939" x="40.103" y="97.9982">p1</text><rect fill="#F1F1F1" height="12" style="stroke:#181818;stroke-width:1.5;" width="12" x="43" y="113.3"/></g><g class="entity" data-qualified-name="node.p2" data-source-line="4" id="ent0005"><text fill="#000000" font-family="sans-serif" font-size="14" lengthAdjust="spacing" textLength="17.7939" x="87.103" y="97.9982">p2</text><rect fill="#F1F1F1" height="12" style="stroke:#181818;stroke-width:1.5;" width="12" x="90" y="113.3"/></g><g class="entity" data-qualified-name="node.p3" data-source-line="5" id="ent0006"><text fill="#000000" font-family="sans-serif" font-size="14" lengthAdjust="spacing" textLength="17.7939" x="134.103" y="97.9982">p3</text><rect fill="#F1F1F1" height="12" style="stroke:#181818;stroke-width:1.5;" width="12" x="137" y="113.3"/></g><g class="entity" data-qualified-name="node.po1" data-source-line="6" id="ent0007"><text fill="#000000" font-family="sans-serif" font-size="14" lengthAdjust="spacing" textLength="26.3594" x="42.8203" y="306.5851">po1</text><rect fill="#F1F1F1" height="12" style="stroke:#181818;stroke-width:1.5;" width="12" x="50" y="281.59"/></g><g class="entity" data-qualified-name="node.po2" data-source-line="7" id="ent0008"><text fill="#000000" font-family="sans-serif" font-size="14" lengthAdjust="spacing" textLength="26.3594" x="89.8203" y="306.5851">po2</text><rect fill="#F1F1F1" height="12" style="stroke:#181818;stroke-width:1.5;" width="12" x="97" y="281.59"/></g><g class="entity" data-qualified-name="node.po3" data-source-line="8" id="ent0009"><text fill="#000000" font-family="sans-serif" font-size="14" lengthAdjust="spacing" textLength="26.3594" x="136.8203" y="306.5851">po3</text><rect fill="#F1F1F1" height="12" style="stroke:#181818;stroke-width:1.5;" width="12" x="144" y="281.59"/></g><!--entity f1--><g class="entity" data-qualified-name="node.f1" data-source-line="9" id="ent0010"><path d="M32.08,187.8 L32.08,219.0969 A2.5,2.5 0 0 0 34.58,221.5969 L63.4159,221.5969 A2.5,2.5 0 0 0 65.9159,219.0969 L65.9159,195.3 L55.9159,185.3 L34.58,185.3 A2.5,2.5 0 0 0 32.08,187.8" fill="#F1F1F1" style="stroke:#181818;stroke-width:0.5;"/><path d="M55.9159,185.3 L55.9159,192.8 A2.5,2.5 0 0 0 58.4159,195.3 L65.9159,195.3" fill="#F1F1F1" style="stroke:#181818;stroke-width:0.5;"/><text fill="#000000" font-family="sans-serif" font-size="14" lengthAdjust="spacing" textLength="13.8359" x="42.08" y="208.2951">f1</text></g><!--entity i--><g class="entity" data-qualified-name="i" data-source-line="1" id="ent0002"><rect fill="#F1F1F1" height="46.2969" rx="2.5" ry="2.5" style="stroke:#181818;stroke-width:0.5;" width="43.8896" x="74.06" y="7"/><rect fill="#F1F1F1" height="10" style="stroke:#181818;stroke-width:0.5;" width="15" x="97.9496" y="12"/><rect fill="#F1F1F1" height="2" style="stroke:#181818;stroke-width:0.5;" width="4" x="95.9496" y="14"/><rect fill="#F1F1F1" height="2" style="stroke:#181818;stroke-width:0.5;" width="4" x="95.9496" y="18"/><text fill="#000000" font-family="sans-serif" font-size="14" lengthAdjust="spacing" textLength="3.8896" x="89.06" y="39.9951">i</text></g><!--entity o--><g class="entity" data-qualified-name="o" data-source-line="11" id="ent0011"><rect fill="#F1F1F1" height="46.2969" rx="2.5" ry="2.5" style="stroke:#181818;stroke-width:0.5;" width="48.5654" x="78.72" y="353.59"/><rect fill="#F1F1F1" height="10" style="stroke:#181818;stroke-width:0.5;" width="15" x="107.2854" y="358.59"/><rect fill="#F1F1F1" height="2" style="stroke:#181818;stroke-width:0.5;" width="4" x="105.2854" y="360.59"/><rect fill="#F1F1F1" height="2" style="stroke:#181818;stroke-width:0.5;" width="4" x="105.2854" y="364.59"/><text fill="#000000" font-family="sans-serif" font-size="14" lengthAdjust="spacing" textLength="8.5654" x="93.72" y="386.5851">o</text></g><!--link i to p1--><g class="link" data-entity-1="ent0002" data-entity-2="ent0004" data-link-type="dependency" data-source-line="13" id="lnk12"><path d="M83.9,53.59 C73.13,73.56 60.99,96.0701 54.75,107.6301" fill="none" id="i-to-p1" style="stroke:#181818;stroke-width:1;"/><polygon fill="#181818" points="51.9,112.91,59.695,106.8902,54.275,108.5101,52.6551,103.0901,51.9,112.91" style="stroke:#181818;stroke-width:1;"/></g><!--link i to p2--><g class="link" data-entity-1="ent0002" data-entity-2="ent0005" data-link-type="dependency" data-source-line="14" id="lnk13"><path d="M96,53.59 C96,73.56 96,95.35 96,106.91" fill="none" id="i-to-p2" style="stroke:#181818;stroke-width:1;"/><polygon fill="#181818" points="96,112.91,100,103.91,96,107.91,92,103.91,96,112.91" style="stroke:#181818;stroke-width:1;"/></g><!--link i to p3--><g class="link" data-entity-1="ent0002" data-entity-2="ent0006" data-link-type="dependency" data-source-line="15" id="lnk14"><path d="M108.1,53.59 C118.87,73.56 131.01,96.0701 137.25,107.6301" fill="none" id="i-to-p3" style="stroke:#181818;stroke-width:1;"/><polygon fill="#181818" points="140.1,112.91,139.3449,103.0901,137.725,108.5101,132.305,106.8902,140.1,112.91" style="stroke:#181818;stroke-width:1;"/></g><!--link p1 to f1--><g class="link" data-entity-1="ent0004" data-entity-2="ent0010" data-link-type="dependency" data-source-line="16" id="lnk15"><path d="M49,125.69 C49,137.54 49,160.29 49,179.05" fill="none" id="p1-to-f1" style="stroke:#181818;stroke-width:1;"/><polygon fill="#181818" points="49,185.05,53,176.05,49,180.05,45,176.05,49,185.05" style="stroke:#181818;stroke-width:1;"/></g><!--link p2 to f1--><g class="link" data-entity-1="ent0005" data-entity-2="ent0010" data-link-type="dependency" data-source-line="17" id="lnk16"><path d="M92.92,125.69 C86.14,137.54 72.6589,161.0817 61.9289,179.8417" fill="none" id="p2-to-f1" style="stroke:#181818;stroke-width:1;"/><polygon fill="#181818" points="58.95,185.05,66.8906,179.2236,61.4324,180.7098,59.9462,175.2517,58.95,185.05" style="stroke:#181818;stroke-width:1;"/></g><!--link po1 to o--><g class="link" data-entity-1="ent0007" data-entity-2="ent0011" data-link-type="dependency" data-source-line="18" id="lnk17"><path d="M58.94,294.04 C65.21,305.67 77.3527,328.1786 88.1027,348.1186" fill="none" id="po1-to-o" style="stroke:#181818;stroke-width:1;"/><polygon fill="#181818" points="90.95,353.4,90.2,343.5797,88.5773,348.9988,83.1582,347.3761,90.95,353.4" style="stroke:#181818;stroke-width:1;"/></g><!--link po2 to o--><g class="link" data-entity-1="ent0008" data-entity-2="ent0011" data-link-type="dependency" data-source-line="19" id="lnk18"><path d="M103,294.04 C103,305.67 103,327.46 103,347.4" fill="none" id="po2-to-o" style="stroke:#181818;stroke-width:1;"/><polygon fill="#181818" points="103,353.4,107,344.4,103,348.4,99,344.4,103,353.4" style="stroke:#181818;stroke-width:1;"/></g><!--link po3 to o--><g class="link" data-entity-1="ent0009" data-entity-2="ent0011" data-link-type="dependency" data-source-line="20" id="lnk19"><path d="M147.06,294.04 C140.79,305.67 128.6473,328.1786 117.8973,348.1186" fill="none" id="po3-to-o" style="stroke:#181818;stroke-width:1;"/><polygon fill="#181818" points="115.05,353.4,122.8418,347.3761,117.4227,348.9988,115.8,343.5797,115.05,353.4" style="stroke:#181818;stroke-width:1;"/></g><!--link f1 to po1--><g class="link" data-entity-1="ent0010" data-entity-2="ent0007" data-link-type="dependency" data-source-line="21" id="lnk20"><path d="M50.48,221.87 C52.09,240.71 54.0412,263.6316 55.0412,275.3816" fill="none" id="f1-to-po1" style="stroke:#181818;stroke-width:1;"/><polygon fill="#181818" points="55.55,281.36,58.7724,272.0532,55.126,276.378,50.8012,272.7316,55.55,281.36" style="stroke:#181818;stroke-width:1;"/></g><?plantuml-src LSmz2i0W30RGFQV81HoCUoyYRbKGIYF5JgLtR_ofw9Ay91-nqS79kyTQ7a1CVELuOjAJQRBfvZjBryj4orII8HuUWuONB3k0Y4fjvNS7_J2GT9La4mrnMxA8XanNQ4S9VG00?></g></svg>