<svg xmlns="http://www.w3.org/2000/svg" xmlns:xlink="http://www.w3.org/1999/xlink" contentStyleType="text/css" data-diagram-type="CLASS" height="828px" preserveAspectRatio="none" style="width:712px;height:828px;background:#FFFFFF;" version="1.1" viewBox="0 0 712 828" width="712px" zoomAndPan="magnify"><?plantuml 1.2026.3beta5?><defs/><g><!--class abstract--><g class="entity" data-qualified-name="abstract" data-source-line="4" id="ent0002"><rect fill="#F1F1F1" height="48" rx="2.5" ry="2.5" style="stroke:#181818;stroke-width:0.5;" width="89.7705" x="21.72" y="7"/><ellipse cx="36.72" cy="23" fill="#A9DCDF" rx="11" ry="11" style="stroke:#181818;stroke-width:1;"/><path d="M36.8294,18.3438 L35.6731,23.4219 L38.0013,23.4219 L36.8294,18.3438 Z M35.345,16.1094 L38.3294,16.1094 L41.6888,28.5 L39.2356,28.5 L38.47,25.4375 L35.1888,25.4375 L34.4388,28.5 L32.0013,28.5 L35.345,16.1094 Z " fill="#000000"/><text fill="#000000" font-family="sans-serif" font-size="14" font-style="italic" lengthAdjust="spacing" textLength="57.7705" x="50.72" y="27.8467">abstract</text><line style="stroke:#181818;stroke-width:0.5;" x1="22.72" x2="110.4905" y1="39" y2="39"/><line style="stroke:#181818;stroke-width:0.5;" x1="22.72" x2="110.4905" y1="47" y2="47"/></g><!--class abstract class--><g class="entity" data-qualified-name="abstract class" data-source-line="5" id="ent0003"><rect fill="#F1F1F1" height="48" rx="2.5" ry="2.5" style="stroke:#181818;stroke-width:0.5;" width="128.9746" x="121.11" y="7"/><ellipse cx="136.11" cy="23" fill="#A9DCDF" rx="11" ry="11" style="stroke:#181818;stroke-width:1;"/><path d="M136.2194,18.3438 L135.0631,23.4219 L137.3913,23.4219 L136.2194,18.3438 Z M134.735,16.1094 L137.7194,16.1094 L141.0788,28.5 L138.6256,28.5 L137.86,25.4375 L134.5788,25.4375 L133.8288,28.5 L131.3913,28.5 L134.735,16.1094 Z " fill="#000000"/><text fill="#000000" font-family="sans-serif" font-size="14" font-style="italic" lengthAdjust="spacing" textLength="96.9746" x="150.11" y="27.8467">abstract class</text><line style="stroke:#181818;stroke-width:0.5;" x1="122.11" x2="249.0846" y1="39" y2="39"/><line style="stroke:#181818;stroke-width:0.5;" x1="122.11" x2="249.0846" y1="47" y2="47"/></g><!--class annotation--><g class="entity" data-qualified-name="annotation" data-source-line="6" id="ent0004"><rect fill="#F1F1F1" height="48" rx="2.5" ry="2.5" style="stroke:#181818;stroke-width:0.5;" width="107.7764" x="259.71" y="7"/><ellipse cx="274.71" cy="23" fill="#E3664A" rx="11" ry="11" style="stroke:#181818;stroke-width:1;"/><path d="M276.7881,23.4688 Q276.7881,22.5313 276.3663,22 Q275.9444,21.4688 275.1944,21.4688 Q274.46,21.4688 274.0381,22 Q273.6319,22.5313 273.6319,23.4688 Q273.6319,24.4219 274.0381,24.9531 Q274.46,25.4844 275.1944,25.4844 Q275.9444,25.4844 276.3663,24.9531 Q276.7881,24.4219 276.7881,23.4688 Z M278.335,26.875 L276.71,26.875 L276.71,26.2031 Q276.3819,26.6406 275.96,26.8438 Q275.5381,27.0469 274.9288,27.0469 Q273.5694,27.0469 272.7413,26.0781 Q271.9131,25.0938 271.9131,23.4688 Q271.9131,21.875 272.7413,20.9063 Q273.5694,19.9219 274.9288,19.9219 Q275.5225,19.9219 275.9756,20.125 Q276.4288,20.3281 276.71,20.7188 L276.71,20.375 Q276.71,19.25 276.085,18.6406 Q275.46,18.0156 274.3194,18.0156 Q272.6006,18.0156 271.5069,19.5469 Q270.4131,21.0625 270.4131,23.5 Q270.4131,26.0469 271.6631,27.5469 Q272.9288,29.0469 275.0381,29.0469 Q275.6944,29.0469 276.3194,28.8594 Q276.9444,28.6719 277.5225,28.2813 L278.2881,29.7344 Q277.6163,30.1875 276.8194,30.4063 Q276.0225,30.6406 275.1163,30.6406 Q272.21,30.6406 270.4756,28.7031 Q268.7569,26.7813 268.7569,23.5 Q268.7569,20.2813 270.3038,18.3594 Q271.8663,16.4219 274.4288,16.4219 Q276.2256,16.4219 277.2725,17.5156 Q278.335,18.6094 278.335,20.4844 L278.335,26.875 Z " fill="#000000"/><text fill="#000000" font-family="sans-serif" font-size="14" lengthAdjust="spacing" textLength="75.7764" x="288.71" y="27.8467">annotation</text><line style="stroke:#181818;stroke-width:0.5;" x1="260.71" x2="366.4864" y1="39" y2="39"/><line style="stroke:#181818;stroke-width:0.5;" x1="260.71" x2="366.4864" y1="47" y2="47"/></g><!--entity circle--><g class="entity" data-qualified-name="circle" data-source-line="7" id="ent0005"><ellipse cx="404.6" cy="31" fill="#F1F1F1" rx="8" ry="8" style="stroke:#181818;stroke-width:0.5;"/><text fill="#000000" font-family="sans-serif" font-size="14" lengthAdjust="spacing" textLength="37.543" x="385.8285" y="60.9951">circle</text></g><!--entity circle_short_form--><g class="entity" data-qualified-name="circle_short_form" data-source-line="8" id="ent0006"><ellipse cx="509.6" cy="31" fill="#F1F1F1" rx="8" ry="8" style="stroke:#181818;stroke-width:0.5;"/><text fill="#000000" font-family="sans-serif" font-size="14" lengthAdjust="spacing" textLength="120.4082" x="449.3959" y="60.9951">circle_short_form</text></g><!--class class--><g class="entity" data-qualified-name="class" data-source-line="9" id="ent0007"><rect fill="#F1F1F1" height="48" rx="2.5" ry="2.5" style="stroke:#181818;stroke-width:0.5;" width="66.7539" x="587.22" y="7"/><ellipse cx="602.22" cy="23" fill="#ADD1B2" rx="11" ry="11" style="stroke:#181818;stroke-width:1;"/><path d="M605.1888,28.6406 Q604.6106,28.9375 603.97,29.0781 Q603.3294,29.2344 602.6263,29.2344 Q600.1263,29.2344 598.7981,27.5938 Q597.4856,25.9375 597.4856,22.8125 Q597.4856,19.6875 598.7981,18.0313 Q600.1263,16.375 602.6263,16.375 Q603.3294,16.375 603.97,16.5313 Q604.6263,16.6875 605.1888,16.9844 L605.1888,19.7031 Q604.5638,19.125 603.97,18.8594 Q603.3763,18.5781 602.7513,18.5781 Q601.4075,18.5781 600.72,19.6563 Q600.0325,20.7188 600.0325,22.8125 Q600.0325,24.9063 600.72,25.9844 Q601.4075,27.0469 602.7513,27.0469 Q603.3763,27.0469 603.97,26.7813 Q604.5638,26.5 605.1888,25.9219 L605.1888,28.6406 Z " fill="#000000"/><text fill="#000000" font-family="sans-serif" font-size="14" lengthAdjust="spacing" textLength="34.7539" x="616.22" y="27.8467">class</text><line style="stroke:#181818;stroke-width:0.5;" x1="588.22" x2="652.9739" y1="39" y2="39"/><line style="stroke:#181818;stroke-width:0.5;" x1="588.22" x2="652.9739" y1="47" y2="47"/></g><g class="entity" data-qualified-name="diamond" id="ent0008"><polygon fill="#F1F1F1" points="675.6,19,687.6,31,675.6,43,663.6,31,675.6,19" style="stroke:#181818;stroke-width:0.5;"/></g><polygon fill="#F1F1F1" points="66.6,132,78.6,144,66.6,156,54.6,144,66.6,132" style="stroke:#181818;stroke-width:0.5;"/><!--class entity--><g class="entity" data-qualified-name="entity" data-source-line="12" id="ent0010"><rect fill="#F1F1F1" height="48" rx="2.5" ry="2.5" style="stroke:#181818;stroke-width:0.5;" width="72.6396" x="88.28" y="120"/><ellipse cx="103.28" cy="136" fill="#ADD1B2" rx="11" ry="11" style="stroke:#181818;stroke-width:1;"/><path d="M107.3894,142 L99.6706,142 L99.6706,129.6094 L107.3894,129.6094 L107.3894,131.7656 L102.1238,131.7656 L102.1238,134.4375 L106.8894,134.4375 L106.8894,136.5938 L102.1238,136.5938 L102.1238,139.8438 L107.3894,139.8438 L107.3894,142 Z " fill="#000000"/><text fill="#000000" font-family="sans-serif" font-size="14" lengthAdjust="spacing" textLength="40.6396" x="117.28" y="140.8467">entity</text><line style="stroke:#181818;stroke-width:0.5;" x1="89.28" x2="159.9196" y1="152" y2="152"/><line style="stroke:#181818;stroke-width:0.5;" x1="89.28" x2="159.9196" y1="160" y2="160"/></g><!--class enum--><g class="entity" data-qualified-name="enum" data-source-line="13" id="ent0011"><rect fill="#F1F1F1" height="48" rx="2.5" ry="2.5" style="stroke:#181818;stroke-width:0.5;" width="71.9971" x="170.6" y="120"/><ellipse cx="185.6" cy="136" fill="#EB937F" rx="11" ry="11" style="stroke:#181818;stroke-width:1;"/><path d="M189.7094,142 L181.9906,142 L181.9906,129.6094 L189.7094,129.6094 L189.7094,131.7656 L184.4438,131.7656 L184.4438,134.4375 L189.2094,134.4375 L189.2094,136.5938 L184.4438,136.5938 L184.4438,139.8438 L189.7094,139.8438 L189.7094,142 Z " fill="#000000"/><text fill="#000000" font-family="sans-serif" font-size="14" lengthAdjust="spacing" textLength="39.9971" x="199.6" y="140.8467">enum</text><line style="stroke:#181818;stroke-width:0.5;" x1="171.6" x2="241.5971" y1="152" y2="152"/><line style="stroke:#181818;stroke-width:0.5;" x1="171.6" x2="241.5971" y1="160" y2="160"/></g><!--class exception--><g class="entity" data-qualified-name="exception" data-source-line="14" id="ent0012"><rect fill="#F1F1F1" height="48" rx="2.5" ry="2.5" style="stroke:#181818;stroke-width:0.5;" width="100.9131" x="252.14" y="120"/><ellipse cx="267.14" cy="136" fill="#D94321" rx="11" ry="11" style="stroke:#181818;stroke-width:1;"/><path d="M272.1556,142 L269.6244,142 L267.2494,137.9063 L264.89,142 L262.3588,142 L265.9994,135.7031 L262.4681,129.6094 L264.9994,129.6094 L267.2494,133.5469 L269.515,129.6094 L272.0463,129.6094 L268.5306,135.7031 L272.1556,142 Z " fill="#000000"/><text fill="#000000" font-family="sans-serif" font-size="14" lengthAdjust="spacing" textLength="68.9131" x="281.14" y="140.8467">exception</text><line style="stroke:#181818;stroke-width:0.5;" x1="253.14" x2="352.0531" y1="152" y2="152"/><line style="stroke:#181818;stroke-width:0.5;" x1="253.14" x2="352.0531" y1="160" y2="160"/></g><!--class interface--><g class="entity" data-qualified-name="interface" data-source-line="15" id="ent0013"><rect fill="#F1F1F1" height="48" rx="2.5" ry="2.5" style="stroke:#181818;stroke-width:0.5;" width="94.4395" x="363.38" y="120"/><ellipse cx="378.38" cy="136" fill="#B4A7E5" rx="11" ry="11" style="stroke:#181818;stroke-width:1;"/><path d="M374.3019,131.7656 L374.3019,129.6094 L381.6925,129.6094 L381.6925,131.7656 L379.2238,131.7656 L379.2238,139.8438 L381.6925,139.8438 L381.6925,142 L374.3019,142 L374.3019,139.8438 L376.7706,139.8438 L376.7706,131.7656 L374.3019,131.7656 Z " fill="#000000"/><text fill="#000000" font-family="sans-serif" font-size="14" font-style="italic" lengthAdjust="spacing" textLength="62.4395" x="392.38" y="140.8467">interface</text><line style="stroke:#181818;stroke-width:0.5;" x1="364.38" x2="456.8195" y1="152" y2="152"/><line style="stroke:#181818;stroke-width:0.5;" x1="364.38" x2="456.8195" y1="160" y2="160"/></g><!--class metaclass--><g class="entity" data-qualified-name="metaclass" data-source-line="16" id="ent0014"><rect fill="#F1F1F1" height="48" rx="2.5" ry="2.5" style="stroke:#181818;stroke-width:0.5;" width="103.0732" x="468.06" y="120"/><ellipse cx="483.06" cy="136" fill="#CCCCCC" rx="11" ry="11" style="stroke:#181818;stroke-width:1;"/><path d="M478.7788,129.6094 L481.7006,129.6094 L483.1694,135.0469 L484.6381,129.6094 L487.5756,129.6094 L487.5756,142 L485.4663,142 L485.4663,132.0781 L484.1538,137.5 L482.2163,137.5 L480.8881,132.0781 L480.8881,142 L478.7788,142 L478.7788,129.6094 Z " fill="#000000"/><text fill="#000000" font-family="sans-serif" font-size="14" lengthAdjust="spacing" textLength="71.0732" x="497.06" y="140.8467">metaclass</text><line style="stroke:#181818;stroke-width:0.5;" x1="469.06" x2="570.1332" y1="152" y2="152"/><line style="stroke:#181818;stroke-width:0.5;" x1="469.06" x2="570.1332" y1="160" y2="160"/></g><!--class protocol--><g class="entity" data-qualified-name="protocol" data-source-line="17" id="ent0015"><rect fill="#F1F1F1" height="48" rx="2.5" ry="2.5" style="stroke:#181818;stroke-width:0.5;" width="89.415" x="580.89" y="120"/><ellipse cx="595.89" cy="136" fill="#F1F1F1" rx="11" ry="11" style="stroke:#181818;stroke-width:1;"/><path d="M595.6869,131.6719 L595.6869,135.2969 L596.6869,135.2969 Q597.89,135.2969 598.3744,134.8906 Q598.8588,134.4844 598.8588,133.4844 Q598.8588,132.4844 598.3744,132.0781 Q597.89,131.6719 596.6869,131.6719 L595.6869,131.6719 Z M593.2338,129.6094 L596.5931,129.6094 Q599.1556,129.6094 600.2806,130.5313 Q601.4056,131.4375 601.4056,133.4844 Q601.4056,135.5313 600.2806,136.4531 Q599.1556,137.3594 596.5931,137.3594 L595.6869,137.3594 L595.6869,142 L593.2338,142 L593.2338,129.6094 Z " fill="#000000"/><text fill="#000000" font-family="sans-serif" font-size="14" lengthAdjust="spacing" textLength="57.415" x="609.89" y="140.8467">protocol</text><line style="stroke:#181818;stroke-width:0.5;" x1="581.89" x2="669.305" y1="152" y2="152"/><line style="stroke:#181818;stroke-width:0.5;" x1="581.89" x2="669.305" y1="160" y2="160"/></g><!--class stereotype--><g class="entity" data-qualified-name="stereotype" data-source-line="18" id="ent0016"><rect fill="#F1F1F1" height="48" rx="2.5" ry="2.5" style="stroke:#181818;stroke-width:0.5;" width="107.6055" x="12.8" y="258.5"/><ellipse cx="27.8" cy="274.5" fill="#FF77FF" rx="11" ry="11" style="stroke:#181818;stroke-width:1;"/><path d="M27.2844,275.0625 Q25.425,274.3594 24.7688,273.5938 Q24.1281,272.8125 24.1281,271.5 Q24.1281,269.8125 25.2063,268.8438 Q26.2844,267.875 28.1594,267.875 Q29.0188,267.875 29.8625,268.0781 Q30.7219,268.2656 31.5656,268.6563 L31.5656,271.0469 Q30.7844,270.4844 29.9563,270.2031 Q29.1438,269.9063 28.3469,269.9063 Q27.4719,269.9063 26.9875,270.2656 Q26.5188,270.625 26.5188,271.2813 Q26.5188,271.7969 26.8625,272.1406 Q27.2063,272.4688 28.3,272.875 L29.3625,273.2813 Q30.8469,273.8281 31.55,274.7344 Q32.2688,275.6406 32.2688,277.0156 Q32.2688,278.8906 31.1594,279.8125 Q30.05,280.7344 27.8,280.7344 Q26.8781,280.7344 25.9563,280.5156 Q25.0344,280.2969 24.175,279.875 L24.175,277.3438 Q25.1438,278.0313 26.0656,278.375 Q26.9875,278.7188 27.8781,278.7188 Q28.7844,278.7188 29.2844,278.3125 Q29.7844,277.8906 29.7844,277.1563 Q29.7844,276.5938 29.4406,276.1875 Q29.1125,275.7656 28.4875,275.5156 L27.2844,275.0625 Z " fill="#000000"/><text fill="#000000" font-family="sans-serif" font-size="14" lengthAdjust="spacing" textLength="75.6055" x="41.8" y="279.3467">stereotype</text><line style="stroke:#181818;stroke-width:0.5;" x1="13.8" x2="119.4055" y1="290.5" y2="290.5"/><line style="stroke:#181818;stroke-width:0.5;" x1="13.8" x2="119.4055" y1="298.5" y2="298.5"/></g><!--class struct--><g class="entity" data-qualified-name="struct" data-source-line="19" id="ent0017"><rect fill="#F1F1F1" height="48" rx="2.5" ry="2.5" style="stroke:#181818;stroke-width:0.5;" width="72.5986" x="130.3" y="258.5"/><ellipse cx="145.3" cy="274.5" fill="#F1F1F1" rx="11" ry="11" style="stroke:#181818;stroke-width:1;"/><path d="M144.7844,275.0625 Q142.925,274.3594 142.2688,273.5938 Q141.6281,272.8125 141.6281,271.5 Q141.6281,269.8125 142.7063,268.8438 Q143.7844,267.875 145.6594,267.875 Q146.5188,267.875 147.3625,268.0781 Q148.2219,268.2656 149.0656,268.6563 L149.0656,271.0469 Q148.2844,270.4844 147.4563,270.2031 Q146.6438,269.9063 145.8469,269.9063 Q144.9719,269.9063 144.4875,270.2656 Q144.0188,270.625 144.0188,271.2813 Q144.0188,271.7969 144.3625,272.1406 Q144.7063,272.4688 145.8,272.875 L146.8625,273.2813 Q148.3469,273.8281 149.05,274.7344 Q149.7688,275.6406 149.7688,277.0156 Q149.7688,278.8906 148.6594,279.8125 Q147.55,280.7344 145.3,280.7344 Q144.3781,280.7344 143.4563,280.5156 Q142.5344,280.2969 141.675,279.875 L141.675,277.3438 Q142.6438,278.0313 143.5656,278.375 Q144.4875,278.7188 145.3781,278.7188 Q146.2844,278.7188 146.7844,278.3125 Q147.2844,277.8906 147.2844,277.1563 Q147.2844,276.5938 146.9406,276.1875 Q146.6125,275.7656 145.9875,275.5156 L144.7844,275.0625 Z " fill="#000000"/><text fill="#000000" font-family="sans-serif" font-size="14" lengthAdjust="spacing" textLength="40.5986" x="159.3" y="279.3467">struct</text><line style="stroke:#181818;stroke-width:0.5;" x1="131.3" x2="201.8986" y1="290.5" y2="290.5"/><line style="stroke:#181818;stroke-width:0.5;" x1="131.3" x2="201.8986" y1="298.5" y2="298.5"/></g><g class="entity" data-qualified-name="object" data-source-line="20" id="ent0018"><rect fill="#F1F1F1" height="36.2969" rx="2.5" ry="2.5" style="stroke:#181818;stroke-width:0.5;" width="57.1416" x="213.03" y="264.35"/><text fill="#000000" font-family="sans-serif" font-size="14" lengthAdjust="spacing" textLength="43.1416" x="220.03" y="279.3451">object</text><line style="stroke:#181818;stroke-width:0.5;" x1="214.03" x2="269.1716" y1="284.6469" y2="284.6469"/></g><g class="entity" data-qualified-name="map" data-source-line="21" id="ent0019"><rect fill="#F1F1F1" height="40.5938" rx="2.5" ry="2.5" style="stroke:#181818;stroke-width:0.5;" width="83.2461" x="288.1" y="262.5"/><text fill="#000000" font-family="sans-serif" font-size="14" lengthAdjust="spacing" textLength="31.1035" x="314.1713" y="277.4951">map</text><line style="stroke:#181818;stroke-width:1;" x1="288.1" x2="371.3461" y1="282.7969" y2="282.7969"/><text fill="#000000" font-family="sans-serif" font-size="14" lengthAdjust="spacing" textLength="25.0059" x="293.1" y="297.792">key</text><text fill="#000000" font-family="sans-serif" font-size="14" lengthAdjust="spacing" textLength="38.2402" x="328.1059" y="297.792">value</text><line style="stroke:#181818;stroke-width:1;" x1="323.1059" x2="323.1059" y1="282.7969" y2="303.0938"/></g><g class="entity" data-qualified-name="JSON" data-source-line="24" id="ent0020"><rect fill="#F1F1F1" height="101.4844" rx="2.5" ry="2.5" style="stroke:#181818;stroke-width:0.5;" width="97.1777" x="397.1" y="232"/><text fill="#000000" font-family="sans-serif" font-size="14" lengthAdjust="spacing" textLength="34.5078" x="428.435" y="246.9951">JSON</text><line style="stroke:#181818;stroke-width:1;" x1="441.5736" x2="441.5736" y1="252.2969" y2="333.4844"/><line style="stroke:#181818;stroke-width:1;" x1="397.1" x2="494.2777" y1="252.2969" y2="252.2969"/><text fill="#000000" font-family="sans-serif" font-size="14" lengthAdjust="spacing" textLength="28.9365" x="402.1" y="267.292">fruit</text><text fill="#000000" font-family="sans-serif" font-size="14" lengthAdjust="spacing" textLength="39.8535" x="446.5736" y="267.292">Apple</text><line style="stroke:#181818;stroke-width:1;" x1="397.1" x2="494.2777" y1="272.5938" y2="272.5938"/><text fill="#000000" font-family="sans-serif" font-size="14" lengthAdjust="spacing" textLength="27.1455" x="402.1" y="287.5889">size</text><text fill="#000000" font-family="sans-serif" font-size="14" lengthAdjust="spacing" textLength="39.6348" x="446.5736" y="287.5889">Large</text><line style="stroke:#181818;stroke-width:1;" x1="397.1" x2="494.2777" y1="292.8906" y2="292.8906"/><text fill="#000000" font-family="sans-serif" font-size="14" lengthAdjust="spacing" textLength="34.4736" x="402.1" y="307.8857">color</text><text fill="#000000" font-family="sans-serif" font-size="14" lengthAdjust="spacing" textLength="27.2275" x="446.5736" y="307.8857">Red</text><line style="stroke:#181818;stroke-width:1;" x1="441.5736" x2="494.2777" y1="313.1875" y2="313.1875"/><text fill="#000000" font-family="sans-serif" font-size="14" lengthAdjust="spacing" textLength="42.7041" x="446.5736" y="328.1826">Green</text></g><!--entity action--><g class="entity" data-qualified-name="action" data-source-line="29" id="ent0021"><polygon fill="#F1F1F1" points="512.05,264.35,575.1438,264.35,585.1438,282.4984,575.1438,300.6469,512.05,300.6469" style="stroke:#181818;stroke-width:0.5;"/><text fill="#000000" font-family="sans-serif" font-size="14" lengthAdjust="spacing" textLength="43.0938" x="522.05" y="287.3451">action</text></g><!--entity actor--><g class="entity" data-qualified-name="actor" data-source-line="30" id="ent0022"><ellipse cx="613.6035" cy="252.85" fill="#F1F1F1" rx="8" ry="8" style="stroke:#181818;stroke-width:0.5;"/><path d="M613.6035,260.85 L613.6035,287.85 M600.6035,268.85 L626.6035,268.85 M613.6035,287.85 L600.6035,302.85 M613.6035,287.85 L626.6035,302.85" fill="none" style="stroke:#181818;stroke-width:0.5;"/><text fill="#000000" font-family="sans-serif" font-size="14" lengthAdjust="spacing" textLength="36.0869" x="595.56" y="317.3451">actor</text></g><!--entity actor/--><g class="entity" data-qualified-name="actor." data-source-line="31" id="ent0023"><ellipse cx="66.6019" cy="405.5" fill="#F1F1F1" rx="8" ry="8" style="stroke:#181818;stroke-width:0.5;"/><line style="stroke:#181818;stroke-width:0.5;" x1="64.658" x2="74.3621" y1="413.2603" y2="403.5562"/><path d="M66.6019,413.5 L66.6019,440.5 M53.6019,421.5 L79.6019,421.5 M66.6019,440.5 L53.6019,455.5 M66.6019,440.5 L79.6019,455.5" fill="none" style="stroke:#181818;stroke-width:0.5;"/><text fill="#000000" font-family="sans-serif" font-size="14" lengthAdjust="spacing" textLength="40.8037" x="46.2" y="469.9951">actor/</text></g><!--entity agent--><g class="entity" data-qualified-name="agent" data-source-line="32" id="ent0024"><rect fill="#F1F1F1" height="36.2969" rx="2.5" ry="2.5" style="stroke:#181818;stroke-width:0.5;" width="60.4414" x="97.38" y="417"/><text fill="#000000" font-family="sans-serif" font-size="14" lengthAdjust="spacing" textLength="40.4414" x="107.38" y="439.9951">agent</text></g><!--entity artifact--><g class="entity" data-qualified-name="artifact" data-source-line="33" id="ent0025"><rect fill="#F1F1F1" height="39.2969" rx="2.5" ry="2.5" style="stroke:#181818;stroke-width:0.5;" width="80.4082" x="167.4" y="415.5"/><polygon fill="#F1F1F1" points="230.8082,420.5,230.8082,434.5,242.8082,434.5,242.8082,426.5,236.8082,420.5,230.8082,420.5" style="stroke:#181818;stroke-width:0.5;"/><line style="stroke:#181818;stroke-width:0.5;" x1="236.8082" x2="236.8082" y1="420.5" y2="426.5"/><line style="stroke:#181818;stroke-width:0.5;" x1="242.8082" x2="236.8082" y1="426.5" y2="426.5"/><text fill="#000000" font-family="sans-serif" font-size="14" lengthAdjust="spacing" textLength="50.4082" x="177.4" y="441.4951">artifact</text></g><!--entity boundary--><g class="entity" data-qualified-name="boundary" data-source-line="34" id="ent0026"><path d="M271.1025,415 L271.1025,439 M271.1025,427 L288.1025,427" fill="none" style="stroke:#181818;stroke-width:0.5;"/><ellipse cx="300.1025" cy="427" fill="#F1F1F1" rx="12" ry="12" style="stroke:#181818;stroke-width:0.5;"/><text fill="#000000" font-family="sans-serif" font-size="14" lengthAdjust="spacing" textLength="66.7051" x="258.25" y="455.9951">boundary</text></g><!--entity card--><g class="entity" data-qualified-name="card" data-source-line="35" id="ent0027"><rect fill="#F1F1F1" height="22.2969" rx="2.5" ry="2.5" style="stroke:#181818;stroke-width:0.5;" width="50.9189" x="335.14" y="424"/><text fill="#000000" font-family="sans-serif" font-size="14" lengthAdjust="spacing" textLength="30.9189" x="345.14" y="439.9951">card</text></g><!--entity cloud--><g class="entity" data-qualified-name="cloud" data-source-line="37" id="ent0028"><path d="M403.6539,420.3665 C407.3123,412.8583 413.0496,412.9873 417.6154,419.4604 C420.9203,412.6964 426.5484,411.6966 430.7175,418.6339 C434.6633,412.3578 439.726,414.0386 442.869,419.4673 C446.7659,412.889 453.4384,414.4025 456.4201,420.4496 C465.337,423.6524 467.7186,430.3416 460.2168,437.254 C464.8008,443.8587 464.6856,448.3145 455.8771,450.547 C454.4787,456.7414 449.1622,459.0415 444.5957,453.6253 C440.5134,461.1761 435.7099,461.6381 429.766,455.6669 C425.1148,460.6348 419.8616,458.8869 417.3905,453.1472 C412.899,458.8698 407.7448,458.8331 404.5874,451.8074 C395.3614,450.9605 392.3611,444.7286 397.5925,437.0357 C391.5182,428.5034 393.5178,423.0042 403.6539,420.3665" fill="#F1F1F1" style="stroke:#181818;stroke-width:0.5;"/><text fill="#000000" font-family="sans-serif" font-size="14" lengthAdjust="spacing" textLength="37.9121" x="410.64" y="439.9951">cloud</text></g><!--entity collections--><g class="entity" data-qualified-name="collections" data-source-line="38" id="ent0029"><rect fill="#F1F1F1" height="32.2969" rx="2.5" ry="2.5" style="stroke:#181818;stroke-width:0.5;" width="90.4639" x="477.37" y="421"/><rect fill="#F1F1F1" height="32.2969" rx="2.5" ry="2.5" style="stroke:#181818;stroke-width:0.5;" width="90.4639" x="473.37" y="417"/><text fill="#000000" font-family="sans-serif" font-size="14" lengthAdjust="spacing" textLength="74.4639" x="481.37" y="437.9951">collections</text></g><!--entity component--><g class="entity" data-qualified-name="component" data-source-line="39" id="ent0030"><rect fill="#F1F1F1" height="46.2969" rx="2.5" ry="2.5" style="stroke:#181818;stroke-width:0.5;" width="119.2012" x="7" y="537.29"/><rect fill="#F1F1F1" height="10" style="stroke:#181818;stroke-width:0.5;" width="15" x="106.2012" y="542.29"/><rect fill="#F1F1F1" height="2" style="stroke:#181818;stroke-width:0.5;" width="4" x="104.2012" y="544.29"/><rect fill="#F1F1F1" height="2" style="stroke:#181818;stroke-width:0.5;" width="4" x="104.2012" y="548.29"/><text fill="#000000" font-family="sans-serif" font-size="14" lengthAdjust="spacing" textLength="79.2012" x="22" y="570.2851">component</text></g><!--entity control--><g class="entity" data-qualified-name="control" data-source-line="40" id="ent0031"><ellipse cx="160.598" cy="552.29" fill="#F1F1F1" rx="12" ry="12" style="stroke:#181818;stroke-width:0.5;"/><polygon fill="#181818" points="156.598,540.29,162.598,535.29,160.598,540.29,162.598,545.29,156.598,540.29" style="stroke:#181818;stroke-width:1;"/><text fill="#000000" font-family="sans-serif" font-size="14" lengthAdjust="spacing" textLength="48.8359" x="136.18" y="581.2851">control</text></g><!--entity database--><g class="entity" data-qualified-name="database" data-source-line="41" id="ent0032"><path d="M195.15,547.79 C195.15,537.79 237.6036,537.79 237.6036,537.79 C237.6036,537.79 280.0572,537.79 280.0572,547.79 L280.0572,573.0869 C280.0572,583.0869 237.6036,583.0869 237.6036,583.0869 C237.6036,583.0869 195.15,583.0869 195.15,573.0869 L195.15,547.79" fill="#F1F1F1" style="stroke:#181818;stroke-width:0.5;"/><path d="M195.15,547.79 C195.15,557.79 237.6036,557.79 237.6036,557.79 C237.6036,557.79 280.0572,557.79 280.0572,547.79" fill="none" style="stroke:#181818;stroke-width:0.5;"/><text fill="#000000" font-family="sans-serif" font-size="14" lengthAdjust="spacing" textLength="64.9072" x="205.15" y="574.7851">database</text></g><!--entity file--><g class="entity" data-qualified-name="file" data-source-line="43" id="ent0033"><path d="M289.94,544.79 L289.94,576.0869 A2.5,2.5 0 0 0 292.44,578.5869 L328.7613,578.5869 A2.5,2.5 0 0 0 331.2613,576.0869 L331.2613,552.29 L321.2613,542.29 L292.44,542.29 A2.5,2.5 0 0 0 289.94,544.79" fill="#F1F1F1" style="stroke:#181818;stroke-width:0.5;"/><path d="M321.2613,542.29 L321.2613,549.79 A2.5,2.5 0 0 0 323.7613,552.29 L331.2613,552.29" fill="#F1F1F1" style="stroke:#181818;stroke-width:0.5;"/><text fill="#000000" font-family="sans-serif" font-size="14" lengthAdjust="spacing" textLength="21.3213" x="299.94" y="565.2851">file</text></g><!--entity folder--><g class="entity" data-qualified-name="folder" data-source-line="44" id="ent0034"><path d="M343.78,533.29 L384.78,533.29 A3.75,3.75 0 0 1 387.28,535.79 L394.28,554.29 L409.4196,554.29 A2.5,2.5 0 0 1 411.9196,556.79 L411.9196,585.0869 A2.5,2.5 0 0 1 409.4196,587.5869 L343.78,587.5869 A2.5,2.5 0 0 1 341.28,585.0869 L341.28,535.79 A2.5,2.5 0 0 1 343.78,533.29" fill="#F1F1F1" style="stroke:#181818;stroke-width:0.5;"/><line style="stroke:#181818;stroke-width:0.5;" x1="341.28" x2="394.28" y1="554.29" y2="554.29"/><text fill="#000000" font-family="sans-serif" font-size="14" lengthAdjust="spacing" textLength="40.6396" x="351.28" y="574.2851">folder</text></g><!--entity frame--><g class="entity" data-qualified-name="frame" data-source-line="45" id="ent0035"><rect fill="#F1F1F1" height="46.2969" rx="2.5" ry="2.5" style="stroke:#181818;stroke-width:0.5;" width="81.5146" x="421.84" y="537.29"/><path d="M449.0115,537.29 L449.0115,542.29 L442.0115,549.29 L421.84,549.29" fill="none" style="stroke:#181818;stroke-width:0.5;"/><text fill="#000000" font-family="sans-serif" font-size="14" lengthAdjust="spacing" textLength="41.5146" x="436.84" y="570.2851">frame</text></g><!--entity hexagon--><g class="entity" data-qualified-name="hexagon" data-source-line="46" id="ent0036"><polygon fill="#F1F1F1" points="634.28,560.44,603.94,547.29,543.26,547.29,512.92,560.44,543.26,573.59,603.94,573.59,634.28,560.44" style="stroke:#181818;stroke-width:0.5;"/><text fill="#000000" font-family="sans-serif" font-size="14" lengthAdjust="spacing" textLength="60.6758" x="543.2579" y="565.2851">hexagon</text></g><!--entity label--><g class="entity" data-qualified-name="label" data-source-line="48" id="ent0037"><text fill="#000000" font-family="sans-serif" font-size="14" lengthAdjust="spacing" textLength="33.8584" x="49.67" y="681.0151">label</text></g><!--entity node--><g class="entity" data-qualified-name="node" data-source-line="49" id="ent0038"><polygon fill="#F1F1F1" points="103.13,663.02,113.13,653.02,178.0685,653.02,178.0685,689.3169,168.0685,699.3169,103.13,699.3169,103.13,663.02" style="stroke:#181818;stroke-width:0.5;"/><line style="stroke:#181818;stroke-width:0.5;" x1="168.0685" x2="178.0685" y1="663.02" y2="653.02"/><line style="stroke:#181818;stroke-width:0.5;" x1="103.13" x2="168.0685" y1="663.02" y2="663.02"/><line style="stroke:#181818;stroke-width:0.5;" x1="168.0685" x2="168.0685" y1="663.02" y2="699.3169"/><text fill="#000000" font-family="sans-serif" font-size="14" lengthAdjust="spacing" textLength="34.9385" x="118.13" y="686.0151">node</text></g><!--entity package--><g class="entity" data-qualified-name="package" data-source-line="50" id="ent0039"><path d="M190.08,656.52 L269.122,656.52 A3.75,3.75 0 0 1 271.622,659.02 L278.622,678.8169 L293.122,678.8169 A2.5,2.5 0 0 1 295.622,681.3169 L295.622,693.3169 A2.5,2.5 0 0 1 293.122,695.8169 L190.08,695.8169 A2.5,2.5 0 0 1 187.58,693.3169 L187.58,659.02 A2.5,2.5 0 0 1 190.08,656.52" fill="#F1F1F1" style="stroke:#181818;stroke-width:0.5;"/><line style="stroke:#181818;stroke-width:0.5;" x1="187.58" x2="278.622" y1="678.8169" y2="678.8169"/><text fill="#000000" font-family="sans-serif" font-size="14" font-weight="700" lengthAdjust="spacing" textLength="66.042" x="197.58" y="672.5151">package</text></g><!--entity person--><g class="entity" data-qualified-name="person" data-source-line="51" id="ent0040"><ellipse cx="339.6041" cy="658.0221" fill="#F1F1F1" rx="10.4321" ry="10.4321" style="stroke:#181818;stroke-width:0.5;"/><rect fill="#F1F1F1" height="36.2969" rx="10.4321" ry="10.4321" style="stroke:#181818;stroke-width:0.5;" width="67.9883" x="305.61" y="668.4542"/><text fill="#000000" font-family="sans-serif" font-size="14" lengthAdjust="spacing" textLength="47.9883" x="315.61" y="691.4493">person</text></g><!--entity process--><g class="entity" data-qualified-name="process" data-source-line="52" id="ent0041"><polygon fill="#F1F1F1" points="383.55,658.02,467.6564,658.02,477.6564,676.1684,467.6564,694.3169,383.55,694.3169,393.55,676.1684" style="stroke:#181818;stroke-width:0.5;"/><text fill="#000000" font-family="sans-serif" font-size="14" lengthAdjust="spacing" textLength="54.1064" x="403.55" y="681.0151">process</text></g><!--entity queue--><g class="entity" data-qualified-name="queue" data-source-line="53" id="ent0042"><path d="M492.67,663.02 L546.5294,663.02 C551.5294,663.02 551.5294,676.1684 551.5294,676.1684 C551.5294,676.1684 551.5294,689.3169 546.5294,689.3169 L492.67,689.3169 C487.67,689.3169 487.67,676.1684 487.67,676.1684 C487.67,676.1684 487.67,663.02 492.67,663.02" fill="#F1F1F1" style="stroke:#181818;stroke-width:0.5;"/><path d="M546.5294,663.02 C541.5294,663.02 541.5294,676.1684 541.5294,676.1684 C541.5294,689.3169 546.5294,689.3169 546.5294,689.3169" fill="none" style="stroke:#181818;stroke-width:0.5;"/><text fill="#000000" font-family="sans-serif" font-size="14" lengthAdjust="spacing" textLength="43.8594" x="492.67" y="681.0151">queue</text></g><!--entity rectangle--><g class="entity" data-qualified-name="rectangle" data-source-line="54" id="ent0043"><rect fill="#F1F1F1" height="36.2969" rx="2.5" ry="2.5" style="stroke:#181818;stroke-width:0.5;" width="86.3975" x="561.4" y="658.02"/><text fill="#000000" font-family="sans-serif" font-size="14" lengthAdjust="spacing" textLength="66.3975" x="571.4" y="681.0151">rectangle</text></g><!--entity stack--><g class="entity" data-qualified-name="stack" data-source-line="55" id="ent0044"><rect fill="#F1F1F1" height="36.2969" rx="2.5" ry="2.5" style="stroke:none;stroke-width:0.5;" width="57.167" x="38.02" y="771.6"/><path d="M23.02,771.6 L35.52,771.6 A2.5,2.5 0 0 1 38.02,774.1 L38.02,805.3969 A2.5,2.5 0 0 0 40.52,807.8969 L92.687,807.8969 A2.5,2.5 0 0 0 95.187,805.3969 L95.187,774.1 A2.5,2.5 0 0 1 97.687,771.6 L110.187,771.6" fill="none" style="stroke:#181818;stroke-width:0.5;"/><text fill="#000000" font-family="sans-serif" font-size="14" lengthAdjust="spacing" textLength="37.167" x="48.02" y="794.5951">stack</text></g><!--entity storage--><g class="entity" data-qualified-name="storage" data-source-line="56" id="ent0045"><rect fill="#F1F1F1" height="36.2969" rx="35" ry="35" style="stroke:#181818;stroke-width:0.5;" width="73.1836" x="120.01" y="771.6"/><text fill="#000000" font-family="sans-serif" font-size="14" lengthAdjust="spacing" textLength="53.1836" x="130.01" y="794.5951">storage</text></g><!--entity usecase--><g class="entity" data-qualified-name="usecase" data-source-line="57" id="ent0046"><ellipse cx="246.5995" cy="789.7536" fill="#F1F1F1" rx="43.2795" ry="14.5236" style="stroke:#181818;stroke-width:0.5;"/><text fill="#000000" font-family="sans-serif" font-size="14" lengthAdjust="spacing" textLength="56.9639" x="218.1176" y="794.4021">usecase</text></g><!--entity usecase/--><g class="entity" data-qualified-name="usecase." data-source-line="58" id="ent0047"><ellipse cx="357.6003" cy="789.7464" fill="#F1F1F1" rx="57.2703" ry="14.6864" style="stroke:#181818;stroke-width:0.5;"/><text fill="#000000" font-family="sans-serif" font-size="14" lengthAdjust="spacing" textLength="61.6807" x="323.26" y="793.494">usecase/</text><line style="stroke:#181818;stroke-width:0.5;" x1="410.3059" x2="394.399" y1="784.6267" y2="800.5337"/></g><g class="entity" data-qualified-name="state" id="ent0048"><rect fill="#F1F1F1" height="50" rx="12.5" ry="12.5" style="stroke:#181818;stroke-width:0.5;" width="55.4648" x="424.87" y="764.75"/><line style="stroke:#181818;stroke-width:0.5;" x1="424.87" x2="480.3348" y1="791.0469" y2="791.0469"/><text fill="#000000" font-family="sans-serif" font-size="14" lengthAdjust="spacing" textLength="35.4648" x="434.87" y="782.7451">state</text></g><?plantuml-src LLF1ZjGm3BtxAwoSG5e9kAvW9Kv82844HuHMRkhEPYTDIfB238X_nswJjXEfjjzpuyJ92taVVu_kui8989zTc2ZHY27sd7d2Dw-1kbmIsO9rDBmdhAUS4SqjOO12Y8MAYw7Et31ObwndtCQAuSLBl1ah_PYVOYgFGqmZrBNsFnH3xsYCeT_OYk7jmsszoXyBSYYkNFTVLYpqF1vdAWQ-M9xsVd33u4BXD91jBMqOHYvqtFI6OKgnH1jzMw9Xo3ANOxbEjTgE9PNc_IeqfHXYzyn7UiKmqeJw_GKyynNVFU0lyZF3FtZEqiJ7Rry-QqwkRaYpA-RUl9ycp-PkuRBxmq9zedHgbEmk9dEFtyrNxiqTcW-9EPWVKb7kNGzcTOfYmiMkyIkHn-955YSvOrmiK2fkKCcq0BeuXvxI5Li0bbAFQffggbYiZxCar89ipFEoTCP3BFmunQ3hRP5meIGvzkgXfq8TPSOMD4rKAGnErbG3G_Gz9rmT3F9G9A4MdlX29sc_-eCUTYLuwjZZOa7Vr_B8O29xbhF0wc7Yf7UpEjM8PT5EzV1pvfbniP2aIGedsTmMYJwa32vMufYqSlKmPxRQPlKDoysqoEZyeZF4_WS0?></g></svg>