<svg xmlns="http://www.w3.org/2000/svg" xmlns:xlink="http://www.w3.org/1999/xlink" contentStyleType="text/css" data-diagram-type="DESCRIPTION" height="185px" preserveAspectRatio="none" style="width:553px;height:185px;background:#FFFFFF;" version="1.1" viewBox="0 0 553 185" width="553px" zoomAndPan="magnify"><?plantuml 1.2026.3beta5?><defs/><g><!--cluster Foo1--><g class="cluster" data-qualified-name="Foo1" data-source-line="1" id="ent0002"><rect fill="none" height="105.3" rx="2.5" ry="2.5" style="stroke:#181818;stroke-width:1;" width="102" x="7" y="48.479"/><polygon fill="none" points="92,53.479,92,67.479,104,67.479,104,59.479,98,53.479,92,53.479" style="stroke:#181818;stroke-width:1;"/><line style="stroke:#181818;stroke-width:1;" x1="98" x2="98" y1="53.479" y2="59.479"/><line style="stroke:#181818;stroke-width:1;" x1="104" x2="98" y1="59.479" y2="59.479"/><text fill="#000000" font-family="sans-serif" font-size="14" font-weight="700" lengthAdjust="spacing" textLength="38.541" x="38.7295" y="63.4741">Foo1</text></g><!--cluster Foo3--><g class="cluster" data-qualified-name="Foo3" data-source-line="5" id="ent0004"><path d="M135.5,55.979 L175.041,55.979 A3.75,3.75 0 0 1 177.541,58.479 L184.541,78.2759 L226.5,78.2759 A2.5,2.5 0 0 1 229,80.7759 L229,143.779 A2.5,2.5 0 0 1 226.5,146.279 L135.5,146.279 A2.5,2.5 0 0 1 133,143.779 L133,58.479 A2.5,2.5 0 0 1 135.5,55.979" fill="none" style="stroke:#000000;stroke-width:1.5;"/><line style="stroke:#000000;stroke-width:1.5;" x1="133" x2="184.541" y1="78.2759" y2="78.2759"/><text fill="#000000" font-family="sans-serif" font-size="14" font-weight="700" lengthAdjust="spacing" textLength="38.541" x="137" y="70.9741">Foo3</text></g><!--cluster Foo5--><g class="cluster" data-qualified-name="Foo5" data-source-line="9" id="ent0006"><rect fill="none" height="96.3" rx="2.5" ry="2.5" style="stroke:#181818;stroke-width:1;" width="86" x="253" y="52.979"/><path d="M301.541,52.979 L301.541,62.2759 L291.541,72.2759 L253,72.2759" fill="none" style="stroke:#181818;stroke-width:1;"/><text fill="#000000" font-family="sans-serif" font-size="14" font-weight="700" lengthAdjust="spacing" textLength="38.541" x="256" y="66.9741">Foo5</text></g><!--cluster vpc--><g class="cluster" data-qualified-name="vpc" data-source-line="13" id="ent0008"><path d="M379.2207,18.2266 C382.4841,13.0026 386.221,13.2053 389.5538,18.156 C391.5556,11.2545 396.7273,10.6676 401.7148,14.8926 C404.9417,9.0863 408.2306,8.4251 412.6816,13.6788 C416.4326,7.2897 420.77,8.3256 424.6528,13.5428 C427.7237,6.9228 432.8283,6.7606 436.9742,12.4683 C440.0503,7.7771 443.1271,6.8571 447.0268,11.5899 C450.5495,6.4972 455.5974,6 459.1354,11.5727 C462.5211,6.3146 468.1772,6.9898 470.7361,12.4662 C474.8298,6.8119 479.5588,7.9529 482.6479,13.5316 C486.7854,9.5282 492.7212,10.2285 494.3143,16.4381 C498.5749,10.5793 503.6864,12.1375 506.3334,18.0813 C513.8402,12.6641 521.6556,13.8426 523,24.479 C523.9102,24.6107 524.3287,25.1431 523.8659,26.0376 C529.1642,29.1859 530.225,33.6431 525.043,37.837 C531.3501,40.3164 533.5509,46.6471 526.8857,50.9496 C533.0739,53.7443 533.9606,59.1791 528.2349,63.2777 C535.3793,66.0657 536.6841,73.503 530.3944,78.2312 C537.2315,80.7631 537.7705,85.3022 532.621,90.0855 C538.2662,95.2702 536.3253,101.008 529.6303,103.4263 C535.8126,107.6066 536.0599,111.8655 529.785,116.1966 C536.5055,122.1426 535.1816,126.2589 527.6083,129.9413 C532.4002,133.9723 532.2943,140.0647 525.9077,142.5931 C532.5579,152.8896 528.0432,160.6667 516,160.779 C517.307,160.9478 517.9782,161.6042 517.1971,162.9333 C513.2874,168.5858 508.6473,168.754 504.5148,163.1851 C500.6318,168.0923 497.1669,167.0249 494.2801,162.1435 C490.0126,168.8921 485.4655,167.9608 481.5017,161.8418 C478.319,167.3805 474.6535,167.5217 470.1413,163.4064 C466.6656,168.7331 463.3913,167.9098 459.5932,163.7654 C456.5444,169.1014 451.2045,168.8644 448.2807,163.6317 C444.859,169.8476 439.5413,168.3756 436.2744,163.4647 C432.8387,169.5083 428.2168,168.435 424.5193,163.7515 C421.4271,168.7267 415.9799,169.2032 413.5902,163.061 C410.5709,167.8045 406.2098,169.022 402.8317,163.4345 C398.7773,167.9466 394.9105,167.5183 391.5761,162.5772 C380.1954,170.2427 374.213,165.2151 371,153.779 C372.1128,153.5465 372.4667,153.9993 372.2576,155.0623 C365.0231,151.7568 365.5864,145.4071 371.5151,141.3869 C364.5408,138.4965 364.7365,132.6632 369.893,128.2724 C363.3477,125.6802 361.9166,121.4027 367.0539,116.0882 C359.7791,111.2931 361.0433,106.908 367.1175,102.1741 C359.6717,100.7877 359.2451,95.1615 363.5825,90.2747 C358.7193,84.8988 360.1116,81.3266 366.153,78.2895 C359.3197,73.0066 361.1462,67.7048 368.3342,64.667 C361.6434,59.6914 363.1436,54.8403 369.9672,51.5469 C365.2489,48.0004 365.1876,42.1374 371.0553,39.5511 C363.7428,29.9063 365.2601,20.8146 378,17.479 C378.7909,17.0497 379.2407,17.3317 379.2207,18.2266" fill="none" style="stroke:#181818;stroke-width:1;"/><text fill="#000000" font-family="sans-serif" font-size="14" font-weight="700" lengthAdjust="spacing" textLength="27.4463" x="433.2769" y="35.4741">vpc</text></g><!--cluster ec2--><g class="cluster" data-qualified-name="vpc.ec2" data-source-line="14" id="ent0009"><polygon fill="none" points="387,62.479,397,52.479,507,52.479,507,134.779,497,144.779,387,144.779,387,62.479" style="stroke:#181818;stroke-width:1;"/><line style="stroke:#181818;stroke-width:1;" x1="497" x2="507" y1="62.479" y2="52.479"/><line style="stroke:#181818;stroke-width:1;" x1="387" x2="497" y1="62.479" y2="62.479"/><line style="stroke:#181818;stroke-width:1;" x1="497" x2="497" y1="62.479" y2="144.779"/><text fill="#000000" font-family="sans-serif" font-size="14" font-weight="700" lengthAdjust="spacing" textLength="27.5352" x="429.2324" y="78.4741">ec2</text></g><!--entity Foo2--><g class="entity" data-qualified-name="Foo1.Foo2" data-source-line="2" id="ent0003"><path d="M25.5,83.479 L66.5,83.479 A3.75,3.75 0 0 1 69,85.979 L76,104.479 L90.5,104.479 A2.5,2.5 0 0 1 93,106.979 L93,135.2759 A2.5,2.5 0 0 1 90.5,137.7759 L25.5,137.7759 A2.5,2.5 0 0 1 23,135.2759 L23,85.979 A2.5,2.5 0 0 1 25.5,83.479" fill="#F1F1F1" style="stroke:#181818;stroke-width:0.5;"/><line style="stroke:#181818;stroke-width:0.5;" x1="23" x2="76" y1="104.479" y2="104.479"/><text fill="#000000" font-family="sans-serif" font-size="14" lengthAdjust="spacing" textLength="34.0908" x="33" y="124.4741">Foo2</text></g><!--entity Foo4--><g class="entity" data-qualified-name="Foo3.Foo4" data-source-line="6" id="ent0005"><rect fill="#F1F1F1" height="39.2969" rx="2.5" ry="2.5" style="stroke:#181818;stroke-width:0.5;" width="64.0908" x="148.95" y="90.979"/><polygon fill="#F1F1F1" points="196.0408,95.979,196.0408,109.979,208.0408,109.979,208.0408,101.979,202.0408,95.979,196.0408,95.979" style="stroke:#181818;stroke-width:0.5;"/><line style="stroke:#181818;stroke-width:0.5;" x1="202.0408" x2="202.0408" y1="95.979" y2="101.979"/><line style="stroke:#181818;stroke-width:0.5;" x1="208.0408" x2="202.0408" y1="101.979" y2="101.979"/><text fill="#000000" font-family="sans-serif" font-size="14" lengthAdjust="spacing" textLength="34.0908" x="158.95" y="116.9741">Foo4</text></g><!--entity Foo6--><g class="entity" data-qualified-name="Foo5.Foo6" data-source-line="10" id="ent0007"><path d="M268.95,97.979 C268.95,87.979 295.9954,87.979 295.9954,87.979 C295.9954,87.979 323.0408,87.979 323.0408,97.979 L323.0408,123.2759 C323.0408,133.2759 295.9954,133.2759 295.9954,133.2759 C295.9954,133.2759 268.95,133.2759 268.95,123.2759 L268.95,97.979" fill="#F1F1F1" style="stroke:#181818;stroke-width:0.5;"/><path d="M268.95,97.979 C268.95,107.979 295.9954,107.979 295.9954,107.979 C295.9954,107.979 323.0408,107.979 323.0408,97.979" fill="none" style="stroke:#181818;stroke-width:0.5;"/><text fill="#000000" font-family="sans-serif" font-size="14" lengthAdjust="spacing" textLength="34.0908" x="278.95" y="124.9741">Foo6</text></g><!--entity stack--><g class="entity" data-qualified-name="vpc.ec2.stack" data-source-line="15" id="ent0010"><rect fill="#F1F1F1" height="36.2969" rx="2.5" ry="2.5" style="stroke:none;stroke-width:0.5;" width="57.167" x="418.42" y="92.479"/><path d="M403.42,92.479 L415.92,92.479 A2.5,2.5 0 0 1 418.42,94.979 L418.42,126.2759 A2.5,2.5 0 0 0 420.92,128.7759 L473.087,128.7759 A2.5,2.5 0 0 0 475.587,126.2759 L475.587,94.979 A2.5,2.5 0 0 1 478.087,92.479 L490.587,92.479" fill="none" style="stroke:#181818;stroke-width:0.5;"/><text fill="#000000" font-family="sans-serif" font-size="14" lengthAdjust="spacing" textLength="37.167" x="428.42" y="115.4741">stack</text></g><?plantuml-src JSlD3O0m283HErEmWlLd1FT0sYR6AgQjNantr-91BoIF3oZcsHDd74KQl03HIx0kLXie01zRpVHxwFGWqkggUksMCasKT3FKpa4EY-VEcZUn3XqR1MBAnCix7nSeDm00?></g></svg>