<svg xmlns="http://www.w3.org/2000/svg" xmlns:xlink="http://www.w3.org/1999/xlink" contentStyleType="text/css" data-diagram-type="DESCRIPTION" height="138px" preserveAspectRatio="none" style="width:494px;height:138px;background:#FFFFFF;" version="1.1" viewBox="0 0 494 138" width="494px" zoomAndPan="magnify"><?plantuml 1.2026.3beta5?><defs/><g><!--cluster Foo1--><g class="cluster" data-qualified-name="Foo1" data-source-line="1" id="ent0002"><polygon fill="none" points="16,21,26,11,130,11,130,103.3,120,113.3,16,113.3,16,21" style="stroke:#181818;stroke-width:1;"/><line style="stroke:#181818;stroke-width:1;" x1="120" x2="130" y1="21" y2="11"/><line style="stroke:#181818;stroke-width:1;" x1="16" x2="120" y1="21" y2="21"/><line style="stroke:#181818;stroke-width:1;" x1="120" x2="120" y1="21" y2="113.3"/><text fill="#000000" font-family="sans-serif" font-size="14" font-weight="700" lengthAdjust="spacing" textLength="38.541" x="49.7295" y="36.9951">Foo1</text></g><!--cluster Foo3--><g class="cluster" data-qualified-name="Foo3" data-source-line="5" id="ent0004"><path d="M163.7463,26.0458 C165.2674,20.5648 170.086,19.118 174.188,23.2392 C177.941,18.4195 181.2409,18.624 184.9587,23.2794 C187.6156,18.1112 192.5513,17.8946 195.8967,22.5096 C200.2749,16.8336 204.043,16.2079 208.2526,22.6811 C211.4135,17.8201 216.5586,16.3835 220.0119,22.364 C224.41,17.3201 228.7379,19.0606 231.1169,24.5024 C233.9277,19.4211 237.8114,20.3057 240.9195,24.177 C245.8608,18.6963 249.8086,19.6813 252.9408,26.0175 C260.3966,29.4197 261.9061,33.398 255.8846,39.6999 C263.0018,41.5091 264.0163,47.1858 259.8767,52.5045 C265.7415,56.1082 267.6616,59.9695 261.7156,65.2741 C267.4357,70.0952 267.2907,76.6557 259.2006,78.9342 C266.0132,84.5746 265.0538,90.5911 256.7315,93.701 C262.0707,98.8952 259.7675,103.8477 253.5627,106.089 C250.9072,111.6207 244.9324,112.6596 241.1679,107.3578 C239.2308,113.0839 235.7841,113.6735 231.411,109.8455 C227.9926,115.9824 223.6561,115.3841 219.5147,110.6357 C216.1675,116.2622 212.7669,117.2722 208.0468,112.0927 C204.027,116.9736 199.1034,117.8442 196.1004,111.0521 C191.8524,115.0223 187.7085,113.4451 185.774,108.4016 C181.0541,113.4239 177.3966,112.9397 173.8228,107.1364 C170.1268,112.5895 166.7065,111.9606 163.4918,106.6734 C156.0278,104.863 154.3061,98.4208 160.5127,93.5152 C152.1063,91.5206 150.5673,84.7484 156.9459,79.0964 C149.308,77.4276 146.503,70.6356 152.307,64.6503 C147.1702,57.845 149.4069,53.2992 157.3889,51.604 C152.3385,47.1944 153.2312,41.5328 159.6279,39.1874 C154.2242,33.1576 156.9834,28.2627 163.7463,26.0458" fill="none" style="stroke:#181818;stroke-width:1;"/><text fill="#000000" font-family="sans-serif" font-size="14" font-weight="700" lengthAdjust="spacing" textLength="38.541" x="187.7295" y="41.9951">Foo3</text></g><!--cluster Foo5--><g class="cluster" data-qualified-name="Foo5" data-source-line="9" id="ent0006"><path d="M284,16 C284,6 327,6 327,6 C327,6 370,6 370,16 L370,98.3 C370,108.3 327,108.3 327,108.3 C327,108.3 284,108.3 284,98.3 L284,16" fill="none" style="stroke:#181818;stroke-width:1;"/><path d="M284,16 C284,26 327,26 327,26 C327,26 370,26 370,16" fill="none" style="stroke:#181818;stroke-width:1;"/><text fill="#000000" font-family="sans-serif" font-size="14" font-weight="700" lengthAdjust="spacing" textLength="38.541" x="307.7295" y="40.9951">Foo5</text></g><!--cluster Foo7--><g class="cluster" data-qualified-name="Foo7" data-source-line="13" id="ent0008"><rect fill="none" height="87.3" rx="35" ry="35" style="stroke:#181818;stroke-width:1;" width="86" x="394" y="21"/><text fill="#000000" font-family="sans-serif" font-size="14" font-weight="700" lengthAdjust="spacing" textLength="38.541" x="417.7295" y="40.9951">Foo7</text></g><!--entity Foo2--><g class="entity" data-qualified-name="Foo1.Foo2" data-source-line="2" id="ent0003"><path d="M50.7529,59.3839 C54.2695,52.6883 59.5804,54.3445 63.123,59.3564 C65.2511,53.2035 70.7586,51.848 74.7542,57.5192 C77.9443,52.7245 82.7183,51.4882 86.0057,57.4171 C91.3195,52.9683 95.816,53.3586 98.2266,60.4828 C107.1116,62.6243 108.6832,69.4222 101.8914,75.4121 C108.0005,82.3084 106.04,86.5361 98.1526,89.7938 C96.3994,97.3593 90.5985,98.2951 85.4531,93.195 C82.9224,98.6873 78.3309,99.9145 74.1682,94.9575 C69.0879,100.1584 64.2349,99.0488 61.2481,92.6298 C57.1623,97.032 53.1319,95.819 51.0264,90.5391 C42.728,88.8497 40.2577,81.0675 46.058,74.8993 C40.6974,67.7494 41.9233,62.2399 50.7529,59.3839" fill="#F1F1F1" style="stroke:#181818;stroke-width:0.5;"/><text fill="#000000" font-family="sans-serif" font-size="14" lengthAdjust="spacing" textLength="34.0908" x="55.95" y="78.9951">Foo2</text></g><!--entity Foo4--><g class="entity" data-qualified-name="Foo3.Foo4" data-source-line="6" id="ent0005"><rect fill="#F1F1F1" height="46.2969" rx="2.5" ry="2.5" style="stroke:#181818;stroke-width:0.5;" width="74.0908" x="169.95" y="51"/><path d="M194.6469,51 L194.6469,56 L187.6469,63 L169.95,63" fill="none" style="stroke:#181818;stroke-width:0.5;"/><text fill="#000000" font-family="sans-serif" font-size="14" lengthAdjust="spacing" textLength="34.0908" x="184.95" y="83.9951">Foo4</text></g><!--entity Foo6--><g class="entity" data-qualified-name="Foo5.Foo6" data-source-line="10" id="ent0007"><rect fill="#F1F1F1" height="36.2969" rx="35" ry="35" style="stroke:#181818;stroke-width:0.5;" width="54.0908" x="299.95" y="56"/><text fill="#000000" font-family="sans-serif" font-size="14" lengthAdjust="spacing" textLength="34.0908" x="309.95" y="78.9951">Foo6</text></g><!--entity Foo8--><g class="entity" data-qualified-name="Foo7.Foo8" data-source-line="14" id="ent0009"><rect fill="#F1F1F1" height="36.2969" rx="35" ry="35" style="stroke:#181818;stroke-width:0.5;" width="54.0908" x="409.95" y="56"/><text fill="#000000" font-family="sans-serif" font-size="14" lengthAdjust="spacing" textLength="34.0908" x="419.95" y="78.9951">Foo8</text></g><?plantuml-src oyjFILLmoyytLAZcKaZEoIzD0V6Ck6gvkE0yOv2SGbfHOYvOgGb8CYMn934fiHWiOAe0Lb1Sab-Kc0uMCGCfGUAReokmuAe50000?></g></svg>