<svg xmlns="http://www.w3.org/2000/svg" xmlns:xlink="http://www.w3.org/1999/xlink" contentStyleType="text/css" data-diagram-type="DESCRIPTION" height="262px" preserveAspectRatio="none" style="width:186px;height:262px;background:#FFFFFF;" version="1.1" viewBox="0 0 186 262" width="186px" zoomAndPan="magnify"><?plantuml 1.2026.3beta5?><defs/><g><!--cluster node--><g class="cluster" data-qualified-name="node" data-source-line="2" id="ent0003"><polygon fill="none" points="16,129.29,26,119.29,161,119.29,161,227.59,151,237.59,16,237.59,16,129.29" style="stroke:#181818;stroke-width:1;"/><line style="stroke:#181818;stroke-width:1;" x1="151" x2="161" y1="129.29" y2="119.29"/><line style="stroke:#181818;stroke-width:1;" x1="16" x2="151" y1="129.29" y2="129.29"/><line style="stroke:#181818;stroke-width:1;" x1="151" x2="151" y1="129.29" y2="237.59"/><text fill="#000000" font-family="sans-serif" font-size="14" font-weight="700" lengthAdjust="spacing" textLength="39.1016" x="64.9492" y="145.2851">node</text></g><g class="entity" data-qualified-name="node.p1" data-source-line="3" id="ent0004"><text fill="#000000" font-family="sans-serif" font-size="14" lengthAdjust="spacing" textLength="17.7939" x="40.103" y="97.9882">p1</text><rect fill="#F1F1F1" height="12" style="stroke:#181818;stroke-width:1.5;" width="12" x="43" y="113.29"/></g><g class="entity" data-qualified-name="node.p2" data-source-line="4" id="ent0005"><text fill="#000000" font-family="sans-serif" font-size="14" lengthAdjust="spacing" textLength="17.7939" x="87.103" y="97.9882">p2</text><rect fill="#F1F1F1" height="12" style="stroke:#181818;stroke-width:1.5;" width="12" x="90" y="113.29"/></g><g class="entity" data-qualified-name="node.p3" data-source-line="5" id="ent0006"><text fill="#000000" font-family="sans-serif" font-size="14" lengthAdjust="spacing" textLength="17.7939" x="134.103" y="97.9882">p3</text><rect fill="#F1F1F1" height="12" style="stroke:#181818;stroke-width:1.5;" width="12" x="137" y="113.29"/></g><!--entity f1--><g class="entity" data-qualified-name="node.f1" data-source-line="6" id="ent0007"><path d="M32.08,187.79 L32.08,219.0869 A2.5,2.5 0 0 0 34.58,221.5869 L63.4159,221.5869 A2.5,2.5 0 0 0 65.9159,219.0869 L65.9159,195.29 L55.9159,185.29 L34.58,185.29 A2.5,2.5 0 0 0 32.08,187.79" fill="#F1F1F1" style="stroke:#181818;stroke-width:0.5;"/><path d="M55.9159,185.29 L55.9159,192.79 A2.5,2.5 0 0 0 58.4159,195.29 L65.9159,195.29" fill="#F1F1F1" style="stroke:#181818;stroke-width:0.5;"/><text fill="#000000" font-family="sans-serif" font-size="14" lengthAdjust="spacing" textLength="13.8359" x="42.08" y="208.2851">f1</text></g><!--entity c--><g class="entity" data-qualified-name="c" data-source-line="1" id="ent0002"><rect fill="#F1F1F1" height="46.2969" rx="2.5" ry="2.5" style="stroke:#181818;stroke-width:0.5;" width="47.6973" x="72.15" y="7"/><rect fill="#F1F1F1" height="10" style="stroke:#181818;stroke-width:0.5;" width="15" x="99.8473" y="12"/><rect fill="#F1F1F1" height="2" style="stroke:#181818;stroke-width:0.5;" width="4" x="97.8473" y="14"/><rect fill="#F1F1F1" height="2" style="stroke:#181818;stroke-width:0.5;" width="4" x="97.8473" y="18"/><text fill="#000000" font-family="sans-serif" font-size="14" lengthAdjust="spacing" textLength="7.6973" x="87.15" y="39.9951">c</text></g><!--link c to p1--><g class="link" data-entity-1="ent0002" data-entity-2="ent0004" data-link-type="dependency" data-source-line="9" id="lnk8"><path d="M83.9,53.59 C73.13,73.56 60.9881,96.0591 54.7481,107.6291" fill="none" id="c-to-p1" style="stroke:#181818;stroke-width:1;"/><polygon fill="#181818" points="51.9,112.91,59.6928,106.8874,54.2734,108.5092,52.6516,103.0899,51.9,112.91" style="stroke:#181818;stroke-width:1;"/></g><!--link c to p2--><g class="link" data-entity-1="ent0002" data-entity-2="ent0005" data-link-type="dependency" data-source-line="10" id="lnk9"><path d="M96,53.59 C96,73.56 96,95.34 96,106.91" fill="none" id="c-to-p2" style="stroke:#181818;stroke-width:1;"/><polygon fill="#181818" points="96,112.91,100,103.91,96,107.91,92,103.91,96,112.91" style="stroke:#181818;stroke-width:1;"/></g><!--link c to p3--><g class="link" data-entity-1="ent0002" data-entity-2="ent0006" data-link-type="dependency" data-source-line="11" id="lnk10"><path d="M108.1,53.59 C118.87,73.56 131.0119,96.0591 137.2519,107.6291" fill="none" id="c-to-p3" style="stroke:#181818;stroke-width:1;"/><polygon fill="#181818" points="140.1,112.91,139.3484,103.0899,137.7266,108.5092,132.3072,106.8874,140.1,112.91" style="stroke:#181818;stroke-width:1;"/></g><!--link p1 to f1--><g class="link" data-entity-1="ent0004" data-entity-2="ent0007" data-link-type="dependency" data-source-line="12" id="lnk11"><path d="M49,125.68 C49,137.53 49,160.29 49,179.05" fill="none" id="p1-to-f1" style="stroke:#181818;stroke-width:1;"/><polygon fill="#181818" points="49,185.05,53,176.05,49,180.05,45,176.05,49,185.05" style="stroke:#181818;stroke-width:1;"/></g><!--link p2 to f1--><g class="link" data-entity-1="ent0005" data-entity-2="ent0007" data-link-type="dependency" data-source-line="13" id="lnk12"><path d="M92.92,125.68 C86.14,137.53 72.6589,161.0817 61.9289,179.8417" fill="none" id="p2-to-f1" style="stroke:#181818;stroke-width:1;"/><polygon fill="#181818" points="58.95,185.05,66.8906,179.2236,61.4324,180.7098,59.9462,175.2517,58.95,185.05" style="stroke:#181818;stroke-width:1;"/></g><?plantuml-src YqwEvShBJqbL01FLN0eA1Vb59Pbv2WM6I6mZ9BOna9sMcPEga6R8LSl5bQoWgsi7KWrb6C4Onbm5Xc0MK5s14PG50000?></g></svg>