<svg xmlns="http://www.w3.org/2000/svg" xmlns:xlink="http://www.w3.org/1999/xlink" contentStyleType="text/css" data-diagram-type="DESCRIPTION" height="250px" preserveAspectRatio="none" style="width:193px;height:250px;background:#FFFFFF;" version="1.1" viewBox="0 0 193 250" width="193px" zoomAndPan="magnify"><?plantuml 1.2026.3beta5?><defs/><g><!--cluster node--><g class="cluster" data-qualified-name="node" data-source-line="1" id="ent0002"><polygon fill="none" points="16,16,26,6,168,6,168,114.29,158,124.29,16,124.29,16,16" style="stroke:#181818;stroke-width:1;"/><line style="stroke:#181818;stroke-width:1;" x1="158" x2="168" y1="16" y2="6"/><line style="stroke:#181818;stroke-width:1;" x1="16" x2="158" y1="16" y2="16"/><line style="stroke:#181818;stroke-width:1;" x1="158" x2="158" y1="16" y2="124.29"/><text fill="#000000" font-family="sans-serif" font-size="14" font-weight="700" lengthAdjust="spacing" textLength="39.1016" x="68.4492" y="31.9951">node</text></g><g class="entity" data-qualified-name="node.p1" data-source-line="2" id="ent0003"><text fill="#000000" font-family="sans-serif" font-size="14" lengthAdjust="spacing" textLength="17.7939" x="47.103" y="143.2851">p1</text><rect fill="#F1F1F1" height="12" style="stroke:#181818;stroke-width:1.5;" width="12" x="50" y="118.29"/></g><g class="entity" data-qualified-name="node.p2" data-source-line="3" id="ent0004"><text fill="#000000" font-family="sans-serif" font-size="14" lengthAdjust="spacing" textLength="17.7939" x="94.103" y="143.2851">p2</text><rect fill="#F1F1F1" height="12" style="stroke:#181818;stroke-width:1.5;" width="12" x="97" y="118.29"/></g><g class="entity" data-qualified-name="node.p3" data-source-line="4" id="ent0005"><text fill="#000000" font-family="sans-serif" font-size="14" lengthAdjust="spacing" textLength="17.7939" x="141.103" y="143.2851">p3</text><rect fill="#F1F1F1" height="12" style="stroke:#181818;stroke-width:1.5;" width="12" x="144" y="118.29"/></g><!--entity f1--><g class="entity" data-qualified-name="node.f1" data-source-line="5" id="ent0006"><path d="M32.08,24.5 L32.08,55.7969 A2.5,2.5 0 0 0 34.58,58.2969 L63.4159,58.2969 A2.5,2.5 0 0 0 65.9159,55.7969 L65.9159,32 L55.9159,22 L34.58,22 A2.5,2.5 0 0 0 32.08,24.5" fill="#F1F1F1" style="stroke:#181818;stroke-width:0.5;"/><path d="M55.9159,22 L55.9159,29.5 A2.5,2.5 0 0 0 58.4159,32 L65.9159,32" fill="#F1F1F1" style="stroke:#181818;stroke-width:0.5;"/><text fill="#000000" font-family="sans-serif" font-size="14" lengthAdjust="spacing" textLength="13.8359" x="42.08" y="44.9951">f1</text></g><!--entity o--><g class="entity" data-qualified-name="o" data-source-line="7" id="ent0007"><rect fill="#F1F1F1" height="46.2969" rx="2.5" ry="2.5" style="stroke:#181818;stroke-width:0.5;" width="48.5654" x="78.72" y="190.29"/><rect fill="#F1F1F1" height="10" style="stroke:#181818;stroke-width:0.5;" width="15" x="107.2854" y="195.29"/><rect fill="#F1F1F1" height="2" style="stroke:#181818;stroke-width:0.5;" width="4" x="105.2854" y="197.29"/><rect fill="#F1F1F1" height="2" style="stroke:#181818;stroke-width:0.5;" width="4" x="105.2854" y="201.29"/><text fill="#000000" font-family="sans-serif" font-size="14" lengthAdjust="spacing" textLength="8.5654" x="93.72" y="223.2851">o</text></g><!--link p1 to o--><g class="link" data-entity-1="ent0003" data-entity-2="ent0007" data-link-type="dependency" data-source-line="8" id="lnk8"><path d="M58.94,130.74 C65.21,142.37 77.3527,164.8786 88.1027,184.8186" fill="none" id="p1-to-o" style="stroke:#181818;stroke-width:1;"/><polygon fill="#181818" points="90.95,190.1,90.2,180.2797,88.5773,185.6988,83.1582,184.0761,90.95,190.1" style="stroke:#181818;stroke-width:1;"/></g><!--link p2 to o--><g class="link" data-entity-1="ent0004" data-entity-2="ent0007" data-link-type="dependency" data-source-line="9" id="lnk9"><path d="M103,130.74 C103,142.37 103,164.16 103,184.1" fill="none" id="p2-to-o" style="stroke:#181818;stroke-width:1;"/><polygon fill="#181818" points="103,190.1,107,181.1,103,185.1,99,181.1,103,190.1" style="stroke:#181818;stroke-width:1;"/></g><!--link p3 to o--><g class="link" data-entity-1="ent0005" data-entity-2="ent0007" data-link-type="dependency" data-source-line="10" id="lnk10"><path d="M147.06,130.74 C140.79,142.37 128.6473,164.8786 117.8973,184.8186" fill="none" id="p3-to-o" style="stroke:#181818;stroke-width:1;"/><polygon fill="#181818" points="115.05,190.1,122.8418,184.0761,117.4227,185.6988,115.8,180.2797,115.05,190.1" style="stroke:#181818;stroke-width:1;"/></g><!--link f1 to p1--><g class="link" data-entity-1="ent0006" data-entity-2="ent0003" data-link-type="dependency" data-source-line="11" id="lnk11"><path d="M50.48,58.57 C52.09,77.41 54.0412,100.3316 55.0412,112.0816" fill="none" id="f1-to-p1" style="stroke:#181818;stroke-width:1;"/><polygon fill="#181818" points="55.55,118.06,58.7724,108.7532,55.126,113.078,50.8012,109.4316,55.55,118.06" style="stroke:#181818;stroke-width:1;"/></g><?plantuml-src oyjFILN80n7LN0eA1Vb59Vcb9Ge5XiWS8sIECP2JbfcJgf1co5NB5PqVorLWgA2hQwUGprLW16COGnbf4Aa2Gm00?></g></svg>