<svg xmlns="http://www.w3.org/2000/svg" xmlns:xlink="http://www.w3.org/1999/xlink" contentStyleType="text/css" data-diagram-type="DESCRIPTION" height="535px" preserveAspectRatio="none" style="width:665px;height:535px;background:#FFFFFF;" version="1.1" viewBox="0 0 665 535" width="665px" zoomAndPan="magnify"><?plantuml 1.2026.3beta5?><defs/><g><!--entity actor--><g class="entity" data-qualified-name="actor" data-source-line="2" id="ent0002"><ellipse cx="53.4735" cy="14" fill="#F1F1F1" rx="8" ry="8" style="stroke:#181818;stroke-width:0.5;"/><path d="M53.4735,22 L53.4735,49 M40.4735,30 L66.4735,30 M53.4735,49 L40.4735,64 M53.4735,49 L66.4735,64" fill="none" style="stroke:#181818;stroke-width:0.5;"/><text fill="#000000" font-family="sans-serif" font-size="14" lengthAdjust="spacing" textLength="36.0869" x="35.43" y="78.4951">actor</text></g><!--entity agent--><g class="entity" data-qualified-name="agent" data-source-line="3" id="ent0003"><rect fill="#F1F1F1" height="36.2969" rx="7.5" ry="7.5" style="stroke:#181818;stroke-width:0.5;" width="60.4414" x="106.25" y="25.5"/><text fill="#000000" font-family="sans-serif" font-size="14" lengthAdjust="spacing" textLength="40.4414" x="116.25" y="48.4951">agent</text></g><!--entity artifact--><g class="entity" data-qualified-name="artifact" data-source-line="4" id="ent0004"><rect fill="#F1F1F1" height="39.2969" rx="7.5" ry="7.5" style="stroke:#181818;stroke-width:0.5;" width="80.4082" x="201.27" y="24"/><polygon fill="#F1F1F1" points="264.6782,29,264.6782,43,276.6782,43,276.6782,35,270.6782,29,264.6782,29" style="stroke:#181818;stroke-width:0.5;"/><line style="stroke:#181818;stroke-width:0.5;" x1="270.6782" x2="270.6782" y1="29" y2="35"/><line style="stroke:#181818;stroke-width:0.5;" x1="276.6782" x2="270.6782" y1="35" y2="35"/><text fill="#000000" font-family="sans-serif" font-size="14" lengthAdjust="spacing" textLength="50.4082" x="211.27" y="49.9951">artifact</text></g><!--entity boundary--><g class="entity" data-qualified-name="boundary" data-source-line="5" id="ent0005"><path d="M329.9725,23.5 L329.9725,47.5 M329.9725,35.5 L346.9725,35.5" fill="none" style="stroke:#181818;stroke-width:0.5;"/><ellipse cx="358.9725" cy="35.5" fill="#F1F1F1" rx="12" ry="12" style="stroke:#181818;stroke-width:0.5;"/><text fill="#000000" font-family="sans-serif" font-size="14" lengthAdjust="spacing" textLength="66.7051" x="317.12" y="64.4951">boundary</text></g><!--entity card--><g class="entity" data-qualified-name="card" data-source-line="6" id="ent0006"><rect fill="#F1F1F1" height="22.2969" rx="7.5" ry="7.5" style="stroke:#181818;stroke-width:0.5;" width="50.9189" x="419.01" y="32.5"/><text fill="#000000" font-family="sans-serif" font-size="14" lengthAdjust="spacing" textLength="30.9189" x="429.01" y="48.4951">card</text></g><!--entity circle--><g class="entity" data-qualified-name="circle" data-source-line="7" id="ent0007"><ellipse cx="531.47" cy="43.65" fill="#F1F1F1" rx="8" ry="8" style="stroke:#181818;stroke-width:0.5;"/><text fill="#000000" font-family="sans-serif" font-size="14" lengthAdjust="spacing" textLength="37.543" x="512.6985" y="73.6451">circle</text></g><!--entity cloud--><g class="entity" data-qualified-name="cloud" data-source-line="8" id="ent0008"><path d="M27.5239,151.1665 C31.1823,143.6583 36.9196,143.7873 41.4854,150.2604 C44.7903,143.4964 50.4184,142.4966 54.5875,149.4339 C58.5333,143.1578 63.596,144.8386 66.739,150.2673 C70.6359,143.689 77.3084,145.2025 80.2901,151.2496 C89.207,154.4524 91.5886,161.1416 84.0868,168.054 C88.6708,174.6587 88.5556,179.1145 79.7471,181.347 C78.3487,187.5414 73.0322,189.8415 68.4657,184.4253 C64.3834,191.9761 59.5799,192.4381 53.636,186.4669 C48.9848,191.4348 43.7316,189.6869 41.2605,183.9472 C36.769,189.6698 31.6148,189.6331 28.4574,182.6074 C19.2314,181.7605 16.2311,175.5286 21.4625,167.8357 C15.3882,159.3034 17.3878,153.8042 27.5239,151.1665" fill="#F1F1F1" style="stroke:#181818;stroke-width:0.5;"/><text fill="#000000" font-family="sans-serif" font-size="14" lengthAdjust="spacing" textLength="37.9121" x="34.51" y="170.7951">cloud</text></g><!--entity collections--><g class="entity" data-qualified-name="collections" data-source-line="9" id="ent0009"><rect fill="#F1F1F1" height="32.2969" rx="7.5" ry="7.5" style="stroke:#181818;stroke-width:0.5;" width="90.4639" x="126.24" y="151.8"/><rect fill="#F1F1F1" height="32.2969" rx="7.5" ry="7.5" style="stroke:#181818;stroke-width:0.5;" width="90.4639" x="122.24" y="147.8"/><text fill="#000000" font-family="sans-serif" font-size="14" lengthAdjust="spacing" textLength="74.4639" x="130.24" y="168.7951">collections</text></g><!--entity component--><g class="entity" data-qualified-name="component" data-source-line="10" id="ent0010"><rect fill="#F1F1F1" height="46.2969" rx="7.5" ry="7.5" style="stroke:#181818;stroke-width:0.5;" width="119.2012" x="251.87" y="142.8"/><rect fill="#F1F1F1" height="10" style="stroke:#181818;stroke-width:0.5;" width="15" x="351.0712" y="147.8"/><rect fill="#F1F1F1" height="2" style="stroke:#181818;stroke-width:0.5;" width="4" x="349.0712" y="149.8"/><rect fill="#F1F1F1" height="2" style="stroke:#181818;stroke-width:0.5;" width="4" x="349.0712" y="153.8"/><text fill="#000000" font-family="sans-serif" font-size="14" lengthAdjust="spacing" textLength="79.2012" x="266.87" y="175.7951">component</text></g><!--entity control--><g class="entity" data-qualified-name="control" data-source-line="11" id="ent0011"><ellipse cx="430.468" cy="157.8" fill="#F1F1F1" rx="12" ry="12" style="stroke:#181818;stroke-width:0.5;"/><polygon fill="#181818" points="426.468,145.8,432.468,140.8,430.468,145.8,432.468,150.8,426.468,145.8" style="stroke:#181818;stroke-width:1;"/><text fill="#000000" font-family="sans-serif" font-size="14" lengthAdjust="spacing" textLength="48.8359" x="406.05" y="186.7951">control</text></g><!--entity database--><g class="entity" data-qualified-name="database" data-source-line="12" id="ent0012"><path d="M490.02,153.3 C490.02,143.3 532.4736,143.3 532.4736,143.3 C532.4736,143.3 574.9272,143.3 574.9272,153.3 L574.9272,178.5969 C574.9272,188.5969 532.4736,188.5969 532.4736,188.5969 C532.4736,188.5969 490.02,188.5969 490.02,178.5969 L490.02,153.3" fill="#F1F1F1" style="stroke:#181818;stroke-width:0.5;"/><path d="M490.02,153.3 C490.02,163.3 532.4736,163.3 532.4736,163.3 C532.4736,163.3 574.9272,163.3 574.9272,153.3" fill="none" style="stroke:#181818;stroke-width:0.5;"/><text fill="#000000" font-family="sans-serif" font-size="14" lengthAdjust="spacing" textLength="64.9072" x="500.02" y="180.2951">database</text></g><!--entity entity--><g class="entity" data-qualified-name="entity" data-source-line="13" id="ent0013"><ellipse cx="630.4698" cy="157.8" fill="#F1F1F1" rx="12" ry="12" style="stroke:#181818;stroke-width:0.5;"/><line style="stroke:#181818;stroke-width:0.5;" x1="618.4698" x2="642.4698" y1="171.8" y2="171.8"/><text fill="#000000" font-family="sans-serif" font-size="14" lengthAdjust="spacing" textLength="40.6396" x="610.15" y="186.7951">entity</text></g><!--entity file--><g class="entity" data-qualified-name="file" data-source-line="14" id="ent0014"><path d="M32.81,268.44 L32.81,289.7369 A7.5,7.5 0 0 0 40.31,297.2369 L66.6313,297.2369 A7.5,7.5 0 0 0 74.1313,289.7369 L74.1313,270.94 L64.1313,260.94 L40.31,260.94 A7.5,7.5 0 0 0 32.81,268.44" fill="#F1F1F1" style="stroke:#181818;stroke-width:0.5;"/><path d="M64.1313,260.94 L64.1313,263.44 A7.5,7.5 0 0 0 71.6313,270.94 L74.1313,270.94" fill="#F1F1F1" style="stroke:#181818;stroke-width:0.5;"/><text fill="#000000" font-family="sans-serif" font-size="14" lengthAdjust="spacing" textLength="21.3213" x="42.81" y="283.9351">file</text></g><!--entity folder--><g class="entity" data-qualified-name="folder" data-source-line="15" id="ent0015"><path d="M116.65,251.94 L147.65,251.94 A11.25,11.25 0 0 1 155.15,259.44 L162.15,272.94 L172.2896,272.94 A7.5,7.5 0 0 1 179.7896,280.44 L179.7896,298.7369 A7.5,7.5 0 0 1 172.2896,306.2369 L116.65,306.2369 A7.5,7.5 0 0 1 109.15,298.7369 L109.15,259.44 A7.5,7.5 0 0 1 116.65,251.94" fill="#F1F1F1" style="stroke:#181818;stroke-width:0.5;"/><line style="stroke:#181818;stroke-width:0.5;" x1="109.15" x2="162.15" y1="272.94" y2="272.94"/><text fill="#000000" font-family="sans-serif" font-size="14" lengthAdjust="spacing" textLength="40.6396" x="119.15" y="292.9351">folder</text></g><!--entity frame--><g class="entity" data-qualified-name="frame" data-source-line="16" id="ent0016"><rect fill="#F1F1F1" height="46.2969" rx="7.5" ry="7.5" style="stroke:#181818;stroke-width:0.5;" width="81.5146" x="214.71" y="255.94"/><path d="M241.8815,255.94 L241.8815,260.94 L234.8815,267.94 L214.71,267.94" fill="none" style="stroke:#181818;stroke-width:0.5;"/><text fill="#000000" font-family="sans-serif" font-size="14" lengthAdjust="spacing" textLength="41.5146" x="229.71" y="288.9351">frame</text></g><!--entity hexagon--><g class="entity" data-qualified-name="hexagon" data-source-line="17" id="ent0017"><polygon fill="#F1F1F1" points="452.15,279.09,421.81,265.94,361.13,265.94,330.79,279.09,361.13,292.24,421.81,292.24,452.15,279.09" style="stroke:#181818;stroke-width:0.5;"/><text fill="#000000" font-family="sans-serif" font-size="14" lengthAdjust="spacing" textLength="60.6758" x="361.1279" y="283.9351">hexagon</text></g><!--entity interface--><g class="entity" data-qualified-name="interface" data-source-line="18" id="ent0018"><ellipse cx="526.47" cy="279.09" fill="#F1F1F1" rx="8" ry="8" style="stroke:#181818;stroke-width:0.5;"/><text fill="#000000" font-family="sans-serif" font-size="14" lengthAdjust="spacing" textLength="62.4395" x="495.2503" y="309.0851">interface</text></g><!--entity label--><g class="entity" data-qualified-name="label" data-source-line="19" id="ent0019"><text fill="#000000" font-family="sans-serif" font-size="14" lengthAdjust="spacing" textLength="33.8584" x="610.54" y="283.9351">label</text></g><!--entity node--><g class="entity" data-qualified-name="node" data-source-line="20" id="ent0020"><polygon fill="#F1F1F1" points="16,383.52,26,373.52,90.9385,373.52,90.9385,409.8169,80.9385,419.8169,16,419.8169,16,383.52" style="stroke:#181818;stroke-width:0.5;"/><line style="stroke:#181818;stroke-width:0.5;" x1="80.9385" x2="90.9385" y1="383.52" y2="373.52"/><line style="stroke:#181818;stroke-width:0.5;" x1="16" x2="80.9385" y1="383.52" y2="383.52"/><line style="stroke:#181818;stroke-width:0.5;" x1="80.9385" x2="80.9385" y1="383.52" y2="419.8169"/><text fill="#000000" font-family="sans-serif" font-size="14" lengthAdjust="spacing" textLength="34.9385" x="31" y="406.5151">node</text></g><!--entity package--><g class="entity" data-qualified-name="package" data-source-line="21" id="ent0021"><path d="M132.97,380.17 L135.97,380.17 A11.25,11.25 0 0 1 143.47,387.67 L150.47,396.17 L159.97,396.17 A7.5,7.5 0 0 1 167.47,403.67 L167.47,405.67 A7.5,7.5 0 0 1 159.97,413.17 L132.97,413.17 A7.5,7.5 0 0 1 125.47,405.67 L125.47,387.67 A7.5,7.5 0 0 1 132.97,380.17" fill="#F1F1F1" style="stroke:#181818;stroke-width:0.5;"/><line style="stroke:#181818;stroke-width:0.5;" x1="125.47" x2="150.47" y1="396.17" y2="396.17"/><text fill="#000000" font-family="sans-serif" font-size="14" font-weight="700" lengthAdjust="spacing" textLength="0" x="135.47" y="383.17">package</text></g><!--entity person--><g class="entity" data-qualified-name="person" data-source-line="22" id="ent0022"><ellipse cx="236.4741" cy="378.5221" fill="#F1F1F1" rx="10.4321" ry="10.4321" style="stroke:#181818;stroke-width:0.5;"/><rect fill="#F1F1F1" height="36.2969" rx="10.4321" ry="10.4321" style="stroke:#181818;stroke-width:0.5;" width="67.9883" x="202.48" y="388.9542"/><text fill="#000000" font-family="sans-serif" font-size="14" lengthAdjust="spacing" textLength="47.9883" x="212.48" y="411.9493">person</text></g><!--entity queue--><g class="entity" data-qualified-name="queue" data-source-line="23" id="ent0023"><path d="M310.54,383.52 L364.3994,383.52 C369.3994,383.52 369.3994,396.6684 369.3994,396.6684 C369.3994,396.6684 369.3994,409.8169 364.3994,409.8169 L310.54,409.8169 C305.54,409.8169 305.54,396.6684 305.54,396.6684 C305.54,396.6684 305.54,383.52 310.54,383.52" fill="#F1F1F1" style="stroke:#181818;stroke-width:0.5;"/><path d="M364.3994,383.52 C359.3994,383.52 359.3994,396.6684 359.3994,396.6684 C359.3994,409.8169 364.3994,409.8169 364.3994,409.8169" fill="none" style="stroke:#181818;stroke-width:0.5;"/><text fill="#000000" font-family="sans-serif" font-size="14" lengthAdjust="spacing" textLength="43.8594" x="310.54" y="401.5151">queue</text></g><!--entity rectangle--><g class="entity" data-qualified-name="rectangle" data-source-line="24" id="ent0024"><rect fill="#F1F1F1" height="36.2969" rx="7.5" ry="7.5" style="stroke:#181818;stroke-width:0.5;" width="86.3975" x="404.27" y="378.52"/><text fill="#000000" font-family="sans-serif" font-size="14" lengthAdjust="spacing" textLength="66.3975" x="414.27" y="401.5151">rectangle</text></g><!--entity stack--><g class="entity" data-qualified-name="stack" data-source-line="25" id="ent0025"><rect fill="#F1F1F1" height="36.2969" rx="7.5" ry="7.5" style="stroke:none;stroke-width:0.5;" width="57.167" x="540.89" y="378.52"/><path d="M525.89,378.52 L533.39,378.52 A7.5,7.5 0 0 1 540.89,386.02 L540.89,407.3169 A7.5,7.5 0 0 0 548.39,414.8169 L590.557,414.8169 A7.5,7.5 0 0 0 598.057,407.3169 L598.057,386.02 A7.5,7.5 0 0 1 605.557,378.52 L613.057,378.52" fill="none" style="stroke:#181818;stroke-width:0.5;"/><text fill="#000000" font-family="sans-serif" font-size="14" lengthAdjust="spacing" textLength="37.167" x="550.89" y="401.5151">stack</text></g><!--entity storage--><g class="entity" data-qualified-name="storage" data-source-line="26" id="ent0026"><rect fill="#F1F1F1" height="36.2969" rx="35" ry="35" style="stroke:#181818;stroke-width:0.5;" width="73.1836" x="16.88" y="485.25"/><text fill="#000000" font-family="sans-serif" font-size="14" lengthAdjust="spacing" textLength="53.1836" x="26.88" y="508.2451">storage</text></g><!--entity usecase--><g class="entity" data-qualified-name="usecase" data-source-line="27" id="ent0027"><ellipse cx="168.4695" cy="503.4036" fill="#F1F1F1" rx="43.2795" ry="14.5236" style="stroke:#181818;stroke-width:0.5;"/><text fill="#000000" font-family="sans-serif" font-size="14" lengthAdjust="spacing" textLength="56.9639" x="139.9876" y="508.0521">usecase</text></g><?plantuml-src JP1BSeGm34JtVGfT8OkSO4uYZ22kyKYCRAeojuyCXihclIuPVvhwpBgnyulSTfqVvYfENz_WrCpf87WLRNGGx2qlCQOhOEeRsJzq1IJscJgGigSYT0gfs1uBdKXMYgIMJIlzop5_RQRzlZl5J9jReM7Ct7ZYAdG5n5UvVUWKbXntTc2nCaUVKrYYPonquaT-UJMbOMHjuj57w4ueF4cXWr2RXJgmSNh6lw1XRE8r3Zg5zowxq45ub69Tup5tGcsnZGv6Dkyd3MEladgjuJy0?></g></svg>