<svg xmlns="http://www.w3.org/2000/svg" xmlns:xlink="http://www.w3.org/1999/xlink" contentStyleType="text/css" data-diagram-type="DESCRIPTION" height="543px" preserveAspectRatio="none" style="width:721px;height:543px;background:#FFFFFF;" version="1.1" viewBox="0 0 721 543" width="721px" zoomAndPan="magnify"><?plantuml 1.2026.3beta5?><defs/><g><!--entity action--><g class="entity" data-qualified-name="action" data-source-line="1" id="ent0002"><polygon fill="#F0F8FF" points="16,25.5,79.0938,25.5,89.0938,43.6484,79.0938,61.7969,16,61.7969" style="stroke:#0000FF;stroke-width:1;stroke-dasharray:1,3;"/><text fill="#0000FF" font-family="sans-serif" font-size="14" lengthAdjust="spacing" textLength="43.0938" x="26" y="48.4951">action</text></g><!--entity actor--><g class="entity" data-qualified-name="actor" data-source-line="2" id="ent0003"><ellipse cx="142.5435" cy="14" fill="#F0F8FF" rx="8" ry="8" style="stroke:#0000FF;stroke-width:1;stroke-dasharray:1,3;"/><path d="M142.5435,22 L142.5435,49 M129.5435,30 L155.5435,30 M142.5435,49 L129.5435,64 M142.5435,49 L155.5435,64" fill="none" style="stroke:#0000FF;stroke-width:1;stroke-dasharray:1,3;"/><text fill="#0000FF" font-family="sans-serif" font-size="14" lengthAdjust="spacing" textLength="36.0869" x="124.5" y="78.9951">actor</text></g><!--entity actor/--><g class="entity" data-qualified-name="actor." data-source-line="3" id="ent0004"><ellipse cx="215.5419" cy="14" fill="#F0F8FF" rx="8" ry="8" style="stroke:#0000FF;stroke-width:1;stroke-dasharray:1,3;"/><line style="stroke:#0000FF;stroke-width:1;stroke-dasharray:1,3;" x1="213.598" x2="223.3021" y1="21.7603" y2="12.0562"/><path d="M215.5419,22 L215.5419,49 M202.5419,30 L228.5419,30 M215.5419,49 L202.5419,64 M215.5419,49 L228.5419,64" fill="none" style="stroke:#0000FF;stroke-width:1;stroke-dasharray:1,3;"/><text fill="#0000FF" font-family="sans-serif" font-size="14" lengthAdjust="spacing" textLength="40.8037" x="195.14" y="78.9951">actor/</text></g><!--entity agent--><g class="entity" data-qualified-name="agent" data-source-line="4" id="ent0005"><rect fill="#F0F8FF" height="36.2969" rx="2.5" ry="2.5" style="stroke:#0000FF;stroke-width:1;stroke-dasharray:1,3;" width="60.4414" x="271.32" y="25.5"/><text fill="#0000FF" font-family="sans-serif" font-size="14" lengthAdjust="spacing" textLength="40.4414" x="281.32" y="48.4951">agent</text></g><!--entity artifact--><g class="entity" data-qualified-name="artifact" data-source-line="5" id="ent0006"><rect fill="#F0F8FF" height="39.2969" rx="2.5" ry="2.5" style="stroke:#0000FF;stroke-width:1;stroke-dasharray:1,3;" width="80.4082" x="366.34" y="24"/><polygon fill="#F0F8FF" points="429.7482,29,429.7482,43,441.7482,43,441.7482,35,435.7482,29,429.7482,29" style="stroke:#0000FF;stroke-width:1;stroke-dasharray:1,3;"/><line style="stroke:#0000FF;stroke-width:1;stroke-dasharray:1,3;" x1="435.7482" x2="435.7482" y1="29" y2="35"/><line style="stroke:#0000FF;stroke-width:1;stroke-dasharray:1,3;" x1="441.7482" x2="435.7482" y1="35" y2="35"/><text fill="#0000FF" font-family="sans-serif" font-size="14" lengthAdjust="spacing" textLength="50.4082" x="376.34" y="49.9951">artifact</text></g><!--entity boundary--><g class="entity" data-qualified-name="boundary" data-source-line="6" id="ent0007"><path d="M495.0425,23.5 L495.0425,47.5 M495.0425,35.5 L512.0425,35.5" fill="none" style="stroke:#0000FF;stroke-width:1;stroke-dasharray:1,3;"/><ellipse cx="524.0425" cy="35.5" fill="#F0F8FF" rx="12" ry="12" style="stroke:#0000FF;stroke-width:1;stroke-dasharray:1,3;"/><text fill="#0000FF" font-family="sans-serif" font-size="14" lengthAdjust="spacing" textLength="66.7051" x="482.19" y="64.4951">boundary</text></g><!--entity card--><g class="entity" data-qualified-name="card" data-source-line="7" id="ent0008"><rect fill="#F0F8FF" height="22.2969" rx="2.5" ry="2.5" style="stroke:#0000FF;stroke-width:1;stroke-dasharray:1,3;" width="50.9189" x="27.08" y="160.15"/><text fill="#0000FF" font-family="sans-serif" font-size="14" lengthAdjust="spacing" textLength="30.9189" x="37.08" y="176.1451">card</text></g><!--entity circle--><g class="entity" data-qualified-name="circle" data-source-line="8" id="ent0009"><ellipse cx="139.54" cy="171.3" fill="#F0F8FF" rx="8" ry="8" style="stroke:#0000FF;stroke-width:1;stroke-dasharray:1,3;"/><text fill="#0000FF" font-family="sans-serif" font-size="14" lengthAdjust="spacing" textLength="37.543" x="120.7685" y="201.2951">circle</text></g><!--entity cloud--><g class="entity" data-qualified-name="cloud" data-source-line="9" id="ent0010"><path d="M209.6039,156.5165 C213.2623,149.0083 218.9996,149.1373 223.5654,155.6104 C226.8703,148.8464 232.4984,147.8466 236.6675,154.7839 C240.6133,148.5078 245.676,150.1886 248.819,155.6173 C252.7159,149.039 259.3884,150.5525 262.3701,156.5996 C271.287,159.8024 273.6686,166.4916 266.1668,173.404 C270.7508,180.0087 270.6356,184.4645 261.8271,186.697 C260.4287,192.8914 255.1122,195.1915 250.5457,189.7753 C246.4634,197.3261 241.6599,197.7881 235.716,191.8169 C231.0648,196.7848 225.8116,195.0369 223.3405,189.2972 C218.849,195.0198 213.6948,194.9831 210.5374,187.9574 C201.3114,187.1105 198.3111,180.8786 203.5425,173.1857 C197.4682,164.6534 199.4678,159.1542 209.6039,156.5165" fill="#F0F8FF" style="stroke:#0000FF;stroke-width:1;stroke-dasharray:1,3;"/><text fill="#0000FF" font-family="sans-serif" font-size="14" lengthAdjust="spacing" textLength="37.9121" x="216.59" y="176.1451">cloud</text></g><!--entity collections--><g class="entity" data-qualified-name="collections" data-source-line="10" id="ent0011"><rect fill="#F0F8FF" height="32.2969" rx="2.5" ry="2.5" style="stroke:#0000FF;stroke-width:1;stroke-dasharray:1,3;" width="90.4639" x="308.31" y="157.15"/><rect fill="#F0F8FF" height="32.2969" rx="2.5" ry="2.5" style="stroke:#0000FF;stroke-width:1;stroke-dasharray:1,3;" width="90.4639" x="304.31" y="153.15"/><text fill="#0000FF" font-family="sans-serif" font-size="14" lengthAdjust="spacing" textLength="74.4639" x="312.31" y="174.1451">collections</text></g><!--entity component--><g class="entity" data-qualified-name="component" data-source-line="11" id="ent0012"><rect fill="#F0F8FF" height="46.2969" rx="2.5" ry="2.5" style="stroke:#0000FF;stroke-width:1;stroke-dasharray:1,3;" width="119.2012" x="433.94" y="148.15"/><rect fill="#F0F8FF" height="10" style="stroke:#0000FF;stroke-width:1;stroke-dasharray:1,3;" width="15" x="533.1412" y="153.15"/><rect fill="#F0F8FF" height="2" style="stroke:#0000FF;stroke-width:1;stroke-dasharray:1,3;" width="4" x="531.1412" y="155.15"/><rect fill="#F0F8FF" height="2" style="stroke:#0000FF;stroke-width:1;stroke-dasharray:1,3;" width="4" x="531.1412" y="159.15"/><text fill="#0000FF" font-family="sans-serif" font-size="14" lengthAdjust="spacing" textLength="79.2012" x="448.94" y="181.1451">component</text></g><!--entity control--><g class="entity" data-qualified-name="control" data-source-line="12" id="ent0013"><ellipse cx="612.548" cy="163.15" fill="#F0F8FF" rx="12" ry="12" style="stroke:#0000FF;stroke-width:1;stroke-dasharray:1,3;"/><polygon fill="#0000FF" points="608.548,151.15,614.548,146.15,612.548,151.15,614.548,156.15,608.548,151.15" style="stroke:#0000FF;stroke-width:1;"/><text fill="#0000FF" font-family="sans-serif" font-size="14" lengthAdjust="spacing" textLength="48.8359" x="588.13" y="192.1451">control</text></g><!--entity database--><g class="entity" data-qualified-name="database" data-source-line="13" id="ent0014"><path d="M10.09,274.8 C10.09,264.8 52.5436,264.8 52.5436,264.8 C52.5436,264.8 94.9972,264.8 94.9972,274.8 L94.9972,300.0969 C94.9972,310.0969 52.5436,310.0969 52.5436,310.0969 C52.5436,310.0969 10.09,310.0969 10.09,300.0969 L10.09,274.8" fill="#F0F8FF" style="stroke:#0000FF;stroke-width:1;stroke-dasharray:1,3;"/><path d="M10.09,274.8 C10.09,284.8 52.5436,284.8 52.5436,284.8 C52.5436,284.8 94.9972,284.8 94.9972,274.8" fill="none" style="stroke:#0000FF;stroke-width:1;stroke-dasharray:1,3;"/><text fill="#0000FF" font-family="sans-serif" font-size="14" lengthAdjust="spacing" textLength="64.9072" x="20.09" y="301.7951">database</text></g><!--entity entity--><g class="entity" data-qualified-name="entity" data-source-line="14" id="ent0015"><ellipse cx="150.5398" cy="279.3" fill="#F0F8FF" rx="12" ry="12" style="stroke:#0000FF;stroke-width:1;stroke-dasharray:1,3;"/><line style="stroke:#0000FF;stroke-width:1;stroke-dasharray:1,3;" x1="138.5398" x2="162.5398" y1="293.3" y2="293.3"/><text fill="#0000FF" font-family="sans-serif" font-size="14" lengthAdjust="spacing" textLength="40.6396" x="130.22" y="308.2951">entity</text></g><!--entity file--><g class="entity" data-qualified-name="file" data-source-line="15" id="ent0016"><path d="M205.88,271.8 L205.88,303.0969 A2.5,2.5 0 0 0 208.38,305.5969 L244.7013,305.5969 A2.5,2.5 0 0 0 247.2013,303.0969 L247.2013,279.3 L237.2013,269.3 L208.38,269.3 A2.5,2.5 0 0 0 205.88,271.8" fill="#F0F8FF" style="stroke:#0000FF;stroke-width:1;stroke-dasharray:1,3;"/><path d="M237.2013,269.3 L237.2013,276.8 A2.5,2.5 0 0 0 239.7013,279.3 L247.2013,279.3" fill="#F0F8FF" style="stroke:#0000FF;stroke-width:1;stroke-dasharray:1,3;"/><text fill="#0000FF" font-family="sans-serif" font-size="14" lengthAdjust="spacing" textLength="21.3213" x="215.88" y="292.2951">file</text></g><!--entity folder--><g class="entity" data-qualified-name="folder" data-source-line="16" id="ent0017"><path d="M284.72,260.3 L325.72,260.3 A3.75,3.75 0 0 1 328.22,262.8 L335.22,281.3 L350.3596,281.3 A2.5,2.5 0 0 1 352.8596,283.8 L352.8596,312.0969 A2.5,2.5 0 0 1 350.3596,314.5969 L284.72,314.5969 A2.5,2.5 0 0 1 282.22,312.0969 L282.22,262.8 A2.5,2.5 0 0 1 284.72,260.3" fill="#F0F8FF" style="stroke:#0000FF;stroke-width:1;stroke-dasharray:1,3;"/><line style="stroke:#0000FF;stroke-width:1;stroke-dasharray:1,3;" x1="282.22" x2="335.22" y1="281.3" y2="281.3"/><text fill="#0000FF" font-family="sans-serif" font-size="14" lengthAdjust="spacing" textLength="40.6396" x="292.22" y="301.2951">folder</text></g><!--entity frame--><g class="entity" data-qualified-name="frame" data-source-line="17" id="ent0018"><rect fill="#F0F8FF" height="46.2969" rx="2.5" ry="2.5" style="stroke:#0000FF;stroke-width:1;stroke-dasharray:1,3;" width="81.5146" x="387.79" y="264.3"/><path d="M414.9615,264.3 L414.9615,269.3 L407.9615,276.3 L387.79,276.3" fill="none" style="stroke:#0000FF;stroke-width:1;stroke-dasharray:1,3;"/><text fill="#0000FF" font-family="sans-serif" font-size="14" lengthAdjust="spacing" textLength="41.5146" x="402.79" y="297.2951">frame</text></g><!--entity hexagon--><g class="entity" data-qualified-name="hexagon" data-source-line="18" id="ent0019"><polygon fill="#F0F8FF" points="625.22,287.44,594.88,274.3,534.21,274.3,503.87,287.44,534.21,300.59,594.88,300.59,625.22,287.44" style="stroke:#0000FF;stroke-width:1;stroke-dasharray:1,3;"/><text fill="#0000FF" font-family="sans-serif" font-size="14" lengthAdjust="spacing" textLength="60.6758" x="534.2079" y="292.2951">hexagon</text></g><!--entity interface--><g class="entity" data-qualified-name="interface" data-source-line="19" id="ent0020"><ellipse cx="52.54" cy="403.59" fill="#F0F8FF" rx="8" ry="8" style="stroke:#0000FF;stroke-width:1;stroke-dasharray:1,3;"/><text fill="#0000FF" font-family="sans-serif" font-size="14" lengthAdjust="spacing" textLength="62.4395" x="21.3203" y="433.5851">interface</text></g><!--entity label--><g class="entity" data-qualified-name="label" data-source-line="20" id="ent0021"><text fill="#0000FF" font-family="sans-serif" font-size="14" lengthAdjust="spacing" textLength="33.8584" x="136.61" y="408.4351">label</text></g><!--entity node--><g class="entity" data-qualified-name="node" data-source-line="21" id="ent0022"><polygon fill="#F0F8FF" points="215.07,390.44,225.07,380.44,290.0085,380.44,290.0085,416.7369,280.0085,426.7369,215.07,426.7369,215.07,390.44" style="stroke:#0000FF;stroke-width:1;stroke-dasharray:1,3;"/><line style="stroke:#0000FF;stroke-width:1;stroke-dasharray:1,3;" x1="280.0085" x2="290.0085" y1="390.44" y2="380.44"/><line style="stroke:#0000FF;stroke-width:1;stroke-dasharray:1,3;" x1="215.07" x2="280.0085" y1="390.44" y2="390.44"/><line style="stroke:#0000FF;stroke-width:1;stroke-dasharray:1,3;" x1="280.0085" x2="280.0085" y1="390.44" y2="426.7369"/><text fill="#0000FF" font-family="sans-serif" font-size="14" lengthAdjust="spacing" textLength="34.9385" x="230.07" y="413.4351">node</text></g><!--entity package--><g class="entity" data-qualified-name="package" data-source-line="22" id="ent0023"><path d="M327.04,387.09 L340.04,387.09 A3.75,3.75 0 0 1 342.54,389.59 L349.54,403.09 L364.04,403.09 A2.5,2.5 0 0 1 366.54,405.59 L366.54,417.59 A2.5,2.5 0 0 1 364.04,420.09 L327.04,420.09 A2.5,2.5 0 0 1 324.54,417.59 L324.54,389.59 A2.5,2.5 0 0 1 327.04,387.09" fill="#F0F8FF" style="stroke:#0000FF;stroke-width:1;stroke-dasharray:1,3;"/><line style="stroke:#0000FF;stroke-width:1;stroke-dasharray:1,3;" x1="324.54" x2="349.54" y1="403.09" y2="403.09"/><text fill="#0000FF" font-family="sans-serif" font-size="14" font-weight="700" lengthAdjust="spacing" textLength="0" x="334.54" y="390.09">package</text></g><!--entity person--><g class="entity" data-qualified-name="person" data-source-line="23" id="ent0024"><ellipse cx="435.5441" cy="385.4421" fill="#F0F8FF" rx="10.4321" ry="10.4321" style="stroke:#0000FF;stroke-width:1;stroke-dasharray:1,3;"/><rect fill="#F0F8FF" height="36.2969" rx="10.4321" ry="10.4321" style="stroke:#0000FF;stroke-width:1;stroke-dasharray:1,3;" width="67.9883" x="401.55" y="395.8742"/><text fill="#0000FF" font-family="sans-serif" font-size="14" lengthAdjust="spacing" textLength="47.9883" x="411.55" y="418.8693">person</text></g><!--entity process--><g class="entity" data-qualified-name="process" data-source-line="24" id="ent0025"><polygon fill="#F0F8FF" points="504.49,385.44,588.5964,385.44,598.5964,403.5884,588.5964,421.7369,504.49,421.7369,514.49,403.5884" style="stroke:#0000FF;stroke-width:1;stroke-dasharray:1,3;"/><text fill="#0000FF" font-family="sans-serif" font-size="14" lengthAdjust="spacing" textLength="54.1064" x="524.49" y="408.4351">process</text></g><!--entity queue--><g class="entity" data-qualified-name="queue" data-source-line="25" id="ent0026"><path d="M25.61,497.59 L79.4694,497.59 C84.4694,497.59 84.4694,510.7384 84.4694,510.7384 C84.4694,510.7384 84.4694,523.8869 79.4694,523.8869 L25.61,523.8869 C20.61,523.8869 20.61,510.7384 20.61,510.7384 C20.61,510.7384 20.61,497.59 25.61,497.59" fill="#F0F8FF" style="stroke:#0000FF;stroke-width:1;stroke-dasharray:1,3;"/><path d="M79.4694,497.59 C74.4694,497.59 74.4694,510.7384 74.4694,510.7384 C74.4694,523.8869 79.4694,523.8869 79.4694,523.8869" fill="none" style="stroke:#0000FF;stroke-width:1;stroke-dasharray:1,3;"/><text fill="#0000FF" font-family="sans-serif" font-size="14" lengthAdjust="spacing" textLength="43.8594" x="25.61" y="515.5851">queue</text></g><!--entity rectangle--><g class="entity" data-qualified-name="rectangle" data-source-line="26" id="ent0027"><rect fill="#F0F8FF" height="36.2969" rx="2.5" ry="2.5" style="stroke:#0000FF;stroke-width:1;stroke-dasharray:1,3;" width="86.3975" x="119.34" y="492.59"/><text fill="#0000FF" font-family="sans-serif" font-size="14" lengthAdjust="spacing" textLength="66.3975" x="129.34" y="515.5851">rectangle</text></g><!--entity stack--><g class="entity" data-qualified-name="stack" data-source-line="27" id="ent0028"><rect fill="#F0F8FF" height="36.2969" rx="2.5" ry="2.5" style="stroke:none;stroke-width:1;stroke-dasharray:1,3;" width="57.167" x="255.96" y="492.59"/><path d="M240.96,492.59 L253.46,492.59 A2.5,2.5 0 0 1 255.96,495.09 L255.96,526.3869 A2.5,2.5 0 0 0 258.46,528.8869 L310.627,528.8869 A2.5,2.5 0 0 0 313.127,526.3869 L313.127,495.09 A2.5,2.5 0 0 1 315.627,492.59 L328.127,492.59" fill="none" style="stroke:#0000FF;stroke-width:1;stroke-dasharray:1,3;"/><text fill="#0000FF" font-family="sans-serif" font-size="14" lengthAdjust="spacing" textLength="37.167" x="265.96" y="515.5851">stack</text></g><!--entity storage--><g class="entity" data-qualified-name="storage" data-source-line="28" id="ent0029"><rect fill="#F0F8FF" height="36.2969" rx="35" ry="35" style="stroke:#0000FF;stroke-width:1;stroke-dasharray:1,3;" width="73.1836" x="362.95" y="492.59"/><text fill="#0000FF" font-family="sans-serif" font-size="14" lengthAdjust="spacing" textLength="53.1836" x="372.95" y="515.5851">storage</text></g><!--entity usecase--><g class="entity" data-qualified-name="usecase" data-source-line="29" id="ent0030"><ellipse cx="514.5395" cy="510.7436" fill="#F0F8FF" rx="43.2795" ry="14.5236" style="stroke:#0000FF;stroke-width:1;stroke-dasharray:1,3;"/><text fill="#0000FF" font-family="sans-serif" font-size="14" lengthAdjust="spacing" textLength="56.9639" x="486.0576" y="515.3921">usecase</text></g><!--entity usecase/--><g class="entity" data-qualified-name="usecase." data-source-line="30" id="ent0031"><ellipse cx="650.5403" cy="510.7364" fill="#F0F8FF" rx="57.2703" ry="14.6864" style="stroke:#0000FF;stroke-width:1;stroke-dasharray:1,3;"/><text fill="#0000FF" font-family="sans-serif" font-size="14" lengthAdjust="spacing" textLength="61.6807" x="616.2" y="514.484">usecase/</text><line style="stroke:#0000FF;stroke-width:1;stroke-dasharray:1,3;" x1="703.2459" x2="687.339" y1="505.6167" y2="521.5237"/></g><?plantuml-src fPNDRiGW38JlVGehlRVtxjCuuEoYih0rZhJxzdKW9BtYvZ0pYfHFmqy0dOIS09kTppl6u6YEArrYIFHrf0-VHSXVX9vItxxfjvcXAVm3yGbJyyc4k58IQ6fjmH8MhG1764RCUKqU-GL764OuP0zLm3eG5zX5WjriY9XNhL7LsYB7I7LV5VYRXn3tHqxRafvfk4KIpX6w6mRYKN36Gd24OOGM3_A2tKpJkGHToohcVR7aw8bXDnk2yQurgXfRtEY9LprikXiG8Gcn_g44Pnf4H9mfGbFZG5Bs15NCA_90zwrd5dIt88YBpk9kjXQS7PK2tGs8dvLMWgR6kM0z831TTOEVQH1HHESHcXfR5Bs1jfNeRa2iXTnsIdIt8_HAx6aQHFm2?></g></svg>