<svg xmlns="http://www.w3.org/2000/svg" xmlns:xlink="http://www.w3.org/1999/xlink" contentStyleType="text/css" data-diagram-type="DESCRIPTION" height="229px" preserveAspectRatio="none" style="width:327px;height:229px;background:#FFFFFF;" version="1.1" viewBox="0 0 327 229" width="327px" zoomAndPan="magnify"><?plantuml 1.2026.3beta5?><defs/><g><!--entity n1--><g class="entity" data-qualified-name="n1" data-source-line="1" id="ent0002"><polygon fill="#F1F1F1" points="16,16,26,6,101.4453,6,101.4453,42.2969,91.4453,52.2969,16,52.2969,16,16" style="stroke:#181818;stroke-width:0.5;"/><line style="stroke:#181818;stroke-width:0.5;" x1="91.4453" x2="101.4453" y1="16" y2="6"/><line style="stroke:#181818;stroke-width:0.5;" x1="16" x2="91.4453" y1="16" y2="16"/><line style="stroke:#181818;stroke-width:0.5;" x1="91.4453" x2="91.4453" y1="16" y2="52.2969"/><text fill="#000000" font-family="sans-serif" font-size="14" lengthAdjust="spacing" textLength="45.4453" x="31" y="38.9951">Node1</text></g><!--entity n2--><g class="entity" data-qualified-name="n2" data-source-line="2" id="ent0003"><polygon fill="#F1F1F1" points="136.77,16,146.77,6,226.6655,6,226.6655,42.2969,216.6655,52.2969,136.77,52.2969,136.77,16" style="stroke:#181818;stroke-width:0.5;"/><line style="stroke:#181818;stroke-width:0.5;" x1="216.6655" x2="226.6655" y1="16" y2="6"/><line style="stroke:#181818;stroke-width:0.5;" x1="136.77" x2="216.6655" y1="16" y2="16"/><line style="stroke:#181818;stroke-width:0.5;" x1="216.6655" x2="216.6655" y1="16" y2="52.2969"/><text fill="#000000" font-family="sans-serif" font-size="14" lengthAdjust="spacing" textLength="49.8955" x="151.77" y="38.9951">Node 2</text></g><!--entity f1--><g class="entity" data-qualified-name="f1" data-source-line="3" id="ent0004"><path d="M29.82,144.24 L29.82,175.5369 A2.5,2.5 0 0 0 32.32,178.0369 L85.1227,178.0369 A2.5,2.5 0 0 0 87.6227,175.5369 L87.6227,151.74 L77.6227,141.74 L32.32,141.74 A2.5,2.5 0 0 0 29.82,144.24" fill="#F1F1F1" style="stroke:#181818;stroke-width:0.5;"/><path d="M77.6227,141.74 L77.6227,149.24 A2.5,2.5 0 0 0 80.1227,151.74 L87.6227,151.74" fill="#F1F1F1" style="stroke:#181818;stroke-width:0.5;"/><text fill="#000000" font-family="sans-serif" font-size="14" lengthAdjust="spacing" textLength="37.8027" x="39.82" y="164.7351">File 1</text></g><!--entity c1--><g class="entity" data-qualified-name="c1" data-source-line="4" id="ent0005"><path d="M132.8323,120.9891 C134.2349,114.067 139.1522,113.5069 144.1136,117.2108 C146.1806,109.2838 152.765,108.0499 158.0339,113.9987 C163.2416,109.7003 168.973,110.4149 170.0405,118.1348 C176.0669,112.5982 181.4431,113.7112 183.5812,121.9553 C189.3365,125.2078 190.3837,128.9678 185.6675,134.0297 C192.2686,137.2222 193.7887,142.0396 188.4122,147.6464 C194.9711,151.3017 197.1042,155.5853 190.8441,161.4922 C197.1083,166.0345 196.5621,170.6954 189.6635,173.9948 C193.7613,179.4628 193.2392,184.5301 185.9488,186.6573 C190.8779,191.6097 189.341,197.5209 182.8508,199.7768 C180.0061,205.727 174.8173,207.2055 170.6968,201.0585 C166.8816,208.1335 161.9771,207.5667 157.1196,202.1956 C152.4448,207.8938 147.1873,207.1595 144.3113,200.3531 C140.0749,206.1435 135.217,206.479 131.3632,199.951 C124.3197,196.3831 123.1855,192.3478 129.2964,186.7244 C122.3611,184.7865 120.6008,180.4878 125.6278,174.8532 C117.8751,172.9266 117.4752,166.0991 122.4833,161.2276 C118.0551,155.9685 118.416,151.8294 124.7029,148.4286 C119.3488,142.4911 122.7339,137.0053 129.3831,135.3697 C123.3176,130.0619 124.1132,122.7508 132.8323,120.9891" fill="#F1F1F1" style="stroke:#181818;stroke-width:0.5;"/><text fill="#000000" font-family="sans-serif" font-size="14" lengthAdjust="spacing" textLength="25.5459" x="137.77" y="140.2851">this</text><text fill="#000000" font-family="sans-serif" font-size="14" lengthAdjust="spacing" textLength="11.1836" x="137.77" y="156.582">is</text><text fill="#000000" font-family="sans-serif" font-size="14" lengthAdjust="spacing" textLength="8.5791" x="137.77" y="172.8789">a</text><text fill="#000000" font-family="sans-serif" font-size="14" lengthAdjust="spacing" textLength="37.9121" x="137.77" y="189.1757">cloud</text></g><!--entity c2--><g class="entity" data-qualified-name="c2" data-source-line="8" id="ent0006"><path d="M235.2018,120.8756 C237.4538,115.1375 241.2495,114.2929 245.3235,119.1321 C248.1229,113.4868 252.0319,112.0577 256.936,116.7732 C258.8719,111.0422 264.5456,109.2678 268.7431,114.2898 C273.0332,108.9883 277.571,109.9211 280.4851,115.7424 C285.9378,111.524 290.0005,112.4394 291.7462,119.4575 C296.3728,115.0913 300.5253,115.6455 303.257,121.5758 C310.1715,125.9193 309.694,130.0767 303.8743,135.0054 C310.7129,137.4007 310.0573,143.1526 305.5025,147.0837 C312.0945,150.5204 312.8148,156.4612 306.2756,160.6465 C312.705,164.7846 311.8767,171.3618 305.0339,174.2921 C311.1037,178.7247 310.0699,184.5714 303.7472,187.8259 C310.1544,192.5514 311.0066,197.1064 303.4595,201.5391 C300.1905,208.3862 295.7098,208.3035 290.7131,203.4158 C287.9093,208.7527 283.7009,209.0294 279.7837,204.6709 C278.221,210.8949 273.9549,211.953 268.8815,208.7168 C263.7773,214.5607 259.5705,212.1536 256.8571,206.2663 C251.4846,211.5439 246.4199,208.389 245.083,202.143 C241.1558,207.1081 238.0169,206.7042 235.2034,201.1018 C228.4355,197.9733 227.955,193.8826 232.61,188.4184 C224.6893,183.8143 224.2374,178.3973 231.9564,173.1249 C224.5749,170.5364 223.9623,166.1718 229.1909,160.7624 C222.9247,155.3747 224.4131,150.5917 231.4012,147.3958 C226.1467,142.9033 226.427,138.0287 232.6708,134.6847 C226.233,129.3897 227.9241,123.6568 235.2018,120.8756" fill="#F1F1F1" style="stroke:#181818;stroke-width:0.5;"/><text fill="#000000" font-family="sans-serif" font-size="14" lengthAdjust="spacing" textLength="25.5459" x="240.35" y="140.2851">this</text><text fill="#000000" font-family="sans-serif" font-size="14" lengthAdjust="spacing" textLength="11.1836" x="240.35" y="156.582">is</text><text fill="#000000" font-family="sans-serif" font-size="14" lengthAdjust="spacing" textLength="54.749" x="240.35" y="172.8789">another</text><text fill="#000000" font-family="sans-serif" font-size="14" lengthAdjust="spacing" textLength="37.9121" x="240.35" y="189.1757">cloud</text></g><!--link n1 to n2--><g class="link" data-entity-1="ent0002" data-entity-2="ent0003" data-link-type="dependency" data-source-line="13" id="lnk7"><path d="M101.48,29.14 C113.08,29.14 118.68,29.14 130.28,29.14" fill="none" id="n1-to-n2" style="stroke:#181818;stroke-width:1;"/><polygon fill="#181818" points="136.28,29.14,127.28,25.14,131.28,29.14,127.28,33.14,136.28,29.14" style="stroke:#181818;stroke-width:1;"/></g><!--link n1 to f1--><g class="link" data-entity-1="ent0002" data-entity-2="ent0004" data-link-type="dependency" data-source-line="14" id="lnk8"><path d="M58.72,52.57 C58.72,77.78 58.72,112.21 58.72,135.26" fill="none" id="n1-to-f1" style="stroke:#181818;stroke-width:1;"/><polygon fill="#181818" points="58.72,141.26,62.72,132.26,58.72,136.26,54.72,132.26,58.72,141.26" style="stroke:#181818;stroke-width:1;"/></g><!--link f1 to c1--><g class="link" data-entity-1="ent0004" data-entity-2="ent0005" data-link-type="dependency" data-source-line="15" id="lnk9"><path d="M87.82,159.89 C99.3,159.89 104.79,159.89 116.27,159.89" fill="none" id="f1-to-c1" style="stroke:#181818;stroke-width:1;"/><polygon fill="#181818" points="122.27,159.89,113.27,155.89,117.27,159.89,113.27,163.89,122.27,159.89" style="stroke:#181818;stroke-width:1;"/></g><!--link c1 to c2--><g class="link" data-entity-1="ent0005" data-entity-2="ent0006" data-link-type="dependency" data-source-line="16" id="lnk10"><path d="M190.98,159.89 C202.27,159.89 207.56,159.89 218.85,159.89" fill="none" id="c1-to-c2" style="stroke:#181818;stroke-width:1;"/><polygon fill="#181818" points="224.85,159.89,215.85,155.89,219.85,159.89,215.85,163.89,224.85,159.89" style="stroke:#181818;stroke-width:1;"/></g><?plantuml-src FOmn2i0W303tl2AuTuWFwDYn7oWTH0qA4g7Q_zSe548uxaAaXeZdM8IkeH282gC6hPdE0kSIaUU5EPJ9W2_r3UYNx2at6EEM_gl5wqzIUuhFAZU046wxFbSOn0GybIVm2-m7?></g></svg>