<svg xmlns="http://www.w3.org/2000/svg" xmlns:xlink="http://www.w3.org/1999/xlink" contentStyleType="text/css" data-diagram-type="DESCRIPTION" height="623px" preserveAspectRatio="none" style="width:760px;height:623px;background:#FFFFFF;" version="1.1" viewBox="0 0 760 623" width="760px" zoomAndPan="magnify"><?plantuml 1.2026.3beta5?><defs/><g><!--entity actor--><g class="entity" data-qualified-name="actor" data-source-line="6" id="ent0002"><ellipse cx="62.731" cy="32.5986" fill="#98FB98" rx="8" ry="8" style="stroke:#181818;stroke-width:0.5;"/><path d="M62.731,40.5986 L62.731,67.5986 M49.731,48.5986 L75.731,48.5986 M62.731,67.5986 L49.731,82.5986 M62.731,67.5986 L75.731,82.5986" fill="none" style="stroke:#181818;stroke-width:0.5;"/><text fill="#000000" font-family="sans-serif" font-size="14" lengthAdjust="spacing" textLength="36.0869" x="44.6875" y="97.0938">actor</text><text fill="#000000" font-family="sans-serif" font-size="14" font-style="italic" lengthAdjust="spacing" textLength="61.4619" x="32" y="20.7969">&#171;stereo&#187;</text></g><!--entity actor/--><g class="entity" data-qualified-name="actor." data-source-line="7" id="ent0003"><ellipse cx="160.731" cy="32.5986" fill="#98FB98" rx="8" ry="8" style="stroke:#181818;stroke-width:0.5;"/><line style="stroke:#181818;stroke-width:0.5;" x1="158.7871" x2="168.4912" y1="40.3589" y2="30.6548"/><path d="M160.731,40.5986 L160.731,67.5986 M147.731,48.5986 L173.731,48.5986 M160.731,67.5986 L147.731,82.5986 M160.731,67.5986 L173.731,82.5986" fill="none" style="stroke:#181818;stroke-width:0.5;"/><text fill="#000000" font-family="sans-serif" font-size="14" lengthAdjust="spacing" textLength="40.8037" x="140.3291" y="97.0938">actor/</text><text fill="#000000" font-family="sans-serif" font-size="14" font-style="italic" lengthAdjust="spacing" textLength="61.4619" x="130" y="20.7969">&#171;stereo&#187;</text></g><!--entity agent--><g class="entity" data-qualified-name="agent" data-source-line="8" id="ent0004"><rect fill="#98FB98" height="52.5938" rx="2.5" ry="2.5" style="stroke:#181818;stroke-width:0.5;" width="83.4619" x="227" y="27.8018"/><text fill="#000000" font-family="sans-serif" font-size="14" font-style="italic" lengthAdjust="spacing" textLength="61.4619" x="238" y="50.7969">&#171;stereo&#187;</text><text fill="#000000" font-family="sans-serif" font-size="14" lengthAdjust="spacing" textLength="40.4414" x="248.5103" y="67.0938">agent</text></g><!--entity artifact--><g class="entity" data-qualified-name="artifact" data-source-line="9" id="ent0005"><rect fill="#98FB98" height="55.5938" rx="2.5" ry="2.5" style="stroke:#181818;stroke-width:0.5;" width="93.4619" x="345" y="26.3018"/><polygon fill="#98FB98" points="421.4619,31.3018,421.4619,45.3018,433.4619,45.3018,433.4619,37.3018,427.4619,31.3018,421.4619,31.3018" style="stroke:#181818;stroke-width:0.5;"/><line style="stroke:#181818;stroke-width:0.5;" x1="427.4619" x2="427.4619" y1="31.3018" y2="37.3018"/><line style="stroke:#181818;stroke-width:0.5;" x1="433.4619" x2="427.4619" y1="37.3018" y2="37.3018"/><text fill="#000000" font-family="sans-serif" font-size="14" font-style="italic" lengthAdjust="spacing" textLength="61.4619" x="356" y="52.2969">&#171;stereo&#187;</text><text fill="#000000" font-family="sans-serif" font-size="14" lengthAdjust="spacing" textLength="50.4082" x="361.5269" y="68.5938">artifact</text></g><!--entity boundary--><g class="entity" data-qualified-name="boundary" data-source-line="10" id="ent0006"><path d="M486.2325,42.0986 L486.2325,66.0986 M486.2325,54.0986 L503.2325,54.0986" fill="none" style="stroke:#181818;stroke-width:0.5;"/><ellipse cx="515.2325" cy="54.0986" fill="#98FB98" rx="12" ry="12" style="stroke:#181818;stroke-width:0.5;"/><text fill="#000000" font-family="sans-serif" font-size="14" lengthAdjust="spacing" textLength="66.7051" x="473.38" y="83.0938">boundary</text><text fill="#000000" font-family="sans-serif" font-size="14" font-style="italic" lengthAdjust="spacing" textLength="61.4619" x="476.0016" y="34.7969">&#171;stereo&#187;</text></g><!--entity card--><g class="entity" data-qualified-name="card" data-source-line="11" id="ent0007"><rect fill="#98FB98" height="38.5938" rx="2.5" ry="2.5" style="stroke:#181818;stroke-width:0.5;" width="83.4619" x="575" y="34.8018"/><text fill="#000000" font-family="sans-serif" font-size="14" font-style="italic" lengthAdjust="spacing" textLength="61.4619" x="586" y="50.7969">&#171;stereo&#187;</text><text fill="#000000" font-family="sans-serif" font-size="14" lengthAdjust="spacing" textLength="30.9189" x="601.2715" y="67.0938">card</text></g><!--entity circle--><g class="entity" data-qualified-name="circle" data-source-line="12" id="ent0008"><ellipse cx="62.73" cy="192.7018" fill="#98FB98" rx="8" ry="8" style="stroke:#181818;stroke-width:0.5;"/><text fill="#000000" font-family="sans-serif" font-size="14" lengthAdjust="spacing" textLength="37.543" x="43.9585" y="222.6969">circle</text><text fill="#000000" font-family="sans-serif" font-size="14" font-style="italic" lengthAdjust="spacing" textLength="61.4619" x="31.999" y="172.4">&#171;stereo&#187;</text></g><!--entity cloud--><g class="entity" data-qualified-name="cloud" data-source-line="13" id="ent0009"><path d="M146.193,171.0433 C149.9491,164.2698 153.912,163.2427 159.548,169.0473 C162.6624,163.3305 167.9589,164.1024 170.9071,169.2215 C173.7241,161.9114 179.8382,161.7038 184.0176,167.899 C189.8552,161.1273 194.3053,163.7997 197.8081,170.3211 C201.9996,162.3266 206.3601,162.4714 211.7345,169.2024 C215.0466,163.9744 219.9356,164.2759 222.7477,169.7183 C229.5681,172.0709 231.9634,178.0115 225.5623,183.1372 C230.6596,184.4913 233.1549,188.1 229.1233,192.8136 C234.5956,198.8785 233.0626,204.024 225.3014,206.3534 C230.2224,209.5421 229.2139,214.5916 224.1732,216.6934 C221.5865,225.0177 214.3038,224.3392 209.6672,218.8453 C207.2318,226.3571 202.2035,227.0381 197.0689,221.4391 C194.3571,229.5666 190.3596,230.421 184.026,224.9002 C179.3567,228.6343 175.0745,227.1726 172.974,221.7872 C168.0966,227.4226 162.0455,226.134 159.1346,219.5584 C153.5561,224.9235 148.9292,224.2071 146.6416,216.4301 C142.4518,213.3581 141.0156,210.0876 146.0438,206.4627 C139.2754,203.127 139.0716,199.0793 144.8176,194.4646 C138.3796,189.6863 139.0392,185.3741 145.8776,181.6982 C140.4328,178.3032 141.359,174.134 146.193,171.0433" fill="#98FB98" style="stroke:#181818;stroke-width:0.5;"/><text fill="#000000" font-family="sans-serif" font-size="14" font-style="italic" lengthAdjust="spacing" textLength="61.4619" x="153" y="189.3969">&#171;stereo&#187;</text><text fill="#000000" font-family="sans-serif" font-size="14" lengthAdjust="spacing" textLength="37.9121" x="164.7749" y="205.6937">cloud</text></g><!--entity collections--><g class="entity" data-qualified-name="collections" data-source-line="14" id="ent0010"><rect fill="#98FB98" height="48.5938" rx="2.5" ry="2.5" style="stroke:#181818;stroke-width:0.5;" width="90.4639" x="269.5" y="170.4018"/><rect fill="#98FB98" height="48.5938" rx="2.5" ry="2.5" style="stroke:#181818;stroke-width:0.5;" width="90.4639" x="265.5" y="166.4018"/><text fill="#000000" font-family="sans-serif" font-size="14" font-style="italic" lengthAdjust="spacing" textLength="61.4619" x="280.001" y="187.3969">&#171;stereo&#187;</text><text fill="#000000" font-family="sans-serif" font-size="14" lengthAdjust="spacing" textLength="74.4639" x="273.5" y="203.6937">collections</text></g><!--entity component--><g class="entity" data-qualified-name="component" data-source-line="15" id="ent0011"><rect fill="#98FB98" height="62.5938" rx="2.5" ry="2.5" style="stroke:#181818;stroke-width:0.5;" width="119.2012" x="395.13" y="161.4018"/><rect fill="#98FB98" height="10" style="stroke:#181818;stroke-width:0.5;" width="15" x="494.3312" y="166.4018"/><rect fill="#98FB98" height="2" style="stroke:#181818;stroke-width:0.5;" width="4" x="492.3312" y="168.4018"/><rect fill="#98FB98" height="2" style="stroke:#181818;stroke-width:0.5;" width="4" x="492.3312" y="172.4018"/><text fill="#000000" font-family="sans-serif" font-size="14" font-style="italic" lengthAdjust="spacing" textLength="61.4619" x="418.9996" y="194.3969">&#171;stereo&#187;</text><text fill="#000000" font-family="sans-serif" font-size="14" lengthAdjust="spacing" textLength="79.2012" x="410.13" y="210.6937">component</text></g><!--entity control--><g class="entity" data-qualified-name="control" data-source-line="16" id="ent0012"><ellipse cx="580.731" cy="192.6986" fill="#98FB98" rx="12" ry="12" style="stroke:#181818;stroke-width:0.5;"/><polygon fill="#181818" points="576.731,180.6986,582.731,175.6986,580.731,180.6986,582.731,185.6986,576.731,180.6986" style="stroke:#181818;stroke-width:1;"/><text fill="#000000" font-family="sans-serif" font-size="14" lengthAdjust="spacing" textLength="48.8359" x="556.313" y="221.6937">control</text><text fill="#000000" font-family="sans-serif" font-size="14" font-style="italic" lengthAdjust="spacing" textLength="61.4619" x="550" y="173.3969">&#171;stereo&#187;</text></g><!--entity database--><g class="entity" data-qualified-name="database" data-source-line="17" id="ent0013"><path d="M647.28,171.9018 C647.28,161.9018 689.7336,161.9018 689.7336,161.9018 C689.7336,161.9018 732.1872,161.9018 732.1872,171.9018 L732.1872,213.4955 C732.1872,223.4955 689.7336,223.4955 689.7336,223.4955 C689.7336,223.4955 647.28,223.4955 647.28,213.4955 L647.28,171.9018" fill="#98FB98" style="stroke:#181818;stroke-width:0.5;"/><path d="M647.28,171.9018 C647.28,181.9018 689.7336,181.9018 689.7336,181.9018 C689.7336,181.9018 732.1872,181.9018 732.1872,171.9018" fill="none" style="stroke:#181818;stroke-width:0.5;"/><text fill="#000000" font-family="sans-serif" font-size="14" font-style="italic" lengthAdjust="spacing" textLength="61.4619" x="659.0027" y="198.8969">&#171;stereo&#187;</text><text fill="#000000" font-family="sans-serif" font-size="14" lengthAdjust="spacing" textLength="64.9072" x="657.28" y="215.1937">database</text></g><!--entity entity--><g class="entity" data-qualified-name="entity" data-source-line="18" id="ent0014"><ellipse cx="62.731" cy="320.2886" fill="#98FB98" rx="12" ry="12" style="stroke:#181818;stroke-width:0.5;"/><line style="stroke:#181818;stroke-width:0.5;" x1="50.731" x2="74.731" y1="334.2886" y2="334.2886"/><text fill="#000000" font-family="sans-serif" font-size="14" lengthAdjust="spacing" textLength="40.6396" x="42.4111" y="349.2837">entity</text><text fill="#000000" font-family="sans-serif" font-size="14" font-style="italic" lengthAdjust="spacing" textLength="61.4619" x="32" y="300.9869">&#171;stereo&#187;</text></g><!--entity file--><g class="entity" data-qualified-name="file" data-source-line="19" id="ent0015"><path d="M129,296.4918 L129,344.0855 A2.5,2.5 0 0 0 131.5,346.5855 L209.9619,346.5855 A2.5,2.5 0 0 0 212.4619,344.0855 L212.4619,303.9918 L202.4619,293.9918 L131.5,293.9918 A2.5,2.5 0 0 0 129,296.4918" fill="#98FB98" style="stroke:#181818;stroke-width:0.5;"/><path d="M202.4619,293.9918 L202.4619,301.4918 A2.5,2.5 0 0 0 204.9619,303.9918 L212.4619,303.9918" fill="#98FB98" style="stroke:#181818;stroke-width:0.5;"/><text fill="#000000" font-family="sans-serif" font-size="14" font-style="italic" lengthAdjust="spacing" textLength="61.4619" x="140" y="316.9869">&#171;stereo&#187;</text><text fill="#000000" font-family="sans-serif" font-size="14" lengthAdjust="spacing" textLength="21.3213" x="160.0703" y="333.2837">file</text></g><!--entity folder--><g class="entity" data-qualified-name="folder" data-source-line="20" id="ent0016"><path d="M249.5,284.9918 L290.5,284.9918 A3.75,3.75 0 0 1 293,287.4918 L300,305.9918 L337.9619,305.9918 A2.5,2.5 0 0 1 340.4619,308.4918 L340.4619,353.0855 A2.5,2.5 0 0 1 337.9619,355.5855 L249.5,355.5855 A2.5,2.5 0 0 1 247,353.0855 L247,287.4918 A2.5,2.5 0 0 1 249.5,284.9918" fill="#98FB98" style="stroke:#181818;stroke-width:0.5;"/><line style="stroke:#181818;stroke-width:0.5;" x1="247" x2="300" y1="305.9918" y2="305.9918"/><text fill="#000000" font-family="sans-serif" font-size="14" font-style="italic" lengthAdjust="spacing" textLength="61.4619" x="258" y="325.9869">&#171;stereo&#187;</text><text fill="#000000" font-family="sans-serif" font-size="14" lengthAdjust="spacing" textLength="40.6396" x="268.4111" y="342.2837">folder</text></g><!--entity frame--><g class="entity" data-qualified-name="frame" data-source-line="21" id="ent0017"><rect fill="#98FB98" height="62.5938" rx="2.5" ry="2.5" style="stroke:#181818;stroke-width:0.5;" width="103.4619" x="375" y="288.9918"/><path d="M409.4873,288.9918 L409.4873,293.9918 L402.4873,300.9918 L375,300.9918" fill="none" style="stroke:#181818;stroke-width:0.5;"/><text fill="#000000" font-family="sans-serif" font-size="14" font-style="italic" lengthAdjust="spacing" textLength="61.4619" x="391" y="321.9869">&#171;stereo&#187;</text><text fill="#000000" font-family="sans-serif" font-size="14" lengthAdjust="spacing" textLength="41.5146" x="400.9736" y="338.2837">frame</text></g><!--entity hexagon--><g class="entity" data-qualified-name="hexagon" data-source-line="22" id="ent0018"><polygon fill="#98FB98" points="640.19,320.2918,608.46,298.9918,545,298.9918,513.27,320.2918,545,341.5918,608.46,341.5918,640.19,320.2918" style="stroke:#181818;stroke-width:0.5;"/><text fill="#000000" font-family="sans-serif" font-size="14" font-style="italic" lengthAdjust="spacing" textLength="61.4619" x="546.001" y="316.9869">&#171;stereo&#187;</text><text fill="#000000" font-family="sans-serif" font-size="14" lengthAdjust="spacing" textLength="60.6758" x="546.394" y="333.2837">hexagon</text></g><!--entity interface--><g class="entity" data-qualified-name="interface" data-source-line="23" id="ent0019"><ellipse cx="713.73" cy="320.2918" fill="#98FB98" rx="8" ry="8" style="stroke:#181818;stroke-width:0.5;"/><text fill="#000000" font-family="sans-serif" font-size="14" lengthAdjust="spacing" textLength="62.4395" x="682.5103" y="350.2869">interface</text><text fill="#000000" font-family="sans-serif" font-size="14" font-style="italic" lengthAdjust="spacing" textLength="61.4619" x="682.999" y="299.99">&#171;stereo&#187;</text></g><!--entity label--><g class="entity" data-qualified-name="label" data-source-line="24" id="ent0020"><text fill="#000000" font-family="sans-serif" font-size="14" font-style="italic" lengthAdjust="spacing" textLength="61.4619" x="32" y="452.4969">&#171;stereo&#187;</text><text fill="#000000" font-family="sans-serif" font-size="14" lengthAdjust="spacing" textLength="33.8584" x="45.8018" y="468.7937">label</text></g><!--entity node--><g class="entity" data-qualified-name="node" data-source-line="25" id="ent0021"><polygon fill="#98FB98" points="139,434.5018,149,424.5018,242.4619,424.5018,242.4619,477.0955,232.4619,487.0955,139,487.0955,139,434.5018" style="stroke:#181818;stroke-width:0.5;"/><line style="stroke:#181818;stroke-width:0.5;" x1="232.4619" x2="242.4619" y1="434.5018" y2="424.5018"/><line style="stroke:#181818;stroke-width:0.5;" x1="139" x2="232.4619" y1="434.5018" y2="434.5018"/><line style="stroke:#181818;stroke-width:0.5;" x1="232.4619" x2="232.4619" y1="434.5018" y2="487.0955"/><text fill="#000000" font-family="sans-serif" font-size="14" font-style="italic" lengthAdjust="spacing" textLength="61.4619" x="155" y="457.4969">&#171;stereo&#187;</text><text fill="#000000" font-family="sans-serif" font-size="14" lengthAdjust="spacing" textLength="34.9385" x="168.2617" y="473.7937">node</text></g><!--entity package--><g class="entity" data-qualified-name="package" data-source-line="26" id="ent0022"><path d="M280.21,428.0018 L359.252,428.0018 A3.75,3.75 0 0 1 361.752,430.5018 L368.752,450.2986 L383.252,450.2986 A2.5,2.5 0 0 1 385.752,452.7986 L385.752,481.0955 A2.5,2.5 0 0 1 383.252,483.5955 L280.21,483.5955 A2.5,2.5 0 0 1 277.71,481.0955 L277.71,430.5018 A2.5,2.5 0 0 1 280.21,428.0018" fill="#98FB98" style="stroke:#181818;stroke-width:0.5;"/><line style="stroke:#181818;stroke-width:0.5;" x1="277.71" x2="368.752" y1="450.2986" y2="450.2986"/><text fill="#000000" font-family="sans-serif" font-size="14" font-weight="700" lengthAdjust="spacing" textLength="66.042" x="287.71" y="443.9969">package</text><text fill="#000000" font-family="sans-serif" font-size="14" font-style="italic" lengthAdjust="spacing" textLength="61.4619" x="288.71" y="470.2937">&#171;stereo&#187;</text></g><!--entity person--><g class="entity" data-qualified-name="person" data-source-line="27" id="ent0023"><ellipse cx="462.731" cy="429.5051" fill="#98FB98" rx="13.9133" ry="13.9133" style="stroke:#181818;stroke-width:0.5;"/><rect fill="#98FB98" height="52.5938" rx="13.9133" ry="13.9133" style="stroke:#181818;stroke-width:0.5;" width="83.4619" x="421" y="443.4184"/><text fill="#000000" font-family="sans-serif" font-size="14" font-style="italic" lengthAdjust="spacing" textLength="61.4619" x="432" y="466.4135">&#171;stereo&#187;</text><text fill="#000000" font-family="sans-serif" font-size="14" lengthAdjust="spacing" textLength="47.9883" x="438.7368" y="482.7104">person</text></g><!--entity queue--><g class="entity" data-qualified-name="queue" data-source-line="28" id="ent0024"><path d="M544,434.5018 L617.4619,434.5018 C622.4619,434.5018 622.4619,455.7986 622.4619,455.7986 C622.4619,455.7986 622.4619,477.0955 617.4619,477.0955 L544,477.0955 C539,477.0955 539,455.7986 539,455.7986 C539,455.7986 539,434.5018 544,434.5018" fill="#98FB98" style="stroke:#181818;stroke-width:0.5;"/><path d="M617.4619,434.5018 C612.4619,434.5018 612.4619,455.7986 612.4619,455.7986 C612.4619,477.0955 617.4619,477.0955 617.4619,477.0955" fill="none" style="stroke:#181818;stroke-width:0.5;"/><text fill="#000000" font-family="sans-serif" font-size="14" font-style="italic" lengthAdjust="spacing" textLength="61.4619" x="545" y="452.4969">&#171;stereo&#187;</text><text fill="#000000" font-family="sans-serif" font-size="14" lengthAdjust="spacing" textLength="43.8594" x="553.8013" y="468.7937">queue</text></g><!--entity rectangle--><g class="entity" data-qualified-name="rectangle" data-source-line="29" id="ent0025"><rect fill="#98FB98" height="52.5938" rx="2.5" ry="2.5" style="stroke:#181818;stroke-width:0.5;" width="86.3975" x="657.53" y="429.5018"/><text fill="#000000" font-family="sans-serif" font-size="14" font-style="italic" lengthAdjust="spacing" textLength="61.4619" x="669.9978" y="452.4969">&#171;stereo&#187;</text><text fill="#000000" font-family="sans-serif" font-size="14" lengthAdjust="spacing" textLength="66.3975" x="667.53" y="468.7937">rectangle</text></g><!--entity stack--><g class="entity" data-qualified-name="stack" data-source-line="30" id="ent0026"><rect fill="#98FB98" height="52.5938" rx="2.5" ry="2.5" style="stroke:none;stroke-width:0.5;" width="83.4619" x="21" y="556.0118"/><path d="M6,556.0118 L18.5,556.0118 A2.5,2.5 0 0 1 21,558.5118 L21,606.1055 A2.5,2.5 0 0 0 23.5,608.6055 L101.9619,608.6055 A2.5,2.5 0 0 0 104.4619,606.1055 L104.4619,558.5118 A2.5,2.5 0 0 1 106.9619,556.0118 L119.4619,556.0118" fill="none" style="stroke:#181818;stroke-width:0.5;"/><text fill="#000000" font-family="sans-serif" font-size="14" font-style="italic" lengthAdjust="spacing" textLength="61.4619" x="32" y="579.0069">&#171;stereo&#187;</text><text fill="#000000" font-family="sans-serif" font-size="14" lengthAdjust="spacing" textLength="37.167" x="44.1475" y="595.3037">stack</text></g><!--entity storage--><g class="entity" data-qualified-name="storage" data-source-line="31" id="ent0027"><rect fill="#98FB98" height="52.5938" rx="35" ry="35" style="stroke:#181818;stroke-width:0.5;" width="83.4619" x="154" y="556.0118"/><text fill="#000000" font-family="sans-serif" font-size="14" font-style="italic" lengthAdjust="spacing" textLength="61.4619" x="165" y="579.0069">&#171;stereo&#187;</text><text fill="#000000" font-family="sans-serif" font-size="14" lengthAdjust="spacing" textLength="53.1836" x="169.1392" y="595.3037">storage</text></g><!--entity usecase--><g class="entity" data-qualified-name="usecase" data-source-line="32" id="ent0028"><ellipse cx="318.7253" cy="582.3048" fill="#98FB98" rx="46.4253" ry="25.3031" style="stroke:#181818;stroke-width:0.5;"/><text fill="#000000" font-family="sans-serif" font-size="14" font-style="italic" lengthAdjust="spacing" textLength="61.4619" x="287.9944" y="579.3437">&#171;stereo&#187;</text><text fill="#000000" font-family="sans-serif" font-size="14" lengthAdjust="spacing" textLength="56.9639" x="290.2434" y="595.6406">usecase</text></g><!--entity usecase/--><g class="entity" data-qualified-name="usecase." data-source-line="33" id="ent0029"><ellipse cx="457.7338" cy="582.299" fill="#98FB98" rx="57.7738" ry="26.0473" style="stroke:#181818;stroke-width:0.5;"/><text fill="#000000" font-family="sans-serif" font-size="14" font-style="italic" lengthAdjust="spacing" textLength="61.4619" x="427.0029" y="576.9973">&#171;stereo&#187;</text><text fill="#000000" font-family="sans-serif" font-size="14" lengthAdjust="spacing" textLength="61.6807" x="426.8935" y="593.2941">usecase/</text><line style="stroke:#181818;stroke-width:0.5;" x1="510.9029" x2="478.0848" y1="573.2189" y2="606.037"/></g><?plantuml-src RP91ReGm34NtdCAQ0tGkW6RHdiG43usQYQaJf8wgths6952ZRlx_ohD3WjEd_0nqwrvI9Y66xmxW5Tt79Bp4yOq32ymOQ1AYsFrq_RKseCkAYlOzrFPR1LUu5B-Su4GnGr4B9Fkxji0U31xMqw0yOGy6EvGHDh7BNbmWg6PHu4LRDhM0Go2NFSS4V_Efw35pN2znf5D1pC81cXiuOiO14y4U3DRDV7v2DOFkNk-nYLtcC990DOi47zgogG7lz8KJHsXke8yQTGe4Hp850GSAKDI0o2F19cPvrYUbKuVc5f8aFK4rWpuNMWYA6Y0w5uoJ_eaZcOAKzLDGz0HOrYCqDt19vDQ1DFyFwjjkoRxkNm00?></g></svg>