<svg xmlns="http://www.w3.org/2000/svg" xmlns:xlink="http://www.w3.org/1999/xlink" contentStyleType="text/css" data-diagram-type="CLASS" height="81px" preserveAspectRatio="none" style="width:1699px;height:81px;background:#FFFFFF;" version="1.1" viewBox="0 0 1699 81" width="1699px" zoomAndPan="magnify"><?plantuml 1.2026.3beta5?><defs/><g><!--entity artifact--><g class="entity" data-qualified-name="artifact" data-source-line="79" id="ent0002"><rect fill="#EE1100" height="39.2969" rx="2.5" ry="2.5" style="stroke:#000000;stroke-width:1;" width="80.4082" x="7" y="13.5"/><polygon fill="#EE1100" points="70.4082,18.5,70.4082,32.5,82.4082,32.5,82.4082,24.5,76.4082,18.5,70.4082,18.5" style="stroke:#000000;stroke-width:1;"/><line style="stroke:#000000;stroke-width:1;" x1="76.4082" x2="76.4082" y1="18.5" y2="24.5"/><line style="stroke:#000000;stroke-width:1;" x1="82.4082" x2="76.4082" y1="24.5" y2="24.5"/><text fill="#000000" font-family="sans-serif" font-size="14" lengthAdjust="spacing" textLength="50.4082" x="17" y="39.4951">artifact</text></g><!--entity card--><g class="entity" data-qualified-name="card" data-source-line="81" id="ent0003"><rect fill="#FF3311" height="22.2969" rx="2.5" ry="2.5" style="stroke:#000000;stroke-width:1;" width="50.9189" x="122.74" y="22"/><text fill="#000000" font-family="sans-serif" font-size="14" lengthAdjust="spacing" textLength="30.9189" x="132.74" y="37.9951">card</text></g><!--entity cloud--><g class="entity" data-qualified-name="cloud" data-source-line="83" id="ent0004"><path d="M216.2639,18.3665 C219.9223,10.8583 225.6596,10.9873 230.2254,17.4604 C233.5303,10.6964 239.1584,9.6966 243.3275,16.6339 C247.2733,10.3578 252.336,12.0386 255.479,17.4673 C259.3759,10.889 266.0484,12.4025 269.0301,18.4496 C277.947,21.6524 280.3286,28.3416 272.8268,35.254 C277.4108,41.8587 277.2956,46.3145 268.4871,48.547 C267.0887,54.7414 261.7722,57.0415 257.2057,51.6253 C253.1234,59.1761 248.3199,59.6381 242.376,53.6669 C237.7248,58.6348 232.4716,56.8869 230.0005,51.1472 C225.509,56.8698 220.3548,56.8331 217.1974,49.8074 C207.9714,48.9605 204.9711,42.7286 210.2025,35.0357 C204.1282,26.5034 206.1278,21.0042 216.2639,18.3665" fill="#FF4422" style="stroke:#000000;stroke-width:1;"/><text fill="#000000" font-family="sans-serif" font-size="14" lengthAdjust="spacing" textLength="37.9121" x="223.25" y="37.9951">cloud</text></g><!--entity component--><g class="entity" data-qualified-name="component" data-source-line="85" id="ent0005"><rect fill="#FF6644" height="46.2969" rx="2.5" ry="2.5" style="stroke:#000000;stroke-width:1;" width="119.2012" x="311.6" y="10"/><rect fill="#FF6644" height="10" style="stroke:#000000;stroke-width:1;" width="15" x="410.8012" y="15"/><rect fill="#FF6644" height="2" style="stroke:#000000;stroke-width:1;" width="4" x="408.8012" y="17"/><rect fill="#FF6644" height="2" style="stroke:#000000;stroke-width:1;" width="4" x="408.8012" y="21"/><text fill="#000000" font-family="sans-serif" font-size="14" lengthAdjust="spacing" textLength="79.2012" x="326.6" y="42.9951">component</text></g><!--entity database--><g class="entity" data-qualified-name="database" data-source-line="87" id="ent0006"><path d="M465.75,20.5 C465.75,10.5 508.2036,10.5 508.2036,10.5 C508.2036,10.5 550.6572,10.5 550.6572,20.5 L550.6572,45.7969 C550.6572,55.7969 508.2036,55.7969 508.2036,55.7969 C508.2036,55.7969 465.75,55.7969 465.75,45.7969 L465.75,20.5" fill="#FF9933" style="stroke:#000000;stroke-width:1;"/><path d="M465.75,20.5 C465.75,30.5 508.2036,30.5 508.2036,30.5 C508.2036,30.5 550.6572,30.5 550.6572,20.5" fill="none" style="stroke:#000000;stroke-width:1;"/><text fill="#000000" font-family="sans-serif" font-size="14" lengthAdjust="spacing" textLength="64.9072" x="475.75" y="47.4951">database</text></g><!--entity file--><g class="entity" data-qualified-name="file" data-source-line="89" id="ent0007"><path d="M585.54,17.5 L585.54,48.7969 A2.5,2.5 0 0 0 588.04,51.2969 L624.3613,51.2969 A2.5,2.5 0 0 0 626.8613,48.7969 L626.8613,25 L616.8613,15 L588.04,15 A2.5,2.5 0 0 0 585.54,17.5" fill="#FEAE2D" style="stroke:#000000;stroke-width:1;"/><path d="M616.8613,15 L616.8613,22.5 A2.5,2.5 0 0 0 619.3613,25 L626.8613,25" fill="#FEAE2D" style="stroke:#000000;stroke-width:1;"/><text fill="#000000" font-family="sans-serif" font-size="14" lengthAdjust="spacing" textLength="21.3213" x="595.54" y="37.9951">file</text></g><!--entity folder--><g class="entity" data-qualified-name="folder" data-source-line="91" id="ent0008"><path d="M664.38,6 L705.38,6 A3.75,3.75 0 0 1 707.88,8.5 L714.88,27 L730.0196,27 A2.5,2.5 0 0 1 732.5196,29.5 L732.5196,57.7969 A2.5,2.5 0 0 1 730.0196,60.2969 L664.38,60.2969 A2.5,2.5 0 0 1 661.88,57.7969 L661.88,8.5 A2.5,2.5 0 0 1 664.38,6" fill="#CCBB33" style="stroke:#000000;stroke-width:1;"/><line style="stroke:#000000;stroke-width:1;" x1="661.88" x2="714.88" y1="27" y2="27"/><text fill="#000000" font-family="sans-serif" font-size="14" lengthAdjust="spacing" textLength="40.6396" x="671.88" y="46.9951">folder</text></g><!--entity frame--><g class="entity" data-qualified-name="frame" data-source-line="93" id="ent0009"><rect fill="#D0C310" height="46.2969" rx="2.5" ry="2.5" style="stroke:#000000;stroke-width:1;" width="81.5146" x="767.45" y="10"/><path d="M794.6215,10 L794.6215,15 L787.6215,22 L767.45,22" fill="none" style="stroke:#000000;stroke-width:1;"/><text fill="#000000" font-family="sans-serif" font-size="14" lengthAdjust="spacing" textLength="41.5146" x="782.45" y="42.9951">frame</text></g><!--entity hexagon--><g class="entity" data-qualified-name="hexagon" data-source-line="95" id="ent0010"><polygon fill="#AACC22" points="1004.88,33.15,974.54,20,913.87,20,883.53,33.15,913.87,46.3,974.54,46.3,1004.88,33.15" style="stroke:#000000;stroke-width:1;"/><text fill="#000000" font-family="sans-serif" font-size="14" lengthAdjust="spacing" textLength="60.6758" x="913.8679" y="37.9951">hexagon</text></g><!--entity node--><g class="entity" data-qualified-name="node" data-source-line="97" id="ent0011"><polygon fill="#22CCAA" points="1039.73,20,1049.73,10,1114.6685,10,1114.6685,46.2969,1104.6685,56.2969,1039.73,56.2969,1039.73,20" style="stroke:#000000;stroke-width:1;"/><line style="stroke:#000000;stroke-width:1;" x1="1104.6685" x2="1114.6685" y1="20" y2="10"/><line style="stroke:#000000;stroke-width:1;" x1="1039.73" x2="1104.6685" y1="20" y2="20"/><line style="stroke:#000000;stroke-width:1;" x1="1104.6685" x2="1104.6685" y1="20" y2="56.2969"/><text fill="#000000" font-family="sans-serif" font-size="14" lengthAdjust="spacing" textLength="34.9385" x="1054.73" y="42.9951">node</text></g><path d="M1151.68,6.85 L1218.722,6.85 A3.75,3.75 0 0 1 1221.222,9.35 L1228.222,29.1469 L1232.722,29.1469 A2.5,2.5 0 0 1 1235.222,31.6469 L1235.222,56.9437 A2.5,2.5 0 0 1 1232.722,59.4437 L1151.68,59.4437 A2.5,2.5 0 0 1 1149.18,56.9437 L1149.18,9.35 A2.5,2.5 0 0 1 1151.68,6.85" fill="#12BDB9" style="stroke:#000000;stroke-width:1;"/><line style="stroke:#000000;stroke-width:1;" x1="1149.18" x2="1228.222" y1="29.1469" y2="29.1469"/><text fill="#000000" font-family="sans-serif" font-size="14" font-weight="700" lengthAdjust="spacing" textLength="66.042" x="1153.18" y="21.8451">package</text><!--entity queue--><g class="entity" data-qualified-name="queue" data-source-line="101" id="ent0013"><path d="M1275.27,20 L1329.1294,20 C1334.1294,20 1334.1294,33.1484 1334.1294,33.1484 C1334.1294,33.1484 1334.1294,46.2969 1329.1294,46.2969 L1275.27,46.2969 C1270.27,46.2969 1270.27,33.1484 1270.27,33.1484 C1270.27,33.1484 1270.27,20 1275.27,20" fill="#11AABB" style="stroke:#000000;stroke-width:1;"/><path d="M1329.1294,20 C1324.1294,20 1324.1294,33.1484 1324.1294,33.1484 C1324.1294,46.2969 1329.1294,46.2969 1329.1294,46.2969" fill="none" style="stroke:#000000;stroke-width:1;"/><text fill="#000000" font-family="sans-serif" font-size="14" lengthAdjust="spacing" textLength="43.8594" x="1275.27" y="37.9951">queue</text></g><!--entity rectangle--><g class="entity" data-qualified-name="rectangle" data-source-line="103" id="ent0014"><rect fill="#4444DD" height="36.2969" rx="2.5" ry="2.5" style="stroke:#000000;stroke-width:1;" width="86.3975" x="1369.01" y="15"/><text fill="#000000" font-family="sans-serif" font-size="14" lengthAdjust="spacing" textLength="66.3975" x="1379.01" y="37.9951">rectangle</text></g><!--entity stack--><g class="entity" data-qualified-name="stack" data-source-line="105" id="ent0015"><rect fill="#3311BB" height="36.2969" rx="2.5" ry="2.5" style="stroke:none;stroke-width:1;" width="57.167" x="1505.62" y="15"/><path d="M1490.62,15 L1503.12,15 A2.5,2.5 0 0 1 1505.62,17.5 L1505.62,48.7969 A2.5,2.5 0 0 0 1508.12,51.2969 L1560.287,51.2969 A2.5,2.5 0 0 0 1562.787,48.7969 L1562.787,17.5 A2.5,2.5 0 0 1 1565.287,15 L1577.787,15" fill="none" style="stroke:#000000;stroke-width:1;"/><text fill="#000000" font-family="sans-serif" font-size="14" lengthAdjust="spacing" textLength="37.167" x="1515.62" y="37.9951">stack</text></g><!--entity storage--><g class="entity" data-qualified-name="storage" data-source-line="107" id="ent0016"><rect fill="#3B0CBD" height="36.2969" rx="35" ry="35" style="stroke:#000000;stroke-width:1;" width="73.1836" x="1612.61" y="15"/><text fill="#000000" font-family="sans-serif" font-size="14" lengthAdjust="spacing" textLength="53.1836" x="1622.61" y="37.9951">storage</text></g><?plantuml-src ZPJ1QeGm48RlFeNG1wXHMH2M7jf3Bpts1IQJqPND9jiaGalPTw-boHgAWV4ICFhnC___pz67BqrF5RWmZu2X_gxg-Xdm_EhiOjIBrTRL3qH2DCrwypORUZ_DU3RaVItYcx-lf5v_gsuLWbFxc77iEY6u66sN8gVlsvRBiPUhDMH2YNKuz3sJfI2014ybr31q7HCrphg48Q1MSJ5MAtBx84Gf-NeSN0g2L8ETuBf_ea-OhDad0I2oZJDM5GIrBI804tDT3vWA9D5A9GScwMEXfSGH058oEOumW9bA_lVhexZ--x2U-vpVhh4r-M1TSKgTR51o5LN7n_yx9LikSJt47P5QdhgUjpNlRTQyh8AnHB59zoxSAv52dQAzXNCBQOnPpDgMbYqroVVaVkvVxcJo8ZcopNIRxUq7?></g></svg>