<svg xmlns="http://www.w3.org/2000/svg" xmlns:xlink="http://www.w3.org/1999/xlink" contentStyleType="text/css" data-diagram-type="DESCRIPTION" height="133px" preserveAspectRatio="none" style="width:1548px;height:133px;background:#FFFFFF;" version="1.1" viewBox="0 0 1548 133" width="1548px" zoomAndPan="magnify"><?plantuml 1.2026.3beta5?><defs/><g><!--cluster e1--><g class="cluster" data-qualified-name="e1" data-source-line="78" id="ent0002"><rect fill="#EE1100" height="87.3" rx="2.5" ry="2.5" style="stroke:#000000;stroke-width:1;" width="74" x="7" y="21"/><polygon fill="#EE1100" points="64,26,64,40,76,40,76,32,70,26,64,26" style="stroke:#000000;stroke-width:1;"/><line style="stroke:#000000;stroke-width:1;" x1="70" x2="70" y1="26" y2="32"/><line style="stroke:#000000;stroke-width:1;" x1="76" x2="70" y1="32" y2="32"/><text fill="#000000" font-family="sans-serif" font-size="14" font-weight="700" lengthAdjust="spacing" textLength="58.3721" x="14.814" y="35.9951">artifact</text></g><!--cluster e2--><g class="cluster" data-qualified-name="e2" data-source-line="81" id="ent0004"><rect fill="#FF3311" height="87.3" rx="2.5" ry="2.5" style="stroke:#000000;stroke-width:1;" width="66" x="105" y="21"/><line style="stroke:#000000;stroke-width:1;" x1="105" x2="171" y1="41.2969" y2="41.2969"/><text fill="#000000" font-family="sans-serif" font-size="14" font-weight="700" lengthAdjust="spacing" textLength="34.6719" x="120.6641" y="35.9951">card</text></g><!--cluster e3--><g class="cluster" data-qualified-name="e3" data-source-line="84" id="ent0006"><path d="M204.3076,30.8177 C206.3006,24.4738 211.4783,21.9568 216.9353,26.9641 C219.3218,20.1293 222.9859,19.1323 228.5587,23.7226 C233.5878,17.7797 239.9226,19.2428 241.4688,27.0038 C245.5777,22.2016 251.1762,23.4453 253.2552,29.2576 C259.6394,31.9428 261.4484,37.5581 255.3534,42.2574 C260.9391,44.5055 262.2518,49.6716 257.2979,53.7093 C263.7477,55.5669 264.9974,60.8285 259.8645,65.2599 C265.4573,70.4406 264.955,74.8867 257.5391,77.6199 C261.8809,82.3904 260.5828,86.5034 255.0247,89.1068 C261.4998,93.6091 260.8847,97.4173 254.8901,101.7873 C250.424,109.0604 246.1768,109.457 241.2641,102.2063 C239.197,108.9208 233.3078,109.1874 229.1497,104.4107 C224.2889,109.2169 219.4857,109.0984 216.644,102.2451 C213.2771,107.4414 207.3262,106.9635 204.6305,101.4894 C198.3679,97.9999 199.2148,93.6308 204.0413,89.5921 C197.0294,86.4865 197.1734,81.8931 202.6259,77.3467 C197.2882,73.8244 197.3524,68.8775 203.2895,66.0156 C198.0907,62.5139 198.3797,57.6412 203.3053,54.1531 C198.1122,49.4594 198.0335,45.5551 204.5803,42.1037 C198.3576,39.1928 199.0002,34.0072 204.3076,30.8177" fill="#FF4422" style="stroke:#000000;stroke-width:1;"/><text fill="#000000" font-family="sans-serif" font-size="14" font-weight="700" lengthAdjust="spacing" textLength="42.7041" x="206.6479" y="46.9951">cloud</text></g><!--cluster e4--><g class="cluster" data-qualified-name="e4" data-source-line="87" id="ent0008"><rect fill="#FF6644" height="87.3" rx="2.5" ry="2.5" style="stroke:#000000;stroke-width:1;" width="104" x="285" y="21"/><rect fill="#FF6644" height="10" style="stroke:#000000;stroke-width:1;" width="15" x="369" y="26"/><rect fill="#FF6644" height="2" style="stroke:#000000;stroke-width:1;" width="4" x="367" y="28"/><rect fill="#FF6644" height="2" style="stroke:#000000;stroke-width:1;" width="4" x="367" y="32"/><text fill="#000000" font-family="sans-serif" font-size="14" font-weight="700" lengthAdjust="spacing" textLength="88.2656" x="292.8672" y="46.9951">component</text></g><!--cluster e5--><g class="cluster" data-qualified-name="e5" data-source-line="90" id="ent0010"><path d="M413,16 C413,6 457,6 457,6 C457,6 501,6 501,16 L501,98.3 C501,108.3 457,108.3 457,108.3 C457,108.3 413,108.3 413,98.3 L413,16" fill="#FF9933" style="stroke:#000000;stroke-width:1;"/><path d="M413,16 C413,26 457,26 457,26 C457,26 501,26 501,16" fill="none" style="stroke:#000000;stroke-width:1;"/><text fill="#000000" font-family="sans-serif" font-size="14" font-weight="700" lengthAdjust="spacing" textLength="72.9053" x="420.5474" y="40.9951">database</text></g><!--cluster e6--><g class="cluster" data-qualified-name="e6" data-source-line="93" id="ent0012"><path d="M525,23.5 L525,105.8 A2.5,2.5 0 0 0 527.5,108.3 L588.5,108.3 A2.5,2.5 0 0 0 591,105.8 L591,31 L581,21 L527.5,21 A2.5,2.5 0 0 0 525,23.5" fill="#FEAE2D" style="stroke:#000000;stroke-width:1;"/><path d="M581,21 L581,28.5 A2.5,2.5 0 0 0 583.5,31 L591,31" fill="#FEAE2D" style="stroke:#000000;stroke-width:1;"/><text fill="#000000" font-family="sans-serif" font-size="14" font-weight="700" lengthAdjust="spacing" textLength="25.1836" x="545.4082" y="35.9951">file</text></g><!--cluster e7--><g class="cluster" data-qualified-name="e7" data-source-line="96" id="ent0014"><path d="M617.5,21 L665.4287,21 A3.75,3.75 0 0 1 667.9287,23.5 L674.9287,43.2969 L678.5,43.2969 A2.5,2.5 0 0 1 681,45.7969 L681,105.8 A2.5,2.5 0 0 1 678.5,108.3 L617.5,108.3 A2.5,2.5 0 0 1 615,105.8 L615,23.5 A2.5,2.5 0 0 1 617.5,21" fill="#CCBB33" style="stroke:#000000;stroke-width:1;"/><line style="stroke:#000000;stroke-width:1;" x1="615" x2="674.9287" y1="43.2969" y2="43.2969"/><text fill="#000000" font-family="sans-serif" font-size="14" font-weight="700" lengthAdjust="spacing" textLength="46.9287" x="619" y="35.9951">folder</text></g><!--cluster e8--><g class="cluster" data-qualified-name="e8" data-source-line="99" id="ent0016"><rect fill="#D0C310" height="87.3" rx="2.5" ry="2.5" style="stroke:#000000;stroke-width:1;" width="66" x="705" y="21"/><path d="M761.5254,21 L761.5254,30.2969 L751.5254,40.2969 L705,40.2969" fill="none" style="stroke:#000000;stroke-width:1;"/><text fill="#000000" font-family="sans-serif" font-size="14" font-weight="700" lengthAdjust="spacing" textLength="46.5254" x="708" y="34.9951">frame</text></g><!--cluster e9--><g class="cluster" data-qualified-name="e9" data-source-line="102" id="ent0018"><path d="M795,64.65 L805.375,21 L867.625,21 L878,64.65 L867.625,108.3 L805.375,108.3 L795,64.65" fill="#AACC22" style="stroke:#000000;stroke-width:1;"/><text fill="#000000" font-family="sans-serif" font-size="14" font-weight="700" lengthAdjust="spacing" textLength="67.5459" x="802.7271" y="35.9951">hexagon</text></g><!--cluster e10--><g class="cluster" data-qualified-name="e10" data-source-line="105" id="ent0020"><polygon fill="#22CCAA" points="902,26,912,16,1017,16,1017,98.3,1007,108.3,902,108.3,902,26" style="stroke:#000000;stroke-width:1;"/><line style="stroke:#000000;stroke-width:1;" x1="1007" x2="1017" y1="26" y2="16"/><line style="stroke:#000000;stroke-width:1;" x1="902" x2="1007" y1="26" y2="26"/><line style="stroke:#000000;stroke-width:1;" x1="1007" x2="1007" y1="26" y2="108.3"/><text fill="#000000" font-family="sans-serif" font-size="14" font-weight="700" lengthAdjust="spacing" textLength="39.1016" x="935.9492" y="41.9951">node</text></g><!--cluster e11--><g class="cluster" data-qualified-name="e11" data-source-line="108" id="ent0022"><path d="M1043.5,21 L1110.542,21 A3.75,3.75 0 0 1 1113.042,23.5 L1120.042,43.2969 L1120.5,43.2969 A2.5,2.5 0 0 1 1123,45.7969 L1123,105.8 A2.5,2.5 0 0 1 1120.5,108.3 L1043.5,108.3 A2.5,2.5 0 0 1 1041,105.8 L1041,23.5 A2.5,2.5 0 0 1 1043.5,21" fill="#12BDB9" style="stroke:#000000;stroke-width:1;"/><line style="stroke:#000000;stroke-width:1;" x1="1041" x2="1120.042" y1="43.2969" y2="43.2969"/><text fill="#000000" font-family="sans-serif" font-size="14" font-weight="700" lengthAdjust="spacing" textLength="66.042" x="1045" y="35.9951">package</text></g><!--cluster e12--><g class="cluster" data-qualified-name="e12" data-source-line="111" id="ent0024"><path d="M1152,21 L1216,21 C1221,21 1221,64.65 1221,64.65 C1221,64.65 1221,108.3 1216,108.3 L1152,108.3 C1147,108.3 1147,64.65 1147,64.65 C1147,64.65 1147,21 1152,21" fill="#11AABB" style="stroke:#000000;stroke-width:1;"/><path d="M1216,21 C1211,21 1211,64.65 1211,64.65 C1211,108.3 1216,108.3 1216,108.3" fill="none" style="stroke:#000000;stroke-width:1;"/><text fill="#000000" font-family="sans-serif" font-size="14" font-weight="700" lengthAdjust="spacing" textLength="48.9453" x="1159.5273" y="35.9951">queue</text></g><!--cluster e13--><g class="cluster" data-qualified-name="e13" data-source-line="114" id="ent0026"><rect fill="#4444DD" height="87.3" rx="2.5" ry="2.5" style="stroke:#000000;stroke-width:1;" width="91" x="1245" y="21"/><text fill="#000000" font-family="sans-serif" font-size="14" font-weight="700" lengthAdjust="spacing" textLength="75.1201" x="1252.9399" y="35.9951">rectangle</text></g><!--cluster e14--><g class="cluster" data-qualified-name="e14" data-source-line="117" id="ent0028"><rect fill="#3311BB" height="87.3" rx="2.5" ry="2.5" style="stroke:none;stroke-width:1;" width="44" x="1375" y="21"/><path d="M1360,21 L1372.5,21 A2.5,2.5 0 0 1 1375,23.5 L1375,105.8 A2.5,2.5 0 0 0 1377.5,108.3 L1416.5,108.3 A2.5,2.5 0 0 0 1419,105.8 L1419,23.5 A2.5,2.5 0 0 1 1421.5,21 L1434,21" fill="none" style="stroke:#000000;stroke-width:1;"/><text fill="#000000" font-family="sans-serif" font-size="14" font-weight="700" lengthAdjust="spacing" textLength="42.082" x="1375.959" y="46.9951">stack</text></g><!--cluster e15--><g class="cluster" data-qualified-name="e15" data-source-line="120" id="ent0030"><rect fill="#3B0CBD" height="87.3" rx="35" ry="35" style="stroke:#000000;stroke-width:1;" width="76" x="1458" y="21"/><text fill="#000000" font-family="sans-serif" font-size="14" font-weight="700" lengthAdjust="spacing" textLength="60.5117" x="1465.7441" y="40.9951">storage</text></g><!--entity f1--><g class="entity" data-qualified-name="e1.f1" data-source-line="79" id="ent0003"><path d="M27.08,58.5 L27.08,89.7969 A2.5,2.5 0 0 0 29.58,92.2969 L58.4159,92.2969 A2.5,2.5 0 0 0 60.9159,89.7969 L60.9159,66 L50.9159,56 L29.58,56 A2.5,2.5 0 0 0 27.08,58.5" fill="#FEAE2D" style="stroke:#000000;stroke-width:1;"/><path d="M50.9159,56 L50.9159,63.5 A2.5,2.5 0 0 0 53.4159,66 L60.9159,66" fill="#FEAE2D" style="stroke:#000000;stroke-width:1;"/><text fill="#000000" font-family="sans-serif" font-size="14" lengthAdjust="spacing" textLength="13.8359" x="37.08" y="78.9951">f1</text></g><!--entity f2--><g class="entity" data-qualified-name="e2.f2" data-source-line="82" id="ent0005"><path d="M121.08,58.5 L121.08,89.7969 A2.5,2.5 0 0 0 123.58,92.2969 L152.4159,92.2969 A2.5,2.5 0 0 0 154.9159,89.7969 L154.9159,66 L144.9159,56 L123.58,56 A2.5,2.5 0 0 0 121.08,58.5" fill="#FEAE2D" style="stroke:#000000;stroke-width:1;"/><path d="M144.9159,56 L144.9159,63.5 A2.5,2.5 0 0 0 147.4159,66 L154.9159,66" fill="#FEAE2D" style="stroke:#000000;stroke-width:1;"/><text fill="#000000" font-family="sans-serif" font-size="14" lengthAdjust="spacing" textLength="13.8359" x="131.08" y="78.9951">f2</text></g><!--entity f3--><g class="entity" data-qualified-name="e3.f3" data-source-line="85" id="ent0007"><path d="M211.08,58.5 L211.08,89.7969 A2.5,2.5 0 0 0 213.58,92.2969 L242.4159,92.2969 A2.5,2.5 0 0 0 244.9159,89.7969 L244.9159,66 L234.9159,56 L213.58,56 A2.5,2.5 0 0 0 211.08,58.5" fill="#FEAE2D" style="stroke:#000000;stroke-width:1;"/><path d="M234.9159,56 L234.9159,63.5 A2.5,2.5 0 0 0 237.4159,66 L244.9159,66" fill="#FEAE2D" style="stroke:#000000;stroke-width:1;"/><text fill="#000000" font-family="sans-serif" font-size="14" lengthAdjust="spacing" textLength="13.8359" x="221.08" y="78.9951">f3</text></g><!--entity f4--><g class="entity" data-qualified-name="e4.f4" data-source-line="88" id="ent0009"><path d="M320.08,58.5 L320.08,89.7969 A2.5,2.5 0 0 0 322.58,92.2969 L351.4159,92.2969 A2.5,2.5 0 0 0 353.9159,89.7969 L353.9159,66 L343.9159,56 L322.58,56 A2.5,2.5 0 0 0 320.08,58.5" fill="#FEAE2D" style="stroke:#000000;stroke-width:1;"/><path d="M343.9159,56 L343.9159,63.5 A2.5,2.5 0 0 0 346.4159,66 L353.9159,66" fill="#FEAE2D" style="stroke:#000000;stroke-width:1;"/><text fill="#000000" font-family="sans-serif" font-size="14" lengthAdjust="spacing" textLength="13.8359" x="330.08" y="78.9951">f4</text></g><!--entity f5--><g class="entity" data-qualified-name="e5.f5" data-source-line="91" id="ent0011"><path d="M440.08,58.5 L440.08,89.7969 A2.5,2.5 0 0 0 442.58,92.2969 L471.4159,92.2969 A2.5,2.5 0 0 0 473.9159,89.7969 L473.9159,66 L463.9159,56 L442.58,56 A2.5,2.5 0 0 0 440.08,58.5" fill="#FEAE2D" style="stroke:#000000;stroke-width:1;"/><path d="M463.9159,56 L463.9159,63.5 A2.5,2.5 0 0 0 466.4159,66 L473.9159,66" fill="#FEAE2D" style="stroke:#000000;stroke-width:1;"/><text fill="#000000" font-family="sans-serif" font-size="14" lengthAdjust="spacing" textLength="13.8359" x="450.08" y="78.9951">f5</text></g><!--entity f6--><g class="entity" data-qualified-name="e6.f6" data-source-line="94" id="ent0013"><path d="M541.08,58.5 L541.08,89.7969 A2.5,2.5 0 0 0 543.58,92.2969 L572.4159,92.2969 A2.5,2.5 0 0 0 574.9159,89.7969 L574.9159,66 L564.9159,56 L543.58,56 A2.5,2.5 0 0 0 541.08,58.5" fill="#FEAE2D" style="stroke:#000000;stroke-width:1;"/><path d="M564.9159,56 L564.9159,63.5 A2.5,2.5 0 0 0 567.4159,66 L574.9159,66" fill="#FEAE2D" style="stroke:#000000;stroke-width:1;"/><text fill="#000000" font-family="sans-serif" font-size="14" lengthAdjust="spacing" textLength="13.8359" x="551.08" y="78.9951">f6</text></g><!--entity f7--><g class="entity" data-qualified-name="e7.f7" data-source-line="97" id="ent0015"><path d="M631.08,58.5 L631.08,89.7969 A2.5,2.5 0 0 0 633.58,92.2969 L662.4159,92.2969 A2.5,2.5 0 0 0 664.9159,89.7969 L664.9159,66 L654.9159,56 L633.58,56 A2.5,2.5 0 0 0 631.08,58.5" fill="#FEAE2D" style="stroke:#000000;stroke-width:1;"/><path d="M654.9159,56 L654.9159,63.5 A2.5,2.5 0 0 0 657.4159,66 L664.9159,66" fill="#FEAE2D" style="stroke:#000000;stroke-width:1;"/><text fill="#000000" font-family="sans-serif" font-size="14" lengthAdjust="spacing" textLength="13.8359" x="641.08" y="78.9951">f7</text></g><!--entity f8--><g class="entity" data-qualified-name="e8.f8" data-source-line="100" id="ent0017"><path d="M721.08,58.5 L721.08,89.7969 A2.5,2.5 0 0 0 723.58,92.2969 L752.4159,92.2969 A2.5,2.5 0 0 0 754.9159,89.7969 L754.9159,66 L744.9159,56 L723.58,56 A2.5,2.5 0 0 0 721.08,58.5" fill="#FEAE2D" style="stroke:#000000;stroke-width:1;"/><path d="M744.9159,56 L744.9159,63.5 A2.5,2.5 0 0 0 747.4159,66 L754.9159,66" fill="#FEAE2D" style="stroke:#000000;stroke-width:1;"/><text fill="#000000" font-family="sans-serif" font-size="14" lengthAdjust="spacing" textLength="13.8359" x="731.08" y="78.9951">f8</text></g><!--entity f9--><g class="entity" data-qualified-name="e9.f9" data-source-line="103" id="ent0019"><path d="M819.08,58.5 L819.08,89.7969 A2.5,2.5 0 0 0 821.58,92.2969 L850.4159,92.2969 A2.5,2.5 0 0 0 852.9159,89.7969 L852.9159,66 L842.9159,56 L821.58,56 A2.5,2.5 0 0 0 819.08,58.5" fill="#FEAE2D" style="stroke:#000000;stroke-width:1;"/><path d="M842.9159,56 L842.9159,63.5 A2.5,2.5 0 0 0 845.4159,66 L852.9159,66" fill="#FEAE2D" style="stroke:#000000;stroke-width:1;"/><text fill="#000000" font-family="sans-serif" font-size="14" lengthAdjust="spacing" textLength="13.8359" x="829.08" y="78.9951">f9</text></g><!--entity f10--><g class="entity" data-qualified-name="e10.f10" data-source-line="106" id="ent0021"><path d="M937.63,58.5 L937.63,89.7969 A2.5,2.5 0 0 0 940.13,92.2969 L977.8732,92.2969 A2.5,2.5 0 0 0 980.3732,89.7969 L980.3732,66 L970.3732,56 L940.13,56 A2.5,2.5 0 0 0 937.63,58.5" fill="#FEAE2D" style="stroke:#000000;stroke-width:1;"/><path d="M970.3732,56 L970.3732,63.5 A2.5,2.5 0 0 0 972.8732,66 L980.3732,66" fill="#FEAE2D" style="stroke:#000000;stroke-width:1;"/><text fill="#000000" font-family="sans-serif" font-size="14" lengthAdjust="spacing" textLength="22.7432" x="947.63" y="78.9951">f10</text></g><!--entity f11--><g class="entity" data-qualified-name="e11.f11" data-source-line="109" id="ent0023"><path d="M1060.63,58.5 L1060.63,89.7969 A2.5,2.5 0 0 0 1063.13,92.2969 L1100.8732,92.2969 A2.5,2.5 0 0 0 1103.3732,89.7969 L1103.3732,66 L1093.3732,56 L1063.13,56 A2.5,2.5 0 0 0 1060.63,58.5" fill="#FEAE2D" style="stroke:#000000;stroke-width:1;"/><path d="M1093.3732,56 L1093.3732,63.5 A2.5,2.5 0 0 0 1095.8732,66 L1103.3732,66" fill="#FEAE2D" style="stroke:#000000;stroke-width:1;"/><text fill="#000000" font-family="sans-serif" font-size="14" lengthAdjust="spacing" textLength="22.7432" x="1070.63" y="78.9951">f11</text></g><!--entity f12--><g class="entity" data-qualified-name="e12.f12" data-source-line="112" id="ent0025"><path d="M1162.63,58.5 L1162.63,89.7969 A2.5,2.5 0 0 0 1165.13,92.2969 L1202.8732,92.2969 A2.5,2.5 0 0 0 1205.3732,89.7969 L1205.3732,66 L1195.3732,56 L1165.13,56 A2.5,2.5 0 0 0 1162.63,58.5" fill="#FEAE2D" style="stroke:#000000;stroke-width:1;"/><path d="M1195.3732,56 L1195.3732,63.5 A2.5,2.5 0 0 0 1197.8732,66 L1205.3732,66" fill="#FEAE2D" style="stroke:#000000;stroke-width:1;"/><text fill="#000000" font-family="sans-serif" font-size="14" lengthAdjust="spacing" textLength="22.7432" x="1172.63" y="78.9951">f12</text></g><!--entity f13--><g class="entity" data-qualified-name="e13.f13" data-source-line="115" id="ent0027"><path d="M1268.63,58.5 L1268.63,89.7969 A2.5,2.5 0 0 0 1271.13,92.2969 L1308.8732,92.2969 A2.5,2.5 0 0 0 1311.3732,89.7969 L1311.3732,66 L1301.3732,56 L1271.13,56 A2.5,2.5 0 0 0 1268.63,58.5" fill="#FEAE2D" style="stroke:#000000;stroke-width:1;"/><path d="M1301.3732,56 L1301.3732,63.5 A2.5,2.5 0 0 0 1303.8732,66 L1311.3732,66" fill="#FEAE2D" style="stroke:#000000;stroke-width:1;"/><text fill="#000000" font-family="sans-serif" font-size="14" lengthAdjust="spacing" textLength="22.7432" x="1278.63" y="78.9951">f13</text></g><!--entity f14--><g class="entity" data-qualified-name="e14.f14" data-source-line="118" id="ent0029"><path d="M1375.63,58.5 L1375.63,89.7969 A2.5,2.5 0 0 0 1378.13,92.2969 L1415.8732,92.2969 A2.5,2.5 0 0 0 1418.3732,89.7969 L1418.3732,66 L1408.3732,56 L1378.13,56 A2.5,2.5 0 0 0 1375.63,58.5" fill="#FEAE2D" style="stroke:#000000;stroke-width:1;"/><path d="M1408.3732,56 L1408.3732,63.5 A2.5,2.5 0 0 0 1410.8732,66 L1418.3732,66" fill="#FEAE2D" style="stroke:#000000;stroke-width:1;"/><text fill="#000000" font-family="sans-serif" font-size="14" lengthAdjust="spacing" textLength="22.7432" x="1385.63" y="78.9951">f14</text></g><!--entity f15--><g class="entity" data-qualified-name="e15.f15" data-source-line="121" id="ent0031"><path d="M1474.63,58.5 L1474.63,89.7969 A2.5,2.5 0 0 0 1477.13,92.2969 L1514.8732,92.2969 A2.5,2.5 0 0 0 1517.3732,89.7969 L1517.3732,66 L1507.3732,56 L1477.13,56 A2.5,2.5 0 0 0 1474.63,58.5" fill="#FEAE2D" style="stroke:#000000;stroke-width:1;"/><path d="M1507.3732,56 L1507.3732,63.5 A2.5,2.5 0 0 0 1509.8732,66 L1517.3732,66" fill="#FEAE2D" style="stroke:#000000;stroke-width:1;"/><text fill="#000000" font-family="sans-serif" font-size="14" lengthAdjust="spacing" textLength="22.7432" x="1484.63" y="78.9951">f15</text></g><?plantuml-src ZPHBReCm48Rtd0Ar1oX-X0Gfwg9TTDDbBp2sXmI5u9I7rAhgtGisOAV2ajcOt_FnCnhF-DZrtpK-9z3sLGcoJt-ID7q1UNbhzT2eLrthDdr492JBniXxrU37kPAN1hik9VEEfKGzVfRy9X9QjMrJbemH4cjJwo7empcbiJxwUjCDDdt8AyyvZ_HIq8E03aDMHS5Of5LPrI4R1AGgraRN2jjj8oc5YC-dXMiW8PL9Hc9F_unVSDBDjXE0bD47rsWLI8XIAG4YRMxZ0gU04w52YIBIwNF08UH308I8z6bHzj2SGkVFnqV5dd_NZ-ksppHhqJbrlMw3LM8Yao8se-FJ_oi5IGfT-h3eX_4dfljBijmMI0qnlRieNIy1P3Oy2HTdTyEDt3BBXkEuFxYuCzYY7RLRPX9pGqplBfgxKSEzZHlbYFqwGtYmm2HS_E3D1XQ6cALZYgNhaMI6c8HNhinhv_56DiYiFOgihOh4rjKeZw1tJOZ4bdVTyKYsjXWIMs2ZF89xpODaDpD6UzHOtJy0?></g></svg>