<svg xmlns="http://www.w3.org/2000/svg" xmlns:xlink="http://www.w3.org/1999/xlink" contentStyleType="text/css" data-diagram-type="DESCRIPTION" height="637px" preserveAspectRatio="none" style="width:206px;height:637px;background:#FFFFFF;" version="1.1" viewBox="0 0 206 637" width="206px" zoomAndPan="magnify"><?plantuml 1.2026.3beta5?><defs/><g><!--entity  --><!--entity f10--><g class="entity" data-qualified-name="f10" data-source-line="5" id="ent0003"><ellipse cx="17.3716" cy="590.5659" fill="#F1F1F1" rx="8" ry="8" style="stroke:#181818;stroke-width:0.5;"/><text fill="#000000" font-family="sans-serif" font-size="14" lengthAdjust="spacing" textLength="22.7432" x="6" y="620.561">f10</text></g><!--entity b10--><g class="entity" data-qualified-name="b10" data-source-line="5" id="ent0004"><ellipse cx="178.3716" cy="590.5659" fill="#F1F1F1" rx="8" ry="8" style="stroke:#181818;stroke-width:0.5;"/><text fill="#000000" font-family="sans-serif" font-size="14" lengthAdjust="spacing" textLength="26.7012" x="165.021" y="620.561">b10</text></g><!--entity f9--><g class="entity" data-qualified-name="f9" data-source-line="6" id="ent0006"><ellipse cx="17.3716" cy="527.5659" fill="#F1F1F1" rx="8" ry="8" style="stroke:#181818;stroke-width:0.5;"/><text fill="#000000" font-family="sans-serif" font-size="14" lengthAdjust="spacing" textLength="13.8359" x="10.4536" y="557.561">f9</text></g><!--entity b9--><g class="entity" data-qualified-name="b9" data-source-line="6" id="ent0007"><ellipse cx="178.3716" cy="527.5659" fill="#F1F1F1" rx="8" ry="8" style="stroke:#181818;stroke-width:0.5;"/><text fill="#000000" font-family="sans-serif" font-size="14" lengthAdjust="spacing" textLength="17.7939" x="169.4746" y="557.561">b9</text></g><!--entity f8--><g class="entity" data-qualified-name="f8" data-source-line="7" id="ent0009"><ellipse cx="17.3716" cy="464.5659" fill="#F1F1F1" rx="8" ry="8" style="stroke:#181818;stroke-width:0.5;"/><text fill="#000000" font-family="sans-serif" font-size="14" lengthAdjust="spacing" textLength="13.8359" x="10.4536" y="494.561">f8</text></g><!--entity b8--><g class="entity" data-qualified-name="b8" data-source-line="7" id="ent0010"><ellipse cx="178.3716" cy="464.5659" fill="#F1F1F1" rx="8" ry="8" style="stroke:#181818;stroke-width:0.5;"/><text fill="#000000" font-family="sans-serif" font-size="14" lengthAdjust="spacing" textLength="17.7939" x="169.4746" y="494.561">b8</text></g><!--entity f7--><g class="entity" data-qualified-name="f7" data-source-line="8" id="ent0012"><ellipse cx="17.3716" cy="401.5659" fill="#F1F1F1" rx="8" ry="8" style="stroke:#181818;stroke-width:0.5;"/><text fill="#000000" font-family="sans-serif" font-size="14" lengthAdjust="spacing" textLength="13.8359" x="10.4536" y="431.561">f7</text></g><!--entity b7--><g class="entity" data-qualified-name="b7" data-source-line="8" id="ent0013"><ellipse cx="178.3716" cy="401.5659" fill="#F1F1F1" rx="8" ry="8" style="stroke:#181818;stroke-width:0.5;"/><text fill="#000000" font-family="sans-serif" font-size="14" lengthAdjust="spacing" textLength="17.7939" x="169.4746" y="431.561">b7</text></g><!--entity f6--><g class="entity" data-qualified-name="f6" data-source-line="9" id="ent0015"><ellipse cx="17.3716" cy="338.5659" fill="#F1F1F1" rx="8" ry="8" style="stroke:#181818;stroke-width:0.5;"/><text fill="#000000" font-family="sans-serif" font-size="14" lengthAdjust="spacing" textLength="13.8359" x="10.4536" y="368.561">f6</text></g><!--entity b6--><g class="entity" data-qualified-name="b6" data-source-line="9" id="ent0016"><ellipse cx="178.3716" cy="338.5659" fill="#F1F1F1" rx="8" ry="8" style="stroke:#181818;stroke-width:0.5;"/><text fill="#000000" font-family="sans-serif" font-size="14" lengthAdjust="spacing" textLength="17.7939" x="169.4746" y="368.561">b6</text></g><!--entity f5--><g class="entity" data-qualified-name="f5" data-source-line="10" id="ent0018"><ellipse cx="17.3716" cy="275.5659" fill="#F1F1F1" rx="8" ry="8" style="stroke:#181818;stroke-width:0.5;"/><text fill="#000000" font-family="sans-serif" font-size="14" lengthAdjust="spacing" textLength="13.8359" x="10.4536" y="305.561">f5</text></g><!--entity b5--><g class="entity" data-qualified-name="b5" data-source-line="10" id="ent0019"><ellipse cx="178.3716" cy="275.5659" fill="#F1F1F1" rx="8" ry="8" style="stroke:#181818;stroke-width:0.5;"/><text fill="#000000" font-family="sans-serif" font-size="14" lengthAdjust="spacing" textLength="17.7939" x="169.4746" y="305.561">b5</text></g><!--entity f4--><g class="entity" data-qualified-name="f4" data-source-line="11" id="ent0021"><ellipse cx="17.3716" cy="212.5659" fill="#F1F1F1" rx="8" ry="8" style="stroke:#181818;stroke-width:0.5;"/><text fill="#000000" font-family="sans-serif" font-size="14" lengthAdjust="spacing" textLength="13.8359" x="10.4536" y="242.561">f4</text></g><!--entity b4--><g class="entity" data-qualified-name="b4" data-source-line="11" id="ent0022"><ellipse cx="178.3716" cy="212.5659" fill="#F1F1F1" rx="8" ry="8" style="stroke:#181818;stroke-width:0.5;"/><text fill="#000000" font-family="sans-serif" font-size="14" lengthAdjust="spacing" textLength="17.7939" x="169.4746" y="242.561">b4</text></g><!--entity f3--><g class="entity" data-qualified-name="f3" data-source-line="12" id="ent0024"><ellipse cx="17.3716" cy="149.5659" fill="#F1F1F1" rx="8" ry="8" style="stroke:#181818;stroke-width:0.5;"/><text fill="#000000" font-family="sans-serif" font-size="14" lengthAdjust="spacing" textLength="13.8359" x="10.4536" y="179.561">f3</text></g><!--entity b3--><g class="entity" data-qualified-name="b3" data-source-line="12" id="ent0025"><ellipse cx="178.3716" cy="149.5659" fill="#F1F1F1" rx="8" ry="8" style="stroke:#181818;stroke-width:0.5;"/><text fill="#000000" font-family="sans-serif" font-size="14" lengthAdjust="spacing" textLength="17.7939" x="169.4746" y="179.561">b3</text></g><!--entity f2--><g class="entity" data-qualified-name="f2" data-source-line="13" id="ent0027"><ellipse cx="17.3716" cy="86.5659" fill="#F1F1F1" rx="8" ry="8" style="stroke:#181818;stroke-width:0.5;"/><text fill="#000000" font-family="sans-serif" font-size="14" lengthAdjust="spacing" textLength="13.8359" x="10.4536" y="116.561">f2</text></g><!--entity b2--><g class="entity" data-qualified-name="b2" data-source-line="13" id="ent0028"><ellipse cx="178.3716" cy="86.5659" fill="#F1F1F1" rx="8" ry="8" style="stroke:#181818;stroke-width:0.5;"/><text fill="#000000" font-family="sans-serif" font-size="14" lengthAdjust="spacing" textLength="17.7939" x="169.4746" y="116.561">b2</text></g><!--entity f1--><g class="entity" data-qualified-name="f1" data-source-line="14" id="ent0030"><ellipse cx="17.3716" cy="23.5659" fill="#F1F1F1" rx="8" ry="8" style="stroke:#181818;stroke-width:0.5;"/><text fill="#000000" font-family="sans-serif" font-size="14" lengthAdjust="spacing" textLength="13.8359" x="10.4536" y="53.561">f1</text></g><!--entity b1--><g class="entity" data-qualified-name="b1" data-source-line="14" id="ent0031"><ellipse cx="178.3716" cy="23.5659" fill="#F1F1F1" rx="8" ry="8" style="stroke:#181818;stroke-width:0.5;"/><text fill="#000000" font-family="sans-serif" font-size="14" lengthAdjust="spacing" textLength="17.7939" x="169.4746" y="53.561">b1</text></g><!--link f10 to b10--><g class="link" data-entity-1="ent0003" data-entity-2="ent0004" data-source-line="5" id="lnk5"><path d="M38.0416,590.5659 C64.8416,590.5659 130.1516,590.5659 157.4016,590.5659" fill="none" id="f10-b10" style="stroke:#181818;stroke-width:1;"/><ellipse cx="32.0416" cy="590.5659" fill="#FFFFFF" rx="6" ry="6" style="stroke:#181818;stroke-width:1.5;"/><ellipse cx="163.4016" cy="590.5659" fill="#FFFFFF" rx="6" ry="6" style="stroke:#181818;stroke-width:1.5;"/><text fill="#000000" font-family="sans-serif" font-size="13" lengthAdjust="spacing" textLength="25.9238" x="85.0039" y="586.6328">0--0</text></g><!--link f9 to b9--><g class="link" data-entity-1="ent0006" data-entity-2="ent0007" data-source-line="6" id="lnk8"><path d="M36.0416,527.5659 C62.8416,527.5659 132.1516,527.5659 159.4016,527.5659" fill="none" id="f9-b9" style="stroke:#181818;stroke-width:1;"/><path d="M29.1198,536.0232 A9,9 0 0 0 29.1198 519.1087" fill="none" style="stroke:#181818;stroke-width:1.5;"/><path d="M166.3234,519.1087 A9,9 0 0 0 166.3234 536.0232" fill="none" style="stroke:#181818;stroke-width:1.5;"/><text fill="#000000" font-family="sans-serif" font-size="13" lengthAdjust="spacing" textLength="19.5254" x="88.5039" y="523.6328">)--(</text></g><!--link f8 to b8--><g class="link" data-entity-1="ent0009" data-entity-2="ent0010" data-source-line="7" id="lnk11"><path d="M36.0416,464.5659 C62.8416,464.5659 132.1516,464.5659 159.4016,464.5659" fill="none" id="f8-b8" style="stroke:#181818;stroke-width:1;"/><ellipse cx="26.0416" cy="464.5659" fill="#FFFFFF" rx="6" ry="6" style="stroke:#181818;stroke-width:1.5;"/><path d="M33.1126,471.637 A10,10 0 0 0 33.1126 457.4949" fill="#FFFFFF" style="stroke:#181818;stroke-width:1.5;"/><ellipse cx="169.4016" cy="464.5659" fill="#FFFFFF" rx="6" ry="6" style="stroke:#181818;stroke-width:1.5;"/><path d="M162.3305,457.4949 A10,10 0 0 0 162.3305 471.637" fill="#FFFFFF" style="stroke:#181818;stroke-width:1.5;"/><text fill="#000000" font-family="sans-serif" font-size="13" lengthAdjust="spacing" textLength="36.0674" x="82.0039" y="460.6328">0)--(0</text></g><!--reverse link f7 to b7--><g class="link" data-entity-1="ent0012" data-entity-2="ent0013" data-source-line="8" id="lnk14"><path d="M36.0416,401.5659 C62.8416,401.5659 142.1516,401.5659 169.4016,401.5659" fill="none" id="f7-backto-b7" style="stroke:#181818;stroke-width:1;"/><ellipse cx="26.0416" cy="401.5659" fill="#FFFFFF" rx="6" ry="6" style="stroke:#181818;stroke-width:1.5;"/><path d="M33.1126,408.637 A10,10 0 0 0 33.1126 394.4949" fill="#FFFFFF" style="stroke:#181818;stroke-width:1.5;"/><text fill="#000000" font-family="sans-serif" font-size="13" lengthAdjust="spacing" textLength="22.7246" x="87.0039" y="397.6328">0)--</text></g><!--link f6 to b6--><g class="link" data-entity-1="ent0015" data-entity-2="ent0016" data-link-type="association" data-source-line="9" id="lnk17"><path d="M26.0416,338.5659 C52.8416,338.5659 142.1516,338.5659 169.4016,338.5659" fill="none" id="f6-b6" style="stroke:#181818;stroke-width:1;"/><text fill="#000000" font-family="sans-serif" font-size="13" lengthAdjust="spacing" textLength="22.7246" x="87.0039" y="327.6328">-0)-</text><path d="M104.6239,345.637 A10,10 0 0 0 104.6239 331.4949" fill="none" style="stroke:#181818;stroke-width:1.5;"/><ellipse cx="97.5528" cy="338.5659" fill="#FFFFFF" rx="6" ry="6" style="stroke:#181818;stroke-width:1.5;"/></g><!--link f5 to b5--><g class="link" data-entity-1="ent0018" data-entity-2="ent0019" data-link-type="association" data-source-line="10" id="lnk20"><path d="M26.0416,275.5659 C52.8416,275.5659 142.1516,275.5659 169.4016,275.5659" fill="none" id="f5-b5" style="stroke:#181818;stroke-width:1;"/><text fill="#000000" font-family="sans-serif" font-size="13" lengthAdjust="spacing" textLength="27.7964" x="86.5039" y="264.6328">-(0)-</text><ellipse cx="97.5528" cy="275.5659" fill="#FFFFFF" rx="10" ry="10" style="stroke:#FFFFFF;stroke-width:1;"/><path d="M104.6239,282.637 A10,10 0 0 0 104.6239 268.4949" fill="none" style="stroke:#181818;stroke-width:1.5;"/><path d="M90.4818,268.4949 A10,10 0 0 0 90.4818 282.637" fill="none" style="stroke:#181818;stroke-width:1.5;"/><ellipse cx="97.5528" cy="275.5659" fill="#FFFFFF" rx="6" ry="6" style="stroke:#181818;stroke-width:1.5;"/></g><!--link f4 to b4--><g class="link" data-entity-1="ent0021" data-entity-2="ent0022" data-link-type="association" data-source-line="11" id="lnk23"><path d="M26.0416,212.5659 C52.8416,212.5659 142.1516,212.5659 169.4016,212.5659" fill="none" id="f4-b4" style="stroke:#181818;stroke-width:1;"/><text fill="#000000" font-family="sans-serif" font-size="13" lengthAdjust="spacing" textLength="22.7246" x="87.0039" y="201.6328">-(0-</text><path d="M90.4818,205.4949 A10,10 0 0 0 90.4818 219.637" fill="none" style="stroke:#181818;stroke-width:1.5;"/><ellipse cx="97.5528" cy="212.5659" fill="#FFFFFF" rx="6" ry="6" style="stroke:#181818;stroke-width:1.5;"/></g><!--link f3 to b3--><g class="link" data-entity-1="ent0024" data-entity-2="ent0025" data-source-line="12" id="lnk26"><path d="M26.0416,149.5659 C52.8416,149.5659 132.1516,149.5659 159.4016,149.5659" fill="none" id="f3-to-b3" style="stroke:#181818;stroke-width:1;"/><ellipse cx="169.4016" cy="149.5659" fill="#FFFFFF" rx="6" ry="6" style="stroke:#181818;stroke-width:1.5;"/><path d="M162.3305,142.4949 A10,10 0 0 0 162.3305 156.637" fill="#FFFFFF" style="stroke:#181818;stroke-width:1.5;"/><text fill="#000000" font-family="sans-serif" font-size="13" lengthAdjust="spacing" textLength="22.7246" x="87.0039" y="145.6328">--(0</text></g><!--link f2 to b2--><g class="link" data-entity-1="ent0027" data-entity-2="ent0028" data-source-line="13" id="lnk29"><path d="M26.0416,86.5659 C52.8416,86.5659 132.1516,86.5659 159.4016,86.5659" fill="none" id="f2-to-b2" style="stroke:#181818;stroke-width:1;"/><path d="M166.3234,78.1087 A9,9 0 0 0 166.3234 95.0232" fill="none" style="stroke:#181818;stroke-width:1.5;"/><text fill="#000000" font-family="sans-serif" font-size="13" lengthAdjust="spacing" textLength="14.4536" x="89.0039" y="82.6328">--(</text></g><!--link f1 to b1--><g class="link" data-entity-1="ent0030" data-entity-2="ent0031" data-source-line="14" id="lnk32"><path d="M26.0416,23.5659 C52.8416,23.5659 130.1516,23.5659 157.4016,23.5659" fill="none" id="f1-to-b1" style="stroke:#181818;stroke-width:1;"/><ellipse cx="163.4016" cy="23.5659" fill="#FFFFFF" rx="6" ry="6" style="stroke:#181818;stroke-width:1.5;"/><text fill="#000000" font-family="sans-serif" font-size="13" lengthAdjust="spacing" textLength="17.6528" x="87.0039" y="19.6328">--0</text></g><?plantuml-src HSzB3eCm30JGVKunogfTH0f_w6r82MrK2YZa_gfjeEncz3IIFVan8Is8uVLE64BqpnIMMMsVCAzzxB-Oby5lVaMbfjxv2HfQgJ6piCPOE0eFQBqthTNOuMxC3N0TTf7Aqi9ofb5xRAGoDP9frE0Y6TKmb4dgGwIoLA0nPLUTmfMbvCYRyf9zKq0EW2jEuSgIGww6oo-1I0P-ZIJxYsNv0G00?></g></svg>