<svg xmlns="http://www.w3.org/2000/svg" xmlns:xlink="http://www.w3.org/1999/xlink" contentStyleType="text/css" data-diagram-type="DESCRIPTION" height="243px" preserveAspectRatio="none" style="width:952px;height:243px;background:#FFFFFF;" version="1.1" viewBox="0 0 952 243" width="952px" zoomAndPan="magnify"><?plantuml 1.2026.3beta5?><defs/><g><!--cluster A--><g class="cluster" data-qualified-name="A" data-source-line="3" id="ent0004"><path d="M8.5,6 L20.335,6 A3.75,3.75 0 0 1 22.835,8.5 L29.835,28.2969 L400.5,28.2969 A2.5,2.5 0 0 1 403,30.7969 L403,226.09 A2.5,2.5 0 0 1 400.5,228.59 L8.5,228.59 A2.5,2.5 0 0 1 6,226.09 L6,8.5 A2.5,2.5 0 0 1 8.5,6" fill="none" style="stroke:#000000;stroke-width:1.5;"/><line style="stroke:#000000;stroke-width:1.5;" x1="6" x2="29.835" y1="28.2969" y2="28.2969"/><text fill="#000000" font-family="sans-serif" font-size="14" font-weight="700" lengthAdjust="spacing" textLength="10.835" x="10" y="20.9951">A</text></g><!--cluster sub_a--><g class="cluster" data-qualified-name="A.sub_a" data-source-line="9" id="ent0010"><path d="M32.5,49 L78.2686,49 A3.75,3.75 0 0 1 80.7686,51.5 L87.7686,71.2969 L183.5,71.2969 A2.5,2.5 0 0 1 186,73.7969 L186,202.09 A2.5,2.5 0 0 1 183.5,204.59 L32.5,204.59 A2.5,2.5 0 0 1 30,202.09 L30,51.5 A2.5,2.5 0 0 1 32.5,49" fill="none" style="stroke:#000000;stroke-width:1.5;"/><line style="stroke:#000000;stroke-width:1.5;" x1="30" x2="87.7686" y1="71.2969" y2="71.2969"/><text fill="#000000" font-family="sans-serif" font-size="14" font-weight="700" lengthAdjust="spacing" textLength="44.7686" x="34" y="63.9951">sub_a</text></g><!--cluster B--><g class="cluster" data-qualified-name="B" data-source-line="16" id="ent0014"><path d="M429.5,6 L441.1709,6 A3.75,3.75 0 0 1 443.6709,8.5 L450.6709,28.2969 L824.5,28.2969 A2.5,2.5 0 0 1 827,30.7969 L827,226.09 A2.5,2.5 0 0 1 824.5,228.59 L429.5,228.59 A2.5,2.5 0 0 1 427,226.09 L427,8.5 A2.5,2.5 0 0 1 429.5,6" fill="none" style="stroke:#000000;stroke-width:1.5;"/><line style="stroke:#000000;stroke-width:1.5;" x1="427" x2="450.6709" y1="28.2969" y2="28.2969"/><text fill="#000000" font-family="sans-serif" font-size="14" font-weight="700" lengthAdjust="spacing" textLength="10.6709" x="431" y="20.9951">B</text></g><!--cluster sub_b--><g class="cluster" data-qualified-name="B.sub_b" data-source-line="22" id="ent0020"><path d="M453.5,49 L499.8428,49 A3.75,3.75 0 0 1 502.3428,51.5 L509.3428,71.2969 L606.5,71.2969 A2.5,2.5 0 0 1 609,73.7969 L609,202.09 A2.5,2.5 0 0 1 606.5,204.59 L453.5,204.59 A2.5,2.5 0 0 1 451,202.09 L451,51.5 A2.5,2.5 0 0 1 453.5,49" fill="none" style="stroke:#000000;stroke-width:1.5;"/><line style="stroke:#000000;stroke-width:1.5;" x1="451" x2="509.3428" y1="71.2969" y2="71.2969"/><text fill="#000000" font-family="sans-serif" font-size="14" font-weight="700" lengthAdjust="spacing" textLength="45.3428" x="455" y="63.9951">sub_b</text></g><!--entity a1--><g class="entity" data-qualified-name="A.a1" data-source-line="4" id="ent0005"><rect fill="#F1F1F1" height="22.2969" rx="2.5" ry="2.5" style="stroke:#181818;stroke-width:0.5;" width="37.4863" x="205.26" y="84"/><text fill="#000000" font-family="sans-serif" font-size="14" lengthAdjust="spacing" textLength="17.4863" x="215.26" y="99.9951">a1</text></g><!--entity a2--><g class="entity" data-qualified-name="A.a2" data-source-line="5" id="ent0006"><rect fill="#F1F1F1" height="22.2969" rx="2.5" ry="2.5" style="stroke:#181818;stroke-width:0.5;" width="37.4863" x="277.26" y="84"/><text fill="#000000" font-family="sans-serif" font-size="14" lengthAdjust="spacing" textLength="17.4863" x="287.26" y="99.9951">a2</text></g><!--entity a3--><g class="entity" data-qualified-name="A.a3" data-source-line="6" id="ent0007"><rect fill="#F1F1F1" height="22.2969" rx="2.5" ry="2.5" style="stroke:#181818;stroke-width:0.5;" width="37.4863" x="349.26" y="84"/><text fill="#000000" font-family="sans-serif" font-size="14" lengthAdjust="spacing" textLength="17.4863" x="359.26" y="99.9951">a3</text></g><!--entity a4--><g class="entity" data-qualified-name="A.a4" data-source-line="7" id="ent0008"><rect fill="#F1F1F1" height="22.2969" rx="2.5" ry="2.5" style="stroke:#181818;stroke-width:0.5;" width="37.4863" x="205.26" y="166.29"/><text fill="#000000" font-family="sans-serif" font-size="14" lengthAdjust="spacing" textLength="17.4863" x="215.26" y="182.2851">a4</text></g><!--entity a5--><g class="entity" data-qualified-name="A.a5" data-source-line="8" id="ent0009"><rect fill="#F1F1F1" height="22.2969" rx="2.5" ry="2.5" style="stroke:#181818;stroke-width:0.5;" width="37.4863" x="277.26" y="166.29"/><text fill="#000000" font-family="sans-serif" font-size="14" lengthAdjust="spacing" textLength="17.4863" x="287.26" y="182.2851">a5</text></g><!--entity sa1--><g class="entity" data-qualified-name="A.sub_a.sa1" data-source-line="10" id="ent0011"><rect fill="#F1F1F1" height="22.2969" rx="2.5" ry="2.5" style="stroke:#181818;stroke-width:0.5;" width="44.7803" x="45.61" y="84"/><text fill="#000000" font-family="sans-serif" font-size="14" lengthAdjust="spacing" textLength="24.7803" x="55.61" y="99.9951">sa1</text></g><!--entity sa2--><g class="entity" data-qualified-name="A.sub_a.sa2" data-source-line="11" id="ent0012"><rect fill="#F1F1F1" height="22.2969" rx="2.5" ry="2.5" style="stroke:#181818;stroke-width:0.5;" width="44.7803" x="125.61" y="84"/><text fill="#000000" font-family="sans-serif" font-size="14" lengthAdjust="spacing" textLength="24.7803" x="135.61" y="99.9951">sa2</text></g><!--entity sa3--><g class="entity" data-qualified-name="A.sub_a.sa3" data-source-line="12" id="ent0013"><rect fill="#F1F1F1" height="22.2969" rx="2.5" ry="2.5" style="stroke:#181818;stroke-width:0.5;" width="44.7803" x="45.61" y="166.29"/><text fill="#000000" font-family="sans-serif" font-size="14" lengthAdjust="spacing" textLength="24.7803" x="55.61" y="182.2851">sa3</text></g><!--entity b1--><g class="entity" data-qualified-name="B.b1" data-source-line="17" id="ent0015"><rect fill="#F1F1F1" height="22.2969" rx="2.5" ry="2.5" style="stroke:#181818;stroke-width:0.5;" width="37.7939" x="627.1" y="84"/><text fill="#000000" font-family="sans-serif" font-size="14" lengthAdjust="spacing" textLength="17.7939" x="637.1" y="99.9951">b1</text></g><!--entity b2--><g class="entity" data-qualified-name="B.b2" data-source-line="18" id="ent0016"><rect fill="#F1F1F1" height="22.2969" rx="2.5" ry="2.5" style="stroke:#181818;stroke-width:0.5;" width="37.7939" x="700.1" y="84"/><text fill="#000000" font-family="sans-serif" font-size="14" lengthAdjust="spacing" textLength="17.7939" x="710.1" y="99.9951">b2</text></g><!--entity b3--><g class="entity" data-qualified-name="B.b3" data-source-line="19" id="ent0017"><rect fill="#F1F1F1" height="22.2969" rx="2.5" ry="2.5" style="stroke:#181818;stroke-width:0.5;" width="37.7939" x="773.1" y="84"/><text fill="#000000" font-family="sans-serif" font-size="14" lengthAdjust="spacing" textLength="17.7939" x="783.1" y="99.9951">b3</text></g><!--entity b4--><g class="entity" data-qualified-name="B.b4" data-source-line="20" id="ent0018"><rect fill="#F1F1F1" height="22.2969" rx="2.5" ry="2.5" style="stroke:#181818;stroke-width:0.5;" width="37.7939" x="627.1" y="166.29"/><text fill="#000000" font-family="sans-serif" font-size="14" lengthAdjust="spacing" textLength="17.7939" x="637.1" y="182.2851">b4</text></g><!--entity b5--><g class="entity" data-qualified-name="B.b5" data-source-line="21" id="ent0019"><rect fill="#F1F1F1" height="22.2969" rx="2.5" ry="2.5" style="stroke:#181818;stroke-width:0.5;" width="37.7939" x="700.1" y="166.29"/><text fill="#000000" font-family="sans-serif" font-size="14" lengthAdjust="spacing" textLength="17.7939" x="710.1" y="182.2851">b5</text></g><!--entity sb1--><g class="entity" data-qualified-name="B.sub_b.sb1" data-source-line="23" id="ent0021"><rect fill="#F1F1F1" height="22.2969" rx="2.5" ry="2.5" style="stroke:#181818;stroke-width:0.5;" width="45.0879" x="467.46" y="84"/><text fill="#000000" font-family="sans-serif" font-size="14" lengthAdjust="spacing" textLength="25.0879" x="477.46" y="99.9951">sb1</text></g><!--entity sb2--><g class="entity" data-qualified-name="B.sub_b.sb2" data-source-line="24" id="ent0022"><rect fill="#F1F1F1" height="22.2969" rx="2.5" ry="2.5" style="stroke:#181818;stroke-width:0.5;" width="45.0879" x="547.46" y="84"/><text fill="#000000" font-family="sans-serif" font-size="14" lengthAdjust="spacing" textLength="25.0879" x="557.46" y="99.9951">sb2</text></g><!--entity sb3--><g class="entity" data-qualified-name="B.sub_b.sb3" data-source-line="25" id="ent0023"><rect fill="#F1F1F1" height="22.2969" rx="2.5" ry="2.5" style="stroke:#181818;stroke-width:0.5;" width="45.0879" x="467.46" y="166.29"/><text fill="#000000" font-family="sans-serif" font-size="14" lengthAdjust="spacing" textLength="25.0879" x="477.46" y="182.2851">sb3</text></g><!--entity a--><g class="entity" data-qualified-name="a" data-source-line="1" id="ent0002"><rect fill="#F1F1F1" height="22.2969" rx="2.5" ry="2.5" style="stroke:#181818;stroke-width:0.5;" width="28.5791" x="845.71" y="84"/><text fill="#000000" font-family="sans-serif" font-size="14" lengthAdjust="spacing" textLength="8.5791" x="855.71" y="99.9951">a</text></g><!--entity b--><g class="entity" data-qualified-name="b" data-source-line="2" id="ent0003"><rect fill="#F1F1F1" height="22.2969" rx="2.5" ry="2.5" style="stroke:#181818;stroke-width:0.5;" width="28.8867" x="909.56" y="84"/><text fill="#000000" font-family="sans-serif" font-size="14" lengthAdjust="spacing" textLength="8.8867" x="919.56" y="99.9951">b</text></g><?plantuml-src NSsn3O0W48NXdYbk1L47q4NCFJGMDaPYPTXTG7aI6_XpXFkS7hEeSUc2sTLjkYuoo6L4yb0RbcMrh8xLnoh__Ob9yuxdqUSjfMtLQLCm8Px4nmy7SH07SH377qUDey9HuNZn6m00?></g></svg>