<svg xmlns="http://www.w3.org/2000/svg" xmlns:xlink="http://www.w3.org/1999/xlink" contentStyleType="text/css" data-diagram-type="DESCRIPTION" height="823px" preserveAspectRatio="none" style="width:251px;height:823px;background:#FFFFFF;" version="1.1" viewBox="0 0 251 823" width="251px" zoomAndPan="magnify"><?plantuml 1.2026.3beta5?><defs/><g><!--cluster A--><g class="cluster" data-qualified-name="A" data-source-line="4" id="ent0004"><path d="M8.65,467.15 L20.485,467.15 A3.75,3.75 0 0 1 22.985,469.65 L29.985,489.4469 L233.52,489.4469 A2.5,2.5 0 0 1 236.02,491.9469 L236.02,805.65 A2.5,2.5 0 0 1 233.52,808.15 L8.65,808.15 A2.5,2.5 0 0 1 6.15,805.65 L6.15,469.65 A2.5,2.5 0 0 1 8.65,467.15" fill="none" style="stroke:#000000;stroke-width:1.5;"/><line style="stroke:#000000;stroke-width:1.5;" x1="6.15" x2="29.985" y1="489.4469" y2="489.4469"/><text fill="#000000" font-family="sans-serif" font-size="14" font-weight="700" lengthAdjust="spacing" textLength="10.835" x="10.15" y="482.1451">A</text></g><!--cluster sub_a--><g class="cluster" data-qualified-name="A.sub_a" data-source-line="10" id="ent0010"><path d="M32.65,654.15 L78.4186,654.15 A3.75,3.75 0 0 1 80.9186,656.65 L87.9186,676.4469 L209.52,676.4469 A2.5,2.5 0 0 1 212.02,678.9469 L212.02,781.65 A2.5,2.5 0 0 1 209.52,784.15 L32.65,784.15 A2.5,2.5 0 0 1 30.15,781.65 L30.15,656.65 A2.5,2.5 0 0 1 32.65,654.15" fill="none" style="stroke:#000000;stroke-width:1.5;"/><line style="stroke:#000000;stroke-width:1.5;" x1="30.15" x2="87.9186" y1="676.4469" y2="676.4469"/><text fill="#000000" font-family="sans-serif" font-size="14" font-weight="700" lengthAdjust="spacing" textLength="44.7686" x="34.15" y="669.1451">sub_a</text></g><!--cluster B--><g class="cluster" data-qualified-name="B" data-source-line="17" id="ent0014"><path d="M8.5,102.15 L20.1709,102.15 A3.75,3.75 0 0 1 22.6709,104.65 L29.6709,124.4469 L233.68,124.4469 A2.5,2.5 0 0 1 236.18,126.9469 L236.18,440.65 A2.5,2.5 0 0 1 233.68,443.15 L8.5,443.15 A2.5,2.5 0 0 1 6,440.65 L6,104.65 A2.5,2.5 0 0 1 8.5,102.15" fill="none" style="stroke:#000000;stroke-width:1.5;"/><line style="stroke:#000000;stroke-width:1.5;" x1="6" x2="29.6709" y1="124.4469" y2="124.4469"/><text fill="#000000" font-family="sans-serif" font-size="14" font-weight="700" lengthAdjust="spacing" textLength="10.6709" x="10" y="117.1451">B</text></g><!--cluster sub_b--><g class="cluster" data-qualified-name="B.sub_b" data-source-line="23" id="ent0020"><path d="M32.5,289.15 L78.8428,289.15 A3.75,3.75 0 0 1 81.3428,291.65 L88.3428,311.4469 L209.68,311.4469 A2.5,2.5 0 0 1 212.18,313.9469 L212.18,416.65 A2.5,2.5 0 0 1 209.68,419.15 L32.5,419.15 A2.5,2.5 0 0 1 30,416.65 L30,291.65 A2.5,2.5 0 0 1 32.5,289.15" fill="none" style="stroke:#000000;stroke-width:1.5;"/><line style="stroke:#000000;stroke-width:1.5;" x1="30" x2="88.3428" y1="311.4469" y2="311.4469"/><text fill="#000000" font-family="sans-serif" font-size="14" font-weight="700" lengthAdjust="spacing" textLength="45.3428" x="34" y="304.1451">sub_b</text></g><!--entity a1--><g class="entity" data-qualified-name="A.a1" data-source-line="5" id="ent0005"><rect fill="#F1F1F1" height="22.2969" rx="2.5" ry="2.5" style="stroke:#181818;stroke-width:0.5;" width="37.4863" x="49.8" y="616"/><text fill="#000000" font-family="sans-serif" font-size="14" lengthAdjust="spacing" textLength="17.4863" x="59.8" y="631.9951">a1</text></g><!--entity a2--><g class="entity" data-qualified-name="A.a2" data-source-line="6" id="ent0006"><rect fill="#F1F1F1" height="22.2969" rx="2.5" ry="2.5" style="stroke:#181818;stroke-width:0.5;" width="37.4863" x="49.8" y="559"/><text fill="#000000" font-family="sans-serif" font-size="14" lengthAdjust="spacing" textLength="17.4863" x="59.8" y="574.9951">a2</text></g><!--entity a3--><g class="entity" data-qualified-name="A.a3" data-source-line="7" id="ent0007"><rect fill="#F1F1F1" height="22.2969" rx="2.5" ry="2.5" style="stroke:#181818;stroke-width:0.5;" width="37.4863" x="49.8" y="502"/><text fill="#000000" font-family="sans-serif" font-size="14" lengthAdjust="spacing" textLength="17.4863" x="59.8" y="517.9951">a3</text></g><!--entity a4--><g class="entity" data-qualified-name="A.a4" data-source-line="8" id="ent0008"><rect fill="#F1F1F1" height="22.2969" rx="2.5" ry="2.5" style="stroke:#181818;stroke-width:0.5;" width="37.4863" x="154.89" y="616"/><text fill="#000000" font-family="sans-serif" font-size="14" lengthAdjust="spacing" textLength="17.4863" x="164.89" y="631.9951">a4</text></g><!--entity a5--><g class="entity" data-qualified-name="A.a5" data-source-line="9" id="ent0009"><rect fill="#F1F1F1" height="22.2969" rx="2.5" ry="2.5" style="stroke:#181818;stroke-width:0.5;" width="37.4863" x="154.89" y="559"/><text fill="#000000" font-family="sans-serif" font-size="14" lengthAdjust="spacing" textLength="17.4863" x="164.89" y="574.9951">a5</text></g><!--entity sa1--><g class="entity" data-qualified-name="A.sub_a.sa1" data-source-line="11" id="ent0011"><rect fill="#F1F1F1" height="22.2969" rx="2.5" ry="2.5" style="stroke:#181818;stroke-width:0.5;" width="44.7803" x="46.15" y="746"/><text fill="#000000" font-family="sans-serif" font-size="14" lengthAdjust="spacing" textLength="24.7803" x="56.15" y="761.9951">sa1</text></g><!--entity sa2--><g class="entity" data-qualified-name="A.sub_a.sa2" data-source-line="12" id="ent0012"><rect fill="#F1F1F1" height="22.2969" rx="2.5" ry="2.5" style="stroke:#181818;stroke-width:0.5;" width="44.7803" x="46.15" y="689"/><text fill="#000000" font-family="sans-serif" font-size="14" lengthAdjust="spacing" textLength="24.7803" x="56.15" y="704.9951">sa2</text></g><!--entity sa3--><g class="entity" data-qualified-name="A.sub_a.sa3" data-source-line="13" id="ent0013"><rect fill="#F1F1F1" height="22.2969" rx="2.5" ry="2.5" style="stroke:#181818;stroke-width:0.5;" width="44.7803" x="151.24" y="746"/><text fill="#000000" font-family="sans-serif" font-size="14" lengthAdjust="spacing" textLength="24.7803" x="161.24" y="761.9951">sa3</text></g><!--entity b1--><g class="entity" data-qualified-name="B.b1" data-source-line="18" id="ent0015"><rect fill="#F1F1F1" height="22.2969" rx="2.5" ry="2.5" style="stroke:#181818;stroke-width:0.5;" width="37.7939" x="49.65" y="251"/><text fill="#000000" font-family="sans-serif" font-size="14" lengthAdjust="spacing" textLength="17.7939" x="59.65" y="266.9951">b1</text></g><!--entity b2--><g class="entity" data-qualified-name="B.b2" data-source-line="19" id="ent0016"><rect fill="#F1F1F1" height="22.2969" rx="2.5" ry="2.5" style="stroke:#181818;stroke-width:0.5;" width="37.7939" x="49.65" y="194"/><text fill="#000000" font-family="sans-serif" font-size="14" lengthAdjust="spacing" textLength="17.7939" x="59.65" y="209.9951">b2</text></g><!--entity b3--><g class="entity" data-qualified-name="B.b3" data-source-line="20" id="ent0017"><rect fill="#F1F1F1" height="22.2969" rx="2.5" ry="2.5" style="stroke:#181818;stroke-width:0.5;" width="37.7939" x="49.65" y="137"/><text fill="#000000" font-family="sans-serif" font-size="14" lengthAdjust="spacing" textLength="17.7939" x="59.65" y="152.9951">b3</text></g><!--entity b4--><g class="entity" data-qualified-name="B.b4" data-source-line="21" id="ent0018"><rect fill="#F1F1F1" height="22.2969" rx="2.5" ry="2.5" style="stroke:#181818;stroke-width:0.5;" width="37.7939" x="154.73" y="251"/><text fill="#000000" font-family="sans-serif" font-size="14" lengthAdjust="spacing" textLength="17.7939" x="164.73" y="266.9951">b4</text></g><!--entity b5--><g class="entity" data-qualified-name="B.b5" data-source-line="22" id="ent0019"><rect fill="#F1F1F1" height="22.2969" rx="2.5" ry="2.5" style="stroke:#181818;stroke-width:0.5;" width="37.7939" x="154.73" y="194"/><text fill="#000000" font-family="sans-serif" font-size="14" lengthAdjust="spacing" textLength="17.7939" x="164.73" y="209.9951">b5</text></g><!--entity sb1--><g class="entity" data-qualified-name="B.sub_b.sb1" data-source-line="24" id="ent0021"><rect fill="#F1F1F1" height="22.2969" rx="2.5" ry="2.5" style="stroke:#181818;stroke-width:0.5;" width="45.0879" x="46" y="381"/><text fill="#000000" font-family="sans-serif" font-size="14" lengthAdjust="spacing" textLength="25.0879" x="56" y="396.9951">sb1</text></g><!--entity sb2--><g class="entity" data-qualified-name="B.sub_b.sb2" data-source-line="25" id="ent0022"><rect fill="#F1F1F1" height="22.2969" rx="2.5" ry="2.5" style="stroke:#181818;stroke-width:0.5;" width="45.0879" x="46" y="324"/><text fill="#000000" font-family="sans-serif" font-size="14" lengthAdjust="spacing" textLength="25.0879" x="56" y="339.9951">sb2</text></g><!--entity sb3--><g class="entity" data-qualified-name="B.sub_b.sb3" data-source-line="26" id="ent0023"><rect fill="#F1F1F1" height="22.2969" rx="2.5" ry="2.5" style="stroke:#181818;stroke-width:0.5;" width="45.0879" x="151.09" y="381"/><text fill="#000000" font-family="sans-serif" font-size="14" lengthAdjust="spacing" textLength="25.0879" x="161.09" y="396.9951">sb3</text></g><!--entity a--><g class="entity" data-qualified-name="a" data-source-line="2" id="ent0002"><rect fill="#F1F1F1" height="22.2969" rx="2.5" ry="2.5" style="stroke:#181818;stroke-width:0.5;" width="28.5791" x="54.25" y="64"/><text fill="#000000" font-family="sans-serif" font-size="14" lengthAdjust="spacing" textLength="8.5791" x="64.25" y="79.9951">a</text></g><!--entity b--><g class="entity" data-qualified-name="b" data-source-line="3" id="ent0003"><rect fill="#F1F1F1" height="22.2969" rx="2.5" ry="2.5" style="stroke:#181818;stroke-width:0.5;" width="28.8867" x="54.1" y="7"/><text fill="#000000" font-family="sans-serif" font-size="14" lengthAdjust="spacing" textLength="8.8867" x="64.1" y="22.9951">b</text></g><?plantuml-src NSt13OCm38NXUwRm2j0oG5a4-OMKHgrA5S89iJkKm2FYaloIPNyVzumIUmc-UqLfVN0s-lvhh8PMD7qmFxLlxPmyP38YQLQmIjQDTMTLQntxmuX6jnjfE6nNZYwp_b-QpRo-nEiJ1t4G1t4GnnL7ZYF3aU7OyGK0?></g></svg>