<svg xmlns="http://www.w3.org/2000/svg" xmlns:xlink="http://www.w3.org/1999/xlink" contentStyleType="text/css" data-diagram-type="DESCRIPTION" height="604px" preserveAspectRatio="none" style="width:180px;height:604px;background:#FFFFFF;" version="1.1" viewBox="0 0 180 604" width="180px" zoomAndPan="magnify"><?plantuml 1.2026.3beta5?><defs/><g><!--cluster A--><g class="cluster" data-qualified-name="A" data-source-line="5" id="ent0004"><path d="M16.5,274 L28.335,274 A3.75,3.75 0 0 1 30.835,276.5 L37.835,296.2969 L169.5,296.2969 A2.5,2.5 0 0 1 172,298.7969 L172,525.5 A2.5,2.5 0 0 1 169.5,528 L16.5,528 A2.5,2.5 0 0 1 14,525.5 L14,276.5 A2.5,2.5 0 0 1 16.5,274" fill="none" style="stroke:#000000;stroke-width:1.5;"/><line style="stroke:#000000;stroke-width:1.5;" x1="14" x2="37.835" y1="296.2969" y2="296.2969"/><text fill="#000000" font-family="sans-serif" font-size="14" font-weight="700" lengthAdjust="spacing" textLength="10.835" x="18" y="288.9951">A</text></g><!--cluster sub_a--><g class="cluster" data-qualified-name="A.sub_a" data-source-line="11" id="ent0010"><path d="M24.5,301 L70.2686,301 A3.75,3.75 0 0 1 72.7686,303.5 L79.7686,323.2969 L161.5,323.2969 A2.5,2.5 0 0 1 164,325.7969 L164,399.5 A2.5,2.5 0 0 1 161.5,402 L24.5,402 A2.5,2.5 0 0 1 22,399.5 L22,303.5 A2.5,2.5 0 0 1 24.5,301" fill="none" style="stroke:#000000;stroke-width:1.5;"/><line style="stroke:#000000;stroke-width:1.5;" x1="22" x2="79.7686" y1="323.2969" y2="323.2969"/><text fill="#000000" font-family="sans-serif" font-size="14" font-weight="700" lengthAdjust="spacing" textLength="44.7686" x="26" y="315.9951">sub_a</text></g><!--cluster B--><g class="cluster" data-qualified-name="B" data-source-line="18" id="ent0014"><path d="M16.5,12 L28.1709,12 A3.75,3.75 0 0 1 30.6709,14.5 L37.6709,34.2969 L169.5,34.2969 A2.5,2.5 0 0 1 172,36.7969 L172,263.5 A2.5,2.5 0 0 1 169.5,266 L16.5,266 A2.5,2.5 0 0 1 14,263.5 L14,14.5 A2.5,2.5 0 0 1 16.5,12" fill="none" style="stroke:#000000;stroke-width:1.5;"/><line style="stroke:#000000;stroke-width:1.5;" x1="14" x2="37.6709" y1="34.2969" y2="34.2969"/><text fill="#000000" font-family="sans-serif" font-size="14" font-weight="700" lengthAdjust="spacing" textLength="10.6709" x="18" y="26.9951">B</text></g><!--cluster sub_b--><g class="cluster" data-qualified-name="B.sub_b" data-source-line="24" id="ent0020"><path d="M24.5,39 L70.8428,39 A3.75,3.75 0 0 1 73.3428,41.5 L80.3428,61.2969 L161.5,61.2969 A2.5,2.5 0 0 1 164,63.7969 L164,137.5 A2.5,2.5 0 0 1 161.5,140 L24.5,140 A2.5,2.5 0 0 1 22,137.5 L22,41.5 A2.5,2.5 0 0 1 24.5,39" fill="none" style="stroke:#000000;stroke-width:1.5;"/><line style="stroke:#000000;stroke-width:1.5;" x1="22" x2="80.3428" y1="61.2969" y2="61.2969"/><text fill="#000000" font-family="sans-serif" font-size="14" font-weight="700" lengthAdjust="spacing" textLength="45.3428" x="26" y="53.9951">sub_b</text></g><!--entity a--><g class="entity" data-qualified-name="a" data-source-line="3" id="ent0002"><rect fill="#F1F1F1" height="22.2969" rx="2.5" ry="2.5" style="stroke:#181818;stroke-width:0.5;" width="28.5791" x="38" y="580"/><text fill="#000000" font-family="sans-serif" font-size="14" lengthAdjust="spacing" textLength="8.5791" x="48" y="595.9951">a</text></g><!--entity b--><g class="entity" data-qualified-name="b" data-source-line="4" id="ent0003"><rect fill="#F1F1F1" height="22.2969" rx="2.5" ry="2.5" style="stroke:#181818;stroke-width:0.5;" width="28.8867" x="38" y="538"/><text fill="#000000" font-family="sans-serif" font-size="14" lengthAdjust="spacing" textLength="8.8867" x="48" y="553.9951">b</text></g><!--entity a1--><g class="entity" data-qualified-name="A.a1" data-source-line="6" id="ent0005"><rect fill="#F1F1F1" height="22.2969" rx="2.5" ry="2.5" style="stroke:#181818;stroke-width:0.5;" width="37.4863" x="34" y="496"/><text fill="#000000" font-family="sans-serif" font-size="14" lengthAdjust="spacing" textLength="17.4863" x="44" y="511.9951">a1</text></g><!--entity a2--><g class="entity" data-qualified-name="A.a2" data-source-line="7" id="ent0006"><rect fill="#F1F1F1" height="22.2969" rx="2.5" ry="2.5" style="stroke:#181818;stroke-width:0.5;" width="37.4863" x="34" y="454"/><text fill="#000000" font-family="sans-serif" font-size="14" lengthAdjust="spacing" textLength="17.4863" x="44" y="469.9951">a2</text></g><!--entity a3--><g class="entity" data-qualified-name="A.a3" data-source-line="8" id="ent0007"><rect fill="#F1F1F1" height="22.2969" rx="2.5" ry="2.5" style="stroke:#181818;stroke-width:0.5;" width="37.4863" x="34" y="412"/><text fill="#000000" font-family="sans-serif" font-size="14" lengthAdjust="spacing" textLength="17.4863" x="44" y="427.9951">a3</text></g><!--entity a4--><g class="entity" data-qualified-name="A.a4" data-source-line="9" id="ent0008"><rect fill="#F1F1F1" height="22.2969" rx="2.5" ry="2.5" style="stroke:#181818;stroke-width:0.5;" width="37.4863" x="115" y="496"/><text fill="#000000" font-family="sans-serif" font-size="14" lengthAdjust="spacing" textLength="17.4863" x="125" y="511.9951">a4</text></g><!--entity a5--><g class="entity" data-qualified-name="A.a5" data-source-line="10" id="ent0009"><rect fill="#F1F1F1" height="22.2969" rx="2.5" ry="2.5" style="stroke:#181818;stroke-width:0.5;" width="37.4863" x="115" y="454"/><text fill="#000000" font-family="sans-serif" font-size="14" lengthAdjust="spacing" textLength="17.4863" x="125" y="469.9951">a5</text></g><!--entity sa1--><g class="entity" data-qualified-name="A.sub_a.sa1" data-source-line="12" id="ent0011"><rect fill="#F1F1F1" height="22.2969" rx="2.5" ry="2.5" style="stroke:#181818;stroke-width:0.5;" width="44.7803" x="30" y="370"/><text fill="#000000" font-family="sans-serif" font-size="14" lengthAdjust="spacing" textLength="24.7803" x="40" y="385.9951">sa1</text></g><!--entity sa2--><g class="entity" data-qualified-name="A.sub_a.sa2" data-source-line="13" id="ent0012"><rect fill="#F1F1F1" height="22.2969" rx="2.5" ry="2.5" style="stroke:#181818;stroke-width:0.5;" width="44.7803" x="30" y="328"/><text fill="#000000" font-family="sans-serif" font-size="14" lengthAdjust="spacing" textLength="24.7803" x="40" y="343.9951">sa2</text></g><!--entity sa3--><g class="entity" data-qualified-name="A.sub_a.sa3" data-source-line="14" id="ent0013"><rect fill="#F1F1F1" height="22.2969" rx="2.5" ry="2.5" style="stroke:#181818;stroke-width:0.5;" width="44.7803" x="111" y="370"/><text fill="#000000" font-family="sans-serif" font-size="14" lengthAdjust="spacing" textLength="24.7803" x="121" y="385.9951">sa3</text></g><!--entity b1--><g class="entity" data-qualified-name="B.b1" data-source-line="19" id="ent0015"><rect fill="#F1F1F1" height="22.2969" rx="2.5" ry="2.5" style="stroke:#181818;stroke-width:0.5;" width="37.7939" x="33.5" y="234"/><text fill="#000000" font-family="sans-serif" font-size="14" lengthAdjust="spacing" textLength="17.7939" x="43.5" y="249.9951">b1</text></g><!--entity b2--><g class="entity" data-qualified-name="B.b2" data-source-line="20" id="ent0016"><rect fill="#F1F1F1" height="22.2969" rx="2.5" ry="2.5" style="stroke:#181818;stroke-width:0.5;" width="37.7939" x="33.5" y="192"/><text fill="#000000" font-family="sans-serif" font-size="14" lengthAdjust="spacing" textLength="17.7939" x="43.5" y="207.9951">b2</text></g><!--entity b3--><g class="entity" data-qualified-name="B.b3" data-source-line="21" id="ent0017"><rect fill="#F1F1F1" height="22.2969" rx="2.5" ry="2.5" style="stroke:#181818;stroke-width:0.5;" width="37.7939" x="33.5" y="150"/><text fill="#000000" font-family="sans-serif" font-size="14" lengthAdjust="spacing" textLength="17.7939" x="43.5" y="165.9951">b3</text></g><!--entity b4--><g class="entity" data-qualified-name="B.b4" data-source-line="22" id="ent0018"><rect fill="#F1F1F1" height="22.2969" rx="2.5" ry="2.5" style="stroke:#181818;stroke-width:0.5;" width="37.7939" x="114.5" y="234"/><text fill="#000000" font-family="sans-serif" font-size="14" lengthAdjust="spacing" textLength="17.7939" x="124.5" y="249.9951">b4</text></g><!--entity b5--><g class="entity" data-qualified-name="B.b5" data-source-line="23" id="ent0019"><rect fill="#F1F1F1" height="22.2969" rx="2.5" ry="2.5" style="stroke:#181818;stroke-width:0.5;" width="37.7939" x="114.5" y="192"/><text fill="#000000" font-family="sans-serif" font-size="14" lengthAdjust="spacing" textLength="17.7939" x="124.5" y="207.9951">b5</text></g><!--entity sb1--><g class="entity" data-qualified-name="B.sub_b.sb1" data-source-line="25" id="ent0021"><rect fill="#F1F1F1" height="22.2969" rx="2.5" ry="2.5" style="stroke:#181818;stroke-width:0.5;" width="45.0879" x="30" y="108"/><text fill="#000000" font-family="sans-serif" font-size="14" lengthAdjust="spacing" textLength="25.0879" x="40" y="123.9951">sb1</text></g><!--entity sb2--><g class="entity" data-qualified-name="B.sub_b.sb2" data-source-line="26" id="ent0022"><rect fill="#F1F1F1" height="22.2969" rx="2.5" ry="2.5" style="stroke:#181818;stroke-width:0.5;" width="45.0879" x="30" y="66"/><text fill="#000000" font-family="sans-serif" font-size="14" lengthAdjust="spacing" textLength="25.0879" x="40" y="81.9951">sb2</text></g><!--entity sb3--><g class="entity" data-qualified-name="B.sub_b.sb3" data-source-line="27" id="ent0023"><rect fill="#F1F1F1" height="22.2969" rx="2.5" ry="2.5" style="stroke:#181818;stroke-width:0.5;" width="45.0879" x="111" y="108"/><text fill="#000000" font-family="sans-serif" font-size="14" lengthAdjust="spacing" textLength="25.0879" x="121" y="123.9951">sb3</text></g><?plantuml-src NSrH3i8W3CRnTqvHZ-3K0-X5J3-6IDp60js3CRkxSxXAV85_qhI_tPZOzqmTF-Cab7idFB3ft4r88gNWxq9jICvAY8End5hYyi6CR1_i7PtfPOZARA_LQ1sqZbgdfRRzFE7AwuqopEkLhPkgFvTcCo-lufSV3iMXE1I7ulZ7KUEeS5GullWR?></g></svg>