<svg xmlns="http://www.w3.org/2000/svg" xmlns:xlink="http://www.w3.org/1999/xlink" contentStyleType="text/css" data-diagram-type="CLASS" height="81px" preserveAspectRatio="none" style="width:1946px;height:81px;background:#FFFFFF;" version="1.1" viewBox="0 0 1946 81" width="1946px" zoomAndPan="magnify"><?plantuml 1.2026.3beta5?><defs/><g><!--entity action--><g class="entity" data-qualified-name="action" data-source-line="1" id="ent0002"><polygon fill="#F0F8FF" points="16,15,79.0938,15,89.0938,33.1484,79.0938,51.2969,16,51.2969" style="stroke:#0000FF;stroke-width:1;stroke-dasharray:1,3;"/><text fill="#0000FF" font-family="sans-serif" font-size="14" lengthAdjust="spacing" textLength="43.0938" x="26" y="37.9951">action</text></g><!--entity artifact--><g class="entity" data-qualified-name="artifact" data-source-line="3" id="ent0003"><rect fill="#F0F8FF" height="39.2969" rx="2.5" ry="2.5" style="stroke:#0000FF;stroke-width:1;stroke-dasharray:1,3;" width="80.4082" x="124.34" y="13.5"/><polygon fill="#F0F8FF" points="187.7482,18.5,187.7482,32.5,199.7482,32.5,199.7482,24.5,193.7482,18.5,187.7482,18.5" style="stroke:#0000FF;stroke-width:1;stroke-dasharray:1,3;"/><line style="stroke:#0000FF;stroke-width:1;stroke-dasharray:1,3;" x1="193.7482" x2="193.7482" y1="18.5" y2="24.5"/><line style="stroke:#0000FF;stroke-width:1;stroke-dasharray:1,3;" x1="199.7482" x2="193.7482" y1="24.5" y2="24.5"/><text fill="#0000FF" font-family="sans-serif" font-size="14" lengthAdjust="spacing" textLength="50.4082" x="134.34" y="39.4951">artifact</text></g><!--entity card--><g class="entity" data-qualified-name="card" data-source-line="5" id="ent0004"><rect fill="#F0F8FF" height="22.2969" rx="2.5" ry="2.5" style="stroke:#0000FF;stroke-width:1;stroke-dasharray:1,3;" width="50.9189" x="240.09" y="22"/><text fill="#0000FF" font-family="sans-serif" font-size="14" lengthAdjust="spacing" textLength="30.9189" x="250.09" y="37.9951">card</text></g><!--entity cloud--><g class="entity" data-qualified-name="cloud" data-source-line="7" id="ent0005"><path d="M333.6039,18.3665 C337.2623,10.8583 342.9996,10.9873 347.5654,17.4604 C350.8703,10.6964 356.4984,9.6966 360.6675,16.6339 C364.6133,10.3578 369.676,12.0386 372.819,17.4673 C376.7159,10.889 383.3884,12.4025 386.3701,18.4496 C395.287,21.6524 397.6686,28.3416 390.1668,35.254 C394.7508,41.8587 394.6356,46.3145 385.8271,48.547 C384.4287,54.7414 379.1122,57.0415 374.5457,51.6253 C370.4634,59.1761 365.6599,59.6381 359.716,53.6669 C355.0648,58.6348 349.8116,56.8869 347.3405,51.1472 C342.849,56.8698 337.6948,56.8331 334.5374,49.8074 C325.3114,48.9605 322.3111,42.7286 327.5425,35.0357 C321.4682,26.5034 323.4678,21.0042 333.6039,18.3665" fill="#F0F8FF" style="stroke:#0000FF;stroke-width:1;stroke-dasharray:1,3;"/><text fill="#0000FF" font-family="sans-serif" font-size="14" lengthAdjust="spacing" textLength="37.9121" x="340.59" y="37.9951">cloud</text></g><!--entity component--><g class="entity" data-qualified-name="component" data-source-line="9" id="ent0006"><rect fill="#F0F8FF" height="46.2969" rx="2.5" ry="2.5" style="stroke:#0000FF;stroke-width:1;stroke-dasharray:1,3;" width="119.2012" x="428.95" y="10"/><rect fill="#F0F8FF" height="10" style="stroke:#0000FF;stroke-width:1;stroke-dasharray:1,3;" width="15" x="528.1512" y="15"/><rect fill="#F0F8FF" height="2" style="stroke:#0000FF;stroke-width:1;stroke-dasharray:1,3;" width="4" x="526.1512" y="17"/><rect fill="#F0F8FF" height="2" style="stroke:#0000FF;stroke-width:1;stroke-dasharray:1,3;" width="4" x="526.1512" y="21"/><text fill="#0000FF" font-family="sans-serif" font-size="14" lengthAdjust="spacing" textLength="79.2012" x="443.95" y="42.9951">component</text></g><!--entity database--><g class="entity" data-qualified-name="database" data-source-line="11" id="ent0007"><path d="M583.09,20.5 C583.09,10.5 625.5436,10.5 625.5436,10.5 C625.5436,10.5 667.9972,10.5 667.9972,20.5 L667.9972,45.7969 C667.9972,55.7969 625.5436,55.7969 625.5436,55.7969 C625.5436,55.7969 583.09,55.7969 583.09,45.7969 L583.09,20.5" fill="#F0F8FF" style="stroke:#0000FF;stroke-width:1;stroke-dasharray:1,3;"/><path d="M583.09,20.5 C583.09,30.5 625.5436,30.5 625.5436,30.5 C625.5436,30.5 667.9972,30.5 667.9972,20.5" fill="none" style="stroke:#0000FF;stroke-width:1;stroke-dasharray:1,3;"/><text fill="#0000FF" font-family="sans-serif" font-size="14" lengthAdjust="spacing" textLength="64.9072" x="593.09" y="47.4951">database</text></g><!--entity file--><g class="entity" data-qualified-name="file" data-source-line="13" id="ent0008"><path d="M702.89,17.5 L702.89,48.7969 A2.5,2.5 0 0 0 705.39,51.2969 L741.7113,51.2969 A2.5,2.5 0 0 0 744.2113,48.7969 L744.2113,25 L734.2113,15 L705.39,15 A2.5,2.5 0 0 0 702.89,17.5" fill="#F0F8FF" style="stroke:#0000FF;stroke-width:1;stroke-dasharray:1,3;"/><path d="M734.2113,15 L734.2113,22.5 A2.5,2.5 0 0 0 736.7113,25 L744.2113,25" fill="#F0F8FF" style="stroke:#0000FF;stroke-width:1;stroke-dasharray:1,3;"/><text fill="#0000FF" font-family="sans-serif" font-size="14" lengthAdjust="spacing" textLength="21.3213" x="712.89" y="37.9951">file</text></g><!--entity folder--><g class="entity" data-qualified-name="folder" data-source-line="15" id="ent0009"><path d="M781.73,6 L822.73,6 A3.75,3.75 0 0 1 825.23,8.5 L832.23,27 L847.3696,27 A2.5,2.5 0 0 1 849.8696,29.5 L849.8696,57.7969 A2.5,2.5 0 0 1 847.3696,60.2969 L781.73,60.2969 A2.5,2.5 0 0 1 779.23,57.7969 L779.23,8.5 A2.5,2.5 0 0 1 781.73,6" fill="#F0F8FF" style="stroke:#0000FF;stroke-width:1;stroke-dasharray:1,3;"/><line style="stroke:#0000FF;stroke-width:1;stroke-dasharray:1,3;" x1="779.23" x2="832.23" y1="27" y2="27"/><text fill="#0000FF" font-family="sans-serif" font-size="14" lengthAdjust="spacing" textLength="40.6396" x="789.23" y="46.9951">folder</text></g><!--entity frame--><g class="entity" data-qualified-name="frame" data-source-line="17" id="ent0010"><rect fill="#F0F8FF" height="46.2969" rx="2.5" ry="2.5" style="stroke:#0000FF;stroke-width:1;stroke-dasharray:1,3;" width="81.5146" x="884.79" y="10"/><path d="M911.9615,10 L911.9615,15 L904.9615,22 L884.79,22" fill="none" style="stroke:#0000FF;stroke-width:1;stroke-dasharray:1,3;"/><text fill="#0000FF" font-family="sans-serif" font-size="14" lengthAdjust="spacing" textLength="41.5146" x="899.79" y="42.9951">frame</text></g><!--entity hexagon--><g class="entity" data-qualified-name="hexagon" data-source-line="19" id="ent0011"><polygon fill="#F0F8FF" points="1122.22,33.15,1091.88,20,1031.21,20,1000.87,33.15,1031.21,46.3,1091.88,46.3,1122.22,33.15" style="stroke:#0000FF;stroke-width:1;stroke-dasharray:1,3;"/><text fill="#0000FF" font-family="sans-serif" font-size="14" lengthAdjust="spacing" textLength="60.6758" x="1031.2079" y="37.9951">hexagon</text></g><!--entity node--><g class="entity" data-qualified-name="node" data-source-line="21" id="ent0012"><polygon fill="#F0F8FF" points="1157.08,20,1167.08,10,1232.0185,10,1232.0185,46.2969,1222.0185,56.2969,1157.08,56.2969,1157.08,20" style="stroke:#0000FF;stroke-width:1;stroke-dasharray:1,3;"/><line style="stroke:#0000FF;stroke-width:1;stroke-dasharray:1,3;" x1="1222.0185" x2="1232.0185" y1="20" y2="10"/><line style="stroke:#0000FF;stroke-width:1;stroke-dasharray:1,3;" x1="1157.08" x2="1222.0185" y1="20" y2="20"/><line style="stroke:#0000FF;stroke-width:1;stroke-dasharray:1,3;" x1="1222.0185" x2="1222.0185" y1="20" y2="56.2969"/><text fill="#0000FF" font-family="sans-serif" font-size="14" lengthAdjust="spacing" textLength="34.9385" x="1172.08" y="42.9951">node</text></g><path d="M1269.03,6.85 L1336.072,6.85 A3.75,3.75 0 0 1 1338.572,9.35 L1345.572,29.1469 L1350.072,29.1469 A2.5,2.5 0 0 1 1352.572,31.6469 L1352.572,56.9437 A2.5,2.5 0 0 1 1350.072,59.4437 L1269.03,59.4437 A2.5,2.5 0 0 1 1266.53,56.9437 L1266.53,9.35 A2.5,2.5 0 0 1 1269.03,6.85" fill="#F0F8FF" style="stroke:#0000FF;stroke-width:1;stroke-dasharray:1,3;"/><line style="stroke:#0000FF;stroke-width:1;stroke-dasharray:1,3;" x1="1266.53" x2="1345.572" y1="29.1469" y2="29.1469"/><text fill="#0000FF" font-family="sans-serif" font-size="14" font-weight="700" lengthAdjust="spacing" textLength="66.042" x="1270.53" y="21.8451">package</text><!--entity process--><g class="entity" data-qualified-name="process" data-source-line="25" id="ent0014"><polygon fill="#F0F8FF" points="1387.49,15,1471.5964,15,1481.5964,33.1484,1471.5964,51.2969,1387.49,51.2969,1397.49,33.1484" style="stroke:#0000FF;stroke-width:1;stroke-dasharray:1,3;"/><text fill="#0000FF" font-family="sans-serif" font-size="14" lengthAdjust="spacing" textLength="54.1064" x="1407.49" y="37.9951">process</text></g><!--entity queue--><g class="entity" data-qualified-name="queue" data-source-line="27" id="ent0015"><path d="M1521.62,20 L1575.4794,20 C1580.4794,20 1580.4794,33.1484 1580.4794,33.1484 C1580.4794,33.1484 1580.4794,46.2969 1575.4794,46.2969 L1521.62,46.2969 C1516.62,46.2969 1516.62,33.1484 1516.62,33.1484 C1516.62,33.1484 1516.62,20 1521.62,20" fill="#F0F8FF" style="stroke:#0000FF;stroke-width:1;stroke-dasharray:1,3;"/><path d="M1575.4794,20 C1570.4794,20 1570.4794,33.1484 1570.4794,33.1484 C1570.4794,46.2969 1575.4794,46.2969 1575.4794,46.2969" fill="none" style="stroke:#0000FF;stroke-width:1;stroke-dasharray:1,3;"/><text fill="#0000FF" font-family="sans-serif" font-size="14" lengthAdjust="spacing" textLength="43.8594" x="1521.62" y="37.9951">queue</text></g><!--entity rectangle--><g class="entity" data-qualified-name="rectangle" data-source-line="29" id="ent0016"><rect fill="#F0F8FF" height="36.2969" rx="2.5" ry="2.5" style="stroke:#0000FF;stroke-width:1;stroke-dasharray:1,3;" width="86.3975" x="1615.35" y="15"/><text fill="#0000FF" font-family="sans-serif" font-size="14" lengthAdjust="spacing" textLength="66.3975" x="1625.35" y="37.9951">rectangle</text></g><!--entity stack--><g class="entity" data-qualified-name="stack" data-source-line="31" id="ent0017"><rect fill="#F0F8FF" height="36.2969" rx="2.5" ry="2.5" style="stroke:none;stroke-width:1;stroke-dasharray:1,3;" width="57.167" x="1751.96" y="15"/><path d="M1736.96,15 L1749.46,15 A2.5,2.5 0 0 1 1751.96,17.5 L1751.96,48.7969 A2.5,2.5 0 0 0 1754.46,51.2969 L1806.627,51.2969 A2.5,2.5 0 0 0 1809.127,48.7969 L1809.127,17.5 A2.5,2.5 0 0 1 1811.627,15 L1824.127,15" fill="none" style="stroke:#0000FF;stroke-width:1;stroke-dasharray:1,3;"/><text fill="#0000FF" font-family="sans-serif" font-size="14" lengthAdjust="spacing" textLength="37.167" x="1761.96" y="37.9951">stack</text></g><!--entity storage--><g class="entity" data-qualified-name="storage" data-source-line="33" id="ent0018"><rect fill="#F0F8FF" height="36.2969" rx="35" ry="35" style="stroke:#0000FF;stroke-width:1;stroke-dasharray:1,3;" width="73.1836" x="1858.96" y="15"/><text fill="#0000FF" font-family="sans-serif" font-size="14" lengthAdjust="spacing" textLength="53.1836" x="1868.96" y="37.9951">storage</text></g><?plantuml-src bP9B3i8m34JtdC8IUmv0J-CcReb8uvAwKYN4tGafQTUpUJEAz1pbmyw29k8zhXo3apwkqiMGv7wqcrSpyPt9PdMLtfVFXRE5eQXq5720u-of0XMZhiMiH5MTPasIZCu6Zl1itFCYT1Hmm12YK0KgQlIIwH-ed7agsrQ2waCs7ii7QGdgIRrG1IZEx9uy2hL4zQnEbeLQWlfhbT9sWceMPvp6yi9d0qSiLWvDEs5Ly--wMcBw5m00?></g></svg>