<svg xmlns="http://www.w3.org/2000/svg" xmlns:xlink="http://www.w3.org/1999/xlink" contentStyleType="text/css" data-diagram-type="DESCRIPTION" height="166px" preserveAspectRatio="none" style="width:714px;height:166px;background:#FFFFFF;" version="1.1" viewBox="0 0 714 166" width="714px" zoomAndPan="magnify"><?plantuml 1.2026.3beta5?><defs/><g><!--cluster A--><g class="cluster" data-qualified-name="A" data-source-line="4" id="ent0004"><path d="M94,4 L105.835,4 A3.75,3.75 0 0 1 108.335,6.5 L115.335,26.2969 L387,26.2969 A2.5,2.5 0 0 1 389.5,28.7969 L389.5,155.5 A2.5,2.5 0 0 1 387,158 L94,158 A2.5,2.5 0 0 1 91.5,155.5 L91.5,6.5 A2.5,2.5 0 0 1 94,4" fill="none" style="stroke:#000000;stroke-width:1.5;"/><line style="stroke:#000000;stroke-width:1.5;" x1="91.5" x2="115.335" y1="26.2969" y2="26.2969"/><text fill="#000000" font-family="sans-serif" font-size="14" font-weight="700" lengthAdjust="spacing" textLength="10.835" x="95.5" y="18.9951">A</text></g><!--cluster sub_a--><g class="cluster" data-qualified-name="A.sub_a" data-source-line="10" id="ent0010"><path d="M259,31 L304.7686,31 A3.75,3.75 0 0 1 307.2686,33.5 L314.2686,53.2969 L379,53.2969 A2.5,2.5 0 0 1 381.5,55.7969 L381.5,147.5 A2.5,2.5 0 0 1 379,150 L259,150 A2.5,2.5 0 0 1 256.5,147.5 L256.5,33.5 A2.5,2.5 0 0 1 259,31" fill="none" style="stroke:#000000;stroke-width:1.5;"/><line style="stroke:#000000;stroke-width:1.5;" x1="256.5" x2="314.2686" y1="53.2969" y2="53.2969"/><text fill="#000000" font-family="sans-serif" font-size="14" font-weight="700" lengthAdjust="spacing" textLength="44.7686" x="260.5" y="45.9951">sub_a</text></g><!--cluster B--><g class="cluster" data-qualified-name="B" data-source-line="17" id="ent0014"><path d="M400,4 L411.6709,4 A3.75,3.75 0 0 1 414.1709,6.5 L421.1709,26.2969 L696,26.2969 A2.5,2.5 0 0 1 698.5,28.7969 L698.5,155.5 A2.5,2.5 0 0 1 696,158 L400,158 A2.5,2.5 0 0 1 397.5,155.5 L397.5,6.5 A2.5,2.5 0 0 1 400,4" fill="none" style="stroke:#000000;stroke-width:1.5;"/><line style="stroke:#000000;stroke-width:1.5;" x1="397.5" x2="421.1709" y1="26.2969" y2="26.2969"/><text fill="#000000" font-family="sans-serif" font-size="14" font-weight="700" lengthAdjust="spacing" textLength="10.6709" x="401.5" y="18.9951">B</text></g><!--cluster sub_b--><g class="cluster" data-qualified-name="B.sub_b" data-source-line="23" id="ent0020"><path d="M568,31 L614.3428,31 A3.75,3.75 0 0 1 616.8428,33.5 L623.8428,53.2969 L688,53.2969 A2.5,2.5 0 0 1 690.5,55.7969 L690.5,147.5 A2.5,2.5 0 0 1 688,150 L568,150 A2.5,2.5 0 0 1 565.5,147.5 L565.5,33.5 A2.5,2.5 0 0 1 568,31" fill="none" style="stroke:#000000;stroke-width:1.5;"/><line style="stroke:#000000;stroke-width:1.5;" x1="565.5" x2="623.8428" y1="53.2969" y2="53.2969"/><text fill="#000000" font-family="sans-serif" font-size="14" font-weight="700" lengthAdjust="spacing" textLength="45.3428" x="569.5" y="45.9951">sub_b</text></g><!--entity a--><g class="entity" data-qualified-name="a" data-source-line="2" id="ent0002"><rect fill="#F1F1F1" height="22.2969" rx="2.5" ry="2.5" style="stroke:#181818;stroke-width:0.5;" width="28.5791" x="6" y="58"/><text fill="#000000" font-family="sans-serif" font-size="14" lengthAdjust="spacing" textLength="8.5791" x="16" y="73.9951">a</text></g><!--entity b--><g class="entity" data-qualified-name="b" data-source-line="3" id="ent0003"><rect fill="#F1F1F1" height="22.2969" rx="2.5" ry="2.5" style="stroke:#181818;stroke-width:0.5;" width="28.8867" x="53" y="58"/><text fill="#000000" font-family="sans-serif" font-size="14" lengthAdjust="spacing" textLength="8.8867" x="63" y="73.9951">b</text></g><!--entity a1--><g class="entity" data-qualified-name="A.a1" data-source-line="5" id="ent0005"><rect fill="#F1F1F1" height="22.2969" rx="2.5" ry="2.5" style="stroke:#181818;stroke-width:0.5;" width="37.4863" x="100" y="58"/><text fill="#000000" font-family="sans-serif" font-size="14" lengthAdjust="spacing" textLength="17.4863" x="110" y="73.9951">a1</text></g><!--entity a2--><g class="entity" data-qualified-name="A.a2" data-source-line="6" id="ent0006"><rect fill="#F1F1F1" height="22.2969" rx="2.5" ry="2.5" style="stroke:#181818;stroke-width:0.5;" width="37.4863" x="155" y="58"/><text fill="#000000" font-family="sans-serif" font-size="14" lengthAdjust="spacing" textLength="17.4863" x="165" y="73.9951">a2</text></g><!--entity a3--><g class="entity" data-qualified-name="A.a3" data-source-line="7" id="ent0007"><rect fill="#F1F1F1" height="22.2969" rx="2.5" ry="2.5" style="stroke:#181818;stroke-width:0.5;" width="37.4863" x="210" y="58"/><text fill="#000000" font-family="sans-serif" font-size="14" lengthAdjust="spacing" textLength="17.4863" x="220" y="73.9951">a3</text></g><!--entity a4--><g class="entity" data-qualified-name="A.a4" data-source-line="8" id="ent0008"><rect fill="#F1F1F1" height="22.2969" rx="2.5" ry="2.5" style="stroke:#181818;stroke-width:0.5;" width="37.4863" x="100" y="118"/><text fill="#000000" font-family="sans-serif" font-size="14" lengthAdjust="spacing" textLength="17.4863" x="110" y="133.9951">a4</text></g><!--entity a5--><g class="entity" data-qualified-name="A.a5" data-source-line="9" id="ent0009"><rect fill="#F1F1F1" height="22.2969" rx="2.5" ry="2.5" style="stroke:#181818;stroke-width:0.5;" width="37.4863" x="155" y="118"/><text fill="#000000" font-family="sans-serif" font-size="14" lengthAdjust="spacing" textLength="17.4863" x="165" y="133.9951">a5</text></g><!--entity sa1--><g class="entity" data-qualified-name="A.sub_a.sa1" data-source-line="11" id="ent0011"><rect fill="#F1F1F1" height="22.2969" rx="2.5" ry="2.5" style="stroke:#181818;stroke-width:0.5;" width="44.7803" x="265" y="58"/><text fill="#000000" font-family="sans-serif" font-size="14" lengthAdjust="spacing" textLength="24.7803" x="275" y="73.9951">sa1</text></g><!--entity sa2--><g class="entity" data-qualified-name="A.sub_a.sa2" data-source-line="12" id="ent0012"><rect fill="#F1F1F1" height="22.2969" rx="2.5" ry="2.5" style="stroke:#181818;stroke-width:0.5;" width="44.7803" x="328" y="58"/><text fill="#000000" font-family="sans-serif" font-size="14" lengthAdjust="spacing" textLength="24.7803" x="338" y="73.9951">sa2</text></g><!--entity sa3--><g class="entity" data-qualified-name="A.sub_a.sa3" data-source-line="13" id="ent0013"><rect fill="#F1F1F1" height="22.2969" rx="2.5" ry="2.5" style="stroke:#181818;stroke-width:0.5;" width="44.7803" x="265" y="118"/><text fill="#000000" font-family="sans-serif" font-size="14" lengthAdjust="spacing" textLength="24.7803" x="275" y="133.9951">sa3</text></g><!--entity b1--><g class="entity" data-qualified-name="B.b1" data-source-line="18" id="ent0015"><rect fill="#F1F1F1" height="22.2969" rx="2.5" ry="2.5" style="stroke:#181818;stroke-width:0.5;" width="37.7939" x="405.5" y="58"/><text fill="#000000" font-family="sans-serif" font-size="14" lengthAdjust="spacing" textLength="17.7939" x="415.5" y="73.9951">b1</text></g><!--entity b2--><g class="entity" data-qualified-name="B.b2" data-source-line="19" id="ent0016"><rect fill="#F1F1F1" height="22.2969" rx="2.5" ry="2.5" style="stroke:#181818;stroke-width:0.5;" width="37.7939" x="461.5" y="58"/><text fill="#000000" font-family="sans-serif" font-size="14" lengthAdjust="spacing" textLength="17.7939" x="471.5" y="73.9951">b2</text></g><!--entity b3--><g class="entity" data-qualified-name="B.b3" data-source-line="20" id="ent0017"><rect fill="#F1F1F1" height="22.2969" rx="2.5" ry="2.5" style="stroke:#181818;stroke-width:0.5;" width="37.7939" x="517.5" y="58"/><text fill="#000000" font-family="sans-serif" font-size="14" lengthAdjust="spacing" textLength="17.7939" x="527.5" y="73.9951">b3</text></g><!--entity b4--><g class="entity" data-qualified-name="B.b4" data-source-line="21" id="ent0018"><rect fill="#F1F1F1" height="22.2969" rx="2.5" ry="2.5" style="stroke:#181818;stroke-width:0.5;" width="37.7939" x="405.5" y="118"/><text fill="#000000" font-family="sans-serif" font-size="14" lengthAdjust="spacing" textLength="17.7939" x="415.5" y="133.9951">b4</text></g><!--entity b5--><g class="entity" data-qualified-name="B.b5" data-source-line="22" id="ent0019"><rect fill="#F1F1F1" height="22.2969" rx="2.5" ry="2.5" style="stroke:#181818;stroke-width:0.5;" width="37.7939" x="461.5" y="118"/><text fill="#000000" font-family="sans-serif" font-size="14" lengthAdjust="spacing" textLength="17.7939" x="471.5" y="133.9951">b5</text></g><!--entity sb1--><g class="entity" data-qualified-name="B.sub_b.sb1" data-source-line="24" id="ent0021"><rect fill="#F1F1F1" height="22.2969" rx="2.5" ry="2.5" style="stroke:#181818;stroke-width:0.5;" width="45.0879" x="574" y="58"/><text fill="#000000" font-family="sans-serif" font-size="14" lengthAdjust="spacing" textLength="25.0879" x="584" y="73.9951">sb1</text></g><!--entity sb2--><g class="entity" data-qualified-name="B.sub_b.sb2" data-source-line="25" id="ent0022"><rect fill="#F1F1F1" height="22.2969" rx="2.5" ry="2.5" style="stroke:#181818;stroke-width:0.5;" width="45.0879" x="637" y="58"/><text fill="#000000" font-family="sans-serif" font-size="14" lengthAdjust="spacing" textLength="25.0879" x="647" y="73.9951">sb2</text></g><!--entity sb3--><g class="entity" data-qualified-name="B.sub_b.sb3" data-source-line="26" id="ent0023"><rect fill="#F1F1F1" height="22.2969" rx="2.5" ry="2.5" style="stroke:#181818;stroke-width:0.5;" width="45.0879" x="574" y="118"/><text fill="#000000" font-family="sans-serif" font-size="14" lengthAdjust="spacing" textLength="25.0879" x="584" y="133.9951">sb3</text></g><?plantuml-src NStB3OCm48JXkwjOIe2G0g2HQ0OGXm1160vHHE-y9nON-vTMkr_K3wXRM8FlPnhDjzM83gx0KDhvqVKetgWho-pdp8vPh4fK3rMgUgvrxVk9B-mtZg7VhroT1BrTcjsyliBpFqxX54xX5CuxpX1dW3F0UU8B?></g></svg>