<svg xmlns="http://www.w3.org/2000/svg" xmlns:xlink="http://www.w3.org/1999/xlink" contentStyleType="text/css" data-diagram-type="DESCRIPTION" height="133px" preserveAspectRatio="none" style="width:1768px;height:133px;background:#FFFFFF;" version="1.1" viewBox="0 0 1768 133" width="1768px" zoomAndPan="magnify"><?plantuml 1.2026.3beta5?><defs/><g><!--cluster actionVeryLOOOOOOOOOOOOOOOOOOOg--><g class="cluster" data-qualified-name="actionVeryLOOOOOOOOOOOOOOOOOOOg" data-source-line="1" id="ent0002"><polygon fill="#F0F8FF" points="235.2,21,291.2,21,301.2,64.65,291.2,108.3,235.2,108.3" style="stroke:#0000FF;stroke-width:1;stroke-dasharray:1,3;"/><text fill="#0000FF" font-family="sans-serif" font-size="14" font-weight="700" lengthAdjust="spacing" textLength="48.8223" x="243.7889" y="35.9951">action</text></g><!--cluster cardVeryLOOOOOOOOOOOOOOOOOOOg--><g class="cluster" data-qualified-name="cardVeryLOOOOOOOOOOOOOOOOOOOg" data-source-line="7" id="ent0005"><rect fill="#F0F8FF" height="87.3" rx="2.5" ry="2.5" style="stroke:#0000FF;stroke-width:1;stroke-dasharray:1,3;" width="66" x="325.2" y="21"/><line style="stroke:#0000FF;stroke-width:1;stroke-dasharray:1,3;" x1="325.2" x2="391.2" y1="41.2969" y2="41.2969"/><text fill="#0000FF" font-family="sans-serif" font-size="14" font-weight="700" lengthAdjust="spacing" textLength="34.6719" x="340.8641" y="35.9951">card</text></g><!--cluster cloudVeryLOOOOOOOOOOOOOOOOOOOg--><g class="cluster" data-qualified-name="cloudVeryLOOOOOOOOOOOOOOOOOOOg" data-source-line="10" id="ent0007"><path d="M424.5076,30.8177 C426.5006,24.4738 431.6783,21.9568 437.1353,26.9641 C439.5218,20.1293 443.1859,19.1323 448.7587,23.7226 C453.7878,17.7797 460.1226,19.2428 461.6688,27.0038 C465.7777,22.2016 471.3762,23.4453 473.4552,29.2576 C479.8394,31.9428 481.6484,37.5581 475.5534,42.2574 C481.1391,44.5055 482.4518,49.6716 477.4979,53.7093 C483.9477,55.5669 485.1974,60.8285 480.0645,65.2599 C485.6573,70.4406 485.155,74.8867 477.7391,77.6199 C482.0809,82.3904 480.7828,86.5034 475.2247,89.1068 C481.6998,93.6091 481.0847,97.4173 475.0901,101.7873 C470.624,109.0604 466.3768,109.457 461.4641,102.2063 C459.397,108.9208 453.5078,109.1874 449.3497,104.4107 C444.4889,109.2169 439.6857,109.0984 436.844,102.2451 C433.4771,107.4414 427.5262,106.9635 424.8305,101.4894 C418.5679,97.9999 419.4148,93.6308 424.2413,89.5921 C417.2294,86.4865 417.3734,81.8931 422.8259,77.3467 C417.4882,73.8244 417.5524,68.8775 423.4895,66.0156 C418.2907,62.5139 418.5797,57.6412 423.5053,54.1531 C418.3122,49.4594 418.2335,45.5551 424.7803,42.1037 C418.5576,39.1928 419.2002,34.0072 424.5076,30.8177" fill="#F0F8FF" style="stroke:#0000FF;stroke-width:1;stroke-dasharray:1,3;"/><text fill="#0000FF" font-family="sans-serif" font-size="14" font-weight="700" lengthAdjust="spacing" textLength="42.7041" x="426.8479" y="46.9951">cloud</text></g><!--cluster componentVeryLOOOOOOOOOOOOOOOOOOOg--><g class="cluster" data-qualified-name="componentVeryLOOOOOOOOOOOOOOOOOOOg" data-source-line="13" id="ent0009"><rect fill="#F0F8FF" height="87.3" rx="2.5" ry="2.5" style="stroke:#0000FF;stroke-width:1;stroke-dasharray:1,3;" width="104" x="505.2" y="21"/><rect fill="#F0F8FF" height="10" style="stroke:#0000FF;stroke-width:1;stroke-dasharray:1,3;" width="15" x="589.2" y="26"/><rect fill="#F0F8FF" height="2" style="stroke:#0000FF;stroke-width:1;stroke-dasharray:1,3;" width="4" x="587.2" y="28"/><rect fill="#F0F8FF" height="2" style="stroke:#0000FF;stroke-width:1;stroke-dasharray:1,3;" width="4" x="587.2" y="32"/><text fill="#0000FF" font-family="sans-serif" font-size="14" font-weight="700" lengthAdjust="spacing" textLength="88.2656" x="513.0672" y="46.9951">component</text></g><!--cluster databaseVeryLOOOOOOOOOOOOOOOOOOOg--><g class="cluster" data-qualified-name="databaseVeryLOOOOOOOOOOOOOOOOOOOg" data-source-line="16" id="ent0011"><path d="M633.2,16 C633.2,6 677.2,6 677.2,6 C677.2,6 721.2,6 721.2,16 L721.2,98.3 C721.2,108.3 677.2,108.3 677.2,108.3 C677.2,108.3 633.2,108.3 633.2,98.3 L633.2,16" fill="#F0F8FF" style="stroke:#0000FF;stroke-width:1;stroke-dasharray:1,3;"/><path d="M633.2,16 C633.2,26 677.2,26 677.2,26 C677.2,26 721.2,26 721.2,16" fill="none" style="stroke:#0000FF;stroke-width:1;stroke-dasharray:1,3;"/><text fill="#0000FF" font-family="sans-serif" font-size="14" font-weight="700" lengthAdjust="spacing" textLength="72.9053" x="640.7474" y="40.9951">database</text></g><!--cluster fileVeryLOOOOOOOOOOOOOOOOOOOg--><g class="cluster" data-qualified-name="fileVeryLOOOOOOOOOOOOOOOOOOOg" data-source-line="19" id="ent0013"><path d="M745.2,23.5 L745.2,105.8 A2.5,2.5 0 0 0 747.7,108.3 L808.7,108.3 A2.5,2.5 0 0 0 811.2,105.8 L811.2,31 L801.2,21 L747.7,21 A2.5,2.5 0 0 0 745.2,23.5" fill="#F0F8FF" style="stroke:#0000FF;stroke-width:1;stroke-dasharray:1,3;"/><path d="M801.2,21 L801.2,28.5 A2.5,2.5 0 0 0 803.7,31 L811.2,31" fill="#F0F8FF" style="stroke:#0000FF;stroke-width:1;stroke-dasharray:1,3;"/><text fill="#0000FF" font-family="sans-serif" font-size="14" font-weight="700" lengthAdjust="spacing" textLength="25.1836" x="765.6082" y="35.9951">file</text></g><!--cluster folderVeryLOOOOOOOOOOOOOOOOOOOg--><g class="cluster" data-qualified-name="folderVeryLOOOOOOOOOOOOOOOOOOOg" data-source-line="22" id="ent0015"><path d="M837.7,21 L885.6287,21 A3.75,3.75 0 0 1 888.1287,23.5 L895.1287,43.2969 L898.7,43.2969 A2.5,2.5 0 0 1 901.2,45.7969 L901.2,105.8 A2.5,2.5 0 0 1 898.7,108.3 L837.7,108.3 A2.5,2.5 0 0 1 835.2,105.8 L835.2,23.5 A2.5,2.5 0 0 1 837.7,21" fill="#F0F8FF" style="stroke:#0000FF;stroke-width:1;stroke-dasharray:1,3;"/><line style="stroke:#0000FF;stroke-width:1;stroke-dasharray:1,3;" x1="835.2" x2="895.1287" y1="43.2969" y2="43.2969"/><text fill="#0000FF" font-family="sans-serif" font-size="14" font-weight="700" lengthAdjust="spacing" textLength="46.9287" x="839.2" y="35.9951">folder</text></g><!--cluster frameVeryLOOOOOOOOOOOOOOOOOOOg--><g class="cluster" data-qualified-name="frameVeryLOOOOOOOOOOOOOOOOOOOg" data-source-line="25" id="ent0017"><rect fill="#F0F8FF" height="87.3" rx="2.5" ry="2.5" style="stroke:#0000FF;stroke-width:1;stroke-dasharray:1,3;" width="66" x="925.2" y="21"/><path d="M981.7254,21 L981.7254,30.2969 L971.7254,40.2969 L925.2,40.2969" fill="none" style="stroke:#0000FF;stroke-width:1;stroke-dasharray:1,3;"/><text fill="#0000FF" font-family="sans-serif" font-size="14" font-weight="700" lengthAdjust="spacing" textLength="46.5254" x="928.2" y="34.9951">frame</text></g><!--cluster hexagonVeryLOOOOOOOOOOOOOOOOOOOg--><g class="cluster" data-qualified-name="hexagonVeryLOOOOOOOOOOOOOOOOOOOg" data-source-line="28" id="ent0019"><path d="M1015.2,64.65 L1025.575,21 L1087.825,21 L1098.2,64.65 L1087.825,108.3 L1025.575,108.3 L1015.2,64.65" fill="#F0F8FF" style="stroke:#0000FF;stroke-width:1;stroke-dasharray:1,3;"/><text fill="#0000FF" font-family="sans-serif" font-size="14" font-weight="700" lengthAdjust="spacing" textLength="67.5459" x="1022.9271" y="35.9951">hexagon</text></g><!--cluster nodeVeryLOOOOOOOOOOOOOOOOOOOg--><g class="cluster" data-qualified-name="nodeVeryLOOOOOOOOOOOOOOOOOOOg" data-source-line="31" id="ent0021"><polygon fill="#F0F8FF" points="1122.2,26,1132.2,16,1237.2,16,1237.2,98.3,1227.2,108.3,1122.2,108.3,1122.2,26" style="stroke:#0000FF;stroke-width:1;stroke-dasharray:1,3;"/><line style="stroke:#0000FF;stroke-width:1;stroke-dasharray:1,3;" x1="1227.2" x2="1237.2" y1="26" y2="16"/><line style="stroke:#0000FF;stroke-width:1;stroke-dasharray:1,3;" x1="1122.2" x2="1227.2" y1="26" y2="26"/><line style="stroke:#0000FF;stroke-width:1;stroke-dasharray:1,3;" x1="1227.2" x2="1227.2" y1="26" y2="108.3"/><text fill="#0000FF" font-family="sans-serif" font-size="14" font-weight="700" lengthAdjust="spacing" textLength="39.1016" x="1156.1492" y="41.9951">node</text></g><!--cluster packageVeryLOOOOOOOOOOOOOOOOOOOg--><g class="cluster" data-qualified-name="packageVeryLOOOOOOOOOOOOOOOOOOOg" data-source-line="34" id="ent0023"><path d="M1263.7,21 L1330.742,21 A3.75,3.75 0 0 1 1333.242,23.5 L1340.242,43.2969 L1340.7,43.2969 A2.5,2.5 0 0 1 1343.2,45.7969 L1343.2,105.8 A2.5,2.5 0 0 1 1340.7,108.3 L1263.7,108.3 A2.5,2.5 0 0 1 1261.2,105.8 L1261.2,23.5 A2.5,2.5 0 0 1 1263.7,21" fill="#F0F8FF" style="stroke:#0000FF;stroke-width:1;stroke-dasharray:1,3;"/><line style="stroke:#0000FF;stroke-width:1;stroke-dasharray:1,3;" x1="1261.2" x2="1340.242" y1="43.2969" y2="43.2969"/><text fill="#0000FF" font-family="sans-serif" font-size="14" font-weight="700" lengthAdjust="spacing" textLength="66.042" x="1265.2" y="35.9951">package</text></g><!--cluster queueVeryLOOOOOOOOOOOOOOOOOOOg--><g class="cluster" data-qualified-name="queueVeryLOOOOOOOOOOOOOOOOOOOg" data-source-line="40" id="ent0026"><path d="M1372.2,21 L1436.2,21 C1441.2,21 1441.2,64.65 1441.2,64.65 C1441.2,64.65 1441.2,108.3 1436.2,108.3 L1372.2,108.3 C1367.2,108.3 1367.2,64.65 1367.2,64.65 C1367.2,64.65 1367.2,21 1372.2,21" fill="#F0F8FF" style="stroke:#0000FF;stroke-width:1;stroke-dasharray:1,3;"/><path d="M1436.2,21 C1431.2,21 1431.2,64.65 1431.2,64.65 C1431.2,108.3 1436.2,108.3 1436.2,108.3" fill="none" style="stroke:#0000FF;stroke-width:1;stroke-dasharray:1,3;"/><text fill="#0000FF" font-family="sans-serif" font-size="14" font-weight="700" lengthAdjust="spacing" textLength="48.9453" x="1379.7273" y="35.9951">queue</text></g><!--cluster rectangleVeryLOOOOOOOOOOOOOOOOOOOg--><g class="cluster" data-qualified-name="rectangleVeryLOOOOOOOOOOOOOOOOOOOg" data-source-line="43" id="ent0028"><rect fill="#F0F8FF" height="87.3" rx="2.5" ry="2.5" style="stroke:#0000FF;stroke-width:1;stroke-dasharray:1,3;" width="91" x="1465.2" y="21"/><text fill="#0000FF" font-family="sans-serif" font-size="14" font-weight="700" lengthAdjust="spacing" textLength="75.1201" x="1473.1399" y="35.9951">rectangle</text></g><!--cluster stackVeryLOOOOOOOOOOOOOOOOOOOg--><g class="cluster" data-qualified-name="stackVeryLOOOOOOOOOOOOOOOOOOOg" data-source-line="46" id="ent0030"><rect fill="#F0F8FF" height="87.3" rx="2.5" ry="2.5" style="stroke:none;stroke-width:1;stroke-dasharray:1,3;" width="44" x="1595.2" y="21"/><path d="M1580.2,21 L1592.7,21 A2.5,2.5 0 0 1 1595.2,23.5 L1595.2,105.8 A2.5,2.5 0 0 0 1597.7,108.3 L1636.7,108.3 A2.5,2.5 0 0 0 1639.2,105.8 L1639.2,23.5 A2.5,2.5 0 0 1 1641.7,21 L1654.2,21" fill="none" style="stroke:#0000FF;stroke-width:1;stroke-dasharray:1,3;"/><text fill="#0000FF" font-family="sans-serif" font-size="14" font-weight="700" lengthAdjust="spacing" textLength="42.082" x="1596.159" y="46.9951">stack</text></g><!--cluster storageVeryLOOOOOOOOOOOOOOOOOOOg--><g class="cluster" data-qualified-name="storageVeryLOOOOOOOOOOOOOOOOOOOg" data-source-line="49" id="ent0032"><rect fill="#F0F8FF" height="87.3" rx="35" ry="35" style="stroke:#0000FF;stroke-width:1;stroke-dasharray:1,3;" width="76" x="1678.2" y="21"/><text fill="#0000FF" font-family="sans-serif" font-size="14" font-weight="700" lengthAdjust="spacing" textLength="60.5117" x="1685.9441" y="40.9951">storage</text></g><!--entity f1--><g class="entity" data-qualified-name="actionVeryLOOOOOOOOOOOOOOOOOOOg.f1" data-source-line="2" id="ent0003"><path d="M251.29,58.5 L251.29,89.7969 A2.5,2.5 0 0 0 253.79,92.2969 L282.6259,92.2969 A2.5,2.5 0 0 0 285.1259,89.7969 L285.1259,66 L275.1259,56 L253.79,56 A2.5,2.5 0 0 0 251.29,58.5" fill="#F1F1F1" style="stroke:#181818;stroke-width:0.5;"/><path d="M275.1259,56 L275.1259,63.5 A2.5,2.5 0 0 0 277.6259,66 L285.1259,66" fill="#F1F1F1" style="stroke:#181818;stroke-width:0.5;"/><text fill="#000000" font-family="sans-serif" font-size="14" lengthAdjust="spacing" textLength="13.8359" x="261.29" y="78.9951">f1</text></g><!--entity artifactVeryLOOOOOOOOOOOOOOOOOOOg--><g class="entity" data-qualified-name="artifactVeryLOOOOOOOOOOOOOOOOOOOg" data-source-line="4" id="ent0004"><rect fill="#F0F8FF" height="39.2969" rx="2.5" ry="2.5" style="stroke:#0000FF;stroke-width:1;stroke-dasharray:1,3;" width="80.4082" x="7" y="54.5"/><polygon fill="#F0F8FF" points="70.4082,59.5,70.4082,73.5,82.4082,73.5,82.4082,65.5,76.4082,59.5,70.4082,59.5" style="stroke:#0000FF;stroke-width:1;stroke-dasharray:1,3;"/><line style="stroke:#0000FF;stroke-width:1;stroke-dasharray:1,3;" x1="76.4082" x2="76.4082" y1="59.5" y2="65.5"/><line style="stroke:#0000FF;stroke-width:1;stroke-dasharray:1,3;" x1="82.4082" x2="76.4082" y1="65.5" y2="65.5"/><text fill="#0000FF" font-family="sans-serif" font-size="14" lengthAdjust="spacing" textLength="50.4082" x="17" y="80.4951">artifact</text></g><!--entity f2--><g class="entity" data-qualified-name="cardVeryLOOOOOOOOOOOOOOOOOOOg.f2" data-source-line="8" id="ent0006"><path d="M341.29,58.5 L341.29,89.7969 A2.5,2.5 0 0 0 343.79,92.2969 L372.6259,92.2969 A2.5,2.5 0 0 0 375.1259,89.7969 L375.1259,66 L365.1259,56 L343.79,56 A2.5,2.5 0 0 0 341.29,58.5" fill="#F1F1F1" style="stroke:#181818;stroke-width:0.5;"/><path d="M365.1259,56 L365.1259,63.5 A2.5,2.5 0 0 0 367.6259,66 L375.1259,66" fill="#F1F1F1" style="stroke:#181818;stroke-width:0.5;"/><text fill="#000000" font-family="sans-serif" font-size="14" lengthAdjust="spacing" textLength="13.8359" x="351.29" y="78.9951">f2</text></g><!--entity f3--><g class="entity" data-qualified-name="cloudVeryLOOOOOOOOOOOOOOOOOOOg.f3" data-source-line="11" id="ent0008"><path d="M431.29,58.5 L431.29,89.7969 A2.5,2.5 0 0 0 433.79,92.2969 L462.6259,92.2969 A2.5,2.5 0 0 0 465.1259,89.7969 L465.1259,66 L455.1259,56 L433.79,56 A2.5,2.5 0 0 0 431.29,58.5" fill="#F1F1F1" style="stroke:#181818;stroke-width:0.5;"/><path d="M455.1259,56 L455.1259,63.5 A2.5,2.5 0 0 0 457.6259,66 L465.1259,66" fill="#F1F1F1" style="stroke:#181818;stroke-width:0.5;"/><text fill="#000000" font-family="sans-serif" font-size="14" lengthAdjust="spacing" textLength="13.8359" x="441.29" y="78.9951">f3</text></g><!--entity f4--><g class="entity" data-qualified-name="componentVeryLOOOOOOOOOOOOOOOOOOOg.f4" data-source-line="14" id="ent0010"><path d="M540.29,58.5 L540.29,89.7969 A2.5,2.5 0 0 0 542.79,92.2969 L571.6259,92.2969 A2.5,2.5 0 0 0 574.1259,89.7969 L574.1259,66 L564.1259,56 L542.79,56 A2.5,2.5 0 0 0 540.29,58.5" fill="#F1F1F1" style="stroke:#181818;stroke-width:0.5;"/><path d="M564.1259,56 L564.1259,63.5 A2.5,2.5 0 0 0 566.6259,66 L574.1259,66" fill="#F1F1F1" style="stroke:#181818;stroke-width:0.5;"/><text fill="#000000" font-family="sans-serif" font-size="14" lengthAdjust="spacing" textLength="13.8359" x="550.29" y="78.9951">f4</text></g><!--entity f5--><g class="entity" data-qualified-name="databaseVeryLOOOOOOOOOOOOOOOOOOOg.f5" data-source-line="17" id="ent0012"><path d="M660.29,58.5 L660.29,89.7969 A2.5,2.5 0 0 0 662.79,92.2969 L691.6259,92.2969 A2.5,2.5 0 0 0 694.1259,89.7969 L694.1259,66 L684.1259,56 L662.79,56 A2.5,2.5 0 0 0 660.29,58.5" fill="#F1F1F1" style="stroke:#181818;stroke-width:0.5;"/><path d="M684.1259,56 L684.1259,63.5 A2.5,2.5 0 0 0 686.6259,66 L694.1259,66" fill="#F1F1F1" style="stroke:#181818;stroke-width:0.5;"/><text fill="#000000" font-family="sans-serif" font-size="14" lengthAdjust="spacing" textLength="13.8359" x="670.29" y="78.9951">f5</text></g><!--entity f6--><g class="entity" data-qualified-name="fileVeryLOOOOOOOOOOOOOOOOOOOg.f6" data-source-line="20" id="ent0014"><path d="M761.29,58.5 L761.29,89.7969 A2.5,2.5 0 0 0 763.79,92.2969 L792.6259,92.2969 A2.5,2.5 0 0 0 795.1259,89.7969 L795.1259,66 L785.1259,56 L763.79,56 A2.5,2.5 0 0 0 761.29,58.5" fill="#F1F1F1" style="stroke:#181818;stroke-width:0.5;"/><path d="M785.1259,56 L785.1259,63.5 A2.5,2.5 0 0 0 787.6259,66 L795.1259,66" fill="#F1F1F1" style="stroke:#181818;stroke-width:0.5;"/><text fill="#000000" font-family="sans-serif" font-size="14" lengthAdjust="spacing" textLength="13.8359" x="771.29" y="78.9951">f6</text></g><!--entity f7--><g class="entity" data-qualified-name="folderVeryLOOOOOOOOOOOOOOOOOOOg.f7" data-source-line="23" id="ent0016"><path d="M851.29,58.5 L851.29,89.7969 A2.5,2.5 0 0 0 853.79,92.2969 L882.6259,92.2969 A2.5,2.5 0 0 0 885.1259,89.7969 L885.1259,66 L875.1259,56 L853.79,56 A2.5,2.5 0 0 0 851.29,58.5" fill="#F1F1F1" style="stroke:#181818;stroke-width:0.5;"/><path d="M875.1259,56 L875.1259,63.5 A2.5,2.5 0 0 0 877.6259,66 L885.1259,66" fill="#F1F1F1" style="stroke:#181818;stroke-width:0.5;"/><text fill="#000000" font-family="sans-serif" font-size="14" lengthAdjust="spacing" textLength="13.8359" x="861.29" y="78.9951">f7</text></g><!--entity f8--><g class="entity" data-qualified-name="frameVeryLOOOOOOOOOOOOOOOOOOOg.f8" data-source-line="26" id="ent0018"><path d="M941.29,58.5 L941.29,89.7969 A2.5,2.5 0 0 0 943.79,92.2969 L972.6259,92.2969 A2.5,2.5 0 0 0 975.1259,89.7969 L975.1259,66 L965.1259,56 L943.79,56 A2.5,2.5 0 0 0 941.29,58.5" fill="#F1F1F1" style="stroke:#181818;stroke-width:0.5;"/><path d="M965.1259,56 L965.1259,63.5 A2.5,2.5 0 0 0 967.6259,66 L975.1259,66" fill="#F1F1F1" style="stroke:#181818;stroke-width:0.5;"/><text fill="#000000" font-family="sans-serif" font-size="14" lengthAdjust="spacing" textLength="13.8359" x="951.29" y="78.9951">f8</text></g><!--entity f9--><g class="entity" data-qualified-name="hexagonVeryLOOOOOOOOOOOOOOOOOOOg.f9" data-source-line="29" id="ent0020"><path d="M1039.29,58.5 L1039.29,89.7969 A2.5,2.5 0 0 0 1041.79,92.2969 L1070.6259,92.2969 A2.5,2.5 0 0 0 1073.1259,89.7969 L1073.1259,66 L1063.1259,56 L1041.79,56 A2.5,2.5 0 0 0 1039.29,58.5" fill="#F1F1F1" style="stroke:#181818;stroke-width:0.5;"/><path d="M1063.1259,56 L1063.1259,63.5 A2.5,2.5 0 0 0 1065.6259,66 L1073.1259,66" fill="#F1F1F1" style="stroke:#181818;stroke-width:0.5;"/><text fill="#000000" font-family="sans-serif" font-size="14" lengthAdjust="spacing" textLength="13.8359" x="1049.29" y="78.9951">f9</text></g><!--entity f10--><g class="entity" data-qualified-name="nodeVeryLOOOOOOOOOOOOOOOOOOOg.f10" data-source-line="32" id="ent0022"><path d="M1157.83,58.5 L1157.83,89.7969 A2.5,2.5 0 0 0 1160.33,92.2969 L1198.0732,92.2969 A2.5,2.5 0 0 0 1200.5732,89.7969 L1200.5732,66 L1190.5732,56 L1160.33,56 A2.5,2.5 0 0 0 1157.83,58.5" fill="#F1F1F1" style="stroke:#181818;stroke-width:0.5;"/><path d="M1190.5732,56 L1190.5732,63.5 A2.5,2.5 0 0 0 1193.0732,66 L1200.5732,66" fill="#F1F1F1" style="stroke:#181818;stroke-width:0.5;"/><text fill="#000000" font-family="sans-serif" font-size="14" lengthAdjust="spacing" textLength="22.7432" x="1167.83" y="78.9951">f10</text></g><!--entity f11--><g class="entity" data-qualified-name="packageVeryLOOOOOOOOOOOOOOOOOOOg.f11" data-source-line="35" id="ent0024"><path d="M1280.83,58.5 L1280.83,89.7969 A2.5,2.5 0 0 0 1283.33,92.2969 L1321.0732,92.2969 A2.5,2.5 0 0 0 1323.5732,89.7969 L1323.5732,66 L1313.5732,56 L1283.33,56 A2.5,2.5 0 0 0 1280.83,58.5" fill="#F1F1F1" style="stroke:#181818;stroke-width:0.5;"/><path d="M1313.5732,56 L1313.5732,63.5 A2.5,2.5 0 0 0 1316.0732,66 L1323.5732,66" fill="#F1F1F1" style="stroke:#181818;stroke-width:0.5;"/><text fill="#000000" font-family="sans-serif" font-size="14" lengthAdjust="spacing" textLength="22.7432" x="1290.83" y="78.9951">f11</text></g><!--entity processVeryLOOOOOOOOOOOOOOOOOOOg--><g class="entity" data-qualified-name="processVeryLOOOOOOOOOOOOOOOOOOOg" data-source-line="37" id="ent0025"><polygon fill="#F0F8FF" points="122.15,56,206.2564,56,216.2564,74.1484,206.2564,92.2969,122.15,92.2969,132.15,74.1484" style="stroke:#0000FF;stroke-width:1;stroke-dasharray:1,3;"/><text fill="#0000FF" font-family="sans-serif" font-size="14" lengthAdjust="spacing" textLength="54.1064" x="142.15" y="78.9951">process</text></g><!--entity f12--><g class="entity" data-qualified-name="queueVeryLOOOOOOOOOOOOOOOOOOOg.f12" data-source-line="41" id="ent0027"><path d="M1382.83,58.5 L1382.83,89.7969 A2.5,2.5 0 0 0 1385.33,92.2969 L1423.0732,92.2969 A2.5,2.5 0 0 0 1425.5732,89.7969 L1425.5732,66 L1415.5732,56 L1385.33,56 A2.5,2.5 0 0 0 1382.83,58.5" fill="#F1F1F1" style="stroke:#181818;stroke-width:0.5;"/><path d="M1415.5732,56 L1415.5732,63.5 A2.5,2.5 0 0 0 1418.0732,66 L1425.5732,66" fill="#F1F1F1" style="stroke:#181818;stroke-width:0.5;"/><text fill="#000000" font-family="sans-serif" font-size="14" lengthAdjust="spacing" textLength="22.7432" x="1392.83" y="78.9951">f12</text></g><!--entity f13--><g class="entity" data-qualified-name="rectangleVeryLOOOOOOOOOOOOOOOOOOOg.f13" data-source-line="44" id="ent0029"><path d="M1488.83,58.5 L1488.83,89.7969 A2.5,2.5 0 0 0 1491.33,92.2969 L1529.0732,92.2969 A2.5,2.5 0 0 0 1531.5732,89.7969 L1531.5732,66 L1521.5732,56 L1491.33,56 A2.5,2.5 0 0 0 1488.83,58.5" fill="#F1F1F1" style="stroke:#181818;stroke-width:0.5;"/><path d="M1521.5732,56 L1521.5732,63.5 A2.5,2.5 0 0 0 1524.0732,66 L1531.5732,66" fill="#F1F1F1" style="stroke:#181818;stroke-width:0.5;"/><text fill="#000000" font-family="sans-serif" font-size="14" lengthAdjust="spacing" textLength="22.7432" x="1498.83" y="78.9951">f13</text></g><!--entity f14--><g class="entity" data-qualified-name="stackVeryLOOOOOOOOOOOOOOOOOOOg.f14" data-source-line="47" id="ent0031"><path d="M1595.83,58.5 L1595.83,89.7969 A2.5,2.5 0 0 0 1598.33,92.2969 L1636.0732,92.2969 A2.5,2.5 0 0 0 1638.5732,89.7969 L1638.5732,66 L1628.5732,56 L1598.33,56 A2.5,2.5 0 0 0 1595.83,58.5" fill="#F1F1F1" style="stroke:#181818;stroke-width:0.5;"/><path d="M1628.5732,56 L1628.5732,63.5 A2.5,2.5 0 0 0 1631.0732,66 L1638.5732,66" fill="#F1F1F1" style="stroke:#181818;stroke-width:0.5;"/><text fill="#000000" font-family="sans-serif" font-size="14" lengthAdjust="spacing" textLength="22.7432" x="1605.83" y="78.9951">f14</text></g><!--entity f15--><g class="entity" data-qualified-name="storageVeryLOOOOOOOOOOOOOOOOOOOg.f15" data-source-line="50" id="ent0033"><path d="M1694.83,58.5 L1694.83,89.7969 A2.5,2.5 0 0 0 1697.33,92.2969 L1735.0732,92.2969 A2.5,2.5 0 0 0 1737.5732,89.7969 L1737.5732,66 L1727.5732,56 L1697.33,56 A2.5,2.5 0 0 0 1694.83,58.5" fill="#F1F1F1" style="stroke:#181818;stroke-width:0.5;"/><path d="M1727.5732,56 L1727.5732,63.5 A2.5,2.5 0 0 0 1730.0732,66 L1737.5732,66" fill="#F1F1F1" style="stroke:#181818;stroke-width:0.5;"/><text fill="#000000" font-family="sans-serif" font-size="14" lengthAdjust="spacing" textLength="22.7432" x="1704.83" y="78.9951">f15</text></g><?plantuml-src dPJBQiGm34Nt-OemtPS-fg-PNoXqrxt6KTBGJ9mw3amf_VTQifnD8JRIwX0kESYo1SRtTgovWFaTtVVhs__g93JNknZSrLSmz0PFmuB7eH_niD9rOxt7vkZnulbh_LEr_O1rUrlzLk1ytuP_yE-4DwtibA3QQi0rjHHnfizefQ3AU4V6mIv9oPnJif62AkKzAUrviYEETBOhRsbPcO8gxJve6_1mWXcfYSJPYQQWoleGh4nIn4KJfQ3A-4X6EpJenCXSy5fYKELy8gU3SsgJkUGMSL2bV0xA3xn09rj1U5jAIWcgf2z1EjfcdIPnqJGfgDi8Dq4vWVc4Bbg5ytrAK6UbHJGvQt2UepLoWJK6zTQl1PTqlimbruY3EYSjG8V6mzZnArqvjutMeCvBMt3sOKRI1dD9hnpKEVVij2xT9U7yL2MeiuOL-0S0?></g></svg>