<svg xmlns="http://www.w3.org/2000/svg" width="500.0" height="1480.0">
  <g stroke="#333333" fill="none" stroke-width="1.5">
    <path d="M 400.0 120.0 C 400.0 160.0, 400.0 160.0, 400.0 200.0" stroke="#333333" fill="none"/>
    <polygon points="396.0,194.0 404.0,194.0 400.0,200.0" fill="#333333" stroke="none"/>
    <path d="M 400.0 240.0 C 400.0 280.0, 400.0 280.0, 400.0 320.0" stroke="#333333" fill="none"/>
    <polygon points="396.0,314.0 404.0,314.0 400.0,320.0" fill="#333333" stroke="none"/>
    <path d="M 400.0 360.0 C 400.0 400.0, 400.0 400.0, 400.0 440.0" stroke="#333333" fill="none"/>
    <polygon points="396.0,434.0 404.0,434.0 400.0,440.0" fill="#333333" stroke="none"/>
    <path d="M 400.0 480.0 C 400.0 520.0, 400.0 520.0, 400.0 560.0" stroke="#333333" fill="none"/>
    <polygon points="396.0,554.0 404.0,554.0 400.0,560.0" fill="#333333" stroke="none"/>
    <path d="M 400.0 600.0 C 400.0 640.0, 400.0 640.0, 400.0 680.0" stroke="#333333" fill="none"/>
    <polygon points="396.0,674.0 404.0,674.0 400.0,680.0" fill="#333333" stroke="none"/>
    <path d="M 400.0 720.0 C 400.0 760.0, 400.0 760.0, 400.0 800.0" stroke="#333333" fill="none"/>
    <polygon points="396.0,794.0 404.0,794.0 400.0,800.0" fill="#333333" stroke="none"/>
    <path d="M 400.0 840.0 C 400.0 880.0, 400.0 880.0, 400.0 920.0" stroke="#333333" fill="none"/>
    <polygon points="396.0,914.0 404.0,914.0 400.0,920.0" fill="#333333" stroke="none"/>
    <path d="M 400.0 960.0 C 400.0 1000.0, 400.0 1000.0, 400.0 1040.0" stroke="#333333" fill="none"/>
    <polygon points="396.0,1034.0 404.0,1034.0 400.0,1040.0" fill="#333333" stroke="none"/>
    <path d="M 400.0 1080.0 C 400.0 1120.0, 400.0 1120.0, 400.0 1160.0" stroke="#333333" fill="none"/>
    <polygon points="396.0,1154.0 404.0,1154.0 400.0,1160.0" fill="#333333" stroke="none"/>
    <path d="M 400.0 1200.0 C 400.0 1240.0, 400.0 1240.0, 400.0 1280.0" stroke="#333333" fill="none"/>
    <polygon points="396.0,1274.0 404.0,1274.0 400.0,1280.0" fill="#333333" stroke="none"/>
    <path d="M 400.0 1320.0 C 400.0 1360.0, 400.0 1360.0, 400.0 1400.0" stroke="#333333" fill="none"/>
    <polygon points="396.0,1394.0 404.0,1394.0 400.0,1400.0" fill="#333333" stroke="none"/>
  </g>
  <g font-family="sans-serif" font-size="14" text-anchor="middle">
    <rect x="340.0" y="80.0" width="120.0" height="40.0" rx="10" ry="10" fill="#f0f0f0" stroke="#333333" stroke-width="1.5"/>
    <text x="400.0" y="100.0" dy="5" fill="#000000">user</text>
    <rect x="340.0" y="200.0" width="120.0" height="40.0" rx="10" ry="10" fill="#f0f0f0" stroke="#333333" stroke-width="1.5"/>
    <text x="400.0" y="220.0" dy="5" fill="#000000">-left-&gt;</text>
    <circle cx="400.0" cy="340.0" r="15" fill="#f0f0f0" stroke="#333333" stroke-width="2"/>
    <text x="400.0" y="340.0" dy="5" fill="#000000">dummyLeft</text>
    <rect x="340.0" y="440.0" width="120.0" height="40.0" rx="10" ry="10" fill="#f0f0f0" stroke="#333333" stroke-width="1.5"/>
    <text x="400.0" y="460.0" dy="5" fill="#000000">user</text>
    <rect x="340.0" y="560.0" width="120.0" height="40.0" rx="10" ry="10" fill="#f0f0f0" stroke="#333333" stroke-width="1.5"/>
    <text x="400.0" y="580.0" dy="5" fill="#000000">-right-&gt;</text>
    <circle cx="400.0" cy="700.0" r="15" fill="#f0f0f0" stroke="#333333" stroke-width="2"/>
    <text x="400.0" y="700.0" dy="5" fill="#000000">dummyRight</text>
    <rect x="340.0" y="800.0" width="120.0" height="40.0" rx="10" ry="10" fill="#f0f0f0" stroke="#333333" stroke-width="1.5"/>
    <text x="400.0" y="820.0" dy="5" fill="#000000">user</text>
    <rect x="340.0" y="920.0" width="120.0" height="40.0" rx="10" ry="10" fill="#f0f0f0" stroke="#333333" stroke-width="1.5"/>
    <text x="400.0" y="940.0" dy="5" fill="#000000">-up-&gt;</text>
    <circle cx="400.0" cy="1060.0" r="15" fill="#f0f0f0" stroke="#333333" stroke-width="2"/>
    <text x="400.0" y="1060.0" dy="5" fill="#000000">dummyUp</text>
    <rect x="340.0" y="1160.0" width="120.0" height="40.0" rx="10" ry="10" fill="#f0f0f0" stroke="#333333" stroke-width="1.5"/>
    <text x="400.0" y="1180.0" dy="5" fill="#000000">user</text>
    <rect x="340.0" y="1280.0" width="120.0" height="40.0" rx="10" ry="10" fill="#f0f0f0" stroke="#333333" stroke-width="1.5"/>
    <text x="400.0" y="1300.0" dy="5" fill="#000000">-down-&gt;</text>
    <circle cx="400.0" cy="1420.0" r="15" fill="#f0f0f0" stroke="#333333" stroke-width="2"/>
    <text x="400.0" y="1420.0" dy="5" fill="#000000">dummyDown</text>
  </g>
</svg>
