<svg xmlns="http://www.w3.org/2000/svg" width="640.0" height="2.576980378E11">
  <g stroke="#333333" fill="none" stroke-width="1.5">
    <path d="M 400.0 120.0 C 400.0 160.0, 400.0 160.0, 400.0 200.0" stroke="#333333" fill="none"/>
    <polygon points="396.0,194.0 404.0,194.0 400.0,200.0" fill="#333333" stroke="none"/>
    <path d="M 400.0 240.0 C 400.0 1.2884901892E11, 400.0 1.2884901892E11, 400.0 2.576980376E11" stroke="#333333" fill="none"/>
    <polygon points="396.0,2.57698037594E11 404.0,2.57698037594E11 400.0,2.576980376E11" fill="#333333" stroke="none"/>
    <path d="M 400.0 2.5769803764E11 C 400.0 2.5769803768E11, 260.0 2.5769803768E11, 260.0 2.5769803772E11" stroke="#333333" fill="none"/>
    <polygon points="256.0,2.57698037714E11 264.0,2.57698037714E11 260.0,2.5769803772E11" fill="#333333" stroke="none"/>
    <path d="M 260.0 2.5769803776E11 C 260.0 2.5769803756E11, 260.0 2.5769803756E11, 260.0 2.5769803736E11" stroke="#333333" fill="none"/>
    <polygon points="256.0,2.57698037354E11 264.0,2.57698037354E11 260.0,2.5769803736E11" fill="#333333" stroke="none"/>
    <path d="M 260.0 2.576980374E11 C 260.0 2.5769803744E11, 400.0 2.5769803744E11, 400.0 2.5769803748E11" stroke="#333333" fill="none"/>
    <polygon points="396.0,2.57698037474E11 404.0,2.57698037474E11 400.0,2.5769803748E11" fill="#333333" stroke="none"/>
    <path d="M 400.0 2.5769803752E11 C 400.0 2.5769803756E11, 400.0 2.5769803756E11, 400.0 2.576980376E11" stroke="#333333" fill="none"/>
    <polygon points="396.0,2.57698037594E11 404.0,2.57698037594E11 400.0,2.576980376E11" fill="#333333" stroke="none"/>
    <path d="M 400.0 2.5769803764E11 C 400.0 2.5769803768E11, 540.0 2.5769803768E11, 540.0 2.5769803772E11" stroke="#333333" fill="none"/>
    <polygon points="536.0,2.57698037714E11 544.0,2.57698037714E11 540.0,2.5769803772E11" fill="#333333" stroke="none"/>
    <path d="M 540.0 2.5769803776E11 C 540.0 2.5769803756E11, 540.0 2.5769803756E11, 540.0 2.5769803736E11" stroke="#333333" fill="none"/>
    <polygon points="536.0,2.57698037354E11 544.0,2.57698037354E11 540.0,2.5769803736E11" fill="#333333" stroke="none"/>
  </g>
  <g font-family="sans-serif" font-size="14" text-anchor="middle">
    <rect x="340.0" y="80.0" width="120.0" height="40.0" rx="10" ry="10" fill="#f0f0f0" stroke="#333333" stroke-width="1.5"/>
    <text x="400.0" y="100.0" dy="5" fill="#000000">User</text>
    <rect x="340.0" y="200.0" width="120.0" height="40.0" rx="10" ry="10" fill="#f0f0f0" stroke="#333333" stroke-width="1.5"/>
    <text x="400.0" y="220.0" dy="5" fill="#000000"></text>
    <circle cx="400.0" cy="2.5769803762E11" r="15" fill="#f0f0f0" stroke="#333333" stroke-width="2"/>
    <text x="400.0" y="2.5769803762E11" dy="5" fill="#000000">Use</text>
    <rect x="200.0" y="2.5769803772E11" width="120.0" height="40.0" rx="0" ry="0" fill="#f0f0f0" stroke="#333333" stroke-width="1.5"/>
    <text x="260.0" y="2.5769803774E11" dy="5" fill="#000000">legacy</text>
    <rect x="200.0" y="2.5769803736E11" width="120.0" height="40.0" rx="0" ry="0" fill="#f0f0f0" stroke="#333333" stroke-width="1.5"/>
    <text x="260.0" y="2.5769803738E11" dy="5" fill="#000000">legacy</text>
    <rect x="340.0" y="2.5769803748E11" width="120.0" height="40.0" rx="0" ry="0" fill="#f0f0f0" stroke="#333333" stroke-width="1.5"/>
    <text x="400.0" y="2.576980375E11" dy="5" fill="#000000">legacy</text>
    <rect x="480.0" y="2.5769803772E11" width="120.0" height="40.0" rx="0" ry="0" fill="#f0f0f0" stroke="#333333" stroke-width="1.5"/>
    <text x="540.0" y="2.5769803774E11" dy="5" fill="#000000">legacy</text>
    <rect x="480.0" y="2.5769803736E11" width="120.0" height="40.0" rx="0" ry="0" fill="#f0f0f0" stroke="#333333" stroke-width="1.5"/>
    <text x="540.0" y="2.5769803738E11" dy="5" fill="#000000">legacy</text>
  </g>
</svg>
