<svg xmlns="http://www.w3.org/2000/svg" xmlns:xlink="http://www.w3.org/1999/xlink" contentStyleType="text/css" data-diagram-type="MINDMAP" height="179px" preserveAspectRatio="none" style="width:226px;height:179px;background:#FFFFFF;" version="1.1" viewBox="0 0 226 179" width="226px" zoomAndPan="magnify"><?plantuml 1.2026.3beta5?><defs/><g><rect fill="#F1F1F1" height="36.2969" rx="12.5" ry="12.5" style="stroke:#181818;stroke-width:1.5;" width="28.9072" x="93.3608" y="132.5938"/><text fill="#000000" font-family="sans-serif" font-size="14" lengthAdjust="spacing" textLength="8.9072" x="103.3608" y="155.5889">1</text><rect fill="#F1F1F1" height="36.2969" rx="12.5" ry="12.5" style="stroke:#181818;stroke-width:1.5;" width="28.9072" x="44.4536" y="71.2969"/><text fill="#000000" font-family="sans-serif" font-size="14" lengthAdjust="spacing" textLength="8.9072" x="54.4536" y="94.292">2</text><rect fill="#F1F1F1" height="36.2969" rx="12.5" ry="12.5" style="stroke:#181818;stroke-width:1.5;" width="28.9072" x="20" y="10"/><text fill="#000000" font-family="sans-serif" font-size="14" lengthAdjust="spacing" textLength="8.9072" x="30" y="32.9951">4</text><path d="M58.9072,71.2969 L58.9072,68.2969 C58.9072,61.2969 34.4536,56.2969 34.4536,49.2969 L34.4536,46.2969" fill="none" style="stroke:#181818;stroke-width:1;"/><rect fill="#F1F1F1" height="36.2969" rx="12.5" ry="12.5" style="stroke:#181818;stroke-width:1.5;" width="28.9072" x="68.9072" y="10"/><text fill="#000000" font-family="sans-serif" font-size="14" lengthAdjust="spacing" textLength="8.9072" x="78.9072" y="32.9951">5</text><path d="M58.9072,71.2969 L58.9072,68.2969 C58.9072,61.2969 83.3608,56.2969 83.3608,49.2969 L83.3608,46.2969" fill="none" style="stroke:#181818;stroke-width:1;"/><path d="M107.8145,132.5938 L107.8145,129.5938 C107.8145,122.5938 58.9072,117.5938 58.9072,110.5938 L58.9072,107.5938" fill="none" style="stroke:#181818;stroke-width:1;"/><rect fill="#F1F1F1" height="36.2969" rx="12.5" ry="12.5" style="stroke:#181818;stroke-width:1.5;" width="28.9072" x="142.2681" y="71.2969"/><text fill="#000000" font-family="sans-serif" font-size="14" lengthAdjust="spacing" textLength="8.9072" x="152.2681" y="94.292">3</text><rect fill="#F1F1F1" height="36.2969" rx="12.5" ry="12.5" style="stroke:#181818;stroke-width:1.5;" width="28.9072" x="117.8145" y="10"/><text fill="#000000" font-family="sans-serif" font-size="14" lengthAdjust="spacing" textLength="8.9072" x="127.8145" y="32.9951">6</text><path d="M156.7217,71.2969 L156.7217,68.2969 C156.7217,61.2969 132.2681,56.2969 132.2681,49.2969 L132.2681,46.2969" fill="none" style="stroke:#181818;stroke-width:1;"/><rect fill="#F1F1F1" height="36.2969" rx="12.5" ry="12.5" style="stroke:#181818;stroke-width:1.5;" width="28.9072" x="166.7217" y="10"/><text fill="#000000" font-family="sans-serif" font-size="14" lengthAdjust="spacing" textLength="8.9072" x="176.7217" y="32.9951">7</text><path d="M156.7217,71.2969 L156.7217,68.2969 C156.7217,61.2969 181.1753,56.2969 181.1753,49.2969 L181.1753,46.2969" fill="none" style="stroke:#181818;stroke-width:1;"/><path d="M107.8145,132.5938 L107.8145,129.5938 C107.8145,122.5938 156.7217,117.5938 156.7217,110.5938 L156.7217,107.5938" fill="none" style="stroke:#181818;stroke-width:1;"/><?plantuml-src BSmx3e0W48JXVa-nDGKHVBLS1MLDICGrCFUFIco-JARuGqEiAFbA9Tu4lHdAcm9QEEKgEx9UTCe1RZa96NPa3FiNmrDt_ewnpwMxKf2tzpV9MJ_unOwR8CuF?></g></svg>