<svg xmlns="http://www.w3.org/2000/svg" xmlns:xlink="http://www.w3.org/1999/xlink" contentStyleType="text/css" data-diagram-type="MINDMAP" height="161px" preserveAspectRatio="none" style="width:452px;height:161px;background:#FFFFFF;" version="1.1" viewBox="0 0 452 161" width="452px" zoomAndPan="magnify"><?plantuml 1.2026.3beta5?><defs/><g><rect fill="#F1F1F1" height="36.2969" rx="12.5" ry="12.5" style="stroke:#181818;stroke-width:1.5;" width="59.498" x="178.7588" y="62.2227"/><text fill="#000000" font-family="sans-serif" font-size="14" lengthAdjust="spacing" textLength="39.498" x="188.7588" y="85.2178">count</text><rect fill="#F1F1F1" height="36.2969" rx="12.5" ry="12.5" style="stroke:#181818;stroke-width:1.5;" width="46.7217" x="288.2568" y="48.1484"/><text fill="#000000" font-family="sans-serif" font-size="14" lengthAdjust="spacing" textLength="26.7217" x="298.2568" y="71.1436">100</text><rect fill="#F1F1F1" height="36.2969" rx="12.5" ry="12.5" style="stroke:#181818;stroke-width:1.5;" width="46.7217" x="384.9785" y="20"/><text fill="#000000" font-family="sans-serif" font-size="14" lengthAdjust="spacing" textLength="26.7217" x="394.9785" y="42.9951">101</text><path d="M334.9785,66.2969 L344.9785,66.2969 C359.9785,66.2969 359.9785,38.1484 374.9785,38.1484 L384.9785,38.1484" fill="none" style="stroke:#181818;stroke-width:1;"/><rect fill="#F1F1F1" height="36.2969" rx="12.5" ry="12.5" style="stroke:#181818;stroke-width:1.5;" width="46.7217" x="384.9785" y="76.2969"/><text fill="#000000" font-family="sans-serif" font-size="14" lengthAdjust="spacing" textLength="26.7217" x="394.9785" y="99.292">102</text><path d="M334.9785,66.2969 L344.9785,66.2969 C359.9785,66.2969 359.9785,94.4453 374.9785,94.4453 L384.9785,94.4453" fill="none" style="stroke:#181818;stroke-width:1;"/><path d="M238.2568,80.3711 L248.2568,80.3711 C263.2568,80.3711 263.2568,66.2969 278.2568,66.2969 L288.2568,66.2969" fill="none" style="stroke:#181818;stroke-width:1;"/><rect fill="#F1F1F1" height="36.2969" rx="12.5" ry="12.5" style="stroke:#181818;stroke-width:1.5;" width="46.7217" x="288.2568" y="104.4453"/><text fill="#000000" font-family="sans-serif" font-size="14" lengthAdjust="spacing" textLength="26.7217" x="298.2568" y="127.4404">200</text><path d="M238.2568,80.3711 L248.2568,80.3711 C263.2568,80.3711 263.2568,122.5938 278.2568,122.5938 L288.2568,122.5938" fill="none" style="stroke:#181818;stroke-width:1;"/><rect fill="#F1F1F1" height="36.2969" rx="12.5" ry="12.5" style="stroke:#181818;stroke-width:1.5;" width="29.5771" x="99.1816" y="48.1484"/><text fill="#000000" font-family="sans-serif" font-size="14" lengthAdjust="spacing" textLength="9.5771" x="109.1816" y="71.1436">A</text><rect fill="#F1F1F1" height="36.2969" rx="12.5" ry="12.5" style="stroke:#181818;stroke-width:1.5;" width="39.1543" x="10.0273" y="20"/><text fill="#000000" font-family="sans-serif" font-size="14" lengthAdjust="spacing" textLength="19.1543" x="20.0273" y="42.9951">AA</text><path d="M99.1816,66.2969 L89.1816,66.2969 C74.1816,66.2969 74.1816,38.1484 59.1816,38.1484 L49.1816,38.1484" fill="none" style="stroke:#181818;stroke-width:1;"/><rect fill="#F1F1F1" height="36.2969" rx="12.5" ry="12.5" style="stroke:#181818;stroke-width:1.5;" width="39.1816" x="10" y="76.2969"/><text fill="#000000" font-family="sans-serif" font-size="14" lengthAdjust="spacing" textLength="19.1816" x="20" y="99.292">AB</text><path d="M99.1816,66.2969 L89.1816,66.2969 C74.1816,66.2969 74.1816,94.4453 59.1816,94.4453 L49.1816,94.4453" fill="none" style="stroke:#181818;stroke-width:1;"/><path d="M178.7588,80.3711 L168.7588,80.3711 C153.7588,80.3711 153.7588,66.2969 138.7588,66.2969 L128.7588,66.2969" fill="none" style="stroke:#181818;stroke-width:1;"/><rect fill="#F1F1F1" height="36.2969" rx="12.5" ry="12.5" style="stroke:#181818;stroke-width:1.5;" width="29.6045" x="99.1543" y="104.4453"/><text fill="#000000" font-family="sans-serif" font-size="14" lengthAdjust="spacing" textLength="9.6045" x="109.1543" y="127.4404">B</text><path d="M178.7588,80.3711 L168.7588,80.3711 C153.7588,80.3711 153.7588,122.5938 138.7588,122.5938 L128.7588,122.5938" fill="none" style="stroke:#181818;stroke-width:1;"/><?plantuml-src SoWkIImgoStCIybDBE3IKaZEByqhuTBIKZ0qC01I8DeGIXk1X8s0mbmvgMab2iMPAQbS8257iBmZb7822JbnEQG2JOIQocMePsHWPAPdd9HQacWA0000?></g></svg>