<svg xmlns="http://www.w3.org/2000/svg" xmlns:xlink="http://www.w3.org/1999/xlink" contentStyleType="text/css" data-diagram-type="MINDMAP" height="564px" preserveAspectRatio="none" style="width:630px;height:564px;background:#FFFFFF;" version="1.1" viewBox="0 0 630 564" width="630px" zoomAndPan="magnify"><?plantuml 1.2026.3beta5?><defs/><g><g class="header" data-source-line="17"><text fill="#888888" font-family="sans-serif" font-size="10" lengthAdjust="spacing" textLength="84.292" x="534.0524" y="19.2822">My super header</text></g><g class="title" data-source-line="2"><text fill="#000000" font-family="sans-serif" font-size="14" font-weight="700" lengthAdjust="spacing" textLength="110.0039" x="259.1702" y="45.6357">My super title</text></g><rect fill="#F1F1F1" height="36.2969" rx="12.5" ry="12.5" style="stroke:#181818;stroke-width:1.5;" width="80.9554" x="10" y="238.8281"/><path d="M21,252.2917 L21,261.625 L22.1667,261.625 L22.1667,252.2917 L21,252.2917 M23.3333,252.2917 L23.3333,256.9583 L25.6667,256.9583 L25.6667,258.125 L30.3333,258.125 L28,255.8267 L30.3333,253.4583 L26.8333,253.4583 L26.8333,252.2917 L23.3333,252.2917" fill="#000000"/><text fill="#000000" font-family="sans-serif" font-size="14" lengthAdjust="spacing" textLength="49.6221" x="31.3333" y="261.8232">Debian</text><rect fill="#F1F1F1" height="36.2969" rx="12.5" ry="12.5" style="stroke:#181818;stroke-width:1.5;" width="82.5755" x="140.9554" y="154.3828"/><path d="M156.6221,167.8464 C154.0437,167.8464 151.9554,169.9347 151.9554,172.513 C151.9554,175.0914 154.0437,177.1797 156.6221,177.1797 C159.2004,177.1797 161.2887,175.0914 161.2887,172.513 C161.2887,169.9347 159.2004,167.8464 156.6221,167.8464 M156.6221,169.013 C157.0071,169.013 157.3687,169.118 157.7187,169.2347 C157.4737,169.468 157.1937,169.678 157.2404,169.888 C157.2871,170.098 158.0454,170.0397 158.0454,170.4714 C158.0454,170.7864 157.5554,170.8797 157.8937,171.2414 C158.3021,171.6497 157.1471,172.3847 157.1237,172.9214 C157.0887,173.8897 158.1037,174.053 158.9087,174.053 C159.3987,174.053 159.5271,174.2864 159.4921,174.5664 C158.8621,175.4647 157.7887,176.0247 156.6104,176.0247 C156.1671,176.0247 155.7587,175.9197 155.3737,175.768 C155.6304,175.2547 155.0471,174.2397 154.4987,173.913 C154.2304,173.6447 153.6587,173.7497 153.3321,173.6214 C153.2271,173.3064 153.1221,172.9914 153.1104,172.6414 C153.1454,172.583 153.2037,172.5364 153.2971,172.5364 C153.5187,172.5364 153.8221,172.9797 153.9854,172.933 C154.1954,172.8864 153.1221,171.4047 153.6237,171.113 C153.8571,170.973 154.3237,171.568 154.1721,170.9264 C154.0321,170.3314 154.5921,170.5997 154.9421,170.448 C155.2454,170.3197 155.4671,169.9697 155.0937,169.7597 C155.0237,169.7247 154.9421,169.643 154.8371,169.538 C155.3621,169.223 155.9687,169.0247 156.6221,169.0247 M159.3171,170.2847 C159.5271,170.5414 159.6904,170.8214 159.8304,171.1247 C159.8304,171.1364 159.8304,171.148 159.8304,171.1597 C159.7837,171.2414 159.7021,171.288 159.5737,171.4164 C159.2471,171.743 159.2004,171.1714 159.0604,171.0547 C158.9087,170.9147 158.3604,171.078 158.2904,170.903 C158.2087,170.693 158.8737,170.413 159.3171,170.2847" fill="#000000"/><text fill="#000000" font-family="sans-serif" font-size="14" lengthAdjust="spacing" textLength="51.2422" x="162.2887" y="177.3779">Ubuntu</text><rect fill="#F1F1F1" height="36.2969" rx="12.5" ry="12.5" style="stroke:#181818;stroke-width:1.5;" width="92.502" x="273.5309" y="69.9375"/><text fill="#000000" font-family="sans-serif" font-size="14" lengthAdjust="spacing" textLength="72.502" x="283.5309" y="92.9326">Linux Mint</text><path d="M223.5309,172.5313 L233.5309,172.5313 C248.5309,172.5313 248.5309,88.0859 263.5309,88.0859 L273.5309,88.0859" fill="none" style="stroke:#181818;stroke-width:1;"/><rect fill="#F1F1F1" height="36.2969" rx="12.5" ry="12.5" style="stroke:#181818;stroke-width:1.5;" width="79.0488" x="273.5309" y="126.2344"/><text fill="#000000" font-family="sans-serif" font-size="14" lengthAdjust="spacing" textLength="59.0488" x="283.5309" y="149.2295">Kubuntu</text><path d="M223.5309,172.5313 L233.5309,172.5313 C248.5309,172.5313 248.5309,144.3828 263.5309,144.3828 L273.5309,144.3828" fill="none" style="stroke:#181818;stroke-width:1;"/><rect fill="#F1F1F1" height="36.2969" rx="12.5" ry="12.5" style="stroke:#181818;stroke-width:1.5;" width="77.668" x="273.5309" y="182.5313"/><text fill="#000000" font-family="sans-serif" font-size="14" lengthAdjust="spacing" textLength="57.668" x="283.5309" y="205.5264">Lubuntu</text><path d="M223.5309,172.5313 L233.5309,172.5313 C248.5309,172.5313 248.5309,200.6797 263.5309,200.6797 L273.5309,200.6797" fill="none" style="stroke:#181818;stroke-width:1;"/><rect fill="#F1F1F1" height="36.2969" rx="12.5" ry="12.5" style="stroke:#181818;stroke-width:1.5;" width="89.7813" x="273.5309" y="238.8281"/><text fill="#000000" font-family="sans-serif" font-size="14" lengthAdjust="spacing" textLength="69.7813" x="283.5309" y="261.8232">KDE Neon</text><path d="M223.5309,172.5313 L233.5309,172.5313 C248.5309,172.5313 248.5309,256.9766 263.5309,256.9766 L273.5309,256.9766" fill="none" style="stroke:#181818;stroke-width:1;"/><path d="M90.9554,256.9766 L100.9554,256.9766 C115.9554,256.9766 115.9554,172.5313 130.9554,172.5313 L140.9554,172.5313" fill="none" style="stroke:#181818;stroke-width:1;"/><rect fill="#F1F1F1" height="36.2969" rx="12.5" ry="12.5" style="stroke:#181818;stroke-width:1.5;" width="70.8382" x="140.9554" y="210.6797"/><path d="M160.1571,224.1432 L156.6221,227.6432 L155.4554,226.4766 L151.9554,230.0116 L153.1221,231.1782 L155.4554,228.8099 L156.6221,229.9766 L161.2887,225.3099 L160.1571,224.1432 M151.9554,232.3099 L151.9554,233.4766 L161.2887,233.4766 L161.2887,232.3099 L151.9554,232.3099" fill="#000000"/><text fill="#000000" font-family="sans-serif" font-size="14" lengthAdjust="spacing" textLength="39.5049" x="162.2887" y="233.6748">LMDE</text><path d="M90.9554,256.9766 L100.9554,256.9766 C115.9554,256.9766 115.9554,228.8281 130.9554,228.8281 L140.9554,228.8281" fill="none" style="stroke:#181818;stroke-width:1;"/><rect fill="#F1F1F1" height="36.2969" rx="12.5" ry="12.5" style="stroke:#181818;stroke-width:1.5;" width="88.6185" x="140.9554" y="266.9766"/><path d="M155.7471,280.4401 L155.1987,282.2251 L154.2887,285.2118 L154.2537,285.1418 L154.1487,284.7451 L151.9554,284.7451 L151.9554,285.9118 L153.3087,285.9118 L153.7521,287.2651 L154.3004,288.9801 L154.8487,287.2301 L155.7587,284.3134 L156.6687,287.2301 L157.1471,288.7934 L157.7654,287.3001 L158.4537,285.5851 L158.6054,285.9118 L161.3004,285.9118 L161.3004,284.7451 L159.3287,284.7451 L158.8854,283.8701 L158.3021,282.7384 L157.8237,283.9401 L157.2754,285.3284 L156.2954,282.2251 L155.7471,280.4401" fill="#000000"/><text fill="#000000" font-family="sans-serif" font-size="14" lengthAdjust="spacing" textLength="57.2852" x="162.2887" y="289.9717">SolydXK</text><path d="M90.9554,256.9766 L100.9554,256.9766 C115.9554,256.9766 115.9554,285.125 130.9554,285.125 L140.9554,285.125" fill="none" style="stroke:#181818;stroke-width:1;"/><rect fill="#F1F1F1" height="36.2969" rx="12.5" ry="12.5" style="stroke:#181818;stroke-width:1.5;" width="96.4456" x="140.9554" y="323.2734"/><path d="M158.3721,336.737 C157.7771,336.737 157.2637,337.1453 156.9487,337.7636 C157.4737,338.3936 157.7887,339.257 157.7887,340.2486 C157.7887,340.587 157.7537,340.8903 157.6837,341.1936 C157.9054,341.322 158.1271,341.4153 158.3721,341.4153 C159.3404,341.4153 160.1221,340.3653 160.1221,339.082 C160.1221,337.7986 159.3404,336.7486 158.3721,336.7486 M154.8721,337.9036 C153.9037,337.9036 153.1221,338.9536 153.1221,340.237 C153.1221,341.5203 153.9037,342.5703 154.8721,342.5703 C155.8404,342.5703 156.6221,341.5203 156.6221,340.237 C156.6221,338.9536 155.8404,337.9036 154.8721,337.9036 M160.4137,341.5903 C159.9121,342.1853 159.2237,342.547 158.4421,342.5703 C158.7571,343.0136 158.9554,343.5503 158.9554,344.1336 L158.9554,344.9036 L161.2887,344.9036 L161.2887,342.967 C161.2887,342.3603 160.9271,341.8353 160.4137,341.5786 M152.8304,342.757 C152.3171,343.0136 151.9554,343.5386 151.9554,344.1453 L151.9554,346.082 L157.7887,346.082 L157.7887,344.1453 C157.7887,343.5386 157.4271,343.0136 156.9137,342.757 C156.3887,343.3753 155.6771,343.737 154.8721,343.737 C154.0671,343.737 153.3554,343.3636 152.8304,342.757" fill="#000000"/><text fill="#000000" font-family="sans-serif" font-size="14" lengthAdjust="spacing" textLength="65.1123" x="162.2887" y="346.2686">SteamOS</text><path d="M90.9554,256.9766 L100.9554,256.9766 C115.9554,256.9766 115.9554,341.4219 130.9554,341.4219 L140.9554,341.4219" fill="none" style="stroke:#181818;stroke-width:1;"/><rect fill="#F1F1F1" height="36.2969" rx="12.5" ry="12.5" style="stroke:#181818;stroke-width:1.5;" width="257.4388" x="140.9554" y="379.5703"/><path d="M156.6221,393.0339 L155.4554,396.5339 L151.9554,396.5339 L154.8721,398.8672 L153.7054,402.3672 L156.6221,400.0339 L159.5387,402.3672 L158.3721,398.8672 L161.2887,396.5339 L157.7887,396.5339 L156.6221,393.0339" fill="#000000"/><text fill="#000000" font-family="sans-serif" font-size="14" lengthAdjust="spacing" textLength="226.1055" x="162.2887" y="402.5654">Raspbian with a very long name</text><rect fill="#F1F1F1" height="36.2969" rx="12.5" ry="12.5" style="stroke:#181818;stroke-width:1.5;" width="158.8311" x="448.3942" y="351.4219"/><text fill="#000000" font-family="sans-serif" font-size="14" lengthAdjust="spacing" text-decoration="line-through" textLength="64.709" x="458.3942" y="374.417">Raspmbc</text><text fill="#000000" font-family="sans-serif" font-size="14" lengthAdjust="spacing" textLength="69.6719" x="527.5534" y="374.417">=&gt; OSMC</text><path d="M398.3942,397.7188 L408.3942,397.7188 C423.3942,397.7188 423.3942,369.5703 438.3942,369.5703 L448.3942,369.5703" fill="none" style="stroke:#181818;stroke-width:1;"/><rect fill="#F1F1F1" height="36.2969" rx="12.5" ry="12.5" style="stroke:#181818;stroke-width:1.5;" width="160.9502" x="448.3942" y="407.7188"/><text fill="#000000" font-family="sans-serif" font-size="14" lengthAdjust="spacing" text-decoration="line-through" textLength="51.5908" x="458.3942" y="430.7139">Raspyfi</text><text fill="#000000" font-family="sans-serif" font-size="14" lengthAdjust="spacing" textLength="84.9092" x="514.4352" y="430.7139">=&gt; Volumio</text><path d="M398.3942,397.7188 L408.3942,397.7188 C423.3942,397.7188 423.3942,425.8672 438.3942,425.8672 L448.3942,425.8672" fill="none" style="stroke:#181818;stroke-width:1;"/><path d="M90.9554,256.9766 L100.9554,256.9766 C115.9554,256.9766 115.9554,397.7188 130.9554,397.7188 L140.9554,397.7188" fill="none" style="stroke:#181818;stroke-width:1;"/><g class="legend" data-source-line="23"><rect fill="#DDDDDD" height="42.5938" rx="7.5" ry="7.5" style="stroke:#000000;stroke-width:1;" width="57.7627" x="548.5817" y="466.0156"/><text fill="#000000" font-family="sans-serif" font-size="14" lengthAdjust="spacing" textLength="37.5703" x="553.5817" y="484.0107">Short</text><text fill="#000000" font-family="sans-serif" font-size="14" lengthAdjust="spacing" textLength="47.7627" x="553.5817" y="500.3076">legend</text></g><g class="caption" data-source-line="1"><text fill="#000000" font-family="sans-serif" font-size="14" lengthAdjust="spacing" textLength="54.3047" x="287.0199" y="535.6045">figure 1</text></g><g class="footer" data-source-line="21"><text fill="#888888" font-family="sans-serif" font-size="10" lengthAdjust="spacing" textLength="79.0039" x="274.6702" y="550.1885">My super footer</text></g><?plantuml-src JP7BJiCm44NtynMpOf55eKMm2bQbfgiqL282iNMIYMF9iIq_WFmzULRTUEuzTpH-7NtWBlHIDpstK7CRfD7OIX4TuHw238gm6D17Imvd2v1W-j0gBbX6bUGQaWa8PIfYdrNK8OuamOlKyGyBgSDiytWNtUayE-CxcMsAuxPZbo8xBzv6vOcLHWtDTxuYCbQDB13lh-N2fbkm3-xjT1xybQ53ZZ_a1bH62zIyftcprCzTVLMdZvxX6yDhMPpkew6LM_HbLEob0UY8D-JWzWoh9zsi2chIOGnQOwPoQrmyW28nDgEJeWk0M7R6JNN1qvnL7STb-mlOxmvFXzVTSqM1l_m3?></g></svg>