<svg xmlns="http://www.w3.org/2000/svg" xmlns:xlink="http://www.w3.org/1999/xlink" contentStyleType="text/css" data-diagram-type="MINDMAP" height="246px" preserveAspectRatio="none" style="width:217px;height:246px;background:#FFFFFF;" version="1.1" viewBox="0 0 217 246" width="217px" zoomAndPan="magnify"><?plantuml 1.2026.3beta5?><defs/><g><rect fill="#F1F1F1" height="36.2969" rx="12.5" ry="12.5" style="stroke:#181818;stroke-width:1.5;" width="28.9072" x="10" y="104.4453"/><text fill="#000000" font-family="sans-serif" font-size="14" lengthAdjust="spacing" textLength="8.9072" x="20" y="127.4404">1</text><rect fill="#F1F1F1" height="36.2969" rx="12.5" ry="12.5" style="stroke:#181818;stroke-width:1.5;" width="28.9072" x="88.9072" y="48.1484"/><text fill="#000000" font-family="sans-serif" font-size="14" lengthAdjust="spacing" textLength="8.9072" x="98.9072" y="71.1436">2</text><rect fill="#F1F1F1" height="36.2969" rx="12.5" ry="12.5" style="stroke:#181818;stroke-width:1.5;" width="28.9072" x="167.8145" y="20"/><text fill="#000000" font-family="sans-serif" font-size="14" lengthAdjust="spacing" textLength="8.9072" x="177.8145" y="42.9951">4</text><path d="M117.8145,66.2969 L127.8145,66.2969 C142.8145,66.2969 142.8145,38.1484 157.8145,38.1484 L167.8145,38.1484" fill="none" style="stroke:#181818;stroke-width:1;"/><rect fill="#F1F1F1" height="36.2969" rx="12.5" ry="12.5" style="stroke:#181818;stroke-width:1.5;" width="28.9072" x="167.8145" y="76.2969"/><text fill="#000000" font-family="sans-serif" font-size="14" lengthAdjust="spacing" textLength="8.9072" x="177.8145" y="99.292">5</text><path d="M117.8145,66.2969 L127.8145,66.2969 C142.8145,66.2969 142.8145,94.4453 157.8145,94.4453 L167.8145,94.4453" fill="none" style="stroke:#181818;stroke-width:1;"/><path d="M38.9072,122.5938 L48.9072,122.5938 C63.9072,122.5938 63.9072,66.2969 78.9072,66.2969 L88.9072,66.2969" fill="none" style="stroke:#181818;stroke-width:1;"/><rect fill="#F1F1F1" height="36.2969" rx="12.5" ry="12.5" style="stroke:#181818;stroke-width:1.5;" width="28.9072" x="88.9072" y="160.7422"/><text fill="#000000" font-family="sans-serif" font-size="14" lengthAdjust="spacing" textLength="8.9072" x="98.9072" y="183.7373">3</text><rect fill="#F1F1F1" height="36.2969" rx="12.5" ry="12.5" style="stroke:#181818;stroke-width:1.5;" width="28.9072" x="167.8145" y="132.5938"/><text fill="#000000" font-family="sans-serif" font-size="14" lengthAdjust="spacing" textLength="8.9072" x="177.8145" y="155.5889">6</text><path d="M117.8145,178.8906 L127.8145,178.8906 C142.8145,178.8906 142.8145,150.7422 157.8145,150.7422 L167.8145,150.7422" fill="none" style="stroke:#181818;stroke-width:1;"/><rect fill="#F1F1F1" height="36.2969" rx="12.5" ry="12.5" style="stroke:#181818;stroke-width:1.5;" width="28.9072" x="167.8145" y="188.8906"/><text fill="#000000" font-family="sans-serif" font-size="14" lengthAdjust="spacing" textLength="8.9072" x="177.8145" y="211.8857">7</text><path d="M117.8145,178.8906 L127.8145,178.8906 C142.8145,178.8906 142.8145,207.0391 157.8145,207.0391 L167.8145,207.0391" fill="none" style="stroke:#181818;stroke-width:1;"/><path d="M38.9072,122.5938 L48.9072,122.5938 C63.9072,122.5938 63.9072,178.8906 78.9072,178.8906 L88.9072,178.8906" fill="none" style="stroke:#181818;stroke-width:1;"/><?plantuml-src SoWkIImgoStCIybDBE3IKZ3aqj9IC08IMWecOD8K960CPfg1INCkXrIWQgWEBaCz8mCZCptZfDIIH5C0?></g></svg>