<svg xmlns="http://www.w3.org/2000/svg" xmlns:xlink="http://www.w3.org/1999/xlink" contentStyleType="text/css" data-diagram-type="MINDMAP" height="246px" preserveAspectRatio="none" style="width:211px;height:246px;background:#FFFFFF;" version="1.1" viewBox="0 0 211 246" width="211px" zoomAndPan="magnify"><?plantuml 1.2026.3beta5?><defs/><g><rect fill="#F1F1F1" height="36.2969" rx="12.5" ry="12.5" style="stroke:#181818;stroke-width:1.5;" width="65.7051" x="10" y="48.1484"/><text fill="#000000" font-family="sans-serif" font-size="14" lengthAdjust="spacing" textLength="45.7051" x="20" y="71.1436">Root 1</text><rect fill="#F1F1F1" height="36.2969" rx="12.5" ry="12.5" style="stroke:#181818;stroke-width:1.5;" width="45.1836" x="125.7051" y="20"/><text fill="#000000" font-family="sans-serif" font-size="14" lengthAdjust="spacing" textLength="25.1836" x="135.7051" y="42.9951">Foo</text><path d="M75.7051,66.2969 L85.7051,66.2969 C100.7051,66.2969 100.7051,38.1484 115.7051,38.1484 L125.7051,38.1484" fill="none" style="stroke:#181818;stroke-width:1;"/><rect fill="#F1F1F1" height="36.2969" rx="12.5" ry="12.5" style="stroke:#181818;stroke-width:1.5;" width="43.9395" x="125.7051" y="76.2969"/><text fill="#000000" font-family="sans-serif" font-size="14" lengthAdjust="spacing" textLength="23.9395" x="135.7051" y="99.292">Bar</text><path d="M75.7051,66.2969 L85.7051,66.2969 C100.7051,66.2969 100.7051,94.4453 115.7051,94.4453 L125.7051,94.4453" fill="none" style="stroke:#181818;stroke-width:1;"/><rect fill="#F1F1F1" height="36.2969" rx="12.5" ry="12.5" style="stroke:#181818;stroke-width:1.5;" width="65.7051" x="10" y="160.7422"/><text fill="#000000" font-family="sans-serif" font-size="14" lengthAdjust="spacing" textLength="45.7051" x="20" y="183.7373">Root 2</text><rect fill="#F1F1F1" height="36.2969" rx="12.5" ry="12.5" style="stroke:#181818;stroke-width:1.5;" width="64.3721" x="125.7051" y="132.5938"/><text fill="#000000" font-family="sans-serif" font-size="14" lengthAdjust="spacing" textLength="44.3721" x="135.7051" y="155.5889">Lorem</text><path d="M75.7051,178.8906 L85.7051,178.8906 C100.7051,178.8906 100.7051,150.7422 115.7051,150.7422 L125.7051,150.7422" fill="none" style="stroke:#181818;stroke-width:1;"/><rect fill="#F1F1F1" height="36.2969" rx="12.5" ry="12.5" style="stroke:#181818;stroke-width:1.5;" width="62.8203" x="125.7051" y="188.8906"/><text fill="#000000" font-family="sans-serif" font-size="14" lengthAdjust="spacing" textLength="42.8203" x="135.7051" y="211.8857">Ipsum</text><path d="M75.7051,178.8906 L85.7051,178.8906 C100.7051,178.8906 100.7051,207.0391 115.7051,207.0391 L125.7051,207.0391" fill="none" style="stroke:#181818;stroke-width:1;"/><?plantuml-src SoWkIImgoStCIybDBE3IKWZApozHCEJIqb9moyy7KKw9HJ1X8n3V9xyeDHV4y2meBitbSaW5weJgvZBKCp8mCjCpJaejIJG50000?></g></svg>