<svg xmlns="http://www.w3.org/2000/svg" xmlns:xlink="http://www.w3.org/1999/xlink" contentStyleType="text/css" data-diagram-type="MINDMAP" height="130px" preserveAspectRatio="none" style="width:541px;height:130px;background:#FFFFFF;" version="1.1" viewBox="0 0 541 130" width="541px" zoomAndPan="magnify"><?plantuml 1.2026.3beta5?><defs/><g><text fill="#000000" font-family="sans-serif" font-size="14" lengthAdjust="spacing" textLength="67.7646" x="13" y="69.7373">root node</text><text fill="#000000" font-family="sans-serif" font-size="14" lengthAdjust="spacing" textLength="147.0479" x="133.7646" y="60.5889">some first level node</text><text fill="#000000" font-family="sans-serif" font-size="14" lengthAdjust="spacing" textLength="127.0596" x="333.8125" y="23.9951">second level node</text><path d="M280.8125,55.7422 L290.8125,55.7422 C305.8125,55.7422 305.8125,19.1484 320.8125,19.1484 L330.8125,19.1484" fill="none" style="stroke:#181818;stroke-width:1;"/><text fill="#000000" font-family="sans-serif" font-size="14" lengthAdjust="spacing" textLength="186.2588" x="333.8125" y="42.292">another second level node</text><path d="M280.8125,55.7422 L290.8125,55.7422 C305.8125,55.7422 305.8125,37.4453 320.8125,37.4453 L330.8125,37.4453" fill="none" style="stroke:#181818;stroke-width:1;"/><text fill="#000000" font-family="sans-serif" font-size="14" lengthAdjust="spacing" textLength="22.0596" x="333.8125" y="60.5889">foo</text><path d="M280.8125,55.7422 L290.8125,55.7422 C305.8125,55.7422 305.8125,55.7422 320.8125,55.7422 L330.8125,55.7422" fill="none" style="stroke:#181818;stroke-width:1;"/><text fill="#000000" font-family="sans-serif" font-size="14" lengthAdjust="spacing" textLength="23.2217" x="333.8125" y="78.8857">bar</text><path d="M280.8125,55.7422 L290.8125,55.7422 C305.8125,55.7422 305.8125,74.0391 320.8125,74.0391 L330.8125,74.0391" fill="none" style="stroke:#181818;stroke-width:1;"/><text fill="#000000" font-family="sans-serif" font-size="14" lengthAdjust="spacing" textLength="45.2813" x="333.8125" y="97.1826">foobar</text><path d="M280.8125,55.7422 L290.8125,55.7422 C305.8125,55.7422 305.8125,92.3359 320.8125,92.3359 L330.8125,92.3359" fill="none" style="stroke:#181818;stroke-width:1;"/><path d="M80.7646,64.8906 L90.7646,64.8906 C105.7646,64.8906 105.7646,55.7422 120.7646,55.7422 L130.7646,55.7422" fill="none" style="stroke:#181818;stroke-width:1;"/><text fill="#000000" font-family="sans-serif" font-size="14" lengthAdjust="spacing" textLength="163.6865" x="133.7646" y="115.4795">another first level node</text><path d="M80.7646,64.8906 L90.7646,64.8906 C105.7646,64.8906 105.7646,110.6328 120.7646,110.6328 L130.7646,110.6328" fill="none" style="stroke:#181818;stroke-width:1;"/><?plantuml-src SoWkIImgoStCIybDBE3IYbSeoiylKSZBJqdbqWBoYlDpKnNICekAInHoKijISs0o8AdKvFoy50pXnBpyaepK8bpIQVdv44PIOX5S1C96wCMmq24Lw3we6xaCzOmCZCpqZ9DIIn9D0G00?></g></svg>