<svg xmlns="http://www.w3.org/2000/svg" xmlns:xlink="http://www.w3.org/1999/xlink" contentStyleType="text/css" data-diagram-type="MINDMAP" height="168px" preserveAspectRatio="none" style="width:575px;height:168px;background:#FFFFFF;" version="1.1" viewBox="0 0 575 168" width="575px" zoomAndPan="magnify"><?plantuml 1.2026.3beta5?><defs/><g><rect fill="#F1F1F1" height="36.2969" rx="12.5" ry="12.5" style="stroke:#181818;stroke-width:1.5;" width="87.7646" x="10" y="65.7422"/><text fill="#000000" font-family="sans-serif" font-size="14" lengthAdjust="spacing" textLength="67.7646" x="20" y="88.7373">root node</text><rect fill="#F1F1F1" height="36.2969" rx="12.5" ry="12.5" style="stroke:#181818;stroke-width:1.5;" width="167.0479" x="147.7646" y="37.5938"/><text fill="#000000" font-family="sans-serif" font-size="14" lengthAdjust="spacing" textLength="147.0479" x="157.7646" y="60.5889">some first level node</text><text fill="#000000" font-family="sans-serif" font-size="14" lengthAdjust="spacing" textLength="127.0596" x="367.8125" y="23.9951">second level node</text><path d="M314.8125,55.7422 L324.8125,55.7422 C339.8125,55.7422 339.8125,19.1484 354.8125,19.1484 L364.8125,19.1484" fill="none" style="stroke:#181818;stroke-width:1;"/><text fill="#000000" font-family="sans-serif" font-size="14" lengthAdjust="spacing" textLength="186.2588" x="367.8125" y="42.292">another second level node</text><path d="M314.8125,55.7422 L324.8125,55.7422 C339.8125,55.7422 339.8125,37.4453 354.8125,37.4453 L364.8125,37.4453" fill="none" style="stroke:#181818;stroke-width:1;"/><text fill="#000000" font-family="sans-serif" font-size="14" lengthAdjust="spacing" textLength="22.0596" x="367.8125" y="60.5889">foo</text><path d="M314.8125,55.7422 L324.8125,55.7422 C339.8125,55.7422 339.8125,55.7422 354.8125,55.7422 L364.8125,55.7422" fill="none" style="stroke:#181818;stroke-width:1;"/><text fill="#000000" font-family="sans-serif" font-size="14" lengthAdjust="spacing" textLength="23.2217" x="367.8125" y="78.8857">bar</text><path d="M314.8125,55.7422 L324.8125,55.7422 C339.8125,55.7422 339.8125,74.0391 354.8125,74.0391 L364.8125,74.0391" fill="none" style="stroke:#181818;stroke-width:1;"/><text fill="#000000" font-family="sans-serif" font-size="14" lengthAdjust="spacing" textLength="45.2813" x="367.8125" y="97.1826">foobar</text><path d="M314.8125,55.7422 L324.8125,55.7422 C339.8125,55.7422 339.8125,92.3359 354.8125,92.3359 L364.8125,92.3359" fill="none" style="stroke:#181818;stroke-width:1;"/><path d="M97.7646,83.8906 L107.7646,83.8906 C122.7646,83.8906 122.7646,55.7422 137.7646,55.7422 L147.7646,55.7422" fill="none" style="stroke:#181818;stroke-width:1;"/><rect fill="#F1F1F1" height="36.2969" rx="12.5" ry="12.5" style="stroke:#181818;stroke-width:1.5;" width="183.6865" x="147.7646" y="111.4844"/><text fill="#000000" font-family="sans-serif" font-size="14" lengthAdjust="spacing" textLength="163.6865" x="157.7646" y="134.4795">another first level node</text><path d="M97.7646,83.8906 L107.7646,83.8906 C122.7646,83.8906 122.7646,129.6328 137.7646,129.6328 L147.7646,129.6328" fill="none" style="stroke:#181818;stroke-width:1;"/><?plantuml-src TOvB2e0m34JtFKNMNOWVTDsRIBGHXRQHD7X-XQeRSJUynp3Zig9et9AFk1iBmgoGs9En5Z97WcMJh13eeF08EqAccPF_O4oiAycVNfXBc51UKl9R_UmvkixT1qrJjNKxLDr4Ylq9?></g></svg>