<svg xmlns="http://www.w3.org/2000/svg" xmlns:xlink="http://www.w3.org/1999/xlink" contentStyleType="text/css" data-diagram-type="MINDMAP" height="189px" preserveAspectRatio="none" style="width:592px;height:189px;background:#FFFFFF;" version="1.1" viewBox="0 0 592 189" width="592px" zoomAndPan="magnify"><?plantuml 1.2026.3beta5?><defs/><g><rect fill="#FFA500" height="36.2969" rx="12.5" ry="12.5" style="stroke:#181818;stroke-width:1.5;" width="87.7646" x="10" y="76.2969"/><text fill="#000000" font-family="sans-serif" font-size="14" lengthAdjust="spacing" textLength="67.7646" x="20" y="99.292">root node</text><rect fill="#90EE90" height="36.2969" rx="12.5" ry="12.5" style="stroke:#181818;stroke-width:1.5;" width="167.0479" x="147.7646" y="48.1484"/><text fill="#000000" font-family="sans-serif" font-size="14" lengthAdjust="spacing" textLength="147.0479" x="157.7646" y="71.1436">some first level node</text><rect fill="#FFBBCC" height="36.2969" rx="12.5" ry="12.5" style="stroke:#181818;stroke-width:1.5;" width="147.0596" x="364.8125" y="20"/><text fill="#000000" font-family="sans-serif" font-size="14" lengthAdjust="spacing" textLength="127.0596" x="374.8125" y="42.9951">second level node</text><path d="M314.8125,66.2969 L324.8125,66.2969 C339.8125,66.2969 339.8125,38.1484 354.8125,38.1484 L364.8125,38.1484" fill="none" style="stroke:#181818;stroke-width:1;"/><rect fill="#ADD8E6" height="36.2969" rx="12.5" ry="12.5" style="stroke:#181818;stroke-width:1.5;" width="206.2588" x="364.8125" y="76.2969"/><text fill="#000000" font-family="sans-serif" font-size="14" lengthAdjust="spacing" textLength="186.2588" x="374.8125" y="99.292">another second level node</text><path d="M314.8125,66.2969 L324.8125,66.2969 C339.8125,66.2969 339.8125,94.4453 354.8125,94.4453 L364.8125,94.4453" fill="none" style="stroke:#181818;stroke-width:1;"/><path d="M97.7646,94.4453 L107.7646,94.4453 C122.7646,94.4453 122.7646,66.2969 137.7646,66.2969 L147.7646,66.2969" fill="none" style="stroke:#181818;stroke-width:1;"/><rect fill="#90EE90" height="36.2969" rx="12.5" ry="12.5" style="stroke:#181818;stroke-width:1.5;" width="183.6865" x="147.7646" y="132.5938"/><text fill="#000000" font-family="sans-serif" font-size="14" lengthAdjust="spacing" textLength="163.6865" x="157.7646" y="155.5889">another first level node</text><path d="M97.7646,94.4453 L107.7646,94.4453 C122.7646,94.4453 122.7646,150.7422 137.7646,150.7422 L147.7646,150.7422" fill="none" style="stroke:#181818;stroke-width:1;"/><?plantuml-src RSun3i8m30NGFQUmnCPGGH7CLIjrvG2eGqfC6YcnaMDw_WPK5ifgF_t_cwnMD0LooJxD_hQxYYMF0mYp0h530-KQWv_K2o8Da3aXF89aXOWpnbMzMT-tRTSLWdScjtb_KiRuAl6MM2UKV_AdxYitZGsMqUjmSwpgGtsfJYEgFIy0?></g></svg>