<svg xmlns="http://www.w3.org/2000/svg" xmlns:xlink="http://www.w3.org/1999/xlink" contentStyleType="text/css" data-diagram-type="MINDMAP" height="133px" preserveAspectRatio="none" style="width:308px;height:133px;background:#FFFFFF;" version="1.1" viewBox="0 0 308 133" width="308px" zoomAndPan="magnify"><?plantuml 1.2026.3beta5?><defs/><g><rect fill="#FFA500" height="36.2969" rx="12.5" ry="12.5" style="stroke:#181818;stroke-width:1.5;" width="63.8457" x="110.9805" y="48.1484"/><text fill="#000000" font-family="sans-serif" font-size="14" lengthAdjust="spacing" textLength="43.8457" x="120.9805" y="71.1436">Colors</text><rect fill="#90EE90" height="36.2969" rx="12.5" ry="12.5" style="stroke:#181818;stroke-width:1.5;" width="62.7041" x="224.8262" y="20"/><text fill="#000000" font-family="sans-serif" font-size="14" lengthAdjust="spacing" textLength="42.7041" x="234.8262" y="42.9951">Green</text><path d="M174.8262,66.2969 L184.8262,66.2969 C199.8262,66.2969 199.8262,38.1484 214.8262,38.1484 L224.8262,38.1484" fill="none" style="stroke:#181818;stroke-width:1;"/><rect fill="#FFBBCC" height="36.2969" rx="12.5" ry="12.5" style="stroke:#181818;stroke-width:1.5;" width="54.2002" x="224.8262" y="76.2969"/><text fill="#000000" font-family="sans-serif" font-size="14" lengthAdjust="spacing" textLength="34.2002" x="234.8262" y="99.292">Rose</text><path d="M174.8262,66.2969 L184.8262,66.2969 C199.8262,66.2969 199.8262,94.4453 214.8262,94.4453 L224.8262,94.4453" fill="none" style="stroke:#181818;stroke-width:1;"/><rect fill="#ADD8E6" height="36.2969" rx="12.5" ry="12.5" style="stroke:#181818;stroke-width:1.5;" width="50.9805" x="10" y="48.1484"/><text fill="#000000" font-family="sans-serif" font-size="14" lengthAdjust="spacing" textLength="30.9805" x="20" y="71.1436">Blue</text><path d="M110.9805,66.2969 L100.9805,66.2969 C85.9805,66.2969 85.9805,66.2969 70.9805,66.2969 L60.9805,66.2969" fill="none" style="stroke:#181818;stroke-width:1;"/><?plantuml-src SoWkIImgoStCIybDBE3IZbRsBqhCIq-DLN3EpyalAkRI1WhbPAPdbAGNfQRcnIguWoYmg9kRavEpSwn2K7vnAfUkBbHPKaufKBCJaEHoI0KQ2ZMOor3FoC38JCyuARKaqHG0?></g></svg>