<svg xmlns="http://www.w3.org/2000/svg" xmlns:xlink="http://www.w3.org/1999/xlink" contentStyleType="text/css" data-diagram-type="MINDMAP" height="189px" preserveAspectRatio="none" style="width:207px;height:189px;background:#FFFFFF;" version="1.1" viewBox="0 0 207 189" width="207px" zoomAndPan="magnify"><?plantuml 1.2026.3beta5?><defs/><g><rect fill="#FFA500" height="36.2969" rx="12.5" ry="12.5" style="stroke:#181818;stroke-width:1.5;" width="63.8457" x="10" y="76.2969"/><text fill="#000000" font-family="sans-serif" font-size="14" lengthAdjust="spacing" textLength="43.8457" x="20" y="99.292">Colors</text><rect fill="#90EE90" height="36.2969" rx="12.5" ry="12.5" style="stroke:#181818;stroke-width:1.5;" width="62.7041" x="123.8457" y="20"/><text fill="#000000" font-family="sans-serif" font-size="14" lengthAdjust="spacing" textLength="42.7041" x="133.8457" y="42.9951">Green</text><path d="M73.8457,94.4453 L83.8457,94.4453 C98.8457,94.4453 98.8457,38.1484 113.8457,38.1484 L123.8457,38.1484" fill="none" style="stroke:#181818;stroke-width:1;"/><rect fill="#FFBBCC" height="36.2969" rx="12.5" ry="12.5" style="stroke:#181818;stroke-width:1.5;" width="54.2002" x="123.8457" y="76.2969"/><text fill="#000000" font-family="sans-serif" font-size="14" lengthAdjust="spacing" textLength="34.2002" x="133.8457" y="99.292">Rose</text><path d="M73.8457,94.4453 L83.8457,94.4453 C98.8457,94.4453 98.8457,94.4453 113.8457,94.4453 L123.8457,94.4453" fill="none" style="stroke:#181818;stroke-width:1;"/><rect fill="#ADD8E6" height="36.2969" rx="12.5" ry="12.5" style="stroke:#181818;stroke-width:1.5;" width="50.9805" x="123.8457" y="132.5938"/><text fill="#000000" font-family="sans-serif" font-size="14" lengthAdjust="spacing" textLength="30.9805" x="133.8457" y="155.5889">Blue</text><path d="M73.8457,94.4453 L83.8457,94.4453 C98.8457,94.4453 98.8457,150.7422 113.8457,150.7422 L123.8457,150.7422" fill="none" style="stroke:#181818;stroke-width:1;"/><?plantuml-src SoWkIImgoStCIybDBE3IYbRsBqhCIq-DLN3EpyalAkRI0WhbPAPdbAGNfQRcnIguWoYmg9kRavEpSwn2K7vnAa9PKaufKBCJaEHoI0KQ2ZMOor3FoC38JCyuARKaqHG0?></g></svg>