<svg xmlns="http://www.w3.org/2000/svg" xmlns:xlink="http://www.w3.org/1999/xlink" contentStyleType="text/css" data-diagram-type="MINDMAP" height="161px" preserveAspectRatio="none" style="width:268px;height:161px;background:#FFFFFF;" version="1.1" viewBox="0 0 268 161" width="268px" zoomAndPan="magnify"><?plantuml 1.2026.3beta5?><defs/><g><rect fill="#F1F1F1" height="36.2969" rx="12.5" ry="12.5" style="stroke:#181818;stroke-width:1.5;" width="48.376" x="10" y="62.2227"/><text fill="#000000" font-family="sans-serif" font-size="14" lengthAdjust="spacing" textLength="28.376" x="20" y="85.2178">root</text><rect fill="#90EE90" height="36.2969" rx="12.5" ry="12.5" style="stroke:#181818;stroke-width:1.5;" width="42.2441" x="108.376" y="48.1484"/><text fill="#000000" font-family="sans-serif" font-size="14" lengthAdjust="spacing" textLength="17.7939" x="118.376" y="71.1436">b1</text><rect fill="#90EE90" height="36.2969" rx="12.5" ry="12.5" style="stroke:#181818;stroke-width:1.5;" width="46.7012" x="200.6201" y="20"/><text fill="#000000" font-family="sans-serif" font-size="14" lengthAdjust="spacing" textLength="26.7012" x="210.6201" y="42.9951">b11</text><path d="M150.6201,66.2969 L160.6201,66.2969 C175.6201,66.2969 175.6201,38.1484 190.6201,38.1484 L200.6201,38.1484" fill="none" style="stroke:#181818;stroke-width:1;"/><rect fill="#90EE90" height="36.2969" rx="12.5" ry="12.5" style="stroke:#181818;stroke-width:1.5;" width="46.7012" x="200.6201" y="76.2969"/><text fill="#000000" font-family="sans-serif" font-size="14" lengthAdjust="spacing" textLength="26.7012" x="210.6201" y="99.292">b12</text><path d="M150.6201,66.2969 L160.6201,66.2969 C175.6201,66.2969 175.6201,94.4453 190.6201,94.4453 L200.6201,94.4453" fill="none" style="stroke:#181818;stroke-width:1;"/><path d="M58.376,80.3711 L68.376,80.3711 C83.376,80.3711 83.376,66.2969 98.376,66.2969 L108.376,66.2969" fill="none" style="stroke:#181818;stroke-width:1;"/><rect fill="#F1F1F1" height="36.2969" rx="12.5" ry="12.5" style="stroke:#181818;stroke-width:1.5;" width="37.7939" x="108.376" y="104.4453"/><text fill="#000000" font-family="sans-serif" font-size="14" lengthAdjust="spacing" textLength="17.7939" x="118.376" y="127.4404">b2</text><path d="M58.376,80.3711 L68.376,80.3711 C83.376,80.3711 83.376,122.5938 98.376,122.5938 L108.376,122.5938" fill="none" style="stroke:#181818;stroke-width:1;"/><?plantuml-src BOxD2i8m48Jl-nHxDX1DH4-X5FKDV8BKXXZCZspNGv6-kp7ajCn-myoC2rlY5FASx1lCmcjq0tHz2zQJJVW5H9dM-n_Yhad4YtsyF9LFdgyb5i8O_9CzEPShtc03i-zf0gaK1Y5mKcXC3negQ2_LhsuE3QEhvNqGAAaF-YoFasDx-W40?></g></svg>