<svg xmlns="http://www.w3.org/2000/svg" xmlns:xlink="http://www.w3.org/1999/xlink" contentStyleType="text/css" data-diagram-type="YAML" height="249px" preserveAspectRatio="none" style="width:568px;height:249px;background:#FFFFFF;" version="1.1" viewBox="0 0 568 249" width="568px" zoomAndPan="magnify"><?plantuml 1.2026.3beta5?><defs/><g><rect fill="#F1F1F1" height="142.0781" rx="5" ry="5" style="stroke:#F1F1F1;stroke-width:1.5;" width="254.8555" x="10" y="10"/><text fill="#000000" font-family="sans-serif" font-size="14" font-weight="700" lengthAdjust="spacing" textLength="0" x="15" y="12">doe</text><text fill="#000000" font-family="sans-serif" font-size="14" lengthAdjust="spacing" textLength="151.4092" x="108.4463" y="24.9951">a deer, a female deer</text><line style="stroke:#000000;stroke-width:1;" x1="103.4463" x2="103.4463" y1="10" y2="30.2969"/><line style="stroke:#000000;stroke-width:1;" x1="10" x2="264.8555" y1="30.2969" y2="30.2969"/><text fill="#000000" font-family="sans-serif" font-size="14" font-weight="700" lengthAdjust="spacing" textLength="0" x="15" y="32.2969">ray</text><text fill="#000000" font-family="sans-serif" font-size="14" lengthAdjust="spacing" textLength="144.7236" x="108.4463" y="45.292">a drop of golden sun</text><line style="stroke:#000000;stroke-width:1;" x1="103.4463" x2="103.4463" y1="30.2969" y2="50.5938"/><line style="stroke:#000000;stroke-width:1;" x1="10" x2="264.8555" y1="50.5938" y2="50.5938"/><text fill="#000000" font-family="sans-serif" font-size="14" font-weight="700" lengthAdjust="spacing" textLength="0" x="15" y="52.5938">pi</text><text fill="#000000" font-family="sans-serif" font-size="14" lengthAdjust="spacing" textLength="57.8936" x="108.4463" y="65.5889">3.14159</text><line style="stroke:#000000;stroke-width:1;" x1="103.4463" x2="103.4463" y1="50.5938" y2="70.8906"/><line style="stroke:#000000;stroke-width:1;" x1="10" x2="264.8555" y1="70.8906" y2="70.8906"/><text fill="#000000" font-family="sans-serif" font-size="14" font-weight="700" lengthAdjust="spacing" textLength="0" x="15" y="72.8906">xmas</text><text fill="#000000" font-family="sans-serif" font-size="14" lengthAdjust="spacing" textLength="28.7314" x="108.4463" y="85.8857">true</text><line style="stroke:#000000;stroke-width:1;" x1="103.4463" x2="103.4463" y1="70.8906" y2="91.1875"/><rect fill="#008000" height="20.2969" rx="2" ry="2" style="stroke:#008000;stroke-width:1;" width="252.8555" x="11.5" y="91.1875"/><line style="stroke:#000000;stroke-width:1;" x1="10" x2="264.8555" y1="91.1875" y2="91.1875"/><text fill="#FFFFFF" font-family="sans-serif" font-size="14" font-style="italic" lengthAdjust="spacing" textLength="83.4463" x="15" y="106.1826">french-hens</text><text fill="#FFFFFF" font-family="sans-serif" font-size="14" font-style="italic" lengthAdjust="spacing" textLength="8.9072" x="108.4463" y="106.1826">3</text><line style="stroke:#000000;stroke-width:1;" x1="103.4463" x2="103.4463" y1="91.1875" y2="111.4844"/><line style="stroke:#000000;stroke-width:1;" x1="10" x2="264.8555" y1="111.4844" y2="111.4844"/><text fill="#000000" font-family="sans-serif" font-size="14" font-weight="700" lengthAdjust="spacing" textLength="0" x="15" y="113.4844">calling-birds</text><text fill="#000000" font-family="sans-serif" font-size="14" lengthAdjust="spacing" textLength="13.3506" x="108.4463" y="126.4795">&#160;&#160;&#160;</text><line style="stroke:#000000;stroke-width:1;" x1="103.4463" x2="103.4463" y1="111.4844" y2="131.7813"/><line style="stroke:#000000;stroke-width:1;" x1="10" x2="264.8555" y1="131.7813" y2="131.7813"/><text fill="#000000" font-family="sans-serif" font-size="14" font-weight="700" lengthAdjust="spacing" textLength="0" x="15" y="133.7813">xmas-fifth-day</text><text fill="#000000" font-family="sans-serif" font-size="14" lengthAdjust="spacing" textLength="13.3506" x="108.4463" y="146.7764">&#160;&#160;&#160;</text><line style="stroke:#000000;stroke-width:1;" x1="103.4463" x2="103.4463" y1="131.7813" y2="152.0781"/><rect fill="none" height="142.0781" rx="5" ry="5" style="stroke:#000000;stroke-width:1.5;" width="254.8555" x="10" y="10"/><rect fill="#F1F1F1" height="81.1875" rx="5" ry="5" style="stroke:#F1F1F1;stroke-width:1.5;" width="55.8486" x="334" y="37.4453"/><text fill="#000000" font-family="sans-serif" font-size="14" lengthAdjust="spacing" textLength="34.6445" x="339" y="52.4404">huey</text><line style="stroke:#000000;stroke-width:1;" x1="334" x2="389.8486" y1="57.7422" y2="57.7422"/><text fill="#000000" font-family="sans-serif" font-size="14" lengthAdjust="spacing" textLength="45.8486" x="339" y="72.7373">dewey</text><line style="stroke:#000000;stroke-width:1;" x1="334" x2="389.8486" y1="78.0391" y2="78.0391"/><text fill="#000000" font-family="sans-serif" font-size="14" lengthAdjust="spacing" textLength="33.8311" x="339" y="93.0342">louie</text><line style="stroke:#000000;stroke-width:1;" x1="334" x2="389.8486" y1="98.3359" y2="98.3359"/><text fill="#000000" font-family="sans-serif" font-size="14" lengthAdjust="spacing" textLength="28.1846" x="339" y="113.3311">fred</text><rect fill="none" height="81.1875" rx="5" ry="5" style="stroke:#000000;stroke-width:1.5;" width="55.8486" x="334" y="37.4453"/><rect fill="#F1F1F1" height="101.4844" rx="5" ry="5" style="stroke:#F1F1F1;stroke-width:1.5;" width="120.1602" x="302" y="136.2969"/><text fill="#000000" font-family="sans-serif" font-size="14" font-weight="700" lengthAdjust="spacing" textLength="0" x="307" y="138.2969">calling-birds</text><text fill="#000000" font-family="sans-serif" font-size="14" lengthAdjust="spacing" textLength="28.123" x="389.0371" y="151.292">four</text><line style="stroke:#000000;stroke-width:1;" x1="384.0371" x2="384.0371" y1="136.2969" y2="156.5938"/><line style="stroke:#000000;stroke-width:1;" x1="302" x2="422.1602" y1="156.5938" y2="156.5938"/><text fill="#000000" font-family="sans-serif" font-size="14" font-weight="700" lengthAdjust="spacing" textLength="0" x="307" y="158.5938">french-hens</text><text fill="#000000" font-family="sans-serif" font-size="14" lengthAdjust="spacing" textLength="8.9072" x="389.0371" y="171.5889">3</text><line style="stroke:#000000;stroke-width:1;" x1="384.0371" x2="384.0371" y1="156.5938" y2="176.8906"/><line style="stroke:#000000;stroke-width:1;" x1="302" x2="422.1602" y1="176.8906" y2="176.8906"/><text fill="#000000" font-family="sans-serif" font-size="14" font-weight="700" lengthAdjust="spacing" textLength="0" x="307" y="178.8906">golden-rings</text><text fill="#000000" font-family="sans-serif" font-size="14" lengthAdjust="spacing" textLength="8.9072" x="389.0371" y="191.8857">5</text><line style="stroke:#000000;stroke-width:1;" x1="384.0371" x2="384.0371" y1="176.8906" y2="197.1875"/><rect fill="#FF0000" height="20.2969" rx="2" ry="2" style="stroke:#FF0000;stroke-width:1;" width="118.1602" x="303.5" y="197.1875"/><line style="stroke:#000000;stroke-width:1;" x1="302" x2="422.1602" y1="197.1875" y2="197.1875"/><text fill="#FFFFFF" font-family="sans-serif" font-size="14" font-style="italic" lengthAdjust="spacing" textLength="72.0371" x="307" y="212.1826">partridges</text><text fill="#FFFFFF" font-family="sans-serif" font-size="14" font-style="italic" lengthAdjust="spacing" textLength="13.3506" x="389.0371" y="212.1826">&#160;&#160;&#160;</text><line style="stroke:#000000;stroke-width:1;" x1="384.0371" x2="384.0371" y1="197.1875" y2="217.4844"/><line style="stroke:#000000;stroke-width:1;" x1="302" x2="422.1602" y1="217.4844" y2="217.4844"/><text fill="#000000" font-family="sans-serif" font-size="14" font-weight="700" lengthAdjust="spacing" textLength="0" x="307" y="219.4844">turtle-doves</text><text fill="#000000" font-family="sans-serif" font-size="14" lengthAdjust="spacing" textLength="25.5049" x="389.0371" y="232.4795">two</text><line style="stroke:#000000;stroke-width:1;" x1="384.0371" x2="384.0371" y1="217.4844" y2="237.7813"/><rect fill="none" height="101.4844" rx="5" ry="5" style="stroke:#000000;stroke-width:1.5;" width="120.1602" x="302" y="136.2969"/><rect fill="#F1F1F1" height="40.5938" rx="5" ry="5" style="stroke:#F1F1F1;stroke-width:1.5;" width="97.7861" x="459" y="186.5391"/><text fill="#000000" font-family="sans-serif" font-size="14" font-weight="700" lengthAdjust="spacing" textLength="0" x="464" y="188.5391">count</text><text fill="#000000" font-family="sans-serif" font-size="14" lengthAdjust="spacing" textLength="8.9072" x="474" y="201.5342">1</text><line style="stroke:#000000;stroke-width:1;" x1="469" x2="469" y1="186.5391" y2="206.8359"/><line style="stroke:#000000;stroke-width:1;" x1="459" x2="556.7861" y1="206.8359" y2="206.8359"/><text fill="#000000" font-family="sans-serif" font-size="14" font-weight="700" lengthAdjust="spacing" textLength="0" x="464" y="208.8359">location</text><text fill="#000000" font-family="sans-serif" font-size="14" lengthAdjust="spacing" textLength="77.7861" x="474" y="221.8311">a pear tree</text><line style="stroke:#000000;stroke-width:1;" x1="469" x2="469" y1="206.8359" y2="227.1328"/><rect fill="none" height="40.5938" rx="5" ry="5" style="stroke:#000000;stroke-width:1.5;" width="97.7861" x="459" y="186.5391"/><path d="M253,122.0391 L266,122.0391 C287.7562,122.0391 309.9534,112.5028 327.4657,102.3095" fill="none" style="stroke:#000000;stroke-width:1;stroke-dasharray:3,3;"/><path d="M329.095,104.9952 L329.48,101.0875 L325.8364,99.6237 L334.1799,98.2362 L329.095,104.9952" fill="#000000"/><ellipse cx="253" cy="122.0391" fill="#000000" rx="3" ry="3" style="stroke:#000000;stroke-width:1;"/><path d="M409.5,207.0391 L422.5,207.0391 C431.9318,207.0391 441.9522,207.0391 451.6795,207.0391" fill="none" style="stroke:#000000;stroke-width:1;stroke-dasharray:3,3;"/><path d="M451.6795,210.1276 L453.9959,207.0391 L451.6795,203.9505 L459.4009,207.0391 L451.6795,210.1276" fill="#000000"/><ellipse cx="409.5" cy="207.0391" fill="#000000" rx="3" ry="3" style="stroke:#000000;stroke-width:1;"/><path d="M253,142.0391 L266,142.0391 C275.7856,142.0391 285.6434,143.9964 295.1175,147.0946" fill="none" style="stroke:#000000;stroke-width:1;stroke-dasharray:3,3;"/><path d="M294.0863,149.9597 L297.2663,147.868 L296.1488,144.2295 L302.2802,149.6727 L294.0863,149.9597" fill="#000000"/><ellipse cx="253" cy="142.0391" fill="#000000" rx="3" ry="3" style="stroke:#000000;stroke-width:1;"/><?plantuml-src dLBHQiCW57sENt5nhqkwfEjW8PIomVO1-m8Rhr5cDToOTM7itwT9OMrXBnF4uxdUSyzLTqCG52PniAmPmcHnoo2EGfVmDIE09z6-lv8VdNpsrXDqXEXEiHVlmi8UjGbunhubCJ11MDFEzFT9kFfJc53-HxPPdOpVQDDf6sS0hWXTgtEDRk3GDBhSNiO_3sB8bL51vr9C75R0-tWHP6I7IqOLCvZqM0CN817f5WGeF8XOFsqv8p4jGV8zU0MTjn8T3AFZh3Srh8loljmyibIhXa0ZiZDRCSvQOQrnNRut92F1iXpqY5DQ9HuNOFreC06LxkVITqgvqb1-99PTrSaMQpd5Wv7OiEotsQIHjV4LGWrbXDQt8XZlvjPw51IT8tAMXP62nLpwZvGKZfxjqCdvwx2ogEwgXsAzno0sFm00?></g></svg>