<svg xmlns="http://www.w3.org/2000/svg" xmlns:xlink="http://www.w3.org/1999/xlink" contentStyleType="text/css" data-diagram-type="YAML" height="161px" preserveAspectRatio="none" style="width:244px;height:161px;background:#FFFFFF;" version="1.1" viewBox="0 0 244 161" width="244px" zoomAndPan="magnify"><?plantuml 1.2026.3beta5?><defs/><g><rect fill="#F1F1F1" height="40.5938" rx="5" ry="5" style="stroke:#F1F1F1;stroke-width:1.5;" width="23.3506" x="10" y="59"/><text fill="#000000" font-family="sans-serif" font-size="14" lengthAdjust="spacing" textLength="13.3506" x="15" y="73.9951">&#160;&#160;&#160;</text><line style="stroke:#000000;stroke-width:1;" x1="10" x2="33.3506" y1="79.2969" y2="79.2969"/><text fill="#000000" font-family="sans-serif" font-size="14" lengthAdjust="spacing" textLength="13.3506" x="15" y="94.292">&#160;&#160;&#160;</text><rect fill="none" height="40.5938" rx="5" ry="5" style="stroke:#000000;stroke-width:1.5;" width="23.3506" x="10" y="59"/><rect fill="#F1F1F1" height="60.8906" rx="5" ry="5" style="stroke:#F1F1F1;stroke-width:1.5;" width="162.8027" x="70" y="10"/><text fill="#000000" font-family="sans-serif" font-size="14" font-weight="700" lengthAdjust="spacing" textLength="43.4971" x="75" y="24.9951">name</text><text fill="#000000" font-family="sans-serif" font-size="14" lengthAdjust="spacing" textLength="99.3057" x="128.4971" y="24.9951">Mark McGwire</text><line style="stroke:#000000;stroke-width:1;" x1="123.4971" x2="123.4971" y1="10" y2="30.2969"/><line style="stroke:#000000;stroke-width:1;" x1="70" x2="232.8027" y1="30.2969" y2="30.2969"/><text fill="#000000" font-family="sans-serif" font-size="14" font-weight="700" lengthAdjust="spacing" textLength="16.8711" x="75" y="45.292">hr</text><text fill="#000000" font-family="sans-serif" font-size="14" lengthAdjust="spacing" textLength="17.8145" x="128.4971" y="45.292">65</text><line style="stroke:#000000;stroke-width:1;" x1="123.4971" x2="123.4971" y1="30.2969" y2="50.5938"/><line style="stroke:#000000;stroke-width:1;" x1="70" x2="232.8027" y1="50.5938" y2="50.5938"/><text fill="#000000" font-family="sans-serif" font-size="14" font-weight="700" lengthAdjust="spacing" textLength="28.5947" x="75" y="65.5889">avg</text><text fill="#000000" font-family="sans-serif" font-size="14" lengthAdjust="spacing" textLength="40.0791" x="128.4971" y="65.5889">0.278</text><line style="stroke:#000000;stroke-width:1;" x1="123.4971" x2="123.4971" y1="50.5938" y2="70.8906"/><rect fill="none" height="60.8906" rx="5" ry="5" style="stroke:#000000;stroke-width:1.5;" width="162.8027" x="70" y="10"/><rect fill="#F1F1F1" height="60.8906" rx="5" ry="5" style="stroke:#F1F1F1;stroke-width:1.5;" width="154.2988" x="74.5" y="89"/><text fill="#000000" font-family="sans-serif" font-size="14" font-weight="700" lengthAdjust="spacing" textLength="43.4971" x="79.5" y="103.9951">name</text><text fill="#000000" font-family="sans-serif" font-size="14" lengthAdjust="spacing" textLength="90.8018" x="132.9971" y="103.9951">Sammy Sosa</text><line style="stroke:#000000;stroke-width:1;" x1="127.9971" x2="127.9971" y1="89" y2="109.2969"/><line style="stroke:#000000;stroke-width:1;" x1="74.5" x2="228.7988" y1="109.2969" y2="109.2969"/><text fill="#000000" font-family="sans-serif" font-size="14" font-weight="700" lengthAdjust="spacing" textLength="16.8711" x="79.5" y="124.292">hr</text><text fill="#000000" font-family="sans-serif" font-size="14" lengthAdjust="spacing" textLength="17.8145" x="132.9971" y="124.292">63</text><line style="stroke:#000000;stroke-width:1;" x1="127.9971" x2="127.9971" y1="109.2969" y2="129.5938"/><line style="stroke:#000000;stroke-width:1;" x1="74.5" x2="228.7988" y1="129.5938" y2="129.5938"/><text fill="#000000" font-family="sans-serif" font-size="14" font-weight="700" lengthAdjust="spacing" textLength="28.5947" x="79.5" y="144.5889">avg</text><text fill="#000000" font-family="sans-serif" font-size="14" lengthAdjust="spacing" textLength="40.0791" x="132.9971" y="144.5889">0.288</text><line style="stroke:#000000;stroke-width:1;" x1="127.9971" x2="127.9971" y1="129.5938" y2="149.8906"/><rect fill="none" height="60.8906" rx="5" ry="5" style="stroke:#000000;stroke-width:1.5;" width="154.2988" x="74.5" y="89"/><path d="M21,69.5 L34,69.5 C43.5055,69.5 53.3212,68.587 63.0378,67.0851" fill="none" style="stroke:#000000;stroke-width:1;stroke-dasharray:3,3;"/><path d="M63.5409,70.0468 L65.259,66.7077 L62.5346,64.1234 L70.442,65.8271 L63.5409,70.0468" fill="#000000"/><ellipse cx="21" cy="69.5" fill="#000000" rx="3" ry="3" style="stroke:#000000;stroke-width:1;"/><path d="M21,89.5 L34,89.5 C44.9042,89.5 56.206,90.7378 67.2939,92.7105" fill="none" style="stroke:#000000;stroke-width:1;stroke-dasharray:3,3;"/><path d="M66.7031,95.7644 L69.5842,93.1536 L67.8847,89.6567 L74.9284,94.1875 L66.7031,95.7644" fill="#000000"/><ellipse cx="21" cy="89.5" fill="#000000" rx="3" ry="3" style="stroke:#000000;stroke-width:1;"/><?plantuml-src SoWkIImggKpCpU5IKD05OWM5lCJSL2i5tyIYR0NVPFVopA9Ki716aHMGD3C5SnBBqe4y0pqZSmiqVS69kRcL2i7vnOd8kenHTLbOS3cavgM0hUKor3CoC3BJCqvABKaq1G00?></g></svg>