<svg xmlns="http://www.w3.org/2000/svg" xmlns:xlink="http://www.w3.org/1999/xlink" contentStyleType="text/css" data-diagram-type="STATE" height="71px" preserveAspectRatio="none" style="width:781px;height:71px;background:#FFFFFF;" version="1.1" viewBox="0 0 781 71" width="781px" zoomAndPan="magnify"><?plantuml 1.2026.3beta5?><defs/><g><g class="entity" data-qualified-name="alias1" id="ent0002"><rect fill="#F1F1F1" height="50.2656" rx="12.5" ry="12.5" style="stroke:#181818;stroke-width:0.5;" width="106.6953" x="7" y="7"/><line style="stroke:#181818;stroke-width:0.5;" x1="7" x2="113.6953" y1="33.2969" y2="33.2969"/><text fill="#000000" font-family="sans-serif" font-size="14" lengthAdjust="spacing" textLength="41.1387" x="39.7783" y="24.9951">alias1</text><text fill="#000000" font-family="monospace" font-size="12" lengthAdjust="spacing" textLength="86.6953" x="12" y="49.4355">state&#160;alias1</text></g><g class="entity" data-qualified-name="alias2" id="ent0003"><rect fill="#F1F1F1" height="50.2656" rx="12.5" ry="12.5" style="stroke:#181818;stroke-width:0.5;" width="119.4395" x="148.63" y="7"/><line style="stroke:#181818;stroke-width:0.5;" x1="148.63" x2="268.0695" y1="33.2969" y2="33.2969"/><text fill="#000000" font-family="sans-serif" font-size="14" lengthAdjust="spacing" textLength="41.1387" x="187.7804" y="24.9951">alias2</text><text fill="#000000" font-family="monospace" font-size="12" lengthAdjust="spacing" textLength="93.9199" x="153.63" y="49.4355">state&#160;"alias2</text><text fill="#000000" font-family="sans-serif" font-size="12" lengthAdjust="spacing" textLength="5.5195" x="247.5499" y="49.4355">"</text></g><g class="entity" data-qualified-name="alias3" id="ent0004"><rect fill="#F1F1F1" height="50.2656" rx="12.5" ry="12.5" style="stroke:#181818;stroke-width:0.5;" width="215.0645" x="302.82" y="7"/><line style="stroke:#181818;stroke-width:0.5;" x1="302.82" x2="517.8845" y1="33.2969" y2="33.2969"/><text fill="#000000" font-family="sans-serif" font-size="14" lengthAdjust="spacing" textLength="74.3682" x="373.1681" y="24.9951">long name</text><text fill="#000000" font-family="monospace" font-size="12" lengthAdjust="spacing" textLength="195.0645" x="307.82" y="49.4355">state&#160;"long&#160;name"&#160;as&#160;alias3</text></g><g class="entity" data-qualified-name="alias4" id="ent0005"><rect fill="#F1F1F1" height="50.2656" rx="12.5" ry="12.5" style="stroke:#181818;stroke-width:0.5;" width="213.3594" x="552.67" y="7"/><line style="stroke:#181818;stroke-width:0.5;" x1="552.67" x2="766.0294" y1="33.2969" y2="33.2969"/><text fill="#000000" font-family="sans-serif" font-size="14" lengthAdjust="spacing" textLength="74.3682" x="622.1656" y="24.9951">long name</text><text fill="#000000" font-family="monospace" font-size="12" lengthAdjust="spacing" textLength="187.8398" x="557.67" y="49.4355">state&#160;alias4&#160;as&#160;"long&#160;name</text><text fill="#000000" font-family="sans-serif" font-size="12" lengthAdjust="spacing" textLength="5.5195" x="745.5098" y="49.4355">"</text></g><!--link alias1 to alias2--><g class="link" data-entity-1="ent0002" data-entity-2="ent0003" data-link-type="dependency" data-source-line="6" id="lnk2"><path d="M114.11,32.14 C125.52,32.14 130.94,32.14 142.35,32.14" fill="none" id="alias1-to-alias2" style="stroke:#181818;stroke-width:1;"/><polygon fill="#181818" points="148.35,32.14,139.35,28.14,143.35,32.14,139.35,36.14,148.35,32.14" style="stroke:#181818;stroke-width:1;"/></g><!--link alias2 to alias3--><g class="link" data-entity-1="ent0003" data-entity-2="ent0004" data-link-type="dependency" data-source-line="7" id="lnk3"><path d="M268.32,32.14 C279.69,32.14 285.06,32.14 296.44,32.14" fill="none" id="alias2-to-alias3" style="stroke:#181818;stroke-width:1;"/><polygon fill="#181818" points="302.44,32.14,293.44,28.14,297.44,32.14,293.44,36.14,302.44,32.14" style="stroke:#181818;stroke-width:1;"/></g><!--link alias3 to alias4--><g class="link" data-entity-1="ent0004" data-entity-2="ent0005" data-link-type="dependency" data-source-line="8" id="lnk4"><path d="M518.31,32.14 C529.61,32.14 534.9,32.14 546.19,32.14" fill="none" id="alias3-to-alias4" style="stroke:#181818;stroke-width:1;"/><polygon fill="#181818" points="552.19,32.14,543.19,28.14,547.19,32.14,543.19,36.14,552.19,32.14" style="stroke:#181818;stroke-width:1;"/></g><?plantuml-src Aov9B4bLICp9J2msLB1IK58gHX9GKkA2S9N0V2Cb91Km8OIQdFoyT8MynDnK9ON4OeW9niWQiCd3TOEv9Y09P7Le3aAN1-hcWZfTrmwYn0WYO0GNCEQ2kWGcO080?></g></svg>