<svg xmlns="http://www.w3.org/2000/svg" xmlns:xlink="http://www.w3.org/1999/xlink" contentStyleType="text/css" data-diagram-type="STATE" height="181px" preserveAspectRatio="none" style="width:216px;height:181px;background:#FFFFFF;" version="1.1" viewBox="0 0 216 181" width="216px" zoomAndPan="magnify"><?plantuml 1.2026.3beta5?><defs/><g><g class="start_entity" data-qualified-name=".start." data-source-line="1" id="ent0002"><ellipse cx="16" cy="142" fill="#222222" rx="10" ry="10" style="stroke:#222222;stroke-width:1;"/></g><g class="entity" data-qualified-name="First" id="ent0003"><rect fill="#F1F1F1" height="50" rx="12.5" ry="12.5" style="stroke:#181818;stroke-width:0.5;" width="50.4814" x="21.76" y="7"/><line style="stroke:#181818;stroke-width:0.5;" x1="21.76" x2="72.2414" y1="33.2969" y2="33.2969"/><text fill="#000000" font-family="sans-serif" font-size="14" lengthAdjust="spacing" textLength="30.4814" x="31.76" y="24.9951">First</text></g><g class="entity" data-qualified-name="Second" id="ent0006"><rect fill="#F1F1F1" height="50" rx="12.5" ry="12.5" style="stroke:#181818;stroke-width:0.5;" width="71.5225" x="122.24" y="7"/><line style="stroke:#181818;stroke-width:0.5;" x1="122.24" x2="193.7625" y1="33.2969" y2="33.2969"/><text fill="#000000" font-family="sans-serif" font-size="14" lengthAdjust="spacing" textLength="51.5225" x="132.24" y="24.9951">Second</text></g><g class="entity" data-qualified-name="Third" id="ent0008"><rect fill="#F1F1F1" height="50" rx="12.5" ry="12.5" style="stroke:#181818;stroke-width:0.5;" width="55.957" x="146.02" y="117"/><line style="stroke:#181818;stroke-width:0.5;" x1="146.02" x2="201.977" y1="143.2969" y2="143.2969"/><text fill="#000000" font-family="sans-serif" font-size="14" lengthAdjust="spacing" textLength="35.957" x="156.02" y="134.9951">Third</text></g><g class="entity" data-qualified-name="Last" id="ent0010"><rect fill="#F1F1F1" height="50" rx="12.5" ry="12.5" style="stroke:#181818;stroke-width:0.5;" width="50" x="61" y="117"/><line style="stroke:#181818;stroke-width:0.5;" x1="61" x2="111" y1="143.2969" y2="143.2969"/><text fill="#000000" font-family="sans-serif" font-size="14" lengthAdjust="spacing" textLength="29.1621" x="71.4189" y="134.9951">Last</text></g><!--reverse link First to *start*--><g class="link" data-entity-1="ent0003" data-entity-2="ent0002" data-link-type="dependency" data-source-line="1" id="lnk5"><path d="M38.3852,63.0073 C31.6052,86.6373 23.3,115.56 18.62,131.88" fill="none" id="First-backto-*start*" style="stroke:#181818;stroke-width:1;"/><polygon fill="#181818" points="40.04,57.24,33.713,64.7878,38.661,62.0461,41.4027,66.9941,40.04,57.24" style="stroke:#181818;stroke-width:1;"/></g><!--link First to Second--><g class="link" data-entity-1="ent0003" data-entity-2="ent0006" data-link-type="dependency" data-source-line="2" id="lnk7"><path d="M72.58,32 C89.04,32 99.5,32 115.96,32" fill="none" id="First-to-Second" style="stroke:#181818;stroke-width:1;"/><polygon fill="#181818" points="121.96,32,112.96,28,116.96,32,112.96,36,121.96,32" style="stroke:#181818;stroke-width:1;"/></g><!--link Second to Third--><g class="link" data-entity-1="ent0006" data-entity-2="ent0008" data-link-type="dependency" data-source-line="3" id="lnk9"><path d="M161.59,57.24 C164.23,75.02 166.9111,93.1447 169.5411,110.9047" fill="none" id="Second-to-Third" style="stroke:#181818;stroke-width:1;"/><polygon fill="#181818" points="170.42,116.84,173.0585,107.3511,169.6876,111.8939,165.1448,108.523,170.42,116.84" style="stroke:#181818;stroke-width:1;"/></g><!--reverse link Last to Third--><g class="link" data-entity-1="ent0010" data-entity-2="ent0008" data-link-type="dependency" data-source-line="4" id="lnk12"><path d="M117.44,142 C128.84,142 134.25,142 145.65,142" fill="none" id="Last-backto-Third" style="stroke:#181818;stroke-width:1;"/><polygon fill="#181818" points="111.44,142,120.44,146,116.44,142,120.44,138,111.44,142" style="stroke:#181818;stroke-width:1;"/></g><?plantuml-src YzQALT0jBT2rKt3BB2ekuGAJ2hf5cUaP9K31uDJa_BmKBWYbe0iK2Sd8B4hX0fCAkZcfQI1LFed59G00?></g></svg>