<svg xmlns="http://www.w3.org/2000/svg" xmlns:xlink="http://www.w3.org/1999/xlink" contentStyleType="text/css" data-diagram-type="STATE" height="71px" preserveAspectRatio="none" style="width:767px;height:71px;background:#FFFFFF;" version="1.1" viewBox="0 0 767 71" width="767px" zoomAndPan="magnify"><?plantuml 1.2026.3beta5?><defs/><g><g class="entity" data-qualified-name="a" id="ent0002"><rect fill="#F1F1F1" height="50" rx="12.5" ry="12.5" style="stroke:#181818;stroke-width:0.5;" width="50" x="7" y="7"/><line style="stroke:#181818;stroke-width:0.5;" x1="7" x2="57" y1="33.2969" y2="33.2969"/><text fill="#000000" font-family="sans-serif" font-size="14" lengthAdjust="spacing" textLength="8.5791" x="27.7104" y="24.9951">a</text></g><g class="entity" data-qualified-name="b" id="ent0002"><rect fill="#F1F1F1" height="50" rx="12.5" ry="12.5" style="stroke:#181818;stroke-width:0.5;" width="50" x="108" y="7"/><line style="stroke:#181818;stroke-width:0.5;" x1="108" x2="158" y1="33.2969" y2="33.2969"/><text fill="#000000" font-family="sans-serif" font-size="14" lengthAdjust="spacing" textLength="8.8867" x="128.5566" y="24.9951">b</text></g><g class="entity" data-qualified-name="c" id="ent0004"><rect fill="#F1F1F1" height="50" rx="12.5" ry="12.5" style="stroke:#181818;stroke-width:0.5;" width="50" x="193" y="7"/><line style="stroke:#181818;stroke-width:0.5;" x1="193" x2="243" y1="33.2969" y2="33.2969"/><text fill="#000000" font-family="sans-serif" font-size="14" lengthAdjust="spacing" textLength="7.6973" x="214.1514" y="24.9951">c</text></g><g class="entity" data-qualified-name="d" id="ent0005"><rect fill="#F1F1F1" height="50" rx="12.5" ry="12.5" style="stroke:#181818;stroke-width:0.5;" width="50" x="302" y="7"/><line style="stroke:#181818;stroke-width:0.5;" x1="302" x2="352" y1="33.2969" y2="33.2969"/><text fill="#000000" font-family="sans-serif" font-size="14" lengthAdjust="spacing" textLength="8.8867" x="322.5566" y="24.9951">d</text></g><g class="entity" data-qualified-name="e" id="ent0007"><rect fill="#F1F1F1" height="50" rx="12.5" ry="12.5" style="stroke:#181818;stroke-width:0.5;" width="50" x="387" y="7"/><line style="stroke:#181818;stroke-width:0.5;" x1="387" x2="437" y1="33.2969" y2="33.2969"/><text fill="#000000" font-family="sans-serif" font-size="14" lengthAdjust="spacing" textLength="8.6133" x="407.6934" y="24.9951">e</text></g><g class="entity" data-qualified-name="f" id="ent0008"><rect fill="#F1F1F1" height="50" rx="12.5" ry="12.5" style="stroke:#181818;stroke-width:0.5;" width="50" x="500" y="7"/><line style="stroke:#181818;stroke-width:0.5;" x1="500" x2="550" y1="33.2969" y2="33.2969"/><text fill="#000000" font-family="sans-serif" font-size="14" lengthAdjust="spacing" textLength="4.9287" x="522.5356" y="24.9951">f</text></g><g class="entity" data-qualified-name="g" id="ent0010"><rect fill="#F1F1F1" height="50" rx="12.5" ry="12.5" style="stroke:#181818;stroke-width:0.5;" width="50" x="585" y="7"/><line style="stroke:#181818;stroke-width:0.5;" x1="585" x2="635" y1="33.2969" y2="33.2969"/><text fill="#000000" font-family="sans-serif" font-size="14" lengthAdjust="spacing" textLength="8.8867" x="605.5566" y="24.9951">g</text></g><g class="entity" data-qualified-name="h" id="ent0011"><rect fill="#F1F1F1" height="50" rx="12.5" ry="12.5" style="stroke:#181818;stroke-width:0.5;" width="50" x="702" y="7"/><line style="stroke:#181818;stroke-width:0.5;" x1="702" x2="752" y1="33.2969" y2="33.2969"/><text fill="#000000" font-family="sans-serif" font-size="14" lengthAdjust="spacing" textLength="8.873" x="722.5635" y="24.9951">h</text></g><!--link a to b--><g class="link" data-entity-1="ent0002" data-entity-2="ent0002" data-link-type="dependency" data-source-line="3" id="lnk3"><path d="M57.49,32 C72.8,32 86.21,32 101.52,32" fill="none" id="a-to-b" style="stroke:#181818;stroke-width:1;"/><polygon fill="#181818" points="107.52,32,98.52,28,102.52,32,98.52,36,107.52,32" style="stroke:#181818;stroke-width:1;"/><text fill="#000000" font-family="sans-serif" font-size="13" lengthAdjust="spacing" textLength="15.5835" x="75" y="25.0669">-&gt;</text></g><!--link c to d--><g class="link" data-entity-1="ent0004" data-entity-2="ent0005" data-link-type="dependency" data-source-line="4" id="lnk6"><path d="M251.28,32 C268.89,32 278.28,32 295.86,32" fill="none" id="c-d" style="stroke:#181818;stroke-width:1;"/><ellipse cx="243.28" cy="32" fill="#FFFFFF" rx="7" ry="7" style="stroke:#181818;stroke-width:1.5;"/><line style="stroke:#181818;stroke-width:1;" x1="248.2297" x2="238.3303" y1="36.9497" y2="27.0503"/><line style="stroke:#181818;stroke-width:1;" x1="248.2297" x2="238.3303" y1="27.0503" y2="36.9497"/><polygon fill="#181818" points="301.86,32,292.86,28,296.86,32,292.86,36,301.86,32" style="stroke:#181818;stroke-width:1;"/><text fill="#000000" font-family="sans-serif" font-size="13" lengthAdjust="spacing" textLength="23.2769" x="261" y="25.0669">x-&gt;</text></g><!--link e to f--><g class="link" data-entity-1="ent0007" data-entity-2="ent0008" data-source-line="5" id="lnk9"><path d="M437.36,32 C455.97,32 473.13,32 491.73,32" fill="none" id="e-to-f" style="stroke:#181818;stroke-width:1;"/><polygon fill="#181818" points="494.73,32,485.73,28,489.73,32,485.73,36,494.73,32" style="stroke:#181818;stroke-width:1;"/><ellipse cx="499.73" cy="32" fill="#FFFFFF" rx="5" ry="5" style="stroke:#181818;stroke-width:1.5;"/><text fill="#000000" font-family="sans-serif" font-size="13" lengthAdjust="spacing" textLength="23.5371" x="459.1323" y="25.0669">-&gt;o</text></g><!--link g to h--><g class="link" data-entity-1="ent0010" data-entity-2="ent0011" data-source-line="6" id="lnk12"><path d="M643.39,32 C663.01,32 674.05,32 693.66,32" fill="none" id="g-h" style="stroke:#181818;stroke-width:1;"/><ellipse cx="635.39" cy="32" fill="#FFFFFF" rx="7" ry="7" style="stroke:#181818;stroke-width:1.5;"/><line style="stroke:#181818;stroke-width:1;" x1="640.3397" x2="630.4403" y1="36.9497" y2="27.0503"/><line style="stroke:#181818;stroke-width:1;" x1="640.3397" x2="630.4403" y1="27.0503" y2="36.9497"/><polygon fill="#181818" points="696.66,32,687.66,28,691.66,32,687.66,36,696.66,32" style="stroke:#181818;stroke-width:1;"/><ellipse cx="701.66" cy="32" fill="#FFFFFF" rx="5" ry="5" style="stroke:#181818;stroke-width:1.5;"/><text fill="#000000" font-family="sans-serif" font-size="13" lengthAdjust="spacing" textLength="31.2305" x="653" y="25.0669">x-&gt;o</text></g><?plantuml-src Aov9B4bLIEJYIbJGjLD8Kh02Kbp92XL0JWgG0wIvKe52-GffG9vDgBQ1WP617P3FbGwIorV8W2ZA1m00?></g></svg>