<svg xmlns="http://www.w3.org/2000/svg" xmlns:xlink="http://www.w3.org/1999/xlink" contentStyleType="text/css" data-diagram-type="STATE" height="246px" preserveAspectRatio="none" style="width:256px;height:246px;background:#FFFFFF;" version="1.1" viewBox="0 0 256 246" width="256px" zoomAndPan="magnify"><?plantuml 1.2026.3beta5?><defs/><g><g class="entity" data-qualified-name="State1" id="ent0002"><rect fill="#F1F1F1" height="64.2344" rx="12.5" ry="12.5" style="stroke:#181818;stroke-width:0.5;" width="144.3008" x="7" y="86"/><line style="stroke:#181818;stroke-width:0.5;" x1="7" x2="151.3008" y1="112.2969" y2="112.2969"/><text fill="#000000" font-family="sans-serif" font-size="14" lengthAdjust="spacing" textLength="45.9648" x="56.168" y="103.9951">State1</text><text fill="#000000" font-family="sans-serif" font-size="12" lengthAdjust="spacing" textLength="84.7266" x="12" y="128.4355">this is a string</text><text fill="#000000" font-family="sans-serif" font-size="12" lengthAdjust="spacing" textLength="124.3008" x="12" y="142.4043">this is another string</text></g><g class="start_entity" data-qualified-name=".start." data-source-line="2" id="ent0002"><ellipse cx="79.15" cy="16" fill="#222222" rx="10" ry="10" style="stroke:#222222;stroke-width:1;"/></g><g class="end_entity" data-qualified-name=".end." data-source-line="3" id="ent0004"><ellipse cx="146.15" cy="221.23" fill="none" rx="11" ry="11" style="stroke:#222222;stroke-width:1;"/><ellipse cx="146.15" cy="221.23" fill="#222222" rx="6" ry="6" style="stroke:#222222;stroke-width:1;"/></g><rect fill="#F1F1F1" height="40" rx="12.5" ry="12.5" style="stroke:#181818;stroke-width:0.5;" width="55.9648" x="186.17" y="98.11"/><text fill="#000000" font-family="sans-serif" font-size="14" lengthAdjust="spacing" textLength="45.9648" x="191.17" y="122.9567">State2</text><!--link *start* to State1--><g class="link" data-entity-1="ent0002" data-entity-2="ent0002" data-link-type="dependency" data-source-line="2" id="lnk3"><path d="M79.15,26.23 C79.15,39.6 79.15,58.96 79.15,79.5" fill="none" id="*start*-to-State1" style="stroke:#181818;stroke-width:1;"/><polygon fill="#181818" points="79.15,85.5,83.15,76.5,79.15,80.5,75.15,76.5,79.15,85.5" style="stroke:#181818;stroke-width:1;"/></g><!--link State1 to *end*--><g class="link" data-entity-1="ent0002" data-entity-2="ent0004" data-link-type="dependency" data-source-line="3" id="lnk5"><path d="M99.98,150.55 C113.97,171.66 128.0864,192.968 136.9964,206.418" fill="none" id="State1-to-*end*" style="stroke:#181818;stroke-width:1;"/><polygon fill="#181818" points="140.31,211.42,138.6743,201.7079,137.5487,207.2517,132.0049,206.1261,140.31,211.42" style="stroke:#181818;stroke-width:1;"/></g><!--link State1 to State2--><g class="link" data-entity-1="ent0002" data-entity-2="ent0006" data-link-type="dependency" data-source-line="7" id="lnk7"><path d="M151.66,118.11 C163.05,118.11 168.44,118.11 179.83,118.11" fill="none" id="State1-to-State2" style="stroke:#181818;stroke-width:1;"/><polygon fill="#181818" points="185.83,118.11,176.83,114.11,180.83,118.11,176.83,122.11,185.83,118.11" style="stroke:#181818;stroke-width:1;"/></g><!--link State2 to *end*--><g class="link" data-entity-1="ent0006" data-entity-2="ent0004" data-link-type="dependency" data-source-line="8" id="lnk8"><path d="M201.04,138.61 C186.22,160.65 166.0968,190.5601 155.2968,206.6301" fill="none" id="State2-to-*end*" style="stroke:#181818;stroke-width:1;"/><polygon fill="#181818" points="151.95,211.61,160.2901,206.3714,154.739,207.4601,153.6502,201.909,151.95,211.61" style="stroke:#181818;stroke-width:1;"/></g><?plantuml-src oyXCILL8pIqegLH8IIrEBieiACdCp-EArefLqDMrKmWkIIn9DUI2K60He0oCQwLGaf5Ph014YGh59KMPUUbOPFBoIp9IYs3oS9EWHXj118nWHWC0?></g></svg>