<svg xmlns="http://www.w3.org/2000/svg" xmlns:xlink="http://www.w3.org/1999/xlink" contentStyleType="text/css" data-diagram-type="STATE" height="291px" preserveAspectRatio="none" style="width:497px;height:291px;background:#FFFFFF;" version="1.1" viewBox="0 0 497 291" width="497px" zoomAndPan="magnify"><?plantuml 1.2026.3beta5?><defs/><g><g class="entity" data-qualified-name="S1" id="ent0002"><rect fill="#F1F1F1" height="50" rx="12.5" ry="12.5" style="stroke:#181818;stroke-width:0.5;" width="50" x="92" y="117"/><line style="stroke:#181818;stroke-width:0.5;" x1="92" x2="142" y1="143.2969" y2="143.2969"/><text fill="#000000" font-family="sans-serif" font-size="14" lengthAdjust="spacing" textLength="17.7939" x="108.103" y="134.9951">S1</text></g><g class="entity" data-qualified-name="S2" id="ent0003"><rect fill="#F1F1F1" height="50" rx="12.5" ry="12.5" style="stroke:#181818;stroke-width:0.5;" width="50" x="92" y="227"/><line style="stroke:#181818;stroke-width:0.5;" x1="92" x2="142" y1="253.2969" y2="253.2969"/><text fill="#000000" font-family="sans-serif" font-size="14" lengthAdjust="spacing" textLength="17.7939" x="108.103" y="244.9951">S2</text></g><g class="entity" data-qualified-name="S3" id="ent0003"><rect fill="#F1F1F1" height="50" rx="12.5" ry="12.5" style="stroke:#181818;stroke-width:0.5;" width="50" x="7" y="117"/><line style="stroke:#181818;stroke-width:0.5;" x1="7" x2="57" y1="143.2969" y2="143.2969"/><text fill="#000000" font-family="sans-serif" font-size="14" lengthAdjust="spacing" textLength="17.7939" x="23.103" y="134.9951">S3</text></g><g class="entity" data-qualified-name="S4" id="ent0006"><rect fill="#F1F1F1" height="50" rx="12.5" ry="12.5" style="stroke:#181818;stroke-width:0.5;" width="50" x="92" y="7"/><line style="stroke:#181818;stroke-width:0.5;" x1="92" x2="142" y1="33.2969" y2="33.2969"/><text fill="#000000" font-family="sans-serif" font-size="14" lengthAdjust="spacing" textLength="17.7939" x="108.103" y="24.9951">S4</text></g><g class="entity" data-qualified-name="S5" id="ent0009"><rect fill="#F1F1F1" height="50" rx="12.5" ry="12.5" style="stroke:#181818;stroke-width:0.5;" width="50" x="177" y="117"/><line style="stroke:#181818;stroke-width:0.5;" x1="177" x2="227" y1="143.2969" y2="143.2969"/><text fill="#000000" font-family="sans-serif" font-size="14" lengthAdjust="spacing" textLength="17.7939" x="193.103" y="134.9951">S5</text></g><g class="entity" data-qualified-name="X1" id="ent0011"><rect fill="#F1F1F1" height="50" rx="12.5" ry="12.5" style="stroke:#181818;stroke-width:0.5;" width="50" x="262" y="7"/><line style="stroke:#181818;stroke-width:0.5;" x1="262" x2="312" y1="33.2969" y2="33.2969"/><text fill="#000000" font-family="sans-serif" font-size="14" lengthAdjust="spacing" textLength="18.498" x="277.751" y="24.9951">X1</text></g><g class="entity" data-qualified-name="X2" id="ent0012"><rect fill="#F1F1F1" height="50" rx="12.5" ry="12.5" style="stroke:#181818;stroke-width:0.5;" width="50" x="262" y="117"/><line style="stroke:#181818;stroke-width:0.5;" x1="262" x2="312" y1="143.2969" y2="143.2969"/><text fill="#000000" font-family="sans-serif" font-size="14" lengthAdjust="spacing" textLength="18.498" x="277.751" y="134.9951">X2</text></g><g class="entity" data-qualified-name="Z1" id="ent0014"><rect fill="#F1F1F1" height="50" rx="12.5" ry="12.5" style="stroke:#181818;stroke-width:0.5;" width="50" x="347" y="7"/><line style="stroke:#181818;stroke-width:0.5;" x1="347" x2="397" y1="33.2969" y2="33.2969"/><text fill="#000000" font-family="sans-serif" font-size="14" lengthAdjust="spacing" textLength="18.498" x="362.751" y="24.9951">Z1</text></g><g class="entity" data-qualified-name="Z2" id="ent0015"><rect fill="#F1F1F1" height="50" rx="12.5" ry="12.5" style="stroke:#181818;stroke-width:0.5;" width="50" x="347" y="117"/><line style="stroke:#181818;stroke-width:0.5;" x1="347" x2="397" y1="143.2969" y2="143.2969"/><text fill="#000000" font-family="sans-serif" font-size="14" lengthAdjust="spacing" textLength="18.498" x="362.751" y="134.9951">Z2</text></g><g class="entity" data-qualified-name="Y1" id="ent0017"><rect fill="#F1F1F1" height="50" rx="12.5" ry="12.5" style="stroke:#181818;stroke-width:0.5;" width="50" x="432" y="7"/><line style="stroke:#181818;stroke-width:0.5;" x1="432" x2="482" y1="33.2969" y2="33.2969"/><text fill="#000000" font-family="sans-serif" font-size="14" lengthAdjust="spacing" textLength="17.459" x="448.2705" y="24.9951">Y1</text></g><g class="entity" data-qualified-name="Y2" id="ent0018"><rect fill="#F1F1F1" height="50" rx="12.5" ry="12.5" style="stroke:#181818;stroke-width:0.5;" width="50" x="432" y="117"/><line style="stroke:#181818;stroke-width:0.5;" x1="432" x2="482" y1="143.2969" y2="143.2969"/><text fill="#000000" font-family="sans-serif" font-size="14" lengthAdjust="spacing" textLength="17.459" x="448.2705" y="134.9951">Y2</text></g><!--link S1 to S2--><g class="link" data-entity-1="ent0002" data-entity-2="ent0003" data-link-type="dependency" data-source-line="3" id="lnk2"><path d="M117,167.24 C117,185.02 117,203.08 117,220.84" fill="none" id="S1-to-S2" style="stroke:#DD00AA;stroke-width:1;"/><polygon fill="#DD00AA" points="117,226.84,121,217.84,117,221.84,113,217.84,117,226.84" style="stroke:#DD00AA;stroke-width:1;"/></g><!--reverse link S3 to S1--><g class="link" data-entity-1="ent0003" data-entity-2="ent0002" data-link-type="dependency" data-source-line="4" id="lnk5"><path d="M63.23,142 C74.75,142 80.27,142 91.79,142" fill="none" id="S3-backto-S1" style="stroke:#FFFF00;stroke-width:1;"/><polygon fill="#FFFF00" points="57.23,142,66.23,146,62.23,142,66.23,138,57.23,142" style="stroke:#FFFF00;stroke-width:1;"/></g><!--reverse link S4 to S1--><g class="link" data-entity-1="ent0006" data-entity-2="ent0002" data-link-type="dependency" data-source-line="5" id="lnk8"><path d="M117,63.24 C117,81.02 117,99.08 117,116.84" fill="none" id="S4-backto-S1" style="stroke:#FF0000;stroke-width:1;stroke-dasharray:7,7;"/><polygon fill="#FF0000" points="117,57.24,113,66.24,117,62.24,121,66.24,117,57.24" style="stroke:#FF0000;stroke-width:1;"/></g><!--link S1 to S5--><g class="link" data-entity-1="ent0002" data-entity-2="ent0009" data-link-type="dependency" data-source-line="6" id="lnk10"><path d="M142.23,142 C153.75,142 159.27,142 170.79,142" fill="none" id="S1-to-S5" style="stroke:#0000FF;stroke-width:1;stroke-dasharray:1,3;"/><polygon fill="#0000FF" points="176.79,142,167.79,138,171.79,142,167.79,146,176.79,142" style="stroke:#0000FF;stroke-width:1;"/></g><!--link X1 to X2--><g class="link" data-entity-1="ent0011" data-entity-2="ent0012" data-link-type="dependency" data-source-line="8" id="lnk13"><path d="M287,57.24 C287,75.02 287,93.08 287,110.84" fill="none" id="X1-to-X2" style="stroke:#181818;stroke-width:1;stroke-dasharray:7,7;"/><polygon fill="#181818" points="287,116.84,291,107.84,287,111.84,283,107.84,287,116.84" style="stroke:#181818;stroke-width:1;"/></g><!--link Z1 to Z2--><g class="link" data-entity-1="ent0014" data-entity-2="ent0015" data-link-type="dependency" data-source-line="9" id="lnk16"><path d="M372,57.24 C372,75.02 372,93.08 372,110.84" fill="none" id="Z1-to-Z2" style="stroke:#181818;stroke-width:1;stroke-dasharray:1,3;"/><polygon fill="#181818" points="372,116.84,376,107.84,372,111.84,368,107.84,372,116.84" style="stroke:#181818;stroke-width:1;"/></g><!--link Y1 to Y2--><g class="link" data-entity-1="ent0017" data-entity-2="ent0018" data-link-type="dependency" data-source-line="10" id="lnk19"><path d="M457,57.24 C457,75.02 457,93.08 457,110.84" fill="none" id="Y1-to-Y2" style="stroke:#0000FF;stroke-width:2;"/><polygon fill="#0000FF" points="457,116.84,461,107.84,457,111.84,453,107.84,457,116.84" style="stroke:#0000FF;stroke-width:2;"/></g><?plantuml-src 2ov9B4bL23Ra2eOmZBY23HLqevLTN0mC71rZTUrWGZcfQINHofMfEJdvvM1XOx1mQK6qSb5gYavAOd56QWfOmWGiKPIPdb4IdP9VKWAKLKxAAKq5IvfoSKM0B42eZp3YYWABW9M2HAACk2B1ZW3fqadApm6BHXe10000?></g></svg>