<svg xmlns="http://www.w3.org/2000/svg" xmlns:xlink="http://www.w3.org/1999/xlink" contentStyleType="text/css" data-diagram-type="STATE" height="122px" preserveAspectRatio="none" style="width:821px;height:122px;background:#FFFFFF;" version="1.1" viewBox="0 0 821 122" width="821px" zoomAndPan="magnify"><?plantuml 1.2026.3beta5?><defs><linearGradient id="gxmge64h25d5q0" x1="50%" x2="50%" y1="0%" y2="100%"><stop offset="0%" stop-color="#FF0000"/><stop offset="100%" stop-color="#008000"/></linearGradient><linearGradient id="gxmge64h25d5q1" x1="0%" x2="100%" y1="50%" y2="50%"><stop offset="0%" stop-color="#FF0000"/><stop offset="100%" stop-color="#008000"/></linearGradient></defs><g><!--cluster Foo1--><g class="cluster" data-qualified-name="Foo1" data-source-line="8" id="ent0006"><path d="M19.5,7 L90.5,7 A12.5,12.5 0 0 1 103,19.5 L103,28.2969 L7,28.2969 L7,19.5 A12.5,12.5 0 0 1 19.5,7" fill="#F1F1F1"/><rect fill="none" height="101" rx="12.5" ry="12.5" style="stroke:#008000;stroke-width:1;stroke-dasharray:1,3;" width="96" x="7" y="7"/><line style="stroke:#008000;stroke-width:1;stroke-dasharray:1,3;" x1="7" x2="103" y1="28.2969" y2="28.2969"/><text fill="#000000" font-family="sans-serif" font-size="14" lengthAdjust="spacing" textLength="34.0908" x="37.9546" y="23.9951">Foo1</text></g><!--cluster Foo2--><g class="cluster" data-qualified-name="Foo2" data-source-line="14" id="ent0009"><path d="M139.5,7 L210.5,7 A12.5,12.5 0 0 1 223,19.5 L223,28.2969 L127,28.2969 L127,19.5 A12.5,12.5 0 0 1 139.5,7" fill="#F1F1F1"/><rect fill="none" height="101" rx="12.5" ry="12.5" style="stroke:#008000;stroke-width:2;" width="96" x="127" y="7"/><line style="stroke:#008000;stroke-width:2;" x1="127" x2="223" y1="28.2969" y2="28.2969"/><text fill="#000000" font-family="sans-serif" font-size="14" lengthAdjust="spacing" textLength="34.0908" x="157.9546" y="23.9951">Foo2</text></g><g class="entity" data-qualified-name="Foo1.inner1" id="ent0007"><rect fill="#F1F1F1" height="50" rx="12.5" ry="12.5" style="stroke:#FFFF00;stroke-width:1;stroke-dasharray:1,3;" width="64.9121" x="22.54" y="42"/><line style="stroke:#FFFF00;stroke-width:1;stroke-dasharray:1,3;" x1="22.54" x2="87.4521" y1="68.2969" y2="68.2969"/><text fill="#000000" font-family="sans-serif" font-size="14" lengthAdjust="spacing" textLength="44.9121" x="32.54" y="59.9951">inner1</text></g><g class="entity" data-qualified-name="Foo2.inner2" id="ent0010"><rect fill="#F1F1F1" height="50" rx="12.5" ry="12.5" style="stroke:#FFFF00;stroke-width:1;stroke-dasharray:1,3;" width="64.9121" x="142.54" y="42"/><line style="stroke:#FFFF00;stroke-width:1;stroke-dasharray:1,3;" x1="142.54" x2="207.4521" y1="68.2969" y2="68.2969"/><text fill="#000000" font-family="sans-serif" font-size="14" lengthAdjust="spacing" textLength="44.9121" x="152.54" y="59.9951">inner2</text></g><g class="entity" data-qualified-name="FooGradient" id="ent0002"><rect fill="url(#gxmge64h25d5q0)" height="50" rx="12.5" ry="12.5" style="stroke:#00FFFF;stroke-width:0.5;" width="106.1191" x="326.94" y="42"/><line style="stroke:#00FFFF;stroke-width:0.5;" x1="326.94" x2="433.0591" y1="68.2969" y2="68.2969"/><text fill="#000000" font-family="sans-serif" font-size="14" lengthAdjust="spacing" textLength="86.1191" x="336.94" y="59.9951">FooGradient</text></g><g class="entity" data-qualified-name="FooDashed" id="ent0003"><rect fill="url(#gxmge64h25d5q1)" height="50" rx="12.5" ry="12.5" style="stroke:#0000FF;stroke-width:1;stroke-dasharray:7,7;" width="98.21" x="467.9" y="42"/><line style="stroke:#0000FF;stroke-width:1;stroke-dasharray:7,7;" x1="467.9" x2="566.11" y1="68.2969" y2="68.2969"/><text fill="#000000" font-family="sans-serif" font-size="14" lengthAdjust="spacing" textLength="78.21" x="477.9" y="59.9951">FooDashed</text></g><g class="entity" data-qualified-name="FooDotted" id="ent0004"><rect fill="#F1F1F1" height="50" rx="12.5" ry="12.5" style="stroke:#0000FF;stroke-width:1;stroke-dasharray:1,3;" width="93.0078" x="601.5" y="42"/><line style="stroke:#0000FF;stroke-width:1;stroke-dasharray:1,3;" x1="601.5" x2="694.5078" y1="68.2969" y2="68.2969"/><text fill="#000000" font-family="sans-serif" font-size="14" lengthAdjust="spacing" textLength="73.0078" x="611.5" y="59.9951">FooDotted</text></g><g class="entity" data-qualified-name="FooBold" id="ent0005"><rect fill="#F1F1F1" height="50" rx="12.5" ry="12.5" style="stroke:#181818;stroke-width:2;" width="76.1299" x="729.94" y="42"/><line style="stroke:#181818;stroke-width:2;" x1="729.94" x2="806.0699" y1="68.2969" y2="68.2969"/><text fill="#000000" font-family="sans-serif" font-size="14" lengthAdjust="spacing" textLength="56.1299" x="739.94" y="59.9951">FooBold</text></g><g class="entity" data-qualified-name="out" id="ent0008"><rect fill="#F1F1F1" height="50" rx="12.5" ry="12.5" style="stroke:#FFD700;stroke-width:1;stroke-dasharray:1,3;" width="50" x="242" y="42"/><line style="stroke:#FFD700;stroke-width:1;stroke-dasharray:1,3;" x1="242" x2="292" y1="68.2969" y2="68.2969"/><text fill="#000000" font-family="sans-serif" font-size="14" lengthAdjust="spacing" textLength="22.9277" x="255.5361" y="59.9951">out</text></g><!--link inner1 to inner2--><g class="link" data-entity-1="ent0007" data-entity-2="ent0010" data-link-type="dependency" data-source-line="17" id="lnk2"><path d="M87.81,67 C105.98,67 118.14,67 136.3,67" fill="none" id="inner1-to-inner2" style="stroke:#181818;stroke-width:1;"/><polygon fill="#181818" points="142.3,67,133.3,63,137.3,67,133.3,71,142.3,67" style="stroke:#181818;stroke-width:1;"/></g><!--link out to inner2--><g class="link" data-entity-1="ent0008" data-entity-2="ent0010" data-link-type="dependency" data-source-line="18" id="lnk3"><path d="M241.52,67 C230.25,67 224.98,67 213.7,67" fill="none" id="out-to-inner2" style="stroke:#181818;stroke-width:1;"/><polygon fill="#181818" points="207.7,67,216.7,71,212.7,67,216.7,63,207.7,67" style="stroke:#181818;stroke-width:1;"/></g><?plantuml-src VOvB2i8m48RtEKN0TQLsgU12f9uZ9OC6mWmaKqJKkvjNRONKMSqat__mh1XaJtHnIXj0bXi7khaw03nOWx1lspwCy1DuLlu6Ec6l6Tlgz9mbWnr1FiLx8IBcACfeEjRG4za97EBwyxchMAGI0SkGGGHNmnvWBTs3MG5fv9fPY1HpNhTeifhM_KihVPfZOKNC_LuV?></g></svg>