<svg xmlns="http://www.w3.org/2000/svg" xmlns:xlink="http://www.w3.org/1999/xlink" contentStyleType="text/css" data-diagram-type="STATE" height="299px" preserveAspectRatio="none" style="width:142px;height:299px;background:#FFFFFF;" version="1.1" viewBox="0 0 142 299" width="142px" zoomAndPan="magnify"><?plantuml 1.2026.3beta5?><defs/><g><g class="entity" data-qualified-name="state1" id="ent0002"><rect fill="#F1F1F1" height="50" rx="12.5" ry="12.5" style="stroke:#181818;stroke-width:0.5;" width="64.3721" x="46" y="7"/><line style="stroke:#181818;stroke-width:0.5;" x1="46" x2="110.3721" y1="33.2969" y2="33.2969"/><text fill="#000000" font-family="sans-serif" font-size="14" lengthAdjust="spacing" textLength="44.3721" x="56" y="24.9951">state1</text></g><g class="entity" data-qualified-name="state2" id="ent0003"><rect fill="#F1F1F1" height="50" rx="12.5" ry="12.5" style="stroke:#181818;stroke-width:0.5;" width="64.3721" x="7" y="235"/><line style="stroke:#181818;stroke-width:0.5;" x1="7" x2="71.3721" y1="261.2969" y2="261.2969"/><text fill="#000000" font-family="sans-serif" font-size="14" lengthAdjust="spacing" textLength="44.3721" x="17" y="252.9951">state2</text></g><g class="entity" data-qualified-name="choice1" id="ent0004"><polygon fill="#98FB98" points="78.19,134,90.19,146,78.19,158,66.19,146,78.19,134" style="stroke:#008000;stroke-width:2.5;"/></g><g class="end_entity" data-qualified-name="end3" data-source-line="11" id="ent0005"><ellipse cx="117.19" cy="260" fill="none" rx="11" ry="11" style="stroke:#222222;stroke-width:1;"/><ellipse cx="117.19" cy="260" fill="#222222" rx="6" ry="6" style="stroke:#222222;stroke-width:1;"/></g><!--link state1 to choice1--><g class="link" data-entity-1="ent0002" data-entity-2="ent0004" data-link-type="dependency" data-source-line="13" id="lnk2"><path d="M78.19,57.3 C78.19,80.85 78.19,109.55 78.19,127.42" fill="none" id="state1-to-choice1" style="stroke:#181818;stroke-width:1;"/><polygon fill="#181818" points="78.19,133.42,82.19,124.42,78.19,128.42,74.19,124.42,78.19,133.42" style="stroke:#181818;stroke-width:1;"/><text fill="#000000" font-family="sans-serif" font-size="13" lengthAdjust="spacing" textLength="8.271" x="79.19" y="100.0669">1</text></g><!--link choice1 to state2--><g class="link" data-entity-1="ent0004" data-entity-2="ent0003" data-link-type="dependency" data-source-line="14" id="lnk3"><path d="M75.25,155.42 C69.44,172.1 58.2539,204.254 49.5339,229.284" fill="none" id="choice1-to-state2" style="stroke:#181818;stroke-width:1;"/><polygon fill="#181818" points="47.56,234.95,54.2982,227.767,49.2049,230.2283,46.7436,225.135,47.56,234.95" style="stroke:#181818;stroke-width:1;"/><text fill="#000000" font-family="sans-serif" font-size="13" lengthAdjust="spacing" textLength="8.271" x="65.19" y="201.0669">2</text></g><!--link choice1 to end3--><g class="link" data-entity-1="ent0004" data-entity-2="ent0005" data-link-type="dependency" data-source-line="15" id="lnk4"><path d="M81.12,155.42 C88.2,175.77 104.2567,221.8738 111.8067,243.5538" fill="none" id="choice1-to-end3" style="stroke:#181818;stroke-width:1;"/><polygon fill="#181818" points="113.78,249.22,114.5976,239.4051,112.1356,244.4981,107.0426,242.0361,113.78,249.22" style="stroke:#181818;stroke-width:1;"/><text fill="#000000" font-family="sans-serif" font-size="13" lengthAdjust="spacing" textLength="8.271" x="98.19" y="201.0669">3</text></g><?plantuml-src LOsn2i8m68JtFCM1SvMqk9IGGTUEla18VjhGc4WJ1n7VtRHDnIu_TzznzukONeua0unLz-0Dtba35wN7VWfFRwx1XGc7XtBKJqH-YJlhgGHxU1ki7Zt5YFfuPXycJkL1J2eHbil_JOtYz12i9WuXLYMt3ddJpFD2P9NfYZbGLVBNQi7PfcTUjZElTtmRQz5y0G00?></g></svg>