<svg xmlns="http://www.w3.org/2000/svg" xmlns:xlink="http://www.w3.org/1999/xlink" contentStyleType="text/css" data-diagram-type="STATE" height="390px" preserveAspectRatio="none" style="width:222px;height:390px;background:#FFFFFF;" version="1.1" viewBox="0 0 222 390" width="222px" zoomAndPan="magnify"><?plantuml 1.2026.3beta5?><defs/><g><rect fill="#F1F1F1" height="46.2969" rx="12.5" ry="12.5" style="stroke:#181818;stroke-width:0.5;" width="103.167" x="55.97" y="118"/><path d="M90.359,118 L90.359,123 L83.359,130 L55.97,130" fill="none" style="stroke:#181818;stroke-width:0.5;"/><text fill="#000000" font-family="sans-serif" font-size="14" lengthAdjust="spacing" textLength="51.167" x="76.97" y="150.9951">Req(Id)</text><g class="entity" data-qualified-name="MinorId" id="ent0003"><rect fill="#F1F1F1" height="50" rx="12.5" ry="12.5" style="stroke:#181818;stroke-width:0.5;" width="83.1025" x="7" y="326.3"/><line style="stroke:#181818;stroke-width:0.5;" x1="7" x2="90.1025" y1="352.5969" y2="352.5969"/><text fill="#000000" font-family="sans-serif" font-size="14" lengthAdjust="spacing" textLength="63.1025" x="17" y="344.2951">Minor(Id)</text></g><g class="entity" data-qualified-name="MajorId" id="ent0004"><rect fill="#F1F1F1" height="50" rx="12.5" ry="12.5" style="stroke:#181818;stroke-width:0.5;" width="82.8086" x="125.15" y="326.3"/><line style="stroke:#181818;stroke-width:0.5;" x1="125.15" x2="207.9586" y1="352.5969" y2="352.5969"/><text fill="#000000" font-family="sans-serif" font-size="14" lengthAdjust="spacing" textLength="62.8086" x="135.15" y="344.2951">Major(Id)</text></g><g class="entity" data-qualified-name="c" id="ent0005"><polygon fill="#F1F1F1" points="107.55,225.3,119.55,237.3,107.55,249.3,95.55,237.3,107.55,225.3" style="stroke:#181818;stroke-width:0.5;"/></g><g class="entity" data-qualified-name="Idle" id="ent0002"><rect fill="#F1F1F1" height="50" rx="12.5" ry="12.5" style="stroke:#181818;stroke-width:0.5;" width="50" x="82.55" y="7"/><line style="stroke:#181818;stroke-width:0.5;" x1="82.55" x2="132.55" y1="33.2969" y2="33.2969"/><text fill="#000000" font-family="sans-serif" font-size="14" lengthAdjust="spacing" textLength="25.5186" x="94.7907" y="24.9951">Idle</text></g><!--link Idle to ReqId--><g class="link" data-entity-1="ent0002" data-entity-2="ent0002" data-link-type="dependency" data-source-line="7" id="lnk3"><path d="M107.55,57.32 C107.55,75.47 107.55,94.09 107.55,111.76" fill="none" id="Idle-to-ReqId" style="stroke:#181818;stroke-width:1;"/><polygon fill="#181818" points="107.55,117.76,111.55,108.76,107.55,112.76,103.55,108.76,107.55,117.76" style="stroke:#181818;stroke-width:1;"/></g><!--link ReqId to c--><g class="link" data-entity-1="ent0002" data-entity-2="ent0005" data-link-type="dependency" data-source-line="8" id="lnk4"><path d="M107.55,164.46 C107.55,183.39 107.55,203.77 107.55,218.73" fill="none" id="ReqId-to-c" style="stroke:#181818;stroke-width:1;"/><polygon fill="#181818" points="107.55,224.73,111.55,215.73,107.55,219.73,103.55,215.73,107.55,224.73" style="stroke:#181818;stroke-width:1;"/></g><!--link c to MinorId--><g class="link" data-entity-1="ent0005" data-entity-2="ent0003" data-link-type="dependency" data-source-line="9" id="lnk5"><path d="M99.58,241.68 C87.24,247.4 63.86,260.25 53.55,279.3 C45.91,293.43 44.4483,305.5271 45.1483,319.9071" fill="none" id="c-to-MinorId" style="stroke:#181818;stroke-width:1;"/><polygon fill="#181818" points="45.44,325.9,48.9977,316.7162,45.1969,320.9059,41.0071,317.1051,45.44,325.9" style="stroke:#181818;stroke-width:1;"/><text fill="#000000" font-family="sans-serif" font-size="13" lengthAdjust="spacing" textLength="68.8213" x="54.55" y="292.3669">[Id &lt;= 10]</text></g><!--link c to MajorId--><g class="link" data-entity-1="ent0005" data-entity-2="ent0004" data-link-type="dependency" data-source-line="10" id="lnk6"><path d="M111.42,245.65 C119.88,261.71 137.5444,295.2311 151.0144,320.8111" fill="none" id="c-to-MajorId" style="stroke:#181818;stroke-width:1;"/><polygon fill="#181818" points="153.81,326.12,153.1559,316.2929,151.4803,321.6959,146.0773,320.0203,153.81,326.12" style="stroke:#181818;stroke-width:1;"/><text fill="#000000" font-family="sans-serif" font-size="13" lengthAdjust="spacing" textLength="57.9287" x="138.55" y="292.3669">[Id &gt; 10]</text></g><?plantuml-src Aov9B4bLK0fABTJmJD5KKaWiLW2oFLCKR6oAKtAAKfDJCyjIxUouYY7gV3FpyelWAi4ypnIuP68MiYI81vHKW4ed0urCpiZFJ0OPfy3bcPAJgg2hQmUnZWjYAOYVp9KCfg66ArWfH8ESOwjWQ10Bau8O3PMo0ya00000?></g></svg>