<svg xmlns="http://www.w3.org/2000/svg" xmlns:xlink="http://www.w3.org/1999/xlink" contentStyleType="text/css" data-diagram-type="STATE" height="480px" preserveAspectRatio="none" style="width:258px;height:480px;background:#FFFFFF;" version="1.1" viewBox="0 0 258 480" width="258px" zoomAndPan="magnify"><?plantuml 1.2026.3beta5?><defs/><g><!--cluster Somp--><g class="cluster" data-qualified-name="Somp" data-source-line="1" id="ent0002"><path d="M22.4619,111 L164.4619,111 A12.5,12.5 0 0 1 176.9619,123.5 L176.9619,132.2969 L9.9619,132.2969 L9.9619,123.5 A12.5,12.5 0 0 1 22.4619,111" fill="#F1F1F1"/><rect fill="none" height="261" rx="12.5" ry="12.5" style="stroke:#181818;stroke-width:0.5;" width="167" x="9.9619" y="111"/><line style="stroke:#181818;stroke-width:0.5;" x1="9.9619" x2="176.9619" y1="132.2969" y2="132.2969"/><text fill="#000000" font-family="sans-serif" font-size="14" lengthAdjust="spacing" textLength="39.9766" x="73.4736" y="128.9951">Somp</text></g><text fill="#000000" font-family="sans-serif" font-size="14" lengthAdjust="spacing" textLength="45.9238" x="89" y="89.6982">entry1</text><rect fill="#F1F1F1" height="12" style="stroke:#181818;stroke-width:1.5;" width="48" x="105.9619" y="105"/><line style="stroke:#181818;stroke-width:1.5;" x1="117.9619" x2="117.9619" y1="105" y2="117"/><line style="stroke:#181818;stroke-width:1.5;" x1="129.9619" x2="129.9619" y1="105" y2="117"/><line style="stroke:#181818;stroke-width:1.5;" x1="141.9619" x2="141.9619" y1="105" y2="117"/><text fill="#000000" font-family="sans-serif" font-size="14" lengthAdjust="spacing" textLength="45.9238" x="6" y="89.6982">entry2</text><rect fill="#F1F1F1" height="12" style="stroke:#181818;stroke-width:1.5;" width="48" x="22.9619" y="105"/><line style="stroke:#181818;stroke-width:1.5;" x1="34.9619" x2="34.9619" y1="105" y2="117"/><line style="stroke:#181818;stroke-width:1.5;" x1="46.9619" x2="46.9619" y1="105" y2="117"/><line style="stroke:#181818;stroke-width:1.5;" x1="58.9619" x2="58.9619" y1="105" y2="117"/><g class="entity" data-qualified-name="Somp.sin" id="ent0005"><rect fill="#F1F1F1" height="50" rx="12.5" ry="12.5" style="stroke:#181818;stroke-width:0.5;" width="50" x="25.9619" y="196"/><line style="stroke:#181818;stroke-width:0.5;" x1="25.9619" x2="75.9619" y1="222.2969" y2="222.2969"/><text fill="#000000" font-family="sans-serif" font-size="14" lengthAdjust="spacing" textLength="20.0566" x="40.9336" y="213.9951">sin</text></g><g class="entity" data-qualified-name="Somp.sin2" id="ent0004"><rect fill="#F1F1F1" height="50" rx="12.5" ry="12.5" style="stroke:#181818;stroke-width:0.5;" width="50" x="110.9619" y="196"/><line style="stroke:#181818;stroke-width:0.5;" x1="110.9619" x2="160.9619" y1="222.2969" y2="222.2969"/><text fill="#000000" font-family="sans-serif" font-size="14" lengthAdjust="spacing" textLength="28.9639" x="121.48" y="213.9951">sin2</text></g><g class="entity" data-qualified-name="Somp.exitA" id="ent0006"><rect fill="#F1F1F1" height="50" rx="12.5" ry="12.5" style="stroke:#181818;stroke-width:0.5;" width="55.8545" x="105.0319" y="306"/><line style="stroke:#181818;stroke-width:0.5;" x1="105.0319" x2="160.8864" y1="332.2969" y2="332.2969"/><text fill="#000000" font-family="sans-serif" font-size="14" lengthAdjust="spacing" textLength="35.8545" x="115.0319" y="323.9951">exitA</text></g><g class="start_entity" data-qualified-name=".start." data-source-line="11" id="ent0008"><ellipse cx="129.9619" cy="16" fill="#222222" rx="10" ry="10" style="stroke:#222222;stroke-width:1;"/></g><g class="entity" data-qualified-name="Foo" id="ent0010"><rect fill="#F1F1F1" height="50" rx="12.5" ry="12.5" style="stroke:#181818;stroke-width:0.5;" width="50" x="107.9619" y="416"/><line style="stroke:#181818;stroke-width:0.5;" x1="107.9619" x2="157.9619" y1="442.2969" y2="442.2969"/><text fill="#000000" font-family="sans-serif" font-size="14" lengthAdjust="spacing" textLength="25.1836" x="120.3701" y="433.9951">Foo</text></g><g class="entity" data-qualified-name="Foo1" id="ent0012"><rect fill="#F1F1F1" height="50" rx="12.5" ry="12.5" style="stroke:#181818;stroke-width:0.5;" width="54.0908" x="188.9119" y="86"/><line style="stroke:#181818;stroke-width:0.5;" x1="188.9119" x2="243.0027" y1="112.2969" y2="112.2969"/><text fill="#000000" font-family="sans-serif" font-size="14" lengthAdjust="spacing" textLength="34.0908" x="198.9119" y="103.9951">Foo1</text></g><!--link entry1 to sin--><g class="link" data-entity-1="ent0003" data-entity-2="ent0005" data-link-type="dependency" data-source-line="5" id="lnk2"><path d="M126.1519,117.21 C115.9819,131.11 91.2245,164.9574 72.3945,190.6974" fill="none" id="entry1-to-sin" style="stroke:#181818;stroke-width:1;"/><polygon fill="#181818" points="68.8519,195.54,77.3941,190.6379,71.804,191.5045,70.9374,185.9145,68.8519,195.54" style="stroke:#181818;stroke-width:1;"/></g><!--link entry2 to sin--><g class="link" data-entity-1="ent0004" data-entity-2="ent0005" data-link-type="dependency" data-source-line="6" id="lnk3"><path d="M47.1519,117.21 C47.6719,131.11 48.8806,163.8041 49.8306,189.5441" fill="none" id="entry2-to-sin" style="stroke:#181818;stroke-width:1;"/><polygon fill="#181818" points="50.0519,195.54,53.7173,186.3986,49.8675,190.5434,45.7227,186.6937,50.0519,195.54" style="stroke:#181818;stroke-width:1;"/></g><!--link sin to sin2--><g class="link" data-entity-1="ent0005" data-entity-2="ent0004" data-link-type="dependency" data-source-line="7" id="lnk5"><path d="M76.1919,221 C87.7119,221 93.2319,221 104.7519,221" fill="none" id="sin-to-sin2" style="stroke:#181818;stroke-width:1;"/><polygon fill="#181818" points="110.7519,221,101.7519,217,105.7519,221,101.7519,225,110.7519,221" style="stroke:#181818;stroke-width:1;"/></g><!--link sin2 to exitA--><g class="link" data-entity-1="ent0004" data-entity-2="ent0006" data-link-type="dependency" data-source-line="8" id="lnk7"><path d="M135.2919,246.24 C134.7919,264.02 134.2874,282.0823 133.7974,299.8423" fill="none" id="sin2-to-exitA" style="stroke:#181818;stroke-width:1;"/><polygon fill="#181818" points="133.6319,305.84,137.8786,296.9537,133.7698,300.8419,129.8817,296.7331,133.6319,305.84" style="stroke:#181818;stroke-width:1;"/></g><!--link *start* to entry1--><g class="link" data-entity-1="ent0008" data-entity-2="ent0003" data-link-type="dependency" data-source-line="11" id="lnk9"><path d="M129.9619,26.26 C129.9619,45.55 129.9619,83.54 129.9619,98.73" fill="none" id="*start*-to-entry1" style="stroke:#181818;stroke-width:1;"/><polygon fill="#181818" points="129.9619,104.73,133.9619,95.73,129.9619,99.73,125.9619,95.73,129.9619,104.73" style="stroke:#181818;stroke-width:1;"/></g><!--link exitA to Foo--><g class="link" data-entity-1="ent0006" data-entity-2="ent0010" data-link-type="dependency" data-source-line="12" id="lnk11"><path d="M132.9619,356.24 C132.9619,374.02 132.9619,392.08 132.9619,409.84" fill="none" id="exitA-to-Foo" style="stroke:#181818;stroke-width:1;"/><polygon fill="#181818" points="132.9619,415.84,136.9619,406.84,132.9619,410.84,128.9619,406.84,132.9619,415.84" style="stroke:#181818;stroke-width:1;"/></g><!--link Foo1 to entry2--><g class="link" data-entity-1="ent0012" data-entity-2="ent0004" data-link-type="dependency" data-source-line="13" id="lnk13"><path d="M200.8119,85.67 C192.5319,74.35 181.1519,62.18 167.4619,56 C142.3519,44.66 131.0819,45.85 105.4619,56 C80.3219,65.96 63.1216,87.4869 54.6016,99.7169" fill="none" id="Foo1-to-entry2" style="stroke:#181818;stroke-width:1;"/><polygon fill="#181818" points="51.1719,104.64,59.5985,99.5418,54.03,100.5374,53.0344,94.9688,51.1719,104.64" style="stroke:#181818;stroke-width:1;"/></g><?plantuml-src Aov9B4bL2CxFBL2evb9GA0PpK_DAYYeD5MniKYiA4lEAC_FpFFCAIalix51L6E5JKPoP1sH3JTBLjKCMC5A0yu4ab6C4uHc15QTMP9Ou8XllNre2CR-MYojQAnQY26mu5qGjIC0jFvyBY0qLO9960000?></g></svg>