<svg xmlns="http://www.w3.org/2000/svg" xmlns:xlink="http://www.w3.org/1999/xlink" contentStyleType="text/css" data-diagram-type="STATE" height="478px" preserveAspectRatio="none" style="width:188px;height:478px;background:#FFFFFF;" version="1.1" viewBox="0 0 188 478" width="188px" zoomAndPan="magnify"><?plantuml 1.2026.3beta5?><defs/><g><rect fill="#555555" height="8" style="stroke:none;stroke-width:1;" width="80" x="49.98" y="86"/><rect fill="#555555" height="8" style="stroke:none;stroke-width:1;" width="80" x="49.98" y="264"/><g class="start_entity" data-qualified-name=".start." data-source-line="2" id="ent0002"><ellipse cx="89.98" cy="16" fill="#222222" rx="10" ry="10" style="stroke:#222222;stroke-width:1;"/></g><g class="entity" data-qualified-name="State2" id="ent0004"><rect fill="#F1F1F1" height="50" rx="12.5" ry="12.5" style="stroke:#181818;stroke-width:0.5;" width="65.9648" x="7" y="154"/><line style="stroke:#181818;stroke-width:0.5;" x1="7" x2="72.9648" y1="180.2969" y2="180.2969"/><text fill="#000000" font-family="sans-serif" font-size="14" lengthAdjust="spacing" textLength="45.9648" x="17" y="171.9951">State2</text></g><g class="entity" data-qualified-name="State3" id="ent0006"><rect fill="#F1F1F1" height="50" rx="12.5" ry="12.5" style="stroke:#181818;stroke-width:0.5;" width="65.9648" x="108" y="154"/><line style="stroke:#181818;stroke-width:0.5;" x1="108" x2="173.9648" y1="180.2969" y2="180.2969"/><text fill="#000000" font-family="sans-serif" font-size="14" lengthAdjust="spacing" textLength="45.9648" x="118" y="171.9951">State3</text></g><g class="entity" data-qualified-name="State4" id="ent0010"><rect fill="#F1F1F1" height="50" rx="12.5" ry="12.5" style="stroke:#181818;stroke-width:0.5;" width="65.9648" x="57" y="332"/><line style="stroke:#181818;stroke-width:0.5;" x1="57" x2="122.9648" y1="358.2969" y2="358.2969"/><text fill="#000000" font-family="sans-serif" font-size="14" lengthAdjust="spacing" textLength="45.9648" x="67" y="349.9951">State4</text></g><g class="end_entity" data-qualified-name=".end." data-source-line="10" id="ent0012"><ellipse cx="89.98" cy="453" fill="none" rx="11" ry="11" style="stroke:#222222;stroke-width:1;"/><ellipse cx="89.98" cy="453" fill="#222222" rx="6" ry="6" style="stroke:#222222;stroke-width:1;"/></g><!--link *start* to fork_state--><g class="link" data-entity-1="ent0002" data-entity-2="ent0002" data-link-type="dependency" data-source-line="2" id="lnk3"><path d="M89.98,26.41 C89.98,42.57 89.98,68.89 89.98,79.52" fill="none" id="*start*-to-fork_state" style="stroke:#181818;stroke-width:1;"/><polygon fill="#181818" points="89.98,85.52,93.98,76.52,89.98,80.52,85.98,76.52,89.98,85.52" style="stroke:#181818;stroke-width:1;"/></g><!--link fork_state to State2--><g class="link" data-entity-1="ent0002" data-entity-2="ent0004" data-link-type="dependency" data-source-line="3" id="lnk5"><path d="M88.08,94.3 C82.55,103.93 69.0812,127.3787 56.9412,148.4887" fill="none" id="fork_state-to-State2" style="stroke:#181818;stroke-width:1;"/><polygon fill="#181818" points="53.95,153.69,61.9042,147.8822,56.4426,149.3556,54.9692,143.894,53.95,153.69" style="stroke:#181818;stroke-width:1;"/></g><!--link fork_state to State3--><g class="link" data-entity-1="ent0002" data-entity-2="ent0006" data-link-type="dependency" data-source-line="4" id="lnk7"><path d="M91.92,94.3 C97.56,103.93 111.3266,127.4033 123.6966,148.5133" fill="none" id="fork_state-to-State3" style="stroke:#181818;stroke-width:1;"/><polygon fill="#181818" points="126.73,153.69,125.631,143.9027,124.2021,149.3761,118.7287,147.9472,126.73,153.69" style="stroke:#181818;stroke-width:1;"/></g><!--link State2 to join_state--><g class="link" data-entity-1="ent0004" data-entity-2="ent0003" data-link-type="dependency" data-source-line="7" id="lnk8"><path d="M53.91,204.23 C66.05,225.35 79.5621,248.8569 85.0921,258.4869" fill="none" id="State2-to-join_state" style="stroke:#181818;stroke-width:1;"/><polygon fill="#181818" points="88.08,263.69,87.0669,253.8934,85.5901,259.3541,80.1294,257.8772,88.08,263.69" style="stroke:#181818;stroke-width:1;"/></g><!--link State3 to join_state--><g class="link" data-entity-1="ent0006" data-entity-2="ent0003" data-link-type="dependency" data-source-line="8" id="lnk9"><path d="M126.78,204.23 C114.4,225.35 100.6062,248.8849 94.9562,258.5149" fill="none" id="State3-to-join_state" style="stroke:#181818;stroke-width:1;"/><polygon fill="#181818" points="91.92,263.69,99.9244,257.9516,94.4502,259.3775,93.0243,253.9033,91.92,263.69" style="stroke:#181818;stroke-width:1;"/></g><!--link join_state to State4--><g class="link" data-entity-1="ent0003" data-entity-2="ent0010" data-link-type="dependency" data-source-line="9" id="lnk11"><path d="M89.98,272.3 C89.98,281.93 89.98,304.58 89.98,325.69" fill="none" id="join_state-to-State4" style="stroke:#181818;stroke-width:1;"/><polygon fill="#181818" points="89.98,331.69,93.98,322.69,89.98,326.69,85.98,322.69,89.98,331.69" style="stroke:#181818;stroke-width:1;"/></g><!--link State4 to *end*--><g class="link" data-entity-1="ent0010" data-entity-2="ent0012" data-link-type="dependency" data-source-line="10" id="lnk13"><path d="M89.98,382.21 C89.98,401.57 89.98,421.75 89.98,435.9" fill="none" id="State4-to-*end*" style="stroke:#181818;stroke-width:1;"/><polygon fill="#181818" points="89.98,441.9,93.98,432.9,89.98,436.9,85.98,432.9,89.98,441.9" style="stroke:#181818;stroke-width:1;"/></g><?plantuml-src Aov9B4bLICiloeul1ZDjR40SEpkkQArO1LrTEoGvBYHb89bW4Ci8gwWn5nT492i_CmzkCeW3D1cY3wmO8GqHDKONHT8FDzm4ejO4B09q9W00?></g></svg>