<svg xmlns="http://www.w3.org/2000/svg" xmlns:xlink="http://www.w3.org/1999/xlink" contentStyleType="text/css" data-diagram-type="STATE" height="614px" preserveAspectRatio="none" style="width:760px;height:614px;background:#FFFFFF;" version="1.1" viewBox="0 0 760 614" width="760px" zoomAndPan="magnify"><?plantuml 1.2026.3beta5?><defs/><g><!--cluster State3--><g class="cluster" data-qualified-name="State3" data-source-line="6" id="ent0002"><path d="M19.5,255 L409.5,255 A12.5,12.5 0 0 1 422,267.5 L422,276.2969 L7,276.2969 L7,267.5 A12.5,12.5 0 0 1 19.5,255" fill="#F1F1F1"/><rect fill="none" height="345.77" rx="12.5" ry="12.5" style="stroke:#181818;stroke-width:0.5;" width="415" x="7" y="255"/><line style="stroke:#181818;stroke-width:0.5;" x1="7" x2="422" y1="276.2969" y2="276.2969"/><text fill="#000000" font-family="sans-serif" font-size="14" lengthAdjust="spacing" textLength="45.9648" x="191.5176" y="271.9951">State3</text></g><g class="entity" data-qualified-name="State3.long1" id="ent0003"><rect fill="#F1F1F1" height="50.2656" rx="12.5" ry="12.5" style="stroke:#181818;stroke-width:0.5;" width="198.1719" x="30.91" y="399.5"/><line style="stroke:#181818;stroke-width:0.5;" x1="30.91" x2="229.0819" y1="425.7969" y2="425.7969"/><text fill="#000000" font-family="sans-serif" font-size="14" lengthAdjust="spacing" textLength="178.1719" x="40.91" y="417.4951">Accumulate Enough Data</text><text fill="#000000" font-family="sans-serif" font-size="12" lengthAdjust="spacing" textLength="60.1289" x="35.91" y="441.9355">Just a test</text></g><g class="start_entity" data-qualified-name="State3..start.State3" data-source-line="9" id="ent0011"><ellipse cx="130" cy="309" fill="#222222" rx="10" ry="10" style="stroke:#222222;stroke-width:1;"/></g><g class="entity" data-qualified-name="State3.ProcessData" id="ent0014"><rect fill="#F1F1F1" height="50" rx="12.5" ry="12.5" style="stroke:#181818;stroke-width:0.5;" width="107.0898" x="76.46" y="526.77"/><line style="stroke:#181818;stroke-width:0.5;" x1="76.46" x2="183.5498" y1="553.0669" y2="553.0669"/><text fill="#000000" font-family="sans-serif" font-size="14" lengthAdjust="spacing" textLength="87.0898" x="86.46" y="544.7651">ProcessData</text></g><ellipse cx="196" cy="309" fill="#F1F1F1" rx="11" ry="11" style="stroke:#181818;stroke-width:0.5;"/><text fill="#000000" font-family="sans-serif" font-size="14" lengthAdjust="spacing" textLength="10.5273" x="190.7363" y="313.8467">H</text><ellipse cx="290" cy="309" fill="#F1F1F1" rx="11" ry="11" style="stroke:#181818;stroke-width:0.5;"/><text fill="#000000" font-family="sans-serif" font-size="14" lengthAdjust="spacing" textLength="17.5273" x="281.2363" y="313.8467">H*</text><g class="start_entity" data-qualified-name=".start." data-source-line="1" id="ent0002"><ellipse cx="576" cy="32" fill="#222222" rx="10" ry="10" style="stroke:#222222;stroke-width:1;"/></g><g class="entity" data-qualified-name="State1" id="ent0003"><rect fill="#F1F1F1" height="50" rx="12.5" ry="12.5" style="stroke:#181818;stroke-width:0.5;" width="65.9648" x="621.02" y="7"/><line style="stroke:#181818;stroke-width:0.5;" x1="621.02" x2="686.9848" y1="33.2969" y2="33.2969"/><text fill="#000000" font-family="sans-serif" font-size="14" lengthAdjust="spacing" textLength="45.9648" x="631.02" y="24.9951">State1</text></g><g class="entity" data-qualified-name="State2" id="ent0005"><rect fill="#F1F1F1" height="50" rx="12.5" ry="12.5" style="stroke:#181818;stroke-width:0.5;" width="65.9648" x="425.02" y="134"/><line style="stroke:#181818;stroke-width:0.5;" x1="425.02" x2="490.9848" y1="160.2969" y2="160.2969"/><text fill="#000000" font-family="sans-serif" font-size="14" lengthAdjust="spacing" textLength="45.9648" x="435.02" y="151.9951">State2</text></g><g class="end_entity" data-qualified-name=".end." data-source-line="3" id="ent0007"><ellipse cx="566" cy="424.64" fill="none" rx="11" ry="11" style="stroke:#222222;stroke-width:1;"/><ellipse cx="566" cy="424.64" fill="#222222" rx="6" ry="6" style="stroke:#222222;stroke-width:1;"/></g><!--link *start* to State1--><g class="link" data-entity-1="ent0002" data-entity-2="ent0003" data-link-type="dependency" data-source-line="1" id="lnk4"><path d="M586.36,32 C597.81,32 603.26,32 614.71,32" fill="none" id="*start*-to-State1" style="stroke:#181818;stroke-width:1;"/><polygon fill="#181818" points="620.71,32,611.71,28,615.71,32,611.71,36,620.71,32" style="stroke:#181818;stroke-width:1;"/></g><!--link State1 to State2--><g class="link" data-entity-1="ent0003" data-entity-2="ent0005" data-link-type="dependency" data-source-line="2" id="lnk6"><path d="M620.75,54.21 C584.71,77.19 532.5787,110.4437 496.4687,133.4737" fill="none" id="State1-to-State2" style="stroke:#181818;stroke-width:1;"/><polygon fill="#181818" points="491.41,136.7,501.149,135.233,495.6256,134.0114,496.8472,128.488,491.41,136.7" style="stroke:#181818;stroke-width:1;"/><text fill="#000000" font-family="sans-serif" font-size="13" lengthAdjust="spacing" textLength="71.2842" x="568" y="100.0669">Succeeded</text></g><!--link State1 to *end*--><g class="link" data-entity-1="ent0003" data-entity-2="ent0007" data-link-type="dependency" data-source-line="3" id="lnk8"><path d="M662.12,57.42 C677.65,107.76 707.97,226.41 684,322.5 C678.27,345.46 675.41,352.46 659,369.5 C634.26,395.21 600.2598,410.5096 581.7498,417.7296" fill="none" id="State1-to-*end*" style="stroke:#181818;stroke-width:1;"/><polygon fill="#181818" points="576.16,419.91,585.9983,420.366,580.8182,418.093,583.0911,412.9129,576.16,419.91" style="stroke:#181818;stroke-width:1;"/><text fill="#000000" font-family="sans-serif" font-size="13" lengthAdjust="spacing" textLength="51.7905" x="693" y="227.0669">Aborted</text></g><!--link State2 to State3--><g class="link" data-entity-1="ent0005" data-entity-2="ent0002" data-link-type="dependency" data-source-line="4" id="lnk9"><path d="M463.93,184.38 C466.12,198.75 466.49,216.84 459,231 C452.01,244.2225 441.6169,255.6006 429.9189,265.2414 C428.4567,266.4465 426.974,267.6245 425.4751,268.7755 C424.7256,269.351 423.9721,269.9198 423.215,270.4818 C422.8365,270.7628 427.3026,267.5038 426.9223,267.7815" fill="none" id="State2-to-State3" style="stroke:#181818;stroke-width:1;"/><polygon fill="#181818" points="422.0768,271.3199,431.7041,269.2427,426.1147,268.3712,426.9862,262.7819,422.0768,271.3199" style="stroke:#181818;stroke-width:1;"/><text fill="#000000" font-family="sans-serif" font-size="13" lengthAdjust="spacing" textLength="71.2842" x="465" y="227.0669">Succeeded</text></g><!--link State3 to State2--><g class="link" data-entity-1="ent0002" data-entity-2="ent0005" data-link-type="dependency" data-source-line="14" id="lnk18"><path d="M381.3131,254.7327 C381.4232,254.5738 381.5335,254.4149 381.6439,254.2558 C382.0855,253.6195 382.5291,252.9815 382.9747,252.3419 C384.757,249.7836 386.57,247.2006 388.4056,244.6081 C395.7481,234.2381 403.4525,223.715 411,214 C418.78,203.99 423.8516,197.8902 431.9116,188.7502" fill="none" id="State3-to-State2" style="stroke:#181818;stroke-width:1;"/><polygon fill="#181818" points="435.88,184.25,426.9272,188.3546,432.573,188.0001,432.9275,193.6459,435.88,184.25" style="stroke:#181818;stroke-width:1;"/><text fill="#000000" font-family="sans-serif" font-size="13" lengthAdjust="spacing" textLength="38.8159" x="412" y="227.0669">Pause</text></g><!--link State2 to *end*--><g class="link" data-entity-1="ent0005" data-entity-2="ent0007" data-link-type="dependency" data-source-line="5" id="lnk10"><path d="M491.46,176.13 C508.77,185.56 529.46,198.62 545,214 C596.84,265.3 612.63,282.48 633,352.5 C642.43,384.92 602.1656,407.4228 581.3456,416.9528" fill="none" id="State2-to-*end*" style="stroke:#181818;stroke-width:1;"/><polygon fill="#181818" points="575.89,419.45,585.7383,419.3413,580.4364,417.369,582.4086,412.0671,575.89,419.45" style="stroke:#181818;stroke-width:1;"/><text fill="#000000" font-family="sans-serif" font-size="13" lengthAdjust="spacing" textLength="51.7905" x="624" y="313.5669">Aborted</text></g><!--link *start*State3 to long1--><g class="link" data-entity-1="ent0011" data-entity-2="ent0003" data-link-type="dependency" data-source-line="9" id="lnk12"><path d="M130,319.3 C130,336.58 130,368.16 130,393.18" fill="none" id="*start*State3-to-long1" style="stroke:#181818;stroke-width:1;"/><polygon fill="#181818" points="130,399.18,134,390.18,130,394.18,126,390.18,130,399.18" style="stroke:#181818;stroke-width:1;"/></g><!--link long1 to long1--><g class="link" data-entity-1="ent0003" data-entity-2="ent0003" data-link-type="dependency" data-source-line="10" id="lnk13"><path d="M229.41,413.16 C249.62,414.41 264.09,418.24 264.09,424.64 C264.09,431.04 255.6086,434.4896 235.3986,435.7396" fill="none" id="long1-to-long1" style="stroke:#181818;stroke-width:1;"/><polygon fill="#181818" points="229.41,436.11,238.6398,439.5468,234.4005,435.8013,238.1459,431.562,229.41,436.11" style="stroke:#181818;stroke-width:1;"/><text fill="#000000" font-family="sans-serif" font-size="13" lengthAdjust="spacing" textLength="63.5273" x="270.09" y="429.2069">New Data</text></g><!--link long1 to ProcessData--><g class="link" data-entity-1="ent0003" data-entity-2="ent0014" data-link-type="dependency" data-source-line="11" id="lnk15"><path d="M130,450.06 C130,472.11 130,498.38 130,520.41" fill="none" id="long1-to-ProcessData" style="stroke:#181818;stroke-width:1;"/><polygon fill="#181818" points="130,526.41,134,517.41,130,521.41,126,517.41,130,526.41" style="stroke:#181818;stroke-width:1;"/><text fill="#000000" font-family="sans-serif" font-size="13" lengthAdjust="spacing" textLength="84.3096" x="131" y="492.8369">Enough Data</text></g><!--link State2 to *historical*State3--><g class="link" data-entity-1="ent0005" data-entity-2="ent0016" data-link-type="dependency" data-source-line="12" id="lnk17"><path d="M424.84,164.17 C369.48,171.72 261.5,189.23 233,214 C207.46,236.21 200.1427,272.4061 197.7227,291.8061" fill="none" id="State2-to-*historical*State3" style="stroke:#181818;stroke-width:1;"/><polygon fill="#181818" points="196.98,297.76,202.0633,289.3243,197.5989,292.7985,194.1248,288.3341,196.98,297.76" style="stroke:#181818;stroke-width:1;"/><text fill="#000000" font-family="sans-serif" font-size="13" lengthAdjust="spacing" textLength="52.7046" x="234" y="227.0669">Resume</text></g><!--link State2 to *deephistory*State3--><g class="link" data-entity-1="ent0005" data-entity-2="ent0019" data-link-type="dependency" data-source-line="15" id="lnk20"><path d="M424.79,161.8 C388.92,165.64 332.89,177.53 303,214 C282.95,238.47 284.8345,273.1671 287.4445,291.9571" fill="none" id="State2-to-*deephistory*State3" style="stroke:#181818;stroke-width:1;"/><polygon fill="#181818" points="288.27,297.9,290.9937,288.4353,287.5821,292.9475,283.0698,289.5359,288.27,297.9" style="stroke:#181818;stroke-width:1;"/><text fill="#000000" font-family="sans-serif" font-size="13" lengthAdjust="spacing" textLength="86.9629" x="304" y="227.0669">DeepResume</text></g><!--link State3 to State3--><g class="link" data-entity-1="ent0002" data-entity-2="ent0002" data-link-type="dependency" data-source-line="16" id="lnk21"><path d="M405,308.4 C416.96,296.01 439.8,296.21 439.8,309 C439.8,321.8 421.1253,326.3186 409.1653,313.9186" fill="none" id="State3-to-State3" style="stroke:#181818;stroke-width:1;"/><polygon fill="#181818" points="405,309.6,408.3689,318.8547,408.4711,313.1988,414.127,313.301,405,309.6" style="stroke:#181818;stroke-width:1;"/><text fill="#000000" font-family="sans-serif" font-size="13" lengthAdjust="spacing" textLength="38.9175" x="445.8" y="313.5669">Failed</text></g><!--link State3 to *end*--><g class="link" data-entity-1="ent0002" data-entity-2="ent0007" data-link-type="dependency" data-source-line="17" id="lnk22"><path d="M422.2923,346.113 C422.908,346.4186 423.5227,346.7242 424.1362,347.0297 C425.3631,347.6407 426.5851,348.2514 427.8005,348.861 C430.2313,350.0801 432.6356,351.295 435,352.5 C481.11,376.01 529.9032,403.2637 551.3332,415.3437" fill="none" id="State3-to-*end*" style="stroke:#181818;stroke-width:1;"/><polygon fill="#181818" points="556.56,418.29,550.684,410.386,552.2043,415.8347,546.7556,417.355,556.56,418.29" style="stroke:#181818;stroke-width:1;"/><text fill="#000000" font-family="sans-serif" font-size="13" lengthAdjust="spacing" textLength="160.7227" x="464" y="365.5669">Succeeded / Save Result</text></g><!--link State3 to *end*--><g class="link" data-entity-1="ent0002" data-entity-2="ent0007" data-link-type="dependency" data-source-line="18" id="lnk23"><path d="M422.0122,398.0179 C422.2795,398.1296 422.547,398.2409 422.8146,398.3517 C423.35,398.5733 423.8861,398.793 424.4229,399.0107 C425.4965,399.4463 426.5729,399.8741 427.6518,400.2944 C429.8096,401.1351 431.9773,401.9457 434.1516,402.7272 C438.5004,404.2902 442.8762,405.7372 447.2547,407.0766 C456.0117,409.7554 464.7794,412.0041 473.3625,413.8912 C507.695,421.44 533.0767,423.0638 549.0117,423.4388" fill="none" id="State3-to-*end*-1" style="stroke:#181818;stroke-width:1;"/><polygon fill="#181818" points="555.01,423.58,546.1066,419.3694,550.0114,423.4624,545.9184,427.3672,555.01,423.58" style="stroke:#181818;stroke-width:1;"/><text fill="#000000" font-family="sans-serif" font-size="13" lengthAdjust="spacing" textLength="51.7905" x="375" y="365.5669">Aborted</text></g><?plantuml-src RP0n2uCm48LtVyNXA4YfRWu5mHRfKAIEuf36mnQY5fEqG-b_RwB6njefuRtttHsly4hmTv0B8d3hZ0_uHWaWWbnIYbXXPRk5mYA8BrqlZ15yiN2D1NymhWr3l1o0KN1ZIcKZcVxlsqxMLqY882uG3gnhwwrA3gyQTPHS0061N2XLZzThbgbPKVaJFeTX2pFhEugSQrr5h9KgPH-VbX6SaSi6dRSpdRseAYEIuxgD8lKKcI3U9_gNrNqTo8sPiaAhhBb7s41E7ZXSmCGwEBNw0G00?></g></svg>