<svg xmlns="http://www.w3.org/2000/svg" xmlns:xlink="http://www.w3.org/1999/xlink" contentStyleType="text/css" data-diagram-type="STATE" height="640px" preserveAspectRatio="none" style="width:344px;height:640px;background:#FFFFFF;" version="1.1" viewBox="0 0 344 640" width="344px" zoomAndPan="magnify"><?plantuml 1.2026.3beta5?><defs/><g><path d="M19.5,86 L317.1787,86 A12.5,12.5 0 0 1 329.6787,98.5 L329.6787,112.2969 L7,112.2969 L7,98.5 A12.5,12.5 0 0 1 19.5,86" fill="#F1F1F1"/><rect fill="none" height="540.2969" rx="12.5" ry="12.5" style="stroke:#181818;stroke-width:0.5;" width="322.6787" x="7" y="86"/><line style="stroke:#181818;stroke-width:0.5;" x1="7" x2="329.6787" y1="112.2969" y2="112.2969"/><text fill="#000000" font-family="sans-serif" font-size="14" lengthAdjust="spacing" textLength="43.5518" x="146.5635" y="103.9951">Active</text><g class="start_entity" data-qualified-name="Active..start.Active" data-source-line="4" id="ent0004"><ellipse cx="28" cy="149.2969" fill="#222222" rx="10" ry="10" style="stroke:#222222;stroke-width:1;"/></g><g class="entity" data-qualified-name="Active.NumLockOff" id="ent0005"><rect fill="#F1F1F1" height="50" rx="12.5" ry="12.5" style="stroke:#181818;stroke-width:0.5;" width="106.0303" x="55.98" y="124.2969"/><line style="stroke:#181818;stroke-width:0.5;" x1="55.98" x2="162.0103" y1="150.5938" y2="150.5938"/><text fill="#000000" font-family="sans-serif" font-size="14" lengthAdjust="spacing" textLength="86.0303" x="65.98" y="142.292">NumLockOff</text></g><g class="entity" data-qualified-name="Active.NumLockOn" id="ent0007"><rect fill="#F1F1F1" height="50" rx="12.5" ry="12.5" style="stroke:#181818;stroke-width:0.5;" width="105.0459" x="56.48" y="227.2969"/><line style="stroke:#181818;stroke-width:0.5;" x1="56.48" x2="161.5259" y1="253.5938" y2="253.5938"/><text fill="#000000" font-family="sans-serif" font-size="14" lengthAdjust="spacing" textLength="85.0459" x="66.48" y="245.292">NumLockOn</text></g><!--link *start*Active to NumLockOff--><g class="link" data-entity-1="ent0004" data-entity-2="ent0005" data-link-type="dependency" data-source-line="4" id="lnk6"><path d="M38.44,149.2969 C44.14,149.2969 43.83,149.2969 49.53,149.2969" fill="none" id="*start*Active-to-NumLockOff" style="stroke:#181818;stroke-width:1;"/><polygon fill="#181818" points="55.53,149.2969,46.53,145.2969,50.53,149.2969,46.53,153.2969,55.53,149.2969" style="stroke:#181818;stroke-width:1;"/></g><!--link NumLockOff to NumLockOn--><g class="link" data-entity-1="ent0005" data-entity-2="ent0007" data-link-type="dependency" data-source-line="5" id="lnk8"><path d="M55.74,170.5669 C47.06,176.2669 39.21,183.4169 34,192.2969 C24.53,208.4469 32.7825,218.9458 50.8225,228.8658" fill="none" id="NumLockOff-to-NumLockOn" style="stroke:#181818;stroke-width:1;"/><polygon fill="#181818" points="56.08,231.7569,50.1211,223.9152,51.6987,229.3477,46.2663,230.9253,56.08,231.7569" style="stroke:#181818;stroke-width:1;"/><text fill="#000000" font-family="sans-serif" font-size="13" lengthAdjust="spacing" textLength="127.3848" x="35" y="205.3638">EvNumLockPressed</text></g><!--link NumLockOn to NumLockOff--><g class="link" data-entity-1="ent0007" data-entity-2="ent0005" data-link-type="dependency" data-source-line="6" id="lnk9"><path d="M149.46,226.8869 C154.93,221.7869 159.76,215.9069 163,209.2969 C169.28,196.4469 166.2867,188.3365 155.0567,178.5165" fill="none" id="NumLockOn-to-NumLockOff" style="stroke:#181818;stroke-width:1;"/><polygon fill="#181818" points="150.54,174.5669,154.682,183.5024,154.3039,177.8582,159.9481,177.4801,150.54,174.5669" style="stroke:#181818;stroke-width:1;"/><text fill="#000000" font-family="sans-serif" font-size="13" lengthAdjust="spacing" textLength="127.3848" x="167" y="205.3638">EvNumLockPressed</text></g><line style="stroke:#181818;stroke-width:1.5;stroke-dasharray:8,10;" x1="12" x2="322.6787" y1="285.2969" y2="285.2969"/><g class="start_entity" data-qualified-name="Active.CONC2..start.CONC2" data-source-line="8" id="ent0010"><ellipse cx="28" cy="317.2969" fill="#222222" rx="10" ry="10" style="stroke:#222222;stroke-width:1;"/></g><g class="entity" data-qualified-name="Active.CONC2.CapsLockOff" id="ent0011"><rect fill="#F1F1F1" height="50" rx="12.5" ry="12.5" style="stroke:#181818;stroke-width:0.5;" width="107.582" x="56.21" y="292.2969"/><line style="stroke:#181818;stroke-width:0.5;" x1="56.21" x2="163.792" y1="318.5938" y2="318.5938"/><text fill="#000000" font-family="sans-serif" font-size="14" lengthAdjust="spacing" textLength="87.582" x="66.21" y="310.292">CapsLockOff</text></g><g class="entity" data-qualified-name="Active.CONC2.CapsLockOn" id="ent0013"><rect fill="#F1F1F1" height="50" rx="12.5" ry="12.5" style="stroke:#181818;stroke-width:0.5;" width="106.5977" x="56.7" y="395.2969"/><line style="stroke:#181818;stroke-width:0.5;" x1="56.7" x2="163.2977" y1="421.5938" y2="421.5938"/><text fill="#000000" font-family="sans-serif" font-size="14" lengthAdjust="spacing" textLength="86.5977" x="66.7" y="413.292">CapsLockOn</text></g><!--link *start*CONC2 to CapsLockOff--><g class="link" data-entity-1="ent0010" data-entity-2="ent0011" data-link-type="dependency" data-source-line="8" id="lnk12"><path d="M38.25,317.2969 C44.14,317.2969 44.02,317.2969 49.91,317.2969" fill="none" id="*start*CONC2-to-CapsLockOff" style="stroke:#181818;stroke-width:1;"/><polygon fill="#181818" points="55.91,317.2969,46.91,313.2969,50.91,317.2969,46.91,321.2969,55.91,317.2969" style="stroke:#181818;stroke-width:1;"/></g><!--link CapsLockOff to CapsLockOn--><g class="link" data-entity-1="ent0011" data-entity-2="ent0013" data-link-type="dependency" data-source-line="9" id="lnk14"><path d="M55.99,339.0669 C47.6,344.6869 40.06,351.6669 35,360.2969 C25.62,376.3069 33.5552,386.6828 51.3552,396.5728" fill="none" id="CapsLockOff-to-CapsLockOn" style="stroke:#181818;stroke-width:1;"/><polygon fill="#181818" points="56.6,399.4869,50.6755,391.6192,52.2293,397.0585,46.7901,398.6122,56.6,399.4869" style="stroke:#181818;stroke-width:1;"/><text fill="#000000" font-family="sans-serif" font-size="13" lengthAdjust="spacing" textLength="128.8257" x="36" y="373.3638">EvCapsLockPressed</text></g><!--link CapsLockOn to CapsLockOff--><g class="link" data-entity-1="ent0013" data-entity-2="ent0011" data-link-type="dependency" data-source-line="10" id="lnk15"><path d="M152.64,394.8269 C163.89,385.0669 171.33,373.0969 165,360.2969 C161.7,353.6169 161.1873,351.7773 155.6173,346.6573" fill="none" id="CapsLockOn-to-CapsLockOff" style="stroke:#181818;stroke-width:1;"/><polygon fill="#181818" points="151.2,342.5969,155.119,351.6324,154.8811,345.9806,160.533,345.7427,151.2,342.5969" style="stroke:#181818;stroke-width:1;"/><text fill="#000000" font-family="sans-serif" font-size="13" lengthAdjust="spacing" textLength="128.8257" x="168" y="373.3638">EvCapsLockPressed</text></g><line style="stroke:#181818;stroke-width:1.5;stroke-dasharray:8,10;" x1="12" x2="322.6787" y1="453.2969" y2="453.2969"/><g class="start_entity" data-qualified-name="Active.CONC3..start.CONC3" data-source-line="12" id="ent0016"><ellipse cx="28" cy="485.2969" fill="#222222" rx="10" ry="10" style="stroke:#222222;stroke-width:1;"/></g><g class="entity" data-qualified-name="Active.CONC3.ScrollLockOff" id="ent0017"><rect fill="#F1F1F1" height="50" rx="12.5" ry="12.5" style="stroke:#181818;stroke-width:0.5;" width="111.7314" x="56.13" y="460.2969"/><line style="stroke:#181818;stroke-width:0.5;" x1="56.13" x2="167.8614" y1="486.5938" y2="486.5938"/><text fill="#000000" font-family="sans-serif" font-size="14" lengthAdjust="spacing" textLength="91.7314" x="66.13" y="478.292">ScrollLockOff</text></g><g class="entity" data-qualified-name="Active.CONC3.ScrollLockOn" id="ent0019"><rect fill="#F1F1F1" height="50" rx="12.5" ry="12.5" style="stroke:#181818;stroke-width:0.5;" width="110.7471" x="56.63" y="563.2969"/><line style="stroke:#181818;stroke-width:0.5;" x1="56.63" x2="167.3771" y1="589.5938" y2="589.5938"/><text fill="#000000" font-family="sans-serif" font-size="14" lengthAdjust="spacing" textLength="90.7471" x="66.63" y="581.292">ScrollLockOn</text></g><!--link *start*CONC3 to ScrollLockOff--><g class="link" data-entity-1="ent0016" data-entity-2="ent0017" data-link-type="dependency" data-source-line="12" id="lnk18"><path d="M38.5,485.2969 C44.24,485.2969 43.98,485.2969 49.73,485.2969" fill="none" id="*start*CONC3-to-ScrollLockOff" style="stroke:#181818;stroke-width:1;"/><polygon fill="#181818" points="55.73,485.2969,46.73,481.2969,50.73,485.2969,46.73,489.2969,55.73,485.2969" style="stroke:#181818;stroke-width:1;"/></g><!--link ScrollLockOff to ScrollLockOn--><g class="link" data-entity-1="ent0017" data-entity-2="ent0019" data-link-type="dependency" data-source-line="13" id="lnk20"><path d="M55.81,507.3369 C47.5,512.8869 40.05,519.7869 35,528.2969 C25.54,544.2269 33.1753,554.4606 50.9553,564.2606" fill="none" id="ScrollLockOff-to-ScrollLockOn" style="stroke:#181818;stroke-width:1;"/><polygon fill="#181818" points="56.21,567.1569,50.2588,559.3093,51.8311,564.7433,46.3971,566.3156,56.21,567.1569" style="stroke:#181818;stroke-width:1;"/><text fill="#000000" font-family="sans-serif" font-size="13" lengthAdjust="spacing" textLength="132.6787" x="36" y="541.3638">EvScrollLockPressed</text></g><!--link ScrollLockOn to ScrollLockOff--><g class="link" data-entity-1="ent0019" data-entity-2="ent0017" data-link-type="dependency" data-source-line="14" id="lnk21"><path d="M156.18,563.0069 C167.83,553.2669 175.55,541.2669 169,528.2969 C165.62,521.6069 165.0713,519.7289 159.4113,514.6389" fill="none" id="ScrollLockOn-to-ScrollLockOff" style="stroke:#181818;stroke-width:1;"/><polygon fill="#181818" points="154.95,510.6269,158.9673,519.6192,158.6678,513.9702,164.3167,513.6707,154.95,510.6269" style="stroke:#181818;stroke-width:1;"/><text fill="#000000" font-family="sans-serif" font-size="13" lengthAdjust="spacing" textLength="132.6787" x="172" y="541.3638">EvScrollLockPressed</text></g><g class="start_entity" data-qualified-name=".start." data-source-line="1" id="ent0002"><ellipse cx="168.34" cy="16" fill="#222222" rx="10" ry="10" style="stroke:#222222;stroke-width:1;"/></g><!--link *start* to Active--><g class="link" data-entity-1="ent0002" data-entity-2="ent0002" data-link-type="dependency" data-source-line="1" id="lnk3"><path d="M168.34,26.4 C168.34,37.92 168.34,53.21 168.34,79.63" fill="none" id="*start*-to-Active" style="stroke:#181818;stroke-width:1;"/><polygon fill="#181818" points="168.34,85.63,172.34,76.63,168.34,80.63,164.34,76.63,168.34,85.63" style="stroke:#181818;stroke-width:1;"/></g><?plantuml-src YzQALT3LjLDmJ2x9B4lbuYekIIn9XV8KghaK5A912kmK_4fpVVAJi_tJqe1Y20vOBuoRfs2bu5e6vGKKfHONfwOWgSv3KGpKYrMrhYx2KkV4WcA4hKWyi4bmFiHU61TX5982NLJJS6X0jZiukIW_9mTXEmeVR1wI2CG52064aIYATD7DnQ6j5W00?></g></svg>