<svg xmlns="http://www.w3.org/2000/svg" xmlns:xlink="http://www.w3.org/1999/xlink" contentStyleType="text/css" data-diagram-type="STATE" height="345px" preserveAspectRatio="none" style="width:731px;height:345px;background:#FFFFFF;" version="1.1" viewBox="0 0 731 345" width="731px" zoomAndPan="magnify"><?plantuml 1.2026.3beta5?><defs/><g><path d="M19.5,7 L704.1311,7 A12.5,12.5 0 0 1 716.6311,19.5 L716.6311,33.2969 L7,33.2969 L7,19.5 A12.5,12.5 0 0 1 19.5,7" fill="#FFC0CB"/><rect fill="none" height="324.5938" rx="12.5" ry="12.5" style="stroke:#181818;stroke-width:0.5;" width="709.6311" x="7" y="7"/><line style="stroke:#181818;stroke-width:0.5;" x1="7" x2="716.6311" y1="33.2969" y2="33.2969"/><text fill="#000000" font-family="sans-serif" font-size="14" lengthAdjust="spacing" textLength="80.0146" x="321.8082" y="24.9951">CurrentSite</text><path d="M31.5,45.2969 L135.3965,45.2969 A12.5,12.5 0 0 1 147.8965,57.7969 L147.8965,71.5938 L19,71.5938 L19,57.7969 A12.5,12.5 0 0 1 31.5,45.2969" fill="#ADD8E6"/><rect fill="none" height="273.2969" rx="12.5" ry="12.5" style="stroke:#181818;stroke-width:0.5;" width="128.8965" x="19" y="45.2969"/><line style="stroke:#181818;stroke-width:0.5;" x1="19" x2="147.8965" y1="71.5938" y2="71.5938"/><text fill="#000000" font-family="sans-serif" font-size="14" lengthAdjust="spacing" textLength="108.8965" x="29" y="63.292">HardwareSetup</text><g class="entity" data-qualified-name="CurrentSite.HardwareSetup.Site" id="ent0004"><rect fill="#A52A2A" height="50" rx="12.5" ry="12.5" style="stroke:#181818;stroke-width:0.5;" width="50" x="50.59" y="83.5938"/><line style="stroke:#181818;stroke-width:0.5;" x1="50.59" x2="100.59" y1="109.8906" y2="109.8906"/><text fill="#000000" font-family="sans-serif" font-size="14" lengthAdjust="spacing" textLength="26.8789" x="62.1505" y="101.5889">Site</text></g><g class="entity" data-qualified-name="CurrentSite.HardwareSetup.Controller" id="ent0002"><rect fill="#F1F1F1" height="50" rx="12.5" ry="12.5" style="stroke:#181818;stroke-width:0.5;" width="89.1729" x="31" y="169.5938"/><line style="stroke:#181818;stroke-width:0.5;" x1="31" x2="120.1729" y1="195.8906" y2="195.8906"/><text fill="#000000" font-family="sans-serif" font-size="14" lengthAdjust="spacing" textLength="69.1729" x="41" y="187.5889">Controller</text></g><g class="entity" data-qualified-name="CurrentSite.HardwareSetup.Devices" id="ent0004"><rect fill="#F1F1F1" height="50" rx="12.5" ry="12.5" style="stroke:#181818;stroke-width:0.5;" width="75.1729" x="38" y="255.5938"/><line style="stroke:#181818;stroke-width:0.5;" x1="38" x2="113.1729" y1="281.8906" y2="281.8906"/><text fill="#000000" font-family="sans-serif" font-size="14" lengthAdjust="spacing" textLength="55.1729" x="48" y="273.5889">Devices</text></g><!--link Site to Controller--><!--link Controller to Devices--><path d="M178.83,88.2969 L336.0693,88.2969 A12.5,12.5 0 0 1 348.5693,100.7969 L348.5693,114.5938 L166.33,114.5938 L166.33,100.7969 A12.5,12.5 0 0 1 178.83,88.2969" fill="#F1F1F1"/><rect fill="none" height="187.2969" rx="12.5" ry="12.5" style="stroke:#181818;stroke-width:0.5;" width="182.2393" x="166.33" y="88.2969"/><line style="stroke:#181818;stroke-width:0.5;" x1="166.33" x2="348.5693" y1="114.5938" y2="114.5938"/><text fill="#000000" font-family="sans-serif" font-size="14" lengthAdjust="spacing" textLength="129.2266" x="192.8363" y="106.292">PresentationSetup</text><g class="entity" data-qualified-name="CurrentSite.PresentationSetup.Groups" id="ent0006"><rect fill="#F1F1F1" height="50" rx="12.5" ry="12.5" style="stroke:#181818;stroke-width:0.5;" width="70.2236" x="216.34" y="126.5938"/><line style="stroke:#181818;stroke-width:0.5;" x1="216.34" x2="286.5636" y1="152.8906" y2="152.8906"/><text fill="#000000" font-family="sans-serif" font-size="14" lengthAdjust="spacing" textLength="50.2236" x="226.34" y="144.5889">Groups</text></g><g class="entity" data-qualified-name="CurrentSite.PresentationSetup.PlansAndGraphics" id="ent0007"><rect fill="#F1F1F1" height="50" rx="12.5" ry="12.5" style="stroke:#181818;stroke-width:0.5;" width="146.2393" x="178.33" y="212.5938"/><line style="stroke:#181818;stroke-width:0.5;" x1="178.33" x2="324.5693" y1="238.8906" y2="238.8906"/><text fill="#000000" font-family="sans-serif" font-size="14" lengthAdjust="spacing" textLength="126.2393" x="188.33" y="230.5889">PlansAndGraphics</text></g><!--link Groups to PlansAndGraphics--><g class="entity" data-qualified-name="CurrentSite.Trends" id="ent0006"><rect fill="#FFFF77" height="50" rx="12.5" ry="12.5" style="stroke:#181818;stroke-width:0.5;" width="67.9746" x="366.46" y="156.9469"/><line style="stroke:#181818;stroke-width:0.5;" x1="366.46" x2="434.4346" y1="183.2438" y2="183.2438"/><text fill="#000000" font-family="sans-serif" font-size="14" lengthAdjust="spacing" textLength="47.9746" x="376.46" y="174.942">Trends</text></g><g class="entity" data-qualified-name="CurrentSite.Schedule" id="ent0007"><rect fill="#FF00FF" height="50" rx="12.5" ry="12.5" style="stroke:#181818;stroke-width:0.5;" width="84.333" x="452.28" y="156.9469"/><line style="stroke:#181818;stroke-width:0.5;" x1="452.28" x2="536.613" y1="183.2438" y2="183.2438"/><text fill="#000000" font-family="sans-serif" font-size="14" lengthAdjust="spacing" textLength="64.333" x="462.28" y="174.942">Schedule</text></g><g class="entity" data-qualified-name="CurrentSite.AlarmSupression" id="ent0008"><rect fill="#F1F1F1" height="50" rx="12.5" ry="12.5" style="stroke:#181818;stroke-width:0.5;" width="138.3711" x="554.26" y="156.9469"/><line style="stroke:#181818;stroke-width:0.5;" x1="554.26" x2="692.6311" y1="183.2438" y2="183.2438"/><text fill="#000000" font-family="sans-serif" font-size="14" lengthAdjust="spacing" textLength="118.3711" x="564.26" y="174.942">AlarmSupression</text></g><?plantuml-src PO-n3e8m48Ptdg89CpER2S688mbknk6W5zfOskRQoc1uToieGhofkV_htNVEWqTM1YBKlf7ndLgfx-oPi5XkJiz0V0J21dsmB5Mo5xvL0J_GoYtVMpAZ_WPBBxiAoJdgMtPWfT6UZ598A_DhxSWZFcI7RiQcZKvDwA8iU6dqhBHgi8fCi6utfLQWNQ5vHM25xFx7NUBbtB7q52lFDq7J2UH1nPC6wDyBDrcXW8OcsAZYeaOolG00?></g></svg>