<svg xmlns="http://www.w3.org/2000/svg" xmlns:xlink="http://www.w3.org/1999/xlink" contentStyleType="text/css" data-diagram-type="STATE" height="435.5649px" preserveAspectRatio="none" style="width:350px;height:435px;background:#FFFFFF;" version="1.1" viewBox="0 0 350 435" width="350.4222px" zoomAndPan="magnify"><?plantuml 1.2026.3beta5?><defs/><g><!--cluster NotShooting--><g class="cluster" data-qualified-name="NotShooting" data-source-line="4" id="ent0002"><path d="M146.8536,56.9964 L203.85,56.9964 A8.7957,8.7957 0 0 1 212.6458,65.7921 L212.6458,71.9821 L138.0579,71.9821 L138.0579,65.7921 A8.7957,8.7957 0 0 1 146.8536,56.9964" fill="#F1F1F1"/><rect fill="none" height="139.3245" rx="8.7957" ry="8.7957" style="stroke:#181818;stroke-width:0.3518;" width="74.5879" x="138.0579" y="56.9964"/><line style="stroke:#181818;stroke-width:0.3518;" x1="138.0579" x2="212.6458" y1="71.9821" y2="71.9821"/><text fill="#000000" font-family="sans-serif" font-size="9.8512" lengthAdjust="spacing" textLength="60.9064" x="144.8986" y="68.9551">NotShooting</text></g><g class="start_entity" data-qualified-name="NotShooting..start.NotShooting" data-source-line="5" id="ent0004"><ellipse cx="172.5372" cy="94.2903" fill="#222222" rx="7.0366" ry="7.0366" style="stroke:#222222;stroke-width:0.7037;"/></g><g class="entity" data-qualified-name="NotShooting.Idle" id="ent0005"><rect fill="#F1F1F1" height="35.183" rx="8.7957" ry="8.7957" style="stroke:#181818;stroke-width:0.3518;" width="35.183" x="154.9457" y="144.2501"/><line style="stroke:#181818;stroke-width:0.3518;" x1="154.9457" x2="190.1287" y1="162.7541" y2="162.7541"/><text fill="#000000" font-family="sans-serif" font-size="9.8512" lengthAdjust="spacing" textLength="17.9564" x="163.559" y="156.9125">Idle</text></g><path d="M13.7214,246.2807 L331.353,246.2807 A8.7957,8.7957 0 0 1 340.1488,255.0764 L340.1488,264.7847 L4.9256,264.7847 L4.9256,255.0764 A8.7957,8.7957 0 0 1 13.7214,246.2807" fill="#F1F1F1"/><rect fill="none" height="179.853" rx="8.7957" ry="8.7957" style="stroke:#181818;stroke-width:0.3518;" width="335.2232" x="4.9256" y="246.2807"/><line style="stroke:#181818;stroke-width:0.3518;" x1="4.9256" x2="340.1488" y1="264.7847" y2="264.7847"/><text fill="#000000" font-family="sans-serif" font-size="9.8512" lengthAdjust="spacing" textLength="57.1352" x="143.9696" y="258.9431">Configuring</text><path d="M89.3084,273.2286 L202.5728,273.2286 A8.7957,8.7957 0 0 1 211.3685,282.0243 L211.3685,291.7326 L80.5127,291.7326 L80.5127,282.0243 A8.7957,8.7957 0 0 1 89.3084,273.2286" fill="#F1F1F1"/><rect fill="none" height="71.2785" rx="8.7957" ry="8.7957" style="stroke:#181818;stroke-width:0.3518;" width="130.8558" x="80.5127" y="273.2286"/><line style="stroke:#181818;stroke-width:0.3518;" x1="80.5127" x2="211.3685" y1="291.7326" y2="291.7326"/><text fill="#000000" font-family="sans-serif" font-size="9.8512" lengthAdjust="spacing" textLength="88.0405" x="101.9203" y="285.891">NewValuePreview</text><g class="entity" data-qualified-name="Configuring.NewValuePreview.State1" id="ent0015"><rect fill="#F1F1F1" height="35.183" rx="8.7957" ry="8.7957" style="stroke:#181818;stroke-width:0.3518;" width="46.4168" x="88.9566" y="300.1765"/><line style="stroke:#181818;stroke-width:0.3518;" x1="88.9566" x2="135.3733" y1="318.6806" y2="318.6806"/><text fill="#000000" font-family="sans-serif" font-size="9.8512" lengthAdjust="spacing" textLength="32.3436" x="95.9932" y="312.839">State1</text></g><g class="entity" data-qualified-name="Configuring.NewValuePreview.State2" id="ent0016"><rect fill="#F1F1F1" height="35.183" rx="8.7957" ry="8.7957" style="stroke:#181818;stroke-width:0.3518;" width="46.4168" x="148.0639" y="300.1765"/><line style="stroke:#181818;stroke-width:0.3518;" x1="148.0639" x2="194.4807" y1="318.6806" y2="318.6806"/><text fill="#000000" font-family="sans-serif" font-size="9.8512" lengthAdjust="spacing" textLength="32.3436" x="155.1005" y="312.839">State2</text></g><!--link State1 to State2--><g class="link" data-entity-1="ent0015" data-entity-2="ent0016" data-link-type="dependency" data-source-line="17" id="lnk17"><path d="M135.7147,317.768 C139.7889,317.768 139.6411,317.768 143.7153,317.768" fill="none" id="State1-to-State2" style="stroke:#181818;stroke-width:0.7037;"/><polygon fill="#181818" points="147.9373,317.768,141.6043,314.9534,144.419,317.768,141.6043,320.5827,147.9373,317.768" style="stroke:#181818;stroke-width:0.7037;"/></g><g class="start_entity" data-qualified-name="Configuring..start.Configuring" data-source-line="11" id="ent0009"><ellipse cx="316.928" cy="308.8689" fill="#222222" rx="7.0366" ry="7.0366" style="stroke:#222222;stroke-width:0.7037;"/></g><g class="entity" data-qualified-name="Configuring.NewValueSelection" id="ent0010"><rect fill="#F1F1F1" height="35.183" rx="8.7957" ry="8.7957" style="stroke:#181818;stroke-width:0.3518;" width="108.7758" x="142.9202" y="381.8032"/><line style="stroke:#181818;stroke-width:0.3518;" x1="142.9202" x2="251.696" y1="400.3072" y2="400.3072"/><text fill="#000000" font-family="sans-serif" font-size="9.8512" lengthAdjust="spacing" textLength="94.7026" x="149.9568" y="394.4656">NewValueSelection</text></g><!--link *start*Configuring to NewValueSelection--><g class="link" data-entity-1="ent0009" data-entity-2="ent0010" data-link-type="dependency" data-source-line="11" id="lnk11"><path d="M316.4918,316.1588 C315.3166,328.3673 311.0736,354.6138 295.8183,369.1373 C283.8561,380.5225 271.7517,386.4325 255.9615,390.7459" fill="none" id="*start*Configuring-to-NewValueSelection" style="stroke:#181818;stroke-width:0.7037;"/><polygon fill="#181818" points="251.8888,391.8585,258.7396,392.9048,255.2828,390.9313,257.2562,387.4745,251.8888,391.8585" style="stroke:#181818;stroke-width:0.7037;"/></g><!--link NewValueSelection to NewValuePreview--><g class="link" data-entity-1="ent0010" data-entity-2="ent0004" data-link-type="dependency" data-source-line="12" id="lnk12"><path d="M225.1357,381.578 C233.08,374.4711 238.3434,365.8583 233.1926,357.1751 C227.8659,348.1964 223.637,343.2344 215.0101,337.1759" fill="none" id="NewValueSelection-to-NewValuePreview" style="stroke:#181818;stroke-width:0.7037;"/><polygon fill="#181818" points="211.5551,334.7495,215.12,340.6925,214.4343,336.7715,218.3553,336.0858,211.5551,334.7495" style="stroke:#181818;stroke-width:0.7037;"/><text fill="#000000" font-family="sans-serif" font-size="9.1476" lengthAdjust="spacing" textLength="56.9758" x="236.0072" y="366.3698">EvNewValue</text></g><!--link NewValuePreview to NewValueSelection--><g class="link" data-entity-1="ent0004" data-entity-2="ent0010" data-link-type="dependency" data-source-line="13" id="lnk13"><path d="M80.2523,321.5278 C45.1116,330.8372 12.6659,346.1066 31.9461,369.1373 C45.963,385.8844 95.9554,392.8344 138.5268,395.9868" fill="none" id="NewValuePreview-to-NewValueSelection" style="stroke:#181818;stroke-width:0.7037;"/><polygon fill="#181818" points="142.7372,396.2986,136.6294,393.0239,139.2285,396.0387,136.2137,398.6378,142.7372,396.2986" style="stroke:#181818;stroke-width:0.7037;"/><text fill="#000000" font-family="sans-serif" font-size="9.1476" lengthAdjust="spacing" textLength="97.1795" x="32.6498" y="366.3698">EvNewValueRejected</text></g><!--link NewValuePreview to NewValueSelection--><g class="link" data-entity-1="ent0004" data-entity-2="ent0010" data-link-type="dependency" data-source-line="14" id="lnk14"><path d="M138.3605,344.5937 C138.1846,353.0939 139.5145,361.8263 143.8279,369.1373 C146.6848,373.9785 147.3036,375.5019 151.8,378.9709" fill="none" id="NewValuePreview-to-NewValueSelection-1" style="stroke:#181818;stroke-width:0.7037;"/><polygon fill="#181818" points="155.1427,381.5499,151.848,375.4529,152.3571,379.4007,148.4093,379.9099,155.1427,381.5499" style="stroke:#181818;stroke-width:0.7037;"/><text fill="#000000" font-family="sans-serif" font-size="9.1476" lengthAdjust="spacing" textLength="85.2359" x="144.5316" y="366.3698">EvNewValueSaved</text></g><g class="start_entity" data-qualified-name=".start." data-source-line="2" id="ent0002"><ellipse cx="207.0165" cy="11.2585" fill="#222222" rx="7.0366" ry="7.0366" style="stroke:#222222;stroke-width:0.7037;"/></g><!--link *start* to NotShooting--><g class="link" data-entity-1="ent0002" data-entity-2="ent0002" data-link-type="dependency" data-source-line="2" id="lnk3"><path d="M207.0165,18.647 C207.0165,23.4442 207.0165,30.4187 207.0165,38.2086 C207.0165,42.1035 207.0165,46.2022 207.0165,50.3345 C207.0165,52.4006 207.0165,54.4752 207.0165,56.5368 C207.0165,56.6657 207.0165,52.5725 207.0165,52.7012" fill="none" id="*start*-to-NotShooting" style="stroke:#181818;stroke-width:0.7037;"/><polygon fill="#181818" points="207.0165,56.9232,209.8311,50.5903,207.0165,53.4049,204.2018,50.5903,207.0165,56.9232" style="stroke:#181818;stroke-width:0.7037;"/></g><!--link *start*NotShooting to Idle--><g class="link" data-entity-1="ent0004" data-entity-2="ent0005" data-link-type="dependency" data-source-line="5" id="lnk6"><path d="M172.5372,101.5802 C172.5372,111.3822 172.5372,125.9268 172.5372,139.7819" fill="none" id="*start*NotShooting-to-Idle" style="stroke:#181818;stroke-width:0.7037;"/><polygon fill="#181818" points="172.5372,144.0038,175.3518,137.6709,172.5372,140.4855,169.7226,137.6709,172.5372,144.0038" style="stroke:#181818;stroke-width:0.7037;"/></g><!--link Idle to Configuring--><g class="link" data-entity-1="ent0005" data-entity-2="ent0003" data-link-type="dependency" data-source-line="6" id="lnk7"><path d="M175.8022,179.5949 C177.5121,189.3898 179.419,201.9431 180.2774,213.2087 C181.0796,223.8199 181.3547,230.7235 181.1506,241.7639" fill="none" id="Idle-to-Configuring" style="stroke:#181818;stroke-width:0.7037;"/><polygon fill="#181818" points="181.0726,245.9851,184.0038,239.7053,181.1376,242.4674,178.3755,239.6013,181.0726,245.9851" style="stroke:#181818;stroke-width:0.7037;"/><text fill="#000000" font-family="sans-serif" font-size="9.1476" lengthAdjust="spacing" textLength="40.5432" x="181.6848" y="222.4033">EvConfig</text></g><!--link Configuring to Idle--><g class="link" data-entity-1="ent0003" data-entity-2="ent0005" data-link-type="dependency" data-source-line="7" id="lnk8"><path d="M130.0573,246.2103 C128.7977,235.0784 129.4733,223.8691 133.1323,213.2087 C137.4739,200.5639 143.5652,191.7697 151.8262,182.6714" fill="none" id="Configuring-to-Idle" style="stroke:#181818;stroke-width:0.7037;"/><polygon fill="#181818" points="154.6643,179.5456,148.3233,182.3422,152.2992,182.1504,152.491,186.1263,154.6643,179.5456" style="stroke:#181818;stroke-width:0.7037;"/><text fill="#000000" font-family="sans-serif" font-size="9.1476" lengthAdjust="spacing" textLength="40.5432" x="133.8359" y="222.4033">EvConfig</text></g><?plantuml-src dL2z2i8m4Dxp53SB1NzmSN0H1vSY1bp48RHd6ma9j6aoID_TIpIGgfDPak_lFd9z9HJ2QZq7BslRiili2aMnXT9OtXfZfMuOwwsmc5FmO039UgWL4WnNn3kZRx8Pkk3RmDwzC3bo8GLpnvYQScFULA8_2pKWHuMLbKQJziLDdCSEdKGVMnANXPByS_WaTC8xiLZ_5UR2KPAYxqL-30XVfCE3k02Q5bzBOcaZunC0?></g></svg>