<svg xmlns="http://www.w3.org/2000/svg" xmlns:xlink="http://www.w3.org/1999/xlink" contentStyleType="text/css" data-diagram-type="STATE" height="615.7635px" preserveAspectRatio="none" style="width:600px;height:615px;background:#FFFFFF;" version="1.1" viewBox="0 0 600 615" width="600.6063px" zoomAndPan="magnify"><?plantuml 1.2026.3beta5?><defs/><g><path d="M18.4729,247.2527 L305.2267,247.2527 A11.8416,11.8416 0 0 1 317.0683,259.0944 L317.0683,272.1645 L6.6313,272.1645 L6.6313,259.0944 A11.8416,11.8416 0 0 1 18.4729,247.2527" fill="#F1F1F1"/><rect fill="none" height="262.2744" rx="11.8416" ry="11.8416" style="stroke:#181818;stroke-width:0.4737;" width="310.437" x="6.6313" y="247.2527"/><line style="stroke:#181818;stroke-width:0.4737;" x1="6.6313" x2="317.0683" y1="272.1645" y2="272.1645"/><text fill="#000000" font-family="sans-serif" font-size="13.2626" lengthAdjust="spacing" textLength="43.5438" x="140.0779" y="264.3">State3</text><g class="entity" data-qualified-name="State3.long1" id="ent0003"><rect fill="#F1F1F1" height="63.0566" rx="11.8416" ry="11.8416" style="stroke:#181818;stroke-width:0.4737;" width="187.7339" x="17.9992" y="336.5829"/><line style="stroke:#181818;stroke-width:0.4737;" x1="17.9992" x2="205.7331" y1="376.9331" y2="376.9331"/><text fill="#000000" font-family="sans-serif" font-size="13.2626" lengthAdjust="spacing" textLength="168.7873" x="27.4725" y="353.6302">Accumulate Enough Data</text><text fill="#000000" font-family="sans-serif" font-size="13.2626" lengthAdjust="spacing" textLength="114.9922" x="27.4725" y="369.0687">Long State Name</text><text fill="#000000" font-family="sans-serif" font-size="11.3679" lengthAdjust="spacing" textLength="56.9618" x="22.7359" y="392.2218">Just a test</text></g><g class="start_entity" data-qualified-name="State3..start.State3" data-source-line="11" id="ent0011"><ellipse cx="111.87" cy="292.0584" fill="#222222" rx="9.4733" ry="9.4733" style="stroke:#222222;stroke-width:0.9473;"/></g><g class="entity" data-qualified-name="State3.ProcessData" id="ent0014"><rect fill="#F1F1F1" height="47.3664" rx="11.8416" ry="11.8416" style="stroke:#181818;stroke-width:0.4737;" width="101.4493" x="61.1406" y="449.8455"/><line style="stroke:#181818;stroke-width:0.4737;" x1="61.1406" x2="162.5898" y1="474.7572" y2="474.7572"/><text fill="#000000" font-family="sans-serif" font-size="13.2626" lengthAdjust="spacing" textLength="82.5027" x="70.6139" y="466.8928">ProcessData</text></g><!--link *start*State3 to long1--><g class="link" data-entity-1="ent0011" data-entity-2="ent0003" data-link-type="dependency" data-source-line="11" id="lnk12"><path d="M111.87,301.797 C111.87,310.3229 111.87,318.0531 111.87,330.52" fill="none" id="*start*State3-to-long1" style="stroke:#181818;stroke-width:0.9473;"/><polygon fill="#181818" points="111.87,336.2039,115.6593,327.678,111.87,331.4673,108.0807,327.678,111.87,336.2039" style="stroke:#181818;stroke-width:0.9473;"/></g><!--link long1 to long1--><g class="link" data-entity-1="ent0003" data-entity-2="ent0003" data-link-type="dependency" data-source-line="12" id="lnk13"><path d="M206.1387,360.4271 C216.2656,361.905 222.7833,364.4722 222.7833,368.11 C222.7833,371.7477 221.8893,373.4796 211.7623,374.9669" fill="none" id="long1-to-long1" style="stroke:#181818;stroke-width:0.9473;"/><polygon fill="#181818" points="206.1387,375.7928,215.1248,378.303,210.8251,375.1045,214.0235,370.8048,206.1387,375.7928" style="stroke:#181818;stroke-width:0.9473;"/><text fill="#000000" font-family="sans-serif" font-size="12.3153" lengthAdjust="spacing" textLength="60.1813" x="228.4672" y="372.4363">New Data</text></g><!--link long1 to ProcessData--><g class="link" data-entity-1="ent0003" data-entity-2="ent0014" data-link-type="dependency" data-source-line="13" id="lnk15"><path d="M111.87,399.836 C111.87,415.808 111.87,429.3074 111.87,443.9626" fill="none" id="long1-to-ProcessData" style="stroke:#181818;stroke-width:0.9473;"/><polygon fill="#181818" points="111.87,449.6465,115.6593,441.1206,111.87,444.9099,108.0807,441.1206,111.87,449.6465" style="stroke:#181818;stroke-width:0.9473;"/><text fill="#000000" font-family="sans-serif" font-size="12.3153" lengthAdjust="spacing" textLength="79.8689" x="112.8174" y="429.0676">Enough Data</text></g><g class="start_entity" data-qualified-name=".start." data-source-line="3" id="ent0002"><ellipse cx="426.1557" cy="30.3145" fill="#222222" rx="9.4733" ry="9.4733" style="stroke:#222222;stroke-width:0.9473;"/></g><g class="entity" data-qualified-name="State1" id="ent0003"><rect fill="#F1F1F1" height="47.3664" rx="11.8416" ry="11.8416" style="stroke:#181818;stroke-width:0.4737;" width="62.4904" x="468.8045" y="6.6313"/><line style="stroke:#181818;stroke-width:0.4737;" x1="468.8045" x2="531.2949" y1="31.5431" y2="31.5431"/><text fill="#000000" font-family="sans-serif" font-size="13.2626" lengthAdjust="spacing" textLength="43.5438" x="478.2778" y="23.6786">State1</text></g><g class="entity" data-qualified-name="State2" id="ent0005"><rect fill="#F1F1F1" height="47.3664" rx="11.8416" ry="11.8416" style="stroke:#181818;stroke-width:0.4737;" width="62.4904" x="416.7014" y="126.942"/><line style="stroke:#181818;stroke-width:0.4737;" x1="416.7014" x2="479.1918" y1="151.8538" y2="151.8538"/><text fill="#000000" font-family="sans-serif" font-size="13.2626" lengthAdjust="spacing" textLength="43.5438" x="426.1747" y="143.9893">State2</text></g><g class="end_entity" data-qualified-name=".end." data-source-line="5" id="ent0007"><ellipse cx="409.1038" cy="592.895" fill="none" rx="10.4206" ry="10.4206" style="stroke:#222222;stroke-width:0.9473;"/><ellipse cx="409.1038" cy="592.895" fill="#222222" rx="5.684" ry="5.684" style="stroke:#222222;stroke-width:0.9473;"/></g><!--link *start* to State1--><g class="link" data-entity-1="ent0002" data-entity-2="ent0003" data-link-type="dependency" data-source-line="3" id="lnk4"><path d="M435.9701,30.3145 C446.817,30.3145 451.9799,30.3145 462.8268,30.3145" fill="none" id="*start*-to-State1" style="stroke:#181818;stroke-width:0.9473;"/><polygon fill="#181818" points="468.5108,30.3145,459.9848,26.5252,463.7742,30.3145,459.9848,34.1038,468.5108,30.3145" style="stroke:#181818;stroke-width:0.9473;"/></g><!--link State1 to State2--><g class="link" data-entity-1="ent0003" data-entity-2="ent0005" data-link-type="dependency" data-source-line="4" id="lnk6"><path d="M474.0811,54.244 C466.5309,62.3721 459.1038,72.0822 454.5756,82.4176 C448.5032,96.2865 446.93,107.5789 446.7973,121.0026" fill="none" id="State1-to-State2" style="stroke:#181818;stroke-width:0.9473;"/><polygon fill="#181818" points="446.7412,126.6862,450.6146,118.1981,446.788,121.9498,443.0363,118.1233,446.7412,126.6862" style="stroke:#181818;stroke-width:0.9473;"/><text fill="#000000" font-family="sans-serif" font-size="12.3153" lengthAdjust="spacing" textLength="67.5295" x="455.5229" y="94.7962">Succeeded</text></g><!--link State1 to *end*--><g class="link" data-entity-1="ent0003" data-entity-2="ent0007" data-link-type="dependency" data-source-line="5" id="lnk8"><path d="M515.6214,54.4619 C520.4244,62.9026 525.0853,72.7454 527.5199,82.4176 C529.263,89.3615 527.7094,91.3698 527.5199,98.5222 C522.679,281.385 586.7374,345.5191 505.7313,509.5301 C486.3016,548.8727 443.7325,574.2263 423.4976,584.7417" fill="none" id="State1-to-*end*" style="stroke:#181818;stroke-width:0.9473;"/><polygon fill="#181818" points="418.454,587.3626,427.7667,586.7936,422.657,585.1785,424.2721,580.0688,418.454,587.3626" style="stroke:#181818;stroke-width:0.9473;"/><text fill="#000000" font-family="sans-serif" font-size="12.3153" lengthAdjust="spacing" textLength="49.0626" x="535.0985" y="215.1069">Aborted</text></g><!--link State2 to State3--><g class="link" data-entity-1="ent0005" data-entity-2="ent0002" data-link-type="dependency" data-source-line="6" id="lnk9"><path d="M416.4267,166.3983 C397.679,175.7768 373.8064,188.7552 354.1588,202.7283 C335.2311,216.1993 320.4751,227.6508 302.0496,243.2154" fill="none" id="State2-to-State3" style="stroke:#181818;stroke-width:0.9473;"/><polygon fill="#181818" points="297.7075,246.8833,306.6659,244.2762,301.3259,243.8267,301.7754,238.4867,297.7075,246.8833" style="stroke:#181818;stroke-width:0.9473;"/><text fill="#000000" font-family="sans-serif" font-size="12.3153" lengthAdjust="spacing" textLength="67.5295" x="355.1061" y="215.1069">Succeeded</text></g><!--link State2 to *end*--><g class="link" data-entity-1="ent0005" data-entity-2="ent0007" data-link-type="dependency" data-source-line="7" id="lnk10"><path d="M448.1622,174.4884 C448.3611,236.3016 446.4002,411.4153 420.4718,554.0546 C418.6529,564.0584 417.008,569.7934 414.3649,577.3815" fill="none" id="State2-to-*end*" style="stroke:#181818;stroke-width:0.9473;"/><polygon fill="#181818" points="412.4953,582.7491,418.8782,575.9441,414.0533,578.2761,411.7213,573.4512,412.4953,582.7491" style="stroke:#181818;stroke-width:0.9473;"/><text fill="#000000" font-family="sans-serif" font-size="12.3153" lengthAdjust="spacing" textLength="49.0626" x="448.8916" y="382.7178">Aborted</text></g><!--link State3 to State3--><g class="link" data-entity-1="ent0002" data-entity-2="ent0002" data-link-type="dependency" data-source-line="15" id="lnk16"><path d="M317.4024,350.9379 C337.1826,355.7408 350.2274,364.892 350.2274,378.3914 C350.2274,391.9003 342.7067,399.7128 322.9265,404.5063" fill="none" id="State3-to-State3" style="stroke:#181818;stroke-width:0.9473;"/><polygon fill="#181818" points="317.4024,405.845,326.581,407.5197,322.0058,404.7294,324.7961,400.1543,317.4024,405.845" style="stroke:#181818;stroke-width:0.9473;"/><text fill="#000000" font-family="sans-serif" font-size="12.3153" lengthAdjust="spacing" textLength="36.8676" x="355.9113" y="382.7178">Failed</text></g><!--link State3 to *end*--><g class="link" data-entity-1="ent0002" data-entity-2="ent0007" data-link-type="dependency" data-source-line="16" id="lnk17"><path d="M153.1546,509.7006 C157.3228,526.1273 164.5036,541.5309 176.061,554.0546 C206.6408,587.1921 351.0899,591.2905 392.706,591.8021" fill="none" id="State3-to-*end*" style="stroke:#181818;stroke-width:0.9473;"/><polygon fill="#181818" points="398.3895,591.8719,389.9108,587.9781,393.6533,591.8137,389.8177,595.5562,398.3895,591.8719" style="stroke:#181818;stroke-width:0.9473;"/><text fill="#000000" font-family="sans-serif" font-size="12.3153" lengthAdjust="spacing" textLength="152.2572" x="177.0083" y="550.3286">Succeeded / Save Result</text></g><!--link State3 to *end*--><g class="link" data-entity-1="ent0002" data-entity-2="ent0007" data-link-type="dependency" data-source-line="17" id="lnk18"><path d="M313.5089,509.748 C351.8947,542.7529 382.1628,568.7833 397.0548,581.5912" fill="none" id="State3-to-*end*-1" style="stroke:#181818;stroke-width:0.9473;"/><polygon fill="#181818" points="401.3642,585.2975,397.3709,576.8651,397.773,582.2089,392.4292,582.6109,401.3642,585.2975" style="stroke:#181818;stroke-width:0.9473;"/><text fill="#000000" font-family="sans-serif" font-size="12.3153" lengthAdjust="spacing" textLength="49.0626" x="363.6321" y="550.3286">Aborted</text></g><?plantuml-src RL0z2y903DtlLpmSXQ9MSEWW2EeW8c97TOZNeCBPWfUpW_ZVlNvfYqu9xoF9YzLa69FX4FaraOjI-_uHmHInaF18LGL1WuI843kjcHDEscnXYp0xPNTfYF1h6__QmZysMn2Duwc02kZDj7OtPuf-aMRkVC6SX0xfEalFbHmRkd4FP64yDlBMilhPAsS5164h7YtJ-RrTrGVn-WtdvVGEkRrdcgqjS2zftQ1UgZwtatL9LzC47RU2Vdw00M9wC7PidP5VOVsHDm00?></g></svg>