<svg xmlns="http://www.w3.org/2000/svg" xmlns:xlink="http://www.w3.org/1999/xlink" contentStyleType="text/css" data-diagram-type="STATE" height="67px" preserveAspectRatio="none" style="width:659px;height:67px;background:#FFFFFF;" version="1.1" viewBox="0 0 659 67" width="659px" zoomAndPan="magnify"><?plantuml 1.2026.3beta5?><defs/><g><g class="start_entity" data-qualified-name="start1" data-source-line="1" id="ent0002"><ellipse cx="16" cy="30.15" fill="#222222" rx="10" ry="10" style="stroke:#222222;stroke-width:1;"/></g><g class="entity" data-qualified-name="choice1" id="ent0003"><polygon fill="#F1F1F1" points="73,18.15,85,30.15,73,42.15,61,30.15,73,18.15" style="stroke:#181818;stroke-width:0.5;"/></g><rect fill="#555555" height="8" style="stroke:none;stroke-width:1;" width="80" x="120" y="26.15"/><rect fill="#555555" height="8" style="stroke:none;stroke-width:1;" width="80" x="235" y="26.15"/><g class="end_entity" data-qualified-name="end3" data-source-line="5" id="ent0006"><ellipse cx="361" cy="30.15" fill="none" rx="11" ry="11" style="stroke:#222222;stroke-width:1;"/><ellipse cx="361" cy="30.15" fill="#222222" rx="6" ry="6" style="stroke:#222222;stroke-width:1;"/></g><rect fill="#F1F1F1" height="46.2969" rx="12.5" ry="12.5" style="stroke:#181818;stroke-width:0.5;" width="123.5381" x="407.23" y="7"/><path d="M448.4094,7 L448.4094,12 L441.4094,19 L407.23,19" fill="none" style="stroke:#181818;stroke-width:0.5;"/><text fill="#000000" font-family="sans-serif" font-size="14" lengthAdjust="spacing" textLength="71.5381" x="428.23" y="39.9951">sdlreceive</text><ellipse cx="577" cy="30.15" fill="#F1F1F1" rx="11" ry="11" style="stroke:#181818;stroke-width:0.5;"/><text fill="#000000" font-family="sans-serif" font-size="14" lengthAdjust="spacing" textLength="10.5273" x="571.7363" y="34.9967">H</text><ellipse cx="634" cy="30.15" fill="#F1F1F1" rx="11" ry="11" style="stroke:#181818;stroke-width:0.5;"/><text fill="#000000" font-family="sans-serif" font-size="14" lengthAdjust="spacing" textLength="17.5273" x="625.2363" y="34.9967">H*</text><?plantuml-src NOr12e0W44NtdS9rEsqhtaLqGYiKd27ezeqM4xHxyzw7GV842iatqafPEyYv2OSFgUO0clr34jRQTjvpw2HwgxcOeJk9XX8NDJIJM8n7Wm3vXFvN3kaf8zLsSNpfNyoNPkTk?></g></svg>