<svg xmlns="http://www.w3.org/2000/svg" xmlns:xlink="http://www.w3.org/1999/xlink" contentStyleType="text/css" data-diagram-type="STATE" height="360px" preserveAspectRatio="none" style="width:492px;height:360px;background:#FFFFFF;" version="1.1" viewBox="0 0 492 360" width="492px" zoomAndPan="magnify"><?plantuml 1.2026.3beta5?><defs/><g><path d="M19.5,86 L181.7977,86 A12.5,12.5 0 0 1 194.2977,98.5 L194.2977,112.2969 L7,112.2969 L7,98.5 A12.5,12.5 0 0 1 19.5,86" fill="#F1F1F1"/><rect fill="none" height="260.2969" rx="12.5" ry="12.5" style="stroke:#181818;stroke-width:0.5;" width="187.2977" x="7" y="86"/><line style="stroke:#181818;stroke-width:0.5;" x1="7" x2="194.2977" y1="112.2969" y2="112.2969"/><text fill="#000000" font-family="sans-serif" font-size="14" lengthAdjust="spacing" textLength="132.5146" x="34.3915" y="103.9951">Not Shooting State</text><g class="entity" data-qualified-name="NotShooting.Idle" id="ent0003"><rect fill="#F1F1F1" height="50" rx="12.5" ry="12.5" style="stroke:#181818;stroke-width:0.5;" width="89.6719" x="46.84" y="180.2969"/><line style="stroke:#181818;stroke-width:0.5;" x1="46.84" x2="136.5119" y1="206.5938" y2="206.5938"/><text fill="#000000" font-family="sans-serif" font-size="14" lengthAdjust="spacing" textLength="69.6719" x="56.84" y="198.292">Idle mode</text></g><g class="entity" data-qualified-name="NotShooting.Configuring" id="ent0004"><rect fill="#F1F1F1" height="50" rx="12.5" ry="12.5" style="stroke:#181818;stroke-width:0.5;" width="145.3506" x="19" y="283.2969"/><line style="stroke:#181818;stroke-width:0.5;" x1="19" x2="164.3506" y1="309.5938" y2="309.5938"/><text fill="#000000" font-family="sans-serif" font-size="14" lengthAdjust="spacing" textLength="125.3506" x="29" y="301.292">Configuring mode</text></g><g class="start_entity" data-qualified-name="NotShooting..start.NotShooting" data-source-line="6" id="ent0004"><ellipse cx="91.68" cy="133.2969" fill="#222222" rx="10" ry="10" style="stroke:#222222;stroke-width:1;"/></g><!--link *start*NotShooting to Idle--><g class="link" data-entity-1="ent0004" data-entity-2="ent0003" data-link-type="dependency" data-source-line="6" id="lnk5"><path d="M91.68,143.7369 C91.68,152.9969 91.68,161.4869 91.68,173.9769" fill="none" id="*start*NotShooting-to-Idle" style="stroke:#181818;stroke-width:1;"/><polygon fill="#181818" points="91.68,179.9769,95.68,170.9769,91.68,174.9769,87.68,170.9769,91.68,179.9769" style="stroke:#181818;stroke-width:1;"/></g><!--link Idle to Configuring--><g class="link" data-entity-1="ent0003" data-entity-2="ent0004" data-link-type="dependency" data-source-line="7" id="lnk6"><path d="M62.76,230.6969 C58.23,235.9969 54.22,241.9369 51.68,248.2969 C46.8,260.4769 48.9009,268.1437 57.6309,278.2637" fill="none" id="Idle-to-Configuring" style="stroke:#181818;stroke-width:1;"/><polygon fill="#181818" points="61.55,282.8069,58.7001,273.3794,58.284,279.0209,52.6425,278.6049,61.55,282.8069" style="stroke:#181818;stroke-width:1;"/><text fill="#000000" font-family="sans-serif" font-size="13" lengthAdjust="spacing" textLength="57.6177" x="52.68" y="261.3638">EvConfig</text></g><!--link Configuring to Idle--><g class="link" data-entity-1="ent0004" data-entity-2="ent0003" data-link-type="dependency" data-source-line="8" id="lnk7"><path d="M105.6,282.9069 C110.01,272.3869 113.17,259.8669 110.68,248.2969 C109.39,242.3469 109.5881,241.7411 107.1281,236.0711" fill="none" id="Configuring-to-Idle" style="stroke:#181818;stroke-width:1;"/><polygon fill="#181818" points="104.74,230.5669,104.6526,240.4153,106.7301,235.1538,111.9917,237.2312,104.74,230.5669" style="stroke:#181818;stroke-width:1;"/><text fill="#000000" font-family="sans-serif" font-size="13" lengthAdjust="spacing" textLength="57.6177" x="111.68" y="261.3638">EvConfig</text></g><g class="start_entity" data-qualified-name=".start." data-source-line="1" id="ent0002"><ellipse cx="100.65" cy="16" fill="#222222" rx="10" ry="10" style="stroke:#222222;stroke-width:1;"/></g><g class="entity" data-qualified-name="GMN2" data-source-line="11" id="ent0003"><path d="M229.31,203.59 L229.31,212.15 L194.54,216.15 L229.31,220.15 L229.31,228.7228 A0,0 0 0 0 229.31,228.7228 L477.9814,228.7228 A0,0 0 0 0 477.9814,228.7228 L477.9814,213.59 L467.9814,203.59 L229.31,203.59 A0,0 0 0 0 229.31,203.59" fill="#FEFFDD" style="stroke:#181818;stroke-width:0.5;"/><path d="M467.9814,203.59 L467.9814,213.59 L477.9814,213.59 L467.9814,203.59" fill="#FEFFDD" style="stroke:#181818;stroke-width:0.5;"/><text fill="#000000" font-family="sans-serif" font-size="13" lengthAdjust="spacing" textLength="227.6714" x="235.31" y="220.6569">This is a note on a composite state</text></g><!--link *start* to NotShooting--><g class="link" data-entity-1="ent0002" data-entity-2="ent0002" data-link-type="dependency" data-source-line="1" id="lnk3"><path d="M100.65,26.29 C100.65,38.23 100.65,54.43 100.65,79.52" fill="none" id="*start*-to-NotShooting" style="stroke:#181818;stroke-width:1;"/><polygon fill="#181818" points="100.65,85.52,104.65,76.52,100.65,80.52,96.65,76.52,100.65,85.52" style="stroke:#181818;stroke-width:1;"/></g><?plantuml-src LOwn3i8m34JtVCMf8r9_e0CBOc1XALl54D4sYKHZrAGiY7_7ILCmaWVV-LrotUwAkjxZJB6rHD5verI8EWwesCDcearU1HqaYfS22dtgxmCcwbSegT_jG7vqPfbJv8i8ayck52d1_5hICjhW-5mr4_Am1INnLieJVpuxOoDe_ElTu69T08z6fiZpTgFfGS6npBq_?></g></svg>