<svg xmlns="http://www.w3.org/2000/svg" xmlns:xlink="http://www.w3.org/1999/xlink" contentStyleType="text/css" data-diagram-type="STATE" height="266px" preserveAspectRatio="none" style="width:390px;height:266px;background:#FFFFFF;" version="1.1" viewBox="0 0 390 266" width="390px" zoomAndPan="magnify"><?plantuml 1.2026.3beta5?><defs/><g><g class="start_entity" data-qualified-name=".start." data-source-line="1" id="ent0002"><ellipse cx="181.44" cy="16" fill="#222222" rx="10" ry="10" style="stroke:#222222;stroke-width:1;"/></g><g class="entity" data-qualified-name="Active" id="ent0003"><rect fill="#F1F1F1" height="50" rx="12.5" ry="12.5" style="stroke:#181818;stroke-width:0.5;" width="63.5518" x="149.66" y="86"/><line style="stroke:#181818;stroke-width:0.5;" x1="149.66" x2="213.2118" y1="112.2969" y2="112.2969"/><text fill="#000000" font-family="sans-serif" font-size="14" lengthAdjust="spacing" textLength="43.5518" x="159.66" y="103.9951">Active</text></g><g class="entity" data-qualified-name="Inactive" id="ent0005"><rect fill="#F1F1F1" height="50" rx="12.5" ry="12.5" style="stroke:#181818;stroke-width:0.5;" width="75.5557" x="143.66" y="198.7"/><line style="stroke:#181818;stroke-width:0.5;" x1="143.66" x2="219.2157" y1="224.9969" y2="224.9969"/><text fill="#000000" font-family="sans-serif" font-size="14" lengthAdjust="spacing" textLength="55.5557" x="153.66" y="216.6951">Inactive</text></g><g class="entity" data-qualified-name="GMN2" data-source-line="4" id="ent0003"><path d="M6,90.87 L6,131.1356 A0,0 0 0 0 6,131.1356 L114.877,131.1356 A0,0 0 0 0 114.877,131.1356 L114.877,115 L149.39,111 L114.877,107 L114.877,100.87 L104.877,90.87 L6,90.87 A0,0 0 0 0 6,90.87" fill="#FEFFDD" style="stroke:#181818;stroke-width:0.5;"/><path d="M104.877,90.87 L104.877,100.87 L114.877,100.87 L104.877,90.87" fill="#FEFFDD" style="stroke:#181818;stroke-width:0.5;"/><text fill="#000000" font-family="sans-serif" font-size="13" lengthAdjust="spacing" textLength="87.877" x="12" y="107.9369">this is a short</text><text fill="#000000" font-family="sans-serif" font-size="13" lengthAdjust="spacing" textLength="29.2881" x="12" y="123.0697">note</text></g><g class="entity" data-qualified-name="GMN5" data-source-line="7" id="ent0006"><path d="M253.82,196 L253.82,219.7 L219.62,223.7 L253.82,227.7 L253.82,251.3984 A0,0 0 0 0 253.82,251.3984 L375.0558,251.3984 A0,0 0 0 0 375.0558,251.3984 L375.0558,206 L365.0558,196 L253.82,196 A0,0 0 0 0 253.82,196" fill="#FEFFDD" style="stroke:#181818;stroke-width:0.5;"/><path d="M365.0558,196 L365.0558,206 L375.0558,206 L365.0558,196" fill="#FEFFDD" style="stroke:#181818;stroke-width:0.5;"/><text fill="#000000" font-family="sans-serif" font-size="13" lengthAdjust="spacing" textLength="100.2358" x="259.82" y="213.0669">A note can also</text><text fill="#000000" font-family="sans-serif" font-size="13" lengthAdjust="spacing" textLength="89.6353" x="259.82" y="228.1997">be defined on</text><text fill="#000000" font-family="sans-serif" font-size="13" lengthAdjust="spacing" textLength="81.7515" x="259.82" y="243.3325">several lines</text></g><!--link *start* to Active--><g class="link" data-entity-1="ent0002" data-entity-2="ent0003" data-link-type="dependency" data-source-line="1" id="lnk4"><path d="M181.44,26.26 C181.44,39.95 181.44,60.07 181.44,79.52" fill="none" id="*start*-to-Active" style="stroke:#181818;stroke-width:1;"/><polygon fill="#181818" points="181.44,85.52,185.44,76.52,181.44,80.52,177.44,76.52,181.44,85.52" style="stroke:#181818;stroke-width:1;"/></g><!--link Active to Inactive--><g class="link" data-entity-1="ent0003" data-entity-2="ent0005" data-link-type="dependency" data-source-line="2" id="lnk6"><path d="M181.44,136.29 C181.44,154.75 181.44,174.02 181.44,192.46" fill="none" id="Active-to-Inactive" style="stroke:#181818;stroke-width:1;"/><polygon fill="#181818" points="181.44,198.46,185.44,189.46,181.44,193.46,177.44,189.46,181.44,198.46" style="stroke:#181818;stroke-width:1;"/></g><?plantuml-src FOn12iCm30JlViMU0_b03eKS-uQs1oMMQuEHm19vVnqd50IBHhDwJH_CymFhxkNWSCKWJw6B1L5dL4uEJRU81PwBeG_1iZP_owdTSYlVFEp_4s35EEqae6hQoSQ8d8fmX4hVZGzkL54xii0IH-C7?></g></svg>