<svg xmlns="http://www.w3.org/2000/svg" xmlns:xlink="http://www.w3.org/1999/xlink" contentStyleType="text/css" data-diagram-type="STATE" height="216px" preserveAspectRatio="none" style="width:326px;height:216px;background:#FFFFFF;" version="1.1" viewBox="0 0 326 216" width="326px" zoomAndPan="magnify"><?plantuml 1.2026.3beta5?><defs/><g><g class="start_entity" data-qualified-name=".start." data-source-line="1" id="ent0002"><ellipse cx="16" cy="32" fill="#222222" rx="10" ry="10" style="stroke:#222222;stroke-width:1;"/></g><g class="entity" data-qualified-name="State1" id="ent0003"><rect fill="#F1F1F1" height="50" rx="12.5" ry="12.5" style="stroke:#181818;stroke-width:0.5;" width="65.9648" x="61.02" y="7"/><line style="stroke:#181818;stroke-width:0.5;" x1="61.02" x2="126.9848" y1="33.2969" y2="33.2969"/><text fill="#000000" font-family="sans-serif" font-size="14" lengthAdjust="spacing" textLength="45.9648" x="71.02" y="24.9951">State1</text></g><g class="entity" data-qualified-name="State2" id="ent0005"><rect fill="#F1F1F1" height="50" rx="12.5" ry="12.5" style="stroke:#181818;stroke-width:0.5;" width="65.9648" x="61.02" y="152"/><line style="stroke:#181818;stroke-width:0.5;" x1="61.02" x2="126.9848" y1="178.2969" y2="178.2969"/><text fill="#000000" font-family="sans-serif" font-size="14" lengthAdjust="spacing" textLength="45.9648" x="71.02" y="169.9951">State2</text></g><!--link *start* to State1--><g class="link" data-entity-1="ent0002" data-entity-2="ent0003" data-link-type="dependency" data-source-line="1" id="lnk4"><path d="M26.36,32 C37.81,32 43.26,32 54.71,32" fill="none" id="*start*-to-State1" style="stroke:#181818;stroke-width:1;"/><polygon fill="#181818" points="60.71,32,51.71,28,55.71,32,51.71,36,60.71,32" style="stroke:#181818;stroke-width:1;"/></g><!--link State1 to State2--><g class="link" data-entity-1="ent0003" data-entity-2="ent0005" data-link-type="dependency" data-source-line="2" id="lnk6"><path d="M94,57.26 C94,83.55 94,119.28 94,145.62" fill="none" id="State1-to-State2" style="stroke:#181818;stroke-width:1;"/><polygon fill="#181818" points="94,151.62,98,142.62,94,146.62,90,142.62,94,151.62" style="stroke:#181818;stroke-width:1;"/><path d="M99,92 L99,117 L311,117 L311,102 L301,92 L99,92" fill="#FEFFDD" style="stroke:#181818;stroke-width:0.5;"/><path d="M301,92 L301,102 L311,102 L301,92" fill="#FEFFDD" style="stroke:#181818;stroke-width:0.5;"/><text fill="#000000" font-family="sans-serif" font-size="13" lengthAdjust="spacing" textLength="187.4463" x="105" y="109.0669">this is a state-transition note</text></g><?plantuml-src YzQALT2rKmWkIIn9DUI2K0gwC14ZhhpyabI5_3o5dCoyR0Kk1OMIZCnY1I1AL2W6AT0jAKhCAyuioGGg0IlbIirB0RC0?></g></svg>