<svg xmlns="http://www.w3.org/2000/svg" xmlns:xlink="http://www.w3.org/1999/xlink" contentStyleType="text/css" data-diagram-type="STATE" height="480px" preserveAspectRatio="none" style="width:251px;height:480px;background:#FFFFFF;" version="1.1" viewBox="0 0 251 480" width="251px" zoomAndPan="magnify"><?plantuml 1.2026.3beta5?><defs/><g><!--cluster Somp--><g class="cluster" data-qualified-name="Somp" data-source-line="1" id="ent0002"><path d="M19.5,111 L161.5,111 A12.5,12.5 0 0 1 174,123.5 L174,132.2969 L7,132.2969 L7,123.5 A12.5,12.5 0 0 1 19.5,111" fill="#F1F1F1"/><rect fill="none" height="261" rx="12.5" ry="12.5" style="stroke:#181818;stroke-width:0.5;" width="167" x="7" y="111"/><line style="stroke:#181818;stroke-width:0.5;" x1="7" x2="174" y1="132.2969" y2="132.2969"/><text fill="#000000" font-family="sans-serif" font-size="14" lengthAdjust="spacing" textLength="39.9766" x="70.5117" y="128.9951">Somp</text></g><text fill="#000000" font-family="sans-serif" font-size="14" lengthAdjust="spacing" textLength="45.9238" x="72.0381" y="89.6982">entry1</text><rect fill="#F1F1F1" height="12" style="stroke:#181818;stroke-width:1.5;" width="12" x="89" y="105"/><text fill="#000000" font-family="sans-serif" font-size="14" lengthAdjust="spacing" textLength="45.9238" x="25.0381" y="89.6982">entry2</text><rect fill="#F1F1F1" height="12" style="stroke:#181818;stroke-width:1.5;" width="12" x="42" y="105"/><g class="entity" data-qualified-name="Somp.sin" id="ent0005"><rect fill="#F1F1F1" height="50" rx="12.5" ry="12.5" style="stroke:#181818;stroke-width:0.5;" width="50" x="23" y="196"/><line style="stroke:#181818;stroke-width:0.5;" x1="23" x2="73" y1="222.2969" y2="222.2969"/><text fill="#000000" font-family="sans-serif" font-size="14" lengthAdjust="spacing" textLength="20.0566" x="37.9717" y="213.9951">sin</text></g><g class="entity" data-qualified-name="Somp.sin2" id="ent0004"><rect fill="#F1F1F1" height="50" rx="12.5" ry="12.5" style="stroke:#181818;stroke-width:0.5;" width="50" x="108" y="196"/><line style="stroke:#181818;stroke-width:0.5;" x1="108" x2="158" y1="222.2969" y2="222.2969"/><text fill="#000000" font-family="sans-serif" font-size="14" lengthAdjust="spacing" textLength="28.9639" x="118.5181" y="213.9951">sin2</text></g><g class="entity" data-qualified-name="Somp.exitA" id="ent0006"><rect fill="#F1F1F1" height="50" rx="12.5" ry="12.5" style="stroke:#181818;stroke-width:0.5;" width="55.8545" x="102.07" y="306"/><line style="stroke:#181818;stroke-width:0.5;" x1="102.07" x2="157.9245" y1="332.2969" y2="332.2969"/><text fill="#000000" font-family="sans-serif" font-size="14" lengthAdjust="spacing" textLength="35.8545" x="112.07" y="323.9951">exitA</text></g><g class="start_entity" data-qualified-name=".start." data-source-line="11" id="ent0008"><ellipse cx="95" cy="16" fill="#222222" rx="10" ry="10" style="stroke:#222222;stroke-width:1;"/></g><g class="entity" data-qualified-name="Foo" id="ent0010"><rect fill="#F1F1F1" height="50" rx="12.5" ry="12.5" style="stroke:#181818;stroke-width:0.5;" width="50" x="105" y="416"/><line style="stroke:#181818;stroke-width:0.5;" x1="105" x2="155" y1="442.2969" y2="442.2969"/><text fill="#000000" font-family="sans-serif" font-size="14" lengthAdjust="spacing" textLength="25.1836" x="117.4082" y="433.9951">Foo</text></g><g class="entity" data-qualified-name="Foo1" id="ent0012"><rect fill="#F1F1F1" height="50" rx="12.5" ry="12.5" style="stroke:#181818;stroke-width:0.5;" width="54.0908" x="181.95" y="86"/><line style="stroke:#181818;stroke-width:0.5;" x1="181.95" x2="236.0408" y1="112.2969" y2="112.2969"/><text fill="#000000" font-family="sans-serif" font-size="14" lengthAdjust="spacing" textLength="34.0908" x="191.95" y="103.9951">Foo1</text></g><!--link entry1 to sin--><g class="link" data-entity-1="ent0003" data-entity-2="ent0005" data-link-type="dependency" data-source-line="5" id="lnk2"><path d="M92.73,117.21 C86.68,131.11 72.2457,164.299 61.0357,190.039" fill="none" id="entry1-to-sin" style="stroke:#181818;stroke-width:1;"/><polygon fill="#181818" points="58.64,195.54,65.9009,188.8857,60.6364,190.9559,58.5663,185.6914,58.64,195.54" style="stroke:#181818;stroke-width:1;"/></g><!--link entry2 to sin--><g class="link" data-entity-1="ent0004" data-entity-2="ent0005" data-link-type="dependency" data-source-line="6" id="lnk3"><path d="M48,117.21 C48,131.11 48,163.8 48,189.54" fill="none" id="entry2-to-sin" style="stroke:#181818;stroke-width:1;"/><polygon fill="#181818" points="48,195.54,52,186.54,48,190.54,44,186.54,48,195.54" style="stroke:#181818;stroke-width:1;"/></g><!--link sin to sin2--><g class="link" data-entity-1="ent0005" data-entity-2="ent0004" data-link-type="dependency" data-source-line="7" id="lnk5"><path d="M73.23,221 C84.75,221 90.27,221 101.79,221" fill="none" id="sin-to-sin2" style="stroke:#181818;stroke-width:1;"/><polygon fill="#181818" points="107.79,221,98.79,217,102.79,221,98.79,225,107.79,221" style="stroke:#181818;stroke-width:1;"/></g><!--link sin2 to exitA--><g class="link" data-entity-1="ent0004" data-entity-2="ent0006" data-link-type="dependency" data-source-line="8" id="lnk7"><path d="M132.33,246.24 C131.83,264.02 131.3255,282.0823 130.8355,299.8423" fill="none" id="sin2-to-exitA" style="stroke:#181818;stroke-width:1;"/><polygon fill="#181818" points="130.67,305.84,134.9167,296.9537,130.8079,300.8419,126.9197,296.7331,130.67,305.84" style="stroke:#181818;stroke-width:1;"/></g><!--link *start* to entry1--><g class="link" data-entity-1="ent0008" data-entity-2="ent0003" data-link-type="dependency" data-source-line="11" id="lnk9"><path d="M95,26.26 C95,45.55 95,83.54 95,98.73" fill="none" id="*start*-to-entry1" style="stroke:#181818;stroke-width:1;"/><polygon fill="#181818" points="95,104.73,99,95.73,95,99.73,91,95.73,95,104.73" style="stroke:#181818;stroke-width:1;"/></g><!--link exitA to Foo--><g class="link" data-entity-1="ent0006" data-entity-2="ent0010" data-link-type="dependency" data-source-line="12" id="lnk11"><path d="M130,356.24 C130,374.02 130,392.08 130,409.84" fill="none" id="exitA-to-Foo" style="stroke:#181818;stroke-width:1;"/><polygon fill="#181818" points="130,415.84,134,406.84,130,410.84,126,406.84,130,415.84" style="stroke:#181818;stroke-width:1;"/></g><!--link Foo1 to entry2--><g class="link" data-entity-1="ent0012" data-entity-2="ent0004" data-link-type="dependency" data-source-line="13" id="lnk13"><path d="M193.85,85.67 C185.57,74.35 174.19,62.18 160.5,56 C131.33,42.83 117.06,41.56 88.5,56 C67.97,66.38 57.5679,87.0551 52.6279,99.1551" fill="none" id="Foo1-to-entry2" style="stroke:#181818;stroke-width:1;"/><polygon fill="#181818" points="50.36,104.71,57.4651,97.8896,52.2499,100.0809,50.0585,94.8658,50.36,104.71" style="stroke:#181818;stroke-width:1;"/></g><?plantuml-src Aov9B4bL2CxFBL2evb9GA0PpK_DAYYeD5MniClCAIai2ClFix53bZB3B5MVc0TbGtRgwTiW2HWfmFf24SemWF2EmujIAp197eC7vfILmaskvkAArOY7IO6Ev8Af00cxv-Ln0RAW0apG20000?></g></svg>