<svg xmlns="http://www.w3.org/2000/svg" xmlns:xlink="http://www.w3.org/1999/xlink" contentStyleType="text/css" data-diagram-type="STATE" height="246px" preserveAspectRatio="none" style="width:267px;height:246px;background:#FFFFFF;" version="1.1" viewBox="0 0 267 246" width="267px" zoomAndPan="magnify"><?plantuml 1.2026.3beta5?><defs/><g><g class="entity" data-qualified-name="State1" id="ent0002"><rect fill="#F1F1F1" height="64.2344" rx="12.5" ry="12.5" style="stroke:#181818;stroke-width:0.5;" width="144.3008" x="7" y="86"/><line style="stroke:#181818;stroke-width:0.5;" x1="7" x2="151.3008" y1="112.2969" y2="112.2969"/><text fill="#000000" font-family="sans-serif" font-size="14" lengthAdjust="spacing" textLength="45.9648" x="56.168" y="103.9951">State1</text><text fill="#000000" font-family="sans-serif" font-size="12" lengthAdjust="spacing" textLength="84.7266" x="12" y="128.4355">this is a string</text><text fill="#000000" font-family="sans-serif" font-size="12" lengthAdjust="spacing" textLength="124.3008" x="12" y="142.4043">this is another string</text></g><g class="start_entity" data-qualified-name=".start." data-source-line="1" id="ent0002"><ellipse cx="79.15" cy="16" fill="#222222" rx="10" ry="10" style="stroke:#222222;stroke-width:1;"/></g><g class="end_entity" data-qualified-name=".end." data-source-line="2" id="ent0004"><ellipse cx="149.15" cy="221.23" fill="none" rx="11" ry="11" style="stroke:#222222;stroke-width:1;"/><ellipse cx="149.15" cy="221.23" fill="#222222" rx="6" ry="6" style="stroke:#222222;stroke-width:1;"/></g><g class="entity" data-qualified-name="State2" id="ent0006"><rect fill="#F1F1F1" height="50" rx="12.5" ry="12.5" style="stroke:#181818;stroke-width:0.5;" width="65.9648" x="186.17" y="93.11"/><line style="stroke:#181818;stroke-width:0.5;" x1="186.17" x2="252.1348" y1="119.4069" y2="119.4069"/><text fill="#000000" font-family="sans-serif" font-size="14" lengthAdjust="spacing" textLength="45.9648" x="196.17" y="111.1051">State2</text></g><!--link *start* to State1--><g class="link" data-entity-1="ent0002" data-entity-2="ent0002" data-link-type="dependency" data-source-line="1" id="lnk3"><path d="M79.15,26.23 C79.15,39.6 79.15,58.96 79.15,79.5" fill="none" id="*start*-to-State1" style="stroke:#181818;stroke-width:1;"/><polygon fill="#181818" points="79.15,85.5,83.15,76.5,79.15,80.5,75.15,76.5,79.15,85.5" style="stroke:#181818;stroke-width:1;"/></g><!--link State1 to *end*--><g class="link" data-entity-1="ent0002" data-entity-2="ent0004" data-link-type="dependency" data-source-line="2" id="lnk5"><path d="M100.92,150.55 C115.68,171.89 130.7259,193.616 139.9359,206.926" fill="none" id="State1-to-*end*" style="stroke:#181818;stroke-width:1;"/><polygon fill="#181818" points="143.35,211.86,141.5181,202.183,140.5049,207.7484,134.9395,206.7351,143.35,211.86" style="stroke:#181818;stroke-width:1;"/></g><!--link State1 to State2--><g class="link" data-entity-1="ent0002" data-entity-2="ent0006" data-link-type="dependency" data-source-line="6" id="lnk7"><path d="M151.61,118.11 C163.04,118.11 168.48,118.11 179.91,118.11" fill="none" id="State1-to-State2" style="stroke:#181818;stroke-width:1;"/><polygon fill="#181818" points="185.91,118.11,176.91,114.11,180.91,118.11,176.91,122.11,185.91,118.11" style="stroke:#181818;stroke-width:1;"/></g><!--link State2 to *end*--><g class="link" data-entity-1="ent0006" data-entity-2="ent0004" data-link-type="dependency" data-source-line="7" id="lnk8"><path d="M202.21,143.59 C186.99,165.57 168.9261,191.6674 158.5861,206.5974" fill="none" id="State2-to-*end*" style="stroke:#181818;stroke-width:1;"/><polygon fill="#181818" points="155.17,211.53,163.5826,206.4086,158.0168,207.4195,157.0058,201.8537,155.17,211.53" style="stroke:#181818;stroke-width:1;"/></g><?plantuml-src YzQALT3LjLC8BaaiIJNaWb1WaMYjM1ZNIg4a8xDO0OWI5OfBYZBpqh78vEMNPAGMmUJX9a6DDe886C6C1W00?></g></svg>