<svg xmlns="http://www.w3.org/2000/svg" xmlns:xlink="http://www.w3.org/1999/xlink" contentStyleType="text/css" data-diagram-type="STATE" height="668px" preserveAspectRatio="none" style="width:400px;height:668px;background:#FFFFFF;" version="1.1" viewBox="0 0 400 668" width="400px" zoomAndPan="magnify"><?plantuml 1.2026.3beta5?><defs/><g><g class="start_entity" data-qualified-name="start1" data-source-line="1" id="ent0002"><ellipse cx="178.98" cy="16" fill="#222222" rx="10" ry="10" style="stroke:#222222;stroke-width:1;"/></g><g class="entity" data-qualified-name="choice1" id="ent0003"><polygon fill="#F1F1F1" points="254.98,118,266.98,130,254.98,142,242.98,130,254.98,118" style="stroke:#181818;stroke-width:0.5;"/></g><rect fill="#555555" height="8" style="stroke:none;stroke-width:1;" width="80" x="112.98" y="241"/><rect fill="#555555" height="8" style="stroke:none;stroke-width:1;" width="80" x="122.98" y="511"/><g class="end_entity" data-qualified-name="end3" data-source-line="5" id="ent0006"><ellipse cx="318.98" cy="245" fill="none" rx="11" ry="11" style="stroke:#222222;stroke-width:1;"/><ellipse cx="318.98" cy="245" fill="#222222" rx="6" ry="6" style="stroke:#222222;stroke-width:1;"/></g><g class="start_entity" data-qualified-name=".start." data-source-line="7" id="ent0002"><ellipse cx="330.98" cy="16" fill="#222222" rx="10" ry="10" style="stroke:#222222;stroke-width:1;"/></g><g class="entity" data-qualified-name="State1" id="ent0008"><rect fill="#F1F1F1" height="50" rx="12.5" ry="12.5" style="stroke:#181818;stroke-width:0.5;" width="65.9648" x="7" y="490"/><line style="stroke:#181818;stroke-width:0.5;" x1="7" x2="72.9648" y1="516.2969" y2="516.2969"/><text fill="#000000" font-family="sans-serif" font-size="14" lengthAdjust="spacing" textLength="45.9648" x="17" y="507.9951">State1</text></g><g class="entity" data-qualified-name="State2" id="ent0010"><rect fill="#F1F1F1" height="50" rx="12.5" ry="12.5" style="stroke:#181818;stroke-width:0.5;" width="65.9648" x="133" y="348"/><line style="stroke:#181818;stroke-width:0.5;" x1="133" x2="198.9648" y1="374.2969" y2="374.2969"/><text fill="#000000" font-family="sans-serif" font-size="14" lengthAdjust="spacing" textLength="45.9648" x="143" y="365.9951">State2</text></g><g class="end_entity" data-qualified-name=".end." data-source-line="18" id="ent0013"><ellipse cx="100.98" cy="643" fill="none" rx="11" ry="11" style="stroke:#222222;stroke-width:1;"/><ellipse cx="100.98" cy="643" fill="#222222" rx="6" ry="6" style="stroke:#222222;stroke-width:1;"/></g><!--link *start* to choice1--><g class="link" data-entity-1="ent0002" data-entity-2="ent0003" data-link-type="dependency" data-source-line="7" id="lnk3"><path d="M327.02,25.69 C320.57,39.46 306.98,66.91 291.98,88 C282.2,101.75 272.6587,111.7637 264.9787,119.3137" fill="none" id="*start*-to-choice1" style="stroke:#181818;stroke-width:1;"/><polygon fill="#181818" points="260.7,123.52,269.9222,120.0631,264.2656,120.0148,264.3139,114.3581,260.7,123.52" style="stroke:#181818;stroke-width:1;"/><text fill="#000000" font-family="sans-serif" font-size="13" lengthAdjust="spacing" textLength="64.9492" x="310.98" y="69.0669">from start</text><text fill="#000000" font-family="sans-serif" font-size="13" lengthAdjust="spacing" textLength="59.2808" x="313.8142" y="84.1997">to choice</text></g><!--link start1 to choice1--><g class="link" data-entity-1="ent0002" data-entity-2="ent0003" data-link-type="dependency" data-source-line="8" id="lnk4"><path d="M174.97,25.63 C169.03,39.82 159.82,68.43 171.98,88 C188.27,114.21 220.9079,123.0904 239.1679,126.4304" fill="none" id="start1-to-choice1" style="stroke:#181818;stroke-width:1;"/><polygon fill="#181818" points="245.07,127.51,236.9366,121.9559,240.1516,126.6104,235.4972,129.8254,245.07,127.51" style="stroke:#181818;stroke-width:1;"/><text fill="#000000" font-family="sans-serif" font-size="13" lengthAdjust="spacing" textLength="110.2461" x="172.98" y="69.0669">from start stereo</text><text fill="#000000" font-family="sans-serif" font-size="13" lengthAdjust="spacing" textLength="59.2808" x="198.4627" y="84.1997">to choice</text></g><!--link choice1 to fork1--><g class="link" data-entity-1="ent0003" data-entity-2="ent0004" data-link-type="dependency" data-source-line="10" id="lnk5"><path d="M244.05,131.52 C221.98,133.23 172.39,140.55 150.98,172 C135.92,194.12 145.3154,223.9587 149.4954,234.9987" fill="none" id="choice1-to-fork1" style="stroke:#181818;stroke-width:1;"/><polygon fill="#181818" points="151.62,240.61,152.174,230.7767,149.8495,235.9339,144.6923,233.6095,151.62,240.61" style="stroke:#181818;stroke-width:1;"/><text fill="#000000" font-family="sans-serif" font-size="13" lengthAdjust="spacing" textLength="76.7686" x="151.98" y="185.0669">from choice</text><text fill="#000000" font-family="sans-serif" font-size="13" lengthAdjust="spacing" textLength="42.5864" x="169.0711" y="200.1997">to fork</text></g><!--link choice1 to join2--><g class="link" data-entity-1="ent0003" data-entity-2="ent0005" data-link-type="dependency" data-source-line="11" id="lnk6"><path d="M257.03,140.65 C265.3,182.06 292.95,347.63 232.98,460 C218.96,486.27 191.449,501.2501 176.299,508.1601" fill="none" id="choice1-to-join2" style="stroke:#181818;stroke-width:1;"/><polygon fill="#181818" points="170.84,510.65,180.6884,510.5545,175.3892,508.5751,177.3686,503.2759,170.84,510.65" style="stroke:#181818;stroke-width:1;"/><text fill="#000000" font-family="sans-serif" font-size="13" lengthAdjust="spacing" textLength="76.7686" x="271.98" y="299.0669">from choice</text><text fill="#000000" font-family="sans-serif" font-size="13" lengthAdjust="spacing" textLength="40.5996" x="290.0645" y="314.1997">to join</text></g><!--link choice1 to end3--><g class="link" data-entity-1="ent0003" data-entity-2="ent0006" data-link-type="dependency" data-source-line="12" id="lnk7"><path d="M259.34,137.9 C264.41,146 273,159.86 279.98,172 C292.74,194.18 304.0573,215.4543 311.2973,229.2843" fill="none" id="choice1-to-end3" style="stroke:#181818;stroke-width:1;"/><polygon fill="#181818" points="314.08,234.6,313.4497,224.7713,311.761,230.1703,306.3621,228.4817,314.08,234.6" style="stroke:#181818;stroke-width:1;"/><text fill="#000000" font-family="sans-serif" font-size="13" lengthAdjust="spacing" textLength="76.7686" x="303.0803" y="185.0669">from choice</text><text fill="#000000" font-family="sans-serif" font-size="13" lengthAdjust="spacing" textLength="86.9692" x="297.98" y="200.1997">to end stereo</text></g><!--link fork1 to State1--><g class="link" data-entity-1="ent0004" data-entity-2="ent0008" data-link-type="dependency" data-source-line="14" id="lnk9"><path d="M147.63,249.45 C130.34,260.95 75.87,299.94 53.98,348 C32.77,394.59 33.683,450.1323 36.583,483.6623" fill="none" id="fork1-to-State1" style="stroke:#181818;stroke-width:1;"/><polygon fill="#181818" points="37.1,489.64,40.3096,480.3288,36.6692,484.6586,32.3394,481.0181,37.1,489.64" style="stroke:#181818;stroke-width:1;"/><text fill="#000000" font-family="sans-serif" font-size="13" lengthAdjust="spacing" textLength="60.0742" x="54.98" y="370.0669">from fork</text><text fill="#000000" font-family="sans-serif" font-size="13" lengthAdjust="spacing" textLength="50.1147" x="59.9597" y="385.1997">to state</text></g><!--link fork1 to State2--><g class="link" data-entity-1="ent0004" data-entity-2="ent0010" data-link-type="dependency" data-source-line="15" id="lnk11"><path d="M152.65,249.31 C151.98,256.16 150.49,272.36 149.98,286 C149.45,300.21 147.94,303.93 149.98,318 C151.41,327.87 152.4329,332.7286 155.3229,341.8786" fill="none" id="fork1-to-State2" style="stroke:#181818;stroke-width:1;"/><polygon fill="#181818" points="157.13,347.6,158.2336,337.8132,155.6241,342.8322,150.6051,340.2226,157.13,347.6" style="stroke:#181818;stroke-width:1;"/><text fill="#000000" font-family="sans-serif" font-size="13" lengthAdjust="spacing" textLength="60.0742" x="150.98" y="299.0669">from fork</text><text fill="#000000" font-family="sans-serif" font-size="13" lengthAdjust="spacing" textLength="50.1147" x="155.9597" y="314.1997">to state</text></g><!--link State2 to join2--><g class="link" data-entity-1="ent0010" data-entity-2="ent0005" data-link-type="dependency" data-source-line="17" id="lnk12"><path d="M162.69,398.41 C161.6,407.66 160.52,418.3 159.98,428 C158.2,460.22 160.9904,493.3171 162.0804,504.7471" fill="none" id="State2-to-join2" style="stroke:#181818;stroke-width:1;"/><polygon fill="#181818" points="162.65,510.72,165.7775,501.3809,162.1753,505.7426,157.8137,502.1404,162.65,510.72" style="stroke:#181818;stroke-width:1;"/><text fill="#000000" font-family="sans-serif" font-size="13" lengthAdjust="spacing" textLength="67.6025" x="160.98" y="441.0669">from state</text><text fill="#000000" font-family="sans-serif" font-size="13" lengthAdjust="spacing" textLength="40.5996" x="174.4815" y="456.1997">to join</text></g><!--link State1 to *end*--><g class="link" data-entity-1="ent0008" data-entity-2="ent0013" data-link-type="dependency" data-source-line="18" id="lnk14"><path d="M37.2,540.15 C36.25,558.29 37.47,583.14 47.98,602 C57.75,619.52 73.3175,629.0899 85.7575,635.0999" fill="none" id="State1-to-*end*" style="stroke:#181818;stroke-width:1;"/><polygon fill="#181818" points="91.16,637.71,84.7962,630.1932,86.6579,635.5349,81.3161,637.3966,91.16,637.71" style="stroke:#181818;stroke-width:1;"/><text fill="#000000" font-family="sans-serif" font-size="13" lengthAdjust="spacing" textLength="67.6025" x="48.98" y="583.0669">from state</text><text fill="#000000" font-family="sans-serif" font-size="13" lengthAdjust="spacing" textLength="41.6724" x="61.9451" y="598.1997">to end</text></g><!--link join2 to *end*--><g class="link" data-entity-1="ent0005" data-entity-2="ent0013" data-link-type="dependency" data-source-line="20" id="lnk15"><path d="M161.39,519.29 C155.85,530.72 136.88,569.82 120.98,602 C115.75,612.58 112.3739,619.3387 108.3039,627.4387" fill="none" id="join2-to-*end*" style="stroke:#181818;stroke-width:1;"/><polygon fill="#181818" points="105.61,632.8,113.225,626.554,107.8549,628.3323,106.0766,622.9622,105.61,632.8" style="stroke:#181818;stroke-width:1;"/><text fill="#000000" font-family="sans-serif" font-size="13" lengthAdjust="spacing" textLength="58.0874" x="137.98" y="583.0669">from join</text><text fill="#000000" font-family="sans-serif" font-size="13" lengthAdjust="spacing" textLength="41.6724" x="146.1875" y="598.1997">to end</text></g><?plantuml-src TP2n3eCm34HtVuNdIXcWMuNuYOvj1qI3IgicKfB_LsqJfw30WewxPtmufY5PZ6a8gK7iEb5z3r7yyUNdqJRaBwe4amyVuYbWLUotdrqhDgjYM_SyezYao8NRwS7lQ4nVTbnm2lwxLBcxv7C0sks8fQSDrgz7G3cUqQfvPec4vcI3QlqQvMI3wY_LA2Mv4e3kDZnovLkKxXm9BoTQaHbiyO04ZNSQ2_4ld3SAgIUlIEeBeD_P8JbIy0S0?></g></svg>