<svg xmlns="http://www.w3.org/2000/svg" xmlns:xlink="http://www.w3.org/1999/xlink" contentStyleType="text/css" data-diagram-type="STATE" height="197px" preserveAspectRatio="none" style="width:384px;height:197px;background:#FFFFFF;" version="1.1" viewBox="0 0 384 197" width="384px" zoomAndPan="magnify"><?plantuml 1.2026.3beta5?><defs/><g><!--cluster s1--><g class="cluster" data-qualified-name="s1" data-source-line="5" id="ent0003"><path d="M57.5,63 L356.5,63 A12.5,12.5 0 0 1 369,75.5 L369,103.2656 L45,103.2656 L45,75.5 A12.5,12.5 0 0 1 57.5,63" fill="#F1F1F1"/><rect fill="none" height="120.27" rx="12.5" ry="12.5" style="stroke:#181818;stroke-width:0.5;" width="324" x="45" y="63"/><line style="stroke:#181818;stroke-width:0.5;" x1="45" x2="369" y1="103.2656" y2="103.2656"/><line style="stroke:#181818;stroke-width:0.5;" x1="45" x2="369" y1="84.2969" y2="84.2969"/><text fill="#000000" font-family="sans-serif" font-size="14" lengthAdjust="spacing" textLength="126.5332" x="143.7334" y="79.9951">This is the State 1</text><text fill="#000000" font-family="sans-serif" font-size="12" lengthAdjust="spacing" textLength="102.2988" x="50" y="97.9355">State description</text></g><rect fill="#F1F1F1" height="40" rx="12.5" ry="12.5" style="stroke:#181818;stroke-width:0.5;" width="50" x="61" y="122.14"/><text fill="#000000" font-family="sans-serif" font-size="14" lengthAdjust="spacing" textLength="16.2012" x="77.8994" y="146.9867">s2</text><g class="entity" data-qualified-name="s1.s3" id="ent0005"><rect fill="#F1F1F1" height="50.2656" rx="12.5" ry="12.5" style="stroke:#181818;stroke-width:0.5;" width="86.3105" x="145.84" y="117"/><line style="stroke:#181818;stroke-width:0.5;" x1="145.84" x2="232.1505" y1="143.2969" y2="143.2969"/><text fill="#000000" font-family="sans-serif" font-size="14" lengthAdjust="spacing" textLength="16.2012" x="180.8947" y="134.9951">s3</text><text fill="#000000" font-family="sans-serif" font-size="12" lengthAdjust="spacing" textLength="66.3105" x="150.84" y="159.4355">long descr.</text></g><g class="entity" data-qualified-name="s1.s4" id="ent0006"><rect fill="#F1F1F1" height="50.2656" rx="12.5" ry="12.5" style="stroke:#181818;stroke-width:0.5;" width="86.3105" x="266.84" y="117"/><line style="stroke:#181818;stroke-width:0.5;" x1="266.84" x2="353.1505" y1="143.2969" y2="143.2969"/><text fill="#000000" font-family="sans-serif" font-size="14" lengthAdjust="spacing" textLength="16.2012" x="301.8947" y="134.9951">s4</text><text fill="#000000" font-family="sans-serif" font-size="12" lengthAdjust="spacing" textLength="66.3105" x="271.84" y="159.4355">long descr.</text></g><rect fill="#F1F1F1" height="40" rx="12.5" ry="12.5" style="stroke:#181818;stroke-width:0.5;" width="50" x="61" y="7"/><text fill="#000000" font-family="sans-serif" font-size="14" lengthAdjust="spacing" textLength="16.2012" x="77.8994" y="31.8467">s0</text><g class="start_entity" data-qualified-name=".start." data-source-line="13" id="ent0002"><ellipse cx="16" cy="27" fill="#222222" rx="10" ry="10" style="stroke:#222222;stroke-width:1;"/></g><!--link *start* to s0--><g class="link" data-entity-1="ent0002" data-entity-2="ent0002" data-link-type="dependency" data-source-line="13" id="lnk3"><path d="M26.39,27 C37.88,27 43.37,27 54.85,27" fill="none" id="*start*-to-s0" style="stroke:#181818;stroke-width:1;"/><polygon fill="#181818" points="60.85,27,51.85,23,55.85,27,51.85,31,60.85,27" style="stroke:#181818;stroke-width:1;"/></g><!--link s0 to s2--><g class="link" data-entity-1="ent0002" data-entity-2="ent0004" data-link-type="dependency" data-source-line="14" id="lnk4"><path d="M86,47.45 C86,68.3 86,95.19 86,115.94" fill="none" id="s0-to-s2" style="stroke:#181818;stroke-width:1;"/><polygon fill="#181818" points="86,121.94,90,112.94,86,116.94,82,112.94,86,121.94" style="stroke:#181818;stroke-width:1;"/></g><!--link s2 to s3--><g class="link" data-entity-1="ent0004" data-entity-2="ent0005" data-link-type="dependency" data-source-line="16" id="lnk5"><path d="M111.35,142.14 C122.77,142.14 128.2,142.14 139.62,142.14" fill="none" id="s2-to-s3" style="stroke:#181818;stroke-width:1;"/><polygon fill="#181818" points="145.62,142.14,136.62,138.14,140.62,142.14,136.62,146.14,145.62,142.14" style="stroke:#181818;stroke-width:1;"/></g><!--link s3 to s4--><g class="link" data-entity-1="ent0005" data-entity-2="ent0006" data-link-type="dependency" data-source-line="17" id="lnk6"><path d="M232.48,142.14 C243.79,142.14 249.09,142.14 260.4,142.14" fill="none" id="s3-to-s4" style="stroke:#181818;stroke-width:1;"/><polygon fill="#181818" points="266.4,142.14,257.4,138.14,261.4,142.14,257.4,146.14,266.4,142.14" style="stroke:#181818;stroke-width:1;"/></g><?plantuml-src oyXCILL8pIqegLH8IIrEBieiACdCprFWuYekIIn9LIWsWB6KGZ8oYnM0g2GZLI4OB6Ief91Oh51ig53DfG2ahA32IEQ0n27c626OnbOAEVbvwH1rUWXn4n3J15MobeihMYjMGTSEv99Y0mLT4Ci8w2OZi9WnLx4nc6420000?></g></svg>