<svg xmlns="http://www.w3.org/2000/svg" xmlns:xlink="http://www.w3.org/1999/xlink" contentStyleType="text/css" data-diagram-type="STATE" height="123px" preserveAspectRatio="none" style="width:114px;height:123px;background:#FFFFFF;" version="1.1" viewBox="0 0 114 123" width="114px" zoomAndPan="magnify"><?plantuml 1.2026.3beta5?><defs/><g><path d="M19.5,7 L86.7236,7 A12.5,12.5 0 0 1 99.2236,19.5 L99.2236,33.2969 L7,33.2969 L7,19.5 A12.5,12.5 0 0 1 19.5,7" fill="#ADD8E6"/><path d="M7,33.2969 L99.2236,33.2969 L99.2236,95.7969 A12.5,12.5 0 0 1 86.7236,108.2969 L19.5,108.2969 A12.5,12.5 0 0 1 7,95.7969 L7,33.2969" fill="#ADD8E6"/><rect fill="none" height="101.2969" rx="12.5" ry="12.5" style="stroke:#181818;stroke-width:0.5;" width="92.2236" x="7" y="7"/><line style="stroke:#181818;stroke-width:0.5;" x1="7" x2="99.2236" y1="33.2969" y2="33.2969"/><text fill="#000000" font-family="sans-serif" font-size="14" lengthAdjust="spacing" textLength="70.4785" x="17.8726" y="24.9951">MainState</text><g class="entity" data-qualified-name="MainState.SubA" id="ent0003"><rect fill="#F1F1F1" height="50" rx="12.5" ry="12.5" style="stroke:#181818;stroke-width:0.5;" width="56.2236" x="19" y="45.2969"/><line style="stroke:#181818;stroke-width:0.5;" x1="19" x2="75.2236" y1="71.5938" y2="71.5938"/><text fill="#000000" font-family="sans-serif" font-size="14" lengthAdjust="spacing" textLength="36.2236" x="29" y="63.292">SubA</text></g><?plantuml-src ioakgSn9jUFIIylFLwZcKb0eBaaiITK1aqxvAPLWCGK5fyJaRFUY_DAy5EVydFmYXPpCz8oIf9pIL6kWT2rNBPUDFjGWBh1M1T_4pBnWCCl61cYqdHt2S8NWqYH7hbe0?></g></svg>