<svg xmlns="http://www.w3.org/2000/svg" xmlns:xlink="http://www.w3.org/1999/xlink" contentStyleType="text/css" data-diagram-type="STATE" height="247px" preserveAspectRatio="none" style="width:189px;height:247px;background:#FFFFFF;" version="1.1" viewBox="0 0 189 247" width="189px" zoomAndPan="magnify"><?plantuml 1.2026.3beta5?><defs/><g><!--cluster A--><g class="cluster" data-qualified-name="A" data-source-line="1" id="ent0002"><path d="M19.5,7 L161.5,7 A12.5,12.5 0 0 1 174,19.5 L174,28.2969 L7,28.2969 L7,19.5 A12.5,12.5 0 0 1 19.5,7" fill="#F1F1F1"/><rect fill="none" height="101" rx="12.5" ry="12.5" style="stroke:#181818;stroke-width:0.5;" width="167" x="7" y="7"/><line style="stroke:#181818;stroke-width:0.5;" x1="7" x2="174" y1="28.2969" y2="28.2969"/><text fill="#000000" font-family="sans-serif" font-size="14" lengthAdjust="spacing" textLength="9.5771" x="85.7114" y="23.9951">A</text></g><!--cluster B--><g class="cluster" data-qualified-name="B" data-source-line="8" id="ent0005"><path d="M61.5,132 L118.5,132 A12.5,12.5 0 0 1 131,144.5 L131,153.2969 L49,153.2969 L49,144.5 A12.5,12.5 0 0 1 61.5,132" fill="#F1F1F1"/><rect fill="none" height="101" rx="12.5" ry="12.5" style="stroke:#181818;stroke-width:0.5;" width="82" x="49" y="132"/><line style="stroke:#181818;stroke-width:0.5;" x1="49" x2="131" y1="153.2969" y2="153.2969"/><text fill="#000000" font-family="sans-serif" font-size="14" lengthAdjust="spacing" textLength="9.6045" x="85.1978" y="148.9951">B</text></g><g class="entity" data-qualified-name="A.X" id="ent0003"><rect fill="#F1F1F1" height="50" rx="12.5" ry="12.5" style="stroke:#181818;stroke-width:0.5;" width="50" x="23" y="42"/><line style="stroke:#181818;stroke-width:0.5;" x1="23" x2="73" y1="68.2969" y2="68.2969"/><text fill="#000000" font-family="sans-serif" font-size="14" lengthAdjust="spacing" textLength="9.5908" x="43.2046" y="59.9951">X</text></g><g class="entity" data-qualified-name="A.Y" id="ent0004"><rect fill="#F1F1F1" height="50" rx="12.5" ry="12.5" style="stroke:#181818;stroke-width:0.5;" width="50" x="108" y="42"/><line style="stroke:#181818;stroke-width:0.5;" x1="108" x2="158" y1="68.2969" y2="68.2969"/><text fill="#000000" font-family="sans-serif" font-size="14" lengthAdjust="spacing" textLength="8.5518" x="128.7241" y="59.9951">Y</text></g><g class="entity" data-qualified-name="B.Z" id="ent0006"><rect fill="#F1F1F1" height="50" rx="12.5" ry="12.5" style="stroke:#181818;stroke-width:0.5;" width="50" x="65" y="167"/><line style="stroke:#181818;stroke-width:0.5;" x1="65" x2="115" y1="193.2969" y2="193.2969"/><text fill="#000000" font-family="sans-serif" font-size="14" lengthAdjust="spacing" textLength="9.5908" x="85.2046" y="184.9951">Z</text></g><!--link X to Z--><g class="link" data-entity-1="ent0003" data-entity-2="ent0006" data-link-type="dependency" data-source-line="13" id="lnk2"><path d="M56.3,92.3 C63.66,113.86 72.4208,139.522 79.7808,161.072" fill="none" id="X-to-Z" style="stroke:#181818;stroke-width:1;"/><polygon fill="#181818" points="81.72,166.75,82.5965,156.9402,80.104,162.0183,75.0259,159.5258,81.72,166.75" style="stroke:#181818;stroke-width:1;"/></g><!--link Z to Y--><g class="link" data-entity-1="ent0006" data-entity-2="ent0004" data-link-type="dependency" data-source-line="14" id="lnk3"><path d="M98.48,166.75 C106.01,145.2 114.9916,119.5245 122.5216,97.9645" fill="none" id="Z-to-Y" style="stroke:#181818;stroke-width:1;"/><polygon fill="#181818" points="124.5,92.3,117.7562,99.4778,122.8514,97.0204,125.3088,102.1156,124.5,92.3" style="stroke:#181818;stroke-width:1;"/></g><?plantuml-src Aov9B4bLS5Ievb9GA0Qp8y3iMZW_4ie7Yd11H9oGL4V1PRaY57HrxHIYkAB0T2G0?></g></svg>