<svg xmlns="http://www.w3.org/2000/svg" xmlns:xlink="http://www.w3.org/1999/xlink" contentStyleType="text/css" data-diagram-type="STATE" height="308px" preserveAspectRatio="none" style="width:931px;height:308px;background:#FFFFFF;" version="1.1" viewBox="0 0 931 308" width="931px" zoomAndPan="magnify"><?plantuml 1.2026.3beta5?><defs/><g><path d="M19.5,86 L904.3892,86 A12.5,12.5 0 0 1 916.8892,98.5 L916.8892,112.2969 L7,112.2969 L7,98.5 A12.5,12.5 0 0 1 19.5,86" fill="#F1F1F1"/><rect fill="none" height="204.2969" rx="12.5" ry="12.5" style="stroke:#181818;stroke-width:0.5;" width="909.8892" x="7" y="86"/><line style="stroke:#181818;stroke-width:0.5;" x1="7" x2="916.8892" y1="112.2969" y2="112.2969"/><text fill="#000000" font-family="sans-serif" font-size="14" lengthAdjust="spacing" textLength="43.5518" x="440.1687" y="103.9951">Active</text><g class="start_entity" data-qualified-name="Active..start.Active" data-source-line="4" id="ent0004"><ellipse cx="28" cy="149.2969" fill="#222222" rx="10" ry="10" style="stroke:#222222;stroke-width:1;"/></g><g class="entity" data-qualified-name="Active.NumLockOff" id="ent0005"><rect fill="#F1F1F1" height="50" rx="12.5" ry="12.5" style="stroke:#181818;stroke-width:0.5;" width="106.0303" x="55.98" y="124.2969"/><line style="stroke:#181818;stroke-width:0.5;" x1="55.98" x2="162.0103" y1="150.5938" y2="150.5938"/><text fill="#000000" font-family="sans-serif" font-size="14" lengthAdjust="spacing" textLength="86.0303" x="65.98" y="142.292">NumLockOff</text></g><g class="entity" data-qualified-name="Active.NumLockOn" id="ent0007"><rect fill="#F1F1F1" height="50" rx="12.5" ry="12.5" style="stroke:#181818;stroke-width:0.5;" width="105.0459" x="56.48" y="227.2969"/><line style="stroke:#181818;stroke-width:0.5;" x1="56.48" x2="161.5259" y1="253.5938" y2="253.5938"/><text fill="#000000" font-family="sans-serif" font-size="14" lengthAdjust="spacing" textLength="85.0459" x="66.48" y="245.292">NumLockOn</text></g><!--link *start*Active to NumLockOff--><g class="link" data-entity-1="ent0004" data-entity-2="ent0005" data-link-type="dependency" data-source-line="4" id="lnk6"><path d="M38.44,149.2969 C44.14,149.2969 43.83,149.2969 49.53,149.2969" fill="none" id="*start*Active-to-NumLockOff" style="stroke:#181818;stroke-width:1;"/><polygon fill="#181818" points="55.53,149.2969,46.53,145.2969,50.53,149.2969,46.53,153.2969,55.53,149.2969" style="stroke:#181818;stroke-width:1;"/></g><!--link NumLockOff to NumLockOn--><g class="link" data-entity-1="ent0005" data-entity-2="ent0007" data-link-type="dependency" data-source-line="5" id="lnk8"><path d="M55.74,170.5669 C47.06,176.2669 39.21,183.4169 34,192.2969 C24.53,208.4469 32.7825,218.9458 50.8225,228.8658" fill="none" id="NumLockOff-to-NumLockOn" style="stroke:#181818;stroke-width:1;"/><polygon fill="#181818" points="56.08,231.7569,50.1211,223.9152,51.6987,229.3477,46.2663,230.9253,56.08,231.7569" style="stroke:#181818;stroke-width:1;"/><text fill="#000000" font-family="sans-serif" font-size="13" lengthAdjust="spacing" textLength="127.3848" x="35" y="205.3638">EvNumLockPressed</text></g><!--link NumLockOn to NumLockOff--><g class="link" data-entity-1="ent0007" data-entity-2="ent0005" data-link-type="dependency" data-source-line="6" id="lnk9"><path d="M149.46,226.8869 C154.93,221.7869 159.76,215.9069 163,209.2969 C169.28,196.4469 166.2867,188.3365 155.0567,178.5165" fill="none" id="NumLockOn-to-NumLockOff" style="stroke:#181818;stroke-width:1;"/><polygon fill="#181818" points="150.54,174.5669,154.682,183.5024,154.3039,177.8582,159.9481,177.4801,150.54,174.5669" style="stroke:#181818;stroke-width:1;"/><text fill="#000000" font-family="sans-serif" font-size="13" lengthAdjust="spacing" textLength="127.3848" x="167" y="205.3638">EvNumLockPressed</text></g><line style="stroke:#181818;stroke-width:1.5;stroke-dasharray:8,10;" x1="304.3848" x2="304.3848" y1="117.2969" y2="293.2969"/><g class="start_entity" data-qualified-name="Active.CONC2..start.CONC2" data-source-line="8" id="ent0010"><ellipse cx="320.3848" cy="149.2969" fill="#222222" rx="10" ry="10" style="stroke:#222222;stroke-width:1;"/></g><g class="entity" data-qualified-name="Active.CONC2.CapsLockOff" id="ent0011"><rect fill="#F1F1F1" height="50" rx="12.5" ry="12.5" style="stroke:#181818;stroke-width:0.5;" width="107.582" x="348.5948" y="124.2969"/><line style="stroke:#181818;stroke-width:0.5;" x1="348.5948" x2="456.1768" y1="150.5938" y2="150.5938"/><text fill="#000000" font-family="sans-serif" font-size="14" lengthAdjust="spacing" textLength="87.582" x="358.5948" y="142.292">CapsLockOff</text></g><g class="entity" data-qualified-name="Active.CONC2.CapsLockOn" id="ent0013"><rect fill="#F1F1F1" height="50" rx="12.5" ry="12.5" style="stroke:#181818;stroke-width:0.5;" width="106.5977" x="349.0848" y="227.2969"/><line style="stroke:#181818;stroke-width:0.5;" x1="349.0848" x2="455.6824" y1="253.5938" y2="253.5938"/><text fill="#000000" font-family="sans-serif" font-size="14" lengthAdjust="spacing" textLength="86.5977" x="359.0848" y="245.292">CapsLockOn</text></g><!--link *start*CONC2 to CapsLockOff--><g class="link" data-entity-1="ent0010" data-entity-2="ent0011" data-link-type="dependency" data-source-line="8" id="lnk12"><path d="M330.6348,149.2969 C336.5248,149.2969 336.4048,149.2969 342.2948,149.2969" fill="none" id="*start*CONC2-to-CapsLockOff" style="stroke:#181818;stroke-width:1;"/><polygon fill="#181818" points="348.2948,149.2969,339.2948,145.2969,343.2948,149.2969,339.2948,153.2969,348.2948,149.2969" style="stroke:#181818;stroke-width:1;"/></g><!--link CapsLockOff to CapsLockOn--><g class="link" data-entity-1="ent0011" data-entity-2="ent0013" data-link-type="dependency" data-source-line="9" id="lnk14"><path d="M348.3748,171.0669 C339.9848,176.6869 332.4448,183.6669 327.3848,192.2969 C318.0048,208.3069 325.94,218.6828 343.74,228.5728" fill="none" id="CapsLockOff-to-CapsLockOn" style="stroke:#181818;stroke-width:1;"/><polygon fill="#181818" points="348.9848,231.4869,343.0603,223.6192,344.6141,229.0585,339.1748,230.6122,348.9848,231.4869" style="stroke:#181818;stroke-width:1;"/><text fill="#000000" font-family="sans-serif" font-size="13" lengthAdjust="spacing" textLength="128.8257" x="328.3848" y="205.3638">EvCapsLockPressed</text></g><!--link CapsLockOn to CapsLockOff--><g class="link" data-entity-1="ent0013" data-entity-2="ent0011" data-link-type="dependency" data-source-line="10" id="lnk15"><path d="M445.0248,226.8269 C456.2748,217.0669 463.7148,205.0969 457.3848,192.2969 C454.0848,185.6169 453.5721,183.7773 448.0021,178.6573" fill="none" id="CapsLockOn-to-CapsLockOff" style="stroke:#181818;stroke-width:1;"/><polygon fill="#181818" points="443.5848,174.5969,447.5038,183.6324,447.2659,177.9806,452.9177,177.7427,443.5848,174.5969" style="stroke:#181818;stroke-width:1;"/><text fill="#000000" font-family="sans-serif" font-size="13" lengthAdjust="spacing" textLength="128.8257" x="460.3848" y="205.3638">EvCapsLockPressed</text></g><line style="stroke:#181818;stroke-width:1.5;stroke-dasharray:8,10;" x1="599.2104" x2="599.2104" y1="117.2969" y2="293.2969"/><g class="start_entity" data-qualified-name="Active.CONC3..start.CONC3" data-source-line="12" id="ent0016"><ellipse cx="615.2104" cy="149.2969" fill="#222222" rx="10" ry="10" style="stroke:#222222;stroke-width:1;"/></g><g class="entity" data-qualified-name="Active.CONC3.ScrollLockOff" id="ent0017"><rect fill="#F1F1F1" height="50" rx="12.5" ry="12.5" style="stroke:#181818;stroke-width:0.5;" width="111.7314" x="643.3404" y="124.2969"/><line style="stroke:#181818;stroke-width:0.5;" x1="643.3404" x2="755.0719" y1="150.5938" y2="150.5938"/><text fill="#000000" font-family="sans-serif" font-size="14" lengthAdjust="spacing" textLength="91.7314" x="653.3404" y="142.292">ScrollLockOff</text></g><g class="entity" data-qualified-name="Active.CONC3.ScrollLockOn" id="ent0019"><rect fill="#F1F1F1" height="50" rx="12.5" ry="12.5" style="stroke:#181818;stroke-width:0.5;" width="110.7471" x="643.8404" y="227.2969"/><line style="stroke:#181818;stroke-width:0.5;" x1="643.8404" x2="754.5875" y1="253.5938" y2="253.5938"/><text fill="#000000" font-family="sans-serif" font-size="14" lengthAdjust="spacing" textLength="90.7471" x="653.8404" y="245.292">ScrollLockOn</text></g><!--link *start*CONC3 to ScrollLockOff--><g class="link" data-entity-1="ent0016" data-entity-2="ent0017" data-link-type="dependency" data-source-line="12" id="lnk18"><path d="M625.7104,149.2969 C631.4504,149.2969 631.1904,149.2969 636.9404,149.2969" fill="none" id="*start*CONC3-to-ScrollLockOff" style="stroke:#181818;stroke-width:1;"/><polygon fill="#181818" points="642.9404,149.2969,633.9404,145.2969,637.9404,149.2969,633.9404,153.2969,642.9404,149.2969" style="stroke:#181818;stroke-width:1;"/></g><!--link ScrollLockOff to ScrollLockOn--><g class="link" data-entity-1="ent0017" data-entity-2="ent0019" data-link-type="dependency" data-source-line="13" id="lnk20"><path d="M643.0204,171.3369 C634.7104,176.8869 627.2604,183.7869 622.2104,192.2969 C612.7504,208.2269 620.3858,218.4606 638.1658,228.2606" fill="none" id="ScrollLockOff-to-ScrollLockOn" style="stroke:#181818;stroke-width:1;"/><polygon fill="#181818" points="643.4204,231.1569,637.4693,223.3093,639.0416,228.7433,633.6076,230.3156,643.4204,231.1569" style="stroke:#181818;stroke-width:1;"/><text fill="#000000" font-family="sans-serif" font-size="13" lengthAdjust="spacing" textLength="132.6787" x="623.2104" y="205.3638">EvScrollLockPressed</text></g><!--link ScrollLockOn to ScrollLockOff--><g class="link" data-entity-1="ent0019" data-entity-2="ent0017" data-link-type="dependency" data-source-line="14" id="lnk21"><path d="M743.3904,227.0069 C755.0404,217.2669 762.7604,205.2669 756.2104,192.2969 C752.8304,185.6069 752.2818,183.7289 746.6218,178.6389" fill="none" id="ScrollLockOn-to-ScrollLockOff" style="stroke:#181818;stroke-width:1;"/><polygon fill="#181818" points="742.1604,174.6269,746.1778,183.6192,745.8782,177.9702,751.5271,177.6707,742.1604,174.6269" style="stroke:#181818;stroke-width:1;"/><text fill="#000000" font-family="sans-serif" font-size="13" lengthAdjust="spacing" textLength="132.6787" x="759.2104" y="205.3638">EvScrollLockPressed</text></g><g class="start_entity" data-qualified-name=".start." data-source-line="1" id="ent0002"><ellipse cx="461.94" cy="16" fill="#222222" rx="10" ry="10" style="stroke:#222222;stroke-width:1;"/></g><!--link *start* to Active--><g class="link" data-entity-1="ent0002" data-entity-2="ent0002" data-link-type="dependency" data-source-line="1" id="lnk3"><path d="M461.94,26.15 C461.94,38.3 461.94,55.12 461.94,79.84" fill="none" id="*start*-to-Active" style="stroke:#181818;stroke-width:1;"/><polygon fill="#181818" points="461.94,85.84,465.94,76.84,461.94,80.84,457.94,76.84,461.94,85.84" style="stroke:#181818;stroke-width:1;"/></g><?plantuml-src YzQALT3LjLDmJ2x9B4lbuYekIIn9XV8KghaK5A912kmK_4fpVVAJi_tJqe1Y20vOBuoRfs2bu5e6vGKKfHONfwOWgSv3KGpKYrLrJGt2KkV4WcA4hKWyi4bmFiHU61TX5982NLJJS6X0jZiukIW_9mTXEmeVR1wI2CG52064aIYATD7DnQ6j5W00?></g></svg>