<svg xmlns="http://www.w3.org/2000/svg" xmlns:xlink="http://www.w3.org/1999/xlink" contentStyleType="text/css" data-diagram-type="WBS" height="197px" preserveAspectRatio="none" style="width:275px;height:197px;background:#FFFFFF;" version="1.1" viewBox="0 0 275 197" width="275px" zoomAndPan="magnify"><?plantuml 1.2026.3beta5?><defs/><g><line style="stroke:#181818;stroke-width:1.5;" x1="50.8096" x2="50.8096" y1="73.9688" y2="93.9688"/><rect fill="#F1F1F1" height="33.9688" style="stroke:#181818;stroke-width:1.5;" width="61.6191" x="20" y="93.9688"/><text fill="#000000" font-family="sans-serif" font-size="12" lengthAdjust="spacing" textLength="41.6191" x="30" y="115.1074">A topic</text><line style="stroke:#181818;stroke-width:1.5;" x1="50.8096" x2="60.8096" y1="159.9219" y2="159.9219"/><rect fill="#F1F1F1" height="33.9688" style="stroke:#181818;stroke-width:1.5;" width="72.2656" x="60.8096" y="142.9375"/><text fill="#000000" font-family="sans-serif" font-size="12" lengthAdjust="spacing" textLength="52.2656" x="70.8096" y="164.0762">common</text><line style="stroke:#181818;stroke-width:1.5;" x1="50.8096" x2="50.8096" y1="127.9375" y2="159.9219"/><line style="stroke:#181818;stroke-width:1.5;" x1="203.6719" x2="203.6719" y1="73.9688" y2="93.9688"/><rect fill="#F1F1F1" height="33.9688" style="stroke:#181818;stroke-width:1.5;" width="101.1934" x="153.0752" y="93.9688"/><text fill="#000000" font-family="sans-serif" font-size="12" lengthAdjust="spacing" textLength="81.1934" x="163.0752" y="115.1074">Another topic</text><line style="stroke:#181818;stroke-width:1.5;" x1="50.8096" x2="203.6719" y1="73.9688" y2="73.9688"/><rect fill="#F1F1F1" height="33.9688" style="stroke:#181818;stroke-width:1.5;" width="45.6699" x="104.4058" y="20"/><text fill="#000000" font-family="sans-serif" font-size="12" lengthAdjust="spacing" textLength="25.6699" x="114.4058" y="41.1387">Test</text><line style="stroke:#181818;stroke-width:1.5;" x1="127.2407" x2="127.2407" y1="53.9688" y2="73.9688"/><line style="stroke:#181818;stroke-width:1;" x1="166.6537" x2="133.0752" y1="127.9375" y2="143.3437"/><polygon fill="#181818" points="133.0752,143.3437,142.9234,143.2262,137.6197,141.2586,139.5872,135.955,133.0752,143.3437" style="stroke:#181818;stroke-width:1;"/><line style="stroke:#0000FF;stroke-width:1;" x1="81.6191" x2="153.0752" y1="110.9531" y2="110.9531"/><polygon fill="#0000FF" points="153.0752,110.9531,144.0752,106.9531,148.0752,110.9531,144.0752,114.9531,153.0752,110.9531" style="stroke:#0000FF;stroke-width:1;"/><?plantuml-src BOn12e0m30JlUKN0YnOKMz6Zw1_yG5C32jgAZVXzM_2q33Fi5CNUyb84XGj70QLAgd162TVk4gdIwGfTEC_WinIJh0-oyVqtOh2kHtGQ2DCcBEXu62RsQpu6tPZM34r7BBR_0000?></g></svg>