<svg xmlns="http://www.w3.org/2000/svg" xmlns:xlink="http://www.w3.org/1999/xlink" contentStyleType="text/css" data-diagram-type="WBS" height="309px" preserveAspectRatio="none" style="width:187px;height:309px;background:#FFFFFF;" version="1.1" viewBox="0 0 187 309" width="187px" zoomAndPan="magnify"><?plantuml 1.2026.3beta5?><defs/><g><line style="stroke:#181818;stroke-width:1.5;" x1="58.8682" x2="58.8682" y1="73.9688" y2="93.9688"/><rect fill="#F1F1F1" height="33.9688" style="stroke:#181818;stroke-width:1.5;" width="77.7363" x="20" y="93.9688"/><path d="M35,106.9375 C32.79,106.9375 31,108.7275 31,110.9375 C31,113.1475 32.79,114.9375 35,114.9375 C37.21,114.9375 39,113.1475 39,110.9375 C39,108.7275 37.21,106.9375 35,106.9375 M35,107.9375 C35.33,107.9375 35.64,108.0275 35.94,108.1275 C35.73,108.3275 35.49,108.5075 35.53,108.6875 C35.57,108.8675 36.22,108.8175 36.22,109.1875 C36.22,109.4575 35.8,109.5375 36.09,109.8475 C36.44,110.1975 35.45,110.8275 35.43,111.2875 C35.4,112.1175 36.27,112.2575 36.96,112.2575 C37.38,112.2575 37.49,112.4575 37.46,112.6975 C36.92,113.4675 36,113.9475 34.99,113.9475 C34.61,113.9475 34.26,113.8575 33.93,113.7275 C34.15,113.2875 33.65,112.4175 33.18,112.1375 C32.95,111.9075 32.46,111.9975 32.18,111.8875 C32.09,111.6175 32,111.3475 31.99,111.0475 C32.02,110.9975 32.07,110.9575 32.15,110.9575 C32.34,110.9575 32.6,111.3375 32.74,111.2975 C32.92,111.2575 32,109.9875 32.43,109.7375 C32.63,109.6175 33.03,110.1275 32.9,109.5775 C32.78,109.0675 33.26,109.2975 33.56,109.1675 C33.82,109.0575 34.01,108.7575 33.69,108.5775 C33.63,108.5475 33.56,108.4775 33.47,108.3875 C33.92,108.1175 34.44,107.9475 35,107.9475 M37.31,109.0275 C37.49,109.2475 37.63,109.4875 37.75,109.7475 C37.75,109.7575 37.75,109.7675 37.75,109.7775 C37.71,109.8475 37.64,109.8875 37.53,109.9975 C37.25,110.2775 37.21,109.7875 37.09,109.6875 C36.96,109.5675 36.49,109.7075 36.43,109.5575 C36.36,109.3775 36.93,109.1375 37.31,109.0275" fill="#000000"/><text fill="#000000" font-family="sans-serif" font-size="12" lengthAdjust="spacing" textLength="43.9219" x="43.8145" y="115.1074">Ubuntu</text><line style="stroke:#181818;stroke-width:1.5;" x1="58.8682" x2="68.8682" y1="166.9063" y2="166.9063"/><rect fill="#F1F1F1" height="47.9375" style="stroke:#181818;stroke-width:1.5;" width="97.3438" x="68.8682" y="142.9375"/><text fill="#000000" font-family="sans-serif" font-size="12" lengthAdjust="spacing" textLength="62.1445" x="78.8682" y="164.0762">Linux Mint</text><text fill="#000000" font-family="sans-serif" font-size="12" lengthAdjust="spacing" textLength="77.3438" x="78.8682" y="178.0449">Open Source</text><line style="stroke:#181818;stroke-width:1.5;" x1="58.8682" x2="68.8682" y1="222.8594" y2="222.8594"/><rect fill="#F1F1F1" height="33.9688" style="stroke:#181818;stroke-width:1.5;" width="70.6133" x="68.8682" y="205.875"/><text fill="#000000" font-family="sans-serif" font-size="12" lengthAdjust="spacing" textLength="50.6133" x="78.8682" y="227.0137">Kubuntu</text><line style="stroke:#181818;stroke-width:1.5;" x1="58.8682" x2="68.8682" y1="271.8281" y2="271.8281"/><rect fill="#F1F1F1" height="33.9688" style="stroke:#181818;stroke-width:1.5;" width="31.4434" x="68.8682" y="254.8438"/><text fill="#000000" font-family="sans-serif" font-size="12" lengthAdjust="spacing" textLength="11.4434" x="78.8682" y="275.9824">...</text><line style="stroke:#181818;stroke-width:1.5;" x1="58.8682" x2="58.8682" y1="127.9375" y2="271.8281"/><line style="stroke:#181818;stroke-width:1.5;" x1="58.8682" x2="93.106" y1="73.9688" y2="73.9688"/><rect fill="#F1F1F1" height="33.9688" style="stroke:#181818;stroke-width:1.5;" width="76.3477" x="54.9321" y="20"/><path d="M65.9321,32.9688 L65.9321,40.9688 L66.9321,40.9688 L66.9321,32.9688 L65.9321,32.9688 M67.9321,32.9688 L67.9321,36.9688 L69.9321,36.9688 L69.9321,37.9688 L73.9321,37.9688 L71.9321,35.9988 L73.9321,33.9688 L70.9321,33.9688 L70.9321,32.9688 L67.9321,32.9688" fill="#000000"/><text fill="#000000" font-family="sans-serif" font-size="12" lengthAdjust="spacing" textLength="42.5332" x="78.7466" y="41.1387">Debian</text><line style="stroke:#181818;stroke-width:1.5;" x1="93.106" x2="93.106" y1="53.9688" y2="73.9688"/><?plantuml-src SoWkIImgAKygvj9Ii55BoqbCjrDmIKtAJCpZqWA9fEVa9wNQAOGcbUQLb781nRIiV3BpIYiKV3FpIhZy2rBp58BpIukIKwt1aWhUfH2L8BQUdXwNGsfU2iXqBaCz8mCZCptZfDIIH5C0?></g></svg>