<svg xmlns="http://www.w3.org/2000/svg" xmlns:xlink="http://www.w3.org/1999/xlink" contentStyleType="text/css" data-diagram-type="CLASS" height="70px" preserveAspectRatio="none" style="width:140px;height:70px;background:#FFFFFF;" version="1.1" viewBox="0 0 140 70" width="140px" zoomAndPan="magnify"><?plantuml 1.2026.3beta5?><defs/><g><!--class A--><g class="entity" data-qualified-name="A" data-source-line="1" id="ent0002"><rect fill="#F1F1F1" height="48" rx="2.5" ry="2.5" style="stroke:#181818;stroke-width:0.5;" width="41.5771" x="7" y="7"/><ellipse cx="22" cy="23" fill="#ADD1B2" rx="11" ry="11" style="stroke:#181818;stroke-width:1;"/><path d="M24.9688,28.6406 Q24.3906,28.9375 23.75,29.0781 Q23.1094,29.2344 22.4063,29.2344 Q19.9063,29.2344 18.5781,27.5938 Q17.2656,25.9375 17.2656,22.8125 Q17.2656,19.6875 18.5781,18.0313 Q19.9063,16.375 22.4063,16.375 Q23.1094,16.375 23.75,16.5313 Q24.4063,16.6875 24.9688,16.9844 L24.9688,19.7031 Q24.3438,19.125 23.75,18.8594 Q23.1563,18.5781 22.5313,18.5781 Q21.1875,18.5781 20.5,19.6563 Q19.8125,20.7188 19.8125,22.8125 Q19.8125,24.9063 20.5,25.9844 Q21.1875,27.0469 22.5313,27.0469 Q23.1563,27.0469 23.75,26.7813 Q24.3438,26.5 24.9688,25.9219 L24.9688,28.6406 Z " fill="#000000"/><text fill="#000000" font-family="sans-serif" font-size="14" lengthAdjust="spacing" textLength="9.5771" x="36" y="27.8467">A</text><line style="stroke:#181818;stroke-width:0.5;" x1="8" x2="47.5771" y1="39" y2="39"/><line style="stroke:#181818;stroke-width:0.5;" x1="8" x2="47.5771" y1="47" y2="47"/></g><!--class B--><g class="entity" data-qualified-name="B" data-source-line="2" id="ent0003"><rect fill="#F1F1F1" height="48" rx="2.5" ry="2.5" style="stroke:#181818;stroke-width:0.5;" width="41.6045" x="83.99" y="7"/><ellipse cx="98.99" cy="23" fill="#ADD1B2" rx="11" ry="11" style="stroke:#181818;stroke-width:1;"/><path d="M101.9588,28.6406 Q101.3806,28.9375 100.74,29.0781 Q100.0994,29.2344 99.3963,29.2344 Q96.8963,29.2344 95.5681,27.5938 Q94.2556,25.9375 94.2556,22.8125 Q94.2556,19.6875 95.5681,18.0313 Q96.8963,16.375 99.3963,16.375 Q100.0994,16.375 100.74,16.5313 Q101.3963,16.6875 101.9588,16.9844 L101.9588,19.7031 Q101.3338,19.125 100.74,18.8594 Q100.1463,18.5781 99.5213,18.5781 Q98.1775,18.5781 97.49,19.6563 Q96.8025,20.7188 96.8025,22.8125 Q96.8025,24.9063 97.49,25.9844 Q98.1775,27.0469 99.5213,27.0469 Q100.1463,27.0469 100.74,26.7813 Q101.3338,26.5 101.9588,25.9219 L101.9588,28.6406 Z " fill="#000000"/><text fill="#000000" font-family="sans-serif" font-size="14" lengthAdjust="spacing" textLength="9.6045" x="112.99" y="27.8467">B</text><line style="stroke:#181818;stroke-width:0.5;" x1="84.99" x2="124.5945" y1="39" y2="39"/><line style="stroke:#181818;stroke-width:0.5;" x1="84.99" x2="124.5945" y1="47" y2="47"/></g><!--link A to B--><g class="link" data-entity-1="ent0002" data-entity-2="ent0003" data-link-type="dependency" data-source-line="3" id="lnk4"><path codeLine="3" d="M48.84,31 C60.5,31 66.15,31 77.81,31" fill="none" id="A-to-B" style="stroke:#181818;stroke-width:1;"/><polygon fill="#181818" points="83.81,31,74.81,27,78.81,31,74.81,35,83.81,31" style="stroke:#181818;stroke-width:1;"/></g><?plantuml-src Iyv9B2vMSEHA1jDEN8uAkaMPwHabkdOAJW00?></g></svg>